G04 #@! TF.FileFunction,Legend,Top*
%FSLAX46Y46*%
G04 Gerber Fmt 4.6, Leading zero omitted, Abs format (unit mm)*
G04 Created by KiCad (PCBNEW 4.0.5) date 03/25/17 21:33:15*
%MOMM*%
%LPD*%
G01*
G04 APERTURE LIST*
%ADD10C,0.100000*%
%ADD11C,0.300000*%
%ADD12C,0.200000*%
%ADD13C,0.120000*%
%ADD14C,0.150000*%
G04 APERTURE END LIST*
D10*
D11*
X122070571Y-102127857D02*
X120927714Y-102127857D01*
X119499142Y-103056429D02*
X120213428Y-103056429D01*
X120284857Y-102342143D01*
X120213428Y-102413571D01*
X120070571Y-102485000D01*
X119713428Y-102485000D01*
X119570571Y-102413571D01*
X119499142Y-102342143D01*
X119427714Y-102199286D01*
X119427714Y-101842143D01*
X119499142Y-101699286D01*
X119570571Y-101627857D01*
X119713428Y-101556429D01*
X120070571Y-101556429D01*
X120213428Y-101627857D01*
X120284857Y-101699286D01*
X118999143Y-103056429D02*
X118499143Y-101556429D01*
X117999143Y-103056429D01*
X108608571Y-102127857D02*
X107465714Y-102127857D01*
X108037143Y-101556429D02*
X108037143Y-102699286D01*
X106037142Y-103056429D02*
X106751428Y-103056429D01*
X106822857Y-102342143D01*
X106751428Y-102413571D01*
X106608571Y-102485000D01*
X106251428Y-102485000D01*
X106108571Y-102413571D01*
X106037142Y-102342143D01*
X105965714Y-102199286D01*
X105965714Y-101842143D01*
X106037142Y-101699286D01*
X106108571Y-101627857D01*
X106251428Y-101556429D01*
X106608571Y-101556429D01*
X106751428Y-101627857D01*
X106822857Y-101699286D01*
X105537143Y-103056429D02*
X105037143Y-101556429D01*
X104537143Y-103056429D01*
X114172857Y-105525000D02*
X114315714Y-105596429D01*
X114530000Y-105596429D01*
X114744285Y-105525000D01*
X114887143Y-105382143D01*
X114958571Y-105239286D01*
X115030000Y-104953571D01*
X115030000Y-104739286D01*
X114958571Y-104453571D01*
X114887143Y-104310714D01*
X114744285Y-104167857D01*
X114530000Y-104096429D01*
X114387143Y-104096429D01*
X114172857Y-104167857D01*
X114101428Y-104239286D01*
X114101428Y-104739286D01*
X114387143Y-104739286D01*
X113458571Y-104096429D02*
X113458571Y-105596429D01*
X112601428Y-104096429D01*
X112601428Y-105596429D01*
X111887142Y-104096429D02*
X111887142Y-105596429D01*
X111529999Y-105596429D01*
X111315714Y-105525000D01*
X111172856Y-105382143D01*
X111101428Y-105239286D01*
X111029999Y-104953571D01*
X111029999Y-104739286D01*
X111101428Y-104453571D01*
X111172856Y-104310714D01*
X111315714Y-104167857D01*
X111529999Y-104096429D01*
X111887142Y-104096429D01*
X118355571Y-148268429D02*
X117498428Y-148268429D01*
X117926999Y-146768429D02*
X117926999Y-148268429D01*
X116427000Y-146839857D02*
X116569857Y-146768429D01*
X116855571Y-146768429D01*
X116998428Y-146839857D01*
X117069857Y-146982714D01*
X117069857Y-147554143D01*
X116998428Y-147697000D01*
X116855571Y-147768429D01*
X116569857Y-147768429D01*
X116427000Y-147697000D01*
X116355571Y-147554143D01*
X116355571Y-147411286D01*
X117069857Y-147268429D01*
X115712714Y-146768429D02*
X115712714Y-147768429D01*
X115712714Y-147482714D02*
X115641286Y-147625571D01*
X115569857Y-147697000D01*
X115427000Y-147768429D01*
X115284143Y-147768429D01*
X114784143Y-147768429D02*
X114784143Y-146768429D01*
X114784143Y-147625571D02*
X114712715Y-147697000D01*
X114569857Y-147768429D01*
X114355572Y-147768429D01*
X114212715Y-147697000D01*
X114141286Y-147554143D01*
X114141286Y-146768429D01*
X112784143Y-146768429D02*
X112784143Y-147554143D01*
X112855572Y-147697000D01*
X112998429Y-147768429D01*
X113284143Y-147768429D01*
X113427000Y-147697000D01*
X112784143Y-146839857D02*
X112927000Y-146768429D01*
X113284143Y-146768429D01*
X113427000Y-146839857D01*
X113498429Y-146982714D01*
X113498429Y-147125571D01*
X113427000Y-147268429D01*
X113284143Y-147339857D01*
X112927000Y-147339857D01*
X112784143Y-147411286D01*
X112069857Y-146768429D02*
X112069857Y-147768429D01*
X112069857Y-147482714D02*
X111998429Y-147625571D01*
X111927000Y-147697000D01*
X111784143Y-147768429D01*
X111641286Y-147768429D01*
X111284143Y-147768429D02*
X110927000Y-146768429D01*
X110569858Y-147768429D02*
X110927000Y-146768429D01*
X111069858Y-146411286D01*
X111141286Y-146339857D01*
X111284143Y-146268429D01*
X120319857Y-144482429D02*
X120319857Y-145982429D01*
X119677000Y-144482429D02*
X119677000Y-145268143D01*
X119748429Y-145411000D01*
X119891286Y-145482429D01*
X120105571Y-145482429D01*
X120248429Y-145411000D01*
X120319857Y-145339571D01*
X118319857Y-144482429D02*
X118319857Y-145268143D01*
X118391286Y-145411000D01*
X118534143Y-145482429D01*
X118819857Y-145482429D01*
X118962714Y-145411000D01*
X118319857Y-144553857D02*
X118462714Y-144482429D01*
X118819857Y-144482429D01*
X118962714Y-144553857D01*
X119034143Y-144696714D01*
X119034143Y-144839571D01*
X118962714Y-144982429D01*
X118819857Y-145053857D01*
X118462714Y-145053857D01*
X118319857Y-145125286D01*
X117391285Y-144482429D02*
X117534143Y-144553857D01*
X117605571Y-144696714D01*
X117605571Y-145982429D01*
X117034143Y-145482429D02*
X116462714Y-145482429D01*
X116819857Y-144482429D02*
X116819857Y-145768143D01*
X116748429Y-145911000D01*
X116605571Y-145982429D01*
X116462714Y-145982429D01*
X115962714Y-145053857D02*
X114819857Y-145053857D01*
X113462714Y-144482429D02*
X113462714Y-145268143D01*
X113534143Y-145411000D01*
X113677000Y-145482429D01*
X113962714Y-145482429D01*
X114105571Y-145411000D01*
X113462714Y-144553857D02*
X113605571Y-144482429D01*
X113962714Y-144482429D01*
X114105571Y-144553857D01*
X114177000Y-144696714D01*
X114177000Y-144839571D01*
X114105571Y-144982429D01*
X113962714Y-145053857D01*
X113605571Y-145053857D01*
X113462714Y-145125286D01*
X112105571Y-144482429D02*
X112105571Y-145982429D01*
X112105571Y-144553857D02*
X112248428Y-144482429D01*
X112534142Y-144482429D01*
X112677000Y-144553857D01*
X112748428Y-144625286D01*
X112819857Y-144768143D01*
X112819857Y-145196714D01*
X112748428Y-145339571D01*
X112677000Y-145411000D01*
X112534142Y-145482429D01*
X112248428Y-145482429D01*
X112105571Y-145411000D01*
X110748428Y-144482429D02*
X110748428Y-145982429D01*
X110748428Y-144553857D02*
X110891285Y-144482429D01*
X111176999Y-144482429D01*
X111319857Y-144553857D01*
X111391285Y-144625286D01*
X111462714Y-144768143D01*
X111462714Y-145196714D01*
X111391285Y-145339571D01*
X111319857Y-145411000D01*
X111176999Y-145482429D01*
X110891285Y-145482429D01*
X110748428Y-145411000D01*
X109462714Y-144553857D02*
X109605571Y-144482429D01*
X109891285Y-144482429D01*
X110034142Y-144553857D01*
X110105571Y-144696714D01*
X110105571Y-145268143D01*
X110034142Y-145411000D01*
X109891285Y-145482429D01*
X109605571Y-145482429D01*
X109462714Y-145411000D01*
X109391285Y-145268143D01*
X109391285Y-145125286D01*
X110105571Y-144982429D01*
X108748428Y-144482429D02*
X108748428Y-145482429D01*
X108748428Y-145196714D02*
X108677000Y-145339571D01*
X108605571Y-145411000D01*
X108462714Y-145482429D01*
X108319857Y-145482429D01*
D12*
X100965000Y-99695000D02*
X100965000Y-149860000D01*
D11*
X81610143Y-105072571D02*
X81610143Y-103572571D01*
X82253000Y-105072571D02*
X82253000Y-104286857D01*
X82181571Y-104144000D01*
X82038714Y-104072571D01*
X81824429Y-104072571D01*
X81681571Y-104144000D01*
X81610143Y-104215429D01*
X83610143Y-105072571D02*
X83610143Y-104286857D01*
X83538714Y-104144000D01*
X83395857Y-104072571D01*
X83110143Y-104072571D01*
X82967286Y-104144000D01*
X83610143Y-105001143D02*
X83467286Y-105072571D01*
X83110143Y-105072571D01*
X82967286Y-105001143D01*
X82895857Y-104858286D01*
X82895857Y-104715429D01*
X82967286Y-104572571D01*
X83110143Y-104501143D01*
X83467286Y-104501143D01*
X83610143Y-104429714D01*
X84538715Y-105072571D02*
X84395857Y-105001143D01*
X84324429Y-104858286D01*
X84324429Y-103572571D01*
X84895857Y-104072571D02*
X85467286Y-104072571D01*
X85110143Y-105072571D02*
X85110143Y-103786857D01*
X85181571Y-103644000D01*
X85324429Y-103572571D01*
X85467286Y-103572571D01*
X85967286Y-104501143D02*
X87110143Y-104501143D01*
X88467286Y-105072571D02*
X88467286Y-104286857D01*
X88395857Y-104144000D01*
X88253000Y-104072571D01*
X87967286Y-104072571D01*
X87824429Y-104144000D01*
X88467286Y-105001143D02*
X88324429Y-105072571D01*
X87967286Y-105072571D01*
X87824429Y-105001143D01*
X87753000Y-104858286D01*
X87753000Y-104715429D01*
X87824429Y-104572571D01*
X87967286Y-104501143D01*
X88324429Y-104501143D01*
X88467286Y-104429714D01*
X89824429Y-105072571D02*
X89824429Y-103572571D01*
X89824429Y-105001143D02*
X89681572Y-105072571D01*
X89395858Y-105072571D01*
X89253000Y-105001143D01*
X89181572Y-104929714D01*
X89110143Y-104786857D01*
X89110143Y-104358286D01*
X89181572Y-104215429D01*
X89253000Y-104144000D01*
X89395858Y-104072571D01*
X89681572Y-104072571D01*
X89824429Y-104144000D01*
X91181572Y-105072571D02*
X91181572Y-103572571D01*
X91181572Y-105001143D02*
X91038715Y-105072571D01*
X90753001Y-105072571D01*
X90610143Y-105001143D01*
X90538715Y-104929714D01*
X90467286Y-104786857D01*
X90467286Y-104358286D01*
X90538715Y-104215429D01*
X90610143Y-104144000D01*
X90753001Y-104072571D01*
X91038715Y-104072571D01*
X91181572Y-104144000D01*
X92467286Y-105001143D02*
X92324429Y-105072571D01*
X92038715Y-105072571D01*
X91895858Y-105001143D01*
X91824429Y-104858286D01*
X91824429Y-104286857D01*
X91895858Y-104144000D01*
X92038715Y-104072571D01*
X92324429Y-104072571D01*
X92467286Y-104144000D01*
X92538715Y-104286857D01*
X92538715Y-104429714D01*
X91824429Y-104572571D01*
X93181572Y-105072571D02*
X93181572Y-104072571D01*
X93181572Y-104358286D02*
X93253000Y-104215429D01*
X93324429Y-104144000D01*
X93467286Y-104072571D01*
X93610143Y-104072571D01*
X83574429Y-101286571D02*
X84431572Y-101286571D01*
X84003001Y-102786571D02*
X84003001Y-101286571D01*
X85503000Y-102715143D02*
X85360143Y-102786571D01*
X85074429Y-102786571D01*
X84931572Y-102715143D01*
X84860143Y-102572286D01*
X84860143Y-102000857D01*
X84931572Y-101858000D01*
X85074429Y-101786571D01*
X85360143Y-101786571D01*
X85503000Y-101858000D01*
X85574429Y-102000857D01*
X85574429Y-102143714D01*
X84860143Y-102286571D01*
X86217286Y-102786571D02*
X86217286Y-101786571D01*
X86217286Y-102072286D02*
X86288714Y-101929429D01*
X86360143Y-101858000D01*
X86503000Y-101786571D01*
X86645857Y-101786571D01*
X87145857Y-101786571D02*
X87145857Y-102786571D01*
X87145857Y-101929429D02*
X87217285Y-101858000D01*
X87360143Y-101786571D01*
X87574428Y-101786571D01*
X87717285Y-101858000D01*
X87788714Y-102000857D01*
X87788714Y-102786571D01*
X89145857Y-102786571D02*
X89145857Y-102000857D01*
X89074428Y-101858000D01*
X88931571Y-101786571D01*
X88645857Y-101786571D01*
X88503000Y-101858000D01*
X89145857Y-102715143D02*
X89003000Y-102786571D01*
X88645857Y-102786571D01*
X88503000Y-102715143D01*
X88431571Y-102572286D01*
X88431571Y-102429429D01*
X88503000Y-102286571D01*
X88645857Y-102215143D01*
X89003000Y-102215143D01*
X89145857Y-102143714D01*
X89860143Y-102786571D02*
X89860143Y-101786571D01*
X89860143Y-102072286D02*
X89931571Y-101929429D01*
X90003000Y-101858000D01*
X90145857Y-101786571D01*
X90288714Y-101786571D01*
X90645857Y-101786571D02*
X91003000Y-102786571D01*
X91360142Y-101786571D02*
X91003000Y-102786571D01*
X90860142Y-103143714D01*
X90788714Y-103215143D01*
X90645857Y-103286571D01*
X87757143Y-144030000D02*
X87614286Y-143958571D01*
X87400000Y-143958571D01*
X87185715Y-144030000D01*
X87042857Y-144172857D01*
X86971429Y-144315714D01*
X86900000Y-144601429D01*
X86900000Y-144815714D01*
X86971429Y-145101429D01*
X87042857Y-145244286D01*
X87185715Y-145387143D01*
X87400000Y-145458571D01*
X87542857Y-145458571D01*
X87757143Y-145387143D01*
X87828572Y-145315714D01*
X87828572Y-144815714D01*
X87542857Y-144815714D01*
X88471429Y-145458571D02*
X88471429Y-143958571D01*
X89328572Y-145458571D01*
X89328572Y-143958571D01*
X90042858Y-145458571D02*
X90042858Y-143958571D01*
X90400001Y-143958571D01*
X90614286Y-144030000D01*
X90757144Y-144172857D01*
X90828572Y-144315714D01*
X90900001Y-144601429D01*
X90900001Y-144815714D01*
X90828572Y-145101429D01*
X90757144Y-145244286D01*
X90614286Y-145387143D01*
X90400001Y-145458571D01*
X90042858Y-145458571D01*
X93321429Y-147427143D02*
X94464286Y-147427143D01*
X93892857Y-147998571D02*
X93892857Y-146855714D01*
X95892858Y-146498571D02*
X95178572Y-146498571D01*
X95107143Y-147212857D01*
X95178572Y-147141429D01*
X95321429Y-147070000D01*
X95678572Y-147070000D01*
X95821429Y-147141429D01*
X95892858Y-147212857D01*
X95964286Y-147355714D01*
X95964286Y-147712857D01*
X95892858Y-147855714D01*
X95821429Y-147927143D01*
X95678572Y-147998571D01*
X95321429Y-147998571D01*
X95178572Y-147927143D01*
X95107143Y-147855714D01*
X96392857Y-146498571D02*
X96892857Y-147998571D01*
X97392857Y-146498571D01*
X79859429Y-147427143D02*
X81002286Y-147427143D01*
X82430858Y-146498571D02*
X81716572Y-146498571D01*
X81645143Y-147212857D01*
X81716572Y-147141429D01*
X81859429Y-147070000D01*
X82216572Y-147070000D01*
X82359429Y-147141429D01*
X82430858Y-147212857D01*
X82502286Y-147355714D01*
X82502286Y-147712857D01*
X82430858Y-147855714D01*
X82359429Y-147927143D01*
X82216572Y-147998571D01*
X81859429Y-147998571D01*
X81716572Y-147927143D01*
X81645143Y-147855714D01*
X82930857Y-146498571D02*
X83430857Y-147998571D01*
X83930857Y-146498571D01*
D13*
X106800000Y-141605000D02*
X106800000Y-105925000D01*
X106800000Y-105925000D02*
X104020000Y-105925000D01*
X104020000Y-105925000D02*
X104020000Y-141605000D01*
X104020000Y-141605000D02*
X106800000Y-141605000D01*
X106800000Y-142875000D02*
X106800000Y-144265000D01*
X106800000Y-144265000D02*
X105410000Y-144265000D01*
X116706000Y-141605000D02*
X116706000Y-105925000D01*
X116706000Y-105925000D02*
X113926000Y-105925000D01*
X113926000Y-105925000D02*
X113926000Y-141605000D01*
X113926000Y-141605000D02*
X116706000Y-141605000D01*
X116706000Y-142875000D02*
X116706000Y-144265000D01*
X116706000Y-144265000D02*
X115316000Y-144265000D01*
X114300000Y-100905000D02*
X109160000Y-100905000D01*
X109160000Y-100905000D02*
X109160000Y-103565000D01*
X109160000Y-103565000D02*
X114300000Y-103565000D01*
X114300000Y-103565000D02*
X114300000Y-100905000D01*
X115570000Y-100905000D02*
X116900000Y-100905000D01*
X116900000Y-100905000D02*
X116900000Y-102235000D01*
X109280000Y-146685000D02*
X109280000Y-146625000D01*
X109280000Y-146625000D02*
X106620000Y-146625000D01*
X106620000Y-146625000D02*
X106620000Y-146685000D01*
X106620000Y-146685000D02*
X109280000Y-146685000D01*
X109280000Y-147955000D02*
X109280000Y-149285000D01*
X109280000Y-149285000D02*
X107950000Y-149285000D01*
X106740000Y-146685000D02*
X106740000Y-146625000D01*
X106740000Y-146625000D02*
X104080000Y-146625000D01*
X104080000Y-146625000D02*
X104080000Y-146685000D01*
X104080000Y-146685000D02*
X106740000Y-146685000D01*
X106740000Y-147955000D02*
X106740000Y-149285000D01*
X106740000Y-149285000D02*
X105410000Y-149285000D01*
X124520000Y-146685000D02*
X124520000Y-146625000D01*
X124520000Y-146625000D02*
X121860000Y-146625000D01*
X121860000Y-146625000D02*
X121860000Y-146685000D01*
X121860000Y-146685000D02*
X124520000Y-146685000D01*
X124520000Y-147955000D02*
X124520000Y-149285000D01*
X124520000Y-149285000D02*
X123190000Y-149285000D01*
X121980000Y-146685000D02*
X121980000Y-146625000D01*
X121980000Y-146625000D02*
X119320000Y-146625000D01*
X119320000Y-146625000D02*
X119320000Y-146685000D01*
X119320000Y-146685000D02*
X121980000Y-146685000D01*
X121980000Y-147955000D02*
X121980000Y-149285000D01*
X121980000Y-149285000D02*
X120650000Y-149285000D01*
X124580000Y-141605000D02*
X124580000Y-105925000D01*
X124580000Y-105925000D02*
X121800000Y-105925000D01*
X121800000Y-105925000D02*
X121800000Y-141605000D01*
X121800000Y-141605000D02*
X124580000Y-141605000D01*
X124580000Y-142875000D02*
X124580000Y-144265000D01*
X124580000Y-144265000D02*
X123190000Y-144265000D01*
X77350000Y-107950000D02*
X77350000Y-143630000D01*
X77350000Y-143630000D02*
X80130000Y-143630000D01*
X80130000Y-143630000D02*
X80130000Y-107950000D01*
X80130000Y-107950000D02*
X77350000Y-107950000D01*
X77350000Y-106680000D02*
X77350000Y-105290000D01*
X77350000Y-105290000D02*
X78740000Y-105290000D01*
X79950000Y-102870000D02*
X79950000Y-102930000D01*
X79950000Y-102930000D02*
X82610000Y-102930000D01*
X82610000Y-102930000D02*
X82610000Y-102870000D01*
X82610000Y-102870000D02*
X79950000Y-102870000D01*
X79950000Y-101600000D02*
X79950000Y-100270000D01*
X79950000Y-100270000D02*
X81280000Y-100270000D01*
X77410000Y-102870000D02*
X77410000Y-102930000D01*
X77410000Y-102930000D02*
X80070000Y-102930000D01*
X80070000Y-102930000D02*
X80070000Y-102870000D01*
X80070000Y-102870000D02*
X77410000Y-102870000D01*
X77410000Y-101600000D02*
X77410000Y-100270000D01*
X77410000Y-100270000D02*
X78740000Y-100270000D01*
X95190000Y-102870000D02*
X95190000Y-102930000D01*
X95190000Y-102930000D02*
X97850000Y-102930000D01*
X97850000Y-102930000D02*
X97850000Y-102870000D01*
X97850000Y-102870000D02*
X95190000Y-102870000D01*
X95190000Y-101600000D02*
X95190000Y-100270000D01*
X95190000Y-100270000D02*
X96520000Y-100270000D01*
X92650000Y-102870000D02*
X92650000Y-102930000D01*
X92650000Y-102930000D02*
X95310000Y-102930000D01*
X95310000Y-102930000D02*
X95310000Y-102870000D01*
X95310000Y-102870000D02*
X92650000Y-102870000D01*
X92650000Y-101600000D02*
X92650000Y-100270000D01*
X92650000Y-100270000D02*
X93980000Y-100270000D01*
X87630000Y-148650000D02*
X92770000Y-148650000D01*
X92770000Y-148650000D02*
X92770000Y-145990000D01*
X92770000Y-145990000D02*
X87630000Y-145990000D01*
X87630000Y-145990000D02*
X87630000Y-148650000D01*
X86360000Y-148650000D02*
X85030000Y-148650000D01*
X85030000Y-148650000D02*
X85030000Y-147320000D01*
X85224000Y-107950000D02*
X85224000Y-143630000D01*
X85224000Y-143630000D02*
X88004000Y-143630000D01*
X88004000Y-143630000D02*
X88004000Y-107950000D01*
X88004000Y-107950000D02*
X85224000Y-107950000D01*
X85224000Y-106680000D02*
X85224000Y-105290000D01*
X85224000Y-105290000D02*
X86614000Y-105290000D01*
X95130000Y-107950000D02*
X95130000Y-143630000D01*
X95130000Y-143630000D02*
X97910000Y-143630000D01*
X97910000Y-143630000D02*
X97910000Y-107950000D01*
X97910000Y-107950000D02*
X95130000Y-107950000D01*
X95130000Y-106680000D02*
X95130000Y-105290000D01*
X95130000Y-105290000D02*
X96520000Y-105290000D01*
D14*
X107442095Y-108545381D02*
X107442095Y-109354905D01*
X107489714Y-109450143D01*
X107537333Y-109497762D01*
X107632571Y-109545381D01*
X107823048Y-109545381D01*
X107918286Y-109497762D01*
X107965905Y-109450143D01*
X108013524Y-109354905D01*
X108013524Y-108545381D01*
X108394476Y-108545381D02*
X109013524Y-108545381D01*
X108680190Y-108926333D01*
X108823048Y-108926333D01*
X108918286Y-108973952D01*
X108965905Y-109021571D01*
X109013524Y-109116810D01*
X109013524Y-109354905D01*
X108965905Y-109450143D01*
X108918286Y-109497762D01*
X108823048Y-109545381D01*
X108537333Y-109545381D01*
X108442095Y-109497762D01*
X108394476Y-109450143D01*
X111760095Y-108545381D02*
X111760095Y-109354905D01*
X111807714Y-109450143D01*
X111855333Y-109497762D01*
X111950571Y-109545381D01*
X112141048Y-109545381D01*
X112236286Y-109497762D01*
X112283905Y-109450143D01*
X112331524Y-109354905D01*
X112331524Y-108545381D01*
X112760095Y-108640619D02*
X112807714Y-108593000D01*
X112902952Y-108545381D01*
X113141048Y-108545381D01*
X113236286Y-108593000D01*
X113283905Y-108640619D01*
X113331524Y-108735857D01*
X113331524Y-108831095D01*
X113283905Y-108973952D01*
X112712476Y-109545381D01*
X113331524Y-109545381D01*
X106394286Y-145819762D02*
X106537143Y-145867381D01*
X106775239Y-145867381D01*
X106870477Y-145819762D01*
X106918096Y-145772143D01*
X106965715Y-145676905D01*
X106965715Y-145581667D01*
X106918096Y-145486429D01*
X106870477Y-145438810D01*
X106775239Y-145391190D01*
X106584762Y-145343571D01*
X106489524Y-145295952D01*
X106441905Y-145248333D01*
X106394286Y-145153095D01*
X106394286Y-145057857D01*
X106441905Y-144962619D01*
X106489524Y-144915000D01*
X106584762Y-144867381D01*
X106822858Y-144867381D01*
X106965715Y-144915000D01*
X104449524Y-145772143D02*
X104401905Y-145819762D01*
X104259048Y-145867381D01*
X104163810Y-145867381D01*
X104020952Y-145819762D01*
X103925714Y-145724524D01*
X103878095Y-145629286D01*
X103830476Y-145438810D01*
X103830476Y-145295952D01*
X103878095Y-145105476D01*
X103925714Y-145010238D01*
X104020952Y-144915000D01*
X104163810Y-144867381D01*
X104259048Y-144867381D01*
X104401905Y-144915000D01*
X104449524Y-144962619D01*
X124221905Y-145581667D02*
X124698096Y-145581667D01*
X124126667Y-145867381D02*
X124460000Y-144867381D01*
X124793334Y-145867381D01*
X121991429Y-145343571D02*
X122134286Y-145391190D01*
X122181905Y-145438810D01*
X122229524Y-145534048D01*
X122229524Y-145676905D01*
X122181905Y-145772143D01*
X122134286Y-145819762D01*
X122039048Y-145867381D01*
X121658095Y-145867381D01*
X121658095Y-144867381D01*
X121991429Y-144867381D01*
X122086667Y-144915000D01*
X122134286Y-144962619D01*
X122181905Y-145057857D01*
X122181905Y-145153095D01*
X122134286Y-145248333D01*
X122086667Y-145295952D01*
X121991429Y-145343571D01*
X121658095Y-145343571D01*
X119634095Y-108545381D02*
X119634095Y-109354905D01*
X119681714Y-109450143D01*
X119729333Y-109497762D01*
X119824571Y-109545381D01*
X120015048Y-109545381D01*
X120110286Y-109497762D01*
X120157905Y-109450143D01*
X120205524Y-109354905D01*
X120205524Y-108545381D01*
X121205524Y-109545381D02*
X120634095Y-109545381D01*
X120919809Y-109545381D02*
X120919809Y-108545381D01*
X120824571Y-108688238D01*
X120729333Y-108783476D01*
X120634095Y-108831095D01*
X80772095Y-139914381D02*
X80772095Y-140723905D01*
X80819714Y-140819143D01*
X80867333Y-140866762D01*
X80962571Y-140914381D01*
X81153048Y-140914381D01*
X81248286Y-140866762D01*
X81295905Y-140819143D01*
X81343524Y-140723905D01*
X81343524Y-139914381D01*
X82343524Y-140914381D02*
X81772095Y-140914381D01*
X82057809Y-140914381D02*
X82057809Y-139914381D01*
X81962571Y-140057238D01*
X81867333Y-140152476D01*
X81772095Y-140200095D01*
X80081429Y-104068571D02*
X80224286Y-104116190D01*
X80271905Y-104163810D01*
X80319524Y-104259048D01*
X80319524Y-104401905D01*
X80271905Y-104497143D01*
X80224286Y-104544762D01*
X80129048Y-104592381D01*
X79748095Y-104592381D01*
X79748095Y-103592381D01*
X80081429Y-103592381D01*
X80176667Y-103640000D01*
X80224286Y-103687619D01*
X80271905Y-103782857D01*
X80271905Y-103878095D01*
X80224286Y-103973333D01*
X80176667Y-104020952D01*
X80081429Y-104068571D01*
X79748095Y-104068571D01*
X77231905Y-104306667D02*
X77708096Y-104306667D01*
X77136667Y-104592381D02*
X77470000Y-103592381D01*
X77803334Y-104592381D01*
X98099524Y-104497143D02*
X98051905Y-104544762D01*
X97909048Y-104592381D01*
X97813810Y-104592381D01*
X97670952Y-104544762D01*
X97575714Y-104449524D01*
X97528095Y-104354286D01*
X97480476Y-104163810D01*
X97480476Y-104020952D01*
X97528095Y-103830476D01*
X97575714Y-103735238D01*
X97670952Y-103640000D01*
X97813810Y-103592381D01*
X97909048Y-103592381D01*
X98051905Y-103640000D01*
X98099524Y-103687619D01*
X94964286Y-104544762D02*
X95107143Y-104592381D01*
X95345239Y-104592381D01*
X95440477Y-104544762D01*
X95488096Y-104497143D01*
X95535715Y-104401905D01*
X95535715Y-104306667D01*
X95488096Y-104211429D01*
X95440477Y-104163810D01*
X95345239Y-104116190D01*
X95154762Y-104068571D01*
X95059524Y-104020952D01*
X95011905Y-103973333D01*
X94964286Y-103878095D01*
X94964286Y-103782857D01*
X95011905Y-103687619D01*
X95059524Y-103640000D01*
X95154762Y-103592381D01*
X95392858Y-103592381D01*
X95535715Y-103640000D01*
X88646095Y-139914381D02*
X88646095Y-140723905D01*
X88693714Y-140819143D01*
X88741333Y-140866762D01*
X88836571Y-140914381D01*
X89027048Y-140914381D01*
X89122286Y-140866762D01*
X89169905Y-140819143D01*
X89217524Y-140723905D01*
X89217524Y-139914381D01*
X89646095Y-140009619D02*
X89693714Y-139962000D01*
X89788952Y-139914381D01*
X90027048Y-139914381D01*
X90122286Y-139962000D01*
X90169905Y-140009619D01*
X90217524Y-140104857D01*
X90217524Y-140200095D01*
X90169905Y-140342952D01*
X89598476Y-140914381D01*
X90217524Y-140914381D01*
X92964095Y-139914381D02*
X92964095Y-140723905D01*
X93011714Y-140819143D01*
X93059333Y-140866762D01*
X93154571Y-140914381D01*
X93345048Y-140914381D01*
X93440286Y-140866762D01*
X93487905Y-140819143D01*
X93535524Y-140723905D01*
X93535524Y-139914381D01*
X93916476Y-139914381D02*
X94535524Y-139914381D01*
X94202190Y-140295333D01*
X94345048Y-140295333D01*
X94440286Y-140342952D01*
X94487905Y-140390571D01*
X94535524Y-140485810D01*
X94535524Y-140723905D01*
X94487905Y-140819143D01*
X94440286Y-140866762D01*
X94345048Y-140914381D01*
X94059333Y-140914381D01*
X93964095Y-140866762D01*
X93916476Y-140819143D01*
M02*
