G04 #@! TF.FileFunction,Copper,L1,Top,Signal*
%FSLAX46Y46*%
G04 Gerber Fmt 4.6, Leading zero omitted, Abs format (unit mm)*
G04 Created by KiCad (PCBNEW 4.0.5) date 03/25/17 21:32:30*
%MOMM*%
%LPD*%
G01*
G04 APERTURE LIST*
%ADD10C,0.100000*%
%ADD11R,1.700000X1.700000*%
%ADD12O,1.700000X1.700000*%
%ADD13C,1.500000*%
%ADD14C,0.500000*%
G04 APERTURE END LIST*
D10*
D11*
X105410000Y-142875000D03*
D12*
X105410000Y-140335000D03*
X105410000Y-137795000D03*
X105410000Y-135255000D03*
X105410000Y-132715000D03*
X105410000Y-127635000D03*
X105410000Y-125095000D03*
X105410000Y-122555000D03*
X105410000Y-120015000D03*
X105410000Y-117475000D03*
X105410000Y-112395000D03*
X105410000Y-109855000D03*
X105410000Y-107315000D03*
D11*
X115316000Y-142875000D03*
D12*
X115316000Y-140335000D03*
X115316000Y-137795000D03*
X115316000Y-135255000D03*
X115316000Y-132715000D03*
X115316000Y-127635000D03*
X115316000Y-125095000D03*
X115316000Y-122555000D03*
X115316000Y-120015000D03*
X115316000Y-117475000D03*
X115316000Y-112395000D03*
X115316000Y-109855000D03*
X115316000Y-107315000D03*
D11*
X115570000Y-102235000D03*
D12*
X113030000Y-102235000D03*
X110490000Y-102235000D03*
D11*
X107950000Y-147955000D03*
X105410000Y-147955000D03*
X123190000Y-147955000D03*
X120650000Y-147955000D03*
X123190000Y-142875000D03*
D12*
X123190000Y-140335000D03*
X123190000Y-137795000D03*
X123190000Y-135255000D03*
X123190000Y-132715000D03*
X123190000Y-127635000D03*
X123190000Y-125095000D03*
X123190000Y-122555000D03*
X123190000Y-120015000D03*
X123190000Y-117475000D03*
X123190000Y-112395000D03*
X123190000Y-109855000D03*
X123190000Y-107315000D03*
D11*
X78740000Y-106680000D03*
D12*
X78740000Y-109220000D03*
X78740000Y-111760000D03*
X78740000Y-114300000D03*
X78740000Y-116840000D03*
X78740000Y-121920000D03*
X78740000Y-124460000D03*
X78740000Y-127000000D03*
X78740000Y-129540000D03*
X78740000Y-132080000D03*
X78740000Y-137160000D03*
X78740000Y-139700000D03*
X78740000Y-142240000D03*
D11*
X81280000Y-101600000D03*
X78740000Y-101600000D03*
X96520000Y-101600000D03*
X93980000Y-101600000D03*
X86360000Y-147320000D03*
D12*
X88900000Y-147320000D03*
X91440000Y-147320000D03*
D11*
X86614000Y-106680000D03*
D12*
X86614000Y-109220000D03*
X86614000Y-111760000D03*
X86614000Y-114300000D03*
X86614000Y-116840000D03*
X86614000Y-121920000D03*
X86614000Y-124460000D03*
X86614000Y-127000000D03*
X86614000Y-129540000D03*
X86614000Y-132080000D03*
X86614000Y-137160000D03*
X86614000Y-139700000D03*
X86614000Y-142240000D03*
D11*
X96520000Y-106680000D03*
D12*
X96520000Y-109220000D03*
X96520000Y-111760000D03*
X96520000Y-114300000D03*
X96520000Y-116840000D03*
X96520000Y-121920000D03*
X96520000Y-124460000D03*
X96520000Y-127000000D03*
X96520000Y-129540000D03*
X96520000Y-132080000D03*
X96520000Y-137160000D03*
X96520000Y-139700000D03*
X96520000Y-142240000D03*
D13*
X118364000Y-127381000D03*
X112776000Y-116713000D03*
X89154000Y-132842000D03*
X83566000Y-122174000D03*
X120904000Y-114427000D03*
X81026000Y-135128000D03*
X110998000Y-128905000D03*
X90932000Y-120650000D03*
D14*
X106172000Y-142875000D02*
X111252000Y-147955000D01*
X111252000Y-147955000D02*
X120650000Y-147955000D01*
X105156000Y-142875000D02*
X106172000Y-142875000D01*
X96774000Y-106680000D02*
X95758000Y-106680000D01*
X90678000Y-101600000D02*
X81280000Y-101600000D01*
X95758000Y-106680000D02*
X90678000Y-101600000D01*
X123190000Y-142875000D02*
X123190000Y-147955000D01*
X124968000Y-129667000D02*
X124968000Y-142367000D01*
X124968000Y-142367000D02*
X124460000Y-142875000D01*
X124460000Y-142875000D02*
X123190000Y-142875000D01*
X123190000Y-127889000D02*
X124968000Y-129667000D01*
X123190000Y-127635000D02*
X123190000Y-127889000D01*
X116586000Y-128905000D02*
X121920000Y-128905000D01*
X121920000Y-128905000D02*
X123190000Y-127635000D01*
X115316000Y-127635000D02*
X116586000Y-128905000D01*
X123190000Y-142875000D02*
X115316000Y-142875000D01*
X106426000Y-137795000D02*
X111506000Y-142875000D01*
X111506000Y-142875000D02*
X115316000Y-142875000D01*
X105410000Y-137795000D02*
X106426000Y-137795000D01*
X96520000Y-111760000D02*
X95504000Y-111760000D01*
X90424000Y-106680000D02*
X86614000Y-106680000D01*
X95504000Y-111760000D02*
X90424000Y-106680000D01*
X78740000Y-106680000D02*
X86614000Y-106680000D01*
X86614000Y-121920000D02*
X85344000Y-120650000D01*
X80010000Y-120650000D02*
X78740000Y-121920000D01*
X85344000Y-120650000D02*
X80010000Y-120650000D01*
X78740000Y-121920000D02*
X78740000Y-121666000D01*
X78740000Y-121666000D02*
X76962000Y-119888000D01*
X77470000Y-106680000D02*
X78740000Y-106680000D01*
X76962000Y-107188000D02*
X77470000Y-106680000D01*
X76962000Y-119888000D02*
X76962000Y-107188000D01*
X78740000Y-106680000D02*
X78740000Y-101600000D01*
X105410000Y-147955000D02*
X105410000Y-147955000D01*
X102616000Y-145161000D02*
X105410000Y-147955000D01*
X102616000Y-145161000D02*
X102616000Y-118999000D01*
X102616000Y-118999000D02*
X104140000Y-117475000D01*
X105410000Y-117475000D02*
X104140000Y-117475000D01*
X96520000Y-132080000D02*
X97790000Y-132080000D01*
X99314000Y-130556000D02*
X97790000Y-132080000D01*
X99314000Y-104394000D02*
X99314000Y-130556000D01*
X99314000Y-104394000D02*
X96520000Y-101600000D01*
X96520000Y-101600000D02*
X96520000Y-101600000D01*
X105410000Y-112395000D02*
X115316000Y-112395000D01*
X96520000Y-137160000D02*
X86614000Y-137160000D01*
X118618000Y-116205000D02*
X118618000Y-127127000D01*
X118618000Y-127127000D02*
X118364000Y-127381000D01*
X117856000Y-115443000D02*
X118618000Y-116205000D01*
X119380000Y-109855000D02*
X115316000Y-109855000D01*
X123190000Y-109855000D02*
X119380000Y-109855000D01*
X119380000Y-109601000D02*
X119380000Y-109855000D01*
X119380000Y-113919000D02*
X117856000Y-115443000D01*
X119380000Y-109601000D02*
X119380000Y-113919000D01*
X114046000Y-115443000D02*
X112776000Y-116713000D01*
X117856000Y-115443000D02*
X114046000Y-115443000D01*
X105410000Y-109855000D02*
X115316000Y-109855000D01*
X113030000Y-103505000D02*
X114300000Y-104775000D01*
X114300000Y-104775000D02*
X117348000Y-104775000D01*
X117348000Y-104775000D02*
X119380000Y-106807000D01*
X119380000Y-106807000D02*
X119380000Y-109855000D01*
X113030000Y-102235000D02*
X113030000Y-103505000D01*
X88900000Y-147320000D02*
X88900000Y-146050000D01*
X82550000Y-142748000D02*
X82550000Y-139700000D01*
X84582000Y-144780000D02*
X82550000Y-142748000D01*
X87630000Y-144780000D02*
X84582000Y-144780000D01*
X88900000Y-146050000D02*
X87630000Y-144780000D01*
X96520000Y-139700000D02*
X86614000Y-139700000D01*
X84074000Y-134112000D02*
X87884000Y-134112000D01*
X87884000Y-134112000D02*
X89154000Y-132842000D01*
X82550000Y-139954000D02*
X82550000Y-135636000D01*
X82550000Y-135636000D02*
X84074000Y-134112000D01*
X82550000Y-139954000D02*
X82550000Y-139700000D01*
X78740000Y-139700000D02*
X82550000Y-139700000D01*
X82550000Y-139700000D02*
X86614000Y-139700000D01*
X84074000Y-134112000D02*
X83312000Y-133350000D01*
X83312000Y-122428000D02*
X83566000Y-122174000D01*
X83312000Y-133350000D02*
X83312000Y-122428000D01*
X110490000Y-107315000D02*
X105410000Y-107315000D01*
X113030000Y-107315000D02*
X110490000Y-107315000D01*
X115316000Y-107315000D02*
X113030000Y-107315000D01*
X110490000Y-102235000D02*
X110490000Y-107315000D01*
X91440000Y-147320000D02*
X91440000Y-142240000D01*
X86614000Y-142240000D02*
X88900000Y-142240000D01*
X88900000Y-142240000D02*
X91440000Y-142240000D01*
X91440000Y-142240000D02*
X96520000Y-142240000D01*
X120650000Y-132715000D02*
X123190000Y-132715000D01*
X103632000Y-139319000D02*
X104648000Y-140335000D01*
X103632000Y-131445000D02*
X103632000Y-139319000D01*
X104648000Y-130429000D02*
X103632000Y-131445000D01*
X118364000Y-130429000D02*
X104648000Y-130429000D01*
X120650000Y-132715000D02*
X118364000Y-130429000D01*
X105410000Y-140335000D02*
X104648000Y-140335000D01*
X96520000Y-109220000D02*
X97282000Y-109220000D01*
X81280000Y-116840000D02*
X83566000Y-119126000D01*
X83566000Y-119126000D02*
X97282000Y-119126000D01*
X97282000Y-119126000D02*
X98298000Y-118110000D01*
X98298000Y-118110000D02*
X98298000Y-110236000D01*
X98298000Y-110236000D02*
X97282000Y-109220000D01*
X81280000Y-116840000D02*
X78740000Y-116840000D01*
X123190000Y-116713000D02*
X123190000Y-117475000D01*
X120904000Y-114427000D02*
X123190000Y-116713000D01*
X81026000Y-135128000D02*
X78740000Y-132842000D01*
X78740000Y-132842000D02*
X78740000Y-132080000D01*
X105410000Y-120015000D02*
X105410000Y-120015000D01*
X110998000Y-128905000D02*
X110998000Y-124333000D01*
X110998000Y-124333000D02*
X106680000Y-120015000D01*
X106680000Y-120015000D02*
X105410000Y-120015000D01*
X95250000Y-129540000D02*
X96520000Y-129540000D01*
X90932000Y-125222000D02*
X95250000Y-129540000D01*
X90932000Y-120650000D02*
X90932000Y-125222000D01*
X96520000Y-129540000D02*
X96520000Y-129540000D01*
M02*
