M48
METRIC,TZ
T1C0.800
T2C1.000
T3C0.800
%
G90
G05
T1
X81026Y-135128
X83566Y-122174
X89154Y-132842
X90932Y-120650
X110998Y-128905
X112776Y-116713
X118364Y-127381
X120904Y-114427
T2
X78740Y-101600
X78740Y-106680
X78740Y-109220
X78740Y-111760
X78740Y-114300
X78740Y-116840
X78740Y-121920
X78740Y-124460
X78740Y-127000
X78740Y-129540
X78740Y-132080
X78740Y-137160
X78740Y-139700
X78740Y-142240
X81280Y-101600
X86360Y-147320
X86614Y-106680
X86614Y-109220
X86614Y-111760
X86614Y-114300
X86614Y-116840
X86614Y-121920
X86614Y-124460
X86614Y-127000
X86614Y-129540
X86614Y-132080
X86614Y-137160
X86614Y-139700
X86614Y-142240
X88900Y-147320
X91440Y-147320
X93980Y-101600
X96520Y-101600
X96520Y-106680
X96520Y-109220
X96520Y-111760
X96520Y-114300
X96520Y-116840
X96520Y-121920
X96520Y-124460
X96520Y-127000
X96520Y-129540
X96520Y-132080
X96520Y-137160
X96520Y-139700
X96520Y-142240
X105410Y-107315
X105410Y-109855
X105410Y-112395
X105410Y-117475
X105410Y-120015
X105410Y-122555
X105410Y-125095
X105410Y-127635
X105410Y-132715
X105410Y-135255
X105410Y-137795
X105410Y-140335
X105410Y-142875
X105410Y-147955
X107950Y-147955
X110490Y-102235
X113030Y-102235
X115316Y-107315
X115316Y-109855
X115316Y-112395
X115316Y-117475
X115316Y-120015
X115316Y-122555
X115316Y-125095
X115316Y-127635
X115316Y-132715
X115316Y-135255
X115316Y-137795
X115316Y-140335
X115316Y-142875
X115570Y-102235
X120650Y-147955
X123190Y-107315
X123190Y-109855
X123190Y-112395
X123190Y-117475
X123190Y-120015
X123190Y-122555
X123190Y-125095
X123190Y-127635
X123190Y-132715
X123190Y-135255
X123190Y-137795
X123190Y-140335
X123190Y-142875
X123190Y-147955
T3
X100965Y-100965
X100965Y-102870
X100965Y-104775
X100965Y-106680
X100965Y-108585
X100965Y-110490
X100965Y-112395
X100965Y-114300
X100965Y-116205
X100965Y-118110
X100965Y-120015
X100965Y-121920
X100965Y-123825
X100965Y-125730
X100965Y-127635
X100965Y-129540
X100965Y-131445
X100965Y-133350
X100965Y-135255
X100965Y-137160
X100965Y-139065
X100965Y-140970
X100965Y-142875
X100965Y-144780
X100965Y-146685
X100965Y-148590
T0
M30
