M48
;DRILL file {KiCad 4.0.6} date 08/30/17 14:35:44
;FORMAT={2:4/ absolute / inch / suppress trailing zeros}
FMAT,2
INCH,LZ
T1C0.016
T2C0.020
T3C0.030
T4C0.031
T5C0.035
T6C0.039
T7C0.120
%
G90
G05
M72
T1
X04355Y-04685
X04355Y-066535
X04385Y-04715
X04385Y-066835
X04425Y-05405
X04425Y-073735
X0446Y-0544
X0446Y-074085
X04465Y-04225
X04465Y-04675
X04465Y-061935
X04465Y-066435
X0447Y-054
X0447Y-073685
X04495Y-04195
X04495Y-061635
X04525Y-04295
X04525Y-0566
X04525Y-062635
X04525Y-076285
X04665Y-04585
X04665Y-05075
X04665Y-065535
X04665Y-070435
X04695Y-04825
X04695Y-067935
X04715Y-05075
X04715Y-070435
X04725Y-05115
X04725Y-070835
X04915Y-0443
X04915Y-063985
X0514Y-0426
X0514Y-062285
X0516Y-0429
X0516Y-062585
X05165Y-0435
X05165Y-063185
X063235Y-04685
X063235Y-066535
X063535Y-04715
X063535Y-066835
X063935Y-05405
X063935Y-073735
X064285Y-0544
X064285Y-074085
X064335Y-04225
X064335Y-04675
X064335Y-061935
X064335Y-066435
X064385Y-054
X064385Y-073685
X064635Y-04195
X064635Y-061635
X064935Y-04295
X064935Y-0566
X064935Y-062635
X064935Y-076285
X066335Y-04585
X066335Y-05075
X066335Y-065535
X066335Y-070435
X066635Y-04825
X066635Y-067935
X066835Y-05075
X066835Y-070435
X066935Y-05115
X066935Y-070835
X068835Y-0443
X068835Y-063985
X071085Y-0426
X071085Y-062285
X071285Y-0429
X071285Y-062585
X071335Y-0435
X071335Y-063185
T2
X04385Y-0577
X04385Y-077385
X04735Y-05565
X04735Y-075335
X04805Y-05665
X04805Y-076335
X0481Y-0452
X0481Y-04615
X0481Y-064885
X0481Y-065835
X04815Y-05335
X04815Y-073035
X05075Y-03965
X05075Y-05825
X05075Y-059335
X05075Y-077935
X063535Y-0577
X063535Y-077385
X067035Y-05565
X067035Y-075335
X067735Y-05665
X067735Y-076335
X067785Y-0452
X067785Y-04615
X067785Y-064885
X067785Y-065835
X067835Y-05335
X067835Y-073035
X070435Y-03965
X070435Y-05825
X070435Y-059335
X070435Y-077935
T3
X05075Y-0415
X05075Y-0435
X05075Y-0455
X05075Y-0475
X05075Y-0495
X05075Y-0515
X05075Y-0535
X05075Y-0555
X05075Y-0575
X05075Y-061185
X05075Y-063185
X05075Y-065185
X05075Y-067185
X05075Y-069185
X05075Y-071185
X05075Y-073185
X05075Y-075185
X05075Y-077185
X052325Y-0415
X052325Y-0435
X052325Y-0455
X052325Y-0475
X052325Y-0495
X052325Y-0515
X052325Y-0535
X052325Y-0555
X052325Y-0575
X052325Y-061185
X052325Y-063185
X052325Y-065185
X052325Y-067185
X052325Y-069185
X052325Y-071185
X052325Y-073185
X052325Y-075185
X052325Y-077185
X053112Y-0415
X053112Y-0435
X053112Y-0455
X053112Y-0475
X053112Y-0495
X053112Y-0515
X053112Y-0535
X053112Y-0555
X053112Y-0575
X053112Y-061185
X053112Y-063185
X053112Y-065185
X053112Y-067185
X053112Y-069185
X053112Y-071185
X053112Y-073185
X053112Y-075185
X053112Y-077185
X0539Y-0415
X0539Y-0435
X0539Y-0455
X0539Y-0475
X0539Y-0495
X0539Y-0515
X0539Y-0535
X0539Y-0555
X0539Y-0575
X0539Y-061185
X0539Y-063185
X0539Y-065185
X0539Y-067185
X0539Y-069185
X0539Y-071185
X0539Y-073185
X0539Y-075185
X0539Y-077185
X070435Y-0415
X070435Y-0435
X070435Y-0455
X070435Y-0475
X070435Y-0495
X070435Y-0515
X070435Y-0535
X070435Y-0555
X070435Y-0575
X070435Y-061185
X070435Y-063185
X070435Y-065185
X070435Y-067185
X070435Y-069185
X070435Y-071185
X070435Y-073185
X070435Y-075185
X070435Y-077185
X07201Y-0415
X07201Y-0435
X07201Y-0455
X07201Y-0475
X07201Y-0495
X07201Y-0515
X07201Y-0535
X07201Y-0555
X07201Y-0575
X07201Y-061185
X07201Y-063185
X07201Y-065185
X07201Y-067185
X07201Y-069185
X07201Y-071185
X07201Y-073185
X07201Y-075185
X07201Y-077185
X072797Y-0415
X072797Y-0435
X072797Y-0455
X072797Y-0475
X072797Y-0495
X072797Y-0515
X072797Y-0535
X072797Y-0555
X072797Y-0575
X072797Y-061185
X072797Y-063185
X072797Y-065185
X072797Y-067185
X072797Y-069185
X072797Y-071185
X072797Y-073185
X072797Y-075185
X072797Y-077185
X073585Y-0415
X073585Y-0435
X073585Y-0455
X073585Y-0475
X073585Y-0495
X073585Y-0515
X073585Y-0535
X073585Y-0555
X073585Y-0575
X073585Y-061185
X073585Y-063185
X073585Y-065185
X073585Y-067185
X073585Y-069185
X073585Y-071185
X073585Y-073185
X073585Y-075185
X073585Y-077185
T4
X0402Y-0462
X0402Y-0472
X0402Y-0482
X0402Y-0492
X0402Y-0502
X0402Y-0512
X0402Y-0522
X0402Y-0532
X0402Y-0542
X0402Y-0552
X0402Y-065885
X0402Y-066885
X0402Y-067885
X0402Y-068885
X0402Y-069885
X0402Y-070885
X0402Y-071885
X0402Y-072885
X0402Y-073885
X0402Y-074885
X04145Y-03995
X04145Y-040934
X04145Y-059635
X04145Y-060619
X04355Y-04085
X04355Y-041834
X04355Y-060535
X04355Y-061519
X04875Y-0457
X04875Y-0467
X04875Y-0477
X04875Y-0487
X04875Y-0497
X04875Y-0507
X04875Y-0517
X04875Y-0527
X04875Y-0537
X04875Y-0547
X04875Y-065385
X04875Y-066385
X04875Y-067385
X04875Y-068385
X04875Y-069385
X04875Y-070385
X04875Y-071385
X04875Y-072385
X04875Y-073385
X04875Y-074385
X059885Y-0462
X059885Y-0472
X059885Y-0482
X059885Y-0492
X059885Y-0502
X059885Y-0512
X059885Y-0522
X059885Y-0532
X059885Y-0542
X059885Y-0552
X059885Y-065885
X059885Y-066885
X059885Y-067885
X059885Y-068885
X059885Y-069885
X059885Y-070885
X059885Y-071885
X059885Y-072885
X059885Y-073885
X059885Y-074885
X061135Y-03995
X061135Y-040934
X061135Y-059635
X061135Y-060619
X063235Y-04085
X063235Y-041834
X063235Y-060535
X063235Y-061519
X068435Y-0457
X068435Y-0467
X068435Y-0477
X068435Y-0487
X068435Y-0497
X068435Y-0507
X068435Y-0517
X068435Y-0527
X068435Y-0537
X068435Y-0547
X068435Y-065385
X068435Y-066385
X068435Y-067385
X068435Y-068385
X068435Y-069385
X068435Y-070385
X068435Y-071385
X068435Y-072385
X068435Y-073385
X068435Y-074385
T5
X0424Y-043
X0424Y-044
X0424Y-0466
X0424Y-0476
X0424Y-0502
X0424Y-0512
X0424Y-0538
X0424Y-0548
X0424Y-0574
X0424Y-0584
X0424Y-062685
X0424Y-063685
X0424Y-066285
X0424Y-067285
X0424Y-069885
X0424Y-070885
X0424Y-073485
X0424Y-074485
X0424Y-077085
X0424Y-078085
X044Y-0448
X044Y-0458
X044Y-0484
X044Y-0494
X044Y-052
X044Y-053
X044Y-0556
X044Y-0566
X044Y-064485
X044Y-065485
X044Y-068085
X044Y-069085
X044Y-071685
X044Y-072685
X044Y-075285
X044Y-076285
X062085Y-043
X062085Y-044
X062085Y-0466
X062085Y-0476
X062085Y-0502
X062085Y-0512
X062085Y-0538
X062085Y-0548
X062085Y-0574
X062085Y-0584
X062085Y-062685
X062085Y-063685
X062085Y-066285
X062085Y-067285
X062085Y-069885
X062085Y-070885
X062085Y-073485
X062085Y-074485
X062085Y-077085
X062085Y-078085
X063685Y-0448
X063685Y-0458
X063685Y-0484
X063685Y-0494
X063685Y-052
X063685Y-053
X063685Y-0556
X063685Y-0566
X063685Y-064485
X063685Y-065485
X063685Y-068085
X063685Y-069085
X063685Y-071685
X063685Y-072685
X063685Y-075285
X063685Y-076285
T6
X03985Y-03985
X03985Y-04085
X03985Y-04185
X03985Y-059535
X03985Y-060535
X03985Y-061535
X04475Y-03985
X04475Y-05855
X04475Y-059535
X04475Y-078235
X04575Y-03985
X04575Y-05855
X04575Y-059535
X04575Y-078235
X04635Y-04295
X04635Y-04395
X04635Y-062635
X04635Y-063635
X04675Y-03985
X04675Y-05855
X04675Y-059535
X04675Y-078235
X04735Y-04295
X04735Y-04395
X04735Y-062635
X04735Y-063635
X04775Y-03985
X04775Y-05855
X04775Y-059535
X04775Y-078235
X04835Y-04295
X04835Y-04395
X04835Y-062635
X04835Y-063635
X04875Y-03985
X04875Y-05855
X04875Y-059535
X04875Y-078235
X05625Y-04425
X05625Y-04525
X05625Y-04625
X05625Y-04725
X05625Y-04825
X05625Y-05025
X05625Y-05125
X05625Y-05225
X05625Y-05325
X05625Y-05425
X05625Y-05625
X05625Y-05725
X05625Y-05825
X05625Y-063935
X05625Y-064935
X05625Y-065935
X05625Y-066935
X05625Y-067935
X05625Y-069935
X05625Y-070935
X05625Y-071935
X05625Y-072935
X05625Y-073935
X05625Y-075935
X05625Y-076935
X05625Y-077935
X05825Y-04425
X05825Y-04525
X05825Y-04625
X05825Y-04725
X05825Y-04825
X05825Y-05025
X05825Y-05125
X05825Y-05225
X05825Y-05325
X05825Y-05425
X05825Y-05625
X05825Y-05725
X05825Y-05825
X05825Y-063935
X05825Y-064935
X05825Y-065935
X05825Y-066935
X05825Y-067935
X05825Y-069935
X05825Y-070935
X05825Y-071935
X05825Y-072935
X05825Y-073935
X05825Y-075935
X05825Y-076935
X05825Y-077935
X05855Y-03985
X05855Y-04085
X05855Y-04185
X05855Y-059535
X05855Y-060535
X05855Y-061535
X059535Y-03985
X059535Y-04085
X059535Y-04185
X059535Y-059535
X059535Y-060535
X059535Y-061535
X064435Y-03985
X064435Y-05855
X064435Y-059535
X064435Y-078235
X065435Y-03985
X065435Y-05855
X065435Y-059535
X065435Y-078235
X066035Y-04295
X066035Y-04395
X066035Y-062635
X066035Y-063635
X066435Y-03985
X066435Y-05855
X066435Y-059535
X066435Y-078235
X067035Y-04295
X067035Y-04395
X067035Y-062635
X067035Y-063635
X067435Y-03985
X067435Y-05855
X067435Y-059535
X067435Y-078235
X068035Y-04295
X068035Y-04395
X068035Y-062635
X068035Y-063635
X068435Y-03985
X068435Y-05855
X068435Y-059535
X068435Y-078235
X075935Y-04425
X075935Y-04525
X075935Y-04625
X075935Y-04725
X075935Y-04825
X075935Y-05025
X075935Y-05125
X075935Y-05225
X075935Y-05325
X075935Y-05425
X075935Y-05625
X075935Y-05725
X075935Y-05825
X075935Y-063935
X075935Y-064935
X075935Y-065935
X075935Y-066935
X075935Y-067935
X075935Y-069935
X075935Y-070935
X075935Y-071935
X075935Y-072935
X075935Y-073935
X075935Y-075935
X075935Y-076935
X075935Y-077935
X077935Y-04425
X077935Y-04525
X077935Y-04625
X077935Y-04725
X077935Y-04825
X077935Y-05025
X077935Y-05125
X077935Y-05225
X077935Y-05325
X077935Y-05425
X077935Y-05625
X077935Y-05725
X077935Y-05825
X077935Y-063935
X077935Y-064935
X077935Y-065935
X077935Y-066935
X077935Y-067935
X077935Y-069935
X077935Y-070935
X077935Y-071935
X077935Y-072935
X077935Y-073935
X077935Y-075935
X077935Y-076935
X077935Y-077935
X078235Y-03985
X078235Y-04085
X078235Y-04185
X078235Y-059535
X078235Y-060535
X078235Y-061535
T7
X04055Y-04455
X04055Y-05685
X04055Y-064235
X04055Y-076535
X05685Y-04245
X05685Y-062135
X060235Y-04455
X060235Y-05685
X060235Y-064235
X060235Y-076535
X076535Y-04245
X076535Y-062135
T3
X049766Y-041372G85X049766Y-041628
G05
X049766Y-043372G85X049766Y-043628
G05
X049766Y-045372G85X049766Y-045628
G05
X049766Y-047372G85X049766Y-047628
G05
X049766Y-049372G85X049766Y-049628
G05
X049766Y-051372G85X049766Y-051628
G05
X049766Y-053372G85X049766Y-053628
G05
X049766Y-055372G85X049766Y-055628
G05
X049766Y-057372G85X049766Y-057628
G05
X049766Y-061057G85X049766Y-061313
G05
X049766Y-063057G85X049766Y-063313
G05
X049766Y-065057G85X049766Y-065313
G05
X049766Y-067057G85X049766Y-067313
G05
X049766Y-069057G85X049766Y-069313
G05
X049766Y-071057G85X049766Y-071313
G05
X049766Y-073057G85X049766Y-073313
G05
X049766Y-075057G85X049766Y-075313
G05
X049766Y-077057G85X049766Y-077313
G05
X054884Y-041372G85X054884Y-041628
G05
X054884Y-043372G85X054884Y-043628
G05
X054884Y-045372G85X054884Y-045628
G05
X054884Y-047372G85X054884Y-047628
G05
X054884Y-049372G85X054884Y-049628
G05
X054884Y-051372G85X054884Y-051628
G05
X054884Y-053372G85X054884Y-053628
G05
X054884Y-055372G85X054884Y-055628
G05
X054884Y-057372G85X054884Y-057628
G05
X054884Y-061057G85X054884Y-061313
G05
X054884Y-063057G85X054884Y-063313
G05
X054884Y-065057G85X054884Y-065313
G05
X054884Y-067057G85X054884Y-067313
G05
X054884Y-069057G85X054884Y-069313
G05
X054884Y-071057G85X054884Y-071313
G05
X054884Y-073057G85X054884Y-073313
G05
X054884Y-075057G85X054884Y-075313
G05
X054884Y-077057G85X054884Y-077313
G05
X069451Y-041372G85X069451Y-041628
G05
X069451Y-043372G85X069451Y-043628
G05
X069451Y-045372G85X069451Y-045628
G05
X069451Y-047372G85X069451Y-047628
G05
X069451Y-049372G85X069451Y-049628
G05
X069451Y-051372G85X069451Y-051628
G05
X069451Y-053372G85X069451Y-053628
G05
X069451Y-055372G85X069451Y-055628
G05
X069451Y-057372G85X069451Y-057628
G05
X069451Y-061057G85X069451Y-061313
G05
X069451Y-063057G85X069451Y-063313
G05
X069451Y-065057G85X069451Y-065313
G05
X069451Y-067057G85X069451Y-067313
G05
X069451Y-069057G85X069451Y-069313
G05
X069451Y-071057G85X069451Y-071313
G05
X069451Y-073057G85X069451Y-073313
G05
X069451Y-075057G85X069451Y-075313
G05
X069451Y-077057G85X069451Y-077313
G05
X074569Y-041372G85X074569Y-041628
G05
X074569Y-043372G85X074569Y-043628
G05
X074569Y-045372G85X074569Y-045628
G05
X074569Y-047372G85X074569Y-047628
G05
X074569Y-049372G85X074569Y-049628
G05
X074569Y-051372G85X074569Y-051628
G05
X074569Y-053372G85X074569Y-053628
G05
X074569Y-055372G85X074569Y-055628
G05
X074569Y-057372G85X074569Y-057628
G05
X074569Y-061057G85X074569Y-061313
G05
X074569Y-063057G85X074569Y-063313
G05
X074569Y-065057G85X074569Y-065313
G05
X074569Y-067057G85X074569Y-067313
G05
X074569Y-069057G85X074569Y-069313
G05
X074569Y-071057G85X074569Y-071313
G05
X074569Y-073057G85X074569Y-073313
G05
X074569Y-075057G85X074569Y-075313
G05
X074569Y-077057G85X074569Y-077313
G05
T0
M30
