G04 #@! TF.FileFunction,Copper,L2,Bot,Signal*
%FSLAX46Y46*%
G04 Gerber Fmt 4.6, Leading zero omitted, Abs format (unit mm)*
G04 Created by KiCad (PCBNEW 4.0.6) date 08/30/17 14:35:39*
%MOMM*%
%LPD*%
G01*
G04 APERTURE LIST*
%ADD10C,0.100000*%
%ADD11R,1.600000X1.600000*%
%ADD12C,1.600000*%
%ADD13C,4.064000*%
%ADD14R,1.600000X1.000000*%
%ADD15R,1.060000X0.650000*%
%ADD16R,1.500000X0.600000*%
%ADD17O,1.600000X1.600000*%
%ADD18R,0.900000X1.700000*%
%ADD19R,1.800000X1.800000*%
%ADD20C,1.800000*%
%ADD21O,1.200000X2.000000*%
%ADD22R,1.500000X1.500000*%
%ADD23C,1.500000*%
%ADD24R,1.700000X1.700000*%
%ADD25O,1.700000X1.700000*%
%ADD26C,0.600000*%
%ADD27C,0.800000*%
%ADD28C,0.400000*%
%ADD29C,0.800000*%
%ADD30C,0.600000*%
G04 APERTURE END LIST*
D10*
D11*
X155283000Y-151473000D03*
D12*
X155283000Y-153973000D03*
D13*
X102997000Y-163157000D03*
D11*
X110617000Y-153759000D03*
D12*
X110617000Y-156259000D03*
D11*
X105283000Y-151473000D03*
D12*
X105283000Y-153973000D03*
D14*
X142113000Y-152005000D03*
X142113000Y-155005000D03*
X144399000Y-150735000D03*
X144399000Y-153735000D03*
D15*
X118448000Y-192814000D03*
X118448000Y-193764000D03*
X118448000Y-194714000D03*
X116248000Y-194714000D03*
X116248000Y-192814000D03*
D16*
X120429000Y-181699000D03*
X120429000Y-182969000D03*
X120429000Y-184239000D03*
X120429000Y-185509000D03*
X120429000Y-186779000D03*
X120429000Y-188049000D03*
X120429000Y-189319000D03*
X115029000Y-189319000D03*
X115029000Y-188049000D03*
X115029000Y-186779000D03*
X115029000Y-185509000D03*
X115029000Y-184239000D03*
X115029000Y-182969000D03*
X115029000Y-181699000D03*
X120429000Y-163411000D03*
X120429000Y-164681000D03*
X120429000Y-165951000D03*
X120429000Y-167221000D03*
X120429000Y-168491000D03*
X120429000Y-169761000D03*
X120429000Y-171031000D03*
X115029000Y-171031000D03*
X115029000Y-169761000D03*
X115029000Y-168491000D03*
X115029000Y-167221000D03*
X115029000Y-165951000D03*
X115029000Y-164681000D03*
X115029000Y-163411000D03*
D11*
X123825000Y-188938000D03*
D17*
X123825000Y-186398000D03*
X123825000Y-183858000D03*
X123825000Y-181318000D03*
X123825000Y-178778000D03*
X123825000Y-176238000D03*
X123825000Y-173698000D03*
X123825000Y-171158000D03*
X123825000Y-168618000D03*
X123825000Y-166078000D03*
D11*
X102108000Y-190208000D03*
D17*
X102108000Y-187668000D03*
X102108000Y-185128000D03*
X102108000Y-182588000D03*
X102108000Y-180048000D03*
X102108000Y-177508000D03*
X102108000Y-174968000D03*
X102108000Y-172428000D03*
X102108000Y-169888000D03*
X102108000Y-167348000D03*
D18*
X138610000Y-193764000D03*
X135710000Y-193764000D03*
X134038000Y-193002000D03*
X131138000Y-193002000D03*
X134419000Y-188049000D03*
X131519000Y-188049000D03*
X134292000Y-182969000D03*
X131392000Y-182969000D03*
X134292000Y-177889000D03*
X131392000Y-177889000D03*
X134292000Y-172809000D03*
X131392000Y-172809000D03*
X134292000Y-167729000D03*
X131392000Y-167729000D03*
X134292000Y-162649000D03*
X131392000Y-162649000D03*
X134927000Y-157569000D03*
X132027000Y-157569000D03*
D19*
X107696000Y-198336000D03*
D20*
X107696000Y-195796000D03*
D19*
X111760000Y-193764000D03*
D20*
X111760000Y-191224000D03*
D19*
X107696000Y-189192000D03*
D20*
X107696000Y-186652000D03*
D19*
X111760000Y-184620000D03*
D20*
X111760000Y-182080000D03*
D19*
X107696000Y-180048000D03*
D20*
X107696000Y-177508000D03*
D19*
X111760000Y-175476000D03*
D20*
X111760000Y-172936000D03*
D19*
X107696000Y-170904000D03*
D20*
X107696000Y-168364000D03*
D19*
X111760000Y-166332000D03*
D20*
X111760000Y-163792000D03*
D19*
X107696000Y-161760000D03*
D20*
X107696000Y-159220000D03*
D21*
X126405000Y-196050000D03*
X139405000Y-196050000D03*
D22*
X132905000Y-196050000D03*
D23*
X134905000Y-196050000D03*
X136905000Y-196050000D03*
X128905000Y-196050000D03*
D21*
X126405000Y-190970000D03*
X139405000Y-190970000D03*
D22*
X132905000Y-190970000D03*
D23*
X134905000Y-190970000D03*
X136905000Y-190970000D03*
X128905000Y-190970000D03*
D21*
X126405000Y-185890000D03*
X139405000Y-185890000D03*
D22*
X132905000Y-185890000D03*
D23*
X134905000Y-185890000D03*
X136905000Y-185890000D03*
X128905000Y-185890000D03*
D21*
X126405000Y-180810000D03*
X139405000Y-180810000D03*
D22*
X132905000Y-180810000D03*
D23*
X134905000Y-180810000D03*
X136905000Y-180810000D03*
X128905000Y-180810000D03*
D21*
X126405000Y-175730000D03*
X139405000Y-175730000D03*
D22*
X132905000Y-175730000D03*
D23*
X134905000Y-175730000D03*
X136905000Y-175730000D03*
X128905000Y-175730000D03*
D21*
X126405000Y-170650000D03*
X139405000Y-170650000D03*
D22*
X132905000Y-170650000D03*
D23*
X134905000Y-170650000D03*
X136905000Y-170650000D03*
X128905000Y-170650000D03*
D21*
X126405000Y-165570000D03*
X139405000Y-165570000D03*
D22*
X132905000Y-165570000D03*
D23*
X134905000Y-165570000D03*
X136905000Y-165570000D03*
X128905000Y-165570000D03*
D21*
X126405000Y-160490000D03*
X139405000Y-160490000D03*
D22*
X132905000Y-160490000D03*
D23*
X134905000Y-160490000D03*
X136905000Y-160490000D03*
X128905000Y-160490000D03*
D21*
X126405000Y-155410000D03*
X139405000Y-155410000D03*
D22*
X132905000Y-155410000D03*
D23*
X134905000Y-155410000D03*
X136905000Y-155410000D03*
X128905000Y-155410000D03*
D24*
X147955000Y-162395000D03*
D25*
X147955000Y-164935000D03*
X147955000Y-167475000D03*
X147955000Y-170015000D03*
X147955000Y-172555000D03*
X147955000Y-177635000D03*
X147955000Y-180175000D03*
X147955000Y-182715000D03*
X147955000Y-185255000D03*
X147955000Y-187795000D03*
X147955000Y-192875000D03*
X147955000Y-195415000D03*
X147955000Y-197955000D03*
D24*
X142875000Y-162395000D03*
D25*
X142875000Y-164935000D03*
X142875000Y-167475000D03*
X142875000Y-170015000D03*
X142875000Y-172555000D03*
X142875000Y-177635000D03*
X142875000Y-180175000D03*
X142875000Y-182715000D03*
X142875000Y-185255000D03*
X142875000Y-187795000D03*
X142875000Y-192875000D03*
X142875000Y-195415000D03*
X142875000Y-197955000D03*
D24*
X148717000Y-151219000D03*
D25*
X148717000Y-153759000D03*
X148717000Y-156299000D03*
D24*
X123825000Y-198717000D03*
X113665000Y-198717000D03*
D25*
X116205000Y-198717000D03*
D24*
X113665000Y-151219000D03*
D25*
X116205000Y-151219000D03*
D24*
X122809000Y-161633000D03*
X101219000Y-151219000D03*
D25*
X101219000Y-153759000D03*
X101219000Y-156299000D03*
D24*
X120269000Y-161633000D03*
X117729000Y-161633000D03*
X118745000Y-198717000D03*
X121285000Y-198717000D03*
X122809000Y-159093000D03*
X120269000Y-159093000D03*
X123825000Y-151219000D03*
X121285000Y-151219000D03*
X118745000Y-151219000D03*
X117729000Y-159093000D03*
D13*
X102997000Y-194399000D03*
X144399000Y-157823000D03*
X194399000Y-157823000D03*
X152997000Y-194399000D03*
D24*
X167729000Y-159093000D03*
X168745000Y-151219000D03*
X171285000Y-151219000D03*
X173825000Y-151219000D03*
X170269000Y-159093000D03*
X172809000Y-159093000D03*
X171285000Y-198717000D03*
X168745000Y-198717000D03*
X167729000Y-161633000D03*
X170269000Y-161633000D03*
X151219000Y-151219000D03*
D25*
X151219000Y-153759000D03*
X151219000Y-156299000D03*
D24*
X172809000Y-161633000D03*
X163665000Y-151219000D03*
D25*
X166205000Y-151219000D03*
D24*
X163665000Y-198717000D03*
D25*
X166205000Y-198717000D03*
D24*
X173825000Y-198717000D03*
X198717000Y-151219000D03*
D25*
X198717000Y-153759000D03*
X198717000Y-156299000D03*
D24*
X192875000Y-162395000D03*
D25*
X192875000Y-164935000D03*
X192875000Y-167475000D03*
X192875000Y-170015000D03*
X192875000Y-172555000D03*
X192875000Y-177635000D03*
X192875000Y-180175000D03*
X192875000Y-182715000D03*
X192875000Y-185255000D03*
X192875000Y-187795000D03*
X192875000Y-192875000D03*
X192875000Y-195415000D03*
X192875000Y-197955000D03*
D24*
X197955000Y-162395000D03*
D25*
X197955000Y-164935000D03*
X197955000Y-167475000D03*
X197955000Y-170015000D03*
X197955000Y-172555000D03*
X197955000Y-177635000D03*
X197955000Y-180175000D03*
X197955000Y-182715000D03*
X197955000Y-185255000D03*
X197955000Y-187795000D03*
X197955000Y-192875000D03*
X197955000Y-195415000D03*
X197955000Y-197955000D03*
D21*
X176405000Y-155410000D03*
X189405000Y-155410000D03*
D22*
X182905000Y-155410000D03*
D23*
X184905000Y-155410000D03*
X186905000Y-155410000D03*
X178905000Y-155410000D03*
D21*
X176405000Y-160490000D03*
X189405000Y-160490000D03*
D22*
X182905000Y-160490000D03*
D23*
X184905000Y-160490000D03*
X186905000Y-160490000D03*
X178905000Y-160490000D03*
D21*
X176405000Y-165570000D03*
X189405000Y-165570000D03*
D22*
X182905000Y-165570000D03*
D23*
X184905000Y-165570000D03*
X186905000Y-165570000D03*
X178905000Y-165570000D03*
D21*
X176405000Y-170650000D03*
X189405000Y-170650000D03*
D22*
X182905000Y-170650000D03*
D23*
X184905000Y-170650000D03*
X186905000Y-170650000D03*
X178905000Y-170650000D03*
D21*
X176405000Y-175730000D03*
X189405000Y-175730000D03*
D22*
X182905000Y-175730000D03*
D23*
X184905000Y-175730000D03*
X186905000Y-175730000D03*
X178905000Y-175730000D03*
D21*
X176405000Y-180810000D03*
X189405000Y-180810000D03*
D22*
X182905000Y-180810000D03*
D23*
X184905000Y-180810000D03*
X186905000Y-180810000D03*
X178905000Y-180810000D03*
D21*
X176405000Y-185890000D03*
X189405000Y-185890000D03*
D22*
X182905000Y-185890000D03*
D23*
X184905000Y-185890000D03*
X186905000Y-185890000D03*
X178905000Y-185890000D03*
D21*
X176405000Y-190970000D03*
X189405000Y-190970000D03*
D22*
X182905000Y-190970000D03*
D23*
X184905000Y-190970000D03*
X186905000Y-190970000D03*
X178905000Y-190970000D03*
D21*
X176405000Y-196050000D03*
X189405000Y-196050000D03*
D22*
X182905000Y-196050000D03*
D23*
X184905000Y-196050000D03*
X186905000Y-196050000D03*
X178905000Y-196050000D03*
D19*
X157696000Y-161760000D03*
D20*
X157696000Y-159220000D03*
D19*
X161760000Y-166332000D03*
D20*
X161760000Y-163792000D03*
D19*
X157696000Y-170904000D03*
D20*
X157696000Y-168364000D03*
D19*
X161760000Y-175476000D03*
D20*
X161760000Y-172936000D03*
D19*
X157696000Y-180048000D03*
D20*
X157696000Y-177508000D03*
D19*
X161760000Y-184620000D03*
D20*
X161760000Y-182080000D03*
D19*
X157696000Y-189192000D03*
D20*
X157696000Y-186652000D03*
D19*
X161760000Y-193764000D03*
D20*
X161760000Y-191224000D03*
D19*
X157696000Y-198336000D03*
D20*
X157696000Y-195796000D03*
D18*
X184927000Y-157569000D03*
X182027000Y-157569000D03*
X184292000Y-162649000D03*
X181392000Y-162649000D03*
X184292000Y-167729000D03*
X181392000Y-167729000D03*
X184292000Y-172809000D03*
X181392000Y-172809000D03*
X184292000Y-177889000D03*
X181392000Y-177889000D03*
X184292000Y-182969000D03*
X181392000Y-182969000D03*
X184419000Y-188049000D03*
X181519000Y-188049000D03*
X184038000Y-193002000D03*
X181138000Y-193002000D03*
X188610000Y-193764000D03*
X185710000Y-193764000D03*
D11*
X152108000Y-190208000D03*
D17*
X152108000Y-187668000D03*
X152108000Y-185128000D03*
X152108000Y-182588000D03*
X152108000Y-180048000D03*
X152108000Y-177508000D03*
X152108000Y-174968000D03*
X152108000Y-172428000D03*
X152108000Y-169888000D03*
X152108000Y-167348000D03*
D11*
X173825000Y-188938000D03*
D17*
X173825000Y-186398000D03*
X173825000Y-183858000D03*
X173825000Y-181318000D03*
X173825000Y-178778000D03*
X173825000Y-176238000D03*
X173825000Y-173698000D03*
X173825000Y-171158000D03*
X173825000Y-168618000D03*
X173825000Y-166078000D03*
D16*
X170429000Y-163411000D03*
X170429000Y-164681000D03*
X170429000Y-165951000D03*
X170429000Y-167221000D03*
X170429000Y-168491000D03*
X170429000Y-169761000D03*
X170429000Y-171031000D03*
X165029000Y-171031000D03*
X165029000Y-169761000D03*
X165029000Y-168491000D03*
X165029000Y-167221000D03*
X165029000Y-165951000D03*
X165029000Y-164681000D03*
X165029000Y-163411000D03*
X170429000Y-181699000D03*
X170429000Y-182969000D03*
X170429000Y-184239000D03*
X170429000Y-185509000D03*
X170429000Y-186779000D03*
X170429000Y-188049000D03*
X170429000Y-189319000D03*
X165029000Y-189319000D03*
X165029000Y-188049000D03*
X165029000Y-186779000D03*
X165029000Y-185509000D03*
X165029000Y-184239000D03*
X165029000Y-182969000D03*
X165029000Y-181699000D03*
D15*
X168448000Y-192814000D03*
X168448000Y-193764000D03*
X168448000Y-194714000D03*
X166248000Y-194714000D03*
X166248000Y-192814000D03*
D14*
X194399000Y-150735000D03*
X194399000Y-153735000D03*
X192113000Y-152005000D03*
X192113000Y-155005000D03*
D11*
X160617000Y-153759000D03*
D12*
X160617000Y-156259000D03*
D13*
X152997000Y-163157000D03*
X152997000Y-113157000D03*
D11*
X160617000Y-103759000D03*
D12*
X160617000Y-106259000D03*
D11*
X155283000Y-101473000D03*
D12*
X155283000Y-103973000D03*
D14*
X192113000Y-102005000D03*
X192113000Y-105005000D03*
X194399000Y-100735000D03*
X194399000Y-103735000D03*
D15*
X168448000Y-142814000D03*
X168448000Y-143764000D03*
X168448000Y-144714000D03*
X166248000Y-144714000D03*
X166248000Y-142814000D03*
D16*
X170429000Y-131699000D03*
X170429000Y-132969000D03*
X170429000Y-134239000D03*
X170429000Y-135509000D03*
X170429000Y-136779000D03*
X170429000Y-138049000D03*
X170429000Y-139319000D03*
X165029000Y-139319000D03*
X165029000Y-138049000D03*
X165029000Y-136779000D03*
X165029000Y-135509000D03*
X165029000Y-134239000D03*
X165029000Y-132969000D03*
X165029000Y-131699000D03*
X170429000Y-113411000D03*
X170429000Y-114681000D03*
X170429000Y-115951000D03*
X170429000Y-117221000D03*
X170429000Y-118491000D03*
X170429000Y-119761000D03*
X170429000Y-121031000D03*
X165029000Y-121031000D03*
X165029000Y-119761000D03*
X165029000Y-118491000D03*
X165029000Y-117221000D03*
X165029000Y-115951000D03*
X165029000Y-114681000D03*
X165029000Y-113411000D03*
D11*
X173825000Y-138938000D03*
D17*
X173825000Y-136398000D03*
X173825000Y-133858000D03*
X173825000Y-131318000D03*
X173825000Y-128778000D03*
X173825000Y-126238000D03*
X173825000Y-123698000D03*
X173825000Y-121158000D03*
X173825000Y-118618000D03*
X173825000Y-116078000D03*
D11*
X152108000Y-140208000D03*
D17*
X152108000Y-137668000D03*
X152108000Y-135128000D03*
X152108000Y-132588000D03*
X152108000Y-130048000D03*
X152108000Y-127508000D03*
X152108000Y-124968000D03*
X152108000Y-122428000D03*
X152108000Y-119888000D03*
X152108000Y-117348000D03*
D18*
X188610000Y-143764000D03*
X185710000Y-143764000D03*
X184038000Y-143002000D03*
X181138000Y-143002000D03*
X184419000Y-138049000D03*
X181519000Y-138049000D03*
X184292000Y-132969000D03*
X181392000Y-132969000D03*
X184292000Y-127889000D03*
X181392000Y-127889000D03*
X184292000Y-122809000D03*
X181392000Y-122809000D03*
X184292000Y-117729000D03*
X181392000Y-117729000D03*
X184292000Y-112649000D03*
X181392000Y-112649000D03*
X184927000Y-107569000D03*
X182027000Y-107569000D03*
D19*
X157696000Y-148336000D03*
D20*
X157696000Y-145796000D03*
D19*
X161760000Y-143764000D03*
D20*
X161760000Y-141224000D03*
D19*
X157696000Y-139192000D03*
D20*
X157696000Y-136652000D03*
D19*
X161760000Y-134620000D03*
D20*
X161760000Y-132080000D03*
D19*
X157696000Y-130048000D03*
D20*
X157696000Y-127508000D03*
D19*
X161760000Y-125476000D03*
D20*
X161760000Y-122936000D03*
D19*
X157696000Y-120904000D03*
D20*
X157696000Y-118364000D03*
D19*
X161760000Y-116332000D03*
D20*
X161760000Y-113792000D03*
D19*
X157696000Y-111760000D03*
D20*
X157696000Y-109220000D03*
D21*
X176405000Y-146050000D03*
X189405000Y-146050000D03*
D22*
X182905000Y-146050000D03*
D23*
X184905000Y-146050000D03*
X186905000Y-146050000D03*
X178905000Y-146050000D03*
D21*
X176405000Y-140970000D03*
X189405000Y-140970000D03*
D22*
X182905000Y-140970000D03*
D23*
X184905000Y-140970000D03*
X186905000Y-140970000D03*
X178905000Y-140970000D03*
D21*
X176405000Y-135890000D03*
X189405000Y-135890000D03*
D22*
X182905000Y-135890000D03*
D23*
X184905000Y-135890000D03*
X186905000Y-135890000D03*
X178905000Y-135890000D03*
D21*
X176405000Y-130810000D03*
X189405000Y-130810000D03*
D22*
X182905000Y-130810000D03*
D23*
X184905000Y-130810000D03*
X186905000Y-130810000D03*
X178905000Y-130810000D03*
D21*
X176405000Y-125730000D03*
X189405000Y-125730000D03*
D22*
X182905000Y-125730000D03*
D23*
X184905000Y-125730000D03*
X186905000Y-125730000D03*
X178905000Y-125730000D03*
D21*
X176405000Y-120650000D03*
X189405000Y-120650000D03*
D22*
X182905000Y-120650000D03*
D23*
X184905000Y-120650000D03*
X186905000Y-120650000D03*
X178905000Y-120650000D03*
D21*
X176405000Y-115570000D03*
X189405000Y-115570000D03*
D22*
X182905000Y-115570000D03*
D23*
X184905000Y-115570000D03*
X186905000Y-115570000D03*
X178905000Y-115570000D03*
D21*
X176405000Y-110490000D03*
X189405000Y-110490000D03*
D22*
X182905000Y-110490000D03*
D23*
X184905000Y-110490000D03*
X186905000Y-110490000D03*
X178905000Y-110490000D03*
D21*
X176405000Y-105410000D03*
X189405000Y-105410000D03*
D22*
X182905000Y-105410000D03*
D23*
X184905000Y-105410000D03*
X186905000Y-105410000D03*
X178905000Y-105410000D03*
D24*
X197955000Y-112395000D03*
D25*
X197955000Y-114935000D03*
X197955000Y-117475000D03*
X197955000Y-120015000D03*
X197955000Y-122555000D03*
X197955000Y-127635000D03*
X197955000Y-130175000D03*
X197955000Y-132715000D03*
X197955000Y-135255000D03*
X197955000Y-137795000D03*
X197955000Y-142875000D03*
X197955000Y-145415000D03*
X197955000Y-147955000D03*
D24*
X192875000Y-112395000D03*
D25*
X192875000Y-114935000D03*
X192875000Y-117475000D03*
X192875000Y-120015000D03*
X192875000Y-122555000D03*
X192875000Y-127635000D03*
X192875000Y-130175000D03*
X192875000Y-132715000D03*
X192875000Y-135255000D03*
X192875000Y-137795000D03*
X192875000Y-142875000D03*
X192875000Y-145415000D03*
X192875000Y-147955000D03*
D24*
X198717000Y-101219000D03*
D25*
X198717000Y-103759000D03*
X198717000Y-106299000D03*
D24*
X173825000Y-148717000D03*
X163665000Y-148717000D03*
D25*
X166205000Y-148717000D03*
D24*
X163665000Y-101219000D03*
D25*
X166205000Y-101219000D03*
D24*
X172809000Y-111633000D03*
X151219000Y-101219000D03*
D25*
X151219000Y-103759000D03*
X151219000Y-106299000D03*
D24*
X170269000Y-111633000D03*
X167729000Y-111633000D03*
X168745000Y-148717000D03*
X171285000Y-148717000D03*
X172809000Y-109093000D03*
X170269000Y-109093000D03*
X173825000Y-101219000D03*
X171285000Y-101219000D03*
X168745000Y-101219000D03*
X167729000Y-109093000D03*
D13*
X152997000Y-144399000D03*
X194399000Y-107823000D03*
X144399000Y-107823000D03*
X102997000Y-144399000D03*
D24*
X117729000Y-109093000D03*
X118745000Y-101219000D03*
X121285000Y-101219000D03*
X123825000Y-101219000D03*
X120269000Y-109093000D03*
X122809000Y-109093000D03*
X121285000Y-148717000D03*
X118745000Y-148717000D03*
X117729000Y-111633000D03*
X120269000Y-111633000D03*
X101219000Y-101219000D03*
D25*
X101219000Y-103759000D03*
X101219000Y-106299000D03*
D24*
X122809000Y-111633000D03*
X113665000Y-101219000D03*
D25*
X116205000Y-101219000D03*
D24*
X113665000Y-148717000D03*
D25*
X116205000Y-148717000D03*
D24*
X123825000Y-148717000D03*
X148717000Y-101219000D03*
D25*
X148717000Y-103759000D03*
X148717000Y-106299000D03*
D24*
X142875000Y-112395000D03*
D25*
X142875000Y-114935000D03*
X142875000Y-117475000D03*
X142875000Y-120015000D03*
X142875000Y-122555000D03*
X142875000Y-127635000D03*
X142875000Y-130175000D03*
X142875000Y-132715000D03*
X142875000Y-135255000D03*
X142875000Y-137795000D03*
X142875000Y-142875000D03*
X142875000Y-145415000D03*
X142875000Y-147955000D03*
D24*
X147955000Y-112395000D03*
D25*
X147955000Y-114935000D03*
X147955000Y-117475000D03*
X147955000Y-120015000D03*
X147955000Y-122555000D03*
X147955000Y-127635000D03*
X147955000Y-130175000D03*
X147955000Y-132715000D03*
X147955000Y-135255000D03*
X147955000Y-137795000D03*
X147955000Y-142875000D03*
X147955000Y-145415000D03*
X147955000Y-147955000D03*
D21*
X126405000Y-105410000D03*
X139405000Y-105410000D03*
D22*
X132905000Y-105410000D03*
D23*
X134905000Y-105410000D03*
X136905000Y-105410000D03*
X128905000Y-105410000D03*
D21*
X126405000Y-110490000D03*
X139405000Y-110490000D03*
D22*
X132905000Y-110490000D03*
D23*
X134905000Y-110490000D03*
X136905000Y-110490000D03*
X128905000Y-110490000D03*
D21*
X126405000Y-115570000D03*
X139405000Y-115570000D03*
D22*
X132905000Y-115570000D03*
D23*
X134905000Y-115570000D03*
X136905000Y-115570000D03*
X128905000Y-115570000D03*
D21*
X126405000Y-120650000D03*
X139405000Y-120650000D03*
D22*
X132905000Y-120650000D03*
D23*
X134905000Y-120650000D03*
X136905000Y-120650000D03*
X128905000Y-120650000D03*
D21*
X126405000Y-125730000D03*
X139405000Y-125730000D03*
D22*
X132905000Y-125730000D03*
D23*
X134905000Y-125730000D03*
X136905000Y-125730000D03*
X128905000Y-125730000D03*
D21*
X126405000Y-130810000D03*
X139405000Y-130810000D03*
D22*
X132905000Y-130810000D03*
D23*
X134905000Y-130810000D03*
X136905000Y-130810000D03*
X128905000Y-130810000D03*
D21*
X126405000Y-135890000D03*
X139405000Y-135890000D03*
D22*
X132905000Y-135890000D03*
D23*
X134905000Y-135890000D03*
X136905000Y-135890000D03*
X128905000Y-135890000D03*
D21*
X126405000Y-140970000D03*
X139405000Y-140970000D03*
D22*
X132905000Y-140970000D03*
D23*
X134905000Y-140970000D03*
X136905000Y-140970000D03*
X128905000Y-140970000D03*
D21*
X126405000Y-146050000D03*
X139405000Y-146050000D03*
D22*
X132905000Y-146050000D03*
D23*
X134905000Y-146050000D03*
X136905000Y-146050000D03*
X128905000Y-146050000D03*
D19*
X107696000Y-111760000D03*
D20*
X107696000Y-109220000D03*
D19*
X111760000Y-116332000D03*
D20*
X111760000Y-113792000D03*
D19*
X107696000Y-120904000D03*
D20*
X107696000Y-118364000D03*
D19*
X111760000Y-125476000D03*
D20*
X111760000Y-122936000D03*
D19*
X107696000Y-130048000D03*
D20*
X107696000Y-127508000D03*
D19*
X111760000Y-134620000D03*
D20*
X111760000Y-132080000D03*
D19*
X107696000Y-139192000D03*
D20*
X107696000Y-136652000D03*
D19*
X111760000Y-143764000D03*
D20*
X111760000Y-141224000D03*
D19*
X107696000Y-148336000D03*
D20*
X107696000Y-145796000D03*
D18*
X134927000Y-107569000D03*
X132027000Y-107569000D03*
X134292000Y-112649000D03*
X131392000Y-112649000D03*
X134292000Y-117729000D03*
X131392000Y-117729000D03*
X134292000Y-122809000D03*
X131392000Y-122809000D03*
X134292000Y-127889000D03*
X131392000Y-127889000D03*
X134292000Y-132969000D03*
X131392000Y-132969000D03*
X134419000Y-138049000D03*
X131519000Y-138049000D03*
X134038000Y-143002000D03*
X131138000Y-143002000D03*
X138610000Y-143764000D03*
X135710000Y-143764000D03*
D11*
X102108000Y-140208000D03*
D17*
X102108000Y-137668000D03*
X102108000Y-135128000D03*
X102108000Y-132588000D03*
X102108000Y-130048000D03*
X102108000Y-127508000D03*
X102108000Y-124968000D03*
X102108000Y-122428000D03*
X102108000Y-119888000D03*
X102108000Y-117348000D03*
D11*
X123825000Y-138938000D03*
D17*
X123825000Y-136398000D03*
X123825000Y-133858000D03*
X123825000Y-131318000D03*
X123825000Y-128778000D03*
X123825000Y-126238000D03*
X123825000Y-123698000D03*
X123825000Y-121158000D03*
X123825000Y-118618000D03*
X123825000Y-116078000D03*
D16*
X120429000Y-113411000D03*
X120429000Y-114681000D03*
X120429000Y-115951000D03*
X120429000Y-117221000D03*
X120429000Y-118491000D03*
X120429000Y-119761000D03*
X120429000Y-121031000D03*
X115029000Y-121031000D03*
X115029000Y-119761000D03*
X115029000Y-118491000D03*
X115029000Y-117221000D03*
X115029000Y-115951000D03*
X115029000Y-114681000D03*
X115029000Y-113411000D03*
X120429000Y-131699000D03*
X120429000Y-132969000D03*
X120429000Y-134239000D03*
X120429000Y-135509000D03*
X120429000Y-136779000D03*
X120429000Y-138049000D03*
X120429000Y-139319000D03*
X115029000Y-139319000D03*
X115029000Y-138049000D03*
X115029000Y-136779000D03*
X115029000Y-135509000D03*
X115029000Y-134239000D03*
X115029000Y-132969000D03*
X115029000Y-131699000D03*
D15*
X118448000Y-142814000D03*
X118448000Y-143764000D03*
X118448000Y-144714000D03*
X116248000Y-144714000D03*
X116248000Y-142814000D03*
D14*
X144399000Y-100735000D03*
X144399000Y-103735000D03*
X142113000Y-102005000D03*
X142113000Y-105005000D03*
D11*
X105283000Y-101473000D03*
D12*
X105283000Y-103973000D03*
D11*
X110617000Y-103759000D03*
D12*
X110617000Y-106259000D03*
D13*
X102997000Y-113157000D03*
D26*
X131064000Y-158966000D03*
X113411000Y-157315000D03*
X163411000Y-157315000D03*
X181064000Y-158966000D03*
X181064000Y-108966000D03*
X163411000Y-107315000D03*
X113411000Y-107315000D03*
X131064000Y-108966000D03*
X114173000Y-156553000D03*
X130556000Y-158204000D03*
X180556000Y-158204000D03*
X164173000Y-156553000D03*
X164173000Y-106553000D03*
X180556000Y-108204000D03*
X130556000Y-108204000D03*
X114173000Y-106553000D03*
X114935000Y-159093000D03*
X124841000Y-162522000D03*
X174841000Y-162522000D03*
X164935000Y-159093000D03*
X164935000Y-109093000D03*
X174841000Y-112522000D03*
X124841000Y-112522000D03*
X114935000Y-109093000D03*
D27*
X122301000Y-185509000D03*
X120269000Y-191351000D03*
X128905000Y-150711000D03*
X122174000Y-167221000D03*
X122174000Y-164808000D03*
X172174000Y-164808000D03*
X172174000Y-167221000D03*
X178905000Y-150711000D03*
X170269000Y-191351000D03*
X172301000Y-185509000D03*
X172301000Y-135509000D03*
X170269000Y-141351000D03*
X178905000Y-100711000D03*
X172174000Y-117221000D03*
X172174000Y-114808000D03*
X122174000Y-114808000D03*
X122174000Y-117221000D03*
X128905000Y-100711000D03*
X120269000Y-141351000D03*
X122301000Y-135509000D03*
X111379000Y-196558000D03*
X161379000Y-196558000D03*
X161379000Y-146558000D03*
X111379000Y-146558000D03*
D26*
X114935000Y-193764000D03*
X113538000Y-187160000D03*
D27*
X122047000Y-193891000D03*
X128905000Y-197955000D03*
D26*
X113411000Y-168745000D03*
X163411000Y-168745000D03*
D27*
X178905000Y-197955000D03*
X172047000Y-193891000D03*
D26*
X163538000Y-187160000D03*
X164935000Y-193764000D03*
X164935000Y-143764000D03*
X163538000Y-137160000D03*
D27*
X172047000Y-143891000D03*
X178905000Y-147955000D03*
D26*
X163411000Y-118745000D03*
X113411000Y-118745000D03*
D27*
X128905000Y-147955000D03*
X122047000Y-143891000D03*
D26*
X113538000Y-137160000D03*
X114935000Y-143764000D03*
X110617000Y-168999000D03*
X160617000Y-168999000D03*
X160617000Y-118999000D03*
X110617000Y-118999000D03*
X111379000Y-169761000D03*
X161379000Y-169761000D03*
X161379000Y-119761000D03*
X111379000Y-119761000D03*
X112395000Y-187287000D03*
X162395000Y-187287000D03*
X162395000Y-137287000D03*
X112395000Y-137287000D03*
X113284000Y-188176000D03*
X163284000Y-188176000D03*
X163284000Y-138176000D03*
X113284000Y-138176000D03*
X131191000Y-160490000D03*
X181191000Y-160490000D03*
X181191000Y-110490000D03*
X131191000Y-110490000D03*
X119253000Y-172555000D03*
X169253000Y-172555000D03*
X169253000Y-122555000D03*
X119253000Y-122555000D03*
X118491000Y-166459000D03*
X168491000Y-166459000D03*
X168491000Y-116459000D03*
X118491000Y-116459000D03*
X120015000Y-179921000D03*
X170015000Y-179921000D03*
X170015000Y-129921000D03*
X120015000Y-129921000D03*
X119761000Y-178905000D03*
X169761000Y-178905000D03*
X169761000Y-128905000D03*
X119761000Y-128905000D03*
X118491000Y-178905000D03*
X168491000Y-178905000D03*
X168491000Y-128905000D03*
X118491000Y-128905000D03*
D28*
X142240000Y-164935000D02*
X142875000Y-164935000D01*
X139954000Y-157569000D02*
X140970000Y-158585000D01*
X140970000Y-158585000D02*
X140970000Y-163665000D01*
X140970000Y-163665000D02*
X142240000Y-164935000D01*
X134800000Y-157569000D02*
X139954000Y-157569000D01*
X184800000Y-157569000D02*
X189954000Y-157569000D01*
X190970000Y-163665000D02*
X192240000Y-164935000D01*
X190970000Y-158585000D02*
X190970000Y-163665000D01*
X189954000Y-157569000D02*
X190970000Y-158585000D01*
X192240000Y-164935000D02*
X192875000Y-164935000D01*
X192240000Y-114935000D02*
X192875000Y-114935000D01*
X189954000Y-107569000D02*
X190970000Y-108585000D01*
X190970000Y-108585000D02*
X190970000Y-113665000D01*
X190970000Y-113665000D02*
X192240000Y-114935000D01*
X184800000Y-107569000D02*
X189954000Y-107569000D01*
X134800000Y-107569000D02*
X139954000Y-107569000D01*
X140970000Y-113665000D02*
X142240000Y-114935000D01*
X140970000Y-108585000D02*
X140970000Y-113665000D01*
X139954000Y-107569000D02*
X140970000Y-108585000D01*
X142240000Y-114935000D02*
X142875000Y-114935000D01*
X142240000Y-167475000D02*
X142875000Y-167475000D01*
X138684000Y-162649000D02*
X140970000Y-164935000D01*
X140970000Y-164935000D02*
X140970000Y-166205000D01*
X140970000Y-166205000D02*
X142240000Y-167475000D01*
X134292000Y-162649000D02*
X138684000Y-162649000D01*
X184292000Y-162649000D02*
X188684000Y-162649000D01*
X190970000Y-166205000D02*
X192240000Y-167475000D01*
X190970000Y-164935000D02*
X190970000Y-166205000D01*
X188684000Y-162649000D02*
X190970000Y-164935000D01*
X192240000Y-167475000D02*
X192875000Y-167475000D01*
X192240000Y-117475000D02*
X192875000Y-117475000D01*
X188684000Y-112649000D02*
X190970000Y-114935000D01*
X190970000Y-114935000D02*
X190970000Y-116205000D01*
X190970000Y-116205000D02*
X192240000Y-117475000D01*
X184292000Y-112649000D02*
X188684000Y-112649000D01*
X134292000Y-112649000D02*
X138684000Y-112649000D01*
X140970000Y-116205000D02*
X142240000Y-117475000D01*
X140970000Y-114935000D02*
X140970000Y-116205000D01*
X138684000Y-112649000D02*
X140970000Y-114935000D01*
X142240000Y-117475000D02*
X142875000Y-117475000D01*
X140589000Y-167729000D02*
X142875000Y-170015000D01*
X134292000Y-167729000D02*
X140589000Y-167729000D01*
X184292000Y-167729000D02*
X190589000Y-167729000D01*
X190589000Y-167729000D02*
X192875000Y-170015000D01*
X190589000Y-117729000D02*
X192875000Y-120015000D01*
X184292000Y-117729000D02*
X190589000Y-117729000D01*
X134292000Y-117729000D02*
X140589000Y-117729000D01*
X140589000Y-117729000D02*
X142875000Y-120015000D01*
X137287000Y-172809000D02*
X138176000Y-173698000D01*
X138176000Y-173698000D02*
X138176000Y-176492000D01*
X138176000Y-176492000D02*
X141859000Y-180175000D01*
X141859000Y-180175000D02*
X142875000Y-180175000D01*
X134292000Y-172809000D02*
X137287000Y-172809000D01*
X184292000Y-172809000D02*
X187287000Y-172809000D01*
X191859000Y-180175000D02*
X192875000Y-180175000D01*
X188176000Y-176492000D02*
X191859000Y-180175000D01*
X188176000Y-173698000D02*
X188176000Y-176492000D01*
X187287000Y-172809000D02*
X188176000Y-173698000D01*
X187287000Y-122809000D02*
X188176000Y-123698000D01*
X188176000Y-123698000D02*
X188176000Y-126492000D01*
X188176000Y-126492000D02*
X191859000Y-130175000D01*
X191859000Y-130175000D02*
X192875000Y-130175000D01*
X184292000Y-122809000D02*
X187287000Y-122809000D01*
X134292000Y-122809000D02*
X137287000Y-122809000D01*
X141859000Y-130175000D02*
X142875000Y-130175000D01*
X138176000Y-126492000D02*
X141859000Y-130175000D01*
X138176000Y-123698000D02*
X138176000Y-126492000D01*
X137287000Y-122809000D02*
X138176000Y-123698000D01*
X138557000Y-177889000D02*
X134292000Y-177889000D01*
X140970000Y-180302000D02*
X138557000Y-177889000D01*
X140970000Y-181445000D02*
X140970000Y-180302000D01*
X142240000Y-182715000D02*
X140970000Y-181445000D01*
X142875000Y-182715000D02*
X142240000Y-182715000D01*
X192875000Y-182715000D02*
X192240000Y-182715000D01*
X192240000Y-182715000D02*
X190970000Y-181445000D01*
X190970000Y-181445000D02*
X190970000Y-180302000D01*
X190970000Y-180302000D02*
X188557000Y-177889000D01*
X188557000Y-177889000D02*
X184292000Y-177889000D01*
X188557000Y-127889000D02*
X184292000Y-127889000D01*
X190970000Y-130302000D02*
X188557000Y-127889000D01*
X190970000Y-131445000D02*
X190970000Y-130302000D01*
X192240000Y-132715000D02*
X190970000Y-131445000D01*
X192875000Y-132715000D02*
X192240000Y-132715000D01*
X142875000Y-132715000D02*
X142240000Y-132715000D01*
X142240000Y-132715000D02*
X140970000Y-131445000D01*
X140970000Y-131445000D02*
X140970000Y-130302000D01*
X140970000Y-130302000D02*
X138557000Y-127889000D01*
X138557000Y-127889000D02*
X134292000Y-127889000D01*
X140081000Y-182969000D02*
X134292000Y-182969000D01*
X142367000Y-185255000D02*
X140081000Y-182969000D01*
X142875000Y-185255000D02*
X142367000Y-185255000D01*
X192875000Y-185255000D02*
X192367000Y-185255000D01*
X192367000Y-185255000D02*
X190081000Y-182969000D01*
X190081000Y-182969000D02*
X184292000Y-182969000D01*
X190081000Y-132969000D02*
X184292000Y-132969000D01*
X192367000Y-135255000D02*
X190081000Y-132969000D01*
X192875000Y-135255000D02*
X192367000Y-135255000D01*
X142875000Y-135255000D02*
X142367000Y-135255000D01*
X142367000Y-135255000D02*
X140081000Y-132969000D01*
X140081000Y-132969000D02*
X134292000Y-132969000D01*
X140335000Y-188049000D02*
X141605000Y-189319000D01*
X141605000Y-189319000D02*
X144399000Y-189319000D01*
X144399000Y-189319000D02*
X144907000Y-188811000D01*
X144907000Y-188811000D02*
X144907000Y-183223000D01*
X144907000Y-183223000D02*
X147955000Y-180175000D01*
X134419000Y-188049000D02*
X140335000Y-188049000D01*
X184419000Y-188049000D02*
X190335000Y-188049000D01*
X194907000Y-183223000D02*
X197955000Y-180175000D01*
X194907000Y-188811000D02*
X194907000Y-183223000D01*
X194399000Y-189319000D02*
X194907000Y-188811000D01*
X191605000Y-189319000D02*
X194399000Y-189319000D01*
X190335000Y-188049000D02*
X191605000Y-189319000D01*
X190335000Y-138049000D02*
X191605000Y-139319000D01*
X191605000Y-139319000D02*
X194399000Y-139319000D01*
X194399000Y-139319000D02*
X194907000Y-138811000D01*
X194907000Y-138811000D02*
X194907000Y-133223000D01*
X194907000Y-133223000D02*
X197955000Y-130175000D01*
X184419000Y-138049000D02*
X190335000Y-138049000D01*
X134419000Y-138049000D02*
X140335000Y-138049000D01*
X144907000Y-133223000D02*
X147955000Y-130175000D01*
X144907000Y-138811000D02*
X144907000Y-133223000D01*
X144399000Y-139319000D02*
X144907000Y-138811000D01*
X141605000Y-139319000D02*
X144399000Y-139319000D01*
X140335000Y-138049000D02*
X141605000Y-139319000D01*
X134038000Y-193002000D02*
X134038000Y-192822000D01*
X134747000Y-192367000D02*
X137287000Y-192367000D01*
X137287000Y-192367000D02*
X138303000Y-191351000D01*
X138303000Y-191351000D02*
X138303000Y-189827000D01*
X138303000Y-189827000D02*
X138811000Y-189319000D01*
X138811000Y-189319000D02*
X140081000Y-189319000D01*
X140081000Y-189319000D02*
X141097000Y-190335000D01*
X141097000Y-190335000D02*
X145161000Y-190335000D01*
X145161000Y-190335000D02*
X145669000Y-189827000D01*
X145669000Y-189827000D02*
X145669000Y-185001000D01*
X145669000Y-185001000D02*
X147955000Y-182715000D01*
X134112000Y-193002000D02*
X134747000Y-192367000D01*
X134038000Y-193002000D02*
X134112000Y-193002000D01*
X184038000Y-193002000D02*
X184112000Y-193002000D01*
X184112000Y-193002000D02*
X184747000Y-192367000D01*
X195669000Y-185001000D02*
X197955000Y-182715000D01*
X195669000Y-189827000D02*
X195669000Y-185001000D01*
X195161000Y-190335000D02*
X195669000Y-189827000D01*
X191097000Y-190335000D02*
X195161000Y-190335000D01*
X190081000Y-189319000D02*
X191097000Y-190335000D01*
X188811000Y-189319000D02*
X190081000Y-189319000D01*
X188303000Y-189827000D02*
X188811000Y-189319000D01*
X188303000Y-191351000D02*
X188303000Y-189827000D01*
X187287000Y-192367000D02*
X188303000Y-191351000D01*
X184747000Y-192367000D02*
X187287000Y-192367000D01*
X184038000Y-193002000D02*
X184038000Y-192822000D01*
X184038000Y-143002000D02*
X184038000Y-142822000D01*
X184747000Y-142367000D02*
X187287000Y-142367000D01*
X187287000Y-142367000D02*
X188303000Y-141351000D01*
X188303000Y-141351000D02*
X188303000Y-139827000D01*
X188303000Y-139827000D02*
X188811000Y-139319000D01*
X188811000Y-139319000D02*
X190081000Y-139319000D01*
X190081000Y-139319000D02*
X191097000Y-140335000D01*
X191097000Y-140335000D02*
X195161000Y-140335000D01*
X195161000Y-140335000D02*
X195669000Y-139827000D01*
X195669000Y-139827000D02*
X195669000Y-135001000D01*
X195669000Y-135001000D02*
X197955000Y-132715000D01*
X184112000Y-143002000D02*
X184747000Y-142367000D01*
X184038000Y-143002000D02*
X184112000Y-143002000D01*
X134038000Y-143002000D02*
X134112000Y-143002000D01*
X134112000Y-143002000D02*
X134747000Y-142367000D01*
X145669000Y-135001000D02*
X147955000Y-132715000D01*
X145669000Y-139827000D02*
X145669000Y-135001000D01*
X145161000Y-140335000D02*
X145669000Y-139827000D01*
X141097000Y-140335000D02*
X145161000Y-140335000D01*
X140081000Y-139319000D02*
X141097000Y-140335000D01*
X138811000Y-139319000D02*
X140081000Y-139319000D01*
X138303000Y-139827000D02*
X138811000Y-139319000D01*
X138303000Y-141351000D02*
X138303000Y-139827000D01*
X137287000Y-142367000D02*
X138303000Y-141351000D01*
X134747000Y-142367000D02*
X137287000Y-142367000D01*
X134038000Y-143002000D02*
X134038000Y-142822000D01*
X145542000Y-191478000D02*
X146431000Y-190589000D01*
X146431000Y-190589000D02*
X146431000Y-186779000D01*
X146431000Y-186779000D02*
X147955000Y-185255000D01*
X138610000Y-193764000D02*
X139954000Y-193764000D01*
X142240000Y-191478000D02*
X144145000Y-191478000D01*
X144145000Y-191478000D02*
X144272000Y-191478000D01*
X139954000Y-193764000D02*
X142240000Y-191478000D01*
X144272000Y-191478000D02*
X145542000Y-191478000D01*
X194272000Y-191478000D02*
X195542000Y-191478000D01*
X189954000Y-193764000D02*
X192240000Y-191478000D01*
X194145000Y-191478000D02*
X194272000Y-191478000D01*
X192240000Y-191478000D02*
X194145000Y-191478000D01*
X188610000Y-193764000D02*
X189954000Y-193764000D01*
X196431000Y-186779000D02*
X197955000Y-185255000D01*
X196431000Y-190589000D02*
X196431000Y-186779000D01*
X195542000Y-191478000D02*
X196431000Y-190589000D01*
X195542000Y-141478000D02*
X196431000Y-140589000D01*
X196431000Y-140589000D02*
X196431000Y-136779000D01*
X196431000Y-136779000D02*
X197955000Y-135255000D01*
X188610000Y-143764000D02*
X189954000Y-143764000D01*
X192240000Y-141478000D02*
X194145000Y-141478000D01*
X194145000Y-141478000D02*
X194272000Y-141478000D01*
X189954000Y-143764000D02*
X192240000Y-141478000D01*
X194272000Y-141478000D02*
X195542000Y-141478000D01*
X144272000Y-141478000D02*
X145542000Y-141478000D01*
X139954000Y-143764000D02*
X142240000Y-141478000D01*
X144145000Y-141478000D02*
X144272000Y-141478000D01*
X142240000Y-141478000D02*
X144145000Y-141478000D01*
X138610000Y-143764000D02*
X139954000Y-143764000D01*
X146431000Y-136779000D02*
X147955000Y-135255000D01*
X146431000Y-140589000D02*
X146431000Y-136779000D01*
X145542000Y-141478000D02*
X146431000Y-140589000D01*
X163665000Y-151219000D02*
X163665000Y-148717000D01*
X113665000Y-151219000D02*
X113665000Y-148717000D01*
X142875000Y-177635000D02*
X147955000Y-177635000D01*
X118745000Y-157315000D02*
X123571000Y-157315000D01*
X113411000Y-157315000D02*
X118745000Y-157315000D01*
X125222000Y-158966000D02*
X127127000Y-158966000D01*
X123571000Y-157315000D02*
X125222000Y-158966000D01*
X127127000Y-158966000D02*
X131064000Y-158966000D01*
X177127000Y-158966000D02*
X181064000Y-158966000D01*
X173571000Y-157315000D02*
X175222000Y-158966000D01*
X175222000Y-158966000D02*
X177127000Y-158966000D01*
X163411000Y-157315000D02*
X168745000Y-157315000D01*
X168745000Y-157315000D02*
X173571000Y-157315000D01*
X192875000Y-177635000D02*
X197955000Y-177635000D01*
X192875000Y-127635000D02*
X197955000Y-127635000D01*
X168745000Y-107315000D02*
X173571000Y-107315000D01*
X163411000Y-107315000D02*
X168745000Y-107315000D01*
X175222000Y-108966000D02*
X177127000Y-108966000D01*
X173571000Y-107315000D02*
X175222000Y-108966000D01*
X177127000Y-108966000D02*
X181064000Y-108966000D01*
X127127000Y-108966000D02*
X131064000Y-108966000D01*
X123571000Y-107315000D02*
X125222000Y-108966000D01*
X125222000Y-108966000D02*
X127127000Y-108966000D01*
X113411000Y-107315000D02*
X118745000Y-107315000D01*
X118745000Y-107315000D02*
X123571000Y-107315000D01*
X142875000Y-127635000D02*
X147955000Y-127635000D01*
X166205000Y-148717000D02*
X166205000Y-151219000D01*
X116205000Y-148717000D02*
X116205000Y-151219000D01*
X127127000Y-158215002D02*
X130544998Y-158215002D01*
X123825000Y-156553000D02*
X125487002Y-158215002D01*
X125487002Y-158215002D02*
X127127000Y-158215002D01*
X114173000Y-156553000D02*
X118745000Y-156553000D01*
X118745000Y-156553000D02*
X123825000Y-156553000D01*
X130544998Y-158215002D02*
X130556000Y-158204000D01*
X180544998Y-158215002D02*
X180556000Y-158204000D01*
X168745000Y-156553000D02*
X173825000Y-156553000D01*
X164173000Y-156553000D02*
X168745000Y-156553000D01*
X175487002Y-158215002D02*
X177127000Y-158215002D01*
X173825000Y-156553000D02*
X175487002Y-158215002D01*
X177127000Y-158215002D02*
X180544998Y-158215002D01*
X177127000Y-108215002D02*
X180544998Y-108215002D01*
X173825000Y-106553000D02*
X175487002Y-108215002D01*
X175487002Y-108215002D02*
X177127000Y-108215002D01*
X164173000Y-106553000D02*
X168745000Y-106553000D01*
X168745000Y-106553000D02*
X173825000Y-106553000D01*
X180544998Y-108215002D02*
X180556000Y-108204000D01*
X130544998Y-108215002D02*
X130556000Y-108204000D01*
X118745000Y-106553000D02*
X123825000Y-106553000D01*
X114173000Y-106553000D02*
X118745000Y-106553000D01*
X125487002Y-108215002D02*
X127127000Y-108215002D01*
X123825000Y-106553000D02*
X125487002Y-108215002D01*
X127127000Y-108215002D02*
X130544998Y-108215002D01*
X173825000Y-148717000D02*
X173825000Y-151219000D01*
X171285000Y-151219000D02*
X171285000Y-148717000D01*
X168745000Y-148717000D02*
X168745000Y-151219000D01*
X123825000Y-151219000D02*
X123825000Y-148717000D01*
X121285000Y-151219000D02*
X121285000Y-148717000D01*
X118745000Y-148717000D02*
X118745000Y-151219000D01*
X117729000Y-159093000D02*
X114935000Y-159093000D01*
X123698000Y-159093000D02*
X124841000Y-160236000D01*
X124841000Y-160236000D02*
X124841000Y-162522000D01*
X122809000Y-159093000D02*
X123698000Y-159093000D01*
X172809000Y-159093000D02*
X173698000Y-159093000D01*
X174841000Y-160236000D02*
X174841000Y-162522000D01*
X173698000Y-159093000D02*
X174841000Y-160236000D01*
X167729000Y-159093000D02*
X164935000Y-159093000D01*
X167729000Y-109093000D02*
X164935000Y-109093000D01*
X173698000Y-109093000D02*
X174841000Y-110236000D01*
X174841000Y-110236000D02*
X174841000Y-112522000D01*
X172809000Y-109093000D02*
X173698000Y-109093000D01*
X122809000Y-109093000D02*
X123698000Y-109093000D01*
X123698000Y-109093000D02*
X124841000Y-110236000D01*
X124841000Y-110236000D02*
X124841000Y-112522000D01*
X117729000Y-109093000D02*
X114935000Y-109093000D01*
D29*
X120429000Y-185509000D02*
X122301000Y-185509000D01*
X116248000Y-192324000D02*
X117222398Y-191349602D01*
X117222398Y-191349602D02*
X120269000Y-191351000D01*
X116248000Y-192814000D02*
X116248000Y-192324000D01*
X148209000Y-150711000D02*
X148717000Y-151219000D01*
X128905000Y-150711000D02*
X148209000Y-150711000D01*
X110871000Y-151219000D02*
X112649000Y-152997000D01*
X112649000Y-152997000D02*
X124841000Y-152997000D01*
X124841000Y-152997000D02*
X127127000Y-150711000D01*
X127127000Y-150711000D02*
X128905000Y-150711000D01*
X101219000Y-151219000D02*
X110871000Y-151219000D01*
X128905000Y-163411000D02*
X128905000Y-160490000D01*
X128905000Y-163792000D02*
X128905000Y-163411000D01*
X128905000Y-165570000D02*
X128905000Y-163792000D01*
X122174000Y-164808000D02*
X123190000Y-163792000D01*
X123190000Y-163792000D02*
X128905000Y-163792000D01*
X120429000Y-167221000D02*
X122174000Y-167221000D01*
X104521000Y-151219000D02*
X105283000Y-151473000D01*
X104775000Y-151473000D02*
X104521000Y-151219000D01*
X105283000Y-151473000D02*
X104775000Y-151473000D01*
X101473000Y-151473000D02*
X101219000Y-151219000D01*
X105283000Y-151473000D02*
X101473000Y-151473000D01*
X148233000Y-150735000D02*
X148717000Y-151219000D01*
X144399000Y-150735000D02*
X148233000Y-150735000D01*
X194399000Y-150735000D02*
X198233000Y-150735000D01*
X198233000Y-150735000D02*
X198717000Y-151219000D01*
X155283000Y-151473000D02*
X151473000Y-151473000D01*
X151473000Y-151473000D02*
X151219000Y-151219000D01*
X155283000Y-151473000D02*
X154775000Y-151473000D01*
X154775000Y-151473000D02*
X154521000Y-151219000D01*
X154521000Y-151219000D02*
X155283000Y-151473000D01*
X170429000Y-167221000D02*
X172174000Y-167221000D01*
X173190000Y-163792000D02*
X178905000Y-163792000D01*
X172174000Y-164808000D02*
X173190000Y-163792000D01*
X178905000Y-165570000D02*
X178905000Y-163792000D01*
X178905000Y-163792000D02*
X178905000Y-163411000D01*
X178905000Y-163411000D02*
X178905000Y-160490000D01*
X151219000Y-151219000D02*
X160871000Y-151219000D01*
X177127000Y-150711000D02*
X178905000Y-150711000D01*
X174841000Y-152997000D02*
X177127000Y-150711000D01*
X162649000Y-152997000D02*
X174841000Y-152997000D01*
X160871000Y-151219000D02*
X162649000Y-152997000D01*
X178905000Y-150711000D02*
X198209000Y-150711000D01*
X198209000Y-150711000D02*
X198717000Y-151219000D01*
X166248000Y-192814000D02*
X166248000Y-192324000D01*
X167222398Y-191349602D02*
X170269000Y-191351000D01*
X166248000Y-192324000D02*
X167222398Y-191349602D01*
X170429000Y-185509000D02*
X172301000Y-185509000D01*
X148717000Y-151219000D02*
X151219000Y-151219000D01*
X148717000Y-101219000D02*
X151219000Y-101219000D01*
X170429000Y-135509000D02*
X172301000Y-135509000D01*
X166248000Y-142324000D02*
X167222398Y-141349602D01*
X167222398Y-141349602D02*
X170269000Y-141351000D01*
X166248000Y-142814000D02*
X166248000Y-142324000D01*
X198209000Y-100711000D02*
X198717000Y-101219000D01*
X178905000Y-100711000D02*
X198209000Y-100711000D01*
X160871000Y-101219000D02*
X162649000Y-102997000D01*
X162649000Y-102997000D02*
X174841000Y-102997000D01*
X174841000Y-102997000D02*
X177127000Y-100711000D01*
X177127000Y-100711000D02*
X178905000Y-100711000D01*
X151219000Y-101219000D02*
X160871000Y-101219000D01*
X178905000Y-113411000D02*
X178905000Y-110490000D01*
X178905000Y-113792000D02*
X178905000Y-113411000D01*
X178905000Y-115570000D02*
X178905000Y-113792000D01*
X172174000Y-114808000D02*
X173190000Y-113792000D01*
X173190000Y-113792000D02*
X178905000Y-113792000D01*
X170429000Y-117221000D02*
X172174000Y-117221000D01*
X154521000Y-101219000D02*
X155283000Y-101473000D01*
X154775000Y-101473000D02*
X154521000Y-101219000D01*
X155283000Y-101473000D02*
X154775000Y-101473000D01*
X151473000Y-101473000D02*
X151219000Y-101219000D01*
X155283000Y-101473000D02*
X151473000Y-101473000D01*
X198233000Y-100735000D02*
X198717000Y-101219000D01*
X194399000Y-100735000D02*
X198233000Y-100735000D01*
X144399000Y-100735000D02*
X148233000Y-100735000D01*
X148233000Y-100735000D02*
X148717000Y-101219000D01*
X105283000Y-101473000D02*
X101473000Y-101473000D01*
X101473000Y-101473000D02*
X101219000Y-101219000D01*
X105283000Y-101473000D02*
X104775000Y-101473000D01*
X104775000Y-101473000D02*
X104521000Y-101219000D01*
X104521000Y-101219000D02*
X105283000Y-101473000D01*
X120429000Y-117221000D02*
X122174000Y-117221000D01*
X123190000Y-113792000D02*
X128905000Y-113792000D01*
X122174000Y-114808000D02*
X123190000Y-113792000D01*
X128905000Y-115570000D02*
X128905000Y-113792000D01*
X128905000Y-113792000D02*
X128905000Y-113411000D01*
X128905000Y-113411000D02*
X128905000Y-110490000D01*
X101219000Y-101219000D02*
X110871000Y-101219000D01*
X127127000Y-100711000D02*
X128905000Y-100711000D01*
X124841000Y-102997000D02*
X127127000Y-100711000D01*
X112649000Y-102997000D02*
X124841000Y-102997000D01*
X110871000Y-101219000D02*
X112649000Y-102997000D01*
X128905000Y-100711000D02*
X148209000Y-100711000D01*
X148209000Y-100711000D02*
X148717000Y-101219000D01*
X116248000Y-142814000D02*
X116248000Y-142324000D01*
X117222398Y-141349602D02*
X120269000Y-141351000D01*
X116248000Y-142324000D02*
X117222398Y-141349602D01*
X120429000Y-135509000D02*
X122301000Y-135509000D01*
X142875000Y-195415000D02*
X142367000Y-195415000D01*
X142748000Y-195288000D02*
X142875000Y-195415000D01*
X101219000Y-153759000D02*
X101727000Y-153759000D01*
X144399000Y-153759000D02*
X148717000Y-153759000D01*
X105029000Y-153759000D02*
X105537000Y-154267000D01*
X101219000Y-153759000D02*
X105029000Y-153759000D01*
X140843000Y-195923000D02*
X140843000Y-197193000D01*
X140843000Y-197193000D02*
X138811000Y-199225000D01*
X138811000Y-199225000D02*
X127127000Y-199225000D01*
X127127000Y-199225000D02*
X124334398Y-196432398D01*
X142875000Y-195415000D02*
X141351000Y-195415000D01*
X141351000Y-195415000D02*
X140843000Y-195923000D01*
X123825000Y-195923000D02*
X124334398Y-196432398D01*
X123825000Y-188938000D02*
X123825000Y-195923000D01*
X115062000Y-195923000D02*
X114427000Y-196558000D01*
X114427000Y-196558000D02*
X111379000Y-196558000D01*
X123825000Y-195923000D02*
X115062000Y-195923000D01*
X105497000Y-153759000D02*
X105283000Y-153973000D01*
X110617000Y-153759000D02*
X105497000Y-153759000D01*
X148693000Y-153735000D02*
X148717000Y-153759000D01*
X144399000Y-153735000D02*
X148693000Y-153735000D01*
X127412638Y-151981000D02*
X142621000Y-151981000D01*
X105537000Y-154267000D02*
X125126638Y-154267000D01*
X125126638Y-154267000D02*
X127412638Y-151981000D01*
X142621000Y-151981000D02*
X144399000Y-153759000D01*
X142669000Y-152005000D02*
X144399000Y-153735000D01*
X142113000Y-152005000D02*
X142669000Y-152005000D01*
X192113000Y-152005000D02*
X192669000Y-152005000D01*
X192669000Y-152005000D02*
X194399000Y-153735000D01*
X192621000Y-151981000D02*
X194399000Y-153759000D01*
X175126638Y-154267000D02*
X177412638Y-151981000D01*
X155537000Y-154267000D02*
X175126638Y-154267000D01*
X177412638Y-151981000D02*
X192621000Y-151981000D01*
X194399000Y-153735000D02*
X198693000Y-153735000D01*
X198693000Y-153735000D02*
X198717000Y-153759000D01*
X160617000Y-153759000D02*
X155497000Y-153759000D01*
X155497000Y-153759000D02*
X155283000Y-153973000D01*
X173825000Y-195923000D02*
X165062000Y-195923000D01*
X164427000Y-196558000D02*
X161379000Y-196558000D01*
X165062000Y-195923000D02*
X164427000Y-196558000D01*
X173825000Y-188938000D02*
X173825000Y-195923000D01*
X173825000Y-195923000D02*
X174334398Y-196432398D01*
X191351000Y-195415000D02*
X190843000Y-195923000D01*
X192875000Y-195415000D02*
X191351000Y-195415000D01*
X177127000Y-199225000D02*
X174334398Y-196432398D01*
X188811000Y-199225000D02*
X177127000Y-199225000D01*
X190843000Y-197193000D02*
X188811000Y-199225000D01*
X190843000Y-195923000D02*
X190843000Y-197193000D01*
X151219000Y-153759000D02*
X155029000Y-153759000D01*
X155029000Y-153759000D02*
X155537000Y-154267000D01*
X194399000Y-153759000D02*
X198717000Y-153759000D01*
X151219000Y-153759000D02*
X151727000Y-153759000D01*
X192748000Y-195288000D02*
X192875000Y-195415000D01*
X192875000Y-195415000D02*
X192367000Y-195415000D01*
X151219000Y-153759000D02*
X148717000Y-153759000D01*
X151219000Y-103759000D02*
X148717000Y-103759000D01*
X192875000Y-145415000D02*
X192367000Y-145415000D01*
X192748000Y-145288000D02*
X192875000Y-145415000D01*
X151219000Y-103759000D02*
X151727000Y-103759000D01*
X194399000Y-103759000D02*
X198717000Y-103759000D01*
X155029000Y-103759000D02*
X155537000Y-104267000D01*
X151219000Y-103759000D02*
X155029000Y-103759000D01*
X190843000Y-145923000D02*
X190843000Y-147193000D01*
X190843000Y-147193000D02*
X188811000Y-149225000D01*
X188811000Y-149225000D02*
X177127000Y-149225000D01*
X177127000Y-149225000D02*
X174334398Y-146432398D01*
X192875000Y-145415000D02*
X191351000Y-145415000D01*
X191351000Y-145415000D02*
X190843000Y-145923000D01*
X173825000Y-145923000D02*
X174334398Y-146432398D01*
X173825000Y-138938000D02*
X173825000Y-145923000D01*
X165062000Y-145923000D02*
X164427000Y-146558000D01*
X164427000Y-146558000D02*
X161379000Y-146558000D01*
X173825000Y-145923000D02*
X165062000Y-145923000D01*
X155497000Y-103759000D02*
X155283000Y-103973000D01*
X160617000Y-103759000D02*
X155497000Y-103759000D01*
X198693000Y-103735000D02*
X198717000Y-103759000D01*
X194399000Y-103735000D02*
X198693000Y-103735000D01*
X177412638Y-101981000D02*
X192621000Y-101981000D01*
X155537000Y-104267000D02*
X175126638Y-104267000D01*
X175126638Y-104267000D02*
X177412638Y-101981000D01*
X192621000Y-101981000D02*
X194399000Y-103759000D01*
X192669000Y-102005000D02*
X194399000Y-103735000D01*
X192113000Y-102005000D02*
X192669000Y-102005000D01*
X142113000Y-102005000D02*
X142669000Y-102005000D01*
X142669000Y-102005000D02*
X144399000Y-103735000D01*
X142621000Y-101981000D02*
X144399000Y-103759000D01*
X125126638Y-104267000D02*
X127412638Y-101981000D01*
X105537000Y-104267000D02*
X125126638Y-104267000D01*
X127412638Y-101981000D02*
X142621000Y-101981000D01*
X144399000Y-103735000D02*
X148693000Y-103735000D01*
X148693000Y-103735000D02*
X148717000Y-103759000D01*
X110617000Y-103759000D02*
X105497000Y-103759000D01*
X105497000Y-103759000D02*
X105283000Y-103973000D01*
X123825000Y-145923000D02*
X115062000Y-145923000D01*
X114427000Y-146558000D02*
X111379000Y-146558000D01*
X115062000Y-145923000D02*
X114427000Y-146558000D01*
X123825000Y-138938000D02*
X123825000Y-145923000D01*
X123825000Y-145923000D02*
X124334398Y-146432398D01*
X141351000Y-145415000D02*
X140843000Y-145923000D01*
X142875000Y-145415000D02*
X141351000Y-145415000D01*
X127127000Y-149225000D02*
X124334398Y-146432398D01*
X138811000Y-149225000D02*
X127127000Y-149225000D01*
X140843000Y-147193000D02*
X138811000Y-149225000D01*
X140843000Y-145923000D02*
X140843000Y-147193000D01*
X101219000Y-103759000D02*
X105029000Y-103759000D01*
X105029000Y-103759000D02*
X105537000Y-104267000D01*
X144399000Y-103759000D02*
X148717000Y-103759000D01*
X101219000Y-103759000D02*
X101727000Y-103759000D01*
X142748000Y-145288000D02*
X142875000Y-145415000D01*
X142875000Y-145415000D02*
X142367000Y-145415000D01*
D28*
X115029000Y-185509000D02*
X114427000Y-185509000D01*
X113538000Y-186398000D02*
X114427000Y-185509000D01*
X113538000Y-186398000D02*
X113538000Y-187287000D01*
X114935000Y-193764000D02*
X118448000Y-193764000D01*
X113538000Y-187160000D02*
X113538000Y-187287000D01*
D29*
X132207000Y-153505000D02*
X130937000Y-154775000D01*
X130937000Y-154775000D02*
X130937000Y-155791000D01*
X130937000Y-155791000D02*
X129413000Y-157315000D01*
X129413000Y-157315000D02*
X125984000Y-157315000D01*
X125984000Y-157315000D02*
X124206000Y-155537000D01*
X124206000Y-155537000D02*
X107061000Y-155537000D01*
X107061000Y-155537000D02*
X106299000Y-156299000D01*
X106339000Y-156299000D02*
X101219000Y-156299000D01*
X106299000Y-156299000D02*
X106339000Y-156299000D01*
X136905000Y-153505000D02*
X132207000Y-153505000D01*
X136905000Y-155410000D02*
X136905000Y-153505000D01*
D30*
X121920000Y-193764000D02*
X122047000Y-193891000D01*
X128905000Y-197955000D02*
X134747000Y-197955000D01*
X134747000Y-197955000D02*
X136271000Y-197955000D01*
X136271000Y-197955000D02*
X136905000Y-197321000D01*
X136905000Y-197321000D02*
X136905000Y-196050000D01*
X118448000Y-193764000D02*
X121920000Y-193764000D01*
D28*
X114427000Y-167221000D02*
X115029000Y-167221000D01*
X113411000Y-168745000D02*
X113524976Y-168631024D01*
X113524976Y-168631024D02*
X113524976Y-168123024D01*
X113524976Y-168123024D02*
X114427000Y-167221000D01*
D29*
X106339000Y-156259000D02*
X106339000Y-156299000D01*
X110617000Y-156259000D02*
X106339000Y-156259000D01*
X148717000Y-156299000D02*
X148463000Y-156299000D01*
X140081000Y-153505000D02*
X136905000Y-153505000D01*
X141581000Y-155005000D02*
X140081000Y-153505000D01*
X147701000Y-156299000D02*
X146407000Y-155005000D01*
X146407000Y-155005000D02*
X141581000Y-155005000D01*
X148717000Y-156299000D02*
X147701000Y-156299000D01*
X198717000Y-156299000D02*
X197701000Y-156299000D01*
X196407000Y-155005000D02*
X191581000Y-155005000D01*
X197701000Y-156299000D02*
X196407000Y-155005000D01*
X191581000Y-155005000D02*
X190081000Y-153505000D01*
X190081000Y-153505000D02*
X186905000Y-153505000D01*
X198717000Y-156299000D02*
X198463000Y-156299000D01*
X160617000Y-156259000D02*
X156339000Y-156259000D01*
X156339000Y-156259000D02*
X156339000Y-156299000D01*
D28*
X163524976Y-168123024D02*
X164427000Y-167221000D01*
X163524976Y-168631024D02*
X163524976Y-168123024D01*
X163411000Y-168745000D02*
X163524976Y-168631024D01*
X164427000Y-167221000D02*
X165029000Y-167221000D01*
D30*
X168448000Y-193764000D02*
X171920000Y-193764000D01*
X186905000Y-197321000D02*
X186905000Y-196050000D01*
X186271000Y-197955000D02*
X186905000Y-197321000D01*
X184747000Y-197955000D02*
X186271000Y-197955000D01*
X178905000Y-197955000D02*
X184747000Y-197955000D01*
X171920000Y-193764000D02*
X172047000Y-193891000D01*
D29*
X186905000Y-155410000D02*
X186905000Y-153505000D01*
X186905000Y-153505000D02*
X182207000Y-153505000D01*
X156299000Y-156299000D02*
X156339000Y-156299000D01*
X156339000Y-156299000D02*
X151219000Y-156299000D01*
X157061000Y-155537000D02*
X156299000Y-156299000D01*
X174206000Y-155537000D02*
X157061000Y-155537000D01*
X175984000Y-157315000D02*
X174206000Y-155537000D01*
X179413000Y-157315000D02*
X175984000Y-157315000D01*
X180937000Y-155791000D02*
X179413000Y-157315000D01*
X180937000Y-154775000D02*
X180937000Y-155791000D01*
X182207000Y-153505000D02*
X180937000Y-154775000D01*
D28*
X163538000Y-187160000D02*
X163538000Y-187287000D01*
X164935000Y-193764000D02*
X168448000Y-193764000D01*
X163538000Y-186398000D02*
X163538000Y-187287000D01*
X163538000Y-186398000D02*
X164427000Y-185509000D01*
X165029000Y-185509000D02*
X164427000Y-185509000D01*
D29*
X148717000Y-156299000D02*
X151219000Y-156299000D01*
X148717000Y-106299000D02*
X151219000Y-106299000D01*
D28*
X165029000Y-135509000D02*
X164427000Y-135509000D01*
X163538000Y-136398000D02*
X164427000Y-135509000D01*
X163538000Y-136398000D02*
X163538000Y-137287000D01*
X164935000Y-143764000D02*
X168448000Y-143764000D01*
X163538000Y-137160000D02*
X163538000Y-137287000D01*
D29*
X182207000Y-103505000D02*
X180937000Y-104775000D01*
X180937000Y-104775000D02*
X180937000Y-105791000D01*
X180937000Y-105791000D02*
X179413000Y-107315000D01*
X179413000Y-107315000D02*
X175984000Y-107315000D01*
X175984000Y-107315000D02*
X174206000Y-105537000D01*
X174206000Y-105537000D02*
X157061000Y-105537000D01*
X157061000Y-105537000D02*
X156299000Y-106299000D01*
X156339000Y-106299000D02*
X151219000Y-106299000D01*
X156299000Y-106299000D02*
X156339000Y-106299000D01*
X186905000Y-103505000D02*
X182207000Y-103505000D01*
X186905000Y-105410000D02*
X186905000Y-103505000D01*
D30*
X171920000Y-143764000D02*
X172047000Y-143891000D01*
X178905000Y-147955000D02*
X184747000Y-147955000D01*
X184747000Y-147955000D02*
X186271000Y-147955000D01*
X186271000Y-147955000D02*
X186905000Y-147321000D01*
X186905000Y-147321000D02*
X186905000Y-146050000D01*
X168448000Y-143764000D02*
X171920000Y-143764000D01*
D28*
X164427000Y-117221000D02*
X165029000Y-117221000D01*
X163411000Y-118745000D02*
X163524976Y-118631024D01*
X163524976Y-118631024D02*
X163524976Y-118123024D01*
X163524976Y-118123024D02*
X164427000Y-117221000D01*
D29*
X156339000Y-106259000D02*
X156339000Y-106299000D01*
X160617000Y-106259000D02*
X156339000Y-106259000D01*
X198717000Y-106299000D02*
X198463000Y-106299000D01*
X190081000Y-103505000D02*
X186905000Y-103505000D01*
X191581000Y-105005000D02*
X190081000Y-103505000D01*
X197701000Y-106299000D02*
X196407000Y-105005000D01*
X196407000Y-105005000D02*
X191581000Y-105005000D01*
X198717000Y-106299000D02*
X197701000Y-106299000D01*
X148717000Y-106299000D02*
X147701000Y-106299000D01*
X146407000Y-105005000D02*
X141581000Y-105005000D01*
X147701000Y-106299000D02*
X146407000Y-105005000D01*
X141581000Y-105005000D02*
X140081000Y-103505000D01*
X140081000Y-103505000D02*
X136905000Y-103505000D01*
X148717000Y-106299000D02*
X148463000Y-106299000D01*
X110617000Y-106259000D02*
X106339000Y-106259000D01*
X106339000Y-106259000D02*
X106339000Y-106299000D01*
D28*
X113524976Y-118123024D02*
X114427000Y-117221000D01*
X113524976Y-118631024D02*
X113524976Y-118123024D01*
X113411000Y-118745000D02*
X113524976Y-118631024D01*
X114427000Y-117221000D02*
X115029000Y-117221000D01*
D30*
X118448000Y-143764000D02*
X121920000Y-143764000D01*
X136905000Y-147321000D02*
X136905000Y-146050000D01*
X136271000Y-147955000D02*
X136905000Y-147321000D01*
X134747000Y-147955000D02*
X136271000Y-147955000D01*
X128905000Y-147955000D02*
X134747000Y-147955000D01*
X121920000Y-143764000D02*
X122047000Y-143891000D01*
D29*
X136905000Y-105410000D02*
X136905000Y-103505000D01*
X136905000Y-103505000D02*
X132207000Y-103505000D01*
X106299000Y-106299000D02*
X106339000Y-106299000D01*
X106339000Y-106299000D02*
X101219000Y-106299000D01*
X107061000Y-105537000D02*
X106299000Y-106299000D01*
X124206000Y-105537000D02*
X107061000Y-105537000D01*
X125984000Y-107315000D02*
X124206000Y-105537000D01*
X129413000Y-107315000D02*
X125984000Y-107315000D01*
X130937000Y-105791000D02*
X129413000Y-107315000D01*
X130937000Y-104775000D02*
X130937000Y-105791000D01*
X132207000Y-103505000D02*
X130937000Y-104775000D01*
D28*
X113538000Y-137160000D02*
X113538000Y-137287000D01*
X114935000Y-143764000D02*
X118448000Y-143764000D01*
X113538000Y-136398000D02*
X113538000Y-137287000D01*
X113538000Y-136398000D02*
X114427000Y-135509000D01*
X115029000Y-135509000D02*
X114427000Y-135509000D01*
X145415000Y-164935000D02*
X147955000Y-164935000D01*
X144399000Y-165951000D02*
X145415000Y-164935000D01*
X144399000Y-170523000D02*
X144399000Y-165951000D01*
X142875000Y-172047000D02*
X144399000Y-170523000D01*
X142875000Y-172555000D02*
X142875000Y-172047000D01*
X192875000Y-172555000D02*
X192875000Y-172047000D01*
X192875000Y-172047000D02*
X194399000Y-170523000D01*
X194399000Y-170523000D02*
X194399000Y-165951000D01*
X194399000Y-165951000D02*
X195415000Y-164935000D01*
X195415000Y-164935000D02*
X197955000Y-164935000D01*
X195415000Y-114935000D02*
X197955000Y-114935000D01*
X194399000Y-115951000D02*
X195415000Y-114935000D01*
X194399000Y-120523000D02*
X194399000Y-115951000D01*
X192875000Y-122047000D02*
X194399000Y-120523000D01*
X192875000Y-122555000D02*
X192875000Y-122047000D01*
X142875000Y-122555000D02*
X142875000Y-122047000D01*
X142875000Y-122047000D02*
X144399000Y-120523000D01*
X144399000Y-120523000D02*
X144399000Y-115951000D01*
X144399000Y-115951000D02*
X145415000Y-114935000D01*
X145415000Y-114935000D02*
X147955000Y-114935000D01*
X115316000Y-161760000D02*
X118237000Y-164681000D01*
X118237000Y-164681000D02*
X120429000Y-164681000D01*
X107696000Y-161760000D02*
X115316000Y-161760000D01*
X120429000Y-164681000D02*
X120429000Y-163411000D01*
X170429000Y-164681000D02*
X170429000Y-163411000D01*
X157696000Y-161760000D02*
X165316000Y-161760000D01*
X168237000Y-164681000D02*
X170429000Y-164681000D01*
X165316000Y-161760000D02*
X168237000Y-164681000D01*
X165316000Y-111760000D02*
X168237000Y-114681000D01*
X168237000Y-114681000D02*
X170429000Y-114681000D01*
X157696000Y-111760000D02*
X165316000Y-111760000D01*
X170429000Y-114681000D02*
X170429000Y-113411000D01*
X120429000Y-114681000D02*
X120429000Y-113411000D01*
X107696000Y-111760000D02*
X115316000Y-111760000D01*
X118237000Y-114681000D02*
X120429000Y-114681000D01*
X115316000Y-111760000D02*
X118237000Y-114681000D01*
X120429000Y-171031000D02*
X120429000Y-169761000D01*
X120349000Y-172889000D02*
X120429000Y-172809000D01*
X115697000Y-173571000D02*
X119667000Y-173571000D01*
X119667000Y-173571000D02*
X120349000Y-172889000D01*
X113665000Y-171539000D02*
X115697000Y-173571000D01*
X113665000Y-171539000D02*
X113665000Y-171539000D01*
X120349000Y-171111000D02*
X120429000Y-171031000D01*
X120349000Y-172889000D02*
X120349000Y-171111000D01*
X110617000Y-168999000D02*
X110363000Y-169253000D01*
X110363000Y-169253000D02*
X110363000Y-170269000D01*
X110363000Y-170269000D02*
X110678998Y-170584998D01*
X110678998Y-170584998D02*
X112710998Y-170584998D01*
X112710998Y-170584998D02*
X113665000Y-171539000D01*
X162710998Y-170584998D02*
X163665000Y-171539000D01*
X160678998Y-170584998D02*
X162710998Y-170584998D01*
X160363000Y-170269000D02*
X160678998Y-170584998D01*
X160363000Y-169253000D02*
X160363000Y-170269000D01*
X160617000Y-168999000D02*
X160363000Y-169253000D01*
X170349000Y-172889000D02*
X170349000Y-171111000D01*
X170349000Y-171111000D02*
X170429000Y-171031000D01*
X163665000Y-171539000D02*
X163665000Y-171539000D01*
X163665000Y-171539000D02*
X165697000Y-173571000D01*
X169667000Y-173571000D02*
X170349000Y-172889000D01*
X165697000Y-173571000D02*
X169667000Y-173571000D01*
X170349000Y-172889000D02*
X170429000Y-172809000D01*
X170429000Y-171031000D02*
X170429000Y-169761000D01*
X170429000Y-121031000D02*
X170429000Y-119761000D01*
X170349000Y-122889000D02*
X170429000Y-122809000D01*
X165697000Y-123571000D02*
X169667000Y-123571000D01*
X169667000Y-123571000D02*
X170349000Y-122889000D01*
X163665000Y-121539000D02*
X165697000Y-123571000D01*
X163665000Y-121539000D02*
X163665000Y-121539000D01*
X170349000Y-121111000D02*
X170429000Y-121031000D01*
X170349000Y-122889000D02*
X170349000Y-121111000D01*
X160617000Y-118999000D02*
X160363000Y-119253000D01*
X160363000Y-119253000D02*
X160363000Y-120269000D01*
X160363000Y-120269000D02*
X160678998Y-120584998D01*
X160678998Y-120584998D02*
X162710998Y-120584998D01*
X162710998Y-120584998D02*
X163665000Y-121539000D01*
X112710998Y-120584998D02*
X113665000Y-121539000D01*
X110678998Y-120584998D02*
X112710998Y-120584998D01*
X110363000Y-120269000D02*
X110678998Y-120584998D01*
X110363000Y-119253000D02*
X110363000Y-120269000D01*
X110617000Y-118999000D02*
X110363000Y-119253000D01*
X120349000Y-122889000D02*
X120349000Y-121111000D01*
X120349000Y-121111000D02*
X120429000Y-121031000D01*
X113665000Y-121539000D02*
X113665000Y-121539000D01*
X113665000Y-121539000D02*
X115697000Y-123571000D01*
X119667000Y-123571000D02*
X120349000Y-122889000D01*
X115697000Y-123571000D02*
X119667000Y-123571000D01*
X120349000Y-122889000D02*
X120429000Y-122809000D01*
X120429000Y-121031000D02*
X120429000Y-119761000D01*
X114775000Y-171031000D02*
X114648000Y-170904000D01*
X115029000Y-171031000D02*
X115029000Y-169761000D01*
X111379000Y-169761000D02*
X115029000Y-169761000D01*
X161379000Y-169761000D02*
X165029000Y-169761000D01*
X165029000Y-171031000D02*
X165029000Y-169761000D01*
X164775000Y-171031000D02*
X164648000Y-170904000D01*
X164775000Y-121031000D02*
X164648000Y-120904000D01*
X165029000Y-121031000D02*
X165029000Y-119761000D01*
X161379000Y-119761000D02*
X165029000Y-119761000D01*
X111379000Y-119761000D02*
X115029000Y-119761000D01*
X115029000Y-121031000D02*
X115029000Y-119761000D01*
X114775000Y-121031000D02*
X114648000Y-120904000D01*
X115029000Y-163411000D02*
X115029000Y-164681000D01*
X114173000Y-164681000D02*
X115029000Y-164681000D01*
X113411000Y-165443000D02*
X114173000Y-164681000D01*
X113411000Y-167221000D02*
X113411000Y-165443000D01*
X112649000Y-167983000D02*
X113411000Y-167221000D01*
X110109000Y-167983000D02*
X112649000Y-167983000D01*
X109347000Y-168745000D02*
X110109000Y-167983000D01*
X109347000Y-170777000D02*
X109347000Y-168745000D01*
X109855000Y-171285000D02*
X109347000Y-170777000D01*
X112141000Y-171285000D02*
X109855000Y-171285000D01*
X113411000Y-172555000D02*
X112141000Y-171285000D01*
X113411000Y-173317000D02*
X113411000Y-172555000D01*
X111760000Y-174968000D02*
X113411000Y-173317000D01*
X111760000Y-175476000D02*
X111760000Y-174968000D01*
X161760000Y-175476000D02*
X161760000Y-174968000D01*
X161760000Y-174968000D02*
X163411000Y-173317000D01*
X163411000Y-173317000D02*
X163411000Y-172555000D01*
X163411000Y-172555000D02*
X162141000Y-171285000D01*
X162141000Y-171285000D02*
X159855000Y-171285000D01*
X159855000Y-171285000D02*
X159347000Y-170777000D01*
X159347000Y-170777000D02*
X159347000Y-168745000D01*
X159347000Y-168745000D02*
X160109000Y-167983000D01*
X160109000Y-167983000D02*
X162649000Y-167983000D01*
X162649000Y-167983000D02*
X163411000Y-167221000D01*
X163411000Y-167221000D02*
X163411000Y-165443000D01*
X163411000Y-165443000D02*
X164173000Y-164681000D01*
X164173000Y-164681000D02*
X165029000Y-164681000D01*
X165029000Y-163411000D02*
X165029000Y-164681000D01*
X165029000Y-113411000D02*
X165029000Y-114681000D01*
X164173000Y-114681000D02*
X165029000Y-114681000D01*
X163411000Y-115443000D02*
X164173000Y-114681000D01*
X163411000Y-117221000D02*
X163411000Y-115443000D01*
X162649000Y-117983000D02*
X163411000Y-117221000D01*
X160109000Y-117983000D02*
X162649000Y-117983000D01*
X159347000Y-118745000D02*
X160109000Y-117983000D01*
X159347000Y-120777000D02*
X159347000Y-118745000D01*
X159855000Y-121285000D02*
X159347000Y-120777000D01*
X162141000Y-121285000D02*
X159855000Y-121285000D01*
X163411000Y-122555000D02*
X162141000Y-121285000D01*
X163411000Y-123317000D02*
X163411000Y-122555000D01*
X161760000Y-124968000D02*
X163411000Y-123317000D01*
X161760000Y-125476000D02*
X161760000Y-124968000D01*
X111760000Y-125476000D02*
X111760000Y-124968000D01*
X111760000Y-124968000D02*
X113411000Y-123317000D01*
X113411000Y-123317000D02*
X113411000Y-122555000D01*
X113411000Y-122555000D02*
X112141000Y-121285000D01*
X112141000Y-121285000D02*
X109855000Y-121285000D01*
X109855000Y-121285000D02*
X109347000Y-120777000D01*
X109347000Y-120777000D02*
X109347000Y-118745000D01*
X109347000Y-118745000D02*
X110109000Y-117983000D01*
X110109000Y-117983000D02*
X112649000Y-117983000D01*
X112649000Y-117983000D02*
X113411000Y-117221000D01*
X113411000Y-117221000D02*
X113411000Y-115443000D01*
X113411000Y-115443000D02*
X114173000Y-114681000D01*
X114173000Y-114681000D02*
X115029000Y-114681000D01*
X115029000Y-113411000D02*
X115029000Y-114681000D01*
X109220000Y-180048000D02*
X107696000Y-180048000D01*
X111379000Y-177889000D02*
X109220000Y-180048000D01*
X120015000Y-177889000D02*
X111379000Y-177889000D01*
X121031000Y-178905000D02*
X120015000Y-177889000D01*
X121031000Y-181445000D02*
X121031000Y-178905000D01*
X120777000Y-181699000D02*
X121031000Y-181445000D01*
X120429000Y-181699000D02*
X120777000Y-181699000D01*
X120429000Y-182969000D02*
X120429000Y-181699000D01*
X170429000Y-182969000D02*
X170429000Y-181699000D01*
X170429000Y-181699000D02*
X170777000Y-181699000D01*
X170777000Y-181699000D02*
X171031000Y-181445000D01*
X171031000Y-181445000D02*
X171031000Y-178905000D01*
X171031000Y-178905000D02*
X170015000Y-177889000D01*
X170015000Y-177889000D02*
X161379000Y-177889000D01*
X161379000Y-177889000D02*
X159220000Y-180048000D01*
X159220000Y-180048000D02*
X157696000Y-180048000D01*
X159220000Y-130048000D02*
X157696000Y-130048000D01*
X161379000Y-127889000D02*
X159220000Y-130048000D01*
X170015000Y-127889000D02*
X161379000Y-127889000D01*
X171031000Y-128905000D02*
X170015000Y-127889000D01*
X171031000Y-131445000D02*
X171031000Y-128905000D01*
X170777000Y-131699000D02*
X171031000Y-131445000D01*
X170429000Y-131699000D02*
X170777000Y-131699000D01*
X170429000Y-132969000D02*
X170429000Y-131699000D01*
X120429000Y-132969000D02*
X120429000Y-131699000D01*
X120429000Y-131699000D02*
X120777000Y-131699000D01*
X120777000Y-131699000D02*
X121031000Y-131445000D01*
X121031000Y-131445000D02*
X121031000Y-128905000D01*
X121031000Y-128905000D02*
X120015000Y-127889000D01*
X120015000Y-127889000D02*
X111379000Y-127889000D01*
X111379000Y-127889000D02*
X109220000Y-130048000D01*
X109220000Y-130048000D02*
X107696000Y-130048000D01*
X120429000Y-189319000D02*
X120429000Y-188049000D01*
X120429000Y-189667000D02*
X119761000Y-190335000D01*
X119761000Y-190335000D02*
X114681000Y-190335000D01*
X114681000Y-190335000D02*
X114173000Y-190335000D01*
X114173000Y-190335000D02*
X112395000Y-188557000D01*
X112395000Y-188557000D02*
X112395000Y-187287000D01*
X120429000Y-189319000D02*
X120429000Y-189667000D01*
X170429000Y-189319000D02*
X170429000Y-189667000D01*
X162395000Y-188557000D02*
X162395000Y-187287000D01*
X164173000Y-190335000D02*
X162395000Y-188557000D01*
X164681000Y-190335000D02*
X164173000Y-190335000D01*
X169761000Y-190335000D02*
X164681000Y-190335000D01*
X170429000Y-189667000D02*
X169761000Y-190335000D01*
X170429000Y-189319000D02*
X170429000Y-188049000D01*
X170429000Y-139319000D02*
X170429000Y-138049000D01*
X170429000Y-139667000D02*
X169761000Y-140335000D01*
X169761000Y-140335000D02*
X164681000Y-140335000D01*
X164681000Y-140335000D02*
X164173000Y-140335000D01*
X164173000Y-140335000D02*
X162395000Y-138557000D01*
X162395000Y-138557000D02*
X162395000Y-137287000D01*
X170429000Y-139319000D02*
X170429000Y-139667000D01*
X120429000Y-139319000D02*
X120429000Y-139667000D01*
X112395000Y-138557000D02*
X112395000Y-137287000D01*
X114173000Y-140335000D02*
X112395000Y-138557000D01*
X114681000Y-140335000D02*
X114173000Y-140335000D01*
X119761000Y-140335000D02*
X114681000Y-140335000D01*
X120429000Y-139667000D02*
X119761000Y-140335000D01*
X120429000Y-139319000D02*
X120429000Y-138049000D01*
X114902000Y-188176000D02*
X113284000Y-188176000D01*
X115029000Y-188049000D02*
X114902000Y-188176000D01*
X115029000Y-189319000D02*
X115029000Y-188049000D01*
X165029000Y-189319000D02*
X165029000Y-188049000D01*
X165029000Y-188049000D02*
X164902000Y-188176000D01*
X164902000Y-188176000D02*
X163284000Y-188176000D01*
X164902000Y-138176000D02*
X163284000Y-138176000D01*
X165029000Y-138049000D02*
X164902000Y-138176000D01*
X165029000Y-139319000D02*
X165029000Y-138049000D01*
X115029000Y-139319000D02*
X115029000Y-138049000D01*
X115029000Y-138049000D02*
X114902000Y-138176000D01*
X114902000Y-138176000D02*
X113284000Y-138176000D01*
X115029000Y-181699000D02*
X115029000Y-182969000D01*
X113919000Y-182969000D02*
X113284000Y-183604000D01*
X113284000Y-183604000D02*
X113284000Y-185636000D01*
X113284000Y-185636000D02*
X112776000Y-186144000D01*
X112776000Y-186144000D02*
X112268000Y-186144000D01*
X112268000Y-186144000D02*
X111252000Y-187160000D01*
X111252000Y-187160000D02*
X111252000Y-188684000D01*
X111252000Y-188684000D02*
X113792000Y-191224000D01*
X113792000Y-191224000D02*
X113792000Y-192748000D01*
X113792000Y-192748000D02*
X112776000Y-193764000D01*
X112776000Y-193764000D02*
X111760000Y-193764000D01*
X115029000Y-182969000D02*
X113919000Y-182969000D01*
X165029000Y-182969000D02*
X163919000Y-182969000D01*
X162776000Y-193764000D02*
X161760000Y-193764000D01*
X163792000Y-192748000D02*
X162776000Y-193764000D01*
X163792000Y-191224000D02*
X163792000Y-192748000D01*
X161252000Y-188684000D02*
X163792000Y-191224000D01*
X161252000Y-187160000D02*
X161252000Y-188684000D01*
X162268000Y-186144000D02*
X161252000Y-187160000D01*
X162776000Y-186144000D02*
X162268000Y-186144000D01*
X163284000Y-185636000D02*
X162776000Y-186144000D01*
X163284000Y-183604000D02*
X163284000Y-185636000D01*
X163919000Y-182969000D02*
X163284000Y-183604000D01*
X165029000Y-181699000D02*
X165029000Y-182969000D01*
X165029000Y-131699000D02*
X165029000Y-132969000D01*
X163919000Y-132969000D02*
X163284000Y-133604000D01*
X163284000Y-133604000D02*
X163284000Y-135636000D01*
X163284000Y-135636000D02*
X162776000Y-136144000D01*
X162776000Y-136144000D02*
X162268000Y-136144000D01*
X162268000Y-136144000D02*
X161252000Y-137160000D01*
X161252000Y-137160000D02*
X161252000Y-138684000D01*
X161252000Y-138684000D02*
X163792000Y-141224000D01*
X163792000Y-141224000D02*
X163792000Y-142748000D01*
X163792000Y-142748000D02*
X162776000Y-143764000D01*
X162776000Y-143764000D02*
X161760000Y-143764000D01*
X165029000Y-132969000D02*
X163919000Y-132969000D01*
X115029000Y-132969000D02*
X113919000Y-132969000D01*
X112776000Y-143764000D02*
X111760000Y-143764000D01*
X113792000Y-142748000D02*
X112776000Y-143764000D01*
X113792000Y-141224000D02*
X113792000Y-142748000D01*
X111252000Y-138684000D02*
X113792000Y-141224000D01*
X111252000Y-137160000D02*
X111252000Y-138684000D01*
X112268000Y-136144000D02*
X111252000Y-137160000D01*
X112776000Y-136144000D02*
X112268000Y-136144000D01*
X113284000Y-135636000D02*
X112776000Y-136144000D01*
X113284000Y-133604000D02*
X113284000Y-135636000D01*
X113919000Y-132969000D02*
X113284000Y-133604000D01*
X115029000Y-131699000D02*
X115029000Y-132969000D01*
X116248000Y-194714000D02*
X116182000Y-194780000D01*
X118448000Y-194714000D02*
X116248000Y-194714000D01*
X108712000Y-198336000D02*
X109601000Y-197447000D01*
X109601000Y-197447000D02*
X109601000Y-195923000D01*
X109601000Y-195923000D02*
X110109000Y-195415000D01*
X110109000Y-195415000D02*
X113411000Y-195415000D01*
X113411000Y-195415000D02*
X114112000Y-194714000D01*
X114112000Y-194714000D02*
X116248000Y-194714000D01*
X107696000Y-198336000D02*
X108712000Y-198336000D01*
X157696000Y-198336000D02*
X158712000Y-198336000D01*
X164112000Y-194714000D02*
X166248000Y-194714000D01*
X163411000Y-195415000D02*
X164112000Y-194714000D01*
X160109000Y-195415000D02*
X163411000Y-195415000D01*
X159601000Y-195923000D02*
X160109000Y-195415000D01*
X159601000Y-197447000D02*
X159601000Y-195923000D01*
X158712000Y-198336000D02*
X159601000Y-197447000D01*
X168448000Y-194714000D02*
X166248000Y-194714000D01*
X166248000Y-194714000D02*
X166182000Y-194780000D01*
X166248000Y-144714000D02*
X166182000Y-144780000D01*
X168448000Y-144714000D02*
X166248000Y-144714000D01*
X158712000Y-148336000D02*
X159601000Y-147447000D01*
X159601000Y-147447000D02*
X159601000Y-145923000D01*
X159601000Y-145923000D02*
X160109000Y-145415000D01*
X160109000Y-145415000D02*
X163411000Y-145415000D01*
X163411000Y-145415000D02*
X164112000Y-144714000D01*
X164112000Y-144714000D02*
X166248000Y-144714000D01*
X157696000Y-148336000D02*
X158712000Y-148336000D01*
X107696000Y-148336000D02*
X108712000Y-148336000D01*
X114112000Y-144714000D02*
X116248000Y-144714000D01*
X113411000Y-145415000D02*
X114112000Y-144714000D01*
X110109000Y-145415000D02*
X113411000Y-145415000D01*
X109601000Y-145923000D02*
X110109000Y-145415000D01*
X109601000Y-147447000D02*
X109601000Y-145923000D01*
X108712000Y-148336000D02*
X109601000Y-147447000D01*
X118448000Y-144714000D02*
X116248000Y-144714000D01*
X116248000Y-144714000D02*
X116182000Y-144780000D01*
D29*
X107696000Y-159220000D02*
X107188000Y-159220000D01*
X102362000Y-167094000D02*
X102108000Y-167348000D01*
X105918000Y-160490000D02*
X107188000Y-159220000D01*
X105918000Y-160490000D02*
X105918000Y-165570000D01*
X105918000Y-165570000D02*
X104013000Y-167475000D01*
X102362000Y-167475000D02*
X104013000Y-167475000D01*
X152362000Y-167475000D02*
X154013000Y-167475000D01*
X155918000Y-165570000D02*
X154013000Y-167475000D01*
X155918000Y-160490000D02*
X155918000Y-165570000D01*
X155918000Y-160490000D02*
X157188000Y-159220000D01*
X152362000Y-167094000D02*
X152108000Y-167348000D01*
X157696000Y-159220000D02*
X157188000Y-159220000D01*
X157696000Y-109220000D02*
X157188000Y-109220000D01*
X152362000Y-117094000D02*
X152108000Y-117348000D01*
X155918000Y-110490000D02*
X157188000Y-109220000D01*
X155918000Y-110490000D02*
X155918000Y-115570000D01*
X155918000Y-115570000D02*
X154013000Y-117475000D01*
X152362000Y-117475000D02*
X154013000Y-117475000D01*
X102362000Y-117475000D02*
X104013000Y-117475000D01*
X105918000Y-115570000D02*
X104013000Y-117475000D01*
X105918000Y-110490000D02*
X105918000Y-115570000D01*
X105918000Y-110490000D02*
X107188000Y-109220000D01*
X102362000Y-117094000D02*
X102108000Y-117348000D01*
X107696000Y-109220000D02*
X107188000Y-109220000D01*
X109982000Y-163792000D02*
X103886000Y-169888000D01*
X103886000Y-169888000D02*
X102108000Y-169888000D01*
X111760000Y-163792000D02*
X109982000Y-163792000D01*
X161760000Y-163792000D02*
X159982000Y-163792000D01*
X153886000Y-169888000D02*
X152108000Y-169888000D01*
X159982000Y-163792000D02*
X153886000Y-169888000D01*
X159982000Y-113792000D02*
X153886000Y-119888000D01*
X153886000Y-119888000D02*
X152108000Y-119888000D01*
X161760000Y-113792000D02*
X159982000Y-113792000D01*
X111760000Y-113792000D02*
X109982000Y-113792000D01*
X103886000Y-119888000D02*
X102108000Y-119888000D01*
X109982000Y-113792000D02*
X103886000Y-119888000D01*
X104140000Y-172428000D02*
X102108000Y-172428000D01*
X105156000Y-171412000D02*
X104140000Y-172428000D01*
X105156000Y-170396000D02*
X105156000Y-171412000D01*
X107188000Y-168364000D02*
X105156000Y-170396000D01*
X107696000Y-168364000D02*
X107188000Y-168364000D01*
X157696000Y-168364000D02*
X157188000Y-168364000D01*
X157188000Y-168364000D02*
X155156000Y-170396000D01*
X155156000Y-170396000D02*
X155156000Y-171412000D01*
X155156000Y-171412000D02*
X154140000Y-172428000D01*
X154140000Y-172428000D02*
X152108000Y-172428000D01*
X154140000Y-122428000D02*
X152108000Y-122428000D01*
X155156000Y-121412000D02*
X154140000Y-122428000D01*
X155156000Y-120396000D02*
X155156000Y-121412000D01*
X157188000Y-118364000D02*
X155156000Y-120396000D01*
X157696000Y-118364000D02*
X157188000Y-118364000D01*
X107696000Y-118364000D02*
X107188000Y-118364000D01*
X107188000Y-118364000D02*
X105156000Y-120396000D01*
X105156000Y-120396000D02*
X105156000Y-121412000D01*
X105156000Y-121412000D02*
X104140000Y-122428000D01*
X104140000Y-122428000D02*
X102108000Y-122428000D01*
X109220000Y-174968000D02*
X102108000Y-174968000D01*
X111252000Y-172936000D02*
X109220000Y-174968000D01*
X111760000Y-172936000D02*
X111252000Y-172936000D01*
X161760000Y-172936000D02*
X161252000Y-172936000D01*
X161252000Y-172936000D02*
X159220000Y-174968000D01*
X159220000Y-174968000D02*
X152108000Y-174968000D01*
X159220000Y-124968000D02*
X152108000Y-124968000D01*
X161252000Y-122936000D02*
X159220000Y-124968000D01*
X161760000Y-122936000D02*
X161252000Y-122936000D01*
X111760000Y-122936000D02*
X111252000Y-122936000D01*
X111252000Y-122936000D02*
X109220000Y-124968000D01*
X109220000Y-124968000D02*
X102108000Y-124968000D01*
X107696000Y-177508000D02*
X102108000Y-177508000D01*
X157696000Y-177508000D02*
X152108000Y-177508000D01*
X157696000Y-127508000D02*
X152108000Y-127508000D01*
X107696000Y-127508000D02*
X102108000Y-127508000D01*
X103632000Y-180048000D02*
X105664000Y-182080000D01*
X105664000Y-182080000D02*
X111760000Y-182080000D01*
X102108000Y-180048000D02*
X103632000Y-180048000D01*
X152108000Y-180048000D02*
X153632000Y-180048000D01*
X155664000Y-182080000D02*
X161760000Y-182080000D01*
X153632000Y-180048000D02*
X155664000Y-182080000D01*
X153632000Y-130048000D02*
X155664000Y-132080000D01*
X155664000Y-132080000D02*
X161760000Y-132080000D01*
X152108000Y-130048000D02*
X153632000Y-130048000D01*
X102108000Y-130048000D02*
X103632000Y-130048000D01*
X105664000Y-132080000D02*
X111760000Y-132080000D01*
X103632000Y-130048000D02*
X105664000Y-132080000D01*
X103632000Y-182588000D02*
X105156000Y-184112000D01*
X105156000Y-184112000D02*
X106680000Y-184112000D01*
X106680000Y-184112000D02*
X107696000Y-185128000D01*
X107696000Y-185128000D02*
X107696000Y-186652000D01*
X102108000Y-182588000D02*
X103632000Y-182588000D01*
X152108000Y-182588000D02*
X153632000Y-182588000D01*
X157696000Y-185128000D02*
X157696000Y-186652000D01*
X156680000Y-184112000D02*
X157696000Y-185128000D01*
X155156000Y-184112000D02*
X156680000Y-184112000D01*
X153632000Y-182588000D02*
X155156000Y-184112000D01*
X153632000Y-132588000D02*
X155156000Y-134112000D01*
X155156000Y-134112000D02*
X156680000Y-134112000D01*
X156680000Y-134112000D02*
X157696000Y-135128000D01*
X157696000Y-135128000D02*
X157696000Y-136652000D01*
X152108000Y-132588000D02*
X153632000Y-132588000D01*
X102108000Y-132588000D02*
X103632000Y-132588000D01*
X107696000Y-135128000D02*
X107696000Y-136652000D01*
X106680000Y-134112000D02*
X107696000Y-135128000D01*
X105156000Y-134112000D02*
X106680000Y-134112000D01*
X103632000Y-132588000D02*
X105156000Y-134112000D01*
X103124000Y-185128000D02*
X105664000Y-187668000D01*
X105664000Y-187668000D02*
X105664000Y-190208000D01*
X105664000Y-190208000D02*
X106680000Y-191224000D01*
X106680000Y-191224000D02*
X111760000Y-191224000D01*
X102108000Y-185128000D02*
X103124000Y-185128000D01*
X152108000Y-185128000D02*
X153124000Y-185128000D01*
X156680000Y-191224000D02*
X161760000Y-191224000D01*
X155664000Y-190208000D02*
X156680000Y-191224000D01*
X155664000Y-187668000D02*
X155664000Y-190208000D01*
X153124000Y-185128000D02*
X155664000Y-187668000D01*
X153124000Y-135128000D02*
X155664000Y-137668000D01*
X155664000Y-137668000D02*
X155664000Y-140208000D01*
X155664000Y-140208000D02*
X156680000Y-141224000D01*
X156680000Y-141224000D02*
X161760000Y-141224000D01*
X152108000Y-135128000D02*
X153124000Y-135128000D01*
X102108000Y-135128000D02*
X103124000Y-135128000D01*
X106680000Y-141224000D02*
X111760000Y-141224000D01*
X105664000Y-140208000D02*
X106680000Y-141224000D01*
X105664000Y-137668000D02*
X105664000Y-140208000D01*
X103124000Y-135128000D02*
X105664000Y-137668000D01*
X104140000Y-191478000D02*
X107950000Y-195288000D01*
X104140000Y-188684000D02*
X104140000Y-191478000D01*
X103124000Y-187668000D02*
X104140000Y-188684000D01*
X102108000Y-187668000D02*
X103124000Y-187668000D01*
D28*
X107696000Y-195796000D02*
X107696000Y-195034000D01*
X157696000Y-195796000D02*
X157696000Y-195034000D01*
D29*
X152108000Y-187668000D02*
X153124000Y-187668000D01*
X153124000Y-187668000D02*
X154140000Y-188684000D01*
X154140000Y-188684000D02*
X154140000Y-191478000D01*
X154140000Y-191478000D02*
X157950000Y-195288000D01*
X154140000Y-141478000D02*
X157950000Y-145288000D01*
X154140000Y-138684000D02*
X154140000Y-141478000D01*
X153124000Y-137668000D02*
X154140000Y-138684000D01*
X152108000Y-137668000D02*
X153124000Y-137668000D01*
D28*
X157696000Y-145796000D02*
X157696000Y-145034000D01*
X107696000Y-145796000D02*
X107696000Y-145034000D01*
D29*
X102108000Y-137668000D02*
X103124000Y-137668000D01*
X103124000Y-137668000D02*
X104140000Y-138684000D01*
X104140000Y-138684000D02*
X104140000Y-141478000D01*
X104140000Y-141478000D02*
X107950000Y-145288000D01*
X134905000Y-155410000D02*
X132905000Y-155410000D01*
D28*
X123698000Y-165951000D02*
X123825000Y-166078000D01*
X120429000Y-165951000D02*
X123698000Y-165951000D01*
X132027000Y-156288000D02*
X132905000Y-155410000D01*
X132027000Y-157569000D02*
X132027000Y-156288000D01*
X132027000Y-159146000D02*
X131191000Y-159982000D01*
X131191000Y-159982000D02*
X131191000Y-160490000D01*
X132027000Y-157569000D02*
X132027000Y-159146000D01*
X182027000Y-157569000D02*
X182027000Y-159146000D01*
X181191000Y-159982000D02*
X181191000Y-160490000D01*
X182027000Y-159146000D02*
X181191000Y-159982000D01*
X182027000Y-157569000D02*
X182027000Y-156288000D01*
X182027000Y-156288000D02*
X182905000Y-155410000D01*
X170429000Y-165951000D02*
X173698000Y-165951000D01*
X173698000Y-165951000D02*
X173825000Y-166078000D01*
D29*
X184905000Y-155410000D02*
X182905000Y-155410000D01*
X184905000Y-105410000D02*
X182905000Y-105410000D01*
D28*
X173698000Y-115951000D02*
X173825000Y-116078000D01*
X170429000Y-115951000D02*
X173698000Y-115951000D01*
X182027000Y-106288000D02*
X182905000Y-105410000D01*
X182027000Y-107569000D02*
X182027000Y-106288000D01*
X182027000Y-109146000D02*
X181191000Y-109982000D01*
X181191000Y-109982000D02*
X181191000Y-110490000D01*
X182027000Y-107569000D02*
X182027000Y-109146000D01*
X132027000Y-107569000D02*
X132027000Y-109146000D01*
X131191000Y-109982000D02*
X131191000Y-110490000D01*
X132027000Y-109146000D02*
X131191000Y-109982000D01*
X132027000Y-107569000D02*
X132027000Y-106288000D01*
X132027000Y-106288000D02*
X132905000Y-105410000D01*
X120429000Y-115951000D02*
X123698000Y-115951000D01*
X123698000Y-115951000D02*
X123825000Y-116078000D01*
D29*
X134905000Y-105410000D02*
X132905000Y-105410000D01*
X131392000Y-162003000D02*
X131392000Y-162649000D01*
X132905000Y-160490000D02*
X131392000Y-162003000D01*
X134905000Y-160490000D02*
X132905000Y-160490000D01*
D28*
X124968000Y-168618000D02*
X125857000Y-167729000D01*
X125857000Y-167729000D02*
X128905000Y-167729000D01*
X128905000Y-167729000D02*
X130556000Y-166078000D01*
X130556000Y-166078000D02*
X130556000Y-163485000D01*
X130556000Y-163485000D02*
X131392000Y-162649000D01*
X123825000Y-168618000D02*
X124968000Y-168618000D01*
X120556000Y-168618000D02*
X120429000Y-168491000D01*
X123825000Y-168618000D02*
X120556000Y-168618000D01*
X173825000Y-168618000D02*
X170556000Y-168618000D01*
X170556000Y-168618000D02*
X170429000Y-168491000D01*
X173825000Y-168618000D02*
X174968000Y-168618000D01*
X180556000Y-163485000D02*
X181392000Y-162649000D01*
X180556000Y-166078000D02*
X180556000Y-163485000D01*
X178905000Y-167729000D02*
X180556000Y-166078000D01*
X175857000Y-167729000D02*
X178905000Y-167729000D01*
X174968000Y-168618000D02*
X175857000Y-167729000D01*
D29*
X184905000Y-160490000D02*
X182905000Y-160490000D01*
X182905000Y-160490000D02*
X181392000Y-162003000D01*
X181392000Y-162003000D02*
X181392000Y-162649000D01*
X181392000Y-112003000D02*
X181392000Y-112649000D01*
X182905000Y-110490000D02*
X181392000Y-112003000D01*
X184905000Y-110490000D02*
X182905000Y-110490000D01*
D28*
X174968000Y-118618000D02*
X175857000Y-117729000D01*
X175857000Y-117729000D02*
X178905000Y-117729000D01*
X178905000Y-117729000D02*
X180556000Y-116078000D01*
X180556000Y-116078000D02*
X180556000Y-113485000D01*
X180556000Y-113485000D02*
X181392000Y-112649000D01*
X173825000Y-118618000D02*
X174968000Y-118618000D01*
X170556000Y-118618000D02*
X170429000Y-118491000D01*
X173825000Y-118618000D02*
X170556000Y-118618000D01*
X123825000Y-118618000D02*
X120556000Y-118618000D01*
X120556000Y-118618000D02*
X120429000Y-118491000D01*
X123825000Y-118618000D02*
X124968000Y-118618000D01*
X130556000Y-113485000D02*
X131392000Y-112649000D01*
X130556000Y-116078000D02*
X130556000Y-113485000D01*
X128905000Y-117729000D02*
X130556000Y-116078000D01*
X125857000Y-117729000D02*
X128905000Y-117729000D01*
X124968000Y-118618000D02*
X125857000Y-117729000D01*
D29*
X134905000Y-110490000D02*
X132905000Y-110490000D01*
X132905000Y-110490000D02*
X131392000Y-112003000D01*
X131392000Y-112003000D02*
X131392000Y-112649000D01*
X131392000Y-167083000D02*
X131392000Y-167729000D01*
X132905000Y-165570000D02*
X131392000Y-167083000D01*
X134905000Y-165570000D02*
X132905000Y-165570000D01*
D28*
X123825000Y-171158000D02*
X123825000Y-170650000D01*
X126365000Y-168491000D02*
X130630000Y-168491000D01*
X130630000Y-168491000D02*
X131392000Y-167729000D01*
X123825000Y-171031000D02*
X126365000Y-168491000D01*
X123825000Y-171158000D02*
X123825000Y-171031000D01*
X118237000Y-168491000D02*
X118999000Y-169253000D01*
X118999000Y-169253000D02*
X118999000Y-172301000D01*
X118999000Y-172301000D02*
X119253000Y-172555000D01*
X115029000Y-168491000D02*
X118237000Y-168491000D01*
X165029000Y-168491000D02*
X168237000Y-168491000D01*
X168999000Y-172301000D02*
X169253000Y-172555000D01*
X168999000Y-169253000D02*
X168999000Y-172301000D01*
X168237000Y-168491000D02*
X168999000Y-169253000D01*
X173825000Y-171158000D02*
X173825000Y-171031000D01*
X173825000Y-171031000D02*
X176365000Y-168491000D01*
X180630000Y-168491000D02*
X181392000Y-167729000D01*
X176365000Y-168491000D02*
X180630000Y-168491000D01*
X173825000Y-171158000D02*
X173825000Y-170650000D01*
D29*
X184905000Y-165570000D02*
X182905000Y-165570000D01*
X182905000Y-165570000D02*
X181392000Y-167083000D01*
X181392000Y-167083000D02*
X181392000Y-167729000D01*
X181392000Y-117083000D02*
X181392000Y-117729000D01*
X182905000Y-115570000D02*
X181392000Y-117083000D01*
X184905000Y-115570000D02*
X182905000Y-115570000D01*
D28*
X173825000Y-121158000D02*
X173825000Y-120650000D01*
X176365000Y-118491000D02*
X180630000Y-118491000D01*
X180630000Y-118491000D02*
X181392000Y-117729000D01*
X173825000Y-121031000D02*
X176365000Y-118491000D01*
X173825000Y-121158000D02*
X173825000Y-121031000D01*
X168237000Y-118491000D02*
X168999000Y-119253000D01*
X168999000Y-119253000D02*
X168999000Y-122301000D01*
X168999000Y-122301000D02*
X169253000Y-122555000D01*
X165029000Y-118491000D02*
X168237000Y-118491000D01*
X115029000Y-118491000D02*
X118237000Y-118491000D01*
X118999000Y-122301000D02*
X119253000Y-122555000D01*
X118999000Y-119253000D02*
X118999000Y-122301000D01*
X118237000Y-118491000D02*
X118999000Y-119253000D01*
X123825000Y-121158000D02*
X123825000Y-121031000D01*
X123825000Y-121031000D02*
X126365000Y-118491000D01*
X130630000Y-118491000D02*
X131392000Y-117729000D01*
X126365000Y-118491000D02*
X130630000Y-118491000D01*
X123825000Y-121158000D02*
X123825000Y-120650000D01*
D29*
X134905000Y-115570000D02*
X132905000Y-115570000D01*
X132905000Y-115570000D02*
X131392000Y-117083000D01*
X131392000Y-117083000D02*
X131392000Y-117729000D01*
X131392000Y-172163000D02*
X131392000Y-172809000D01*
X132905000Y-170650000D02*
X131392000Y-172163000D01*
X134905000Y-170650000D02*
X132905000Y-170650000D01*
D28*
X131011000Y-172428000D02*
X131392000Y-172809000D01*
X123825000Y-173698000D02*
X124460000Y-173698000D01*
X115029000Y-165951000D02*
X117983000Y-165951000D01*
X117983000Y-165951000D02*
X118491000Y-166459000D01*
X124714000Y-172809000D02*
X123825000Y-173698000D01*
X131392000Y-172809000D02*
X124714000Y-172809000D01*
X181392000Y-172809000D02*
X174714000Y-172809000D01*
X174714000Y-172809000D02*
X173825000Y-173698000D01*
X167983000Y-165951000D02*
X168491000Y-166459000D01*
X165029000Y-165951000D02*
X167983000Y-165951000D01*
X173825000Y-173698000D02*
X174460000Y-173698000D01*
X181011000Y-172428000D02*
X181392000Y-172809000D01*
D29*
X184905000Y-170650000D02*
X182905000Y-170650000D01*
X182905000Y-170650000D02*
X181392000Y-172163000D01*
X181392000Y-172163000D02*
X181392000Y-172809000D01*
X181392000Y-122163000D02*
X181392000Y-122809000D01*
X182905000Y-120650000D02*
X181392000Y-122163000D01*
X184905000Y-120650000D02*
X182905000Y-120650000D01*
D28*
X181011000Y-122428000D02*
X181392000Y-122809000D01*
X173825000Y-123698000D02*
X174460000Y-123698000D01*
X165029000Y-115951000D02*
X167983000Y-115951000D01*
X167983000Y-115951000D02*
X168491000Y-116459000D01*
X174714000Y-122809000D02*
X173825000Y-123698000D01*
X181392000Y-122809000D02*
X174714000Y-122809000D01*
X131392000Y-122809000D02*
X124714000Y-122809000D01*
X124714000Y-122809000D02*
X123825000Y-123698000D01*
X117983000Y-115951000D02*
X118491000Y-116459000D01*
X115029000Y-115951000D02*
X117983000Y-115951000D01*
X123825000Y-123698000D02*
X124460000Y-123698000D01*
X131011000Y-122428000D02*
X131392000Y-122809000D01*
D29*
X134905000Y-120650000D02*
X132905000Y-120650000D01*
X132905000Y-120650000D02*
X131392000Y-122163000D01*
X131392000Y-122163000D02*
X131392000Y-122809000D01*
D28*
X123825000Y-176238000D02*
X123825000Y-175857000D01*
D29*
X132905000Y-175730000D02*
X134905000Y-175730000D01*
X131392000Y-177243000D02*
X132905000Y-175730000D01*
X131392000Y-177889000D02*
X131392000Y-177243000D01*
D28*
X121285000Y-184239000D02*
X121920000Y-183604000D01*
X121920000Y-183604000D02*
X121920000Y-178143000D01*
X121920000Y-178143000D02*
X123825000Y-176238000D01*
X120429000Y-184239000D02*
X121285000Y-184239000D01*
X125603000Y-177889000D02*
X131392000Y-177889000D01*
X123952000Y-176238000D02*
X125603000Y-177889000D01*
X123825000Y-176238000D02*
X123952000Y-176238000D01*
X173825000Y-176238000D02*
X173952000Y-176238000D01*
X173952000Y-176238000D02*
X175603000Y-177889000D01*
X175603000Y-177889000D02*
X181392000Y-177889000D01*
X170429000Y-184239000D02*
X171285000Y-184239000D01*
X171920000Y-178143000D02*
X173825000Y-176238000D01*
X171920000Y-183604000D02*
X171920000Y-178143000D01*
X171285000Y-184239000D02*
X171920000Y-183604000D01*
D29*
X181392000Y-177889000D02*
X181392000Y-177243000D01*
X181392000Y-177243000D02*
X182905000Y-175730000D01*
X182905000Y-175730000D02*
X184905000Y-175730000D01*
D28*
X173825000Y-176238000D02*
X173825000Y-175857000D01*
X173825000Y-126238000D02*
X173825000Y-125857000D01*
D29*
X182905000Y-125730000D02*
X184905000Y-125730000D01*
X181392000Y-127243000D02*
X182905000Y-125730000D01*
X181392000Y-127889000D02*
X181392000Y-127243000D01*
D28*
X171285000Y-134239000D02*
X171920000Y-133604000D01*
X171920000Y-133604000D02*
X171920000Y-128143000D01*
X171920000Y-128143000D02*
X173825000Y-126238000D01*
X170429000Y-134239000D02*
X171285000Y-134239000D01*
X175603000Y-127889000D02*
X181392000Y-127889000D01*
X173952000Y-126238000D02*
X175603000Y-127889000D01*
X173825000Y-126238000D02*
X173952000Y-126238000D01*
X123825000Y-126238000D02*
X123952000Y-126238000D01*
X123952000Y-126238000D02*
X125603000Y-127889000D01*
X125603000Y-127889000D02*
X131392000Y-127889000D01*
X120429000Y-134239000D02*
X121285000Y-134239000D01*
X121920000Y-128143000D02*
X123825000Y-126238000D01*
X121920000Y-133604000D02*
X121920000Y-128143000D01*
X121285000Y-134239000D02*
X121920000Y-133604000D01*
D29*
X131392000Y-127889000D02*
X131392000Y-127243000D01*
X131392000Y-127243000D02*
X132905000Y-125730000D01*
X132905000Y-125730000D02*
X134905000Y-125730000D01*
D28*
X123825000Y-126238000D02*
X123825000Y-125857000D01*
X129540000Y-178778000D02*
X131572000Y-180810000D01*
X131572000Y-180810000D02*
X132905000Y-180810000D01*
X123825000Y-178778000D02*
X129540000Y-178778000D01*
D29*
X132905000Y-180810000D02*
X134905000Y-180810000D01*
X131392000Y-182323000D02*
X132905000Y-180810000D01*
X131392000Y-182969000D02*
X131392000Y-182323000D01*
D28*
X120015000Y-179921000D02*
X118999000Y-180937000D01*
X118999000Y-180937000D02*
X118999000Y-186271000D01*
X118999000Y-186271000D02*
X119507000Y-186779000D01*
X119507000Y-186779000D02*
X120429000Y-186779000D01*
X169507000Y-186779000D02*
X170429000Y-186779000D01*
X168999000Y-186271000D02*
X169507000Y-186779000D01*
X168999000Y-180937000D02*
X168999000Y-186271000D01*
X170015000Y-179921000D02*
X168999000Y-180937000D01*
D29*
X181392000Y-182969000D02*
X181392000Y-182323000D01*
X181392000Y-182323000D02*
X182905000Y-180810000D01*
X182905000Y-180810000D02*
X184905000Y-180810000D01*
D28*
X173825000Y-178778000D02*
X179540000Y-178778000D01*
X181572000Y-180810000D02*
X182905000Y-180810000D01*
X179540000Y-178778000D02*
X181572000Y-180810000D01*
X179540000Y-128778000D02*
X181572000Y-130810000D01*
X181572000Y-130810000D02*
X182905000Y-130810000D01*
X173825000Y-128778000D02*
X179540000Y-128778000D01*
D29*
X182905000Y-130810000D02*
X184905000Y-130810000D01*
X181392000Y-132323000D02*
X182905000Y-130810000D01*
X181392000Y-132969000D02*
X181392000Y-132323000D01*
D28*
X170015000Y-129921000D02*
X168999000Y-130937000D01*
X168999000Y-130937000D02*
X168999000Y-136271000D01*
X168999000Y-136271000D02*
X169507000Y-136779000D01*
X169507000Y-136779000D02*
X170429000Y-136779000D01*
X119507000Y-136779000D02*
X120429000Y-136779000D01*
X118999000Y-136271000D02*
X119507000Y-136779000D01*
X118999000Y-130937000D02*
X118999000Y-136271000D01*
X120015000Y-129921000D02*
X118999000Y-130937000D01*
D29*
X131392000Y-132969000D02*
X131392000Y-132323000D01*
X131392000Y-132323000D02*
X132905000Y-130810000D01*
X132905000Y-130810000D02*
X134905000Y-130810000D01*
D28*
X123825000Y-128778000D02*
X129540000Y-128778000D01*
X131572000Y-130810000D02*
X132905000Y-130810000D01*
X129540000Y-128778000D02*
X131572000Y-130810000D01*
X132080000Y-185890000D02*
X132905000Y-185890000D01*
X129032000Y-182842000D02*
X132080000Y-185890000D01*
X125730000Y-182842000D02*
X129032000Y-182842000D01*
X124206000Y-181318000D02*
X125730000Y-182842000D01*
X123825000Y-181318000D02*
X124206000Y-181318000D01*
D29*
X132905000Y-185890000D02*
X134905000Y-185890000D01*
X131519000Y-187276000D02*
X132905000Y-185890000D01*
X131519000Y-188049000D02*
X131519000Y-187276000D01*
D28*
X119761000Y-178905000D02*
X118237000Y-180429000D01*
X118237000Y-180429000D02*
X118237000Y-185763000D01*
X118237000Y-185763000D02*
X117221000Y-186779000D01*
X117221000Y-186779000D02*
X115029000Y-186779000D01*
X167221000Y-186779000D02*
X165029000Y-186779000D01*
X168237000Y-185763000D02*
X167221000Y-186779000D01*
X168237000Y-180429000D02*
X168237000Y-185763000D01*
X169761000Y-178905000D02*
X168237000Y-180429000D01*
D29*
X181519000Y-188049000D02*
X181519000Y-187276000D01*
X181519000Y-187276000D02*
X182905000Y-185890000D01*
X182905000Y-185890000D02*
X184905000Y-185890000D01*
D28*
X173825000Y-181318000D02*
X174206000Y-181318000D01*
X174206000Y-181318000D02*
X175730000Y-182842000D01*
X175730000Y-182842000D02*
X179032000Y-182842000D01*
X179032000Y-182842000D02*
X182080000Y-185890000D01*
X182080000Y-185890000D02*
X182905000Y-185890000D01*
X182080000Y-135890000D02*
X182905000Y-135890000D01*
X179032000Y-132842000D02*
X182080000Y-135890000D01*
X175730000Y-132842000D02*
X179032000Y-132842000D01*
X174206000Y-131318000D02*
X175730000Y-132842000D01*
X173825000Y-131318000D02*
X174206000Y-131318000D01*
D29*
X182905000Y-135890000D02*
X184905000Y-135890000D01*
X181519000Y-137276000D02*
X182905000Y-135890000D01*
X181519000Y-138049000D02*
X181519000Y-137276000D01*
D28*
X169761000Y-128905000D02*
X168237000Y-130429000D01*
X168237000Y-130429000D02*
X168237000Y-135763000D01*
X168237000Y-135763000D02*
X167221000Y-136779000D01*
X167221000Y-136779000D02*
X165029000Y-136779000D01*
X117221000Y-136779000D02*
X115029000Y-136779000D01*
X118237000Y-135763000D02*
X117221000Y-136779000D01*
X118237000Y-130429000D02*
X118237000Y-135763000D01*
X119761000Y-128905000D02*
X118237000Y-130429000D01*
D29*
X131519000Y-138049000D02*
X131519000Y-137276000D01*
X131519000Y-137276000D02*
X132905000Y-135890000D01*
X132905000Y-135890000D02*
X134905000Y-135890000D01*
D28*
X123825000Y-131318000D02*
X124206000Y-131318000D01*
X124206000Y-131318000D02*
X125730000Y-132842000D01*
X125730000Y-132842000D02*
X129032000Y-132842000D01*
X129032000Y-132842000D02*
X132080000Y-135890000D01*
X132080000Y-135890000D02*
X132905000Y-135890000D01*
X128778000Y-183858000D02*
X130302000Y-185382000D01*
X130302000Y-185382000D02*
X130302000Y-189192000D01*
X130302000Y-189192000D02*
X132080000Y-190970000D01*
X132080000Y-190970000D02*
X132905000Y-190970000D01*
X123825000Y-183858000D02*
X128778000Y-183858000D01*
D29*
X132905000Y-190970000D02*
X134905000Y-190970000D01*
D28*
X131138000Y-192737000D02*
X132905000Y-190970000D01*
X131138000Y-193002000D02*
X131138000Y-192737000D01*
X118491000Y-178905000D02*
X117475000Y-179921000D01*
X117475000Y-179921000D02*
X117475000Y-183477000D01*
X117475000Y-183477000D02*
X116713000Y-184239000D01*
X116713000Y-184239000D02*
X115029000Y-184239000D01*
X166713000Y-184239000D02*
X165029000Y-184239000D01*
X167475000Y-183477000D02*
X166713000Y-184239000D01*
X167475000Y-179921000D02*
X167475000Y-183477000D01*
X168491000Y-178905000D02*
X167475000Y-179921000D01*
X181138000Y-193002000D02*
X181138000Y-192737000D01*
X181138000Y-192737000D02*
X182905000Y-190970000D01*
D29*
X182905000Y-190970000D02*
X184905000Y-190970000D01*
D28*
X173825000Y-183858000D02*
X178778000Y-183858000D01*
X182080000Y-190970000D02*
X182905000Y-190970000D01*
X180302000Y-189192000D02*
X182080000Y-190970000D01*
X180302000Y-185382000D02*
X180302000Y-189192000D01*
X178778000Y-183858000D02*
X180302000Y-185382000D01*
X178778000Y-133858000D02*
X180302000Y-135382000D01*
X180302000Y-135382000D02*
X180302000Y-139192000D01*
X180302000Y-139192000D02*
X182080000Y-140970000D01*
X182080000Y-140970000D02*
X182905000Y-140970000D01*
X173825000Y-133858000D02*
X178778000Y-133858000D01*
D29*
X182905000Y-140970000D02*
X184905000Y-140970000D01*
D28*
X181138000Y-142737000D02*
X182905000Y-140970000D01*
X181138000Y-143002000D02*
X181138000Y-142737000D01*
X168491000Y-128905000D02*
X167475000Y-129921000D01*
X167475000Y-129921000D02*
X167475000Y-133477000D01*
X167475000Y-133477000D02*
X166713000Y-134239000D01*
X166713000Y-134239000D02*
X165029000Y-134239000D01*
X116713000Y-134239000D02*
X115029000Y-134239000D01*
X117475000Y-133477000D02*
X116713000Y-134239000D01*
X117475000Y-129921000D02*
X117475000Y-133477000D01*
X118491000Y-128905000D02*
X117475000Y-129921000D01*
X131138000Y-143002000D02*
X131138000Y-142737000D01*
X131138000Y-142737000D02*
X132905000Y-140970000D01*
D29*
X132905000Y-140970000D02*
X134905000Y-140970000D01*
D28*
X123825000Y-133858000D02*
X128778000Y-133858000D01*
X132080000Y-140970000D02*
X132905000Y-140970000D01*
X130302000Y-139192000D02*
X132080000Y-140970000D01*
X130302000Y-135382000D02*
X130302000Y-139192000D01*
X128778000Y-133858000D02*
X130302000Y-135382000D01*
X131318000Y-196050000D02*
X132905000Y-196050000D01*
X130175000Y-194907000D02*
X131318000Y-196050000D01*
X130175000Y-190081000D02*
X130175000Y-194907000D01*
X129159000Y-189065000D02*
X130175000Y-190081000D01*
X126873000Y-189065000D02*
X129159000Y-189065000D01*
X124206000Y-186398000D02*
X126873000Y-189065000D01*
X123825000Y-186398000D02*
X124206000Y-186398000D01*
D29*
X132905000Y-196050000D02*
X134905000Y-196050000D01*
D28*
X122682000Y-186398000D02*
X121920000Y-187160000D01*
X121920000Y-187160000D02*
X121920000Y-191224000D01*
X121920000Y-191224000D02*
X120330000Y-192814000D01*
X120330000Y-192814000D02*
X118448000Y-192814000D01*
X123825000Y-186398000D02*
X122682000Y-186398000D01*
X134905000Y-195003000D02*
X134905000Y-196050000D01*
X135710000Y-194198000D02*
X134905000Y-195003000D01*
X135710000Y-193764000D02*
X135710000Y-194198000D01*
X185710000Y-193764000D02*
X185710000Y-194198000D01*
X185710000Y-194198000D02*
X184905000Y-195003000D01*
X184905000Y-195003000D02*
X184905000Y-196050000D01*
X173825000Y-186398000D02*
X172682000Y-186398000D01*
X170330000Y-192814000D02*
X168448000Y-192814000D01*
X171920000Y-191224000D02*
X170330000Y-192814000D01*
X171920000Y-187160000D02*
X171920000Y-191224000D01*
X172682000Y-186398000D02*
X171920000Y-187160000D01*
D29*
X182905000Y-196050000D02*
X184905000Y-196050000D01*
D28*
X173825000Y-186398000D02*
X174206000Y-186398000D01*
X174206000Y-186398000D02*
X176873000Y-189065000D01*
X176873000Y-189065000D02*
X179159000Y-189065000D01*
X179159000Y-189065000D02*
X180175000Y-190081000D01*
X180175000Y-190081000D02*
X180175000Y-194907000D01*
X180175000Y-194907000D02*
X181318000Y-196050000D01*
X181318000Y-196050000D02*
X182905000Y-196050000D01*
X181318000Y-146050000D02*
X182905000Y-146050000D01*
X180175000Y-144907000D02*
X181318000Y-146050000D01*
X180175000Y-140081000D02*
X180175000Y-144907000D01*
X179159000Y-139065000D02*
X180175000Y-140081000D01*
X176873000Y-139065000D02*
X179159000Y-139065000D01*
X174206000Y-136398000D02*
X176873000Y-139065000D01*
X173825000Y-136398000D02*
X174206000Y-136398000D01*
D29*
X182905000Y-146050000D02*
X184905000Y-146050000D01*
D28*
X172682000Y-136398000D02*
X171920000Y-137160000D01*
X171920000Y-137160000D02*
X171920000Y-141224000D01*
X171920000Y-141224000D02*
X170330000Y-142814000D01*
X170330000Y-142814000D02*
X168448000Y-142814000D01*
X173825000Y-136398000D02*
X172682000Y-136398000D01*
X184905000Y-145003000D02*
X184905000Y-146050000D01*
X185710000Y-144198000D02*
X184905000Y-145003000D01*
X185710000Y-143764000D02*
X185710000Y-144198000D01*
X135710000Y-143764000D02*
X135710000Y-144198000D01*
X135710000Y-144198000D02*
X134905000Y-145003000D01*
X134905000Y-145003000D02*
X134905000Y-146050000D01*
X123825000Y-136398000D02*
X122682000Y-136398000D01*
X120330000Y-142814000D02*
X118448000Y-142814000D01*
X121920000Y-141224000D02*
X120330000Y-142814000D01*
X121920000Y-137160000D02*
X121920000Y-141224000D01*
X122682000Y-136398000D02*
X121920000Y-137160000D01*
D29*
X132905000Y-146050000D02*
X134905000Y-146050000D01*
D28*
X123825000Y-136398000D02*
X124206000Y-136398000D01*
X124206000Y-136398000D02*
X126873000Y-139065000D01*
X126873000Y-139065000D02*
X129159000Y-139065000D01*
X129159000Y-139065000D02*
X130175000Y-140081000D01*
X130175000Y-140081000D02*
X130175000Y-144907000D01*
X130175000Y-144907000D02*
X131318000Y-146050000D01*
X131318000Y-146050000D02*
X132905000Y-146050000D01*
X147447000Y-170015000D02*
X147955000Y-170015000D01*
X197447000Y-170015000D02*
X197955000Y-170015000D01*
X197447000Y-120015000D02*
X197955000Y-120015000D01*
X147447000Y-120015000D02*
X147955000Y-120015000D01*
M02*
