M48
;DRILL file {KiCad 4.0.5+dfsg1-4} date Wed Mar 29 10:50:19 2017
;FORMAT={-:-/ absolute / inch / decimal}
FMAT,2
INCH,TZ
T1C0.039
T2C0.040
%
G90
G05
M72
T1
X3.875Y-1.475
X3.875Y-1.575
X3.875Y-1.675
X3.875Y-1.775
X3.875Y-1.875
X3.875Y-2.075
X3.875Y-2.175
X3.875Y-2.275
X3.875Y-2.375
X3.875Y-2.475
X3.875Y-2.675
X3.875Y-2.775
X3.875Y-2.875
X3.875Y-3.375
X3.875Y-3.475
X3.875Y-3.575
X3.875Y-3.675
X3.875Y-3.775
X3.875Y-3.975
X3.875Y-4.075
X3.875Y-4.175
X3.875Y-4.275
X3.875Y-4.375
X3.875Y-4.575
X3.875Y-4.675
X3.875Y-4.775
X4.5Y-1.475
X4.5Y-1.575
X4.5Y-1.675
X4.5Y-1.775
X4.5Y-1.875
X4.5Y-2.075
X4.5Y-2.175
X4.5Y-2.275
X4.5Y-2.375
X4.5Y-2.475
X4.5Y-2.675
X4.5Y-2.775
X4.5Y-2.875
X4.5Y-3.375
X4.5Y-3.475
X4.5Y-3.575
X4.5Y-3.675
X4.5Y-3.775
X4.5Y-3.975
X4.5Y-4.075
X4.5Y-4.175
X4.5Y-4.275
X4.5Y-4.375
X4.5Y-4.575
X4.5Y-4.675
X4.5Y-4.775
X4.85Y-1.475
X4.85Y-1.575
X4.85Y-1.675
X4.85Y-1.775
X4.85Y-1.875
X4.85Y-2.075
X4.85Y-2.175
X4.85Y-2.275
X4.85Y-2.375
X4.85Y-2.475
X4.85Y-2.675
X4.85Y-2.775
X4.85Y-2.875
X4.85Y-3.375
X4.85Y-3.475
X4.85Y-3.575
X4.85Y-3.675
X4.85Y-3.775
X4.85Y-3.975
X4.85Y-4.075
X4.85Y-4.175
X4.85Y-4.275
X4.85Y-4.375
X4.85Y-4.575
X4.85Y-4.675
X4.85Y-4.775
X5.475Y-1.475
X5.475Y-1.575
X5.475Y-1.675
X5.475Y-1.775
X5.475Y-1.875
X5.475Y-2.075
X5.475Y-2.175
X5.475Y-2.275
X5.475Y-2.375
X5.475Y-2.475
X5.475Y-2.675
X5.475Y-2.775
X5.475Y-2.875
X5.475Y-3.375
X5.475Y-3.475
X5.475Y-3.575
X5.475Y-3.675
X5.475Y-3.775
X5.475Y-3.975
X5.475Y-4.075
X5.475Y-4.175
X5.475Y-4.275
X5.475Y-4.375
X5.475Y-4.575
X5.475Y-4.675
X5.475Y-4.775
X5.85Y-1.475
X5.85Y-1.575
X5.85Y-1.675
X5.85Y-1.775
X5.85Y-1.875
X5.85Y-2.075
X5.85Y-2.175
X5.85Y-2.275
X5.85Y-2.375
X5.85Y-2.475
X5.85Y-2.675
X5.85Y-2.775
X5.85Y-2.875
X5.85Y-3.375
X5.85Y-3.475
X5.85Y-3.575
X5.85Y-3.675
X5.85Y-3.775
X5.85Y-3.975
X5.85Y-4.075
X5.85Y-4.175
X5.85Y-4.275
X5.85Y-4.375
X5.85Y-4.575
X5.85Y-4.675
X5.85Y-4.775
X6.475Y-1.475
X6.475Y-1.575
X6.475Y-1.675
X6.475Y-1.775
X6.475Y-1.875
X6.475Y-2.075
X6.475Y-2.175
X6.475Y-2.275
X6.475Y-2.375
X6.475Y-2.475
X6.475Y-2.675
X6.475Y-2.775
X6.475Y-2.875
X6.475Y-3.375
X6.475Y-3.475
X6.475Y-3.575
X6.475Y-3.675
X6.475Y-3.775
X6.475Y-3.975
X6.475Y-4.075
X6.475Y-4.175
X6.475Y-4.275
X6.475Y-4.375
X6.475Y-4.575
X6.475Y-4.675
X6.475Y-4.775
X6.825Y-1.475
X6.825Y-1.575
X6.825Y-1.675
X6.825Y-1.775
X6.825Y-1.875
X6.825Y-2.075
X6.825Y-2.175
X6.825Y-2.275
X6.825Y-2.375
X6.825Y-2.475
X6.825Y-2.675
X6.825Y-2.775
X6.825Y-2.875
X6.825Y-3.375
X6.825Y-3.475
X6.825Y-3.575
X6.825Y-3.675
X6.825Y-3.775
X6.825Y-3.975
X6.825Y-4.075
X6.825Y-4.175
X6.825Y-4.275
X6.825Y-4.375
X6.825Y-4.575
X6.825Y-4.675
X6.825Y-4.775
X7.45Y-1.475
X7.45Y-1.575
X7.45Y-1.675
X7.45Y-1.775
X7.45Y-1.875
X7.45Y-2.075
X7.45Y-2.175
X7.45Y-2.275
X7.45Y-2.375
X7.45Y-2.475
X7.45Y-2.675
X7.45Y-2.775
X7.45Y-2.875
X7.45Y-3.375
X7.45Y-3.475
X7.45Y-3.575
X7.45Y-3.675
X7.45Y-3.775
X7.45Y-3.975
X7.45Y-4.075
X7.45Y-4.175
X7.45Y-4.275
X7.45Y-4.375
X7.45Y-4.575
X7.45Y-4.675
X7.45Y-4.775
T2
X3.875Y-1.275
X3.875Y-3.175
X3.975Y-1.275
X3.975Y-3.175
X4.025Y-1.675
X4.025Y-1.775
X4.025Y-1.9
X4.025Y-2.
X4.025Y-3.575
X4.025Y-3.675
X4.025Y-3.8
X4.025Y-3.9
X4.075Y-1.275
X4.075Y-2.875
X4.075Y-3.175
X4.075Y-4.775
X4.175Y-1.275
X4.175Y-2.875
X4.175Y-3.175
X4.175Y-4.775
X4.275Y-2.875
X4.275Y-4.775
X4.375Y-1.275
X4.375Y-3.175
X4.475Y-1.275
X4.475Y-3.175
X4.575Y-1.275
X4.575Y-3.175
X4.65Y-1.575
X4.65Y-1.675
X4.65Y-3.475
X4.65Y-3.575
X4.675Y-1.275
X4.675Y-3.175
X4.85Y-1.275
X4.85Y-3.175
X4.95Y-1.275
X4.95Y-3.175
X5.Y-1.675
X5.Y-1.775
X5.Y-1.9
X5.Y-2.
X5.Y-3.575
X5.Y-3.675
X5.Y-3.8
X5.Y-3.9
X5.05Y-1.275
X5.05Y-2.875
X5.05Y-3.175
X5.05Y-4.775
X5.15Y-1.275
X5.15Y-2.875
X5.15Y-3.175
X5.15Y-4.775
X5.25Y-2.875
X5.25Y-4.775
X5.35Y-1.275
X5.35Y-3.175
X5.45Y-1.275
X5.45Y-3.175
X5.55Y-1.275
X5.55Y-3.175
X5.625Y-1.575
X5.625Y-1.675
X5.625Y-3.475
X5.625Y-3.575
X5.65Y-1.275
X5.65Y-3.175
X5.85Y-1.275
X5.85Y-3.175
X5.95Y-1.275
X5.95Y-3.175
X6.Y-1.675
X6.Y-1.775
X6.Y-1.9
X6.Y-2.
X6.Y-3.575
X6.Y-3.675
X6.Y-3.8
X6.Y-3.9
X6.05Y-1.275
X6.05Y-2.875
X6.05Y-3.175
X6.05Y-4.775
X6.15Y-1.275
X6.15Y-2.875
X6.15Y-3.175
X6.15Y-4.775
X6.25Y-2.875
X6.25Y-4.775
X6.35Y-1.275
X6.35Y-3.175
X6.45Y-1.275
X6.45Y-3.175
X6.55Y-1.275
X6.55Y-3.175
X6.625Y-1.575
X6.625Y-1.675
X6.625Y-3.475
X6.625Y-3.575
X6.65Y-1.275
X6.65Y-3.175
X6.825Y-1.275
X6.825Y-3.175
X6.925Y-1.275
X6.925Y-3.175
X6.975Y-1.675
X6.975Y-1.775
X6.975Y-1.9
X6.975Y-2.
X6.975Y-3.575
X6.975Y-3.675
X6.975Y-3.8
X6.975Y-3.9
X7.025Y-1.275
X7.025Y-2.875
X7.025Y-3.175
X7.025Y-4.775
X7.125Y-1.275
X7.125Y-2.875
X7.125Y-3.175
X7.125Y-4.775
X7.225Y-2.875
X7.225Y-4.775
X7.325Y-1.275
X7.325Y-3.175
X7.425Y-1.275
X7.425Y-3.175
X7.525Y-1.275
X7.525Y-3.175
X7.6Y-1.575
X7.6Y-1.675
X7.6Y-3.475
X7.6Y-3.575
X7.625Y-1.275
X7.625Y-3.175
T0
M30
