G04 #@! TF.FileFunction,Soldermask,Bot*
%FSLAX46Y46*%
G04 Gerber Fmt 4.6, Leading zero omitted, Abs format (unit mm)*
G04 Created by KiCad (PCBNEW 4.0.5+dfsg1-4) date Thu Mar 30 08:58:49 2017*
%MOMM*%
%LPD*%
G01*
G04 APERTURE LIST*
%ADD10C,0.100000*%
%ADD11R,2.432000X2.432000*%
%ADD12O,2.432000X2.432000*%
%ADD13R,2.400000X2.100000*%
%ADD14R,2.127200X2.432000*%
%ADD15O,2.127200X2.432000*%
%ADD16R,2.100000X2.100000*%
%ADD17O,2.100000X2.100000*%
G04 APERTURE END LIST*
D10*
D11*
X182880000Y-85090000D03*
D12*
X182880000Y-82550000D03*
D13*
X186785000Y-107315000D03*
X182785000Y-107315000D03*
X175800000Y-107315000D03*
X179800000Y-107315000D03*
X186785000Y-104775000D03*
X182785000Y-104775000D03*
X175800000Y-104775000D03*
X179800000Y-104775000D03*
X186785000Y-102235000D03*
X182785000Y-102235000D03*
X175800000Y-102235000D03*
X179800000Y-102235000D03*
D14*
X182880000Y-78740000D03*
D15*
X185420000Y-78740000D03*
X187960000Y-78740000D03*
X190500000Y-78740000D03*
D14*
X172720000Y-78740000D03*
D15*
X175260000Y-78740000D03*
X177800000Y-78740000D03*
X180340000Y-78740000D03*
D11*
X182880000Y-91440000D03*
D12*
X182880000Y-93980000D03*
D11*
X186055000Y-85725000D03*
D12*
X186055000Y-88265000D03*
D11*
X186055000Y-99060000D03*
D12*
X186055000Y-96520000D03*
D16*
X173355000Y-83185000D03*
D17*
X173355000Y-85725000D03*
X173355000Y-88265000D03*
X173355000Y-90805000D03*
X173355000Y-93345000D03*
X173355000Y-98425000D03*
X173355000Y-100965000D03*
X173355000Y-103505000D03*
X173355000Y-106045000D03*
X173355000Y-108585000D03*
X173355000Y-113665000D03*
X173355000Y-116205000D03*
X173355000Y-118745000D03*
D16*
X189230000Y-83185000D03*
D17*
X189230000Y-85725000D03*
X189230000Y-88265000D03*
X189230000Y-90805000D03*
X189230000Y-93345000D03*
X189230000Y-98425000D03*
X189230000Y-100965000D03*
X189230000Y-103505000D03*
X189230000Y-106045000D03*
X189230000Y-108585000D03*
X189230000Y-113665000D03*
X189230000Y-116205000D03*
X189230000Y-118745000D03*
D14*
X182880000Y-116840000D03*
D15*
X180340000Y-116840000D03*
X177800000Y-116840000D03*
D14*
X207645000Y-116840000D03*
D15*
X205105000Y-116840000D03*
X202565000Y-116840000D03*
D16*
X213995000Y-83185000D03*
D17*
X213995000Y-85725000D03*
X213995000Y-88265000D03*
X213995000Y-90805000D03*
X213995000Y-93345000D03*
X213995000Y-98425000D03*
X213995000Y-100965000D03*
X213995000Y-103505000D03*
X213995000Y-106045000D03*
X213995000Y-108585000D03*
X213995000Y-113665000D03*
X213995000Y-116205000D03*
X213995000Y-118745000D03*
D16*
X198120000Y-83185000D03*
D17*
X198120000Y-85725000D03*
X198120000Y-88265000D03*
X198120000Y-90805000D03*
X198120000Y-93345000D03*
X198120000Y-98425000D03*
X198120000Y-100965000D03*
X198120000Y-103505000D03*
X198120000Y-106045000D03*
X198120000Y-108585000D03*
X198120000Y-113665000D03*
X198120000Y-116205000D03*
X198120000Y-118745000D03*
D11*
X210820000Y-99060000D03*
D12*
X210820000Y-96520000D03*
D11*
X210820000Y-85725000D03*
D12*
X210820000Y-88265000D03*
D11*
X207645000Y-91440000D03*
D12*
X207645000Y-93980000D03*
D14*
X197485000Y-78740000D03*
D15*
X200025000Y-78740000D03*
X202565000Y-78740000D03*
X205105000Y-78740000D03*
D14*
X207645000Y-78740000D03*
D15*
X210185000Y-78740000D03*
X212725000Y-78740000D03*
X215265000Y-78740000D03*
D13*
X200565000Y-102235000D03*
X204565000Y-102235000D03*
X211550000Y-102235000D03*
X207550000Y-102235000D03*
X200565000Y-104775000D03*
X204565000Y-104775000D03*
X211550000Y-104775000D03*
X207550000Y-104775000D03*
X200565000Y-107315000D03*
X204565000Y-107315000D03*
X211550000Y-107315000D03*
X207550000Y-107315000D03*
D11*
X207645000Y-85090000D03*
D12*
X207645000Y-82550000D03*
D11*
X257175000Y-85090000D03*
D12*
X257175000Y-82550000D03*
D13*
X261080000Y-107315000D03*
X257080000Y-107315000D03*
X250095000Y-107315000D03*
X254095000Y-107315000D03*
X261080000Y-104775000D03*
X257080000Y-104775000D03*
X250095000Y-104775000D03*
X254095000Y-104775000D03*
X261080000Y-102235000D03*
X257080000Y-102235000D03*
X250095000Y-102235000D03*
X254095000Y-102235000D03*
D14*
X257175000Y-78740000D03*
D15*
X259715000Y-78740000D03*
X262255000Y-78740000D03*
X264795000Y-78740000D03*
D14*
X247015000Y-78740000D03*
D15*
X249555000Y-78740000D03*
X252095000Y-78740000D03*
X254635000Y-78740000D03*
D11*
X257175000Y-91440000D03*
D12*
X257175000Y-93980000D03*
D11*
X260350000Y-85725000D03*
D12*
X260350000Y-88265000D03*
D11*
X260350000Y-99060000D03*
D12*
X260350000Y-96520000D03*
D16*
X247650000Y-83185000D03*
D17*
X247650000Y-85725000D03*
X247650000Y-88265000D03*
X247650000Y-90805000D03*
X247650000Y-93345000D03*
X247650000Y-98425000D03*
X247650000Y-100965000D03*
X247650000Y-103505000D03*
X247650000Y-106045000D03*
X247650000Y-108585000D03*
X247650000Y-113665000D03*
X247650000Y-116205000D03*
X247650000Y-118745000D03*
D16*
X263525000Y-83185000D03*
D17*
X263525000Y-85725000D03*
X263525000Y-88265000D03*
X263525000Y-90805000D03*
X263525000Y-93345000D03*
X263525000Y-98425000D03*
X263525000Y-100965000D03*
X263525000Y-103505000D03*
X263525000Y-106045000D03*
X263525000Y-108585000D03*
X263525000Y-113665000D03*
X263525000Y-116205000D03*
X263525000Y-118745000D03*
D14*
X257175000Y-116840000D03*
D15*
X254635000Y-116840000D03*
X252095000Y-116840000D03*
D14*
X232410000Y-116840000D03*
D15*
X229870000Y-116840000D03*
X227330000Y-116840000D03*
D16*
X238760000Y-83185000D03*
D17*
X238760000Y-85725000D03*
X238760000Y-88265000D03*
X238760000Y-90805000D03*
X238760000Y-93345000D03*
X238760000Y-98425000D03*
X238760000Y-100965000D03*
X238760000Y-103505000D03*
X238760000Y-106045000D03*
X238760000Y-108585000D03*
X238760000Y-113665000D03*
X238760000Y-116205000D03*
X238760000Y-118745000D03*
D16*
X222885000Y-83185000D03*
D17*
X222885000Y-85725000D03*
X222885000Y-88265000D03*
X222885000Y-90805000D03*
X222885000Y-93345000D03*
X222885000Y-98425000D03*
X222885000Y-100965000D03*
X222885000Y-103505000D03*
X222885000Y-106045000D03*
X222885000Y-108585000D03*
X222885000Y-113665000D03*
X222885000Y-116205000D03*
X222885000Y-118745000D03*
D11*
X235585000Y-99060000D03*
D12*
X235585000Y-96520000D03*
D11*
X235585000Y-85725000D03*
D12*
X235585000Y-88265000D03*
D11*
X232410000Y-91440000D03*
D12*
X232410000Y-93980000D03*
D14*
X222250000Y-78740000D03*
D15*
X224790000Y-78740000D03*
X227330000Y-78740000D03*
X229870000Y-78740000D03*
D14*
X232410000Y-78740000D03*
D15*
X234950000Y-78740000D03*
X237490000Y-78740000D03*
X240030000Y-78740000D03*
D13*
X225330000Y-102235000D03*
X229330000Y-102235000D03*
X236315000Y-102235000D03*
X232315000Y-102235000D03*
X225330000Y-104775000D03*
X229330000Y-104775000D03*
X236315000Y-104775000D03*
X232315000Y-104775000D03*
X225330000Y-107315000D03*
X229330000Y-107315000D03*
X236315000Y-107315000D03*
X232315000Y-107315000D03*
D11*
X232410000Y-85090000D03*
D12*
X232410000Y-82550000D03*
D11*
X232410000Y-39370000D03*
D12*
X232410000Y-36830000D03*
D13*
X236315000Y-61595000D03*
X232315000Y-61595000D03*
X225330000Y-61595000D03*
X229330000Y-61595000D03*
X236315000Y-59055000D03*
X232315000Y-59055000D03*
X225330000Y-59055000D03*
X229330000Y-59055000D03*
X236315000Y-56515000D03*
X232315000Y-56515000D03*
X225330000Y-56515000D03*
X229330000Y-56515000D03*
D14*
X232410000Y-33020000D03*
D15*
X234950000Y-33020000D03*
X237490000Y-33020000D03*
X240030000Y-33020000D03*
D14*
X222250000Y-33020000D03*
D15*
X224790000Y-33020000D03*
X227330000Y-33020000D03*
X229870000Y-33020000D03*
D11*
X232410000Y-45720000D03*
D12*
X232410000Y-48260000D03*
D11*
X235585000Y-40005000D03*
D12*
X235585000Y-42545000D03*
D11*
X235585000Y-53340000D03*
D12*
X235585000Y-50800000D03*
D16*
X222885000Y-37465000D03*
D17*
X222885000Y-40005000D03*
X222885000Y-42545000D03*
X222885000Y-45085000D03*
X222885000Y-47625000D03*
X222885000Y-52705000D03*
X222885000Y-55245000D03*
X222885000Y-57785000D03*
X222885000Y-60325000D03*
X222885000Y-62865000D03*
X222885000Y-67945000D03*
X222885000Y-70485000D03*
X222885000Y-73025000D03*
D16*
X238760000Y-37465000D03*
D17*
X238760000Y-40005000D03*
X238760000Y-42545000D03*
X238760000Y-45085000D03*
X238760000Y-47625000D03*
X238760000Y-52705000D03*
X238760000Y-55245000D03*
X238760000Y-57785000D03*
X238760000Y-60325000D03*
X238760000Y-62865000D03*
X238760000Y-67945000D03*
X238760000Y-70485000D03*
X238760000Y-73025000D03*
D14*
X232410000Y-71120000D03*
D15*
X229870000Y-71120000D03*
X227330000Y-71120000D03*
D14*
X257175000Y-71120000D03*
D15*
X254635000Y-71120000D03*
X252095000Y-71120000D03*
D16*
X263525000Y-37465000D03*
D17*
X263525000Y-40005000D03*
X263525000Y-42545000D03*
X263525000Y-45085000D03*
X263525000Y-47625000D03*
X263525000Y-52705000D03*
X263525000Y-55245000D03*
X263525000Y-57785000D03*
X263525000Y-60325000D03*
X263525000Y-62865000D03*
X263525000Y-67945000D03*
X263525000Y-70485000D03*
X263525000Y-73025000D03*
D16*
X247650000Y-37465000D03*
D17*
X247650000Y-40005000D03*
X247650000Y-42545000D03*
X247650000Y-45085000D03*
X247650000Y-47625000D03*
X247650000Y-52705000D03*
X247650000Y-55245000D03*
X247650000Y-57785000D03*
X247650000Y-60325000D03*
X247650000Y-62865000D03*
X247650000Y-67945000D03*
X247650000Y-70485000D03*
X247650000Y-73025000D03*
D11*
X260350000Y-53340000D03*
D12*
X260350000Y-50800000D03*
D11*
X260350000Y-40005000D03*
D12*
X260350000Y-42545000D03*
D11*
X257175000Y-45720000D03*
D12*
X257175000Y-48260000D03*
D14*
X247015000Y-33020000D03*
D15*
X249555000Y-33020000D03*
X252095000Y-33020000D03*
X254635000Y-33020000D03*
D14*
X257175000Y-33020000D03*
D15*
X259715000Y-33020000D03*
X262255000Y-33020000D03*
X264795000Y-33020000D03*
D13*
X250095000Y-56515000D03*
X254095000Y-56515000D03*
X261080000Y-56515000D03*
X257080000Y-56515000D03*
X250095000Y-59055000D03*
X254095000Y-59055000D03*
X261080000Y-59055000D03*
X257080000Y-59055000D03*
X250095000Y-61595000D03*
X254095000Y-61595000D03*
X261080000Y-61595000D03*
X257080000Y-61595000D03*
D11*
X257175000Y-39370000D03*
D12*
X257175000Y-36830000D03*
D11*
X207645000Y-39370000D03*
D12*
X207645000Y-36830000D03*
D13*
X211550000Y-61595000D03*
X207550000Y-61595000D03*
X200565000Y-61595000D03*
X204565000Y-61595000D03*
X211550000Y-59055000D03*
X207550000Y-59055000D03*
X200565000Y-59055000D03*
X204565000Y-59055000D03*
X211550000Y-56515000D03*
X207550000Y-56515000D03*
X200565000Y-56515000D03*
X204565000Y-56515000D03*
D14*
X207645000Y-33020000D03*
D15*
X210185000Y-33020000D03*
X212725000Y-33020000D03*
X215265000Y-33020000D03*
D14*
X197485000Y-33020000D03*
D15*
X200025000Y-33020000D03*
X202565000Y-33020000D03*
X205105000Y-33020000D03*
D11*
X207645000Y-45720000D03*
D12*
X207645000Y-48260000D03*
D11*
X210820000Y-40005000D03*
D12*
X210820000Y-42545000D03*
D11*
X210820000Y-53340000D03*
D12*
X210820000Y-50800000D03*
D16*
X198120000Y-37465000D03*
D17*
X198120000Y-40005000D03*
X198120000Y-42545000D03*
X198120000Y-45085000D03*
X198120000Y-47625000D03*
X198120000Y-52705000D03*
X198120000Y-55245000D03*
X198120000Y-57785000D03*
X198120000Y-60325000D03*
X198120000Y-62865000D03*
X198120000Y-67945000D03*
X198120000Y-70485000D03*
X198120000Y-73025000D03*
D16*
X213995000Y-37465000D03*
D17*
X213995000Y-40005000D03*
X213995000Y-42545000D03*
X213995000Y-45085000D03*
X213995000Y-47625000D03*
X213995000Y-52705000D03*
X213995000Y-55245000D03*
X213995000Y-57785000D03*
X213995000Y-60325000D03*
X213995000Y-62865000D03*
X213995000Y-67945000D03*
X213995000Y-70485000D03*
X213995000Y-73025000D03*
D14*
X207645000Y-71120000D03*
D15*
X205105000Y-71120000D03*
X202565000Y-71120000D03*
D14*
X182880000Y-71120000D03*
D15*
X180340000Y-71120000D03*
X177800000Y-71120000D03*
D16*
X189230000Y-37465000D03*
D17*
X189230000Y-40005000D03*
X189230000Y-42545000D03*
X189230000Y-45085000D03*
X189230000Y-47625000D03*
X189230000Y-52705000D03*
X189230000Y-55245000D03*
X189230000Y-57785000D03*
X189230000Y-60325000D03*
X189230000Y-62865000D03*
X189230000Y-67945000D03*
X189230000Y-70485000D03*
X189230000Y-73025000D03*
D16*
X173355000Y-37465000D03*
D17*
X173355000Y-40005000D03*
X173355000Y-42545000D03*
X173355000Y-45085000D03*
X173355000Y-47625000D03*
X173355000Y-52705000D03*
X173355000Y-55245000D03*
X173355000Y-57785000D03*
X173355000Y-60325000D03*
X173355000Y-62865000D03*
X173355000Y-67945000D03*
X173355000Y-70485000D03*
X173355000Y-73025000D03*
D11*
X186055000Y-53340000D03*
D12*
X186055000Y-50800000D03*
D11*
X186055000Y-40005000D03*
D12*
X186055000Y-42545000D03*
D11*
X182880000Y-45720000D03*
D12*
X182880000Y-48260000D03*
D14*
X172720000Y-33020000D03*
D15*
X175260000Y-33020000D03*
X177800000Y-33020000D03*
X180340000Y-33020000D03*
D14*
X182880000Y-33020000D03*
D15*
X185420000Y-33020000D03*
X187960000Y-33020000D03*
X190500000Y-33020000D03*
D13*
X175800000Y-56515000D03*
X179800000Y-56515000D03*
X186785000Y-56515000D03*
X182785000Y-56515000D03*
X175800000Y-59055000D03*
X179800000Y-59055000D03*
X186785000Y-59055000D03*
X182785000Y-59055000D03*
X175800000Y-61595000D03*
X179800000Y-61595000D03*
X186785000Y-61595000D03*
X182785000Y-61595000D03*
D11*
X182880000Y-39370000D03*
D12*
X182880000Y-36830000D03*
M02*
