G04 #@! TF.FileFunction,Copper,L2,Bot,Signal*
%FSLAX46Y46*%
G04 Gerber Fmt 4.6, Leading zero omitted, Abs format (unit mm)*
G04 Created by KiCad (PCBNEW 4.0.5+dfsg1-4) date Thu Mar 30 08:58:49 2017*
%MOMM*%
%LPD*%
G01*
G04 APERTURE LIST*
%ADD10C,0.100000*%
%ADD11R,2.032000X2.032000*%
%ADD12O,2.032000X2.032000*%
%ADD13R,2.000000X1.700000*%
%ADD14R,1.727200X2.032000*%
%ADD15O,1.727200X2.032000*%
%ADD16R,1.700000X1.700000*%
%ADD17O,1.700000X1.700000*%
%ADD18C,1.600000*%
%ADD19C,0.600000*%
G04 APERTURE END LIST*
D10*
D11*
X182880000Y-85090000D03*
D12*
X182880000Y-82550000D03*
D13*
X186785000Y-107315000D03*
X182785000Y-107315000D03*
X175800000Y-107315000D03*
X179800000Y-107315000D03*
X186785000Y-104775000D03*
X182785000Y-104775000D03*
X175800000Y-104775000D03*
X179800000Y-104775000D03*
X186785000Y-102235000D03*
X182785000Y-102235000D03*
X175800000Y-102235000D03*
X179800000Y-102235000D03*
D14*
X182880000Y-78740000D03*
D15*
X185420000Y-78740000D03*
X187960000Y-78740000D03*
X190500000Y-78740000D03*
D14*
X172720000Y-78740000D03*
D15*
X175260000Y-78740000D03*
X177800000Y-78740000D03*
X180340000Y-78740000D03*
D11*
X182880000Y-91440000D03*
D12*
X182880000Y-93980000D03*
D11*
X186055000Y-85725000D03*
D12*
X186055000Y-88265000D03*
D11*
X186055000Y-99060000D03*
D12*
X186055000Y-96520000D03*
D16*
X173355000Y-83185000D03*
D17*
X173355000Y-85725000D03*
X173355000Y-88265000D03*
X173355000Y-90805000D03*
X173355000Y-93345000D03*
X173355000Y-98425000D03*
X173355000Y-100965000D03*
X173355000Y-103505000D03*
X173355000Y-106045000D03*
X173355000Y-108585000D03*
X173355000Y-113665000D03*
X173355000Y-116205000D03*
X173355000Y-118745000D03*
D16*
X189230000Y-83185000D03*
D17*
X189230000Y-85725000D03*
X189230000Y-88265000D03*
X189230000Y-90805000D03*
X189230000Y-93345000D03*
X189230000Y-98425000D03*
X189230000Y-100965000D03*
X189230000Y-103505000D03*
X189230000Y-106045000D03*
X189230000Y-108585000D03*
X189230000Y-113665000D03*
X189230000Y-116205000D03*
X189230000Y-118745000D03*
D14*
X182880000Y-116840000D03*
D15*
X180340000Y-116840000D03*
X177800000Y-116840000D03*
D14*
X207645000Y-116840000D03*
D15*
X205105000Y-116840000D03*
X202565000Y-116840000D03*
D16*
X213995000Y-83185000D03*
D17*
X213995000Y-85725000D03*
X213995000Y-88265000D03*
X213995000Y-90805000D03*
X213995000Y-93345000D03*
X213995000Y-98425000D03*
X213995000Y-100965000D03*
X213995000Y-103505000D03*
X213995000Y-106045000D03*
X213995000Y-108585000D03*
X213995000Y-113665000D03*
X213995000Y-116205000D03*
X213995000Y-118745000D03*
D16*
X198120000Y-83185000D03*
D17*
X198120000Y-85725000D03*
X198120000Y-88265000D03*
X198120000Y-90805000D03*
X198120000Y-93345000D03*
X198120000Y-98425000D03*
X198120000Y-100965000D03*
X198120000Y-103505000D03*
X198120000Y-106045000D03*
X198120000Y-108585000D03*
X198120000Y-113665000D03*
X198120000Y-116205000D03*
X198120000Y-118745000D03*
D11*
X210820000Y-99060000D03*
D12*
X210820000Y-96520000D03*
D11*
X210820000Y-85725000D03*
D12*
X210820000Y-88265000D03*
D11*
X207645000Y-91440000D03*
D12*
X207645000Y-93980000D03*
D14*
X197485000Y-78740000D03*
D15*
X200025000Y-78740000D03*
X202565000Y-78740000D03*
X205105000Y-78740000D03*
D14*
X207645000Y-78740000D03*
D15*
X210185000Y-78740000D03*
X212725000Y-78740000D03*
X215265000Y-78740000D03*
D13*
X200565000Y-102235000D03*
X204565000Y-102235000D03*
X211550000Y-102235000D03*
X207550000Y-102235000D03*
X200565000Y-104775000D03*
X204565000Y-104775000D03*
X211550000Y-104775000D03*
X207550000Y-104775000D03*
X200565000Y-107315000D03*
X204565000Y-107315000D03*
X211550000Y-107315000D03*
X207550000Y-107315000D03*
D11*
X207645000Y-85090000D03*
D12*
X207645000Y-82550000D03*
D11*
X257175000Y-85090000D03*
D12*
X257175000Y-82550000D03*
D13*
X261080000Y-107315000D03*
X257080000Y-107315000D03*
X250095000Y-107315000D03*
X254095000Y-107315000D03*
X261080000Y-104775000D03*
X257080000Y-104775000D03*
X250095000Y-104775000D03*
X254095000Y-104775000D03*
X261080000Y-102235000D03*
X257080000Y-102235000D03*
X250095000Y-102235000D03*
X254095000Y-102235000D03*
D14*
X257175000Y-78740000D03*
D15*
X259715000Y-78740000D03*
X262255000Y-78740000D03*
X264795000Y-78740000D03*
D14*
X247015000Y-78740000D03*
D15*
X249555000Y-78740000D03*
X252095000Y-78740000D03*
X254635000Y-78740000D03*
D11*
X257175000Y-91440000D03*
D12*
X257175000Y-93980000D03*
D11*
X260350000Y-85725000D03*
D12*
X260350000Y-88265000D03*
D11*
X260350000Y-99060000D03*
D12*
X260350000Y-96520000D03*
D16*
X247650000Y-83185000D03*
D17*
X247650000Y-85725000D03*
X247650000Y-88265000D03*
X247650000Y-90805000D03*
X247650000Y-93345000D03*
X247650000Y-98425000D03*
X247650000Y-100965000D03*
X247650000Y-103505000D03*
X247650000Y-106045000D03*
X247650000Y-108585000D03*
X247650000Y-113665000D03*
X247650000Y-116205000D03*
X247650000Y-118745000D03*
D16*
X263525000Y-83185000D03*
D17*
X263525000Y-85725000D03*
X263525000Y-88265000D03*
X263525000Y-90805000D03*
X263525000Y-93345000D03*
X263525000Y-98425000D03*
X263525000Y-100965000D03*
X263525000Y-103505000D03*
X263525000Y-106045000D03*
X263525000Y-108585000D03*
X263525000Y-113665000D03*
X263525000Y-116205000D03*
X263525000Y-118745000D03*
D14*
X257175000Y-116840000D03*
D15*
X254635000Y-116840000D03*
X252095000Y-116840000D03*
D14*
X232410000Y-116840000D03*
D15*
X229870000Y-116840000D03*
X227330000Y-116840000D03*
D16*
X238760000Y-83185000D03*
D17*
X238760000Y-85725000D03*
X238760000Y-88265000D03*
X238760000Y-90805000D03*
X238760000Y-93345000D03*
X238760000Y-98425000D03*
X238760000Y-100965000D03*
X238760000Y-103505000D03*
X238760000Y-106045000D03*
X238760000Y-108585000D03*
X238760000Y-113665000D03*
X238760000Y-116205000D03*
X238760000Y-118745000D03*
D16*
X222885000Y-83185000D03*
D17*
X222885000Y-85725000D03*
X222885000Y-88265000D03*
X222885000Y-90805000D03*
X222885000Y-93345000D03*
X222885000Y-98425000D03*
X222885000Y-100965000D03*
X222885000Y-103505000D03*
X222885000Y-106045000D03*
X222885000Y-108585000D03*
X222885000Y-113665000D03*
X222885000Y-116205000D03*
X222885000Y-118745000D03*
D11*
X235585000Y-99060000D03*
D12*
X235585000Y-96520000D03*
D11*
X235585000Y-85725000D03*
D12*
X235585000Y-88265000D03*
D11*
X232410000Y-91440000D03*
D12*
X232410000Y-93980000D03*
D14*
X222250000Y-78740000D03*
D15*
X224790000Y-78740000D03*
X227330000Y-78740000D03*
X229870000Y-78740000D03*
D14*
X232410000Y-78740000D03*
D15*
X234950000Y-78740000D03*
X237490000Y-78740000D03*
X240030000Y-78740000D03*
D13*
X225330000Y-102235000D03*
X229330000Y-102235000D03*
X236315000Y-102235000D03*
X232315000Y-102235000D03*
X225330000Y-104775000D03*
X229330000Y-104775000D03*
X236315000Y-104775000D03*
X232315000Y-104775000D03*
X225330000Y-107315000D03*
X229330000Y-107315000D03*
X236315000Y-107315000D03*
X232315000Y-107315000D03*
D11*
X232410000Y-85090000D03*
D12*
X232410000Y-82550000D03*
D11*
X232410000Y-39370000D03*
D12*
X232410000Y-36830000D03*
D13*
X236315000Y-61595000D03*
X232315000Y-61595000D03*
X225330000Y-61595000D03*
X229330000Y-61595000D03*
X236315000Y-59055000D03*
X232315000Y-59055000D03*
X225330000Y-59055000D03*
X229330000Y-59055000D03*
X236315000Y-56515000D03*
X232315000Y-56515000D03*
X225330000Y-56515000D03*
X229330000Y-56515000D03*
D14*
X232410000Y-33020000D03*
D15*
X234950000Y-33020000D03*
X237490000Y-33020000D03*
X240030000Y-33020000D03*
D14*
X222250000Y-33020000D03*
D15*
X224790000Y-33020000D03*
X227330000Y-33020000D03*
X229870000Y-33020000D03*
D11*
X232410000Y-45720000D03*
D12*
X232410000Y-48260000D03*
D11*
X235585000Y-40005000D03*
D12*
X235585000Y-42545000D03*
D11*
X235585000Y-53340000D03*
D12*
X235585000Y-50800000D03*
D16*
X222885000Y-37465000D03*
D17*
X222885000Y-40005000D03*
X222885000Y-42545000D03*
X222885000Y-45085000D03*
X222885000Y-47625000D03*
X222885000Y-52705000D03*
X222885000Y-55245000D03*
X222885000Y-57785000D03*
X222885000Y-60325000D03*
X222885000Y-62865000D03*
X222885000Y-67945000D03*
X222885000Y-70485000D03*
X222885000Y-73025000D03*
D16*
X238760000Y-37465000D03*
D17*
X238760000Y-40005000D03*
X238760000Y-42545000D03*
X238760000Y-45085000D03*
X238760000Y-47625000D03*
X238760000Y-52705000D03*
X238760000Y-55245000D03*
X238760000Y-57785000D03*
X238760000Y-60325000D03*
X238760000Y-62865000D03*
X238760000Y-67945000D03*
X238760000Y-70485000D03*
X238760000Y-73025000D03*
D14*
X232410000Y-71120000D03*
D15*
X229870000Y-71120000D03*
X227330000Y-71120000D03*
D14*
X257175000Y-71120000D03*
D15*
X254635000Y-71120000D03*
X252095000Y-71120000D03*
D16*
X263525000Y-37465000D03*
D17*
X263525000Y-40005000D03*
X263525000Y-42545000D03*
X263525000Y-45085000D03*
X263525000Y-47625000D03*
X263525000Y-52705000D03*
X263525000Y-55245000D03*
X263525000Y-57785000D03*
X263525000Y-60325000D03*
X263525000Y-62865000D03*
X263525000Y-67945000D03*
X263525000Y-70485000D03*
X263525000Y-73025000D03*
D16*
X247650000Y-37465000D03*
D17*
X247650000Y-40005000D03*
X247650000Y-42545000D03*
X247650000Y-45085000D03*
X247650000Y-47625000D03*
X247650000Y-52705000D03*
X247650000Y-55245000D03*
X247650000Y-57785000D03*
X247650000Y-60325000D03*
X247650000Y-62865000D03*
X247650000Y-67945000D03*
X247650000Y-70485000D03*
X247650000Y-73025000D03*
D11*
X260350000Y-53340000D03*
D12*
X260350000Y-50800000D03*
D11*
X260350000Y-40005000D03*
D12*
X260350000Y-42545000D03*
D11*
X257175000Y-45720000D03*
D12*
X257175000Y-48260000D03*
D14*
X247015000Y-33020000D03*
D15*
X249555000Y-33020000D03*
X252095000Y-33020000D03*
X254635000Y-33020000D03*
D14*
X257175000Y-33020000D03*
D15*
X259715000Y-33020000D03*
X262255000Y-33020000D03*
X264795000Y-33020000D03*
D13*
X250095000Y-56515000D03*
X254095000Y-56515000D03*
X261080000Y-56515000D03*
X257080000Y-56515000D03*
X250095000Y-59055000D03*
X254095000Y-59055000D03*
X261080000Y-59055000D03*
X257080000Y-59055000D03*
X250095000Y-61595000D03*
X254095000Y-61595000D03*
X261080000Y-61595000D03*
X257080000Y-61595000D03*
D11*
X257175000Y-39370000D03*
D12*
X257175000Y-36830000D03*
D11*
X207645000Y-39370000D03*
D12*
X207645000Y-36830000D03*
D13*
X211550000Y-61595000D03*
X207550000Y-61595000D03*
X200565000Y-61595000D03*
X204565000Y-61595000D03*
X211550000Y-59055000D03*
X207550000Y-59055000D03*
X200565000Y-59055000D03*
X204565000Y-59055000D03*
X211550000Y-56515000D03*
X207550000Y-56515000D03*
X200565000Y-56515000D03*
X204565000Y-56515000D03*
D14*
X207645000Y-33020000D03*
D15*
X210185000Y-33020000D03*
X212725000Y-33020000D03*
X215265000Y-33020000D03*
D14*
X197485000Y-33020000D03*
D15*
X200025000Y-33020000D03*
X202565000Y-33020000D03*
X205105000Y-33020000D03*
D11*
X207645000Y-45720000D03*
D12*
X207645000Y-48260000D03*
D11*
X210820000Y-40005000D03*
D12*
X210820000Y-42545000D03*
D11*
X210820000Y-53340000D03*
D12*
X210820000Y-50800000D03*
D16*
X198120000Y-37465000D03*
D17*
X198120000Y-40005000D03*
X198120000Y-42545000D03*
X198120000Y-45085000D03*
X198120000Y-47625000D03*
X198120000Y-52705000D03*
X198120000Y-55245000D03*
X198120000Y-57785000D03*
X198120000Y-60325000D03*
X198120000Y-62865000D03*
X198120000Y-67945000D03*
X198120000Y-70485000D03*
X198120000Y-73025000D03*
D16*
X213995000Y-37465000D03*
D17*
X213995000Y-40005000D03*
X213995000Y-42545000D03*
X213995000Y-45085000D03*
X213995000Y-47625000D03*
X213995000Y-52705000D03*
X213995000Y-55245000D03*
X213995000Y-57785000D03*
X213995000Y-60325000D03*
X213995000Y-62865000D03*
X213995000Y-67945000D03*
X213995000Y-70485000D03*
X213995000Y-73025000D03*
D14*
X207645000Y-71120000D03*
D15*
X205105000Y-71120000D03*
X202565000Y-71120000D03*
D14*
X182880000Y-71120000D03*
D15*
X180340000Y-71120000D03*
X177800000Y-71120000D03*
D16*
X189230000Y-37465000D03*
D17*
X189230000Y-40005000D03*
X189230000Y-42545000D03*
X189230000Y-45085000D03*
X189230000Y-47625000D03*
X189230000Y-52705000D03*
X189230000Y-55245000D03*
X189230000Y-57785000D03*
X189230000Y-60325000D03*
X189230000Y-62865000D03*
X189230000Y-67945000D03*
X189230000Y-70485000D03*
X189230000Y-73025000D03*
D16*
X173355000Y-37465000D03*
D17*
X173355000Y-40005000D03*
X173355000Y-42545000D03*
X173355000Y-45085000D03*
X173355000Y-47625000D03*
X173355000Y-52705000D03*
X173355000Y-55245000D03*
X173355000Y-57785000D03*
X173355000Y-60325000D03*
X173355000Y-62865000D03*
X173355000Y-67945000D03*
X173355000Y-70485000D03*
X173355000Y-73025000D03*
D11*
X186055000Y-53340000D03*
D12*
X186055000Y-50800000D03*
D11*
X186055000Y-40005000D03*
D12*
X186055000Y-42545000D03*
D11*
X182880000Y-45720000D03*
D12*
X182880000Y-48260000D03*
D14*
X172720000Y-33020000D03*
D15*
X175260000Y-33020000D03*
X177800000Y-33020000D03*
X180340000Y-33020000D03*
D14*
X182880000Y-33020000D03*
D15*
X185420000Y-33020000D03*
X187960000Y-33020000D03*
X190500000Y-33020000D03*
D13*
X175800000Y-56515000D03*
X179800000Y-56515000D03*
X186785000Y-56515000D03*
X182785000Y-56515000D03*
X175800000Y-59055000D03*
X179800000Y-59055000D03*
X186785000Y-59055000D03*
X182785000Y-59055000D03*
X175800000Y-61595000D03*
X179800000Y-61595000D03*
X186785000Y-61595000D03*
X182785000Y-61595000D03*
D11*
X182880000Y-39370000D03*
D12*
X182880000Y-36830000D03*
D18*
X191770000Y-107950000D03*
X191770000Y-88265000D03*
X216535000Y-88265000D03*
X216535000Y-107950000D03*
X266065000Y-107950000D03*
X266065000Y-88265000D03*
X241300000Y-88265000D03*
X241300000Y-107950000D03*
X241300000Y-62230000D03*
X241300000Y-42545000D03*
X266065000Y-42545000D03*
X266065000Y-62230000D03*
X216535000Y-62230000D03*
X216535000Y-42545000D03*
X191770000Y-42545000D03*
X191770000Y-62230000D03*
X175895000Y-83185000D03*
X182880000Y-88265000D03*
X207645000Y-88265000D03*
X200660000Y-83185000D03*
X250190000Y-83185000D03*
X257175000Y-88265000D03*
X232410000Y-88265000D03*
X225425000Y-83185000D03*
X225425000Y-37465000D03*
X232410000Y-42545000D03*
X257175000Y-42545000D03*
X250190000Y-37465000D03*
X200660000Y-37465000D03*
X207645000Y-42545000D03*
X182880000Y-42545000D03*
X175895000Y-37465000D03*
X177800000Y-86360000D03*
X177800000Y-90805000D03*
X202565000Y-90805000D03*
X202565000Y-86360000D03*
X252095000Y-86360000D03*
X252095000Y-90805000D03*
X227330000Y-90805000D03*
X227330000Y-86360000D03*
X227330000Y-40640000D03*
X227330000Y-45085000D03*
X252095000Y-45085000D03*
X252095000Y-40640000D03*
X202565000Y-40640000D03*
X202565000Y-45085000D03*
X177800000Y-45085000D03*
X177800000Y-40640000D03*
X184785000Y-111760000D03*
X184785000Y-119380000D03*
X209550000Y-119380000D03*
X209550000Y-111760000D03*
X259080000Y-111760000D03*
X259080000Y-119380000D03*
X234315000Y-119380000D03*
X234315000Y-111760000D03*
X234315000Y-66040000D03*
X234315000Y-73660000D03*
X259080000Y-73660000D03*
X259080000Y-66040000D03*
X209550000Y-66040000D03*
X209550000Y-73660000D03*
X184785000Y-73660000D03*
X184785000Y-66040000D03*
X186690000Y-109855000D03*
X186690000Y-116205000D03*
X211455000Y-116205000D03*
X211455000Y-109855000D03*
X260985000Y-109855000D03*
X260985000Y-116205000D03*
X236220000Y-116205000D03*
X236220000Y-109855000D03*
X236220000Y-64135000D03*
X236220000Y-70485000D03*
X260985000Y-70485000D03*
X260985000Y-64135000D03*
X211455000Y-64135000D03*
X211455000Y-70485000D03*
X186690000Y-70485000D03*
X186690000Y-64135000D03*
D19*
X184785000Y-99060000D02*
X183515000Y-97790000D01*
X183515000Y-97790000D02*
X183515000Y-95885000D01*
X183515000Y-95885000D02*
X184785000Y-94615000D01*
X184785000Y-94615000D02*
X184785000Y-92075000D01*
X184785000Y-92075000D02*
X184150000Y-91440000D01*
X184150000Y-91440000D02*
X182880000Y-91440000D01*
X186055000Y-99060000D02*
X184785000Y-99060000D01*
X172720000Y-88265000D02*
X173355000Y-88265000D01*
X171450000Y-89535000D02*
X172720000Y-88265000D01*
X171450000Y-107315000D02*
X171450000Y-89535000D01*
X172720000Y-108585000D02*
X171450000Y-107315000D01*
X173355000Y-108585000D02*
X172720000Y-108585000D01*
X180340000Y-78740000D02*
X180340000Y-88265000D01*
X173355000Y-88265000D02*
X180340000Y-88265000D01*
X182245000Y-90805000D02*
X182880000Y-91440000D01*
X182245000Y-90170000D02*
X182245000Y-90805000D01*
X180340000Y-88265000D02*
X182245000Y-90170000D01*
X205105000Y-88265000D02*
X207010000Y-90170000D01*
X207010000Y-90170000D02*
X207010000Y-90805000D01*
X207010000Y-90805000D02*
X207645000Y-91440000D01*
X198120000Y-88265000D02*
X205105000Y-88265000D01*
X205105000Y-78740000D02*
X205105000Y-88265000D01*
X198120000Y-108585000D02*
X197485000Y-108585000D01*
X197485000Y-108585000D02*
X196215000Y-107315000D01*
X196215000Y-107315000D02*
X196215000Y-89535000D01*
X196215000Y-89535000D02*
X197485000Y-88265000D01*
X197485000Y-88265000D02*
X198120000Y-88265000D01*
X210820000Y-99060000D02*
X209550000Y-99060000D01*
X208915000Y-91440000D02*
X207645000Y-91440000D01*
X209550000Y-92075000D02*
X208915000Y-91440000D01*
X209550000Y-94615000D02*
X209550000Y-92075000D01*
X208280000Y-95885000D02*
X209550000Y-94615000D01*
X208280000Y-97790000D02*
X208280000Y-95885000D01*
X209550000Y-99060000D02*
X208280000Y-97790000D01*
X259080000Y-99060000D02*
X257810000Y-97790000D01*
X257810000Y-97790000D02*
X257810000Y-95885000D01*
X257810000Y-95885000D02*
X259080000Y-94615000D01*
X259080000Y-94615000D02*
X259080000Y-92075000D01*
X259080000Y-92075000D02*
X258445000Y-91440000D01*
X258445000Y-91440000D02*
X257175000Y-91440000D01*
X260350000Y-99060000D02*
X259080000Y-99060000D01*
X247015000Y-88265000D02*
X247650000Y-88265000D01*
X245745000Y-89535000D02*
X247015000Y-88265000D01*
X245745000Y-107315000D02*
X245745000Y-89535000D01*
X247015000Y-108585000D02*
X245745000Y-107315000D01*
X247650000Y-108585000D02*
X247015000Y-108585000D01*
X254635000Y-78740000D02*
X254635000Y-88265000D01*
X247650000Y-88265000D02*
X254635000Y-88265000D01*
X256540000Y-90805000D02*
X257175000Y-91440000D01*
X256540000Y-90170000D02*
X256540000Y-90805000D01*
X254635000Y-88265000D02*
X256540000Y-90170000D01*
X229870000Y-88265000D02*
X231775000Y-90170000D01*
X231775000Y-90170000D02*
X231775000Y-90805000D01*
X231775000Y-90805000D02*
X232410000Y-91440000D01*
X222885000Y-88265000D02*
X229870000Y-88265000D01*
X229870000Y-78740000D02*
X229870000Y-88265000D01*
X222885000Y-108585000D02*
X222250000Y-108585000D01*
X222250000Y-108585000D02*
X220980000Y-107315000D01*
X220980000Y-107315000D02*
X220980000Y-89535000D01*
X220980000Y-89535000D02*
X222250000Y-88265000D01*
X222250000Y-88265000D02*
X222885000Y-88265000D01*
X235585000Y-99060000D02*
X234315000Y-99060000D01*
X233680000Y-91440000D02*
X232410000Y-91440000D01*
X234315000Y-92075000D02*
X233680000Y-91440000D01*
X234315000Y-94615000D02*
X234315000Y-92075000D01*
X233045000Y-95885000D02*
X234315000Y-94615000D01*
X233045000Y-97790000D02*
X233045000Y-95885000D01*
X234315000Y-99060000D02*
X233045000Y-97790000D01*
X234315000Y-53340000D02*
X233045000Y-52070000D01*
X233045000Y-52070000D02*
X233045000Y-50165000D01*
X233045000Y-50165000D02*
X234315000Y-48895000D01*
X234315000Y-48895000D02*
X234315000Y-46355000D01*
X234315000Y-46355000D02*
X233680000Y-45720000D01*
X233680000Y-45720000D02*
X232410000Y-45720000D01*
X235585000Y-53340000D02*
X234315000Y-53340000D01*
X222250000Y-42545000D02*
X222885000Y-42545000D01*
X220980000Y-43815000D02*
X222250000Y-42545000D01*
X220980000Y-61595000D02*
X220980000Y-43815000D01*
X222250000Y-62865000D02*
X220980000Y-61595000D01*
X222885000Y-62865000D02*
X222250000Y-62865000D01*
X229870000Y-33020000D02*
X229870000Y-42545000D01*
X222885000Y-42545000D02*
X229870000Y-42545000D01*
X231775000Y-45085000D02*
X232410000Y-45720000D01*
X231775000Y-44450000D02*
X231775000Y-45085000D01*
X229870000Y-42545000D02*
X231775000Y-44450000D01*
X254635000Y-42545000D02*
X256540000Y-44450000D01*
X256540000Y-44450000D02*
X256540000Y-45085000D01*
X256540000Y-45085000D02*
X257175000Y-45720000D01*
X247650000Y-42545000D02*
X254635000Y-42545000D01*
X254635000Y-33020000D02*
X254635000Y-42545000D01*
X247650000Y-62865000D02*
X247015000Y-62865000D01*
X247015000Y-62865000D02*
X245745000Y-61595000D01*
X245745000Y-61595000D02*
X245745000Y-43815000D01*
X245745000Y-43815000D02*
X247015000Y-42545000D01*
X247015000Y-42545000D02*
X247650000Y-42545000D01*
X260350000Y-53340000D02*
X259080000Y-53340000D01*
X258445000Y-45720000D02*
X257175000Y-45720000D01*
X259080000Y-46355000D02*
X258445000Y-45720000D01*
X259080000Y-48895000D02*
X259080000Y-46355000D01*
X257810000Y-50165000D02*
X259080000Y-48895000D01*
X257810000Y-52070000D02*
X257810000Y-50165000D01*
X259080000Y-53340000D02*
X257810000Y-52070000D01*
X209550000Y-53340000D02*
X208280000Y-52070000D01*
X208280000Y-52070000D02*
X208280000Y-50165000D01*
X208280000Y-50165000D02*
X209550000Y-48895000D01*
X209550000Y-48895000D02*
X209550000Y-46355000D01*
X209550000Y-46355000D02*
X208915000Y-45720000D01*
X208915000Y-45720000D02*
X207645000Y-45720000D01*
X210820000Y-53340000D02*
X209550000Y-53340000D01*
X197485000Y-42545000D02*
X198120000Y-42545000D01*
X196215000Y-43815000D02*
X197485000Y-42545000D01*
X196215000Y-61595000D02*
X196215000Y-43815000D01*
X197485000Y-62865000D02*
X196215000Y-61595000D01*
X198120000Y-62865000D02*
X197485000Y-62865000D01*
X205105000Y-33020000D02*
X205105000Y-42545000D01*
X198120000Y-42545000D02*
X205105000Y-42545000D01*
X207010000Y-45085000D02*
X207645000Y-45720000D01*
X207010000Y-44450000D02*
X207010000Y-45085000D01*
X205105000Y-42545000D02*
X207010000Y-44450000D01*
X180340000Y-42545000D02*
X182245000Y-44450000D01*
X182245000Y-44450000D02*
X182245000Y-45085000D01*
X182245000Y-45085000D02*
X182880000Y-45720000D01*
X173355000Y-42545000D02*
X180340000Y-42545000D01*
X180340000Y-33020000D02*
X180340000Y-42545000D01*
X173355000Y-62865000D02*
X172720000Y-62865000D01*
X172720000Y-62865000D02*
X171450000Y-61595000D01*
X171450000Y-61595000D02*
X171450000Y-43815000D01*
X171450000Y-43815000D02*
X172720000Y-42545000D01*
X172720000Y-42545000D02*
X173355000Y-42545000D01*
X186055000Y-53340000D02*
X184785000Y-53340000D01*
X184150000Y-45720000D02*
X182880000Y-45720000D01*
X184785000Y-46355000D02*
X184150000Y-45720000D01*
X184785000Y-48895000D02*
X184785000Y-46355000D01*
X183515000Y-50165000D02*
X184785000Y-48895000D01*
X183515000Y-52070000D02*
X183515000Y-50165000D01*
X184785000Y-53340000D02*
X183515000Y-52070000D01*
X187960000Y-90805000D02*
X186055000Y-92710000D01*
X186055000Y-92710000D02*
X186055000Y-96520000D01*
X189230000Y-90805000D02*
X187960000Y-90805000D01*
X187960000Y-77470000D02*
X188595000Y-76835000D01*
X188595000Y-76835000D02*
X191770000Y-76835000D01*
X191770000Y-76835000D02*
X193675000Y-78740000D01*
X193675000Y-78740000D02*
X193675000Y-88900000D01*
X193675000Y-88900000D02*
X191770000Y-90805000D01*
X191770000Y-90805000D02*
X189230000Y-90805000D01*
X187960000Y-78740000D02*
X187960000Y-77470000D01*
X212725000Y-78740000D02*
X212725000Y-77470000D01*
X216535000Y-90805000D02*
X213995000Y-90805000D01*
X218440000Y-88900000D02*
X216535000Y-90805000D01*
X218440000Y-78740000D02*
X218440000Y-88900000D01*
X216535000Y-76835000D02*
X218440000Y-78740000D01*
X213360000Y-76835000D02*
X216535000Y-76835000D01*
X212725000Y-77470000D02*
X213360000Y-76835000D01*
X213995000Y-90805000D02*
X212725000Y-90805000D01*
X210820000Y-92710000D02*
X210820000Y-96520000D01*
X212725000Y-90805000D02*
X210820000Y-92710000D01*
X262255000Y-90805000D02*
X260350000Y-92710000D01*
X260350000Y-92710000D02*
X260350000Y-96520000D01*
X263525000Y-90805000D02*
X262255000Y-90805000D01*
X262255000Y-77470000D02*
X262890000Y-76835000D01*
X262890000Y-76835000D02*
X266065000Y-76835000D01*
X266065000Y-76835000D02*
X267970000Y-78740000D01*
X267970000Y-78740000D02*
X267970000Y-88900000D01*
X267970000Y-88900000D02*
X266065000Y-90805000D01*
X266065000Y-90805000D02*
X263525000Y-90805000D01*
X262255000Y-78740000D02*
X262255000Y-77470000D01*
X237490000Y-78740000D02*
X237490000Y-77470000D01*
X241300000Y-90805000D02*
X238760000Y-90805000D01*
X243205000Y-88900000D02*
X241300000Y-90805000D01*
X243205000Y-78740000D02*
X243205000Y-88900000D01*
X241300000Y-76835000D02*
X243205000Y-78740000D01*
X238125000Y-76835000D02*
X241300000Y-76835000D01*
X237490000Y-77470000D02*
X238125000Y-76835000D01*
X238760000Y-90805000D02*
X237490000Y-90805000D01*
X235585000Y-92710000D02*
X235585000Y-96520000D01*
X237490000Y-90805000D02*
X235585000Y-92710000D01*
X237490000Y-45085000D02*
X235585000Y-46990000D01*
X235585000Y-46990000D02*
X235585000Y-50800000D01*
X238760000Y-45085000D02*
X237490000Y-45085000D01*
X237490000Y-31750000D02*
X238125000Y-31115000D01*
X238125000Y-31115000D02*
X241300000Y-31115000D01*
X241300000Y-31115000D02*
X243205000Y-33020000D01*
X243205000Y-33020000D02*
X243205000Y-43180000D01*
X243205000Y-43180000D02*
X241300000Y-45085000D01*
X241300000Y-45085000D02*
X238760000Y-45085000D01*
X237490000Y-33020000D02*
X237490000Y-31750000D01*
X262255000Y-33020000D02*
X262255000Y-31750000D01*
X266065000Y-45085000D02*
X263525000Y-45085000D01*
X267970000Y-43180000D02*
X266065000Y-45085000D01*
X267970000Y-33020000D02*
X267970000Y-43180000D01*
X266065000Y-31115000D02*
X267970000Y-33020000D01*
X262890000Y-31115000D02*
X266065000Y-31115000D01*
X262255000Y-31750000D02*
X262890000Y-31115000D01*
X263525000Y-45085000D02*
X262255000Y-45085000D01*
X260350000Y-46990000D02*
X260350000Y-50800000D01*
X262255000Y-45085000D02*
X260350000Y-46990000D01*
X212725000Y-45085000D02*
X210820000Y-46990000D01*
X210820000Y-46990000D02*
X210820000Y-50800000D01*
X213995000Y-45085000D02*
X212725000Y-45085000D01*
X212725000Y-31750000D02*
X213360000Y-31115000D01*
X213360000Y-31115000D02*
X216535000Y-31115000D01*
X216535000Y-31115000D02*
X218440000Y-33020000D01*
X218440000Y-33020000D02*
X218440000Y-43180000D01*
X218440000Y-43180000D02*
X216535000Y-45085000D01*
X216535000Y-45085000D02*
X213995000Y-45085000D01*
X212725000Y-33020000D02*
X212725000Y-31750000D01*
X187960000Y-33020000D02*
X187960000Y-31750000D01*
X191770000Y-45085000D02*
X189230000Y-45085000D01*
X193675000Y-43180000D02*
X191770000Y-45085000D01*
X193675000Y-33020000D02*
X193675000Y-43180000D01*
X191770000Y-31115000D02*
X193675000Y-33020000D01*
X188595000Y-31115000D02*
X191770000Y-31115000D01*
X187960000Y-31750000D02*
X188595000Y-31115000D01*
X189230000Y-45085000D02*
X187960000Y-45085000D01*
X186055000Y-46990000D02*
X186055000Y-50800000D01*
X187960000Y-45085000D02*
X186055000Y-46990000D01*
X189230000Y-85725000D02*
X186055000Y-85725000D01*
X190500000Y-85725000D02*
X191135000Y-85090000D01*
X191135000Y-85090000D02*
X191135000Y-81915000D01*
X191135000Y-81915000D02*
X190500000Y-81280000D01*
X190500000Y-81280000D02*
X186690000Y-81280000D01*
X186690000Y-81280000D02*
X185420000Y-80010000D01*
X185420000Y-80010000D02*
X185420000Y-78740000D01*
X189230000Y-85725000D02*
X190500000Y-85725000D01*
X213995000Y-85725000D02*
X215265000Y-85725000D01*
X210185000Y-80010000D02*
X210185000Y-78740000D01*
X211455000Y-81280000D02*
X210185000Y-80010000D01*
X215265000Y-81280000D02*
X211455000Y-81280000D01*
X215900000Y-81915000D02*
X215265000Y-81280000D01*
X215900000Y-85090000D02*
X215900000Y-81915000D01*
X215265000Y-85725000D02*
X215900000Y-85090000D01*
X213995000Y-85725000D02*
X210820000Y-85725000D01*
X263525000Y-85725000D02*
X260350000Y-85725000D01*
X264795000Y-85725000D02*
X265430000Y-85090000D01*
X265430000Y-85090000D02*
X265430000Y-81915000D01*
X265430000Y-81915000D02*
X264795000Y-81280000D01*
X264795000Y-81280000D02*
X260985000Y-81280000D01*
X260985000Y-81280000D02*
X259715000Y-80010000D01*
X259715000Y-80010000D02*
X259715000Y-78740000D01*
X263525000Y-85725000D02*
X264795000Y-85725000D01*
X238760000Y-85725000D02*
X240030000Y-85725000D01*
X234950000Y-80010000D02*
X234950000Y-78740000D01*
X236220000Y-81280000D02*
X234950000Y-80010000D01*
X240030000Y-81280000D02*
X236220000Y-81280000D01*
X240665000Y-81915000D02*
X240030000Y-81280000D01*
X240665000Y-85090000D02*
X240665000Y-81915000D01*
X240030000Y-85725000D02*
X240665000Y-85090000D01*
X238760000Y-85725000D02*
X235585000Y-85725000D01*
X238760000Y-40005000D02*
X235585000Y-40005000D01*
X240030000Y-40005000D02*
X240665000Y-39370000D01*
X240665000Y-39370000D02*
X240665000Y-36195000D01*
X240665000Y-36195000D02*
X240030000Y-35560000D01*
X240030000Y-35560000D02*
X236220000Y-35560000D01*
X236220000Y-35560000D02*
X234950000Y-34290000D01*
X234950000Y-34290000D02*
X234950000Y-33020000D01*
X238760000Y-40005000D02*
X240030000Y-40005000D01*
X263525000Y-40005000D02*
X264795000Y-40005000D01*
X259715000Y-34290000D02*
X259715000Y-33020000D01*
X260985000Y-35560000D02*
X259715000Y-34290000D01*
X264795000Y-35560000D02*
X260985000Y-35560000D01*
X265430000Y-36195000D02*
X264795000Y-35560000D01*
X265430000Y-39370000D02*
X265430000Y-36195000D01*
X264795000Y-40005000D02*
X265430000Y-39370000D01*
X263525000Y-40005000D02*
X260350000Y-40005000D01*
X213995000Y-40005000D02*
X210820000Y-40005000D01*
X215265000Y-40005000D02*
X215900000Y-39370000D01*
X215900000Y-39370000D02*
X215900000Y-36195000D01*
X215900000Y-36195000D02*
X215265000Y-35560000D01*
X215265000Y-35560000D02*
X211455000Y-35560000D01*
X211455000Y-35560000D02*
X210185000Y-34290000D01*
X210185000Y-34290000D02*
X210185000Y-33020000D01*
X213995000Y-40005000D02*
X215265000Y-40005000D01*
X189230000Y-40005000D02*
X190500000Y-40005000D01*
X185420000Y-34290000D02*
X185420000Y-33020000D01*
X186690000Y-35560000D02*
X185420000Y-34290000D01*
X190500000Y-35560000D02*
X186690000Y-35560000D01*
X191135000Y-36195000D02*
X190500000Y-35560000D01*
X191135000Y-39370000D02*
X191135000Y-36195000D01*
X190500000Y-40005000D02*
X191135000Y-39370000D01*
X189230000Y-40005000D02*
X186055000Y-40005000D01*
X189230000Y-88265000D02*
X186055000Y-88265000D01*
X191770000Y-78740000D02*
X190500000Y-78740000D01*
X192405000Y-79375000D02*
X191770000Y-78740000D01*
X192405000Y-87630000D02*
X192405000Y-79375000D01*
X191770000Y-88265000D02*
X192405000Y-87630000D01*
X191770000Y-88265000D02*
X191770000Y-88265000D01*
X189230000Y-88265000D02*
X191770000Y-88265000D01*
X189865000Y-88265000D02*
X189230000Y-88265000D01*
X189230000Y-108585000D02*
X189865000Y-108585000D01*
X191770000Y-107950000D02*
X191135000Y-108585000D01*
X189230000Y-108585000D02*
X191135000Y-108585000D01*
X213995000Y-108585000D02*
X215900000Y-108585000D01*
X216535000Y-107950000D02*
X215900000Y-108585000D01*
X213995000Y-108585000D02*
X214630000Y-108585000D01*
X214630000Y-88265000D02*
X213995000Y-88265000D01*
X213995000Y-88265000D02*
X216535000Y-88265000D01*
X216535000Y-88265000D02*
X216535000Y-88265000D01*
X216535000Y-88265000D02*
X217170000Y-87630000D01*
X217170000Y-87630000D02*
X217170000Y-79375000D01*
X217170000Y-79375000D02*
X216535000Y-78740000D01*
X216535000Y-78740000D02*
X215265000Y-78740000D01*
X213995000Y-88265000D02*
X210820000Y-88265000D01*
X263525000Y-88265000D02*
X260350000Y-88265000D01*
X266065000Y-78740000D02*
X264795000Y-78740000D01*
X266700000Y-79375000D02*
X266065000Y-78740000D01*
X266700000Y-87630000D02*
X266700000Y-79375000D01*
X266065000Y-88265000D02*
X266700000Y-87630000D01*
X266065000Y-88265000D02*
X266065000Y-88265000D01*
X263525000Y-88265000D02*
X266065000Y-88265000D01*
X264160000Y-88265000D02*
X263525000Y-88265000D01*
X263525000Y-108585000D02*
X264160000Y-108585000D01*
X266065000Y-107950000D02*
X265430000Y-108585000D01*
X263525000Y-108585000D02*
X265430000Y-108585000D01*
X238760000Y-108585000D02*
X240665000Y-108585000D01*
X241300000Y-107950000D02*
X240665000Y-108585000D01*
X238760000Y-108585000D02*
X239395000Y-108585000D01*
X239395000Y-88265000D02*
X238760000Y-88265000D01*
X238760000Y-88265000D02*
X241300000Y-88265000D01*
X241300000Y-88265000D02*
X241300000Y-88265000D01*
X241300000Y-88265000D02*
X241935000Y-87630000D01*
X241935000Y-87630000D02*
X241935000Y-79375000D01*
X241935000Y-79375000D02*
X241300000Y-78740000D01*
X241300000Y-78740000D02*
X240030000Y-78740000D01*
X238760000Y-88265000D02*
X235585000Y-88265000D01*
X238760000Y-42545000D02*
X235585000Y-42545000D01*
X241300000Y-33020000D02*
X240030000Y-33020000D01*
X241935000Y-33655000D02*
X241300000Y-33020000D01*
X241935000Y-41910000D02*
X241935000Y-33655000D01*
X241300000Y-42545000D02*
X241935000Y-41910000D01*
X241300000Y-42545000D02*
X241300000Y-42545000D01*
X238760000Y-42545000D02*
X241300000Y-42545000D01*
X239395000Y-42545000D02*
X238760000Y-42545000D01*
X238760000Y-62865000D02*
X239395000Y-62865000D01*
X241300000Y-62230000D02*
X240665000Y-62865000D01*
X238760000Y-62865000D02*
X240665000Y-62865000D01*
X263525000Y-62865000D02*
X265430000Y-62865000D01*
X266065000Y-62230000D02*
X265430000Y-62865000D01*
X263525000Y-62865000D02*
X264160000Y-62865000D01*
X264160000Y-42545000D02*
X263525000Y-42545000D01*
X263525000Y-42545000D02*
X266065000Y-42545000D01*
X266065000Y-42545000D02*
X266065000Y-42545000D01*
X266065000Y-42545000D02*
X266700000Y-41910000D01*
X266700000Y-41910000D02*
X266700000Y-33655000D01*
X266700000Y-33655000D02*
X266065000Y-33020000D01*
X266065000Y-33020000D02*
X264795000Y-33020000D01*
X263525000Y-42545000D02*
X260350000Y-42545000D01*
X213995000Y-42545000D02*
X210820000Y-42545000D01*
X216535000Y-33020000D02*
X215265000Y-33020000D01*
X217170000Y-33655000D02*
X216535000Y-33020000D01*
X217170000Y-41910000D02*
X217170000Y-33655000D01*
X216535000Y-42545000D02*
X217170000Y-41910000D01*
X216535000Y-42545000D02*
X216535000Y-42545000D01*
X213995000Y-42545000D02*
X216535000Y-42545000D01*
X214630000Y-42545000D02*
X213995000Y-42545000D01*
X213995000Y-62865000D02*
X214630000Y-62865000D01*
X216535000Y-62230000D02*
X215900000Y-62865000D01*
X213995000Y-62865000D02*
X215900000Y-62865000D01*
X189230000Y-62865000D02*
X191135000Y-62865000D01*
X191770000Y-62230000D02*
X191135000Y-62865000D01*
X189230000Y-62865000D02*
X189865000Y-62865000D01*
X189865000Y-42545000D02*
X189230000Y-42545000D01*
X189230000Y-42545000D02*
X191770000Y-42545000D01*
X191770000Y-42545000D02*
X191770000Y-42545000D01*
X191770000Y-42545000D02*
X192405000Y-41910000D01*
X192405000Y-41910000D02*
X192405000Y-33655000D01*
X192405000Y-33655000D02*
X191770000Y-33020000D01*
X191770000Y-33020000D02*
X190500000Y-33020000D01*
X189230000Y-42545000D02*
X186055000Y-42545000D01*
X172720000Y-78740000D02*
X172720000Y-79375000D01*
X172720000Y-82550000D02*
X173355000Y-83185000D01*
X172720000Y-78740000D02*
X172720000Y-82550000D01*
X173355000Y-83185000D02*
X175895000Y-83185000D01*
X182880000Y-88265000D02*
X182880000Y-85090000D01*
X207645000Y-88265000D02*
X207645000Y-85090000D01*
X198120000Y-83185000D02*
X200660000Y-83185000D01*
X197485000Y-78740000D02*
X197485000Y-82550000D01*
X197485000Y-82550000D02*
X198120000Y-83185000D01*
X197485000Y-78740000D02*
X197485000Y-79375000D01*
X247015000Y-78740000D02*
X247015000Y-79375000D01*
X247015000Y-82550000D02*
X247650000Y-83185000D01*
X247015000Y-78740000D02*
X247015000Y-82550000D01*
X247650000Y-83185000D02*
X250190000Y-83185000D01*
X257175000Y-88265000D02*
X257175000Y-85090000D01*
X232410000Y-88265000D02*
X232410000Y-85090000D01*
X222885000Y-83185000D02*
X225425000Y-83185000D01*
X222250000Y-78740000D02*
X222250000Y-82550000D01*
X222250000Y-82550000D02*
X222885000Y-83185000D01*
X222250000Y-78740000D02*
X222250000Y-79375000D01*
X222250000Y-33020000D02*
X222250000Y-33655000D01*
X222250000Y-36830000D02*
X222885000Y-37465000D01*
X222250000Y-33020000D02*
X222250000Y-36830000D01*
X222885000Y-37465000D02*
X225425000Y-37465000D01*
X232410000Y-42545000D02*
X232410000Y-39370000D01*
X257175000Y-42545000D02*
X257175000Y-39370000D01*
X247650000Y-37465000D02*
X250190000Y-37465000D01*
X247015000Y-33020000D02*
X247015000Y-36830000D01*
X247015000Y-36830000D02*
X247650000Y-37465000D01*
X247015000Y-33020000D02*
X247015000Y-33655000D01*
X197485000Y-33020000D02*
X197485000Y-33655000D01*
X197485000Y-36830000D02*
X198120000Y-37465000D01*
X197485000Y-33020000D02*
X197485000Y-36830000D01*
X198120000Y-37465000D02*
X200660000Y-37465000D01*
X207645000Y-42545000D02*
X207645000Y-39370000D01*
X182880000Y-42545000D02*
X182880000Y-39370000D01*
X173355000Y-37465000D02*
X175895000Y-37465000D01*
X172720000Y-33020000D02*
X172720000Y-36830000D01*
X172720000Y-36830000D02*
X173355000Y-37465000D01*
X172720000Y-33020000D02*
X172720000Y-33655000D01*
X175260000Y-78740000D02*
X175260000Y-79375000D01*
X175895000Y-85725000D02*
X173355000Y-85725000D01*
X177800000Y-83820000D02*
X175895000Y-85725000D01*
X177800000Y-82550000D02*
X177800000Y-83820000D01*
X175260000Y-80010000D02*
X177800000Y-82550000D01*
X175260000Y-78740000D02*
X175260000Y-80010000D01*
X200025000Y-78740000D02*
X200025000Y-80010000D01*
X200025000Y-80010000D02*
X202565000Y-82550000D01*
X202565000Y-82550000D02*
X202565000Y-83820000D01*
X202565000Y-83820000D02*
X200660000Y-85725000D01*
X200660000Y-85725000D02*
X198120000Y-85725000D01*
X200025000Y-78740000D02*
X200025000Y-79375000D01*
X249555000Y-78740000D02*
X249555000Y-79375000D01*
X250190000Y-85725000D02*
X247650000Y-85725000D01*
X252095000Y-83820000D02*
X250190000Y-85725000D01*
X252095000Y-82550000D02*
X252095000Y-83820000D01*
X249555000Y-80010000D02*
X252095000Y-82550000D01*
X249555000Y-78740000D02*
X249555000Y-80010000D01*
X224790000Y-78740000D02*
X224790000Y-80010000D01*
X224790000Y-80010000D02*
X227330000Y-82550000D01*
X227330000Y-82550000D02*
X227330000Y-83820000D01*
X227330000Y-83820000D02*
X225425000Y-85725000D01*
X225425000Y-85725000D02*
X222885000Y-85725000D01*
X224790000Y-78740000D02*
X224790000Y-79375000D01*
X224790000Y-33020000D02*
X224790000Y-33655000D01*
X225425000Y-40005000D02*
X222885000Y-40005000D01*
X227330000Y-38100000D02*
X225425000Y-40005000D01*
X227330000Y-36830000D02*
X227330000Y-38100000D01*
X224790000Y-34290000D02*
X227330000Y-36830000D01*
X224790000Y-33020000D02*
X224790000Y-34290000D01*
X249555000Y-33020000D02*
X249555000Y-34290000D01*
X249555000Y-34290000D02*
X252095000Y-36830000D01*
X252095000Y-36830000D02*
X252095000Y-38100000D01*
X252095000Y-38100000D02*
X250190000Y-40005000D01*
X250190000Y-40005000D02*
X247650000Y-40005000D01*
X249555000Y-33020000D02*
X249555000Y-33655000D01*
X200025000Y-33020000D02*
X200025000Y-33655000D01*
X200660000Y-40005000D02*
X198120000Y-40005000D01*
X202565000Y-38100000D02*
X200660000Y-40005000D01*
X202565000Y-36830000D02*
X202565000Y-38100000D01*
X200025000Y-34290000D02*
X202565000Y-36830000D01*
X200025000Y-33020000D02*
X200025000Y-34290000D01*
X175260000Y-33020000D02*
X175260000Y-34290000D01*
X175260000Y-34290000D02*
X177800000Y-36830000D01*
X177800000Y-36830000D02*
X177800000Y-38100000D01*
X177800000Y-38100000D02*
X175895000Y-40005000D01*
X175895000Y-40005000D02*
X173355000Y-40005000D01*
X175260000Y-33020000D02*
X175260000Y-33655000D01*
X180975000Y-93980000D02*
X177800000Y-90805000D01*
X177800000Y-90805000D02*
X173355000Y-90805000D01*
X182880000Y-93980000D02*
X180975000Y-93980000D01*
X177800000Y-80645000D02*
X179070000Y-81915000D01*
X179070000Y-81915000D02*
X179070000Y-85090000D01*
X179070000Y-85090000D02*
X177800000Y-86360000D01*
X177800000Y-78740000D02*
X177800000Y-80645000D01*
X202565000Y-78740000D02*
X202565000Y-80645000D01*
X203835000Y-85090000D02*
X202565000Y-86360000D01*
X203835000Y-81915000D02*
X203835000Y-85090000D01*
X202565000Y-80645000D02*
X203835000Y-81915000D01*
X207645000Y-93980000D02*
X205740000Y-93980000D01*
X202565000Y-90805000D02*
X198120000Y-90805000D01*
X205740000Y-93980000D02*
X202565000Y-90805000D01*
X255270000Y-93980000D02*
X252095000Y-90805000D01*
X252095000Y-90805000D02*
X247650000Y-90805000D01*
X257175000Y-93980000D02*
X255270000Y-93980000D01*
X252095000Y-80645000D02*
X253365000Y-81915000D01*
X253365000Y-81915000D02*
X253365000Y-85090000D01*
X253365000Y-85090000D02*
X252095000Y-86360000D01*
X252095000Y-78740000D02*
X252095000Y-80645000D01*
X227330000Y-78740000D02*
X227330000Y-80645000D01*
X228600000Y-85090000D02*
X227330000Y-86360000D01*
X228600000Y-81915000D02*
X228600000Y-85090000D01*
X227330000Y-80645000D02*
X228600000Y-81915000D01*
X232410000Y-93980000D02*
X230505000Y-93980000D01*
X227330000Y-90805000D02*
X222885000Y-90805000D01*
X230505000Y-93980000D02*
X227330000Y-90805000D01*
X230505000Y-48260000D02*
X227330000Y-45085000D01*
X227330000Y-45085000D02*
X222885000Y-45085000D01*
X232410000Y-48260000D02*
X230505000Y-48260000D01*
X227330000Y-34925000D02*
X228600000Y-36195000D01*
X228600000Y-36195000D02*
X228600000Y-39370000D01*
X228600000Y-39370000D02*
X227330000Y-40640000D01*
X227330000Y-33020000D02*
X227330000Y-34925000D01*
X252095000Y-33020000D02*
X252095000Y-34925000D01*
X253365000Y-39370000D02*
X252095000Y-40640000D01*
X253365000Y-36195000D02*
X253365000Y-39370000D01*
X252095000Y-34925000D02*
X253365000Y-36195000D01*
X257175000Y-48260000D02*
X255270000Y-48260000D01*
X252095000Y-45085000D02*
X247650000Y-45085000D01*
X255270000Y-48260000D02*
X252095000Y-45085000D01*
X205740000Y-48260000D02*
X202565000Y-45085000D01*
X202565000Y-45085000D02*
X198120000Y-45085000D01*
X207645000Y-48260000D02*
X205740000Y-48260000D01*
X202565000Y-34925000D02*
X203835000Y-36195000D01*
X203835000Y-36195000D02*
X203835000Y-39370000D01*
X203835000Y-39370000D02*
X202565000Y-40640000D01*
X202565000Y-33020000D02*
X202565000Y-34925000D01*
X177800000Y-33020000D02*
X177800000Y-34925000D01*
X179070000Y-39370000D02*
X177800000Y-40640000D01*
X179070000Y-36195000D02*
X179070000Y-39370000D01*
X177800000Y-34925000D02*
X179070000Y-36195000D01*
X182880000Y-48260000D02*
X180975000Y-48260000D01*
X177800000Y-45085000D02*
X173355000Y-45085000D01*
X180975000Y-48260000D02*
X177800000Y-45085000D01*
X186055000Y-83185000D02*
X185420000Y-82550000D01*
X185420000Y-82550000D02*
X182880000Y-82550000D01*
X189230000Y-83185000D02*
X186055000Y-83185000D01*
X182880000Y-82550000D02*
X182880000Y-78740000D01*
X207645000Y-82550000D02*
X207645000Y-78740000D01*
X213995000Y-83185000D02*
X210820000Y-83185000D01*
X210185000Y-82550000D02*
X207645000Y-82550000D01*
X210820000Y-83185000D02*
X210185000Y-82550000D01*
X260350000Y-83185000D02*
X259715000Y-82550000D01*
X259715000Y-82550000D02*
X257175000Y-82550000D01*
X263525000Y-83185000D02*
X260350000Y-83185000D01*
X257175000Y-82550000D02*
X257175000Y-78740000D01*
X232410000Y-82550000D02*
X232410000Y-78740000D01*
X238760000Y-83185000D02*
X235585000Y-83185000D01*
X234950000Y-82550000D02*
X232410000Y-82550000D01*
X235585000Y-83185000D02*
X234950000Y-82550000D01*
X235585000Y-37465000D02*
X234950000Y-36830000D01*
X234950000Y-36830000D02*
X232410000Y-36830000D01*
X238760000Y-37465000D02*
X235585000Y-37465000D01*
X232410000Y-36830000D02*
X232410000Y-33020000D01*
X257175000Y-36830000D02*
X257175000Y-33020000D01*
X263525000Y-37465000D02*
X260350000Y-37465000D01*
X259715000Y-36830000D02*
X257175000Y-36830000D01*
X260350000Y-37465000D02*
X259715000Y-36830000D01*
X210820000Y-37465000D02*
X210185000Y-36830000D01*
X210185000Y-36830000D02*
X207645000Y-36830000D01*
X213995000Y-37465000D02*
X210820000Y-37465000D01*
X207645000Y-36830000D02*
X207645000Y-33020000D01*
X182880000Y-36830000D02*
X182880000Y-33020000D01*
X189230000Y-37465000D02*
X186055000Y-37465000D01*
X185420000Y-36830000D02*
X182880000Y-36830000D01*
X186055000Y-37465000D02*
X185420000Y-36830000D01*
X179800000Y-107315000D02*
X182785000Y-107315000D01*
X182880000Y-116840000D02*
X182880000Y-119380000D01*
X182785000Y-109760000D02*
X184785000Y-111760000D01*
X184785000Y-119380000D02*
X182880000Y-119380000D01*
X182785000Y-107315000D02*
X182785000Y-109760000D01*
X182245000Y-120015000D02*
X174625000Y-120015000D01*
X174625000Y-120015000D02*
X173355000Y-118745000D01*
X182880000Y-119380000D02*
X182245000Y-120015000D01*
X188595000Y-119380000D02*
X189230000Y-118745000D01*
X184785000Y-119380000D02*
X188595000Y-119380000D01*
X209550000Y-119380000D02*
X213360000Y-119380000D01*
X213360000Y-119380000D02*
X213995000Y-118745000D01*
X207645000Y-119380000D02*
X207010000Y-120015000D01*
X199390000Y-120015000D02*
X198120000Y-118745000D01*
X207010000Y-120015000D02*
X199390000Y-120015000D01*
X207550000Y-107315000D02*
X207550000Y-109760000D01*
X209550000Y-119380000D02*
X207645000Y-119380000D01*
X207550000Y-109760000D02*
X209550000Y-111760000D01*
X207645000Y-116840000D02*
X207645000Y-119380000D01*
X204565000Y-107315000D02*
X207550000Y-107315000D01*
X254095000Y-107315000D02*
X257080000Y-107315000D01*
X257175000Y-116840000D02*
X257175000Y-119380000D01*
X257080000Y-109760000D02*
X259080000Y-111760000D01*
X259080000Y-119380000D02*
X257175000Y-119380000D01*
X257080000Y-107315000D02*
X257080000Y-109760000D01*
X256540000Y-120015000D02*
X248920000Y-120015000D01*
X248920000Y-120015000D02*
X247650000Y-118745000D01*
X257175000Y-119380000D02*
X256540000Y-120015000D01*
X262890000Y-119380000D02*
X263525000Y-118745000D01*
X259080000Y-119380000D02*
X262890000Y-119380000D01*
X234315000Y-119380000D02*
X238125000Y-119380000D01*
X238125000Y-119380000D02*
X238760000Y-118745000D01*
X232410000Y-119380000D02*
X231775000Y-120015000D01*
X224155000Y-120015000D02*
X222885000Y-118745000D01*
X231775000Y-120015000D02*
X224155000Y-120015000D01*
X232315000Y-107315000D02*
X232315000Y-109760000D01*
X234315000Y-119380000D02*
X232410000Y-119380000D01*
X232315000Y-109760000D02*
X234315000Y-111760000D01*
X232410000Y-116840000D02*
X232410000Y-119380000D01*
X229330000Y-107315000D02*
X232315000Y-107315000D01*
X229330000Y-61595000D02*
X232315000Y-61595000D01*
X232410000Y-71120000D02*
X232410000Y-73660000D01*
X232315000Y-64040000D02*
X234315000Y-66040000D01*
X234315000Y-73660000D02*
X232410000Y-73660000D01*
X232315000Y-61595000D02*
X232315000Y-64040000D01*
X231775000Y-74295000D02*
X224155000Y-74295000D01*
X224155000Y-74295000D02*
X222885000Y-73025000D01*
X232410000Y-73660000D02*
X231775000Y-74295000D01*
X238125000Y-73660000D02*
X238760000Y-73025000D01*
X234315000Y-73660000D02*
X238125000Y-73660000D01*
X259080000Y-73660000D02*
X262890000Y-73660000D01*
X262890000Y-73660000D02*
X263525000Y-73025000D01*
X257175000Y-73660000D02*
X256540000Y-74295000D01*
X248920000Y-74295000D02*
X247650000Y-73025000D01*
X256540000Y-74295000D02*
X248920000Y-74295000D01*
X257080000Y-61595000D02*
X257080000Y-64040000D01*
X259080000Y-73660000D02*
X257175000Y-73660000D01*
X257080000Y-64040000D02*
X259080000Y-66040000D01*
X257175000Y-71120000D02*
X257175000Y-73660000D01*
X254095000Y-61595000D02*
X257080000Y-61595000D01*
X204565000Y-61595000D02*
X207550000Y-61595000D01*
X207645000Y-71120000D02*
X207645000Y-73660000D01*
X207550000Y-64040000D02*
X209550000Y-66040000D01*
X209550000Y-73660000D02*
X207645000Y-73660000D01*
X207550000Y-61595000D02*
X207550000Y-64040000D01*
X207010000Y-74295000D02*
X199390000Y-74295000D01*
X199390000Y-74295000D02*
X198120000Y-73025000D01*
X207645000Y-73660000D02*
X207010000Y-74295000D01*
X213360000Y-73660000D02*
X213995000Y-73025000D01*
X209550000Y-73660000D02*
X213360000Y-73660000D01*
X184785000Y-73660000D02*
X188595000Y-73660000D01*
X188595000Y-73660000D02*
X189230000Y-73025000D01*
X182880000Y-73660000D02*
X182245000Y-74295000D01*
X174625000Y-74295000D02*
X173355000Y-73025000D01*
X182245000Y-74295000D02*
X174625000Y-74295000D01*
X182785000Y-61595000D02*
X182785000Y-64040000D01*
X184785000Y-73660000D02*
X182880000Y-73660000D01*
X182785000Y-64040000D02*
X184785000Y-66040000D01*
X182880000Y-71120000D02*
X182880000Y-73660000D01*
X179800000Y-61595000D02*
X182785000Y-61595000D01*
X189230000Y-116205000D02*
X186690000Y-116205000D01*
X182785000Y-104775000D02*
X179800000Y-104775000D01*
X185420000Y-114935000D02*
X186690000Y-116205000D01*
X180975000Y-114935000D02*
X185420000Y-114935000D01*
X180340000Y-115570000D02*
X180975000Y-114935000D01*
X180340000Y-116840000D02*
X180340000Y-115570000D01*
X173990000Y-116205000D02*
X173355000Y-116205000D01*
X180340000Y-118110000D02*
X179705000Y-118745000D01*
X179705000Y-118745000D02*
X176530000Y-118745000D01*
X176530000Y-118745000D02*
X173990000Y-116205000D01*
X180340000Y-116840000D02*
X180340000Y-118110000D01*
X184150000Y-104775000D02*
X184785000Y-105410000D01*
X184785000Y-105410000D02*
X184785000Y-108585000D01*
X184785000Y-108585000D02*
X186055000Y-109855000D01*
X186055000Y-109855000D02*
X186690000Y-109855000D01*
X182785000Y-104775000D02*
X184150000Y-104775000D01*
X207550000Y-104775000D02*
X208915000Y-104775000D01*
X210820000Y-109855000D02*
X211455000Y-109855000D01*
X209550000Y-108585000D02*
X210820000Y-109855000D01*
X209550000Y-105410000D02*
X209550000Y-108585000D01*
X208915000Y-104775000D02*
X209550000Y-105410000D01*
X205105000Y-116840000D02*
X205105000Y-118110000D01*
X201295000Y-118745000D02*
X198755000Y-116205000D01*
X204470000Y-118745000D02*
X201295000Y-118745000D01*
X205105000Y-118110000D02*
X204470000Y-118745000D01*
X198755000Y-116205000D02*
X198120000Y-116205000D01*
X205105000Y-116840000D02*
X205105000Y-115570000D01*
X205105000Y-115570000D02*
X205740000Y-114935000D01*
X205740000Y-114935000D02*
X210185000Y-114935000D01*
X210185000Y-114935000D02*
X211455000Y-116205000D01*
X207550000Y-104775000D02*
X204565000Y-104775000D01*
X213995000Y-116205000D02*
X211455000Y-116205000D01*
X263525000Y-116205000D02*
X260985000Y-116205000D01*
X257080000Y-104775000D02*
X254095000Y-104775000D01*
X259715000Y-114935000D02*
X260985000Y-116205000D01*
X255270000Y-114935000D02*
X259715000Y-114935000D01*
X254635000Y-115570000D02*
X255270000Y-114935000D01*
X254635000Y-116840000D02*
X254635000Y-115570000D01*
X248285000Y-116205000D02*
X247650000Y-116205000D01*
X254635000Y-118110000D02*
X254000000Y-118745000D01*
X254000000Y-118745000D02*
X250825000Y-118745000D01*
X250825000Y-118745000D02*
X248285000Y-116205000D01*
X254635000Y-116840000D02*
X254635000Y-118110000D01*
X258445000Y-104775000D02*
X259080000Y-105410000D01*
X259080000Y-105410000D02*
X259080000Y-108585000D01*
X259080000Y-108585000D02*
X260350000Y-109855000D01*
X260350000Y-109855000D02*
X260985000Y-109855000D01*
X257080000Y-104775000D02*
X258445000Y-104775000D01*
X232315000Y-104775000D02*
X233680000Y-104775000D01*
X235585000Y-109855000D02*
X236220000Y-109855000D01*
X234315000Y-108585000D02*
X235585000Y-109855000D01*
X234315000Y-105410000D02*
X234315000Y-108585000D01*
X233680000Y-104775000D02*
X234315000Y-105410000D01*
X229870000Y-116840000D02*
X229870000Y-118110000D01*
X226060000Y-118745000D02*
X223520000Y-116205000D01*
X229235000Y-118745000D02*
X226060000Y-118745000D01*
X229870000Y-118110000D02*
X229235000Y-118745000D01*
X223520000Y-116205000D02*
X222885000Y-116205000D01*
X229870000Y-116840000D02*
X229870000Y-115570000D01*
X229870000Y-115570000D02*
X230505000Y-114935000D01*
X230505000Y-114935000D02*
X234950000Y-114935000D01*
X234950000Y-114935000D02*
X236220000Y-116205000D01*
X232315000Y-104775000D02*
X229330000Y-104775000D01*
X238760000Y-116205000D02*
X236220000Y-116205000D01*
X238760000Y-70485000D02*
X236220000Y-70485000D01*
X232315000Y-59055000D02*
X229330000Y-59055000D01*
X234950000Y-69215000D02*
X236220000Y-70485000D01*
X230505000Y-69215000D02*
X234950000Y-69215000D01*
X229870000Y-69850000D02*
X230505000Y-69215000D01*
X229870000Y-71120000D02*
X229870000Y-69850000D01*
X223520000Y-70485000D02*
X222885000Y-70485000D01*
X229870000Y-72390000D02*
X229235000Y-73025000D01*
X229235000Y-73025000D02*
X226060000Y-73025000D01*
X226060000Y-73025000D02*
X223520000Y-70485000D01*
X229870000Y-71120000D02*
X229870000Y-72390000D01*
X233680000Y-59055000D02*
X234315000Y-59690000D01*
X234315000Y-59690000D02*
X234315000Y-62865000D01*
X234315000Y-62865000D02*
X235585000Y-64135000D01*
X235585000Y-64135000D02*
X236220000Y-64135000D01*
X232315000Y-59055000D02*
X233680000Y-59055000D01*
X257080000Y-59055000D02*
X258445000Y-59055000D01*
X260350000Y-64135000D02*
X260985000Y-64135000D01*
X259080000Y-62865000D02*
X260350000Y-64135000D01*
X259080000Y-59690000D02*
X259080000Y-62865000D01*
X258445000Y-59055000D02*
X259080000Y-59690000D01*
X254635000Y-71120000D02*
X254635000Y-72390000D01*
X250825000Y-73025000D02*
X248285000Y-70485000D01*
X254000000Y-73025000D02*
X250825000Y-73025000D01*
X254635000Y-72390000D02*
X254000000Y-73025000D01*
X248285000Y-70485000D02*
X247650000Y-70485000D01*
X254635000Y-71120000D02*
X254635000Y-69850000D01*
X254635000Y-69850000D02*
X255270000Y-69215000D01*
X255270000Y-69215000D02*
X259715000Y-69215000D01*
X259715000Y-69215000D02*
X260985000Y-70485000D01*
X257080000Y-59055000D02*
X254095000Y-59055000D01*
X263525000Y-70485000D02*
X260985000Y-70485000D01*
X213995000Y-70485000D02*
X211455000Y-70485000D01*
X207550000Y-59055000D02*
X204565000Y-59055000D01*
X210185000Y-69215000D02*
X211455000Y-70485000D01*
X205740000Y-69215000D02*
X210185000Y-69215000D01*
X205105000Y-69850000D02*
X205740000Y-69215000D01*
X205105000Y-71120000D02*
X205105000Y-69850000D01*
X198755000Y-70485000D02*
X198120000Y-70485000D01*
X205105000Y-72390000D02*
X204470000Y-73025000D01*
X204470000Y-73025000D02*
X201295000Y-73025000D01*
X201295000Y-73025000D02*
X198755000Y-70485000D01*
X205105000Y-71120000D02*
X205105000Y-72390000D01*
X208915000Y-59055000D02*
X209550000Y-59690000D01*
X209550000Y-59690000D02*
X209550000Y-62865000D01*
X209550000Y-62865000D02*
X210820000Y-64135000D01*
X210820000Y-64135000D02*
X211455000Y-64135000D01*
X207550000Y-59055000D02*
X208915000Y-59055000D01*
X182785000Y-59055000D02*
X184150000Y-59055000D01*
X186055000Y-64135000D02*
X186690000Y-64135000D01*
X184785000Y-62865000D02*
X186055000Y-64135000D01*
X184785000Y-59690000D02*
X184785000Y-62865000D01*
X184150000Y-59055000D02*
X184785000Y-59690000D01*
X180340000Y-71120000D02*
X180340000Y-72390000D01*
X176530000Y-73025000D02*
X173990000Y-70485000D01*
X179705000Y-73025000D02*
X176530000Y-73025000D01*
X180340000Y-72390000D02*
X179705000Y-73025000D01*
X173990000Y-70485000D02*
X173355000Y-70485000D01*
X180340000Y-71120000D02*
X180340000Y-69850000D01*
X180340000Y-69850000D02*
X180975000Y-69215000D01*
X180975000Y-69215000D02*
X185420000Y-69215000D01*
X185420000Y-69215000D02*
X186690000Y-70485000D01*
X182785000Y-59055000D02*
X179800000Y-59055000D01*
X189230000Y-70485000D02*
X186690000Y-70485000D01*
X179800000Y-102235000D02*
X182785000Y-102235000D01*
X173355000Y-113665000D02*
X176530000Y-113665000D01*
X177800000Y-113665000D02*
X189230000Y-113665000D01*
X176530000Y-113665000D02*
X177800000Y-113665000D01*
X177800000Y-116840000D02*
X177800000Y-113665000D01*
X177800000Y-102870000D02*
X178435000Y-102235000D01*
X178435000Y-102235000D02*
X179800000Y-102235000D01*
X177800000Y-113665000D02*
X177800000Y-102870000D01*
X202565000Y-113665000D02*
X202565000Y-102870000D01*
X203200000Y-102235000D02*
X204565000Y-102235000D01*
X202565000Y-102870000D02*
X203200000Y-102235000D01*
X202565000Y-116840000D02*
X202565000Y-113665000D01*
X201295000Y-113665000D02*
X202565000Y-113665000D01*
X202565000Y-113665000D02*
X213995000Y-113665000D01*
X198120000Y-113665000D02*
X201295000Y-113665000D01*
X204565000Y-102235000D02*
X207550000Y-102235000D01*
X254095000Y-102235000D02*
X257080000Y-102235000D01*
X247650000Y-113665000D02*
X250825000Y-113665000D01*
X252095000Y-113665000D02*
X263525000Y-113665000D01*
X250825000Y-113665000D02*
X252095000Y-113665000D01*
X252095000Y-116840000D02*
X252095000Y-113665000D01*
X252095000Y-102870000D02*
X252730000Y-102235000D01*
X252730000Y-102235000D02*
X254095000Y-102235000D01*
X252095000Y-113665000D02*
X252095000Y-102870000D01*
X227330000Y-113665000D02*
X227330000Y-102870000D01*
X227965000Y-102235000D02*
X229330000Y-102235000D01*
X227330000Y-102870000D02*
X227965000Y-102235000D01*
X227330000Y-116840000D02*
X227330000Y-113665000D01*
X226060000Y-113665000D02*
X227330000Y-113665000D01*
X227330000Y-113665000D02*
X238760000Y-113665000D01*
X222885000Y-113665000D02*
X226060000Y-113665000D01*
X229330000Y-102235000D02*
X232315000Y-102235000D01*
X229330000Y-56515000D02*
X232315000Y-56515000D01*
X222885000Y-67945000D02*
X226060000Y-67945000D01*
X227330000Y-67945000D02*
X238760000Y-67945000D01*
X226060000Y-67945000D02*
X227330000Y-67945000D01*
X227330000Y-71120000D02*
X227330000Y-67945000D01*
X227330000Y-57150000D02*
X227965000Y-56515000D01*
X227965000Y-56515000D02*
X229330000Y-56515000D01*
X227330000Y-67945000D02*
X227330000Y-57150000D01*
X252095000Y-67945000D02*
X252095000Y-57150000D01*
X252730000Y-56515000D02*
X254095000Y-56515000D01*
X252095000Y-57150000D02*
X252730000Y-56515000D01*
X252095000Y-71120000D02*
X252095000Y-67945000D01*
X250825000Y-67945000D02*
X252095000Y-67945000D01*
X252095000Y-67945000D02*
X263525000Y-67945000D01*
X247650000Y-67945000D02*
X250825000Y-67945000D01*
X254095000Y-56515000D02*
X257080000Y-56515000D01*
X204565000Y-56515000D02*
X207550000Y-56515000D01*
X198120000Y-67945000D02*
X201295000Y-67945000D01*
X202565000Y-67945000D02*
X213995000Y-67945000D01*
X201295000Y-67945000D02*
X202565000Y-67945000D01*
X202565000Y-71120000D02*
X202565000Y-67945000D01*
X202565000Y-57150000D02*
X203200000Y-56515000D01*
X203200000Y-56515000D02*
X204565000Y-56515000D01*
X202565000Y-67945000D02*
X202565000Y-57150000D01*
X177800000Y-67945000D02*
X177800000Y-57150000D01*
X178435000Y-56515000D02*
X179800000Y-56515000D01*
X177800000Y-57150000D02*
X178435000Y-56515000D01*
X177800000Y-71120000D02*
X177800000Y-67945000D01*
X176530000Y-67945000D02*
X177800000Y-67945000D01*
X177800000Y-67945000D02*
X189230000Y-67945000D01*
X173355000Y-67945000D02*
X176530000Y-67945000D01*
X179800000Y-56515000D02*
X182785000Y-56515000D01*
X174530000Y-100965000D02*
X175800000Y-102235000D01*
X173355000Y-100965000D02*
X174530000Y-100965000D01*
X198120000Y-100965000D02*
X199295000Y-100965000D01*
X199295000Y-100965000D02*
X200565000Y-102235000D01*
X248825000Y-100965000D02*
X250095000Y-102235000D01*
X247650000Y-100965000D02*
X248825000Y-100965000D01*
X222885000Y-100965000D02*
X224060000Y-100965000D01*
X224060000Y-100965000D02*
X225330000Y-102235000D01*
X224060000Y-55245000D02*
X225330000Y-56515000D01*
X222885000Y-55245000D02*
X224060000Y-55245000D01*
X247650000Y-55245000D02*
X248825000Y-55245000D01*
X248825000Y-55245000D02*
X250095000Y-56515000D01*
X199295000Y-55245000D02*
X200565000Y-56515000D01*
X198120000Y-55245000D02*
X199295000Y-55245000D01*
X173355000Y-55245000D02*
X174530000Y-55245000D01*
X174530000Y-55245000D02*
X175800000Y-56515000D01*
X187960000Y-102235000D02*
X189230000Y-100965000D01*
X186785000Y-102235000D02*
X187960000Y-102235000D01*
X211550000Y-102235000D02*
X212725000Y-102235000D01*
X212725000Y-102235000D02*
X213995000Y-100965000D01*
X262255000Y-102235000D02*
X263525000Y-100965000D01*
X261080000Y-102235000D02*
X262255000Y-102235000D01*
X236315000Y-102235000D02*
X237490000Y-102235000D01*
X237490000Y-102235000D02*
X238760000Y-100965000D01*
X237490000Y-56515000D02*
X238760000Y-55245000D01*
X236315000Y-56515000D02*
X237490000Y-56515000D01*
X261080000Y-56515000D02*
X262255000Y-56515000D01*
X262255000Y-56515000D02*
X263525000Y-55245000D01*
X212725000Y-56515000D02*
X213995000Y-55245000D01*
X211550000Y-56515000D02*
X212725000Y-56515000D01*
X186785000Y-56515000D02*
X187960000Y-56515000D01*
X187960000Y-56515000D02*
X189230000Y-55245000D01*
X174625000Y-104775000D02*
X173355000Y-103505000D01*
X175800000Y-104775000D02*
X174625000Y-104775000D01*
X200565000Y-104775000D02*
X199390000Y-104775000D01*
X199390000Y-104775000D02*
X198120000Y-103505000D01*
X248920000Y-104775000D02*
X247650000Y-103505000D01*
X250095000Y-104775000D02*
X248920000Y-104775000D01*
X225330000Y-104775000D02*
X224155000Y-104775000D01*
X224155000Y-104775000D02*
X222885000Y-103505000D01*
X224155000Y-59055000D02*
X222885000Y-57785000D01*
X225330000Y-59055000D02*
X224155000Y-59055000D01*
X250095000Y-59055000D02*
X248920000Y-59055000D01*
X248920000Y-59055000D02*
X247650000Y-57785000D01*
X199390000Y-59055000D02*
X198120000Y-57785000D01*
X200565000Y-59055000D02*
X199390000Y-59055000D01*
X175800000Y-59055000D02*
X174625000Y-59055000D01*
X174625000Y-59055000D02*
X173355000Y-57785000D01*
X187960000Y-104775000D02*
X189230000Y-103505000D01*
X186785000Y-104775000D02*
X187960000Y-104775000D01*
X211550000Y-104775000D02*
X212725000Y-104775000D01*
X212725000Y-104775000D02*
X213995000Y-103505000D01*
X262255000Y-104775000D02*
X263525000Y-103505000D01*
X261080000Y-104775000D02*
X262255000Y-104775000D01*
X236315000Y-104775000D02*
X237490000Y-104775000D01*
X237490000Y-104775000D02*
X238760000Y-103505000D01*
X237490000Y-59055000D02*
X238760000Y-57785000D01*
X236315000Y-59055000D02*
X237490000Y-59055000D01*
X261080000Y-59055000D02*
X262255000Y-59055000D01*
X262255000Y-59055000D02*
X263525000Y-57785000D01*
X212725000Y-59055000D02*
X213995000Y-57785000D01*
X211550000Y-59055000D02*
X212725000Y-59055000D01*
X186785000Y-59055000D02*
X187960000Y-59055000D01*
X187960000Y-59055000D02*
X189230000Y-57785000D01*
X174625000Y-107315000D02*
X173355000Y-106045000D01*
X175800000Y-107315000D02*
X174625000Y-107315000D01*
X200565000Y-107315000D02*
X199390000Y-107315000D01*
X199390000Y-107315000D02*
X198120000Y-106045000D01*
X248920000Y-107315000D02*
X247650000Y-106045000D01*
X250095000Y-107315000D02*
X248920000Y-107315000D01*
X225330000Y-107315000D02*
X224155000Y-107315000D01*
X224155000Y-107315000D02*
X222885000Y-106045000D01*
X224155000Y-61595000D02*
X222885000Y-60325000D01*
X225330000Y-61595000D02*
X224155000Y-61595000D01*
X250095000Y-61595000D02*
X248920000Y-61595000D01*
X248920000Y-61595000D02*
X247650000Y-60325000D01*
X199390000Y-61595000D02*
X198120000Y-60325000D01*
X200565000Y-61595000D02*
X199390000Y-61595000D01*
X175800000Y-61595000D02*
X174625000Y-61595000D01*
X174625000Y-61595000D02*
X173355000Y-60325000D01*
X187420000Y-106680000D02*
X186785000Y-107315000D01*
X187960000Y-107315000D02*
X189230000Y-106045000D01*
X186785000Y-107315000D02*
X187960000Y-107315000D01*
X211550000Y-107315000D02*
X212725000Y-107315000D01*
X212725000Y-107315000D02*
X213995000Y-106045000D01*
X212185000Y-106680000D02*
X211550000Y-107315000D01*
X261715000Y-106680000D02*
X261080000Y-107315000D01*
X262255000Y-107315000D02*
X263525000Y-106045000D01*
X261080000Y-107315000D02*
X262255000Y-107315000D01*
X236315000Y-107315000D02*
X237490000Y-107315000D01*
X237490000Y-107315000D02*
X238760000Y-106045000D01*
X236950000Y-106680000D02*
X236315000Y-107315000D01*
X236950000Y-60960000D02*
X236315000Y-61595000D01*
X237490000Y-61595000D02*
X238760000Y-60325000D01*
X236315000Y-61595000D02*
X237490000Y-61595000D01*
X261080000Y-61595000D02*
X262255000Y-61595000D01*
X262255000Y-61595000D02*
X263525000Y-60325000D01*
X261715000Y-60960000D02*
X261080000Y-61595000D01*
X212185000Y-60960000D02*
X211550000Y-61595000D01*
X212725000Y-61595000D02*
X213995000Y-60325000D01*
X211550000Y-61595000D02*
X212725000Y-61595000D01*
X186785000Y-61595000D02*
X187960000Y-61595000D01*
X187960000Y-61595000D02*
X189230000Y-60325000D01*
X187420000Y-60960000D02*
X186785000Y-61595000D01*
X173355000Y-98425000D02*
X173355000Y-93345000D01*
X198120000Y-98425000D02*
X198120000Y-93345000D01*
X247650000Y-98425000D02*
X247650000Y-93345000D01*
X222885000Y-98425000D02*
X222885000Y-93345000D01*
X222885000Y-52705000D02*
X222885000Y-47625000D01*
X247650000Y-52705000D02*
X247650000Y-47625000D01*
X198120000Y-52705000D02*
X198120000Y-47625000D01*
X173355000Y-52705000D02*
X173355000Y-47625000D01*
X189230000Y-93345000D02*
X189230000Y-98425000D01*
X213995000Y-93345000D02*
X213995000Y-98425000D01*
X263525000Y-93345000D02*
X263525000Y-98425000D01*
X238760000Y-93345000D02*
X238760000Y-98425000D01*
X238760000Y-47625000D02*
X238760000Y-52705000D01*
X263525000Y-47625000D02*
X263525000Y-52705000D01*
X213995000Y-47625000D02*
X213995000Y-52705000D01*
X189230000Y-47625000D02*
X189230000Y-52705000D01*
M02*
