M48
;DRILL file {KiCad 4.0.5+dfsg1-4} date Thu Mar 30 08:58:53 2017
;FORMAT={-:-/ absolute / inch / decimal}
FMAT,2
INCH,TZ
T1C0.024
T2C0.039
T3C0.040
%
G90
G05
M72
T1
X6.925Y-1.475
X6.925Y-3.275
X7.Y-1.6
X7.Y-1.775
X7.Y-3.4
X7.Y-3.575
X7.2Y-1.675
X7.2Y-3.475
X7.275Y-2.6
X7.275Y-2.9
X7.275Y-4.4
X7.275Y-4.7
X7.35Y-2.525
X7.35Y-2.775
X7.35Y-4.325
X7.35Y-4.575
X7.55Y-1.675
X7.55Y-2.45
X7.55Y-3.475
X7.55Y-4.25
X7.9Y-1.475
X7.9Y-3.275
X7.975Y-1.6
X7.975Y-1.775
X7.975Y-3.4
X7.975Y-3.575
X8.175Y-1.675
X8.175Y-3.475
X8.25Y-2.6
X8.25Y-2.9
X8.25Y-4.4
X8.25Y-4.7
X8.325Y-2.525
X8.325Y-2.775
X8.325Y-4.325
X8.325Y-4.575
X8.525Y-1.675
X8.525Y-2.45
X8.525Y-3.475
X8.525Y-4.25
X8.875Y-1.475
X8.875Y-3.275
X8.95Y-1.6
X8.95Y-1.775
X8.95Y-3.4
X8.95Y-3.575
X9.15Y-1.675
X9.15Y-3.475
X9.225Y-2.6
X9.225Y-2.9
X9.225Y-4.4
X9.225Y-4.7
X9.3Y-2.525
X9.3Y-2.775
X9.3Y-4.325
X9.3Y-4.575
X9.5Y-1.675
X9.5Y-2.45
X9.5Y-3.475
X9.5Y-4.25
X9.85Y-1.475
X9.85Y-3.275
X9.925Y-1.6
X9.925Y-1.775
X9.925Y-3.4
X9.925Y-3.575
X10.125Y-1.675
X10.125Y-3.475
X10.2Y-2.6
X10.2Y-2.9
X10.2Y-4.4
X10.2Y-4.7
X10.275Y-2.525
X10.275Y-2.775
X10.275Y-4.325
X10.275Y-4.575
X10.475Y-1.675
X10.475Y-2.45
X10.475Y-3.475
X10.475Y-4.25
T2
X6.825Y-1.475
X6.825Y-1.575
X6.825Y-1.675
X6.825Y-1.775
X6.825Y-1.875
X6.825Y-2.075
X6.825Y-2.175
X6.825Y-2.275
X6.825Y-2.375
X6.825Y-2.475
X6.825Y-2.675
X6.825Y-2.775
X6.825Y-2.875
X6.825Y-3.275
X6.825Y-3.375
X6.825Y-3.475
X6.825Y-3.575
X6.825Y-3.675
X6.825Y-3.875
X6.825Y-3.975
X6.825Y-4.075
X6.825Y-4.175
X6.825Y-4.275
X6.825Y-4.475
X6.825Y-4.575
X6.825Y-4.675
X7.45Y-1.475
X7.45Y-1.575
X7.45Y-1.675
X7.45Y-1.775
X7.45Y-1.875
X7.45Y-2.075
X7.45Y-2.175
X7.45Y-2.275
X7.45Y-2.375
X7.45Y-2.475
X7.45Y-2.675
X7.45Y-2.775
X7.45Y-2.875
X7.45Y-3.275
X7.45Y-3.375
X7.45Y-3.475
X7.45Y-3.575
X7.45Y-3.675
X7.45Y-3.875
X7.45Y-3.975
X7.45Y-4.075
X7.45Y-4.175
X7.45Y-4.275
X7.45Y-4.475
X7.45Y-4.575
X7.45Y-4.675
X7.8Y-1.475
X7.8Y-1.575
X7.8Y-1.675
X7.8Y-1.775
X7.8Y-1.875
X7.8Y-2.075
X7.8Y-2.175
X7.8Y-2.275
X7.8Y-2.375
X7.8Y-2.475
X7.8Y-2.675
X7.8Y-2.775
X7.8Y-2.875
X7.8Y-3.275
X7.8Y-3.375
X7.8Y-3.475
X7.8Y-3.575
X7.8Y-3.675
X7.8Y-3.875
X7.8Y-3.975
X7.8Y-4.075
X7.8Y-4.175
X7.8Y-4.275
X7.8Y-4.475
X7.8Y-4.575
X7.8Y-4.675
X8.425Y-1.475
X8.425Y-1.575
X8.425Y-1.675
X8.425Y-1.775
X8.425Y-1.875
X8.425Y-2.075
X8.425Y-2.175
X8.425Y-2.275
X8.425Y-2.375
X8.425Y-2.475
X8.425Y-2.675
X8.425Y-2.775
X8.425Y-2.875
X8.425Y-3.275
X8.425Y-3.375
X8.425Y-3.475
X8.425Y-3.575
X8.425Y-3.675
X8.425Y-3.875
X8.425Y-3.975
X8.425Y-4.075
X8.425Y-4.175
X8.425Y-4.275
X8.425Y-4.475
X8.425Y-4.575
X8.425Y-4.675
X8.775Y-1.475
X8.775Y-1.575
X8.775Y-1.675
X8.775Y-1.775
X8.775Y-1.875
X8.775Y-2.075
X8.775Y-2.175
X8.775Y-2.275
X8.775Y-2.375
X8.775Y-2.475
X8.775Y-2.675
X8.775Y-2.775
X8.775Y-2.875
X8.775Y-3.275
X8.775Y-3.375
X8.775Y-3.475
X8.775Y-3.575
X8.775Y-3.675
X8.775Y-3.875
X8.775Y-3.975
X8.775Y-4.075
X8.775Y-4.175
X8.775Y-4.275
X8.775Y-4.475
X8.775Y-4.575
X8.775Y-4.675
X9.4Y-1.475
X9.4Y-1.575
X9.4Y-1.675
X9.4Y-1.775
X9.4Y-1.875
X9.4Y-2.075
X9.4Y-2.175
X9.4Y-2.275
X9.4Y-2.375
X9.4Y-2.475
X9.4Y-2.675
X9.4Y-2.775
X9.4Y-2.875
X9.4Y-3.275
X9.4Y-3.375
X9.4Y-3.475
X9.4Y-3.575
X9.4Y-3.675
X9.4Y-3.875
X9.4Y-3.975
X9.4Y-4.075
X9.4Y-4.175
X9.4Y-4.275
X9.4Y-4.475
X9.4Y-4.575
X9.4Y-4.675
X9.75Y-1.475
X9.75Y-1.575
X9.75Y-1.675
X9.75Y-1.775
X9.75Y-1.875
X9.75Y-2.075
X9.75Y-2.175
X9.75Y-2.275
X9.75Y-2.375
X9.75Y-2.475
X9.75Y-2.675
X9.75Y-2.775
X9.75Y-2.875
X9.75Y-3.275
X9.75Y-3.375
X9.75Y-3.475
X9.75Y-3.575
X9.75Y-3.675
X9.75Y-3.875
X9.75Y-3.975
X9.75Y-4.075
X9.75Y-4.175
X9.75Y-4.275
X9.75Y-4.475
X9.75Y-4.575
X9.75Y-4.675
X10.375Y-1.475
X10.375Y-1.575
X10.375Y-1.675
X10.375Y-1.775
X10.375Y-1.875
X10.375Y-2.075
X10.375Y-2.175
X10.375Y-2.275
X10.375Y-2.375
X10.375Y-2.475
X10.375Y-2.675
X10.375Y-2.775
X10.375Y-2.875
X10.375Y-3.275
X10.375Y-3.375
X10.375Y-3.475
X10.375Y-3.575
X10.375Y-3.675
X10.375Y-3.875
X10.375Y-3.975
X10.375Y-4.075
X10.375Y-4.175
X10.375Y-4.275
X10.375Y-4.475
X10.375Y-4.575
X10.375Y-4.675
T3
X6.8Y-1.3
X6.8Y-3.1
X6.9Y-1.3
X6.9Y-3.1
X7.Y-1.3
X7.Y-2.8
X7.Y-3.1
X7.Y-4.6
X7.1Y-1.3
X7.1Y-2.8
X7.1Y-3.1
X7.1Y-4.6
X7.2Y-1.3
X7.2Y-1.45
X7.2Y-1.55
X7.2Y-1.8
X7.2Y-1.9
X7.2Y-2.8
X7.2Y-3.1
X7.2Y-3.25
X7.2Y-3.35
X7.2Y-3.6
X7.2Y-3.7
X7.2Y-4.6
X7.3Y-1.3
X7.3Y-3.1
X7.325Y-1.575
X7.325Y-1.675
X7.325Y-2.
X7.325Y-2.1
X7.325Y-3.375
X7.325Y-3.475
X7.325Y-3.8
X7.325Y-3.9
X7.4Y-1.3
X7.4Y-3.1
X7.5Y-1.3
X7.5Y-3.1
X7.775Y-1.3
X7.775Y-3.1
X7.875Y-1.3
X7.875Y-3.1
X7.975Y-1.3
X7.975Y-2.8
X7.975Y-3.1
X7.975Y-4.6
X8.075Y-1.3
X8.075Y-2.8
X8.075Y-3.1
X8.075Y-4.6
X8.175Y-1.3
X8.175Y-1.45
X8.175Y-1.55
X8.175Y-1.8
X8.175Y-1.9
X8.175Y-2.8
X8.175Y-3.1
X8.175Y-3.25
X8.175Y-3.35
X8.175Y-3.6
X8.175Y-3.7
X8.175Y-4.6
X8.275Y-1.3
X8.275Y-3.1
X8.3Y-1.575
X8.3Y-1.675
X8.3Y-2.
X8.3Y-2.1
X8.3Y-3.375
X8.3Y-3.475
X8.3Y-3.8
X8.3Y-3.9
X8.375Y-1.3
X8.375Y-3.1
X8.475Y-1.3
X8.475Y-3.1
X8.75Y-1.3
X8.75Y-3.1
X8.85Y-1.3
X8.85Y-3.1
X8.95Y-1.3
X8.95Y-2.8
X8.95Y-3.1
X8.95Y-4.6
X9.05Y-1.3
X9.05Y-2.8
X9.05Y-3.1
X9.05Y-4.6
X9.15Y-1.3
X9.15Y-1.45
X9.15Y-1.55
X9.15Y-1.8
X9.15Y-1.9
X9.15Y-2.8
X9.15Y-3.1
X9.15Y-3.25
X9.15Y-3.35
X9.15Y-3.6
X9.15Y-3.7
X9.15Y-4.6
X9.25Y-1.3
X9.25Y-3.1
X9.275Y-1.575
X9.275Y-1.675
X9.275Y-2.
X9.275Y-2.1
X9.275Y-3.375
X9.275Y-3.475
X9.275Y-3.8
X9.275Y-3.9
X9.35Y-1.3
X9.35Y-3.1
X9.45Y-1.3
X9.45Y-3.1
X9.725Y-1.3
X9.725Y-3.1
X9.825Y-1.3
X9.825Y-3.1
X9.925Y-1.3
X9.925Y-2.8
X9.925Y-3.1
X9.925Y-4.6
X10.025Y-1.3
X10.025Y-2.8
X10.025Y-3.1
X10.025Y-4.6
X10.125Y-1.3
X10.125Y-1.45
X10.125Y-1.55
X10.125Y-1.8
X10.125Y-1.9
X10.125Y-2.8
X10.125Y-3.1
X10.125Y-3.25
X10.125Y-3.35
X10.125Y-3.6
X10.125Y-3.7
X10.125Y-4.6
X10.225Y-1.3
X10.225Y-3.1
X10.25Y-1.575
X10.25Y-1.675
X10.25Y-2.
X10.25Y-2.1
X10.25Y-3.375
X10.25Y-3.475
X10.25Y-3.8
X10.25Y-3.9
X10.325Y-1.3
X10.325Y-3.1
X10.425Y-1.3
X10.425Y-3.1
T0
M30
