G04 #@! TF.FileFunction,Legend,Bot*
%FSLAX46Y46*%
G04 Gerber Fmt 4.6, Leading zero omitted, Abs format (unit mm)*
G04 Created by KiCad (PCBNEW 4.0.5+dfsg1-4) date Thu Mar 30 08:58:49 2017*
%MOMM*%
%LPD*%
G01*
G04 APERTURE LIST*
%ADD10C,0.100000*%
%ADD11C,0.300000*%
%ADD12C,0.150000*%
G04 APERTURE END LIST*
D10*
D11*
X179383571Y-84654288D02*
X180383571Y-85011431D01*
X179383571Y-85368573D01*
X178883571Y-85797145D02*
X178883571Y-86725716D01*
X179455000Y-86225716D01*
X179455000Y-86440002D01*
X179526429Y-86582859D01*
X179597857Y-86654288D01*
X179740714Y-86725716D01*
X180097857Y-86725716D01*
X180240714Y-86654288D01*
X180312143Y-86582859D01*
X180383571Y-86440002D01*
X180383571Y-86011430D01*
X180312143Y-85868573D01*
X180240714Y-85797145D01*
X178883571Y-87654287D02*
X178883571Y-87797144D01*
X178955000Y-87940001D01*
X179026429Y-88011430D01*
X179169286Y-88082859D01*
X179455000Y-88154287D01*
X179812143Y-88154287D01*
X180097857Y-88082859D01*
X180240714Y-88011430D01*
X180312143Y-87940001D01*
X180383571Y-87797144D01*
X180383571Y-87654287D01*
X180312143Y-87511430D01*
X180240714Y-87440001D01*
X180097857Y-87368573D01*
X179812143Y-87297144D01*
X179455000Y-87297144D01*
X179169286Y-87368573D01*
X179026429Y-87440001D01*
X178955000Y-87511430D01*
X178883571Y-87654287D01*
X180240714Y-88797144D02*
X180312143Y-88868572D01*
X180383571Y-88797144D01*
X180312143Y-88725715D01*
X180240714Y-88797144D01*
X180383571Y-88797144D01*
X178883571Y-89797144D02*
X178883571Y-89940001D01*
X178955000Y-90082858D01*
X179026429Y-90154287D01*
X179169286Y-90225716D01*
X179455000Y-90297144D01*
X179812143Y-90297144D01*
X180097857Y-90225716D01*
X180240714Y-90154287D01*
X180312143Y-90082858D01*
X180383571Y-89940001D01*
X180383571Y-89797144D01*
X180312143Y-89654287D01*
X180240714Y-89582858D01*
X180097857Y-89511430D01*
X179812143Y-89440001D01*
X179455000Y-89440001D01*
X179169286Y-89511430D01*
X179026429Y-89582858D01*
X178955000Y-89654287D01*
X178883571Y-89797144D01*
X178883571Y-90797144D02*
X178883571Y-91725715D01*
X179455000Y-91225715D01*
X179455000Y-91440001D01*
X179526429Y-91582858D01*
X179597857Y-91654287D01*
X179740714Y-91725715D01*
X180097857Y-91725715D01*
X180240714Y-91654287D01*
X180312143Y-91582858D01*
X180383571Y-91440001D01*
X180383571Y-91011429D01*
X180312143Y-90868572D01*
X180240714Y-90797144D01*
X180240714Y-92368572D02*
X180312143Y-92440000D01*
X180383571Y-92368572D01*
X180312143Y-92297143D01*
X180240714Y-92368572D01*
X180383571Y-92368572D01*
X179026429Y-93011429D02*
X178955000Y-93082858D01*
X178883571Y-93225715D01*
X178883571Y-93582858D01*
X178955000Y-93725715D01*
X179026429Y-93797144D01*
X179169286Y-93868572D01*
X179312143Y-93868572D01*
X179526429Y-93797144D01*
X180383571Y-92940001D01*
X180383571Y-93868572D01*
X178883571Y-94797143D02*
X178883571Y-94940000D01*
X178955000Y-95082857D01*
X179026429Y-95154286D01*
X179169286Y-95225715D01*
X179455000Y-95297143D01*
X179812143Y-95297143D01*
X180097857Y-95225715D01*
X180240714Y-95154286D01*
X180312143Y-95082857D01*
X180383571Y-94940000D01*
X180383571Y-94797143D01*
X180312143Y-94654286D01*
X180240714Y-94582857D01*
X180097857Y-94511429D01*
X179812143Y-94440000D01*
X179455000Y-94440000D01*
X179169286Y-94511429D01*
X179026429Y-94582857D01*
X178955000Y-94654286D01*
X178883571Y-94797143D01*
X180383571Y-96725714D02*
X180383571Y-95868571D01*
X180383571Y-96297143D02*
X178883571Y-96297143D01*
X179097857Y-96154286D01*
X179240714Y-96011428D01*
X179312143Y-95868571D01*
X178883571Y-97225714D02*
X178883571Y-98225714D01*
X180383571Y-97582857D01*
X204148571Y-84654288D02*
X205148571Y-85011431D01*
X204148571Y-85368573D01*
X203648571Y-85797145D02*
X203648571Y-86725716D01*
X204220000Y-86225716D01*
X204220000Y-86440002D01*
X204291429Y-86582859D01*
X204362857Y-86654288D01*
X204505714Y-86725716D01*
X204862857Y-86725716D01*
X205005714Y-86654288D01*
X205077143Y-86582859D01*
X205148571Y-86440002D01*
X205148571Y-86011430D01*
X205077143Y-85868573D01*
X205005714Y-85797145D01*
X203648571Y-87654287D02*
X203648571Y-87797144D01*
X203720000Y-87940001D01*
X203791429Y-88011430D01*
X203934286Y-88082859D01*
X204220000Y-88154287D01*
X204577143Y-88154287D01*
X204862857Y-88082859D01*
X205005714Y-88011430D01*
X205077143Y-87940001D01*
X205148571Y-87797144D01*
X205148571Y-87654287D01*
X205077143Y-87511430D01*
X205005714Y-87440001D01*
X204862857Y-87368573D01*
X204577143Y-87297144D01*
X204220000Y-87297144D01*
X203934286Y-87368573D01*
X203791429Y-87440001D01*
X203720000Y-87511430D01*
X203648571Y-87654287D01*
X205005714Y-88797144D02*
X205077143Y-88868572D01*
X205148571Y-88797144D01*
X205077143Y-88725715D01*
X205005714Y-88797144D01*
X205148571Y-88797144D01*
X203648571Y-89797144D02*
X203648571Y-89940001D01*
X203720000Y-90082858D01*
X203791429Y-90154287D01*
X203934286Y-90225716D01*
X204220000Y-90297144D01*
X204577143Y-90297144D01*
X204862857Y-90225716D01*
X205005714Y-90154287D01*
X205077143Y-90082858D01*
X205148571Y-89940001D01*
X205148571Y-89797144D01*
X205077143Y-89654287D01*
X205005714Y-89582858D01*
X204862857Y-89511430D01*
X204577143Y-89440001D01*
X204220000Y-89440001D01*
X203934286Y-89511430D01*
X203791429Y-89582858D01*
X203720000Y-89654287D01*
X203648571Y-89797144D01*
X203648571Y-90797144D02*
X203648571Y-91725715D01*
X204220000Y-91225715D01*
X204220000Y-91440001D01*
X204291429Y-91582858D01*
X204362857Y-91654287D01*
X204505714Y-91725715D01*
X204862857Y-91725715D01*
X205005714Y-91654287D01*
X205077143Y-91582858D01*
X205148571Y-91440001D01*
X205148571Y-91011429D01*
X205077143Y-90868572D01*
X205005714Y-90797144D01*
X205005714Y-92368572D02*
X205077143Y-92440000D01*
X205148571Y-92368572D01*
X205077143Y-92297143D01*
X205005714Y-92368572D01*
X205148571Y-92368572D01*
X203791429Y-93011429D02*
X203720000Y-93082858D01*
X203648571Y-93225715D01*
X203648571Y-93582858D01*
X203720000Y-93725715D01*
X203791429Y-93797144D01*
X203934286Y-93868572D01*
X204077143Y-93868572D01*
X204291429Y-93797144D01*
X205148571Y-92940001D01*
X205148571Y-93868572D01*
X203648571Y-94797143D02*
X203648571Y-94940000D01*
X203720000Y-95082857D01*
X203791429Y-95154286D01*
X203934286Y-95225715D01*
X204220000Y-95297143D01*
X204577143Y-95297143D01*
X204862857Y-95225715D01*
X205005714Y-95154286D01*
X205077143Y-95082857D01*
X205148571Y-94940000D01*
X205148571Y-94797143D01*
X205077143Y-94654286D01*
X205005714Y-94582857D01*
X204862857Y-94511429D01*
X204577143Y-94440000D01*
X204220000Y-94440000D01*
X203934286Y-94511429D01*
X203791429Y-94582857D01*
X203720000Y-94654286D01*
X203648571Y-94797143D01*
X205148571Y-96725714D02*
X205148571Y-95868571D01*
X205148571Y-96297143D02*
X203648571Y-96297143D01*
X203862857Y-96154286D01*
X204005714Y-96011428D01*
X204077143Y-95868571D01*
X203648571Y-97225714D02*
X203648571Y-98225714D01*
X205148571Y-97582857D01*
X253678571Y-84654288D02*
X254678571Y-85011431D01*
X253678571Y-85368573D01*
X253178571Y-85797145D02*
X253178571Y-86725716D01*
X253750000Y-86225716D01*
X253750000Y-86440002D01*
X253821429Y-86582859D01*
X253892857Y-86654288D01*
X254035714Y-86725716D01*
X254392857Y-86725716D01*
X254535714Y-86654288D01*
X254607143Y-86582859D01*
X254678571Y-86440002D01*
X254678571Y-86011430D01*
X254607143Y-85868573D01*
X254535714Y-85797145D01*
X253178571Y-87654287D02*
X253178571Y-87797144D01*
X253250000Y-87940001D01*
X253321429Y-88011430D01*
X253464286Y-88082859D01*
X253750000Y-88154287D01*
X254107143Y-88154287D01*
X254392857Y-88082859D01*
X254535714Y-88011430D01*
X254607143Y-87940001D01*
X254678571Y-87797144D01*
X254678571Y-87654287D01*
X254607143Y-87511430D01*
X254535714Y-87440001D01*
X254392857Y-87368573D01*
X254107143Y-87297144D01*
X253750000Y-87297144D01*
X253464286Y-87368573D01*
X253321429Y-87440001D01*
X253250000Y-87511430D01*
X253178571Y-87654287D01*
X254535714Y-88797144D02*
X254607143Y-88868572D01*
X254678571Y-88797144D01*
X254607143Y-88725715D01*
X254535714Y-88797144D01*
X254678571Y-88797144D01*
X253178571Y-89797144D02*
X253178571Y-89940001D01*
X253250000Y-90082858D01*
X253321429Y-90154287D01*
X253464286Y-90225716D01*
X253750000Y-90297144D01*
X254107143Y-90297144D01*
X254392857Y-90225716D01*
X254535714Y-90154287D01*
X254607143Y-90082858D01*
X254678571Y-89940001D01*
X254678571Y-89797144D01*
X254607143Y-89654287D01*
X254535714Y-89582858D01*
X254392857Y-89511430D01*
X254107143Y-89440001D01*
X253750000Y-89440001D01*
X253464286Y-89511430D01*
X253321429Y-89582858D01*
X253250000Y-89654287D01*
X253178571Y-89797144D01*
X253178571Y-90797144D02*
X253178571Y-91725715D01*
X253750000Y-91225715D01*
X253750000Y-91440001D01*
X253821429Y-91582858D01*
X253892857Y-91654287D01*
X254035714Y-91725715D01*
X254392857Y-91725715D01*
X254535714Y-91654287D01*
X254607143Y-91582858D01*
X254678571Y-91440001D01*
X254678571Y-91011429D01*
X254607143Y-90868572D01*
X254535714Y-90797144D01*
X254535714Y-92368572D02*
X254607143Y-92440000D01*
X254678571Y-92368572D01*
X254607143Y-92297143D01*
X254535714Y-92368572D01*
X254678571Y-92368572D01*
X253321429Y-93011429D02*
X253250000Y-93082858D01*
X253178571Y-93225715D01*
X253178571Y-93582858D01*
X253250000Y-93725715D01*
X253321429Y-93797144D01*
X253464286Y-93868572D01*
X253607143Y-93868572D01*
X253821429Y-93797144D01*
X254678571Y-92940001D01*
X254678571Y-93868572D01*
X253178571Y-94797143D02*
X253178571Y-94940000D01*
X253250000Y-95082857D01*
X253321429Y-95154286D01*
X253464286Y-95225715D01*
X253750000Y-95297143D01*
X254107143Y-95297143D01*
X254392857Y-95225715D01*
X254535714Y-95154286D01*
X254607143Y-95082857D01*
X254678571Y-94940000D01*
X254678571Y-94797143D01*
X254607143Y-94654286D01*
X254535714Y-94582857D01*
X254392857Y-94511429D01*
X254107143Y-94440000D01*
X253750000Y-94440000D01*
X253464286Y-94511429D01*
X253321429Y-94582857D01*
X253250000Y-94654286D01*
X253178571Y-94797143D01*
X254678571Y-96725714D02*
X254678571Y-95868571D01*
X254678571Y-96297143D02*
X253178571Y-96297143D01*
X253392857Y-96154286D01*
X253535714Y-96011428D01*
X253607143Y-95868571D01*
X253178571Y-97225714D02*
X253178571Y-98225714D01*
X254678571Y-97582857D01*
X228913571Y-84654288D02*
X229913571Y-85011431D01*
X228913571Y-85368573D01*
X228413571Y-85797145D02*
X228413571Y-86725716D01*
X228985000Y-86225716D01*
X228985000Y-86440002D01*
X229056429Y-86582859D01*
X229127857Y-86654288D01*
X229270714Y-86725716D01*
X229627857Y-86725716D01*
X229770714Y-86654288D01*
X229842143Y-86582859D01*
X229913571Y-86440002D01*
X229913571Y-86011430D01*
X229842143Y-85868573D01*
X229770714Y-85797145D01*
X228413571Y-87654287D02*
X228413571Y-87797144D01*
X228485000Y-87940001D01*
X228556429Y-88011430D01*
X228699286Y-88082859D01*
X228985000Y-88154287D01*
X229342143Y-88154287D01*
X229627857Y-88082859D01*
X229770714Y-88011430D01*
X229842143Y-87940001D01*
X229913571Y-87797144D01*
X229913571Y-87654287D01*
X229842143Y-87511430D01*
X229770714Y-87440001D01*
X229627857Y-87368573D01*
X229342143Y-87297144D01*
X228985000Y-87297144D01*
X228699286Y-87368573D01*
X228556429Y-87440001D01*
X228485000Y-87511430D01*
X228413571Y-87654287D01*
X229770714Y-88797144D02*
X229842143Y-88868572D01*
X229913571Y-88797144D01*
X229842143Y-88725715D01*
X229770714Y-88797144D01*
X229913571Y-88797144D01*
X228413571Y-89797144D02*
X228413571Y-89940001D01*
X228485000Y-90082858D01*
X228556429Y-90154287D01*
X228699286Y-90225716D01*
X228985000Y-90297144D01*
X229342143Y-90297144D01*
X229627857Y-90225716D01*
X229770714Y-90154287D01*
X229842143Y-90082858D01*
X229913571Y-89940001D01*
X229913571Y-89797144D01*
X229842143Y-89654287D01*
X229770714Y-89582858D01*
X229627857Y-89511430D01*
X229342143Y-89440001D01*
X228985000Y-89440001D01*
X228699286Y-89511430D01*
X228556429Y-89582858D01*
X228485000Y-89654287D01*
X228413571Y-89797144D01*
X228413571Y-90797144D02*
X228413571Y-91725715D01*
X228985000Y-91225715D01*
X228985000Y-91440001D01*
X229056429Y-91582858D01*
X229127857Y-91654287D01*
X229270714Y-91725715D01*
X229627857Y-91725715D01*
X229770714Y-91654287D01*
X229842143Y-91582858D01*
X229913571Y-91440001D01*
X229913571Y-91011429D01*
X229842143Y-90868572D01*
X229770714Y-90797144D01*
X229770714Y-92368572D02*
X229842143Y-92440000D01*
X229913571Y-92368572D01*
X229842143Y-92297143D01*
X229770714Y-92368572D01*
X229913571Y-92368572D01*
X228556429Y-93011429D02*
X228485000Y-93082858D01*
X228413571Y-93225715D01*
X228413571Y-93582858D01*
X228485000Y-93725715D01*
X228556429Y-93797144D01*
X228699286Y-93868572D01*
X228842143Y-93868572D01*
X229056429Y-93797144D01*
X229913571Y-92940001D01*
X229913571Y-93868572D01*
X228413571Y-94797143D02*
X228413571Y-94940000D01*
X228485000Y-95082857D01*
X228556429Y-95154286D01*
X228699286Y-95225715D01*
X228985000Y-95297143D01*
X229342143Y-95297143D01*
X229627857Y-95225715D01*
X229770714Y-95154286D01*
X229842143Y-95082857D01*
X229913571Y-94940000D01*
X229913571Y-94797143D01*
X229842143Y-94654286D01*
X229770714Y-94582857D01*
X229627857Y-94511429D01*
X229342143Y-94440000D01*
X228985000Y-94440000D01*
X228699286Y-94511429D01*
X228556429Y-94582857D01*
X228485000Y-94654286D01*
X228413571Y-94797143D01*
X229913571Y-96725714D02*
X229913571Y-95868571D01*
X229913571Y-96297143D02*
X228413571Y-96297143D01*
X228627857Y-96154286D01*
X228770714Y-96011428D01*
X228842143Y-95868571D01*
X228413571Y-97225714D02*
X228413571Y-98225714D01*
X229913571Y-97582857D01*
X228913571Y-38934288D02*
X229913571Y-39291431D01*
X228913571Y-39648573D01*
X228413571Y-40077145D02*
X228413571Y-41005716D01*
X228985000Y-40505716D01*
X228985000Y-40720002D01*
X229056429Y-40862859D01*
X229127857Y-40934288D01*
X229270714Y-41005716D01*
X229627857Y-41005716D01*
X229770714Y-40934288D01*
X229842143Y-40862859D01*
X229913571Y-40720002D01*
X229913571Y-40291430D01*
X229842143Y-40148573D01*
X229770714Y-40077145D01*
X228413571Y-41934287D02*
X228413571Y-42077144D01*
X228485000Y-42220001D01*
X228556429Y-42291430D01*
X228699286Y-42362859D01*
X228985000Y-42434287D01*
X229342143Y-42434287D01*
X229627857Y-42362859D01*
X229770714Y-42291430D01*
X229842143Y-42220001D01*
X229913571Y-42077144D01*
X229913571Y-41934287D01*
X229842143Y-41791430D01*
X229770714Y-41720001D01*
X229627857Y-41648573D01*
X229342143Y-41577144D01*
X228985000Y-41577144D01*
X228699286Y-41648573D01*
X228556429Y-41720001D01*
X228485000Y-41791430D01*
X228413571Y-41934287D01*
X229770714Y-43077144D02*
X229842143Y-43148572D01*
X229913571Y-43077144D01*
X229842143Y-43005715D01*
X229770714Y-43077144D01*
X229913571Y-43077144D01*
X228413571Y-44077144D02*
X228413571Y-44220001D01*
X228485000Y-44362858D01*
X228556429Y-44434287D01*
X228699286Y-44505716D01*
X228985000Y-44577144D01*
X229342143Y-44577144D01*
X229627857Y-44505716D01*
X229770714Y-44434287D01*
X229842143Y-44362858D01*
X229913571Y-44220001D01*
X229913571Y-44077144D01*
X229842143Y-43934287D01*
X229770714Y-43862858D01*
X229627857Y-43791430D01*
X229342143Y-43720001D01*
X228985000Y-43720001D01*
X228699286Y-43791430D01*
X228556429Y-43862858D01*
X228485000Y-43934287D01*
X228413571Y-44077144D01*
X228413571Y-45077144D02*
X228413571Y-46005715D01*
X228985000Y-45505715D01*
X228985000Y-45720001D01*
X229056429Y-45862858D01*
X229127857Y-45934287D01*
X229270714Y-46005715D01*
X229627857Y-46005715D01*
X229770714Y-45934287D01*
X229842143Y-45862858D01*
X229913571Y-45720001D01*
X229913571Y-45291429D01*
X229842143Y-45148572D01*
X229770714Y-45077144D01*
X229770714Y-46648572D02*
X229842143Y-46720000D01*
X229913571Y-46648572D01*
X229842143Y-46577143D01*
X229770714Y-46648572D01*
X229913571Y-46648572D01*
X228556429Y-47291429D02*
X228485000Y-47362858D01*
X228413571Y-47505715D01*
X228413571Y-47862858D01*
X228485000Y-48005715D01*
X228556429Y-48077144D01*
X228699286Y-48148572D01*
X228842143Y-48148572D01*
X229056429Y-48077144D01*
X229913571Y-47220001D01*
X229913571Y-48148572D01*
X228413571Y-49077143D02*
X228413571Y-49220000D01*
X228485000Y-49362857D01*
X228556429Y-49434286D01*
X228699286Y-49505715D01*
X228985000Y-49577143D01*
X229342143Y-49577143D01*
X229627857Y-49505715D01*
X229770714Y-49434286D01*
X229842143Y-49362857D01*
X229913571Y-49220000D01*
X229913571Y-49077143D01*
X229842143Y-48934286D01*
X229770714Y-48862857D01*
X229627857Y-48791429D01*
X229342143Y-48720000D01*
X228985000Y-48720000D01*
X228699286Y-48791429D01*
X228556429Y-48862857D01*
X228485000Y-48934286D01*
X228413571Y-49077143D01*
X229913571Y-51005714D02*
X229913571Y-50148571D01*
X229913571Y-50577143D02*
X228413571Y-50577143D01*
X228627857Y-50434286D01*
X228770714Y-50291428D01*
X228842143Y-50148571D01*
X228413571Y-51505714D02*
X228413571Y-52505714D01*
X229913571Y-51862857D01*
X253678571Y-38934288D02*
X254678571Y-39291431D01*
X253678571Y-39648573D01*
X253178571Y-40077145D02*
X253178571Y-41005716D01*
X253750000Y-40505716D01*
X253750000Y-40720002D01*
X253821429Y-40862859D01*
X253892857Y-40934288D01*
X254035714Y-41005716D01*
X254392857Y-41005716D01*
X254535714Y-40934288D01*
X254607143Y-40862859D01*
X254678571Y-40720002D01*
X254678571Y-40291430D01*
X254607143Y-40148573D01*
X254535714Y-40077145D01*
X253178571Y-41934287D02*
X253178571Y-42077144D01*
X253250000Y-42220001D01*
X253321429Y-42291430D01*
X253464286Y-42362859D01*
X253750000Y-42434287D01*
X254107143Y-42434287D01*
X254392857Y-42362859D01*
X254535714Y-42291430D01*
X254607143Y-42220001D01*
X254678571Y-42077144D01*
X254678571Y-41934287D01*
X254607143Y-41791430D01*
X254535714Y-41720001D01*
X254392857Y-41648573D01*
X254107143Y-41577144D01*
X253750000Y-41577144D01*
X253464286Y-41648573D01*
X253321429Y-41720001D01*
X253250000Y-41791430D01*
X253178571Y-41934287D01*
X254535714Y-43077144D02*
X254607143Y-43148572D01*
X254678571Y-43077144D01*
X254607143Y-43005715D01*
X254535714Y-43077144D01*
X254678571Y-43077144D01*
X253178571Y-44077144D02*
X253178571Y-44220001D01*
X253250000Y-44362858D01*
X253321429Y-44434287D01*
X253464286Y-44505716D01*
X253750000Y-44577144D01*
X254107143Y-44577144D01*
X254392857Y-44505716D01*
X254535714Y-44434287D01*
X254607143Y-44362858D01*
X254678571Y-44220001D01*
X254678571Y-44077144D01*
X254607143Y-43934287D01*
X254535714Y-43862858D01*
X254392857Y-43791430D01*
X254107143Y-43720001D01*
X253750000Y-43720001D01*
X253464286Y-43791430D01*
X253321429Y-43862858D01*
X253250000Y-43934287D01*
X253178571Y-44077144D01*
X253178571Y-45077144D02*
X253178571Y-46005715D01*
X253750000Y-45505715D01*
X253750000Y-45720001D01*
X253821429Y-45862858D01*
X253892857Y-45934287D01*
X254035714Y-46005715D01*
X254392857Y-46005715D01*
X254535714Y-45934287D01*
X254607143Y-45862858D01*
X254678571Y-45720001D01*
X254678571Y-45291429D01*
X254607143Y-45148572D01*
X254535714Y-45077144D01*
X254535714Y-46648572D02*
X254607143Y-46720000D01*
X254678571Y-46648572D01*
X254607143Y-46577143D01*
X254535714Y-46648572D01*
X254678571Y-46648572D01*
X253321429Y-47291429D02*
X253250000Y-47362858D01*
X253178571Y-47505715D01*
X253178571Y-47862858D01*
X253250000Y-48005715D01*
X253321429Y-48077144D01*
X253464286Y-48148572D01*
X253607143Y-48148572D01*
X253821429Y-48077144D01*
X254678571Y-47220001D01*
X254678571Y-48148572D01*
X253178571Y-49077143D02*
X253178571Y-49220000D01*
X253250000Y-49362857D01*
X253321429Y-49434286D01*
X253464286Y-49505715D01*
X253750000Y-49577143D01*
X254107143Y-49577143D01*
X254392857Y-49505715D01*
X254535714Y-49434286D01*
X254607143Y-49362857D01*
X254678571Y-49220000D01*
X254678571Y-49077143D01*
X254607143Y-48934286D01*
X254535714Y-48862857D01*
X254392857Y-48791429D01*
X254107143Y-48720000D01*
X253750000Y-48720000D01*
X253464286Y-48791429D01*
X253321429Y-48862857D01*
X253250000Y-48934286D01*
X253178571Y-49077143D01*
X254678571Y-51005714D02*
X254678571Y-50148571D01*
X254678571Y-50577143D02*
X253178571Y-50577143D01*
X253392857Y-50434286D01*
X253535714Y-50291428D01*
X253607143Y-50148571D01*
X253178571Y-51505714D02*
X253178571Y-52505714D01*
X254678571Y-51862857D01*
X204148571Y-38934288D02*
X205148571Y-39291431D01*
X204148571Y-39648573D01*
X203648571Y-40077145D02*
X203648571Y-41005716D01*
X204220000Y-40505716D01*
X204220000Y-40720002D01*
X204291429Y-40862859D01*
X204362857Y-40934288D01*
X204505714Y-41005716D01*
X204862857Y-41005716D01*
X205005714Y-40934288D01*
X205077143Y-40862859D01*
X205148571Y-40720002D01*
X205148571Y-40291430D01*
X205077143Y-40148573D01*
X205005714Y-40077145D01*
X203648571Y-41934287D02*
X203648571Y-42077144D01*
X203720000Y-42220001D01*
X203791429Y-42291430D01*
X203934286Y-42362859D01*
X204220000Y-42434287D01*
X204577143Y-42434287D01*
X204862857Y-42362859D01*
X205005714Y-42291430D01*
X205077143Y-42220001D01*
X205148571Y-42077144D01*
X205148571Y-41934287D01*
X205077143Y-41791430D01*
X205005714Y-41720001D01*
X204862857Y-41648573D01*
X204577143Y-41577144D01*
X204220000Y-41577144D01*
X203934286Y-41648573D01*
X203791429Y-41720001D01*
X203720000Y-41791430D01*
X203648571Y-41934287D01*
X205005714Y-43077144D02*
X205077143Y-43148572D01*
X205148571Y-43077144D01*
X205077143Y-43005715D01*
X205005714Y-43077144D01*
X205148571Y-43077144D01*
X203648571Y-44077144D02*
X203648571Y-44220001D01*
X203720000Y-44362858D01*
X203791429Y-44434287D01*
X203934286Y-44505716D01*
X204220000Y-44577144D01*
X204577143Y-44577144D01*
X204862857Y-44505716D01*
X205005714Y-44434287D01*
X205077143Y-44362858D01*
X205148571Y-44220001D01*
X205148571Y-44077144D01*
X205077143Y-43934287D01*
X205005714Y-43862858D01*
X204862857Y-43791430D01*
X204577143Y-43720001D01*
X204220000Y-43720001D01*
X203934286Y-43791430D01*
X203791429Y-43862858D01*
X203720000Y-43934287D01*
X203648571Y-44077144D01*
X203648571Y-45077144D02*
X203648571Y-46005715D01*
X204220000Y-45505715D01*
X204220000Y-45720001D01*
X204291429Y-45862858D01*
X204362857Y-45934287D01*
X204505714Y-46005715D01*
X204862857Y-46005715D01*
X205005714Y-45934287D01*
X205077143Y-45862858D01*
X205148571Y-45720001D01*
X205148571Y-45291429D01*
X205077143Y-45148572D01*
X205005714Y-45077144D01*
X205005714Y-46648572D02*
X205077143Y-46720000D01*
X205148571Y-46648572D01*
X205077143Y-46577143D01*
X205005714Y-46648572D01*
X205148571Y-46648572D01*
X203791429Y-47291429D02*
X203720000Y-47362858D01*
X203648571Y-47505715D01*
X203648571Y-47862858D01*
X203720000Y-48005715D01*
X203791429Y-48077144D01*
X203934286Y-48148572D01*
X204077143Y-48148572D01*
X204291429Y-48077144D01*
X205148571Y-47220001D01*
X205148571Y-48148572D01*
X203648571Y-49077143D02*
X203648571Y-49220000D01*
X203720000Y-49362857D01*
X203791429Y-49434286D01*
X203934286Y-49505715D01*
X204220000Y-49577143D01*
X204577143Y-49577143D01*
X204862857Y-49505715D01*
X205005714Y-49434286D01*
X205077143Y-49362857D01*
X205148571Y-49220000D01*
X205148571Y-49077143D01*
X205077143Y-48934286D01*
X205005714Y-48862857D01*
X204862857Y-48791429D01*
X204577143Y-48720000D01*
X204220000Y-48720000D01*
X203934286Y-48791429D01*
X203791429Y-48862857D01*
X203720000Y-48934286D01*
X203648571Y-49077143D01*
X205148571Y-51005714D02*
X205148571Y-50148571D01*
X205148571Y-50577143D02*
X203648571Y-50577143D01*
X203862857Y-50434286D01*
X204005714Y-50291428D01*
X204077143Y-50148571D01*
X203648571Y-51505714D02*
X203648571Y-52505714D01*
X205148571Y-51862857D01*
X179383571Y-38934288D02*
X180383571Y-39291431D01*
X179383571Y-39648573D01*
X178883571Y-40077145D02*
X178883571Y-41005716D01*
X179455000Y-40505716D01*
X179455000Y-40720002D01*
X179526429Y-40862859D01*
X179597857Y-40934288D01*
X179740714Y-41005716D01*
X180097857Y-41005716D01*
X180240714Y-40934288D01*
X180312143Y-40862859D01*
X180383571Y-40720002D01*
X180383571Y-40291430D01*
X180312143Y-40148573D01*
X180240714Y-40077145D01*
X178883571Y-41934287D02*
X178883571Y-42077144D01*
X178955000Y-42220001D01*
X179026429Y-42291430D01*
X179169286Y-42362859D01*
X179455000Y-42434287D01*
X179812143Y-42434287D01*
X180097857Y-42362859D01*
X180240714Y-42291430D01*
X180312143Y-42220001D01*
X180383571Y-42077144D01*
X180383571Y-41934287D01*
X180312143Y-41791430D01*
X180240714Y-41720001D01*
X180097857Y-41648573D01*
X179812143Y-41577144D01*
X179455000Y-41577144D01*
X179169286Y-41648573D01*
X179026429Y-41720001D01*
X178955000Y-41791430D01*
X178883571Y-41934287D01*
X180240714Y-43077144D02*
X180312143Y-43148572D01*
X180383571Y-43077144D01*
X180312143Y-43005715D01*
X180240714Y-43077144D01*
X180383571Y-43077144D01*
X178883571Y-44077144D02*
X178883571Y-44220001D01*
X178955000Y-44362858D01*
X179026429Y-44434287D01*
X179169286Y-44505716D01*
X179455000Y-44577144D01*
X179812143Y-44577144D01*
X180097857Y-44505716D01*
X180240714Y-44434287D01*
X180312143Y-44362858D01*
X180383571Y-44220001D01*
X180383571Y-44077144D01*
X180312143Y-43934287D01*
X180240714Y-43862858D01*
X180097857Y-43791430D01*
X179812143Y-43720001D01*
X179455000Y-43720001D01*
X179169286Y-43791430D01*
X179026429Y-43862858D01*
X178955000Y-43934287D01*
X178883571Y-44077144D01*
X178883571Y-45077144D02*
X178883571Y-46005715D01*
X179455000Y-45505715D01*
X179455000Y-45720001D01*
X179526429Y-45862858D01*
X179597857Y-45934287D01*
X179740714Y-46005715D01*
X180097857Y-46005715D01*
X180240714Y-45934287D01*
X180312143Y-45862858D01*
X180383571Y-45720001D01*
X180383571Y-45291429D01*
X180312143Y-45148572D01*
X180240714Y-45077144D01*
X180240714Y-46648572D02*
X180312143Y-46720000D01*
X180383571Y-46648572D01*
X180312143Y-46577143D01*
X180240714Y-46648572D01*
X180383571Y-46648572D01*
X179026429Y-47291429D02*
X178955000Y-47362858D01*
X178883571Y-47505715D01*
X178883571Y-47862858D01*
X178955000Y-48005715D01*
X179026429Y-48077144D01*
X179169286Y-48148572D01*
X179312143Y-48148572D01*
X179526429Y-48077144D01*
X180383571Y-47220001D01*
X180383571Y-48148572D01*
X178883571Y-49077143D02*
X178883571Y-49220000D01*
X178955000Y-49362857D01*
X179026429Y-49434286D01*
X179169286Y-49505715D01*
X179455000Y-49577143D01*
X179812143Y-49577143D01*
X180097857Y-49505715D01*
X180240714Y-49434286D01*
X180312143Y-49362857D01*
X180383571Y-49220000D01*
X180383571Y-49077143D01*
X180312143Y-48934286D01*
X180240714Y-48862857D01*
X180097857Y-48791429D01*
X179812143Y-48720000D01*
X179455000Y-48720000D01*
X179169286Y-48791429D01*
X179026429Y-48862857D01*
X178955000Y-48934286D01*
X178883571Y-49077143D01*
X180383571Y-51005714D02*
X180383571Y-50148571D01*
X180383571Y-50577143D02*
X178883571Y-50577143D01*
X179097857Y-50434286D01*
X179240714Y-50291428D01*
X179312143Y-50148571D01*
X178883571Y-51505714D02*
X178883571Y-52505714D01*
X180383571Y-51862857D01*
D12*
X183785000Y-108390000D02*
X185785000Y-108390000D01*
X185785000Y-106240000D02*
X183785000Y-106240000D01*
X178800000Y-106240000D02*
X176800000Y-106240000D01*
X176800000Y-108390000D02*
X178800000Y-108390000D01*
X183785000Y-105850000D02*
X185785000Y-105850000D01*
X185785000Y-103700000D02*
X183785000Y-103700000D01*
X178800000Y-103700000D02*
X176800000Y-103700000D01*
X176800000Y-105850000D02*
X178800000Y-105850000D01*
X183785000Y-103310000D02*
X185785000Y-103310000D01*
X185785000Y-101160000D02*
X183785000Y-101160000D01*
X178800000Y-101160000D02*
X176800000Y-101160000D01*
X176800000Y-103310000D02*
X178800000Y-103310000D01*
X203565000Y-101160000D02*
X201565000Y-101160000D01*
X201565000Y-103310000D02*
X203565000Y-103310000D01*
X208550000Y-103310000D02*
X210550000Y-103310000D01*
X210550000Y-101160000D02*
X208550000Y-101160000D01*
X203565000Y-103700000D02*
X201565000Y-103700000D01*
X201565000Y-105850000D02*
X203565000Y-105850000D01*
X208550000Y-105850000D02*
X210550000Y-105850000D01*
X210550000Y-103700000D02*
X208550000Y-103700000D01*
X203565000Y-106240000D02*
X201565000Y-106240000D01*
X201565000Y-108390000D02*
X203565000Y-108390000D01*
X208550000Y-108390000D02*
X210550000Y-108390000D01*
X210550000Y-106240000D02*
X208550000Y-106240000D01*
X258080000Y-108390000D02*
X260080000Y-108390000D01*
X260080000Y-106240000D02*
X258080000Y-106240000D01*
X253095000Y-106240000D02*
X251095000Y-106240000D01*
X251095000Y-108390000D02*
X253095000Y-108390000D01*
X258080000Y-105850000D02*
X260080000Y-105850000D01*
X260080000Y-103700000D02*
X258080000Y-103700000D01*
X253095000Y-103700000D02*
X251095000Y-103700000D01*
X251095000Y-105850000D02*
X253095000Y-105850000D01*
X258080000Y-103310000D02*
X260080000Y-103310000D01*
X260080000Y-101160000D02*
X258080000Y-101160000D01*
X253095000Y-101160000D02*
X251095000Y-101160000D01*
X251095000Y-103310000D02*
X253095000Y-103310000D01*
X228330000Y-101160000D02*
X226330000Y-101160000D01*
X226330000Y-103310000D02*
X228330000Y-103310000D01*
X233315000Y-103310000D02*
X235315000Y-103310000D01*
X235315000Y-101160000D02*
X233315000Y-101160000D01*
X228330000Y-103700000D02*
X226330000Y-103700000D01*
X226330000Y-105850000D02*
X228330000Y-105850000D01*
X233315000Y-105850000D02*
X235315000Y-105850000D01*
X235315000Y-103700000D02*
X233315000Y-103700000D01*
X228330000Y-106240000D02*
X226330000Y-106240000D01*
X226330000Y-108390000D02*
X228330000Y-108390000D01*
X233315000Y-108390000D02*
X235315000Y-108390000D01*
X235315000Y-106240000D02*
X233315000Y-106240000D01*
X233315000Y-62670000D02*
X235315000Y-62670000D01*
X235315000Y-60520000D02*
X233315000Y-60520000D01*
X228330000Y-60520000D02*
X226330000Y-60520000D01*
X226330000Y-62670000D02*
X228330000Y-62670000D01*
X233315000Y-60130000D02*
X235315000Y-60130000D01*
X235315000Y-57980000D02*
X233315000Y-57980000D01*
X228330000Y-57980000D02*
X226330000Y-57980000D01*
X226330000Y-60130000D02*
X228330000Y-60130000D01*
X233315000Y-57590000D02*
X235315000Y-57590000D01*
X235315000Y-55440000D02*
X233315000Y-55440000D01*
X228330000Y-55440000D02*
X226330000Y-55440000D01*
X226330000Y-57590000D02*
X228330000Y-57590000D01*
X253095000Y-55440000D02*
X251095000Y-55440000D01*
X251095000Y-57590000D02*
X253095000Y-57590000D01*
X258080000Y-57590000D02*
X260080000Y-57590000D01*
X260080000Y-55440000D02*
X258080000Y-55440000D01*
X253095000Y-57980000D02*
X251095000Y-57980000D01*
X251095000Y-60130000D02*
X253095000Y-60130000D01*
X258080000Y-60130000D02*
X260080000Y-60130000D01*
X260080000Y-57980000D02*
X258080000Y-57980000D01*
X253095000Y-60520000D02*
X251095000Y-60520000D01*
X251095000Y-62670000D02*
X253095000Y-62670000D01*
X258080000Y-62670000D02*
X260080000Y-62670000D01*
X260080000Y-60520000D02*
X258080000Y-60520000D01*
X208550000Y-62670000D02*
X210550000Y-62670000D01*
X210550000Y-60520000D02*
X208550000Y-60520000D01*
X203565000Y-60520000D02*
X201565000Y-60520000D01*
X201565000Y-62670000D02*
X203565000Y-62670000D01*
X208550000Y-60130000D02*
X210550000Y-60130000D01*
X210550000Y-57980000D02*
X208550000Y-57980000D01*
X203565000Y-57980000D02*
X201565000Y-57980000D01*
X201565000Y-60130000D02*
X203565000Y-60130000D01*
X208550000Y-57590000D02*
X210550000Y-57590000D01*
X210550000Y-55440000D02*
X208550000Y-55440000D01*
X203565000Y-55440000D02*
X201565000Y-55440000D01*
X201565000Y-57590000D02*
X203565000Y-57590000D01*
X178800000Y-55440000D02*
X176800000Y-55440000D01*
X176800000Y-57590000D02*
X178800000Y-57590000D01*
X183785000Y-57590000D02*
X185785000Y-57590000D01*
X185785000Y-55440000D02*
X183785000Y-55440000D01*
X178800000Y-57980000D02*
X176800000Y-57980000D01*
X176800000Y-60130000D02*
X178800000Y-60130000D01*
X183785000Y-60130000D02*
X185785000Y-60130000D01*
X185785000Y-57980000D02*
X183785000Y-57980000D01*
X178800000Y-60520000D02*
X176800000Y-60520000D01*
X176800000Y-62670000D02*
X178800000Y-62670000D01*
X183785000Y-62670000D02*
X185785000Y-62670000D01*
X185785000Y-60520000D02*
X183785000Y-60520000D01*
X184951666Y-105467381D02*
X185285000Y-104991190D01*
X185523095Y-105467381D02*
X185523095Y-104467381D01*
X185142142Y-104467381D01*
X185046904Y-104515000D01*
X184999285Y-104562619D01*
X184951666Y-104657857D01*
X184951666Y-104800714D01*
X184999285Y-104895952D01*
X185046904Y-104943571D01*
X185142142Y-104991190D01*
X185523095Y-104991190D01*
X184094523Y-104467381D02*
X184285000Y-104467381D01*
X184380238Y-104515000D01*
X184427857Y-104562619D01*
X184523095Y-104705476D01*
X184570714Y-104895952D01*
X184570714Y-105276905D01*
X184523095Y-105372143D01*
X184475476Y-105419762D01*
X184380238Y-105467381D01*
X184189761Y-105467381D01*
X184094523Y-105419762D01*
X184046904Y-105372143D01*
X183999285Y-105276905D01*
X183999285Y-105038810D01*
X184046904Y-104943571D01*
X184094523Y-104895952D01*
X184189761Y-104848333D01*
X184380238Y-104848333D01*
X184475476Y-104895952D01*
X184523095Y-104943571D01*
X184570714Y-105038810D01*
X177966666Y-110067381D02*
X178300000Y-109591190D01*
X178538095Y-110067381D02*
X178538095Y-109067381D01*
X178157142Y-109067381D01*
X178061904Y-109115000D01*
X178014285Y-109162619D01*
X177966666Y-109257857D01*
X177966666Y-109400714D01*
X178014285Y-109495952D01*
X178061904Y-109543571D01*
X178157142Y-109591190D01*
X178538095Y-109591190D01*
X177061904Y-109067381D02*
X177538095Y-109067381D01*
X177585714Y-109543571D01*
X177538095Y-109495952D01*
X177442857Y-109448333D01*
X177204761Y-109448333D01*
X177109523Y-109495952D01*
X177061904Y-109543571D01*
X177014285Y-109638810D01*
X177014285Y-109876905D01*
X177061904Y-109972143D01*
X177109523Y-110019762D01*
X177204761Y-110067381D01*
X177442857Y-110067381D01*
X177538095Y-110019762D01*
X177585714Y-109972143D01*
X184951666Y-102927381D02*
X185285000Y-102451190D01*
X185523095Y-102927381D02*
X185523095Y-101927381D01*
X185142142Y-101927381D01*
X185046904Y-101975000D01*
X184999285Y-102022619D01*
X184951666Y-102117857D01*
X184951666Y-102260714D01*
X184999285Y-102355952D01*
X185046904Y-102403571D01*
X185142142Y-102451190D01*
X185523095Y-102451190D01*
X184094523Y-102260714D02*
X184094523Y-102927381D01*
X184332619Y-101879762D02*
X184570714Y-102594048D01*
X183951666Y-102594048D01*
X177966666Y-107527381D02*
X178300000Y-107051190D01*
X178538095Y-107527381D02*
X178538095Y-106527381D01*
X178157142Y-106527381D01*
X178061904Y-106575000D01*
X178014285Y-106622619D01*
X177966666Y-106717857D01*
X177966666Y-106860714D01*
X178014285Y-106955952D01*
X178061904Y-107003571D01*
X178157142Y-107051190D01*
X178538095Y-107051190D01*
X177633333Y-106527381D02*
X177014285Y-106527381D01*
X177347619Y-106908333D01*
X177204761Y-106908333D01*
X177109523Y-106955952D01*
X177061904Y-107003571D01*
X177014285Y-107098810D01*
X177014285Y-107336905D01*
X177061904Y-107432143D01*
X177109523Y-107479762D01*
X177204761Y-107527381D01*
X177490476Y-107527381D01*
X177585714Y-107479762D01*
X177633333Y-107432143D01*
X184951666Y-100387381D02*
X185285000Y-99911190D01*
X185523095Y-100387381D02*
X185523095Y-99387381D01*
X185142142Y-99387381D01*
X185046904Y-99435000D01*
X184999285Y-99482619D01*
X184951666Y-99577857D01*
X184951666Y-99720714D01*
X184999285Y-99815952D01*
X185046904Y-99863571D01*
X185142142Y-99911190D01*
X185523095Y-99911190D01*
X184570714Y-99482619D02*
X184523095Y-99435000D01*
X184427857Y-99387381D01*
X184189761Y-99387381D01*
X184094523Y-99435000D01*
X184046904Y-99482619D01*
X183999285Y-99577857D01*
X183999285Y-99673095D01*
X184046904Y-99815952D01*
X184618333Y-100387381D01*
X183999285Y-100387381D01*
X177966666Y-104987381D02*
X178300000Y-104511190D01*
X178538095Y-104987381D02*
X178538095Y-103987381D01*
X178157142Y-103987381D01*
X178061904Y-104035000D01*
X178014285Y-104082619D01*
X177966666Y-104177857D01*
X177966666Y-104320714D01*
X178014285Y-104415952D01*
X178061904Y-104463571D01*
X178157142Y-104511190D01*
X178538095Y-104511190D01*
X177014285Y-104987381D02*
X177585714Y-104987381D01*
X177300000Y-104987381D02*
X177300000Y-103987381D01*
X177395238Y-104130238D01*
X177490476Y-104225476D01*
X177585714Y-104273095D01*
X202731666Y-104987381D02*
X203065000Y-104511190D01*
X203303095Y-104987381D02*
X203303095Y-103987381D01*
X202922142Y-103987381D01*
X202826904Y-104035000D01*
X202779285Y-104082619D01*
X202731666Y-104177857D01*
X202731666Y-104320714D01*
X202779285Y-104415952D01*
X202826904Y-104463571D01*
X202922142Y-104511190D01*
X203303095Y-104511190D01*
X201779285Y-104987381D02*
X202350714Y-104987381D01*
X202065000Y-104987381D02*
X202065000Y-103987381D01*
X202160238Y-104130238D01*
X202255476Y-104225476D01*
X202350714Y-104273095D01*
X209716666Y-100387381D02*
X210050000Y-99911190D01*
X210288095Y-100387381D02*
X210288095Y-99387381D01*
X209907142Y-99387381D01*
X209811904Y-99435000D01*
X209764285Y-99482619D01*
X209716666Y-99577857D01*
X209716666Y-99720714D01*
X209764285Y-99815952D01*
X209811904Y-99863571D01*
X209907142Y-99911190D01*
X210288095Y-99911190D01*
X209335714Y-99482619D02*
X209288095Y-99435000D01*
X209192857Y-99387381D01*
X208954761Y-99387381D01*
X208859523Y-99435000D01*
X208811904Y-99482619D01*
X208764285Y-99577857D01*
X208764285Y-99673095D01*
X208811904Y-99815952D01*
X209383333Y-100387381D01*
X208764285Y-100387381D01*
X202731666Y-107527381D02*
X203065000Y-107051190D01*
X203303095Y-107527381D02*
X203303095Y-106527381D01*
X202922142Y-106527381D01*
X202826904Y-106575000D01*
X202779285Y-106622619D01*
X202731666Y-106717857D01*
X202731666Y-106860714D01*
X202779285Y-106955952D01*
X202826904Y-107003571D01*
X202922142Y-107051190D01*
X203303095Y-107051190D01*
X202398333Y-106527381D02*
X201779285Y-106527381D01*
X202112619Y-106908333D01*
X201969761Y-106908333D01*
X201874523Y-106955952D01*
X201826904Y-107003571D01*
X201779285Y-107098810D01*
X201779285Y-107336905D01*
X201826904Y-107432143D01*
X201874523Y-107479762D01*
X201969761Y-107527381D01*
X202255476Y-107527381D01*
X202350714Y-107479762D01*
X202398333Y-107432143D01*
X209716666Y-102927381D02*
X210050000Y-102451190D01*
X210288095Y-102927381D02*
X210288095Y-101927381D01*
X209907142Y-101927381D01*
X209811904Y-101975000D01*
X209764285Y-102022619D01*
X209716666Y-102117857D01*
X209716666Y-102260714D01*
X209764285Y-102355952D01*
X209811904Y-102403571D01*
X209907142Y-102451190D01*
X210288095Y-102451190D01*
X208859523Y-102260714D02*
X208859523Y-102927381D01*
X209097619Y-101879762D02*
X209335714Y-102594048D01*
X208716666Y-102594048D01*
X202731666Y-110067381D02*
X203065000Y-109591190D01*
X203303095Y-110067381D02*
X203303095Y-109067381D01*
X202922142Y-109067381D01*
X202826904Y-109115000D01*
X202779285Y-109162619D01*
X202731666Y-109257857D01*
X202731666Y-109400714D01*
X202779285Y-109495952D01*
X202826904Y-109543571D01*
X202922142Y-109591190D01*
X203303095Y-109591190D01*
X201826904Y-109067381D02*
X202303095Y-109067381D01*
X202350714Y-109543571D01*
X202303095Y-109495952D01*
X202207857Y-109448333D01*
X201969761Y-109448333D01*
X201874523Y-109495952D01*
X201826904Y-109543571D01*
X201779285Y-109638810D01*
X201779285Y-109876905D01*
X201826904Y-109972143D01*
X201874523Y-110019762D01*
X201969761Y-110067381D01*
X202207857Y-110067381D01*
X202303095Y-110019762D01*
X202350714Y-109972143D01*
X209716666Y-105467381D02*
X210050000Y-104991190D01*
X210288095Y-105467381D02*
X210288095Y-104467381D01*
X209907142Y-104467381D01*
X209811904Y-104515000D01*
X209764285Y-104562619D01*
X209716666Y-104657857D01*
X209716666Y-104800714D01*
X209764285Y-104895952D01*
X209811904Y-104943571D01*
X209907142Y-104991190D01*
X210288095Y-104991190D01*
X208859523Y-104467381D02*
X209050000Y-104467381D01*
X209145238Y-104515000D01*
X209192857Y-104562619D01*
X209288095Y-104705476D01*
X209335714Y-104895952D01*
X209335714Y-105276905D01*
X209288095Y-105372143D01*
X209240476Y-105419762D01*
X209145238Y-105467381D01*
X208954761Y-105467381D01*
X208859523Y-105419762D01*
X208811904Y-105372143D01*
X208764285Y-105276905D01*
X208764285Y-105038810D01*
X208811904Y-104943571D01*
X208859523Y-104895952D01*
X208954761Y-104848333D01*
X209145238Y-104848333D01*
X209240476Y-104895952D01*
X209288095Y-104943571D01*
X209335714Y-105038810D01*
X259246666Y-105467381D02*
X259580000Y-104991190D01*
X259818095Y-105467381D02*
X259818095Y-104467381D01*
X259437142Y-104467381D01*
X259341904Y-104515000D01*
X259294285Y-104562619D01*
X259246666Y-104657857D01*
X259246666Y-104800714D01*
X259294285Y-104895952D01*
X259341904Y-104943571D01*
X259437142Y-104991190D01*
X259818095Y-104991190D01*
X258389523Y-104467381D02*
X258580000Y-104467381D01*
X258675238Y-104515000D01*
X258722857Y-104562619D01*
X258818095Y-104705476D01*
X258865714Y-104895952D01*
X258865714Y-105276905D01*
X258818095Y-105372143D01*
X258770476Y-105419762D01*
X258675238Y-105467381D01*
X258484761Y-105467381D01*
X258389523Y-105419762D01*
X258341904Y-105372143D01*
X258294285Y-105276905D01*
X258294285Y-105038810D01*
X258341904Y-104943571D01*
X258389523Y-104895952D01*
X258484761Y-104848333D01*
X258675238Y-104848333D01*
X258770476Y-104895952D01*
X258818095Y-104943571D01*
X258865714Y-105038810D01*
X252261666Y-110067381D02*
X252595000Y-109591190D01*
X252833095Y-110067381D02*
X252833095Y-109067381D01*
X252452142Y-109067381D01*
X252356904Y-109115000D01*
X252309285Y-109162619D01*
X252261666Y-109257857D01*
X252261666Y-109400714D01*
X252309285Y-109495952D01*
X252356904Y-109543571D01*
X252452142Y-109591190D01*
X252833095Y-109591190D01*
X251356904Y-109067381D02*
X251833095Y-109067381D01*
X251880714Y-109543571D01*
X251833095Y-109495952D01*
X251737857Y-109448333D01*
X251499761Y-109448333D01*
X251404523Y-109495952D01*
X251356904Y-109543571D01*
X251309285Y-109638810D01*
X251309285Y-109876905D01*
X251356904Y-109972143D01*
X251404523Y-110019762D01*
X251499761Y-110067381D01*
X251737857Y-110067381D01*
X251833095Y-110019762D01*
X251880714Y-109972143D01*
X259246666Y-102927381D02*
X259580000Y-102451190D01*
X259818095Y-102927381D02*
X259818095Y-101927381D01*
X259437142Y-101927381D01*
X259341904Y-101975000D01*
X259294285Y-102022619D01*
X259246666Y-102117857D01*
X259246666Y-102260714D01*
X259294285Y-102355952D01*
X259341904Y-102403571D01*
X259437142Y-102451190D01*
X259818095Y-102451190D01*
X258389523Y-102260714D02*
X258389523Y-102927381D01*
X258627619Y-101879762D02*
X258865714Y-102594048D01*
X258246666Y-102594048D01*
X252261666Y-107527381D02*
X252595000Y-107051190D01*
X252833095Y-107527381D02*
X252833095Y-106527381D01*
X252452142Y-106527381D01*
X252356904Y-106575000D01*
X252309285Y-106622619D01*
X252261666Y-106717857D01*
X252261666Y-106860714D01*
X252309285Y-106955952D01*
X252356904Y-107003571D01*
X252452142Y-107051190D01*
X252833095Y-107051190D01*
X251928333Y-106527381D02*
X251309285Y-106527381D01*
X251642619Y-106908333D01*
X251499761Y-106908333D01*
X251404523Y-106955952D01*
X251356904Y-107003571D01*
X251309285Y-107098810D01*
X251309285Y-107336905D01*
X251356904Y-107432143D01*
X251404523Y-107479762D01*
X251499761Y-107527381D01*
X251785476Y-107527381D01*
X251880714Y-107479762D01*
X251928333Y-107432143D01*
X259246666Y-100387381D02*
X259580000Y-99911190D01*
X259818095Y-100387381D02*
X259818095Y-99387381D01*
X259437142Y-99387381D01*
X259341904Y-99435000D01*
X259294285Y-99482619D01*
X259246666Y-99577857D01*
X259246666Y-99720714D01*
X259294285Y-99815952D01*
X259341904Y-99863571D01*
X259437142Y-99911190D01*
X259818095Y-99911190D01*
X258865714Y-99482619D02*
X258818095Y-99435000D01*
X258722857Y-99387381D01*
X258484761Y-99387381D01*
X258389523Y-99435000D01*
X258341904Y-99482619D01*
X258294285Y-99577857D01*
X258294285Y-99673095D01*
X258341904Y-99815952D01*
X258913333Y-100387381D01*
X258294285Y-100387381D01*
X252261666Y-104987381D02*
X252595000Y-104511190D01*
X252833095Y-104987381D02*
X252833095Y-103987381D01*
X252452142Y-103987381D01*
X252356904Y-104035000D01*
X252309285Y-104082619D01*
X252261666Y-104177857D01*
X252261666Y-104320714D01*
X252309285Y-104415952D01*
X252356904Y-104463571D01*
X252452142Y-104511190D01*
X252833095Y-104511190D01*
X251309285Y-104987381D02*
X251880714Y-104987381D01*
X251595000Y-104987381D02*
X251595000Y-103987381D01*
X251690238Y-104130238D01*
X251785476Y-104225476D01*
X251880714Y-104273095D01*
X227496666Y-104987381D02*
X227830000Y-104511190D01*
X228068095Y-104987381D02*
X228068095Y-103987381D01*
X227687142Y-103987381D01*
X227591904Y-104035000D01*
X227544285Y-104082619D01*
X227496666Y-104177857D01*
X227496666Y-104320714D01*
X227544285Y-104415952D01*
X227591904Y-104463571D01*
X227687142Y-104511190D01*
X228068095Y-104511190D01*
X226544285Y-104987381D02*
X227115714Y-104987381D01*
X226830000Y-104987381D02*
X226830000Y-103987381D01*
X226925238Y-104130238D01*
X227020476Y-104225476D01*
X227115714Y-104273095D01*
X234481666Y-100387381D02*
X234815000Y-99911190D01*
X235053095Y-100387381D02*
X235053095Y-99387381D01*
X234672142Y-99387381D01*
X234576904Y-99435000D01*
X234529285Y-99482619D01*
X234481666Y-99577857D01*
X234481666Y-99720714D01*
X234529285Y-99815952D01*
X234576904Y-99863571D01*
X234672142Y-99911190D01*
X235053095Y-99911190D01*
X234100714Y-99482619D02*
X234053095Y-99435000D01*
X233957857Y-99387381D01*
X233719761Y-99387381D01*
X233624523Y-99435000D01*
X233576904Y-99482619D01*
X233529285Y-99577857D01*
X233529285Y-99673095D01*
X233576904Y-99815952D01*
X234148333Y-100387381D01*
X233529285Y-100387381D01*
X227496666Y-107527381D02*
X227830000Y-107051190D01*
X228068095Y-107527381D02*
X228068095Y-106527381D01*
X227687142Y-106527381D01*
X227591904Y-106575000D01*
X227544285Y-106622619D01*
X227496666Y-106717857D01*
X227496666Y-106860714D01*
X227544285Y-106955952D01*
X227591904Y-107003571D01*
X227687142Y-107051190D01*
X228068095Y-107051190D01*
X227163333Y-106527381D02*
X226544285Y-106527381D01*
X226877619Y-106908333D01*
X226734761Y-106908333D01*
X226639523Y-106955952D01*
X226591904Y-107003571D01*
X226544285Y-107098810D01*
X226544285Y-107336905D01*
X226591904Y-107432143D01*
X226639523Y-107479762D01*
X226734761Y-107527381D01*
X227020476Y-107527381D01*
X227115714Y-107479762D01*
X227163333Y-107432143D01*
X234481666Y-102927381D02*
X234815000Y-102451190D01*
X235053095Y-102927381D02*
X235053095Y-101927381D01*
X234672142Y-101927381D01*
X234576904Y-101975000D01*
X234529285Y-102022619D01*
X234481666Y-102117857D01*
X234481666Y-102260714D01*
X234529285Y-102355952D01*
X234576904Y-102403571D01*
X234672142Y-102451190D01*
X235053095Y-102451190D01*
X233624523Y-102260714D02*
X233624523Y-102927381D01*
X233862619Y-101879762D02*
X234100714Y-102594048D01*
X233481666Y-102594048D01*
X227496666Y-110067381D02*
X227830000Y-109591190D01*
X228068095Y-110067381D02*
X228068095Y-109067381D01*
X227687142Y-109067381D01*
X227591904Y-109115000D01*
X227544285Y-109162619D01*
X227496666Y-109257857D01*
X227496666Y-109400714D01*
X227544285Y-109495952D01*
X227591904Y-109543571D01*
X227687142Y-109591190D01*
X228068095Y-109591190D01*
X226591904Y-109067381D02*
X227068095Y-109067381D01*
X227115714Y-109543571D01*
X227068095Y-109495952D01*
X226972857Y-109448333D01*
X226734761Y-109448333D01*
X226639523Y-109495952D01*
X226591904Y-109543571D01*
X226544285Y-109638810D01*
X226544285Y-109876905D01*
X226591904Y-109972143D01*
X226639523Y-110019762D01*
X226734761Y-110067381D01*
X226972857Y-110067381D01*
X227068095Y-110019762D01*
X227115714Y-109972143D01*
X234481666Y-105467381D02*
X234815000Y-104991190D01*
X235053095Y-105467381D02*
X235053095Y-104467381D01*
X234672142Y-104467381D01*
X234576904Y-104515000D01*
X234529285Y-104562619D01*
X234481666Y-104657857D01*
X234481666Y-104800714D01*
X234529285Y-104895952D01*
X234576904Y-104943571D01*
X234672142Y-104991190D01*
X235053095Y-104991190D01*
X233624523Y-104467381D02*
X233815000Y-104467381D01*
X233910238Y-104515000D01*
X233957857Y-104562619D01*
X234053095Y-104705476D01*
X234100714Y-104895952D01*
X234100714Y-105276905D01*
X234053095Y-105372143D01*
X234005476Y-105419762D01*
X233910238Y-105467381D01*
X233719761Y-105467381D01*
X233624523Y-105419762D01*
X233576904Y-105372143D01*
X233529285Y-105276905D01*
X233529285Y-105038810D01*
X233576904Y-104943571D01*
X233624523Y-104895952D01*
X233719761Y-104848333D01*
X233910238Y-104848333D01*
X234005476Y-104895952D01*
X234053095Y-104943571D01*
X234100714Y-105038810D01*
X234481666Y-59747381D02*
X234815000Y-59271190D01*
X235053095Y-59747381D02*
X235053095Y-58747381D01*
X234672142Y-58747381D01*
X234576904Y-58795000D01*
X234529285Y-58842619D01*
X234481666Y-58937857D01*
X234481666Y-59080714D01*
X234529285Y-59175952D01*
X234576904Y-59223571D01*
X234672142Y-59271190D01*
X235053095Y-59271190D01*
X233624523Y-58747381D02*
X233815000Y-58747381D01*
X233910238Y-58795000D01*
X233957857Y-58842619D01*
X234053095Y-58985476D01*
X234100714Y-59175952D01*
X234100714Y-59556905D01*
X234053095Y-59652143D01*
X234005476Y-59699762D01*
X233910238Y-59747381D01*
X233719761Y-59747381D01*
X233624523Y-59699762D01*
X233576904Y-59652143D01*
X233529285Y-59556905D01*
X233529285Y-59318810D01*
X233576904Y-59223571D01*
X233624523Y-59175952D01*
X233719761Y-59128333D01*
X233910238Y-59128333D01*
X234005476Y-59175952D01*
X234053095Y-59223571D01*
X234100714Y-59318810D01*
X227496666Y-64347381D02*
X227830000Y-63871190D01*
X228068095Y-64347381D02*
X228068095Y-63347381D01*
X227687142Y-63347381D01*
X227591904Y-63395000D01*
X227544285Y-63442619D01*
X227496666Y-63537857D01*
X227496666Y-63680714D01*
X227544285Y-63775952D01*
X227591904Y-63823571D01*
X227687142Y-63871190D01*
X228068095Y-63871190D01*
X226591904Y-63347381D02*
X227068095Y-63347381D01*
X227115714Y-63823571D01*
X227068095Y-63775952D01*
X226972857Y-63728333D01*
X226734761Y-63728333D01*
X226639523Y-63775952D01*
X226591904Y-63823571D01*
X226544285Y-63918810D01*
X226544285Y-64156905D01*
X226591904Y-64252143D01*
X226639523Y-64299762D01*
X226734761Y-64347381D01*
X226972857Y-64347381D01*
X227068095Y-64299762D01*
X227115714Y-64252143D01*
X234481666Y-57207381D02*
X234815000Y-56731190D01*
X235053095Y-57207381D02*
X235053095Y-56207381D01*
X234672142Y-56207381D01*
X234576904Y-56255000D01*
X234529285Y-56302619D01*
X234481666Y-56397857D01*
X234481666Y-56540714D01*
X234529285Y-56635952D01*
X234576904Y-56683571D01*
X234672142Y-56731190D01*
X235053095Y-56731190D01*
X233624523Y-56540714D02*
X233624523Y-57207381D01*
X233862619Y-56159762D02*
X234100714Y-56874048D01*
X233481666Y-56874048D01*
X227496666Y-61807381D02*
X227830000Y-61331190D01*
X228068095Y-61807381D02*
X228068095Y-60807381D01*
X227687142Y-60807381D01*
X227591904Y-60855000D01*
X227544285Y-60902619D01*
X227496666Y-60997857D01*
X227496666Y-61140714D01*
X227544285Y-61235952D01*
X227591904Y-61283571D01*
X227687142Y-61331190D01*
X228068095Y-61331190D01*
X227163333Y-60807381D02*
X226544285Y-60807381D01*
X226877619Y-61188333D01*
X226734761Y-61188333D01*
X226639523Y-61235952D01*
X226591904Y-61283571D01*
X226544285Y-61378810D01*
X226544285Y-61616905D01*
X226591904Y-61712143D01*
X226639523Y-61759762D01*
X226734761Y-61807381D01*
X227020476Y-61807381D01*
X227115714Y-61759762D01*
X227163333Y-61712143D01*
X234481666Y-54667381D02*
X234815000Y-54191190D01*
X235053095Y-54667381D02*
X235053095Y-53667381D01*
X234672142Y-53667381D01*
X234576904Y-53715000D01*
X234529285Y-53762619D01*
X234481666Y-53857857D01*
X234481666Y-54000714D01*
X234529285Y-54095952D01*
X234576904Y-54143571D01*
X234672142Y-54191190D01*
X235053095Y-54191190D01*
X234100714Y-53762619D02*
X234053095Y-53715000D01*
X233957857Y-53667381D01*
X233719761Y-53667381D01*
X233624523Y-53715000D01*
X233576904Y-53762619D01*
X233529285Y-53857857D01*
X233529285Y-53953095D01*
X233576904Y-54095952D01*
X234148333Y-54667381D01*
X233529285Y-54667381D01*
X227496666Y-59267381D02*
X227830000Y-58791190D01*
X228068095Y-59267381D02*
X228068095Y-58267381D01*
X227687142Y-58267381D01*
X227591904Y-58315000D01*
X227544285Y-58362619D01*
X227496666Y-58457857D01*
X227496666Y-58600714D01*
X227544285Y-58695952D01*
X227591904Y-58743571D01*
X227687142Y-58791190D01*
X228068095Y-58791190D01*
X226544285Y-59267381D02*
X227115714Y-59267381D01*
X226830000Y-59267381D02*
X226830000Y-58267381D01*
X226925238Y-58410238D01*
X227020476Y-58505476D01*
X227115714Y-58553095D01*
X252261666Y-59267381D02*
X252595000Y-58791190D01*
X252833095Y-59267381D02*
X252833095Y-58267381D01*
X252452142Y-58267381D01*
X252356904Y-58315000D01*
X252309285Y-58362619D01*
X252261666Y-58457857D01*
X252261666Y-58600714D01*
X252309285Y-58695952D01*
X252356904Y-58743571D01*
X252452142Y-58791190D01*
X252833095Y-58791190D01*
X251309285Y-59267381D02*
X251880714Y-59267381D01*
X251595000Y-59267381D02*
X251595000Y-58267381D01*
X251690238Y-58410238D01*
X251785476Y-58505476D01*
X251880714Y-58553095D01*
X259246666Y-54667381D02*
X259580000Y-54191190D01*
X259818095Y-54667381D02*
X259818095Y-53667381D01*
X259437142Y-53667381D01*
X259341904Y-53715000D01*
X259294285Y-53762619D01*
X259246666Y-53857857D01*
X259246666Y-54000714D01*
X259294285Y-54095952D01*
X259341904Y-54143571D01*
X259437142Y-54191190D01*
X259818095Y-54191190D01*
X258865714Y-53762619D02*
X258818095Y-53715000D01*
X258722857Y-53667381D01*
X258484761Y-53667381D01*
X258389523Y-53715000D01*
X258341904Y-53762619D01*
X258294285Y-53857857D01*
X258294285Y-53953095D01*
X258341904Y-54095952D01*
X258913333Y-54667381D01*
X258294285Y-54667381D01*
X252261666Y-61807381D02*
X252595000Y-61331190D01*
X252833095Y-61807381D02*
X252833095Y-60807381D01*
X252452142Y-60807381D01*
X252356904Y-60855000D01*
X252309285Y-60902619D01*
X252261666Y-60997857D01*
X252261666Y-61140714D01*
X252309285Y-61235952D01*
X252356904Y-61283571D01*
X252452142Y-61331190D01*
X252833095Y-61331190D01*
X251928333Y-60807381D02*
X251309285Y-60807381D01*
X251642619Y-61188333D01*
X251499761Y-61188333D01*
X251404523Y-61235952D01*
X251356904Y-61283571D01*
X251309285Y-61378810D01*
X251309285Y-61616905D01*
X251356904Y-61712143D01*
X251404523Y-61759762D01*
X251499761Y-61807381D01*
X251785476Y-61807381D01*
X251880714Y-61759762D01*
X251928333Y-61712143D01*
X259246666Y-57207381D02*
X259580000Y-56731190D01*
X259818095Y-57207381D02*
X259818095Y-56207381D01*
X259437142Y-56207381D01*
X259341904Y-56255000D01*
X259294285Y-56302619D01*
X259246666Y-56397857D01*
X259246666Y-56540714D01*
X259294285Y-56635952D01*
X259341904Y-56683571D01*
X259437142Y-56731190D01*
X259818095Y-56731190D01*
X258389523Y-56540714D02*
X258389523Y-57207381D01*
X258627619Y-56159762D02*
X258865714Y-56874048D01*
X258246666Y-56874048D01*
X252261666Y-64347381D02*
X252595000Y-63871190D01*
X252833095Y-64347381D02*
X252833095Y-63347381D01*
X252452142Y-63347381D01*
X252356904Y-63395000D01*
X252309285Y-63442619D01*
X252261666Y-63537857D01*
X252261666Y-63680714D01*
X252309285Y-63775952D01*
X252356904Y-63823571D01*
X252452142Y-63871190D01*
X252833095Y-63871190D01*
X251356904Y-63347381D02*
X251833095Y-63347381D01*
X251880714Y-63823571D01*
X251833095Y-63775952D01*
X251737857Y-63728333D01*
X251499761Y-63728333D01*
X251404523Y-63775952D01*
X251356904Y-63823571D01*
X251309285Y-63918810D01*
X251309285Y-64156905D01*
X251356904Y-64252143D01*
X251404523Y-64299762D01*
X251499761Y-64347381D01*
X251737857Y-64347381D01*
X251833095Y-64299762D01*
X251880714Y-64252143D01*
X259246666Y-59747381D02*
X259580000Y-59271190D01*
X259818095Y-59747381D02*
X259818095Y-58747381D01*
X259437142Y-58747381D01*
X259341904Y-58795000D01*
X259294285Y-58842619D01*
X259246666Y-58937857D01*
X259246666Y-59080714D01*
X259294285Y-59175952D01*
X259341904Y-59223571D01*
X259437142Y-59271190D01*
X259818095Y-59271190D01*
X258389523Y-58747381D02*
X258580000Y-58747381D01*
X258675238Y-58795000D01*
X258722857Y-58842619D01*
X258818095Y-58985476D01*
X258865714Y-59175952D01*
X258865714Y-59556905D01*
X258818095Y-59652143D01*
X258770476Y-59699762D01*
X258675238Y-59747381D01*
X258484761Y-59747381D01*
X258389523Y-59699762D01*
X258341904Y-59652143D01*
X258294285Y-59556905D01*
X258294285Y-59318810D01*
X258341904Y-59223571D01*
X258389523Y-59175952D01*
X258484761Y-59128333D01*
X258675238Y-59128333D01*
X258770476Y-59175952D01*
X258818095Y-59223571D01*
X258865714Y-59318810D01*
X209716666Y-59747381D02*
X210050000Y-59271190D01*
X210288095Y-59747381D02*
X210288095Y-58747381D01*
X209907142Y-58747381D01*
X209811904Y-58795000D01*
X209764285Y-58842619D01*
X209716666Y-58937857D01*
X209716666Y-59080714D01*
X209764285Y-59175952D01*
X209811904Y-59223571D01*
X209907142Y-59271190D01*
X210288095Y-59271190D01*
X208859523Y-58747381D02*
X209050000Y-58747381D01*
X209145238Y-58795000D01*
X209192857Y-58842619D01*
X209288095Y-58985476D01*
X209335714Y-59175952D01*
X209335714Y-59556905D01*
X209288095Y-59652143D01*
X209240476Y-59699762D01*
X209145238Y-59747381D01*
X208954761Y-59747381D01*
X208859523Y-59699762D01*
X208811904Y-59652143D01*
X208764285Y-59556905D01*
X208764285Y-59318810D01*
X208811904Y-59223571D01*
X208859523Y-59175952D01*
X208954761Y-59128333D01*
X209145238Y-59128333D01*
X209240476Y-59175952D01*
X209288095Y-59223571D01*
X209335714Y-59318810D01*
X202731666Y-64347381D02*
X203065000Y-63871190D01*
X203303095Y-64347381D02*
X203303095Y-63347381D01*
X202922142Y-63347381D01*
X202826904Y-63395000D01*
X202779285Y-63442619D01*
X202731666Y-63537857D01*
X202731666Y-63680714D01*
X202779285Y-63775952D01*
X202826904Y-63823571D01*
X202922142Y-63871190D01*
X203303095Y-63871190D01*
X201826904Y-63347381D02*
X202303095Y-63347381D01*
X202350714Y-63823571D01*
X202303095Y-63775952D01*
X202207857Y-63728333D01*
X201969761Y-63728333D01*
X201874523Y-63775952D01*
X201826904Y-63823571D01*
X201779285Y-63918810D01*
X201779285Y-64156905D01*
X201826904Y-64252143D01*
X201874523Y-64299762D01*
X201969761Y-64347381D01*
X202207857Y-64347381D01*
X202303095Y-64299762D01*
X202350714Y-64252143D01*
X209716666Y-57207381D02*
X210050000Y-56731190D01*
X210288095Y-57207381D02*
X210288095Y-56207381D01*
X209907142Y-56207381D01*
X209811904Y-56255000D01*
X209764285Y-56302619D01*
X209716666Y-56397857D01*
X209716666Y-56540714D01*
X209764285Y-56635952D01*
X209811904Y-56683571D01*
X209907142Y-56731190D01*
X210288095Y-56731190D01*
X208859523Y-56540714D02*
X208859523Y-57207381D01*
X209097619Y-56159762D02*
X209335714Y-56874048D01*
X208716666Y-56874048D01*
X202731666Y-61807381D02*
X203065000Y-61331190D01*
X203303095Y-61807381D02*
X203303095Y-60807381D01*
X202922142Y-60807381D01*
X202826904Y-60855000D01*
X202779285Y-60902619D01*
X202731666Y-60997857D01*
X202731666Y-61140714D01*
X202779285Y-61235952D01*
X202826904Y-61283571D01*
X202922142Y-61331190D01*
X203303095Y-61331190D01*
X202398333Y-60807381D02*
X201779285Y-60807381D01*
X202112619Y-61188333D01*
X201969761Y-61188333D01*
X201874523Y-61235952D01*
X201826904Y-61283571D01*
X201779285Y-61378810D01*
X201779285Y-61616905D01*
X201826904Y-61712143D01*
X201874523Y-61759762D01*
X201969761Y-61807381D01*
X202255476Y-61807381D01*
X202350714Y-61759762D01*
X202398333Y-61712143D01*
X209716666Y-54667381D02*
X210050000Y-54191190D01*
X210288095Y-54667381D02*
X210288095Y-53667381D01*
X209907142Y-53667381D01*
X209811904Y-53715000D01*
X209764285Y-53762619D01*
X209716666Y-53857857D01*
X209716666Y-54000714D01*
X209764285Y-54095952D01*
X209811904Y-54143571D01*
X209907142Y-54191190D01*
X210288095Y-54191190D01*
X209335714Y-53762619D02*
X209288095Y-53715000D01*
X209192857Y-53667381D01*
X208954761Y-53667381D01*
X208859523Y-53715000D01*
X208811904Y-53762619D01*
X208764285Y-53857857D01*
X208764285Y-53953095D01*
X208811904Y-54095952D01*
X209383333Y-54667381D01*
X208764285Y-54667381D01*
X202731666Y-59267381D02*
X203065000Y-58791190D01*
X203303095Y-59267381D02*
X203303095Y-58267381D01*
X202922142Y-58267381D01*
X202826904Y-58315000D01*
X202779285Y-58362619D01*
X202731666Y-58457857D01*
X202731666Y-58600714D01*
X202779285Y-58695952D01*
X202826904Y-58743571D01*
X202922142Y-58791190D01*
X203303095Y-58791190D01*
X201779285Y-59267381D02*
X202350714Y-59267381D01*
X202065000Y-59267381D02*
X202065000Y-58267381D01*
X202160238Y-58410238D01*
X202255476Y-58505476D01*
X202350714Y-58553095D01*
X177966666Y-59267381D02*
X178300000Y-58791190D01*
X178538095Y-59267381D02*
X178538095Y-58267381D01*
X178157142Y-58267381D01*
X178061904Y-58315000D01*
X178014285Y-58362619D01*
X177966666Y-58457857D01*
X177966666Y-58600714D01*
X178014285Y-58695952D01*
X178061904Y-58743571D01*
X178157142Y-58791190D01*
X178538095Y-58791190D01*
X177014285Y-59267381D02*
X177585714Y-59267381D01*
X177300000Y-59267381D02*
X177300000Y-58267381D01*
X177395238Y-58410238D01*
X177490476Y-58505476D01*
X177585714Y-58553095D01*
X184951666Y-54667381D02*
X185285000Y-54191190D01*
X185523095Y-54667381D02*
X185523095Y-53667381D01*
X185142142Y-53667381D01*
X185046904Y-53715000D01*
X184999285Y-53762619D01*
X184951666Y-53857857D01*
X184951666Y-54000714D01*
X184999285Y-54095952D01*
X185046904Y-54143571D01*
X185142142Y-54191190D01*
X185523095Y-54191190D01*
X184570714Y-53762619D02*
X184523095Y-53715000D01*
X184427857Y-53667381D01*
X184189761Y-53667381D01*
X184094523Y-53715000D01*
X184046904Y-53762619D01*
X183999285Y-53857857D01*
X183999285Y-53953095D01*
X184046904Y-54095952D01*
X184618333Y-54667381D01*
X183999285Y-54667381D01*
X177966666Y-61807381D02*
X178300000Y-61331190D01*
X178538095Y-61807381D02*
X178538095Y-60807381D01*
X178157142Y-60807381D01*
X178061904Y-60855000D01*
X178014285Y-60902619D01*
X177966666Y-60997857D01*
X177966666Y-61140714D01*
X178014285Y-61235952D01*
X178061904Y-61283571D01*
X178157142Y-61331190D01*
X178538095Y-61331190D01*
X177633333Y-60807381D02*
X177014285Y-60807381D01*
X177347619Y-61188333D01*
X177204761Y-61188333D01*
X177109523Y-61235952D01*
X177061904Y-61283571D01*
X177014285Y-61378810D01*
X177014285Y-61616905D01*
X177061904Y-61712143D01*
X177109523Y-61759762D01*
X177204761Y-61807381D01*
X177490476Y-61807381D01*
X177585714Y-61759762D01*
X177633333Y-61712143D01*
X184951666Y-57207381D02*
X185285000Y-56731190D01*
X185523095Y-57207381D02*
X185523095Y-56207381D01*
X185142142Y-56207381D01*
X185046904Y-56255000D01*
X184999285Y-56302619D01*
X184951666Y-56397857D01*
X184951666Y-56540714D01*
X184999285Y-56635952D01*
X185046904Y-56683571D01*
X185142142Y-56731190D01*
X185523095Y-56731190D01*
X184094523Y-56540714D02*
X184094523Y-57207381D01*
X184332619Y-56159762D02*
X184570714Y-56874048D01*
X183951666Y-56874048D01*
X177966666Y-64347381D02*
X178300000Y-63871190D01*
X178538095Y-64347381D02*
X178538095Y-63347381D01*
X178157142Y-63347381D01*
X178061904Y-63395000D01*
X178014285Y-63442619D01*
X177966666Y-63537857D01*
X177966666Y-63680714D01*
X178014285Y-63775952D01*
X178061904Y-63823571D01*
X178157142Y-63871190D01*
X178538095Y-63871190D01*
X177061904Y-63347381D02*
X177538095Y-63347381D01*
X177585714Y-63823571D01*
X177538095Y-63775952D01*
X177442857Y-63728333D01*
X177204761Y-63728333D01*
X177109523Y-63775952D01*
X177061904Y-63823571D01*
X177014285Y-63918810D01*
X177014285Y-64156905D01*
X177061904Y-64252143D01*
X177109523Y-64299762D01*
X177204761Y-64347381D01*
X177442857Y-64347381D01*
X177538095Y-64299762D01*
X177585714Y-64252143D01*
X184951666Y-59747381D02*
X185285000Y-59271190D01*
X185523095Y-59747381D02*
X185523095Y-58747381D01*
X185142142Y-58747381D01*
X185046904Y-58795000D01*
X184999285Y-58842619D01*
X184951666Y-58937857D01*
X184951666Y-59080714D01*
X184999285Y-59175952D01*
X185046904Y-59223571D01*
X185142142Y-59271190D01*
X185523095Y-59271190D01*
X184094523Y-58747381D02*
X184285000Y-58747381D01*
X184380238Y-58795000D01*
X184427857Y-58842619D01*
X184523095Y-58985476D01*
X184570714Y-59175952D01*
X184570714Y-59556905D01*
X184523095Y-59652143D01*
X184475476Y-59699762D01*
X184380238Y-59747381D01*
X184189761Y-59747381D01*
X184094523Y-59699762D01*
X184046904Y-59652143D01*
X183999285Y-59556905D01*
X183999285Y-59318810D01*
X184046904Y-59223571D01*
X184094523Y-59175952D01*
X184189761Y-59128333D01*
X184380238Y-59128333D01*
X184475476Y-59175952D01*
X184523095Y-59223571D01*
X184570714Y-59318810D01*
M02*
