G04 #@! TF.FileFunction,Copper,L1,Top,Signal*
%FSLAX46Y46*%
G04 Gerber Fmt 4.6, Leading zero omitted, Abs format (unit mm)*
G04 Created by KiCad (PCBNEW 4.0.5+dfsg1-4) date Fri Sep 22 17:31:14 2017*
%MOMM*%
%LPD*%
G01*
G04 APERTURE LIST*
%ADD10C,0.100000*%
%ADD11C,3.200000*%
%ADD12R,1.700000X1.700000*%
%ADD13O,1.700000X1.700000*%
%ADD14R,1.900000X2.000000*%
%ADD15C,1.900000*%
%ADD16R,2.032000X2.032000*%
%ADD17O,2.032000X2.032000*%
%ADD18R,2.032000X1.727200*%
%ADD19O,2.032000X1.727200*%
%ADD20C,1.500000*%
%ADD21C,0.800000*%
%ADD22C,0.500000*%
%ADD23C,0.800000*%
G04 APERTURE END LIST*
D10*
D11*
X112395000Y-83820000D03*
X68580000Y-83820000D03*
X112395000Y-33655000D03*
X59055000Y-31750000D03*
X74930000Y-31750000D03*
D12*
X81994300Y-80481300D03*
D13*
X81994300Y-83021300D03*
X81994300Y-85561300D03*
D12*
X41354300Y-80481300D03*
D13*
X41354300Y-83021300D03*
X41354300Y-85561300D03*
D12*
X46434300Y-77941300D03*
D13*
X48974300Y-77941300D03*
D12*
X81994300Y-124931300D03*
D13*
X81994300Y-122391300D03*
X81994300Y-119851300D03*
D12*
X41354300Y-124931300D03*
D13*
X41354300Y-122391300D03*
X41354300Y-119851300D03*
D12*
X44529300Y-89371300D03*
D13*
X44529300Y-91911300D03*
X44529300Y-94451300D03*
X44529300Y-96991300D03*
X44529300Y-99531300D03*
X44529300Y-104611300D03*
X44529300Y-107151300D03*
X44529300Y-109691300D03*
X44529300Y-112231300D03*
X44529300Y-114771300D03*
X44529300Y-119851300D03*
X44529300Y-122391300D03*
X44529300Y-124931300D03*
D12*
X54054300Y-89371300D03*
D13*
X54054300Y-91911300D03*
X54054300Y-94451300D03*
X54054300Y-96991300D03*
X54054300Y-99531300D03*
X54054300Y-104611300D03*
X54054300Y-107151300D03*
X54054300Y-109691300D03*
X54054300Y-112231300D03*
X54054300Y-114771300D03*
X54054300Y-119851300D03*
X54054300Y-122391300D03*
X54054300Y-124931300D03*
D12*
X60404300Y-89371300D03*
D13*
X60404300Y-91911300D03*
X60404300Y-94451300D03*
X60404300Y-96991300D03*
X60404300Y-99531300D03*
X60404300Y-104611300D03*
X60404300Y-107151300D03*
X60404300Y-109691300D03*
X60404300Y-112231300D03*
X60404300Y-114771300D03*
X60404300Y-119851300D03*
X60404300Y-122391300D03*
X60404300Y-124931300D03*
D12*
X68024300Y-89371300D03*
D13*
X68024300Y-91911300D03*
X68024300Y-94451300D03*
X68024300Y-96991300D03*
X68024300Y-99531300D03*
X68024300Y-104611300D03*
X68024300Y-107151300D03*
X68024300Y-109691300D03*
X68024300Y-112231300D03*
X68024300Y-114771300D03*
X68024300Y-119851300D03*
X68024300Y-122391300D03*
X68024300Y-124931300D03*
D12*
X78184300Y-89371300D03*
D13*
X78184300Y-91911300D03*
X78184300Y-94451300D03*
X78184300Y-96991300D03*
X78184300Y-99531300D03*
X78184300Y-104611300D03*
X78184300Y-107151300D03*
X78184300Y-109691300D03*
X78184300Y-112231300D03*
X78184300Y-114771300D03*
X78184300Y-119851300D03*
X78184300Y-122391300D03*
X78184300Y-124931300D03*
D14*
X72723300Y-82386300D03*
D15*
X75263300Y-82386300D03*
D14*
X116723300Y-82386300D03*
D15*
X119263300Y-82386300D03*
D12*
X122184300Y-89371300D03*
D13*
X122184300Y-91911300D03*
X122184300Y-94451300D03*
X122184300Y-96991300D03*
X122184300Y-99531300D03*
X122184300Y-104611300D03*
X122184300Y-107151300D03*
X122184300Y-109691300D03*
X122184300Y-112231300D03*
X122184300Y-114771300D03*
X122184300Y-119851300D03*
X122184300Y-122391300D03*
X122184300Y-124931300D03*
D12*
X112024300Y-89371300D03*
D13*
X112024300Y-91911300D03*
X112024300Y-94451300D03*
X112024300Y-96991300D03*
X112024300Y-99531300D03*
X112024300Y-104611300D03*
X112024300Y-107151300D03*
X112024300Y-109691300D03*
X112024300Y-112231300D03*
X112024300Y-114771300D03*
X112024300Y-119851300D03*
X112024300Y-122391300D03*
X112024300Y-124931300D03*
D12*
X104404300Y-89371300D03*
D13*
X104404300Y-91911300D03*
X104404300Y-94451300D03*
X104404300Y-96991300D03*
X104404300Y-99531300D03*
X104404300Y-104611300D03*
X104404300Y-107151300D03*
X104404300Y-109691300D03*
X104404300Y-112231300D03*
X104404300Y-114771300D03*
X104404300Y-119851300D03*
X104404300Y-122391300D03*
X104404300Y-124931300D03*
D12*
X98054300Y-89371300D03*
D13*
X98054300Y-91911300D03*
X98054300Y-94451300D03*
X98054300Y-96991300D03*
X98054300Y-99531300D03*
X98054300Y-104611300D03*
X98054300Y-107151300D03*
X98054300Y-109691300D03*
X98054300Y-112231300D03*
X98054300Y-114771300D03*
X98054300Y-119851300D03*
X98054300Y-122391300D03*
X98054300Y-124931300D03*
D12*
X88529300Y-89371300D03*
D13*
X88529300Y-91911300D03*
X88529300Y-94451300D03*
X88529300Y-96991300D03*
X88529300Y-99531300D03*
X88529300Y-104611300D03*
X88529300Y-107151300D03*
X88529300Y-109691300D03*
X88529300Y-112231300D03*
X88529300Y-114771300D03*
X88529300Y-119851300D03*
X88529300Y-122391300D03*
X88529300Y-124931300D03*
D12*
X85354300Y-124931300D03*
D13*
X85354300Y-122391300D03*
X85354300Y-119851300D03*
D12*
X125994300Y-124931300D03*
D13*
X125994300Y-122391300D03*
X125994300Y-119851300D03*
D12*
X90434300Y-77941300D03*
D13*
X92974300Y-77941300D03*
D12*
X85354300Y-80481300D03*
D13*
X85354300Y-83021300D03*
X85354300Y-85561300D03*
D12*
X125994300Y-80481300D03*
D13*
X125994300Y-83021300D03*
X125994300Y-85561300D03*
D12*
X125994300Y-30481300D03*
D13*
X125994300Y-33021300D03*
X125994300Y-35561300D03*
D12*
X85354300Y-30481300D03*
D13*
X85354300Y-33021300D03*
X85354300Y-35561300D03*
D12*
X90434300Y-27941300D03*
D13*
X92974300Y-27941300D03*
D12*
X125994300Y-74931300D03*
D13*
X125994300Y-72391300D03*
X125994300Y-69851300D03*
D12*
X85354300Y-74931300D03*
D13*
X85354300Y-72391300D03*
X85354300Y-69851300D03*
D12*
X88529300Y-39371300D03*
D13*
X88529300Y-41911300D03*
X88529300Y-44451300D03*
X88529300Y-46991300D03*
X88529300Y-49531300D03*
X88529300Y-54611300D03*
X88529300Y-57151300D03*
X88529300Y-59691300D03*
X88529300Y-62231300D03*
X88529300Y-64771300D03*
X88529300Y-69851300D03*
X88529300Y-72391300D03*
X88529300Y-74931300D03*
D12*
X98054300Y-39371300D03*
D13*
X98054300Y-41911300D03*
X98054300Y-44451300D03*
X98054300Y-46991300D03*
X98054300Y-49531300D03*
X98054300Y-54611300D03*
X98054300Y-57151300D03*
X98054300Y-59691300D03*
X98054300Y-62231300D03*
X98054300Y-64771300D03*
X98054300Y-69851300D03*
X98054300Y-72391300D03*
X98054300Y-74931300D03*
D12*
X104404300Y-39371300D03*
D13*
X104404300Y-41911300D03*
X104404300Y-44451300D03*
X104404300Y-46991300D03*
X104404300Y-49531300D03*
X104404300Y-54611300D03*
X104404300Y-57151300D03*
X104404300Y-59691300D03*
X104404300Y-62231300D03*
X104404300Y-64771300D03*
X104404300Y-69851300D03*
X104404300Y-72391300D03*
X104404300Y-74931300D03*
D12*
X112024300Y-39371300D03*
D13*
X112024300Y-41911300D03*
X112024300Y-44451300D03*
X112024300Y-46991300D03*
X112024300Y-49531300D03*
X112024300Y-54611300D03*
X112024300Y-57151300D03*
X112024300Y-59691300D03*
X112024300Y-62231300D03*
X112024300Y-64771300D03*
X112024300Y-69851300D03*
X112024300Y-72391300D03*
X112024300Y-74931300D03*
D12*
X122184300Y-39371300D03*
D13*
X122184300Y-41911300D03*
X122184300Y-44451300D03*
X122184300Y-46991300D03*
X122184300Y-49531300D03*
X122184300Y-54611300D03*
X122184300Y-57151300D03*
X122184300Y-59691300D03*
X122184300Y-62231300D03*
X122184300Y-64771300D03*
X122184300Y-69851300D03*
X122184300Y-72391300D03*
X122184300Y-74931300D03*
D14*
X116723300Y-32386300D03*
D15*
X119263300Y-32386300D03*
D16*
X64750000Y-28250000D03*
D17*
X62210000Y-28250000D03*
D18*
X81915000Y-35560000D03*
D19*
X81915000Y-33020000D03*
X81915000Y-30480000D03*
D12*
X62230000Y-39370000D03*
D13*
X62230000Y-41910000D03*
X62230000Y-44450000D03*
X62230000Y-46990000D03*
X62230000Y-49530000D03*
X62230000Y-54610000D03*
X62230000Y-57150000D03*
X62230000Y-59690000D03*
X62230000Y-62230000D03*
X62230000Y-64770000D03*
X62230000Y-69850000D03*
X62230000Y-72390000D03*
X62230000Y-74930000D03*
D12*
X74295000Y-39370000D03*
D13*
X74295000Y-41910000D03*
X74295000Y-44450000D03*
X74295000Y-46990000D03*
X74295000Y-49530000D03*
X74295000Y-54610000D03*
X74295000Y-57150000D03*
X74295000Y-59690000D03*
X74295000Y-62230000D03*
X74295000Y-64770000D03*
X74295000Y-69850000D03*
X74295000Y-72390000D03*
X74295000Y-74930000D03*
D18*
X81915000Y-74930000D03*
D19*
X81915000Y-72390000D03*
X81915000Y-69850000D03*
D18*
X57785000Y-74930000D03*
D19*
X57785000Y-72390000D03*
X57785000Y-69850000D03*
D20*
X57864300Y-102325300D03*
X49228300Y-86704300D03*
X49228300Y-82386300D03*
X49228300Y-90895300D03*
X49228300Y-97753300D03*
X49228300Y-111723300D03*
X93228300Y-111723300D03*
X93228300Y-97753300D03*
X93228300Y-90895300D03*
X93228300Y-82386300D03*
X93228300Y-86704300D03*
X101864300Y-102325300D03*
X101864300Y-52325300D03*
X93228300Y-36704300D03*
X93228300Y-32386300D03*
X93228300Y-40895300D03*
X93228300Y-47753300D03*
X93228300Y-61723300D03*
D21*
X50844300Y-80931300D03*
X94844300Y-80931300D03*
X94844300Y-30931300D03*
D20*
X62944300Y-106135300D03*
X106944300Y-106135300D03*
X79375000Y-67945000D03*
X106944300Y-56135300D03*
X67310000Y-69850000D03*
D21*
X64214300Y-114771300D03*
X108214300Y-114771300D03*
X108214300Y-64771300D03*
X74374300Y-108929300D03*
X73104300Y-100547300D03*
X117104300Y-100547300D03*
X118374300Y-108929300D03*
X118374300Y-58929300D03*
X117104300Y-50547300D03*
X71755000Y-52070000D03*
D22*
X44529300Y-114771300D02*
X44148300Y-114771300D01*
X44148300Y-114771300D02*
X42624300Y-113247300D01*
X42624300Y-113247300D02*
X42624300Y-95467300D01*
X42624300Y-95467300D02*
X43640300Y-94451300D01*
X43640300Y-94451300D02*
X44529300Y-94451300D01*
X87640300Y-94451300D02*
X88529300Y-94451300D01*
X86624300Y-95467300D02*
X87640300Y-94451300D01*
X86624300Y-113247300D02*
X86624300Y-95467300D01*
X88148300Y-114771300D02*
X86624300Y-113247300D01*
X88529300Y-114771300D02*
X88148300Y-114771300D01*
X88529300Y-64771300D02*
X88148300Y-64771300D01*
X88148300Y-64771300D02*
X86624300Y-63247300D01*
X86624300Y-63247300D02*
X86624300Y-45467300D01*
X86624300Y-45467300D02*
X87640300Y-44451300D01*
X87640300Y-44451300D02*
X88529300Y-44451300D01*
D23*
X62230000Y-72390000D02*
X57785000Y-72390000D01*
X81994300Y-122391300D02*
X85354300Y-122391300D01*
X59642300Y-122391300D02*
X57864300Y-120613300D01*
X57864300Y-118581300D02*
X57864300Y-120613300D01*
X57864300Y-118581300D02*
X57864300Y-102325300D01*
X59642300Y-122391300D02*
X60404300Y-122391300D01*
X44529300Y-122391300D02*
X44148300Y-122391300D01*
X44148300Y-122391300D02*
X42878300Y-121121300D01*
X42878300Y-121121300D02*
X42878300Y-118327300D01*
X44529300Y-122391300D02*
X54054300Y-122391300D01*
X49228300Y-86704300D02*
X49228300Y-82386300D01*
X49228300Y-97753300D02*
X49228300Y-90895300D01*
X49228300Y-111723300D02*
X49228300Y-97753300D01*
X49228300Y-115279300D02*
X49228300Y-111723300D01*
X47450300Y-117057300D02*
X49228300Y-115279300D01*
X44148300Y-117057300D02*
X47450300Y-117057300D01*
X42878300Y-118327300D02*
X44148300Y-117057300D01*
X86878300Y-118327300D02*
X88148300Y-117057300D01*
X88148300Y-117057300D02*
X91450300Y-117057300D01*
X91450300Y-117057300D02*
X93228300Y-115279300D01*
X93228300Y-115279300D02*
X93228300Y-111723300D01*
X93228300Y-111723300D02*
X93228300Y-97753300D01*
X93228300Y-97753300D02*
X93228300Y-90895300D01*
X93228300Y-86704300D02*
X93228300Y-82386300D01*
X88529300Y-122391300D02*
X98054300Y-122391300D01*
X86878300Y-121121300D02*
X86878300Y-118327300D01*
X88148300Y-122391300D02*
X86878300Y-121121300D01*
X88529300Y-122391300D02*
X88148300Y-122391300D01*
X103642300Y-122391300D02*
X104404300Y-122391300D01*
X101864300Y-118581300D02*
X101864300Y-102325300D01*
X101864300Y-118581300D02*
X101864300Y-120613300D01*
X103642300Y-122391300D02*
X101864300Y-120613300D01*
X85354300Y-72391300D02*
X81916300Y-72391300D01*
X81916300Y-72391300D02*
X81915000Y-72390000D01*
X62230000Y-72390000D02*
X74295000Y-72390000D01*
X103642300Y-72391300D02*
X101864300Y-70613300D01*
X101864300Y-68581300D02*
X101864300Y-70613300D01*
X101864300Y-68581300D02*
X101864300Y-52325300D01*
X103642300Y-72391300D02*
X104404300Y-72391300D01*
X88529300Y-72391300D02*
X88148300Y-72391300D01*
X88148300Y-72391300D02*
X86878300Y-71121300D01*
X86878300Y-71121300D02*
X86878300Y-68327300D01*
X88529300Y-72391300D02*
X98054300Y-72391300D01*
X93228300Y-36704300D02*
X93228300Y-32386300D01*
X93228300Y-47753300D02*
X93228300Y-40895300D01*
X93228300Y-61723300D02*
X93228300Y-47753300D01*
X93228300Y-65279300D02*
X93228300Y-61723300D01*
X91450300Y-67057300D02*
X93228300Y-65279300D01*
X88148300Y-67057300D02*
X91450300Y-67057300D01*
X86878300Y-68327300D02*
X88148300Y-67057300D01*
D22*
X51768300Y-96483300D02*
X51768300Y-112739300D01*
X54054300Y-94451300D02*
X58372300Y-94451300D01*
X60404300Y-104611300D02*
X60404300Y-102071300D01*
X60404300Y-102071300D02*
X58372300Y-100039300D01*
X58372300Y-100039300D02*
X58372300Y-94451300D01*
X58880300Y-89371300D02*
X60404300Y-89371300D01*
X58372300Y-94451300D02*
X58372300Y-89879300D01*
X58372300Y-89879300D02*
X58880300Y-89371300D01*
X48974300Y-77941300D02*
X50354300Y-77941300D01*
X60404300Y-87991300D02*
X60404300Y-89371300D01*
X50354300Y-77941300D02*
X60404300Y-87991300D01*
X68278300Y-104357300D02*
X69294300Y-104357300D01*
X80470300Y-100547300D02*
X80470300Y-94451300D01*
X78946300Y-102071300D02*
X80470300Y-100547300D01*
X77422300Y-102071300D02*
X78946300Y-102071300D01*
X75136300Y-104357300D02*
X77422300Y-102071300D01*
X69294300Y-104357300D02*
X75136300Y-104357300D01*
X68278300Y-104357300D02*
X68024300Y-104611300D01*
X68024300Y-89371300D02*
X75136300Y-89371300D01*
X60404300Y-89371300D02*
X68024300Y-89371300D01*
X80470300Y-94451300D02*
X78184300Y-94451300D01*
X48974300Y-77941300D02*
X48974300Y-78195300D01*
X59769300Y-104611300D02*
X60404300Y-104611300D01*
X54054300Y-94451300D02*
X53800300Y-94451300D01*
X53800300Y-94451300D02*
X51768300Y-96483300D01*
X51768300Y-112739300D02*
X53800300Y-114771300D01*
X53800300Y-114771300D02*
X54054300Y-114771300D01*
X79200300Y-87339300D02*
X80470300Y-88609300D01*
X80470300Y-88609300D02*
X80470300Y-94451300D01*
X75263300Y-82386300D02*
X75263300Y-85434300D01*
X75263300Y-85434300D02*
X77168300Y-87339300D01*
X75136300Y-89371300D02*
X77168300Y-87339300D01*
X77168300Y-87339300D02*
X79200300Y-87339300D01*
X121168300Y-87339300D02*
X123200300Y-87339300D01*
X119136300Y-89371300D02*
X121168300Y-87339300D01*
X119263300Y-85434300D02*
X121168300Y-87339300D01*
X119263300Y-82386300D02*
X119263300Y-85434300D01*
X124470300Y-88609300D02*
X124470300Y-94451300D01*
X123200300Y-87339300D02*
X124470300Y-88609300D01*
X97800300Y-114771300D02*
X98054300Y-114771300D01*
X95768300Y-112739300D02*
X97800300Y-114771300D01*
X97800300Y-94451300D02*
X95768300Y-96483300D01*
X98054300Y-94451300D02*
X97800300Y-94451300D01*
X103769300Y-104611300D02*
X104404300Y-104611300D01*
X92974300Y-77941300D02*
X92974300Y-78195300D01*
X124470300Y-94451300D02*
X122184300Y-94451300D01*
X104404300Y-89371300D02*
X112024300Y-89371300D01*
X112024300Y-89371300D02*
X119136300Y-89371300D01*
X112278300Y-104357300D02*
X112024300Y-104611300D01*
X113294300Y-104357300D02*
X119136300Y-104357300D01*
X119136300Y-104357300D02*
X121422300Y-102071300D01*
X121422300Y-102071300D02*
X122946300Y-102071300D01*
X122946300Y-102071300D02*
X124470300Y-100547300D01*
X124470300Y-100547300D02*
X124470300Y-94451300D01*
X112278300Y-104357300D02*
X113294300Y-104357300D01*
X94354300Y-77941300D02*
X104404300Y-87991300D01*
X104404300Y-87991300D02*
X104404300Y-89371300D01*
X92974300Y-77941300D02*
X94354300Y-77941300D01*
X102372300Y-89879300D02*
X102880300Y-89371300D01*
X102372300Y-94451300D02*
X102372300Y-89879300D01*
X102880300Y-89371300D02*
X104404300Y-89371300D01*
X102372300Y-100039300D02*
X102372300Y-94451300D01*
X104404300Y-102071300D02*
X102372300Y-100039300D01*
X104404300Y-104611300D02*
X104404300Y-102071300D01*
X98054300Y-94451300D02*
X102372300Y-94451300D01*
X95768300Y-96483300D02*
X95768300Y-112739300D01*
X95768300Y-46483300D02*
X95768300Y-62739300D01*
X98054300Y-44451300D02*
X102372300Y-44451300D01*
X104404300Y-54611300D02*
X104404300Y-52071300D01*
X104404300Y-52071300D02*
X102372300Y-50039300D01*
X102372300Y-50039300D02*
X102372300Y-44451300D01*
X102880300Y-39371300D02*
X104404300Y-39371300D01*
X102372300Y-44451300D02*
X102372300Y-39879300D01*
X102372300Y-39879300D02*
X102880300Y-39371300D01*
X92974300Y-27941300D02*
X94354300Y-27941300D01*
X104404300Y-37991300D02*
X104404300Y-39371300D01*
X94354300Y-27941300D02*
X104404300Y-37991300D01*
X112278300Y-54357300D02*
X113294300Y-54357300D01*
X124470300Y-50547300D02*
X124470300Y-44451300D01*
X122946300Y-52071300D02*
X124470300Y-50547300D01*
X121422300Y-52071300D02*
X122946300Y-52071300D01*
X119136300Y-54357300D02*
X121422300Y-52071300D01*
X113294300Y-54357300D02*
X119136300Y-54357300D01*
X112278300Y-54357300D02*
X112024300Y-54611300D01*
X112024300Y-39371300D02*
X119136300Y-39371300D01*
X104404300Y-39371300D02*
X112024300Y-39371300D01*
X124470300Y-44451300D02*
X122184300Y-44451300D01*
X92974300Y-27941300D02*
X92974300Y-28195300D01*
X103769300Y-54611300D02*
X104404300Y-54611300D01*
X98054300Y-44451300D02*
X97800300Y-44451300D01*
X97800300Y-44451300D02*
X95768300Y-46483300D01*
X95768300Y-62739300D02*
X97800300Y-64771300D01*
X97800300Y-64771300D02*
X98054300Y-64771300D01*
X123200300Y-37339300D02*
X124470300Y-38609300D01*
X124470300Y-38609300D02*
X124470300Y-44451300D01*
X119263300Y-32386300D02*
X119263300Y-35434300D01*
X119263300Y-35434300D02*
X121168300Y-37339300D01*
X119136300Y-39371300D02*
X121168300Y-37339300D01*
X121168300Y-37339300D02*
X123200300Y-37339300D01*
X81994300Y-80481300D02*
X85354300Y-80481300D01*
X41353000Y-80480000D02*
X41354300Y-80481300D01*
X44529300Y-89371300D02*
X44529300Y-82132300D01*
X42878300Y-80481300D02*
X41354300Y-80481300D01*
X44529300Y-82132300D02*
X42878300Y-80481300D01*
X88529300Y-82132300D02*
X86878300Y-80481300D01*
X88529300Y-89371300D02*
X88529300Y-82132300D01*
X86878300Y-80481300D02*
X85354300Y-80481300D01*
X85353000Y-80480000D02*
X85354300Y-80481300D01*
X81915000Y-30480000D02*
X85353000Y-30480000D01*
X85353000Y-30480000D02*
X85354300Y-30481300D01*
X81915000Y-30480000D02*
X79375000Y-30480000D01*
X76200000Y-49530000D02*
X74295000Y-49530000D01*
X77470000Y-48260000D02*
X76200000Y-49530000D01*
X77470000Y-32385000D02*
X77470000Y-48260000D01*
X79375000Y-30480000D02*
X77470000Y-32385000D01*
X88529300Y-39371300D02*
X88529300Y-32132300D01*
X86878300Y-30481300D02*
X85354300Y-30481300D01*
X88529300Y-32132300D02*
X86878300Y-30481300D01*
X85354300Y-83021300D02*
X81994300Y-83021300D01*
X54054300Y-84141300D02*
X50844300Y-80931300D01*
X54054300Y-89371300D02*
X54054300Y-84141300D01*
X98054300Y-89371300D02*
X98054300Y-84141300D01*
X98054300Y-84141300D02*
X94844300Y-80931300D01*
X85354300Y-33021300D02*
X81916300Y-33021300D01*
X98054300Y-34141300D02*
X94844300Y-30931300D01*
X81916300Y-33021300D02*
X81915000Y-33020000D01*
X74295000Y-64770000D02*
X76200000Y-64770000D01*
X80645000Y-33020000D02*
X81915000Y-33020000D01*
X79375000Y-34290000D02*
X80645000Y-33020000D01*
X79375000Y-61595000D02*
X79375000Y-34290000D01*
X76200000Y-64770000D02*
X79375000Y-61595000D01*
X98054300Y-39371300D02*
X98054300Y-34141300D01*
X81994300Y-85561300D02*
X85354300Y-85561300D01*
X41353000Y-85560000D02*
X41354300Y-85561300D01*
X85353000Y-85560000D02*
X85354300Y-85561300D01*
X81915000Y-35560000D02*
X85353000Y-35560000D01*
X85353000Y-35560000D02*
X85354300Y-35561300D01*
X49609300Y-88736300D02*
X46434300Y-88736300D01*
X46434300Y-96356300D02*
X46434300Y-88736300D01*
X54054300Y-91911300D02*
X52784300Y-91911300D01*
X52784300Y-91911300D02*
X49609300Y-88736300D01*
X44529300Y-96991300D02*
X45799300Y-96991300D01*
X46434300Y-88736300D02*
X46434300Y-77941300D01*
X45799300Y-96991300D02*
X46434300Y-96356300D01*
X89799300Y-96991300D02*
X90434300Y-96356300D01*
X90434300Y-88736300D02*
X90434300Y-77941300D01*
X88529300Y-96991300D02*
X89799300Y-96991300D01*
X96784300Y-91911300D02*
X93609300Y-88736300D01*
X98054300Y-91911300D02*
X96784300Y-91911300D01*
X90434300Y-96356300D02*
X90434300Y-88736300D01*
X93609300Y-88736300D02*
X90434300Y-88736300D01*
X93609300Y-38736300D02*
X90434300Y-38736300D01*
X90434300Y-46356300D02*
X90434300Y-38736300D01*
X98054300Y-41911300D02*
X96784300Y-41911300D01*
X96784300Y-41911300D02*
X93609300Y-38736300D01*
X88529300Y-46991300D02*
X89799300Y-46991300D01*
X90434300Y-38736300D02*
X90434300Y-27941300D01*
X89799300Y-46991300D02*
X90434300Y-46356300D01*
D23*
X57785000Y-74930000D02*
X62230000Y-74930000D01*
X81994300Y-124931300D02*
X85354300Y-124931300D01*
X41353000Y-124930000D02*
X41354300Y-124931300D01*
X60404300Y-124931300D02*
X61928300Y-124931300D01*
X62944300Y-123915300D02*
X61928300Y-124931300D01*
X62944300Y-122391300D02*
X62944300Y-123915300D01*
X62944300Y-122391300D02*
X62944300Y-106135300D01*
X106944300Y-122391300D02*
X106944300Y-106135300D01*
X106944300Y-122391300D02*
X106944300Y-123915300D01*
X106944300Y-123915300D02*
X105928300Y-124931300D01*
X104404300Y-124931300D02*
X105928300Y-124931300D01*
X85353000Y-124930000D02*
X85354300Y-124931300D01*
X81915000Y-74930000D02*
X85353000Y-74930000D01*
X85353000Y-74930000D02*
X85354300Y-74931300D01*
X79375000Y-74930000D02*
X74295000Y-74930000D01*
X81915000Y-74930000D02*
X79375000Y-74930000D01*
X79375000Y-67945000D02*
X79375000Y-74930000D01*
X104404300Y-74931300D02*
X105928300Y-74931300D01*
X106944300Y-73915300D02*
X105928300Y-74931300D01*
X106944300Y-72391300D02*
X106944300Y-73915300D01*
X106944300Y-72391300D02*
X106944300Y-56135300D01*
X57785000Y-69850000D02*
X62230000Y-69850000D01*
X81994300Y-119851300D02*
X85354300Y-119851300D01*
X41353000Y-119850000D02*
X41354300Y-119851300D01*
X68024300Y-119851300D02*
X78184300Y-119851300D01*
X44529300Y-119851300D02*
X54054300Y-119851300D01*
X88529300Y-119851300D02*
X98054300Y-119851300D01*
X112024300Y-119851300D02*
X122184300Y-119851300D01*
X85353000Y-119850000D02*
X85354300Y-119851300D01*
X81915000Y-69850000D02*
X85353000Y-69850000D01*
X85353000Y-69850000D02*
X85354300Y-69851300D01*
X67310000Y-69850000D02*
X74295000Y-69850000D01*
X112024300Y-69851300D02*
X122184300Y-69851300D01*
X88529300Y-69851300D02*
X98054300Y-69851300D01*
D22*
X44529300Y-104611300D02*
X44529300Y-99531300D01*
X88529300Y-104611300D02*
X88529300Y-99531300D01*
X88529300Y-54611300D02*
X88529300Y-49531300D01*
X54054300Y-99531300D02*
X54054300Y-104611300D01*
X98054300Y-99531300D02*
X98054300Y-104611300D01*
X98054300Y-49531300D02*
X98054300Y-54611300D01*
X60404300Y-99531300D02*
X62690300Y-101817300D01*
X76914300Y-91911300D02*
X78184300Y-91911300D01*
X75136300Y-93689300D02*
X76914300Y-91911300D01*
X75136300Y-101055300D02*
X75136300Y-93689300D01*
X74374300Y-101817300D02*
X75136300Y-101055300D01*
X62690300Y-101817300D02*
X74374300Y-101817300D01*
X106690300Y-101817300D02*
X118374300Y-101817300D01*
X118374300Y-101817300D02*
X119136300Y-101055300D01*
X119136300Y-101055300D02*
X119136300Y-93689300D01*
X119136300Y-93689300D02*
X120914300Y-91911300D01*
X120914300Y-91911300D02*
X122184300Y-91911300D01*
X104404300Y-99531300D02*
X106690300Y-101817300D01*
X104404300Y-49531300D02*
X106690300Y-51817300D01*
X120914300Y-41911300D02*
X122184300Y-41911300D01*
X119136300Y-43689300D02*
X120914300Y-41911300D01*
X119136300Y-51055300D02*
X119136300Y-43689300D01*
X118374300Y-51817300D02*
X119136300Y-51055300D01*
X106690300Y-51817300D02*
X118374300Y-51817300D01*
X78184300Y-96991300D02*
X77168300Y-96991300D01*
X76406300Y-97753300D02*
X76406300Y-101309300D01*
X77168300Y-96991300D02*
X76406300Y-97753300D01*
X64214300Y-114771300D02*
X65484300Y-113501300D01*
X65484300Y-113501300D02*
X65484300Y-104357300D01*
X65484300Y-104357300D02*
X66754300Y-103087300D01*
X66754300Y-103087300D02*
X74628300Y-103087300D01*
X74628300Y-103087300D02*
X76406300Y-101309300D01*
X118628300Y-103087300D02*
X120406300Y-101309300D01*
X110754300Y-103087300D02*
X118628300Y-103087300D01*
X109484300Y-104357300D02*
X110754300Y-103087300D01*
X109484300Y-113501300D02*
X109484300Y-104357300D01*
X108214300Y-114771300D02*
X109484300Y-113501300D01*
X121168300Y-96991300D02*
X120406300Y-97753300D01*
X120406300Y-97753300D02*
X120406300Y-101309300D01*
X122184300Y-96991300D02*
X121168300Y-96991300D01*
X122184300Y-46991300D02*
X121168300Y-46991300D01*
X120406300Y-47753300D02*
X120406300Y-51309300D01*
X121168300Y-46991300D02*
X120406300Y-47753300D01*
X108214300Y-64771300D02*
X109484300Y-63501300D01*
X109484300Y-63501300D02*
X109484300Y-54357300D01*
X109484300Y-54357300D02*
X110754300Y-53087300D01*
X110754300Y-53087300D02*
X118628300Y-53087300D01*
X118628300Y-53087300D02*
X120406300Y-51309300D01*
X78184300Y-112231300D02*
X77676300Y-112231300D01*
X77676300Y-112231300D02*
X74374300Y-108929300D01*
X73104300Y-100547300D02*
X69040300Y-100547300D01*
X69040300Y-100547300D02*
X68024300Y-99531300D01*
X113040300Y-100547300D02*
X112024300Y-99531300D01*
X117104300Y-100547300D02*
X113040300Y-100547300D01*
X121676300Y-112231300D02*
X118374300Y-108929300D01*
X122184300Y-112231300D02*
X121676300Y-112231300D01*
X122184300Y-62231300D02*
X121676300Y-62231300D01*
X121676300Y-62231300D02*
X118374300Y-58929300D01*
X117104300Y-50547300D02*
X113040300Y-50547300D01*
X113040300Y-50547300D02*
X112024300Y-49531300D01*
X68024300Y-114771300D02*
X69294300Y-114771300D01*
X73104300Y-107151300D02*
X78184300Y-107151300D01*
X71072300Y-109183300D02*
X73104300Y-107151300D01*
X71072300Y-112993300D02*
X71072300Y-109183300D01*
X69294300Y-114771300D02*
X71072300Y-112993300D01*
X113294300Y-114771300D02*
X115072300Y-112993300D01*
X115072300Y-112993300D02*
X115072300Y-109183300D01*
X115072300Y-109183300D02*
X117104300Y-107151300D01*
X117104300Y-107151300D02*
X122184300Y-107151300D01*
X112024300Y-114771300D02*
X113294300Y-114771300D01*
X112024300Y-64771300D02*
X113294300Y-64771300D01*
X117104300Y-57151300D02*
X122184300Y-57151300D01*
X115072300Y-59183300D02*
X117104300Y-57151300D01*
X115072300Y-62993300D02*
X115072300Y-59183300D01*
X113294300Y-64771300D02*
X115072300Y-62993300D01*
X74295000Y-54610000D02*
X71755000Y-52070000D01*
X62230000Y-54610000D02*
X60325000Y-52705000D01*
X60960000Y-39370000D02*
X62230000Y-39370000D01*
X60325000Y-40005000D02*
X60960000Y-39370000D01*
X60325000Y-52705000D02*
X60325000Y-40005000D01*
X62230000Y-49530000D02*
X64770000Y-49530000D01*
X72390000Y-41910000D02*
X74295000Y-41910000D01*
X64770000Y-49530000D02*
X72390000Y-41910000D01*
X62230000Y-64770000D02*
X64770000Y-64770000D01*
X72390000Y-57150000D02*
X74295000Y-57150000D01*
X64770000Y-64770000D02*
X72390000Y-57150000D01*
M02*
