G04 #@! TF.FileFunction,Legend,Bot*
%FSLAX46Y46*%
G04 Gerber Fmt 4.6, Leading zero omitted, Abs format (unit mm)*
G04 Created by KiCad (PCBNEW 4.0.5+dfsg1-4) date Fri Sep 22 17:31:14 2017*
%MOMM*%
%LPD*%
G01*
G04 APERTURE LIST*
%ADD10C,0.100000*%
%ADD11C,0.200000*%
%ADD12C,0.120000*%
%ADD13C,0.150000*%
G04 APERTURE END LIST*
D10*
D11*
X83750000Y-126250000D02*
X83750000Y-26750000D01*
X56750000Y-76500000D02*
X127000000Y-76500000D01*
D12*
X46049300Y-96721300D02*
X46049300Y-94721300D01*
X48089300Y-94721300D02*
X48089300Y-96721300D01*
X50494300Y-96721300D02*
X50494300Y-94721300D01*
X52534300Y-94721300D02*
X52534300Y-96721300D01*
X52584300Y-89736300D02*
X52584300Y-87736300D01*
X50444300Y-87736300D02*
X50444300Y-89736300D01*
X48139300Y-89736300D02*
X48139300Y-87736300D01*
X45999300Y-87736300D02*
X45999300Y-89736300D01*
X45999300Y-101706300D02*
X45999300Y-103706300D01*
X48139300Y-103706300D02*
X48139300Y-101706300D01*
X50444300Y-101706300D02*
X50444300Y-103706300D01*
X52584300Y-103706300D02*
X52584300Y-101706300D01*
X48139300Y-110691300D02*
X48139300Y-108691300D01*
X45999300Y-108691300D02*
X45999300Y-110691300D01*
X52584300Y-110691300D02*
X52584300Y-108691300D01*
X50444300Y-108691300D02*
X50444300Y-110691300D01*
X48139300Y-117676300D02*
X48139300Y-115676300D01*
X45999300Y-115676300D02*
X45999300Y-117676300D01*
X52584300Y-117676300D02*
X52584300Y-115676300D01*
X50444300Y-115676300D02*
X50444300Y-117676300D01*
X64014300Y-103325300D02*
X64014300Y-101325300D01*
X61874300Y-101325300D02*
X61874300Y-103325300D01*
X74936300Y-97483300D02*
X74936300Y-95483300D01*
X72796300Y-95483300D02*
X72796300Y-97483300D01*
X58172300Y-92657300D02*
X58172300Y-90657300D01*
X56032300Y-90657300D02*
X56032300Y-92657300D01*
X72142300Y-97483300D02*
X72142300Y-95483300D01*
X70002300Y-95483300D02*
X70002300Y-97483300D01*
X58934300Y-99769300D02*
X58934300Y-97769300D01*
X56794300Y-97769300D02*
X56794300Y-99769300D01*
X66554300Y-103325300D02*
X66554300Y-101325300D01*
X64414300Y-101325300D02*
X64414300Y-103325300D01*
X56794300Y-104881300D02*
X56794300Y-106881300D01*
X58934300Y-106881300D02*
X58934300Y-104881300D01*
X66554300Y-110691300D02*
X66554300Y-108691300D01*
X64414300Y-108691300D02*
X64414300Y-110691300D01*
X61874300Y-108691300D02*
X61874300Y-110691300D01*
X64014300Y-110691300D02*
X64014300Y-108691300D01*
X74104300Y-110399300D02*
X72104300Y-110399300D01*
X72104300Y-112539300D02*
X74104300Y-112539300D01*
X55778300Y-111993300D02*
X55778300Y-113993300D01*
X57918300Y-113993300D02*
X57918300Y-111993300D01*
X74104300Y-113193300D02*
X72104300Y-113193300D01*
X72104300Y-115333300D02*
X74104300Y-115333300D01*
X72104300Y-107967300D02*
X74104300Y-107967300D01*
X74104300Y-105827300D02*
X72104300Y-105827300D01*
D13*
X59912300Y-82318300D02*
X61912300Y-82318300D01*
X61912300Y-80168300D02*
X59912300Y-80168300D01*
X103912300Y-82318300D02*
X105912300Y-82318300D01*
X105912300Y-80168300D02*
X103912300Y-80168300D01*
D12*
X116104300Y-107967300D02*
X118104300Y-107967300D01*
X118104300Y-105827300D02*
X116104300Y-105827300D01*
X118104300Y-113193300D02*
X116104300Y-113193300D01*
X116104300Y-115333300D02*
X118104300Y-115333300D01*
X99778300Y-111993300D02*
X99778300Y-113993300D01*
X101918300Y-113993300D02*
X101918300Y-111993300D01*
X118104300Y-110399300D02*
X116104300Y-110399300D01*
X116104300Y-112539300D02*
X118104300Y-112539300D01*
X105874300Y-108691300D02*
X105874300Y-110691300D01*
X108014300Y-110691300D02*
X108014300Y-108691300D01*
X110554300Y-110691300D02*
X110554300Y-108691300D01*
X108414300Y-108691300D02*
X108414300Y-110691300D01*
X100794300Y-104881300D02*
X100794300Y-106881300D01*
X102934300Y-106881300D02*
X102934300Y-104881300D01*
X110554300Y-103325300D02*
X110554300Y-101325300D01*
X108414300Y-101325300D02*
X108414300Y-103325300D01*
X102934300Y-99769300D02*
X102934300Y-97769300D01*
X100794300Y-97769300D02*
X100794300Y-99769300D01*
X116142300Y-97483300D02*
X116142300Y-95483300D01*
X114002300Y-95483300D02*
X114002300Y-97483300D01*
X102172300Y-92657300D02*
X102172300Y-90657300D01*
X100032300Y-90657300D02*
X100032300Y-92657300D01*
X118936300Y-97483300D02*
X118936300Y-95483300D01*
X116796300Y-95483300D02*
X116796300Y-97483300D01*
X108014300Y-103325300D02*
X108014300Y-101325300D01*
X105874300Y-101325300D02*
X105874300Y-103325300D01*
X96584300Y-117676300D02*
X96584300Y-115676300D01*
X94444300Y-115676300D02*
X94444300Y-117676300D01*
X92139300Y-117676300D02*
X92139300Y-115676300D01*
X89999300Y-115676300D02*
X89999300Y-117676300D01*
X96584300Y-110691300D02*
X96584300Y-108691300D01*
X94444300Y-108691300D02*
X94444300Y-110691300D01*
X92139300Y-110691300D02*
X92139300Y-108691300D01*
X89999300Y-108691300D02*
X89999300Y-110691300D01*
X94444300Y-101706300D02*
X94444300Y-103706300D01*
X96584300Y-103706300D02*
X96584300Y-101706300D01*
X89999300Y-101706300D02*
X89999300Y-103706300D01*
X92139300Y-103706300D02*
X92139300Y-101706300D01*
X92139300Y-89736300D02*
X92139300Y-87736300D01*
X89999300Y-87736300D02*
X89999300Y-89736300D01*
X96584300Y-89736300D02*
X96584300Y-87736300D01*
X94444300Y-87736300D02*
X94444300Y-89736300D01*
X94494300Y-96721300D02*
X94494300Y-94721300D01*
X96534300Y-94721300D02*
X96534300Y-96721300D01*
X90049300Y-96721300D02*
X90049300Y-94721300D01*
X92089300Y-94721300D02*
X92089300Y-96721300D01*
X90049300Y-46721300D02*
X90049300Y-44721300D01*
X92089300Y-44721300D02*
X92089300Y-46721300D01*
X94494300Y-46721300D02*
X94494300Y-44721300D01*
X96534300Y-44721300D02*
X96534300Y-46721300D01*
X96584300Y-39736300D02*
X96584300Y-37736300D01*
X94444300Y-37736300D02*
X94444300Y-39736300D01*
X92139300Y-39736300D02*
X92139300Y-37736300D01*
X89999300Y-37736300D02*
X89999300Y-39736300D01*
X89999300Y-51706300D02*
X89999300Y-53706300D01*
X92139300Y-53706300D02*
X92139300Y-51706300D01*
X94444300Y-51706300D02*
X94444300Y-53706300D01*
X96584300Y-53706300D02*
X96584300Y-51706300D01*
X92139300Y-60691300D02*
X92139300Y-58691300D01*
X89999300Y-58691300D02*
X89999300Y-60691300D01*
X96584300Y-60691300D02*
X96584300Y-58691300D01*
X94444300Y-58691300D02*
X94444300Y-60691300D01*
X92139300Y-67676300D02*
X92139300Y-65676300D01*
X89999300Y-65676300D02*
X89999300Y-67676300D01*
X96584300Y-67676300D02*
X96584300Y-65676300D01*
X94444300Y-65676300D02*
X94444300Y-67676300D01*
X108014300Y-53325300D02*
X108014300Y-51325300D01*
X105874300Y-51325300D02*
X105874300Y-53325300D01*
X118936300Y-47483300D02*
X118936300Y-45483300D01*
X116796300Y-45483300D02*
X116796300Y-47483300D01*
X102172300Y-42657300D02*
X102172300Y-40657300D01*
X100032300Y-40657300D02*
X100032300Y-42657300D01*
X116142300Y-47483300D02*
X116142300Y-45483300D01*
X114002300Y-45483300D02*
X114002300Y-47483300D01*
X102934300Y-49769300D02*
X102934300Y-47769300D01*
X100794300Y-47769300D02*
X100794300Y-49769300D01*
X110554300Y-53325300D02*
X110554300Y-51325300D01*
X108414300Y-51325300D02*
X108414300Y-53325300D01*
X100794300Y-54881300D02*
X100794300Y-56881300D01*
X102934300Y-56881300D02*
X102934300Y-54881300D01*
X110554300Y-60691300D02*
X110554300Y-58691300D01*
X108414300Y-58691300D02*
X108414300Y-60691300D01*
X105874300Y-58691300D02*
X105874300Y-60691300D01*
X108014300Y-60691300D02*
X108014300Y-58691300D01*
X118104300Y-60399300D02*
X116104300Y-60399300D01*
X116104300Y-62539300D02*
X118104300Y-62539300D01*
X99778300Y-61993300D02*
X99778300Y-63993300D01*
X101918300Y-63993300D02*
X101918300Y-61993300D01*
X118104300Y-63193300D02*
X116104300Y-63193300D01*
X116104300Y-65333300D02*
X118104300Y-65333300D01*
X116104300Y-57967300D02*
X118104300Y-57967300D01*
X118104300Y-55827300D02*
X116104300Y-55827300D01*
D13*
X103912300Y-32318300D02*
X105912300Y-32318300D01*
X105912300Y-30168300D02*
X103912300Y-30168300D01*
X68310000Y-40835000D02*
X66310000Y-40835000D01*
X66310000Y-42985000D02*
X68310000Y-42985000D01*
X68310000Y-43375000D02*
X66310000Y-43375000D01*
X66310000Y-45525000D02*
X68310000Y-45525000D01*
X80375000Y-43375000D02*
X78375000Y-43375000D01*
X78375000Y-45525000D02*
X80375000Y-45525000D01*
X68310000Y-45915000D02*
X66310000Y-45915000D01*
X66310000Y-48065000D02*
X68310000Y-48065000D01*
X80375000Y-45915000D02*
X78375000Y-45915000D01*
X78375000Y-48065000D02*
X80375000Y-48065000D01*
X68310000Y-56075000D02*
X66310000Y-56075000D01*
X66310000Y-58225000D02*
X68310000Y-58225000D01*
X68310000Y-58615000D02*
X66310000Y-58615000D01*
X66310000Y-60765000D02*
X68310000Y-60765000D01*
X80958000Y-62722000D02*
X80958000Y-60722000D01*
X78808000Y-60722000D02*
X78808000Y-62722000D01*
X68310000Y-61155000D02*
X66310000Y-61155000D01*
X66310000Y-63305000D02*
X68310000Y-63305000D01*
X78418000Y-65262000D02*
X78418000Y-63262000D01*
X76268000Y-63262000D02*
X76268000Y-65262000D01*
X80375000Y-38295000D02*
X78375000Y-38295000D01*
X78375000Y-40445000D02*
X80375000Y-40445000D01*
X49172681Y-92395681D02*
X49172681Y-91824252D01*
X49172681Y-92109966D02*
X48172681Y-92109966D01*
X48315538Y-92014728D01*
X48410776Y-91919490D01*
X48458395Y-91824252D01*
X48172681Y-93014728D02*
X48172681Y-93109967D01*
X48220300Y-93205205D01*
X48267919Y-93252824D01*
X48363157Y-93300443D01*
X48553633Y-93348062D01*
X48791729Y-93348062D01*
X48982205Y-93300443D01*
X49077443Y-93252824D01*
X49125062Y-93205205D01*
X49172681Y-93109967D01*
X49172681Y-93014728D01*
X49125062Y-92919490D01*
X49077443Y-92871871D01*
X48982205Y-92824252D01*
X48791729Y-92776633D01*
X48553633Y-92776633D01*
X48363157Y-92824252D01*
X48267919Y-92871871D01*
X48220300Y-92919490D01*
X48172681Y-93014728D01*
X48172681Y-93967109D02*
X48172681Y-94062348D01*
X48220300Y-94157586D01*
X48267919Y-94205205D01*
X48363157Y-94252824D01*
X48553633Y-94300443D01*
X48791729Y-94300443D01*
X48982205Y-94252824D01*
X49077443Y-94205205D01*
X49125062Y-94157586D01*
X49172681Y-94062348D01*
X49172681Y-93967109D01*
X49125062Y-93871871D01*
X49077443Y-93824252D01*
X48982205Y-93776633D01*
X48791729Y-93729014D01*
X48553633Y-93729014D01*
X48363157Y-93776633D01*
X48267919Y-93824252D01*
X48220300Y-93871871D01*
X48172681Y-93967109D01*
X48506014Y-94729014D02*
X49172681Y-94729014D01*
X48601252Y-94729014D02*
X48553633Y-94776633D01*
X48506014Y-94871871D01*
X48506014Y-95014729D01*
X48553633Y-95109967D01*
X48648871Y-95157586D01*
X49172681Y-95157586D01*
X48648871Y-95967110D02*
X48648871Y-95633776D01*
X49172681Y-95633776D02*
X48172681Y-95633776D01*
X48172681Y-96109967D01*
X50442681Y-93157681D02*
X50442681Y-92586252D01*
X50442681Y-92871966D02*
X49442681Y-92871966D01*
X49585538Y-92776728D01*
X49680776Y-92681490D01*
X49728395Y-92586252D01*
X49442681Y-93776728D02*
X49442681Y-93871967D01*
X49490300Y-93967205D01*
X49537919Y-94014824D01*
X49633157Y-94062443D01*
X49823633Y-94110062D01*
X50061729Y-94110062D01*
X50252205Y-94062443D01*
X50347443Y-94014824D01*
X50395062Y-93967205D01*
X50442681Y-93871967D01*
X50442681Y-93776728D01*
X50395062Y-93681490D01*
X50347443Y-93633871D01*
X50252205Y-93586252D01*
X50061729Y-93538633D01*
X49823633Y-93538633D01*
X49633157Y-93586252D01*
X49537919Y-93633871D01*
X49490300Y-93681490D01*
X49442681Y-93776728D01*
X49442681Y-94729109D02*
X49442681Y-94824348D01*
X49490300Y-94919586D01*
X49537919Y-94967205D01*
X49633157Y-95014824D01*
X49823633Y-95062443D01*
X50061729Y-95062443D01*
X50252205Y-95014824D01*
X50347443Y-94967205D01*
X50395062Y-94919586D01*
X50442681Y-94824348D01*
X50442681Y-94729109D01*
X50395062Y-94633871D01*
X50347443Y-94586252D01*
X50252205Y-94538633D01*
X50061729Y-94491014D01*
X49823633Y-94491014D01*
X49633157Y-94538633D01*
X49537919Y-94586252D01*
X49490300Y-94633871D01*
X49442681Y-94729109D01*
X49776014Y-95491014D02*
X50442681Y-95491014D01*
X49871252Y-95491014D02*
X49823633Y-95538633D01*
X49776014Y-95633871D01*
X49776014Y-95776729D01*
X49823633Y-95871967D01*
X49918871Y-95919586D01*
X50442681Y-95919586D01*
X49918871Y-96729110D02*
X49918871Y-96395776D01*
X50442681Y-96395776D02*
X49442681Y-96395776D01*
X49442681Y-96871967D01*
X51966681Y-83442062D02*
X51966681Y-82870633D01*
X51966681Y-83156347D02*
X50966681Y-83156347D01*
X51109538Y-83061109D01*
X51204776Y-82965871D01*
X51252395Y-82870633D01*
X50966681Y-84061109D02*
X50966681Y-84156348D01*
X51014300Y-84251586D01*
X51061919Y-84299205D01*
X51157157Y-84346824D01*
X51347633Y-84394443D01*
X51585729Y-84394443D01*
X51776205Y-84346824D01*
X51871443Y-84299205D01*
X51919062Y-84251586D01*
X51966681Y-84156348D01*
X51966681Y-84061109D01*
X51919062Y-83965871D01*
X51871443Y-83918252D01*
X51776205Y-83870633D01*
X51585729Y-83823014D01*
X51347633Y-83823014D01*
X51157157Y-83870633D01*
X51061919Y-83918252D01*
X51014300Y-83965871D01*
X50966681Y-84061109D01*
X51966681Y-84823014D02*
X50966681Y-84823014D01*
X51585729Y-84918252D02*
X51966681Y-85203967D01*
X51300014Y-85203967D02*
X51680967Y-84823014D01*
X47648681Y-83442062D02*
X47648681Y-82870633D01*
X47648681Y-83156347D02*
X46648681Y-83156347D01*
X46791538Y-83061109D01*
X46886776Y-82965871D01*
X46934395Y-82870633D01*
X46648681Y-84061109D02*
X46648681Y-84156348D01*
X46696300Y-84251586D01*
X46743919Y-84299205D01*
X46839157Y-84346824D01*
X47029633Y-84394443D01*
X47267729Y-84394443D01*
X47458205Y-84346824D01*
X47553443Y-84299205D01*
X47601062Y-84251586D01*
X47648681Y-84156348D01*
X47648681Y-84061109D01*
X47601062Y-83965871D01*
X47553443Y-83918252D01*
X47458205Y-83870633D01*
X47267729Y-83823014D01*
X47029633Y-83823014D01*
X46839157Y-83870633D01*
X46743919Y-83918252D01*
X46696300Y-83965871D01*
X46648681Y-84061109D01*
X47648681Y-84823014D02*
X46648681Y-84823014D01*
X47267729Y-84918252D02*
X47648681Y-85203967D01*
X46982014Y-85203967D02*
X47362967Y-84823014D01*
X49426681Y-103690634D02*
X49426681Y-103119205D01*
X49426681Y-103404919D02*
X48426681Y-103404919D01*
X48569538Y-103309681D01*
X48664776Y-103214443D01*
X48712395Y-103119205D01*
X48426681Y-104595396D02*
X48426681Y-104119205D01*
X48902871Y-104071586D01*
X48855252Y-104119205D01*
X48807633Y-104214443D01*
X48807633Y-104452539D01*
X48855252Y-104547777D01*
X48902871Y-104595396D01*
X48998110Y-104643015D01*
X49236205Y-104643015D01*
X49331443Y-104595396D01*
X49379062Y-104547777D01*
X49426681Y-104452539D01*
X49426681Y-104214443D01*
X49379062Y-104119205D01*
X49331443Y-104071586D01*
X48426681Y-105262062D02*
X48426681Y-105357301D01*
X48474300Y-105452539D01*
X48521919Y-105500158D01*
X48617157Y-105547777D01*
X48807633Y-105595396D01*
X49045729Y-105595396D01*
X49236205Y-105547777D01*
X49331443Y-105500158D01*
X49379062Y-105452539D01*
X49426681Y-105357301D01*
X49426681Y-105262062D01*
X49379062Y-105166824D01*
X49331443Y-105119205D01*
X49236205Y-105071586D01*
X49045729Y-105023967D01*
X48807633Y-105023967D01*
X48617157Y-105071586D01*
X48521919Y-105119205D01*
X48474300Y-105166824D01*
X48426681Y-105262062D01*
X50188681Y-100134634D02*
X50188681Y-99563205D01*
X50188681Y-99848919D02*
X49188681Y-99848919D01*
X49331538Y-99753681D01*
X49426776Y-99658443D01*
X49474395Y-99563205D01*
X49188681Y-101039396D02*
X49188681Y-100563205D01*
X49664871Y-100515586D01*
X49617252Y-100563205D01*
X49569633Y-100658443D01*
X49569633Y-100896539D01*
X49617252Y-100991777D01*
X49664871Y-101039396D01*
X49760110Y-101087015D01*
X49998205Y-101087015D01*
X50093443Y-101039396D01*
X50141062Y-100991777D01*
X50188681Y-100896539D01*
X50188681Y-100658443D01*
X50141062Y-100563205D01*
X50093443Y-100515586D01*
X49188681Y-101706062D02*
X49188681Y-101801301D01*
X49236300Y-101896539D01*
X49283919Y-101944158D01*
X49379157Y-101991777D01*
X49569633Y-102039396D01*
X49807729Y-102039396D01*
X49998205Y-101991777D01*
X50093443Y-101944158D01*
X50141062Y-101896539D01*
X50188681Y-101801301D01*
X50188681Y-101706062D01*
X50141062Y-101610824D01*
X50093443Y-101563205D01*
X49998205Y-101515586D01*
X49807729Y-101467967D01*
X49569633Y-101467967D01*
X49379157Y-101515586D01*
X49283919Y-101563205D01*
X49236300Y-101610824D01*
X49188681Y-101706062D01*
X49421681Y-109024634D02*
X49421681Y-108453205D01*
X49421681Y-108738919D02*
X48421681Y-108738919D01*
X48564538Y-108643681D01*
X48659776Y-108548443D01*
X48707395Y-108453205D01*
X48421681Y-109929396D02*
X48421681Y-109453205D01*
X48897871Y-109405586D01*
X48850252Y-109453205D01*
X48802633Y-109548443D01*
X48802633Y-109786539D01*
X48850252Y-109881777D01*
X48897871Y-109929396D01*
X48993110Y-109977015D01*
X49231205Y-109977015D01*
X49326443Y-109929396D01*
X49374062Y-109881777D01*
X49421681Y-109786539D01*
X49421681Y-109548443D01*
X49374062Y-109453205D01*
X49326443Y-109405586D01*
X48421681Y-110596062D02*
X48421681Y-110691301D01*
X48469300Y-110786539D01*
X48516919Y-110834158D01*
X48612157Y-110881777D01*
X48802633Y-110929396D01*
X49040729Y-110929396D01*
X49231205Y-110881777D01*
X49326443Y-110834158D01*
X49374062Y-110786539D01*
X49421681Y-110691301D01*
X49421681Y-110596062D01*
X49374062Y-110500824D01*
X49326443Y-110453205D01*
X49231205Y-110405586D01*
X49040729Y-110357967D01*
X48802633Y-110357967D01*
X48612157Y-110405586D01*
X48516919Y-110453205D01*
X48469300Y-110500824D01*
X48421681Y-110596062D01*
X50188681Y-106230634D02*
X50188681Y-105659205D01*
X50188681Y-105944919D02*
X49188681Y-105944919D01*
X49331538Y-105849681D01*
X49426776Y-105754443D01*
X49474395Y-105659205D01*
X49188681Y-107135396D02*
X49188681Y-106659205D01*
X49664871Y-106611586D01*
X49617252Y-106659205D01*
X49569633Y-106754443D01*
X49569633Y-106992539D01*
X49617252Y-107087777D01*
X49664871Y-107135396D01*
X49760110Y-107183015D01*
X49998205Y-107183015D01*
X50093443Y-107135396D01*
X50141062Y-107087777D01*
X50188681Y-106992539D01*
X50188681Y-106754443D01*
X50141062Y-106659205D01*
X50093443Y-106611586D01*
X49188681Y-107802062D02*
X49188681Y-107897301D01*
X49236300Y-107992539D01*
X49283919Y-108040158D01*
X49379157Y-108087777D01*
X49569633Y-108135396D01*
X49807729Y-108135396D01*
X49998205Y-108087777D01*
X50093443Y-108040158D01*
X50141062Y-107992539D01*
X50188681Y-107897301D01*
X50188681Y-107802062D01*
X50141062Y-107706824D01*
X50093443Y-107659205D01*
X49998205Y-107611586D01*
X49807729Y-107563967D01*
X49569633Y-107563967D01*
X49379157Y-107611586D01*
X49283919Y-107659205D01*
X49236300Y-107706824D01*
X49188681Y-107802062D01*
X49426681Y-117914634D02*
X49426681Y-117343205D01*
X49426681Y-117628919D02*
X48426681Y-117628919D01*
X48569538Y-117533681D01*
X48664776Y-117438443D01*
X48712395Y-117343205D01*
X48426681Y-118819396D02*
X48426681Y-118343205D01*
X48902871Y-118295586D01*
X48855252Y-118343205D01*
X48807633Y-118438443D01*
X48807633Y-118676539D01*
X48855252Y-118771777D01*
X48902871Y-118819396D01*
X48998110Y-118867015D01*
X49236205Y-118867015D01*
X49331443Y-118819396D01*
X49379062Y-118771777D01*
X49426681Y-118676539D01*
X49426681Y-118438443D01*
X49379062Y-118343205D01*
X49331443Y-118295586D01*
X48426681Y-119486062D02*
X48426681Y-119581301D01*
X48474300Y-119676539D01*
X48521919Y-119724158D01*
X48617157Y-119771777D01*
X48807633Y-119819396D01*
X49045729Y-119819396D01*
X49236205Y-119771777D01*
X49331443Y-119724158D01*
X49379062Y-119676539D01*
X49426681Y-119581301D01*
X49426681Y-119486062D01*
X49379062Y-119390824D01*
X49331443Y-119343205D01*
X49236205Y-119295586D01*
X49045729Y-119247967D01*
X48807633Y-119247967D01*
X48617157Y-119295586D01*
X48521919Y-119343205D01*
X48474300Y-119390824D01*
X48426681Y-119486062D01*
X50188681Y-114358634D02*
X50188681Y-113787205D01*
X50188681Y-114072919D02*
X49188681Y-114072919D01*
X49331538Y-113977681D01*
X49426776Y-113882443D01*
X49474395Y-113787205D01*
X49188681Y-115263396D02*
X49188681Y-114787205D01*
X49664871Y-114739586D01*
X49617252Y-114787205D01*
X49569633Y-114882443D01*
X49569633Y-115120539D01*
X49617252Y-115215777D01*
X49664871Y-115263396D01*
X49760110Y-115311015D01*
X49998205Y-115311015D01*
X50093443Y-115263396D01*
X50141062Y-115215777D01*
X50188681Y-115120539D01*
X50188681Y-114882443D01*
X50141062Y-114787205D01*
X50093443Y-114739586D01*
X49188681Y-115930062D02*
X49188681Y-116025301D01*
X49236300Y-116120539D01*
X49283919Y-116168158D01*
X49379157Y-116215777D01*
X49569633Y-116263396D01*
X49807729Y-116263396D01*
X49998205Y-116215777D01*
X50093443Y-116168158D01*
X50141062Y-116120539D01*
X50188681Y-116025301D01*
X50188681Y-115930062D01*
X50141062Y-115834824D01*
X50093443Y-115787205D01*
X49998205Y-115739586D01*
X49807729Y-115691967D01*
X49569633Y-115691967D01*
X49379157Y-115739586D01*
X49283919Y-115787205D01*
X49236300Y-115834824D01*
X49188681Y-115930062D01*
X63396681Y-96832634D02*
X63396681Y-96261205D01*
X63396681Y-96546919D02*
X62396681Y-96546919D01*
X62539538Y-96451681D01*
X62634776Y-96356443D01*
X62682395Y-96261205D01*
X62396681Y-97737396D02*
X62396681Y-97261205D01*
X62872871Y-97213586D01*
X62825252Y-97261205D01*
X62777633Y-97356443D01*
X62777633Y-97594539D01*
X62825252Y-97689777D01*
X62872871Y-97737396D01*
X62968110Y-97785015D01*
X63206205Y-97785015D01*
X63301443Y-97737396D01*
X63349062Y-97689777D01*
X63396681Y-97594539D01*
X63396681Y-97356443D01*
X63349062Y-97261205D01*
X63301443Y-97213586D01*
X62396681Y-98404062D02*
X62396681Y-98499301D01*
X62444300Y-98594539D01*
X62491919Y-98642158D01*
X62587157Y-98689777D01*
X62777633Y-98737396D01*
X63015729Y-98737396D01*
X63206205Y-98689777D01*
X63301443Y-98642158D01*
X63349062Y-98594539D01*
X63396681Y-98499301D01*
X63396681Y-98404062D01*
X63349062Y-98308824D01*
X63301443Y-98261205D01*
X63206205Y-98213586D01*
X63015729Y-98165967D01*
X62777633Y-98165967D01*
X62587157Y-98213586D01*
X62491919Y-98261205D01*
X62444300Y-98308824D01*
X62396681Y-98404062D01*
X74318681Y-90990634D02*
X74318681Y-90419205D01*
X74318681Y-90704919D02*
X73318681Y-90704919D01*
X73461538Y-90609681D01*
X73556776Y-90514443D01*
X73604395Y-90419205D01*
X73318681Y-91895396D02*
X73318681Y-91419205D01*
X73794871Y-91371586D01*
X73747252Y-91419205D01*
X73699633Y-91514443D01*
X73699633Y-91752539D01*
X73747252Y-91847777D01*
X73794871Y-91895396D01*
X73890110Y-91943015D01*
X74128205Y-91943015D01*
X74223443Y-91895396D01*
X74271062Y-91847777D01*
X74318681Y-91752539D01*
X74318681Y-91514443D01*
X74271062Y-91419205D01*
X74223443Y-91371586D01*
X73318681Y-92562062D02*
X73318681Y-92657301D01*
X73366300Y-92752539D01*
X73413919Y-92800158D01*
X73509157Y-92847777D01*
X73699633Y-92895396D01*
X73937729Y-92895396D01*
X74128205Y-92847777D01*
X74223443Y-92800158D01*
X74271062Y-92752539D01*
X74318681Y-92657301D01*
X74318681Y-92562062D01*
X74271062Y-92466824D01*
X74223443Y-92419205D01*
X74128205Y-92371586D01*
X73937729Y-92323967D01*
X73699633Y-92323967D01*
X73509157Y-92371586D01*
X73413919Y-92419205D01*
X73366300Y-92466824D01*
X73318681Y-92562062D01*
X57554681Y-86164634D02*
X57554681Y-85593205D01*
X57554681Y-85878919D02*
X56554681Y-85878919D01*
X56697538Y-85783681D01*
X56792776Y-85688443D01*
X56840395Y-85593205D01*
X56554681Y-87069396D02*
X56554681Y-86593205D01*
X57030871Y-86545586D01*
X56983252Y-86593205D01*
X56935633Y-86688443D01*
X56935633Y-86926539D01*
X56983252Y-87021777D01*
X57030871Y-87069396D01*
X57126110Y-87117015D01*
X57364205Y-87117015D01*
X57459443Y-87069396D01*
X57507062Y-87021777D01*
X57554681Y-86926539D01*
X57554681Y-86688443D01*
X57507062Y-86593205D01*
X57459443Y-86545586D01*
X56554681Y-87736062D02*
X56554681Y-87831301D01*
X56602300Y-87926539D01*
X56649919Y-87974158D01*
X56745157Y-88021777D01*
X56935633Y-88069396D01*
X57173729Y-88069396D01*
X57364205Y-88021777D01*
X57459443Y-87974158D01*
X57507062Y-87926539D01*
X57554681Y-87831301D01*
X57554681Y-87736062D01*
X57507062Y-87640824D01*
X57459443Y-87593205D01*
X57364205Y-87545586D01*
X57173729Y-87497967D01*
X56935633Y-87497967D01*
X56745157Y-87545586D01*
X56649919Y-87593205D01*
X56602300Y-87640824D01*
X56554681Y-87736062D01*
X71524681Y-90990634D02*
X71524681Y-90419205D01*
X71524681Y-90704919D02*
X70524681Y-90704919D01*
X70667538Y-90609681D01*
X70762776Y-90514443D01*
X70810395Y-90419205D01*
X70524681Y-91895396D02*
X70524681Y-91419205D01*
X71000871Y-91371586D01*
X70953252Y-91419205D01*
X70905633Y-91514443D01*
X70905633Y-91752539D01*
X70953252Y-91847777D01*
X71000871Y-91895396D01*
X71096110Y-91943015D01*
X71334205Y-91943015D01*
X71429443Y-91895396D01*
X71477062Y-91847777D01*
X71524681Y-91752539D01*
X71524681Y-91514443D01*
X71477062Y-91419205D01*
X71429443Y-91371586D01*
X70524681Y-92562062D02*
X70524681Y-92657301D01*
X70572300Y-92752539D01*
X70619919Y-92800158D01*
X70715157Y-92847777D01*
X70905633Y-92895396D01*
X71143729Y-92895396D01*
X71334205Y-92847777D01*
X71429443Y-92800158D01*
X71477062Y-92752539D01*
X71524681Y-92657301D01*
X71524681Y-92562062D01*
X71477062Y-92466824D01*
X71429443Y-92419205D01*
X71334205Y-92371586D01*
X71143729Y-92323967D01*
X70905633Y-92323967D01*
X70715157Y-92371586D01*
X70619919Y-92419205D01*
X70572300Y-92466824D01*
X70524681Y-92562062D01*
X56538681Y-98102634D02*
X56538681Y-97531205D01*
X56538681Y-97816919D02*
X55538681Y-97816919D01*
X55681538Y-97721681D01*
X55776776Y-97626443D01*
X55824395Y-97531205D01*
X55538681Y-99007396D02*
X55538681Y-98531205D01*
X56014871Y-98483586D01*
X55967252Y-98531205D01*
X55919633Y-98626443D01*
X55919633Y-98864539D01*
X55967252Y-98959777D01*
X56014871Y-99007396D01*
X56110110Y-99055015D01*
X56348205Y-99055015D01*
X56443443Y-99007396D01*
X56491062Y-98959777D01*
X56538681Y-98864539D01*
X56538681Y-98626443D01*
X56491062Y-98531205D01*
X56443443Y-98483586D01*
X55538681Y-99674062D02*
X55538681Y-99769301D01*
X55586300Y-99864539D01*
X55633919Y-99912158D01*
X55729157Y-99959777D01*
X55919633Y-100007396D01*
X56157729Y-100007396D01*
X56348205Y-99959777D01*
X56443443Y-99912158D01*
X56491062Y-99864539D01*
X56538681Y-99769301D01*
X56538681Y-99674062D01*
X56491062Y-99578824D01*
X56443443Y-99531205D01*
X56348205Y-99483586D01*
X56157729Y-99435967D01*
X55919633Y-99435967D01*
X55729157Y-99483586D01*
X55633919Y-99531205D01*
X55586300Y-99578824D01*
X55538681Y-99674062D01*
X65936681Y-96832634D02*
X65936681Y-96261205D01*
X65936681Y-96546919D02*
X64936681Y-96546919D01*
X65079538Y-96451681D01*
X65174776Y-96356443D01*
X65222395Y-96261205D01*
X64936681Y-97737396D02*
X64936681Y-97261205D01*
X65412871Y-97213586D01*
X65365252Y-97261205D01*
X65317633Y-97356443D01*
X65317633Y-97594539D01*
X65365252Y-97689777D01*
X65412871Y-97737396D01*
X65508110Y-97785015D01*
X65746205Y-97785015D01*
X65841443Y-97737396D01*
X65889062Y-97689777D01*
X65936681Y-97594539D01*
X65936681Y-97356443D01*
X65889062Y-97261205D01*
X65841443Y-97213586D01*
X64936681Y-98404062D02*
X64936681Y-98499301D01*
X64984300Y-98594539D01*
X65031919Y-98642158D01*
X65127157Y-98689777D01*
X65317633Y-98737396D01*
X65555729Y-98737396D01*
X65746205Y-98689777D01*
X65841443Y-98642158D01*
X65889062Y-98594539D01*
X65936681Y-98499301D01*
X65936681Y-98404062D01*
X65889062Y-98308824D01*
X65841443Y-98261205D01*
X65746205Y-98213586D01*
X65555729Y-98165967D01*
X65317633Y-98165967D01*
X65127157Y-98213586D01*
X65031919Y-98261205D01*
X64984300Y-98308824D01*
X64936681Y-98404062D01*
X56416681Y-105214634D02*
X56416681Y-104643205D01*
X56416681Y-104928919D02*
X55416681Y-104928919D01*
X55559538Y-104833681D01*
X55654776Y-104738443D01*
X55702395Y-104643205D01*
X55416681Y-106119396D02*
X55416681Y-105643205D01*
X55892871Y-105595586D01*
X55845252Y-105643205D01*
X55797633Y-105738443D01*
X55797633Y-105976539D01*
X55845252Y-106071777D01*
X55892871Y-106119396D01*
X55988110Y-106167015D01*
X56226205Y-106167015D01*
X56321443Y-106119396D01*
X56369062Y-106071777D01*
X56416681Y-105976539D01*
X56416681Y-105738443D01*
X56369062Y-105643205D01*
X56321443Y-105595586D01*
X55416681Y-106786062D02*
X55416681Y-106881301D01*
X55464300Y-106976539D01*
X55511919Y-107024158D01*
X55607157Y-107071777D01*
X55797633Y-107119396D01*
X56035729Y-107119396D01*
X56226205Y-107071777D01*
X56321443Y-107024158D01*
X56369062Y-106976539D01*
X56416681Y-106881301D01*
X56416681Y-106786062D01*
X56369062Y-106690824D01*
X56321443Y-106643205D01*
X56226205Y-106595586D01*
X56035729Y-106547967D01*
X55797633Y-106547967D01*
X55607157Y-106595586D01*
X55511919Y-106643205D01*
X55464300Y-106690824D01*
X55416681Y-106786062D01*
X65936681Y-113850634D02*
X65936681Y-113279205D01*
X65936681Y-113564919D02*
X64936681Y-113564919D01*
X65079538Y-113469681D01*
X65174776Y-113374443D01*
X65222395Y-113279205D01*
X64936681Y-114755396D02*
X64936681Y-114279205D01*
X65412871Y-114231586D01*
X65365252Y-114279205D01*
X65317633Y-114374443D01*
X65317633Y-114612539D01*
X65365252Y-114707777D01*
X65412871Y-114755396D01*
X65508110Y-114803015D01*
X65746205Y-114803015D01*
X65841443Y-114755396D01*
X65889062Y-114707777D01*
X65936681Y-114612539D01*
X65936681Y-114374443D01*
X65889062Y-114279205D01*
X65841443Y-114231586D01*
X64936681Y-115422062D02*
X64936681Y-115517301D01*
X64984300Y-115612539D01*
X65031919Y-115660158D01*
X65127157Y-115707777D01*
X65317633Y-115755396D01*
X65555729Y-115755396D01*
X65746205Y-115707777D01*
X65841443Y-115660158D01*
X65889062Y-115612539D01*
X65936681Y-115517301D01*
X65936681Y-115422062D01*
X65889062Y-115326824D01*
X65841443Y-115279205D01*
X65746205Y-115231586D01*
X65555729Y-115183967D01*
X65317633Y-115183967D01*
X65127157Y-115231586D01*
X65031919Y-115279205D01*
X64984300Y-115326824D01*
X64936681Y-115422062D01*
X63396681Y-113850634D02*
X63396681Y-113279205D01*
X63396681Y-113564919D02*
X62396681Y-113564919D01*
X62539538Y-113469681D01*
X62634776Y-113374443D01*
X62682395Y-113279205D01*
X62396681Y-114755396D02*
X62396681Y-114279205D01*
X62872871Y-114231586D01*
X62825252Y-114279205D01*
X62777633Y-114374443D01*
X62777633Y-114612539D01*
X62825252Y-114707777D01*
X62872871Y-114755396D01*
X62968110Y-114803015D01*
X63206205Y-114803015D01*
X63301443Y-114755396D01*
X63349062Y-114707777D01*
X63396681Y-114612539D01*
X63396681Y-114374443D01*
X63349062Y-114279205D01*
X63301443Y-114231586D01*
X62396681Y-115422062D02*
X62396681Y-115517301D01*
X62444300Y-115612539D01*
X62491919Y-115660158D01*
X62587157Y-115707777D01*
X62777633Y-115755396D01*
X63015729Y-115755396D01*
X63206205Y-115707777D01*
X63301443Y-115660158D01*
X63349062Y-115612539D01*
X63396681Y-115517301D01*
X63396681Y-115422062D01*
X63349062Y-115326824D01*
X63301443Y-115279205D01*
X63206205Y-115231586D01*
X63015729Y-115183967D01*
X62777633Y-115183967D01*
X62587157Y-115231586D01*
X62491919Y-115279205D01*
X62444300Y-115326824D01*
X62396681Y-115422062D01*
X73770966Y-110021681D02*
X74342395Y-110021681D01*
X74056681Y-110021681D02*
X74056681Y-109021681D01*
X74151919Y-109164538D01*
X74247157Y-109259776D01*
X74342395Y-109307395D01*
X72866204Y-109021681D02*
X73342395Y-109021681D01*
X73390014Y-109497871D01*
X73342395Y-109450252D01*
X73247157Y-109402633D01*
X73009061Y-109402633D01*
X72913823Y-109450252D01*
X72866204Y-109497871D01*
X72818585Y-109593110D01*
X72818585Y-109831205D01*
X72866204Y-109926443D01*
X72913823Y-109974062D01*
X73009061Y-110021681D01*
X73247157Y-110021681D01*
X73342395Y-109974062D01*
X73390014Y-109926443D01*
X72199538Y-109021681D02*
X72104299Y-109021681D01*
X72009061Y-109069300D01*
X71961442Y-109116919D01*
X71913823Y-109212157D01*
X71866204Y-109402633D01*
X71866204Y-109640729D01*
X71913823Y-109831205D01*
X71961442Y-109926443D01*
X72009061Y-109974062D01*
X72104299Y-110021681D01*
X72199538Y-110021681D01*
X72294776Y-109974062D01*
X72342395Y-109926443D01*
X72390014Y-109831205D01*
X72437633Y-109640729D01*
X72437633Y-109402633D01*
X72390014Y-109212157D01*
X72342395Y-109116919D01*
X72294776Y-109069300D01*
X72199538Y-109021681D01*
X57300681Y-117152634D02*
X57300681Y-116581205D01*
X57300681Y-116866919D02*
X56300681Y-116866919D01*
X56443538Y-116771681D01*
X56538776Y-116676443D01*
X56586395Y-116581205D01*
X56300681Y-118057396D02*
X56300681Y-117581205D01*
X56776871Y-117533586D01*
X56729252Y-117581205D01*
X56681633Y-117676443D01*
X56681633Y-117914539D01*
X56729252Y-118009777D01*
X56776871Y-118057396D01*
X56872110Y-118105015D01*
X57110205Y-118105015D01*
X57205443Y-118057396D01*
X57253062Y-118009777D01*
X57300681Y-117914539D01*
X57300681Y-117676443D01*
X57253062Y-117581205D01*
X57205443Y-117533586D01*
X56300681Y-118724062D02*
X56300681Y-118819301D01*
X56348300Y-118914539D01*
X56395919Y-118962158D01*
X56491157Y-119009777D01*
X56681633Y-119057396D01*
X56919729Y-119057396D01*
X57110205Y-119009777D01*
X57205443Y-118962158D01*
X57253062Y-118914539D01*
X57300681Y-118819301D01*
X57300681Y-118724062D01*
X57253062Y-118628824D01*
X57205443Y-118581205D01*
X57110205Y-118533586D01*
X56919729Y-118485967D01*
X56681633Y-118485967D01*
X56491157Y-118533586D01*
X56395919Y-118581205D01*
X56348300Y-118628824D01*
X56300681Y-118724062D01*
X73770966Y-116747681D02*
X74342395Y-116747681D01*
X74056681Y-116747681D02*
X74056681Y-115747681D01*
X74151919Y-115890538D01*
X74247157Y-115985776D01*
X74342395Y-116033395D01*
X72866204Y-115747681D02*
X73342395Y-115747681D01*
X73390014Y-116223871D01*
X73342395Y-116176252D01*
X73247157Y-116128633D01*
X73009061Y-116128633D01*
X72913823Y-116176252D01*
X72866204Y-116223871D01*
X72818585Y-116319110D01*
X72818585Y-116557205D01*
X72866204Y-116652443D01*
X72913823Y-116700062D01*
X73009061Y-116747681D01*
X73247157Y-116747681D01*
X73342395Y-116700062D01*
X73390014Y-116652443D01*
X72199538Y-115747681D02*
X72104299Y-115747681D01*
X72009061Y-115795300D01*
X71961442Y-115842919D01*
X71913823Y-115938157D01*
X71866204Y-116128633D01*
X71866204Y-116366729D01*
X71913823Y-116557205D01*
X71961442Y-116652443D01*
X72009061Y-116700062D01*
X72104299Y-116747681D01*
X72199538Y-116747681D01*
X72294776Y-116700062D01*
X72342395Y-116652443D01*
X72390014Y-116557205D01*
X72437633Y-116366729D01*
X72437633Y-116128633D01*
X72390014Y-115938157D01*
X72342395Y-115842919D01*
X72294776Y-115795300D01*
X72199538Y-115747681D01*
X73770966Y-105571681D02*
X74342395Y-105571681D01*
X74056681Y-105571681D02*
X74056681Y-104571681D01*
X74151919Y-104714538D01*
X74247157Y-104809776D01*
X74342395Y-104857395D01*
X72866204Y-104571681D02*
X73342395Y-104571681D01*
X73390014Y-105047871D01*
X73342395Y-105000252D01*
X73247157Y-104952633D01*
X73009061Y-104952633D01*
X72913823Y-105000252D01*
X72866204Y-105047871D01*
X72818585Y-105143110D01*
X72818585Y-105381205D01*
X72866204Y-105476443D01*
X72913823Y-105524062D01*
X73009061Y-105571681D01*
X73247157Y-105571681D01*
X73342395Y-105524062D01*
X73390014Y-105476443D01*
X72199538Y-104571681D02*
X72104299Y-104571681D01*
X72009061Y-104619300D01*
X71961442Y-104666919D01*
X71913823Y-104762157D01*
X71866204Y-104952633D01*
X71866204Y-105190729D01*
X71913823Y-105381205D01*
X71961442Y-105476443D01*
X72009061Y-105524062D01*
X72104299Y-105571681D01*
X72199538Y-105571681D01*
X72294776Y-105524062D01*
X72342395Y-105476443D01*
X72390014Y-105381205D01*
X72437633Y-105190729D01*
X72437633Y-104952633D01*
X72390014Y-104762157D01*
X72342395Y-104666919D01*
X72294776Y-104619300D01*
X72199538Y-104571681D01*
X60777347Y-79663681D02*
X61348776Y-79663681D01*
X61063062Y-79663681D02*
X61063062Y-78663681D01*
X61158300Y-78806538D01*
X61253538Y-78901776D01*
X61348776Y-78949395D01*
X60348776Y-79663681D02*
X60348776Y-78663681D01*
X60253538Y-79282729D02*
X59967823Y-79663681D01*
X59967823Y-78997014D02*
X60348776Y-79377967D01*
X104777347Y-79663681D02*
X105348776Y-79663681D01*
X105063062Y-79663681D02*
X105063062Y-78663681D01*
X105158300Y-78806538D01*
X105253538Y-78901776D01*
X105348776Y-78949395D01*
X104348776Y-79663681D02*
X104348776Y-78663681D01*
X104253538Y-79282729D02*
X103967823Y-79663681D01*
X103967823Y-78997014D02*
X104348776Y-79377967D01*
X117770966Y-105571681D02*
X118342395Y-105571681D01*
X118056681Y-105571681D02*
X118056681Y-104571681D01*
X118151919Y-104714538D01*
X118247157Y-104809776D01*
X118342395Y-104857395D01*
X116866204Y-104571681D02*
X117342395Y-104571681D01*
X117390014Y-105047871D01*
X117342395Y-105000252D01*
X117247157Y-104952633D01*
X117009061Y-104952633D01*
X116913823Y-105000252D01*
X116866204Y-105047871D01*
X116818585Y-105143110D01*
X116818585Y-105381205D01*
X116866204Y-105476443D01*
X116913823Y-105524062D01*
X117009061Y-105571681D01*
X117247157Y-105571681D01*
X117342395Y-105524062D01*
X117390014Y-105476443D01*
X116199538Y-104571681D02*
X116104299Y-104571681D01*
X116009061Y-104619300D01*
X115961442Y-104666919D01*
X115913823Y-104762157D01*
X115866204Y-104952633D01*
X115866204Y-105190729D01*
X115913823Y-105381205D01*
X115961442Y-105476443D01*
X116009061Y-105524062D01*
X116104299Y-105571681D01*
X116199538Y-105571681D01*
X116294776Y-105524062D01*
X116342395Y-105476443D01*
X116390014Y-105381205D01*
X116437633Y-105190729D01*
X116437633Y-104952633D01*
X116390014Y-104762157D01*
X116342395Y-104666919D01*
X116294776Y-104619300D01*
X116199538Y-104571681D01*
X117770966Y-116747681D02*
X118342395Y-116747681D01*
X118056681Y-116747681D02*
X118056681Y-115747681D01*
X118151919Y-115890538D01*
X118247157Y-115985776D01*
X118342395Y-116033395D01*
X116866204Y-115747681D02*
X117342395Y-115747681D01*
X117390014Y-116223871D01*
X117342395Y-116176252D01*
X117247157Y-116128633D01*
X117009061Y-116128633D01*
X116913823Y-116176252D01*
X116866204Y-116223871D01*
X116818585Y-116319110D01*
X116818585Y-116557205D01*
X116866204Y-116652443D01*
X116913823Y-116700062D01*
X117009061Y-116747681D01*
X117247157Y-116747681D01*
X117342395Y-116700062D01*
X117390014Y-116652443D01*
X116199538Y-115747681D02*
X116104299Y-115747681D01*
X116009061Y-115795300D01*
X115961442Y-115842919D01*
X115913823Y-115938157D01*
X115866204Y-116128633D01*
X115866204Y-116366729D01*
X115913823Y-116557205D01*
X115961442Y-116652443D01*
X116009061Y-116700062D01*
X116104299Y-116747681D01*
X116199538Y-116747681D01*
X116294776Y-116700062D01*
X116342395Y-116652443D01*
X116390014Y-116557205D01*
X116437633Y-116366729D01*
X116437633Y-116128633D01*
X116390014Y-115938157D01*
X116342395Y-115842919D01*
X116294776Y-115795300D01*
X116199538Y-115747681D01*
X101300681Y-117152634D02*
X101300681Y-116581205D01*
X101300681Y-116866919D02*
X100300681Y-116866919D01*
X100443538Y-116771681D01*
X100538776Y-116676443D01*
X100586395Y-116581205D01*
X100300681Y-118057396D02*
X100300681Y-117581205D01*
X100776871Y-117533586D01*
X100729252Y-117581205D01*
X100681633Y-117676443D01*
X100681633Y-117914539D01*
X100729252Y-118009777D01*
X100776871Y-118057396D01*
X100872110Y-118105015D01*
X101110205Y-118105015D01*
X101205443Y-118057396D01*
X101253062Y-118009777D01*
X101300681Y-117914539D01*
X101300681Y-117676443D01*
X101253062Y-117581205D01*
X101205443Y-117533586D01*
X100300681Y-118724062D02*
X100300681Y-118819301D01*
X100348300Y-118914539D01*
X100395919Y-118962158D01*
X100491157Y-119009777D01*
X100681633Y-119057396D01*
X100919729Y-119057396D01*
X101110205Y-119009777D01*
X101205443Y-118962158D01*
X101253062Y-118914539D01*
X101300681Y-118819301D01*
X101300681Y-118724062D01*
X101253062Y-118628824D01*
X101205443Y-118581205D01*
X101110205Y-118533586D01*
X100919729Y-118485967D01*
X100681633Y-118485967D01*
X100491157Y-118533586D01*
X100395919Y-118581205D01*
X100348300Y-118628824D01*
X100300681Y-118724062D01*
X117770966Y-110021681D02*
X118342395Y-110021681D01*
X118056681Y-110021681D02*
X118056681Y-109021681D01*
X118151919Y-109164538D01*
X118247157Y-109259776D01*
X118342395Y-109307395D01*
X116866204Y-109021681D02*
X117342395Y-109021681D01*
X117390014Y-109497871D01*
X117342395Y-109450252D01*
X117247157Y-109402633D01*
X117009061Y-109402633D01*
X116913823Y-109450252D01*
X116866204Y-109497871D01*
X116818585Y-109593110D01*
X116818585Y-109831205D01*
X116866204Y-109926443D01*
X116913823Y-109974062D01*
X117009061Y-110021681D01*
X117247157Y-110021681D01*
X117342395Y-109974062D01*
X117390014Y-109926443D01*
X116199538Y-109021681D02*
X116104299Y-109021681D01*
X116009061Y-109069300D01*
X115961442Y-109116919D01*
X115913823Y-109212157D01*
X115866204Y-109402633D01*
X115866204Y-109640729D01*
X115913823Y-109831205D01*
X115961442Y-109926443D01*
X116009061Y-109974062D01*
X116104299Y-110021681D01*
X116199538Y-110021681D01*
X116294776Y-109974062D01*
X116342395Y-109926443D01*
X116390014Y-109831205D01*
X116437633Y-109640729D01*
X116437633Y-109402633D01*
X116390014Y-109212157D01*
X116342395Y-109116919D01*
X116294776Y-109069300D01*
X116199538Y-109021681D01*
X107396681Y-113850634D02*
X107396681Y-113279205D01*
X107396681Y-113564919D02*
X106396681Y-113564919D01*
X106539538Y-113469681D01*
X106634776Y-113374443D01*
X106682395Y-113279205D01*
X106396681Y-114755396D02*
X106396681Y-114279205D01*
X106872871Y-114231586D01*
X106825252Y-114279205D01*
X106777633Y-114374443D01*
X106777633Y-114612539D01*
X106825252Y-114707777D01*
X106872871Y-114755396D01*
X106968110Y-114803015D01*
X107206205Y-114803015D01*
X107301443Y-114755396D01*
X107349062Y-114707777D01*
X107396681Y-114612539D01*
X107396681Y-114374443D01*
X107349062Y-114279205D01*
X107301443Y-114231586D01*
X106396681Y-115422062D02*
X106396681Y-115517301D01*
X106444300Y-115612539D01*
X106491919Y-115660158D01*
X106587157Y-115707777D01*
X106777633Y-115755396D01*
X107015729Y-115755396D01*
X107206205Y-115707777D01*
X107301443Y-115660158D01*
X107349062Y-115612539D01*
X107396681Y-115517301D01*
X107396681Y-115422062D01*
X107349062Y-115326824D01*
X107301443Y-115279205D01*
X107206205Y-115231586D01*
X107015729Y-115183967D01*
X106777633Y-115183967D01*
X106587157Y-115231586D01*
X106491919Y-115279205D01*
X106444300Y-115326824D01*
X106396681Y-115422062D01*
X109936681Y-113850634D02*
X109936681Y-113279205D01*
X109936681Y-113564919D02*
X108936681Y-113564919D01*
X109079538Y-113469681D01*
X109174776Y-113374443D01*
X109222395Y-113279205D01*
X108936681Y-114755396D02*
X108936681Y-114279205D01*
X109412871Y-114231586D01*
X109365252Y-114279205D01*
X109317633Y-114374443D01*
X109317633Y-114612539D01*
X109365252Y-114707777D01*
X109412871Y-114755396D01*
X109508110Y-114803015D01*
X109746205Y-114803015D01*
X109841443Y-114755396D01*
X109889062Y-114707777D01*
X109936681Y-114612539D01*
X109936681Y-114374443D01*
X109889062Y-114279205D01*
X109841443Y-114231586D01*
X108936681Y-115422062D02*
X108936681Y-115517301D01*
X108984300Y-115612539D01*
X109031919Y-115660158D01*
X109127157Y-115707777D01*
X109317633Y-115755396D01*
X109555729Y-115755396D01*
X109746205Y-115707777D01*
X109841443Y-115660158D01*
X109889062Y-115612539D01*
X109936681Y-115517301D01*
X109936681Y-115422062D01*
X109889062Y-115326824D01*
X109841443Y-115279205D01*
X109746205Y-115231586D01*
X109555729Y-115183967D01*
X109317633Y-115183967D01*
X109127157Y-115231586D01*
X109031919Y-115279205D01*
X108984300Y-115326824D01*
X108936681Y-115422062D01*
X100416681Y-105214634D02*
X100416681Y-104643205D01*
X100416681Y-104928919D02*
X99416681Y-104928919D01*
X99559538Y-104833681D01*
X99654776Y-104738443D01*
X99702395Y-104643205D01*
X99416681Y-106119396D02*
X99416681Y-105643205D01*
X99892871Y-105595586D01*
X99845252Y-105643205D01*
X99797633Y-105738443D01*
X99797633Y-105976539D01*
X99845252Y-106071777D01*
X99892871Y-106119396D01*
X99988110Y-106167015D01*
X100226205Y-106167015D01*
X100321443Y-106119396D01*
X100369062Y-106071777D01*
X100416681Y-105976539D01*
X100416681Y-105738443D01*
X100369062Y-105643205D01*
X100321443Y-105595586D01*
X99416681Y-106786062D02*
X99416681Y-106881301D01*
X99464300Y-106976539D01*
X99511919Y-107024158D01*
X99607157Y-107071777D01*
X99797633Y-107119396D01*
X100035729Y-107119396D01*
X100226205Y-107071777D01*
X100321443Y-107024158D01*
X100369062Y-106976539D01*
X100416681Y-106881301D01*
X100416681Y-106786062D01*
X100369062Y-106690824D01*
X100321443Y-106643205D01*
X100226205Y-106595586D01*
X100035729Y-106547967D01*
X99797633Y-106547967D01*
X99607157Y-106595586D01*
X99511919Y-106643205D01*
X99464300Y-106690824D01*
X99416681Y-106786062D01*
X109936681Y-96832634D02*
X109936681Y-96261205D01*
X109936681Y-96546919D02*
X108936681Y-96546919D01*
X109079538Y-96451681D01*
X109174776Y-96356443D01*
X109222395Y-96261205D01*
X108936681Y-97737396D02*
X108936681Y-97261205D01*
X109412871Y-97213586D01*
X109365252Y-97261205D01*
X109317633Y-97356443D01*
X109317633Y-97594539D01*
X109365252Y-97689777D01*
X109412871Y-97737396D01*
X109508110Y-97785015D01*
X109746205Y-97785015D01*
X109841443Y-97737396D01*
X109889062Y-97689777D01*
X109936681Y-97594539D01*
X109936681Y-97356443D01*
X109889062Y-97261205D01*
X109841443Y-97213586D01*
X108936681Y-98404062D02*
X108936681Y-98499301D01*
X108984300Y-98594539D01*
X109031919Y-98642158D01*
X109127157Y-98689777D01*
X109317633Y-98737396D01*
X109555729Y-98737396D01*
X109746205Y-98689777D01*
X109841443Y-98642158D01*
X109889062Y-98594539D01*
X109936681Y-98499301D01*
X109936681Y-98404062D01*
X109889062Y-98308824D01*
X109841443Y-98261205D01*
X109746205Y-98213586D01*
X109555729Y-98165967D01*
X109317633Y-98165967D01*
X109127157Y-98213586D01*
X109031919Y-98261205D01*
X108984300Y-98308824D01*
X108936681Y-98404062D01*
X100538681Y-98102634D02*
X100538681Y-97531205D01*
X100538681Y-97816919D02*
X99538681Y-97816919D01*
X99681538Y-97721681D01*
X99776776Y-97626443D01*
X99824395Y-97531205D01*
X99538681Y-99007396D02*
X99538681Y-98531205D01*
X100014871Y-98483586D01*
X99967252Y-98531205D01*
X99919633Y-98626443D01*
X99919633Y-98864539D01*
X99967252Y-98959777D01*
X100014871Y-99007396D01*
X100110110Y-99055015D01*
X100348205Y-99055015D01*
X100443443Y-99007396D01*
X100491062Y-98959777D01*
X100538681Y-98864539D01*
X100538681Y-98626443D01*
X100491062Y-98531205D01*
X100443443Y-98483586D01*
X99538681Y-99674062D02*
X99538681Y-99769301D01*
X99586300Y-99864539D01*
X99633919Y-99912158D01*
X99729157Y-99959777D01*
X99919633Y-100007396D01*
X100157729Y-100007396D01*
X100348205Y-99959777D01*
X100443443Y-99912158D01*
X100491062Y-99864539D01*
X100538681Y-99769301D01*
X100538681Y-99674062D01*
X100491062Y-99578824D01*
X100443443Y-99531205D01*
X100348205Y-99483586D01*
X100157729Y-99435967D01*
X99919633Y-99435967D01*
X99729157Y-99483586D01*
X99633919Y-99531205D01*
X99586300Y-99578824D01*
X99538681Y-99674062D01*
X115524681Y-90990634D02*
X115524681Y-90419205D01*
X115524681Y-90704919D02*
X114524681Y-90704919D01*
X114667538Y-90609681D01*
X114762776Y-90514443D01*
X114810395Y-90419205D01*
X114524681Y-91895396D02*
X114524681Y-91419205D01*
X115000871Y-91371586D01*
X114953252Y-91419205D01*
X114905633Y-91514443D01*
X114905633Y-91752539D01*
X114953252Y-91847777D01*
X115000871Y-91895396D01*
X115096110Y-91943015D01*
X115334205Y-91943015D01*
X115429443Y-91895396D01*
X115477062Y-91847777D01*
X115524681Y-91752539D01*
X115524681Y-91514443D01*
X115477062Y-91419205D01*
X115429443Y-91371586D01*
X114524681Y-92562062D02*
X114524681Y-92657301D01*
X114572300Y-92752539D01*
X114619919Y-92800158D01*
X114715157Y-92847777D01*
X114905633Y-92895396D01*
X115143729Y-92895396D01*
X115334205Y-92847777D01*
X115429443Y-92800158D01*
X115477062Y-92752539D01*
X115524681Y-92657301D01*
X115524681Y-92562062D01*
X115477062Y-92466824D01*
X115429443Y-92419205D01*
X115334205Y-92371586D01*
X115143729Y-92323967D01*
X114905633Y-92323967D01*
X114715157Y-92371586D01*
X114619919Y-92419205D01*
X114572300Y-92466824D01*
X114524681Y-92562062D01*
X101554681Y-86164634D02*
X101554681Y-85593205D01*
X101554681Y-85878919D02*
X100554681Y-85878919D01*
X100697538Y-85783681D01*
X100792776Y-85688443D01*
X100840395Y-85593205D01*
X100554681Y-87069396D02*
X100554681Y-86593205D01*
X101030871Y-86545586D01*
X100983252Y-86593205D01*
X100935633Y-86688443D01*
X100935633Y-86926539D01*
X100983252Y-87021777D01*
X101030871Y-87069396D01*
X101126110Y-87117015D01*
X101364205Y-87117015D01*
X101459443Y-87069396D01*
X101507062Y-87021777D01*
X101554681Y-86926539D01*
X101554681Y-86688443D01*
X101507062Y-86593205D01*
X101459443Y-86545586D01*
X100554681Y-87736062D02*
X100554681Y-87831301D01*
X100602300Y-87926539D01*
X100649919Y-87974158D01*
X100745157Y-88021777D01*
X100935633Y-88069396D01*
X101173729Y-88069396D01*
X101364205Y-88021777D01*
X101459443Y-87974158D01*
X101507062Y-87926539D01*
X101554681Y-87831301D01*
X101554681Y-87736062D01*
X101507062Y-87640824D01*
X101459443Y-87593205D01*
X101364205Y-87545586D01*
X101173729Y-87497967D01*
X100935633Y-87497967D01*
X100745157Y-87545586D01*
X100649919Y-87593205D01*
X100602300Y-87640824D01*
X100554681Y-87736062D01*
X118318681Y-90990634D02*
X118318681Y-90419205D01*
X118318681Y-90704919D02*
X117318681Y-90704919D01*
X117461538Y-90609681D01*
X117556776Y-90514443D01*
X117604395Y-90419205D01*
X117318681Y-91895396D02*
X117318681Y-91419205D01*
X117794871Y-91371586D01*
X117747252Y-91419205D01*
X117699633Y-91514443D01*
X117699633Y-91752539D01*
X117747252Y-91847777D01*
X117794871Y-91895396D01*
X117890110Y-91943015D01*
X118128205Y-91943015D01*
X118223443Y-91895396D01*
X118271062Y-91847777D01*
X118318681Y-91752539D01*
X118318681Y-91514443D01*
X118271062Y-91419205D01*
X118223443Y-91371586D01*
X117318681Y-92562062D02*
X117318681Y-92657301D01*
X117366300Y-92752539D01*
X117413919Y-92800158D01*
X117509157Y-92847777D01*
X117699633Y-92895396D01*
X117937729Y-92895396D01*
X118128205Y-92847777D01*
X118223443Y-92800158D01*
X118271062Y-92752539D01*
X118318681Y-92657301D01*
X118318681Y-92562062D01*
X118271062Y-92466824D01*
X118223443Y-92419205D01*
X118128205Y-92371586D01*
X117937729Y-92323967D01*
X117699633Y-92323967D01*
X117509157Y-92371586D01*
X117413919Y-92419205D01*
X117366300Y-92466824D01*
X117318681Y-92562062D01*
X107396681Y-96832634D02*
X107396681Y-96261205D01*
X107396681Y-96546919D02*
X106396681Y-96546919D01*
X106539538Y-96451681D01*
X106634776Y-96356443D01*
X106682395Y-96261205D01*
X106396681Y-97737396D02*
X106396681Y-97261205D01*
X106872871Y-97213586D01*
X106825252Y-97261205D01*
X106777633Y-97356443D01*
X106777633Y-97594539D01*
X106825252Y-97689777D01*
X106872871Y-97737396D01*
X106968110Y-97785015D01*
X107206205Y-97785015D01*
X107301443Y-97737396D01*
X107349062Y-97689777D01*
X107396681Y-97594539D01*
X107396681Y-97356443D01*
X107349062Y-97261205D01*
X107301443Y-97213586D01*
X106396681Y-98404062D02*
X106396681Y-98499301D01*
X106444300Y-98594539D01*
X106491919Y-98642158D01*
X106587157Y-98689777D01*
X106777633Y-98737396D01*
X107015729Y-98737396D01*
X107206205Y-98689777D01*
X107301443Y-98642158D01*
X107349062Y-98594539D01*
X107396681Y-98499301D01*
X107396681Y-98404062D01*
X107349062Y-98308824D01*
X107301443Y-98261205D01*
X107206205Y-98213586D01*
X107015729Y-98165967D01*
X106777633Y-98165967D01*
X106587157Y-98213586D01*
X106491919Y-98261205D01*
X106444300Y-98308824D01*
X106396681Y-98404062D01*
X94188681Y-114358634D02*
X94188681Y-113787205D01*
X94188681Y-114072919D02*
X93188681Y-114072919D01*
X93331538Y-113977681D01*
X93426776Y-113882443D01*
X93474395Y-113787205D01*
X93188681Y-115263396D02*
X93188681Y-114787205D01*
X93664871Y-114739586D01*
X93617252Y-114787205D01*
X93569633Y-114882443D01*
X93569633Y-115120539D01*
X93617252Y-115215777D01*
X93664871Y-115263396D01*
X93760110Y-115311015D01*
X93998205Y-115311015D01*
X94093443Y-115263396D01*
X94141062Y-115215777D01*
X94188681Y-115120539D01*
X94188681Y-114882443D01*
X94141062Y-114787205D01*
X94093443Y-114739586D01*
X93188681Y-115930062D02*
X93188681Y-116025301D01*
X93236300Y-116120539D01*
X93283919Y-116168158D01*
X93379157Y-116215777D01*
X93569633Y-116263396D01*
X93807729Y-116263396D01*
X93998205Y-116215777D01*
X94093443Y-116168158D01*
X94141062Y-116120539D01*
X94188681Y-116025301D01*
X94188681Y-115930062D01*
X94141062Y-115834824D01*
X94093443Y-115787205D01*
X93998205Y-115739586D01*
X93807729Y-115691967D01*
X93569633Y-115691967D01*
X93379157Y-115739586D01*
X93283919Y-115787205D01*
X93236300Y-115834824D01*
X93188681Y-115930062D01*
X93426681Y-117914634D02*
X93426681Y-117343205D01*
X93426681Y-117628919D02*
X92426681Y-117628919D01*
X92569538Y-117533681D01*
X92664776Y-117438443D01*
X92712395Y-117343205D01*
X92426681Y-118819396D02*
X92426681Y-118343205D01*
X92902871Y-118295586D01*
X92855252Y-118343205D01*
X92807633Y-118438443D01*
X92807633Y-118676539D01*
X92855252Y-118771777D01*
X92902871Y-118819396D01*
X92998110Y-118867015D01*
X93236205Y-118867015D01*
X93331443Y-118819396D01*
X93379062Y-118771777D01*
X93426681Y-118676539D01*
X93426681Y-118438443D01*
X93379062Y-118343205D01*
X93331443Y-118295586D01*
X92426681Y-119486062D02*
X92426681Y-119581301D01*
X92474300Y-119676539D01*
X92521919Y-119724158D01*
X92617157Y-119771777D01*
X92807633Y-119819396D01*
X93045729Y-119819396D01*
X93236205Y-119771777D01*
X93331443Y-119724158D01*
X93379062Y-119676539D01*
X93426681Y-119581301D01*
X93426681Y-119486062D01*
X93379062Y-119390824D01*
X93331443Y-119343205D01*
X93236205Y-119295586D01*
X93045729Y-119247967D01*
X92807633Y-119247967D01*
X92617157Y-119295586D01*
X92521919Y-119343205D01*
X92474300Y-119390824D01*
X92426681Y-119486062D01*
X94188681Y-106230634D02*
X94188681Y-105659205D01*
X94188681Y-105944919D02*
X93188681Y-105944919D01*
X93331538Y-105849681D01*
X93426776Y-105754443D01*
X93474395Y-105659205D01*
X93188681Y-107135396D02*
X93188681Y-106659205D01*
X93664871Y-106611586D01*
X93617252Y-106659205D01*
X93569633Y-106754443D01*
X93569633Y-106992539D01*
X93617252Y-107087777D01*
X93664871Y-107135396D01*
X93760110Y-107183015D01*
X93998205Y-107183015D01*
X94093443Y-107135396D01*
X94141062Y-107087777D01*
X94188681Y-106992539D01*
X94188681Y-106754443D01*
X94141062Y-106659205D01*
X94093443Y-106611586D01*
X93188681Y-107802062D02*
X93188681Y-107897301D01*
X93236300Y-107992539D01*
X93283919Y-108040158D01*
X93379157Y-108087777D01*
X93569633Y-108135396D01*
X93807729Y-108135396D01*
X93998205Y-108087777D01*
X94093443Y-108040158D01*
X94141062Y-107992539D01*
X94188681Y-107897301D01*
X94188681Y-107802062D01*
X94141062Y-107706824D01*
X94093443Y-107659205D01*
X93998205Y-107611586D01*
X93807729Y-107563967D01*
X93569633Y-107563967D01*
X93379157Y-107611586D01*
X93283919Y-107659205D01*
X93236300Y-107706824D01*
X93188681Y-107802062D01*
X93421681Y-109024634D02*
X93421681Y-108453205D01*
X93421681Y-108738919D02*
X92421681Y-108738919D01*
X92564538Y-108643681D01*
X92659776Y-108548443D01*
X92707395Y-108453205D01*
X92421681Y-109929396D02*
X92421681Y-109453205D01*
X92897871Y-109405586D01*
X92850252Y-109453205D01*
X92802633Y-109548443D01*
X92802633Y-109786539D01*
X92850252Y-109881777D01*
X92897871Y-109929396D01*
X92993110Y-109977015D01*
X93231205Y-109977015D01*
X93326443Y-109929396D01*
X93374062Y-109881777D01*
X93421681Y-109786539D01*
X93421681Y-109548443D01*
X93374062Y-109453205D01*
X93326443Y-109405586D01*
X92421681Y-110596062D02*
X92421681Y-110691301D01*
X92469300Y-110786539D01*
X92516919Y-110834158D01*
X92612157Y-110881777D01*
X92802633Y-110929396D01*
X93040729Y-110929396D01*
X93231205Y-110881777D01*
X93326443Y-110834158D01*
X93374062Y-110786539D01*
X93421681Y-110691301D01*
X93421681Y-110596062D01*
X93374062Y-110500824D01*
X93326443Y-110453205D01*
X93231205Y-110405586D01*
X93040729Y-110357967D01*
X92802633Y-110357967D01*
X92612157Y-110405586D01*
X92516919Y-110453205D01*
X92469300Y-110500824D01*
X92421681Y-110596062D01*
X94188681Y-100134634D02*
X94188681Y-99563205D01*
X94188681Y-99848919D02*
X93188681Y-99848919D01*
X93331538Y-99753681D01*
X93426776Y-99658443D01*
X93474395Y-99563205D01*
X93188681Y-101039396D02*
X93188681Y-100563205D01*
X93664871Y-100515586D01*
X93617252Y-100563205D01*
X93569633Y-100658443D01*
X93569633Y-100896539D01*
X93617252Y-100991777D01*
X93664871Y-101039396D01*
X93760110Y-101087015D01*
X93998205Y-101087015D01*
X94093443Y-101039396D01*
X94141062Y-100991777D01*
X94188681Y-100896539D01*
X94188681Y-100658443D01*
X94141062Y-100563205D01*
X94093443Y-100515586D01*
X93188681Y-101706062D02*
X93188681Y-101801301D01*
X93236300Y-101896539D01*
X93283919Y-101944158D01*
X93379157Y-101991777D01*
X93569633Y-102039396D01*
X93807729Y-102039396D01*
X93998205Y-101991777D01*
X94093443Y-101944158D01*
X94141062Y-101896539D01*
X94188681Y-101801301D01*
X94188681Y-101706062D01*
X94141062Y-101610824D01*
X94093443Y-101563205D01*
X93998205Y-101515586D01*
X93807729Y-101467967D01*
X93569633Y-101467967D01*
X93379157Y-101515586D01*
X93283919Y-101563205D01*
X93236300Y-101610824D01*
X93188681Y-101706062D01*
X93426681Y-103690634D02*
X93426681Y-103119205D01*
X93426681Y-103404919D02*
X92426681Y-103404919D01*
X92569538Y-103309681D01*
X92664776Y-103214443D01*
X92712395Y-103119205D01*
X92426681Y-104595396D02*
X92426681Y-104119205D01*
X92902871Y-104071586D01*
X92855252Y-104119205D01*
X92807633Y-104214443D01*
X92807633Y-104452539D01*
X92855252Y-104547777D01*
X92902871Y-104595396D01*
X92998110Y-104643015D01*
X93236205Y-104643015D01*
X93331443Y-104595396D01*
X93379062Y-104547777D01*
X93426681Y-104452539D01*
X93426681Y-104214443D01*
X93379062Y-104119205D01*
X93331443Y-104071586D01*
X92426681Y-105262062D02*
X92426681Y-105357301D01*
X92474300Y-105452539D01*
X92521919Y-105500158D01*
X92617157Y-105547777D01*
X92807633Y-105595396D01*
X93045729Y-105595396D01*
X93236205Y-105547777D01*
X93331443Y-105500158D01*
X93379062Y-105452539D01*
X93426681Y-105357301D01*
X93426681Y-105262062D01*
X93379062Y-105166824D01*
X93331443Y-105119205D01*
X93236205Y-105071586D01*
X93045729Y-105023967D01*
X92807633Y-105023967D01*
X92617157Y-105071586D01*
X92521919Y-105119205D01*
X92474300Y-105166824D01*
X92426681Y-105262062D01*
X91648681Y-83442062D02*
X91648681Y-82870633D01*
X91648681Y-83156347D02*
X90648681Y-83156347D01*
X90791538Y-83061109D01*
X90886776Y-82965871D01*
X90934395Y-82870633D01*
X90648681Y-84061109D02*
X90648681Y-84156348D01*
X90696300Y-84251586D01*
X90743919Y-84299205D01*
X90839157Y-84346824D01*
X91029633Y-84394443D01*
X91267729Y-84394443D01*
X91458205Y-84346824D01*
X91553443Y-84299205D01*
X91601062Y-84251586D01*
X91648681Y-84156348D01*
X91648681Y-84061109D01*
X91601062Y-83965871D01*
X91553443Y-83918252D01*
X91458205Y-83870633D01*
X91267729Y-83823014D01*
X91029633Y-83823014D01*
X90839157Y-83870633D01*
X90743919Y-83918252D01*
X90696300Y-83965871D01*
X90648681Y-84061109D01*
X91648681Y-84823014D02*
X90648681Y-84823014D01*
X91267729Y-84918252D02*
X91648681Y-85203967D01*
X90982014Y-85203967D02*
X91362967Y-84823014D01*
X95966681Y-83442062D02*
X95966681Y-82870633D01*
X95966681Y-83156347D02*
X94966681Y-83156347D01*
X95109538Y-83061109D01*
X95204776Y-82965871D01*
X95252395Y-82870633D01*
X94966681Y-84061109D02*
X94966681Y-84156348D01*
X95014300Y-84251586D01*
X95061919Y-84299205D01*
X95157157Y-84346824D01*
X95347633Y-84394443D01*
X95585729Y-84394443D01*
X95776205Y-84346824D01*
X95871443Y-84299205D01*
X95919062Y-84251586D01*
X95966681Y-84156348D01*
X95966681Y-84061109D01*
X95919062Y-83965871D01*
X95871443Y-83918252D01*
X95776205Y-83870633D01*
X95585729Y-83823014D01*
X95347633Y-83823014D01*
X95157157Y-83870633D01*
X95061919Y-83918252D01*
X95014300Y-83965871D01*
X94966681Y-84061109D01*
X95966681Y-84823014D02*
X94966681Y-84823014D01*
X95585729Y-84918252D02*
X95966681Y-85203967D01*
X95300014Y-85203967D02*
X95680967Y-84823014D01*
X94442681Y-93157681D02*
X94442681Y-92586252D01*
X94442681Y-92871966D02*
X93442681Y-92871966D01*
X93585538Y-92776728D01*
X93680776Y-92681490D01*
X93728395Y-92586252D01*
X93442681Y-93776728D02*
X93442681Y-93871967D01*
X93490300Y-93967205D01*
X93537919Y-94014824D01*
X93633157Y-94062443D01*
X93823633Y-94110062D01*
X94061729Y-94110062D01*
X94252205Y-94062443D01*
X94347443Y-94014824D01*
X94395062Y-93967205D01*
X94442681Y-93871967D01*
X94442681Y-93776728D01*
X94395062Y-93681490D01*
X94347443Y-93633871D01*
X94252205Y-93586252D01*
X94061729Y-93538633D01*
X93823633Y-93538633D01*
X93633157Y-93586252D01*
X93537919Y-93633871D01*
X93490300Y-93681490D01*
X93442681Y-93776728D01*
X93442681Y-94729109D02*
X93442681Y-94824348D01*
X93490300Y-94919586D01*
X93537919Y-94967205D01*
X93633157Y-95014824D01*
X93823633Y-95062443D01*
X94061729Y-95062443D01*
X94252205Y-95014824D01*
X94347443Y-94967205D01*
X94395062Y-94919586D01*
X94442681Y-94824348D01*
X94442681Y-94729109D01*
X94395062Y-94633871D01*
X94347443Y-94586252D01*
X94252205Y-94538633D01*
X94061729Y-94491014D01*
X93823633Y-94491014D01*
X93633157Y-94538633D01*
X93537919Y-94586252D01*
X93490300Y-94633871D01*
X93442681Y-94729109D01*
X93776014Y-95491014D02*
X94442681Y-95491014D01*
X93871252Y-95491014D02*
X93823633Y-95538633D01*
X93776014Y-95633871D01*
X93776014Y-95776729D01*
X93823633Y-95871967D01*
X93918871Y-95919586D01*
X94442681Y-95919586D01*
X93918871Y-96729110D02*
X93918871Y-96395776D01*
X94442681Y-96395776D02*
X93442681Y-96395776D01*
X93442681Y-96871967D01*
X93172681Y-92395681D02*
X93172681Y-91824252D01*
X93172681Y-92109966D02*
X92172681Y-92109966D01*
X92315538Y-92014728D01*
X92410776Y-91919490D01*
X92458395Y-91824252D01*
X92172681Y-93014728D02*
X92172681Y-93109967D01*
X92220300Y-93205205D01*
X92267919Y-93252824D01*
X92363157Y-93300443D01*
X92553633Y-93348062D01*
X92791729Y-93348062D01*
X92982205Y-93300443D01*
X93077443Y-93252824D01*
X93125062Y-93205205D01*
X93172681Y-93109967D01*
X93172681Y-93014728D01*
X93125062Y-92919490D01*
X93077443Y-92871871D01*
X92982205Y-92824252D01*
X92791729Y-92776633D01*
X92553633Y-92776633D01*
X92363157Y-92824252D01*
X92267919Y-92871871D01*
X92220300Y-92919490D01*
X92172681Y-93014728D01*
X92172681Y-93967109D02*
X92172681Y-94062348D01*
X92220300Y-94157586D01*
X92267919Y-94205205D01*
X92363157Y-94252824D01*
X92553633Y-94300443D01*
X92791729Y-94300443D01*
X92982205Y-94252824D01*
X93077443Y-94205205D01*
X93125062Y-94157586D01*
X93172681Y-94062348D01*
X93172681Y-93967109D01*
X93125062Y-93871871D01*
X93077443Y-93824252D01*
X92982205Y-93776633D01*
X92791729Y-93729014D01*
X92553633Y-93729014D01*
X92363157Y-93776633D01*
X92267919Y-93824252D01*
X92220300Y-93871871D01*
X92172681Y-93967109D01*
X92506014Y-94729014D02*
X93172681Y-94729014D01*
X92601252Y-94729014D02*
X92553633Y-94776633D01*
X92506014Y-94871871D01*
X92506014Y-95014729D01*
X92553633Y-95109967D01*
X92648871Y-95157586D01*
X93172681Y-95157586D01*
X92648871Y-95967110D02*
X92648871Y-95633776D01*
X93172681Y-95633776D02*
X92172681Y-95633776D01*
X92172681Y-96109967D01*
X93172681Y-42395681D02*
X93172681Y-41824252D01*
X93172681Y-42109966D02*
X92172681Y-42109966D01*
X92315538Y-42014728D01*
X92410776Y-41919490D01*
X92458395Y-41824252D01*
X92172681Y-43014728D02*
X92172681Y-43109967D01*
X92220300Y-43205205D01*
X92267919Y-43252824D01*
X92363157Y-43300443D01*
X92553633Y-43348062D01*
X92791729Y-43348062D01*
X92982205Y-43300443D01*
X93077443Y-43252824D01*
X93125062Y-43205205D01*
X93172681Y-43109967D01*
X93172681Y-43014728D01*
X93125062Y-42919490D01*
X93077443Y-42871871D01*
X92982205Y-42824252D01*
X92791729Y-42776633D01*
X92553633Y-42776633D01*
X92363157Y-42824252D01*
X92267919Y-42871871D01*
X92220300Y-42919490D01*
X92172681Y-43014728D01*
X92172681Y-43967109D02*
X92172681Y-44062348D01*
X92220300Y-44157586D01*
X92267919Y-44205205D01*
X92363157Y-44252824D01*
X92553633Y-44300443D01*
X92791729Y-44300443D01*
X92982205Y-44252824D01*
X93077443Y-44205205D01*
X93125062Y-44157586D01*
X93172681Y-44062348D01*
X93172681Y-43967109D01*
X93125062Y-43871871D01*
X93077443Y-43824252D01*
X92982205Y-43776633D01*
X92791729Y-43729014D01*
X92553633Y-43729014D01*
X92363157Y-43776633D01*
X92267919Y-43824252D01*
X92220300Y-43871871D01*
X92172681Y-43967109D01*
X92506014Y-44729014D02*
X93172681Y-44729014D01*
X92601252Y-44729014D02*
X92553633Y-44776633D01*
X92506014Y-44871871D01*
X92506014Y-45014729D01*
X92553633Y-45109967D01*
X92648871Y-45157586D01*
X93172681Y-45157586D01*
X92648871Y-45967110D02*
X92648871Y-45633776D01*
X93172681Y-45633776D02*
X92172681Y-45633776D01*
X92172681Y-46109967D01*
X94442681Y-43157681D02*
X94442681Y-42586252D01*
X94442681Y-42871966D02*
X93442681Y-42871966D01*
X93585538Y-42776728D01*
X93680776Y-42681490D01*
X93728395Y-42586252D01*
X93442681Y-43776728D02*
X93442681Y-43871967D01*
X93490300Y-43967205D01*
X93537919Y-44014824D01*
X93633157Y-44062443D01*
X93823633Y-44110062D01*
X94061729Y-44110062D01*
X94252205Y-44062443D01*
X94347443Y-44014824D01*
X94395062Y-43967205D01*
X94442681Y-43871967D01*
X94442681Y-43776728D01*
X94395062Y-43681490D01*
X94347443Y-43633871D01*
X94252205Y-43586252D01*
X94061729Y-43538633D01*
X93823633Y-43538633D01*
X93633157Y-43586252D01*
X93537919Y-43633871D01*
X93490300Y-43681490D01*
X93442681Y-43776728D01*
X93442681Y-44729109D02*
X93442681Y-44824348D01*
X93490300Y-44919586D01*
X93537919Y-44967205D01*
X93633157Y-45014824D01*
X93823633Y-45062443D01*
X94061729Y-45062443D01*
X94252205Y-45014824D01*
X94347443Y-44967205D01*
X94395062Y-44919586D01*
X94442681Y-44824348D01*
X94442681Y-44729109D01*
X94395062Y-44633871D01*
X94347443Y-44586252D01*
X94252205Y-44538633D01*
X94061729Y-44491014D01*
X93823633Y-44491014D01*
X93633157Y-44538633D01*
X93537919Y-44586252D01*
X93490300Y-44633871D01*
X93442681Y-44729109D01*
X93776014Y-45491014D02*
X94442681Y-45491014D01*
X93871252Y-45491014D02*
X93823633Y-45538633D01*
X93776014Y-45633871D01*
X93776014Y-45776729D01*
X93823633Y-45871967D01*
X93918871Y-45919586D01*
X94442681Y-45919586D01*
X93918871Y-46729110D02*
X93918871Y-46395776D01*
X94442681Y-46395776D02*
X93442681Y-46395776D01*
X93442681Y-46871967D01*
X95966681Y-33442062D02*
X95966681Y-32870633D01*
X95966681Y-33156347D02*
X94966681Y-33156347D01*
X95109538Y-33061109D01*
X95204776Y-32965871D01*
X95252395Y-32870633D01*
X94966681Y-34061109D02*
X94966681Y-34156348D01*
X95014300Y-34251586D01*
X95061919Y-34299205D01*
X95157157Y-34346824D01*
X95347633Y-34394443D01*
X95585729Y-34394443D01*
X95776205Y-34346824D01*
X95871443Y-34299205D01*
X95919062Y-34251586D01*
X95966681Y-34156348D01*
X95966681Y-34061109D01*
X95919062Y-33965871D01*
X95871443Y-33918252D01*
X95776205Y-33870633D01*
X95585729Y-33823014D01*
X95347633Y-33823014D01*
X95157157Y-33870633D01*
X95061919Y-33918252D01*
X95014300Y-33965871D01*
X94966681Y-34061109D01*
X95966681Y-34823014D02*
X94966681Y-34823014D01*
X95585729Y-34918252D02*
X95966681Y-35203967D01*
X95300014Y-35203967D02*
X95680967Y-34823014D01*
X91648681Y-33442062D02*
X91648681Y-32870633D01*
X91648681Y-33156347D02*
X90648681Y-33156347D01*
X90791538Y-33061109D01*
X90886776Y-32965871D01*
X90934395Y-32870633D01*
X90648681Y-34061109D02*
X90648681Y-34156348D01*
X90696300Y-34251586D01*
X90743919Y-34299205D01*
X90839157Y-34346824D01*
X91029633Y-34394443D01*
X91267729Y-34394443D01*
X91458205Y-34346824D01*
X91553443Y-34299205D01*
X91601062Y-34251586D01*
X91648681Y-34156348D01*
X91648681Y-34061109D01*
X91601062Y-33965871D01*
X91553443Y-33918252D01*
X91458205Y-33870633D01*
X91267729Y-33823014D01*
X91029633Y-33823014D01*
X90839157Y-33870633D01*
X90743919Y-33918252D01*
X90696300Y-33965871D01*
X90648681Y-34061109D01*
X91648681Y-34823014D02*
X90648681Y-34823014D01*
X91267729Y-34918252D02*
X91648681Y-35203967D01*
X90982014Y-35203967D02*
X91362967Y-34823014D01*
X93426681Y-53690634D02*
X93426681Y-53119205D01*
X93426681Y-53404919D02*
X92426681Y-53404919D01*
X92569538Y-53309681D01*
X92664776Y-53214443D01*
X92712395Y-53119205D01*
X92426681Y-54595396D02*
X92426681Y-54119205D01*
X92902871Y-54071586D01*
X92855252Y-54119205D01*
X92807633Y-54214443D01*
X92807633Y-54452539D01*
X92855252Y-54547777D01*
X92902871Y-54595396D01*
X92998110Y-54643015D01*
X93236205Y-54643015D01*
X93331443Y-54595396D01*
X93379062Y-54547777D01*
X93426681Y-54452539D01*
X93426681Y-54214443D01*
X93379062Y-54119205D01*
X93331443Y-54071586D01*
X92426681Y-55262062D02*
X92426681Y-55357301D01*
X92474300Y-55452539D01*
X92521919Y-55500158D01*
X92617157Y-55547777D01*
X92807633Y-55595396D01*
X93045729Y-55595396D01*
X93236205Y-55547777D01*
X93331443Y-55500158D01*
X93379062Y-55452539D01*
X93426681Y-55357301D01*
X93426681Y-55262062D01*
X93379062Y-55166824D01*
X93331443Y-55119205D01*
X93236205Y-55071586D01*
X93045729Y-55023967D01*
X92807633Y-55023967D01*
X92617157Y-55071586D01*
X92521919Y-55119205D01*
X92474300Y-55166824D01*
X92426681Y-55262062D01*
X94188681Y-50134634D02*
X94188681Y-49563205D01*
X94188681Y-49848919D02*
X93188681Y-49848919D01*
X93331538Y-49753681D01*
X93426776Y-49658443D01*
X93474395Y-49563205D01*
X93188681Y-51039396D02*
X93188681Y-50563205D01*
X93664871Y-50515586D01*
X93617252Y-50563205D01*
X93569633Y-50658443D01*
X93569633Y-50896539D01*
X93617252Y-50991777D01*
X93664871Y-51039396D01*
X93760110Y-51087015D01*
X93998205Y-51087015D01*
X94093443Y-51039396D01*
X94141062Y-50991777D01*
X94188681Y-50896539D01*
X94188681Y-50658443D01*
X94141062Y-50563205D01*
X94093443Y-50515586D01*
X93188681Y-51706062D02*
X93188681Y-51801301D01*
X93236300Y-51896539D01*
X93283919Y-51944158D01*
X93379157Y-51991777D01*
X93569633Y-52039396D01*
X93807729Y-52039396D01*
X93998205Y-51991777D01*
X94093443Y-51944158D01*
X94141062Y-51896539D01*
X94188681Y-51801301D01*
X94188681Y-51706062D01*
X94141062Y-51610824D01*
X94093443Y-51563205D01*
X93998205Y-51515586D01*
X93807729Y-51467967D01*
X93569633Y-51467967D01*
X93379157Y-51515586D01*
X93283919Y-51563205D01*
X93236300Y-51610824D01*
X93188681Y-51706062D01*
X93421681Y-59024634D02*
X93421681Y-58453205D01*
X93421681Y-58738919D02*
X92421681Y-58738919D01*
X92564538Y-58643681D01*
X92659776Y-58548443D01*
X92707395Y-58453205D01*
X92421681Y-59929396D02*
X92421681Y-59453205D01*
X92897871Y-59405586D01*
X92850252Y-59453205D01*
X92802633Y-59548443D01*
X92802633Y-59786539D01*
X92850252Y-59881777D01*
X92897871Y-59929396D01*
X92993110Y-59977015D01*
X93231205Y-59977015D01*
X93326443Y-59929396D01*
X93374062Y-59881777D01*
X93421681Y-59786539D01*
X93421681Y-59548443D01*
X93374062Y-59453205D01*
X93326443Y-59405586D01*
X92421681Y-60596062D02*
X92421681Y-60691301D01*
X92469300Y-60786539D01*
X92516919Y-60834158D01*
X92612157Y-60881777D01*
X92802633Y-60929396D01*
X93040729Y-60929396D01*
X93231205Y-60881777D01*
X93326443Y-60834158D01*
X93374062Y-60786539D01*
X93421681Y-60691301D01*
X93421681Y-60596062D01*
X93374062Y-60500824D01*
X93326443Y-60453205D01*
X93231205Y-60405586D01*
X93040729Y-60357967D01*
X92802633Y-60357967D01*
X92612157Y-60405586D01*
X92516919Y-60453205D01*
X92469300Y-60500824D01*
X92421681Y-60596062D01*
X94188681Y-56230634D02*
X94188681Y-55659205D01*
X94188681Y-55944919D02*
X93188681Y-55944919D01*
X93331538Y-55849681D01*
X93426776Y-55754443D01*
X93474395Y-55659205D01*
X93188681Y-57135396D02*
X93188681Y-56659205D01*
X93664871Y-56611586D01*
X93617252Y-56659205D01*
X93569633Y-56754443D01*
X93569633Y-56992539D01*
X93617252Y-57087777D01*
X93664871Y-57135396D01*
X93760110Y-57183015D01*
X93998205Y-57183015D01*
X94093443Y-57135396D01*
X94141062Y-57087777D01*
X94188681Y-56992539D01*
X94188681Y-56754443D01*
X94141062Y-56659205D01*
X94093443Y-56611586D01*
X93188681Y-57802062D02*
X93188681Y-57897301D01*
X93236300Y-57992539D01*
X93283919Y-58040158D01*
X93379157Y-58087777D01*
X93569633Y-58135396D01*
X93807729Y-58135396D01*
X93998205Y-58087777D01*
X94093443Y-58040158D01*
X94141062Y-57992539D01*
X94188681Y-57897301D01*
X94188681Y-57802062D01*
X94141062Y-57706824D01*
X94093443Y-57659205D01*
X93998205Y-57611586D01*
X93807729Y-57563967D01*
X93569633Y-57563967D01*
X93379157Y-57611586D01*
X93283919Y-57659205D01*
X93236300Y-57706824D01*
X93188681Y-57802062D01*
X93426681Y-67914634D02*
X93426681Y-67343205D01*
X93426681Y-67628919D02*
X92426681Y-67628919D01*
X92569538Y-67533681D01*
X92664776Y-67438443D01*
X92712395Y-67343205D01*
X92426681Y-68819396D02*
X92426681Y-68343205D01*
X92902871Y-68295586D01*
X92855252Y-68343205D01*
X92807633Y-68438443D01*
X92807633Y-68676539D01*
X92855252Y-68771777D01*
X92902871Y-68819396D01*
X92998110Y-68867015D01*
X93236205Y-68867015D01*
X93331443Y-68819396D01*
X93379062Y-68771777D01*
X93426681Y-68676539D01*
X93426681Y-68438443D01*
X93379062Y-68343205D01*
X93331443Y-68295586D01*
X92426681Y-69486062D02*
X92426681Y-69581301D01*
X92474300Y-69676539D01*
X92521919Y-69724158D01*
X92617157Y-69771777D01*
X92807633Y-69819396D01*
X93045729Y-69819396D01*
X93236205Y-69771777D01*
X93331443Y-69724158D01*
X93379062Y-69676539D01*
X93426681Y-69581301D01*
X93426681Y-69486062D01*
X93379062Y-69390824D01*
X93331443Y-69343205D01*
X93236205Y-69295586D01*
X93045729Y-69247967D01*
X92807633Y-69247967D01*
X92617157Y-69295586D01*
X92521919Y-69343205D01*
X92474300Y-69390824D01*
X92426681Y-69486062D01*
X94188681Y-64358634D02*
X94188681Y-63787205D01*
X94188681Y-64072919D02*
X93188681Y-64072919D01*
X93331538Y-63977681D01*
X93426776Y-63882443D01*
X93474395Y-63787205D01*
X93188681Y-65263396D02*
X93188681Y-64787205D01*
X93664871Y-64739586D01*
X93617252Y-64787205D01*
X93569633Y-64882443D01*
X93569633Y-65120539D01*
X93617252Y-65215777D01*
X93664871Y-65263396D01*
X93760110Y-65311015D01*
X93998205Y-65311015D01*
X94093443Y-65263396D01*
X94141062Y-65215777D01*
X94188681Y-65120539D01*
X94188681Y-64882443D01*
X94141062Y-64787205D01*
X94093443Y-64739586D01*
X93188681Y-65930062D02*
X93188681Y-66025301D01*
X93236300Y-66120539D01*
X93283919Y-66168158D01*
X93379157Y-66215777D01*
X93569633Y-66263396D01*
X93807729Y-66263396D01*
X93998205Y-66215777D01*
X94093443Y-66168158D01*
X94141062Y-66120539D01*
X94188681Y-66025301D01*
X94188681Y-65930062D01*
X94141062Y-65834824D01*
X94093443Y-65787205D01*
X93998205Y-65739586D01*
X93807729Y-65691967D01*
X93569633Y-65691967D01*
X93379157Y-65739586D01*
X93283919Y-65787205D01*
X93236300Y-65834824D01*
X93188681Y-65930062D01*
X107396681Y-46832634D02*
X107396681Y-46261205D01*
X107396681Y-46546919D02*
X106396681Y-46546919D01*
X106539538Y-46451681D01*
X106634776Y-46356443D01*
X106682395Y-46261205D01*
X106396681Y-47737396D02*
X106396681Y-47261205D01*
X106872871Y-47213586D01*
X106825252Y-47261205D01*
X106777633Y-47356443D01*
X106777633Y-47594539D01*
X106825252Y-47689777D01*
X106872871Y-47737396D01*
X106968110Y-47785015D01*
X107206205Y-47785015D01*
X107301443Y-47737396D01*
X107349062Y-47689777D01*
X107396681Y-47594539D01*
X107396681Y-47356443D01*
X107349062Y-47261205D01*
X107301443Y-47213586D01*
X106396681Y-48404062D02*
X106396681Y-48499301D01*
X106444300Y-48594539D01*
X106491919Y-48642158D01*
X106587157Y-48689777D01*
X106777633Y-48737396D01*
X107015729Y-48737396D01*
X107206205Y-48689777D01*
X107301443Y-48642158D01*
X107349062Y-48594539D01*
X107396681Y-48499301D01*
X107396681Y-48404062D01*
X107349062Y-48308824D01*
X107301443Y-48261205D01*
X107206205Y-48213586D01*
X107015729Y-48165967D01*
X106777633Y-48165967D01*
X106587157Y-48213586D01*
X106491919Y-48261205D01*
X106444300Y-48308824D01*
X106396681Y-48404062D01*
X118318681Y-40990634D02*
X118318681Y-40419205D01*
X118318681Y-40704919D02*
X117318681Y-40704919D01*
X117461538Y-40609681D01*
X117556776Y-40514443D01*
X117604395Y-40419205D01*
X117318681Y-41895396D02*
X117318681Y-41419205D01*
X117794871Y-41371586D01*
X117747252Y-41419205D01*
X117699633Y-41514443D01*
X117699633Y-41752539D01*
X117747252Y-41847777D01*
X117794871Y-41895396D01*
X117890110Y-41943015D01*
X118128205Y-41943015D01*
X118223443Y-41895396D01*
X118271062Y-41847777D01*
X118318681Y-41752539D01*
X118318681Y-41514443D01*
X118271062Y-41419205D01*
X118223443Y-41371586D01*
X117318681Y-42562062D02*
X117318681Y-42657301D01*
X117366300Y-42752539D01*
X117413919Y-42800158D01*
X117509157Y-42847777D01*
X117699633Y-42895396D01*
X117937729Y-42895396D01*
X118128205Y-42847777D01*
X118223443Y-42800158D01*
X118271062Y-42752539D01*
X118318681Y-42657301D01*
X118318681Y-42562062D01*
X118271062Y-42466824D01*
X118223443Y-42419205D01*
X118128205Y-42371586D01*
X117937729Y-42323967D01*
X117699633Y-42323967D01*
X117509157Y-42371586D01*
X117413919Y-42419205D01*
X117366300Y-42466824D01*
X117318681Y-42562062D01*
X101554681Y-36164634D02*
X101554681Y-35593205D01*
X101554681Y-35878919D02*
X100554681Y-35878919D01*
X100697538Y-35783681D01*
X100792776Y-35688443D01*
X100840395Y-35593205D01*
X100554681Y-37069396D02*
X100554681Y-36593205D01*
X101030871Y-36545586D01*
X100983252Y-36593205D01*
X100935633Y-36688443D01*
X100935633Y-36926539D01*
X100983252Y-37021777D01*
X101030871Y-37069396D01*
X101126110Y-37117015D01*
X101364205Y-37117015D01*
X101459443Y-37069396D01*
X101507062Y-37021777D01*
X101554681Y-36926539D01*
X101554681Y-36688443D01*
X101507062Y-36593205D01*
X101459443Y-36545586D01*
X100554681Y-37736062D02*
X100554681Y-37831301D01*
X100602300Y-37926539D01*
X100649919Y-37974158D01*
X100745157Y-38021777D01*
X100935633Y-38069396D01*
X101173729Y-38069396D01*
X101364205Y-38021777D01*
X101459443Y-37974158D01*
X101507062Y-37926539D01*
X101554681Y-37831301D01*
X101554681Y-37736062D01*
X101507062Y-37640824D01*
X101459443Y-37593205D01*
X101364205Y-37545586D01*
X101173729Y-37497967D01*
X100935633Y-37497967D01*
X100745157Y-37545586D01*
X100649919Y-37593205D01*
X100602300Y-37640824D01*
X100554681Y-37736062D01*
X115524681Y-40990634D02*
X115524681Y-40419205D01*
X115524681Y-40704919D02*
X114524681Y-40704919D01*
X114667538Y-40609681D01*
X114762776Y-40514443D01*
X114810395Y-40419205D01*
X114524681Y-41895396D02*
X114524681Y-41419205D01*
X115000871Y-41371586D01*
X114953252Y-41419205D01*
X114905633Y-41514443D01*
X114905633Y-41752539D01*
X114953252Y-41847777D01*
X115000871Y-41895396D01*
X115096110Y-41943015D01*
X115334205Y-41943015D01*
X115429443Y-41895396D01*
X115477062Y-41847777D01*
X115524681Y-41752539D01*
X115524681Y-41514443D01*
X115477062Y-41419205D01*
X115429443Y-41371586D01*
X114524681Y-42562062D02*
X114524681Y-42657301D01*
X114572300Y-42752539D01*
X114619919Y-42800158D01*
X114715157Y-42847777D01*
X114905633Y-42895396D01*
X115143729Y-42895396D01*
X115334205Y-42847777D01*
X115429443Y-42800158D01*
X115477062Y-42752539D01*
X115524681Y-42657301D01*
X115524681Y-42562062D01*
X115477062Y-42466824D01*
X115429443Y-42419205D01*
X115334205Y-42371586D01*
X115143729Y-42323967D01*
X114905633Y-42323967D01*
X114715157Y-42371586D01*
X114619919Y-42419205D01*
X114572300Y-42466824D01*
X114524681Y-42562062D01*
X100538681Y-48102634D02*
X100538681Y-47531205D01*
X100538681Y-47816919D02*
X99538681Y-47816919D01*
X99681538Y-47721681D01*
X99776776Y-47626443D01*
X99824395Y-47531205D01*
X99538681Y-49007396D02*
X99538681Y-48531205D01*
X100014871Y-48483586D01*
X99967252Y-48531205D01*
X99919633Y-48626443D01*
X99919633Y-48864539D01*
X99967252Y-48959777D01*
X100014871Y-49007396D01*
X100110110Y-49055015D01*
X100348205Y-49055015D01*
X100443443Y-49007396D01*
X100491062Y-48959777D01*
X100538681Y-48864539D01*
X100538681Y-48626443D01*
X100491062Y-48531205D01*
X100443443Y-48483586D01*
X99538681Y-49674062D02*
X99538681Y-49769301D01*
X99586300Y-49864539D01*
X99633919Y-49912158D01*
X99729157Y-49959777D01*
X99919633Y-50007396D01*
X100157729Y-50007396D01*
X100348205Y-49959777D01*
X100443443Y-49912158D01*
X100491062Y-49864539D01*
X100538681Y-49769301D01*
X100538681Y-49674062D01*
X100491062Y-49578824D01*
X100443443Y-49531205D01*
X100348205Y-49483586D01*
X100157729Y-49435967D01*
X99919633Y-49435967D01*
X99729157Y-49483586D01*
X99633919Y-49531205D01*
X99586300Y-49578824D01*
X99538681Y-49674062D01*
X109936681Y-46832634D02*
X109936681Y-46261205D01*
X109936681Y-46546919D02*
X108936681Y-46546919D01*
X109079538Y-46451681D01*
X109174776Y-46356443D01*
X109222395Y-46261205D01*
X108936681Y-47737396D02*
X108936681Y-47261205D01*
X109412871Y-47213586D01*
X109365252Y-47261205D01*
X109317633Y-47356443D01*
X109317633Y-47594539D01*
X109365252Y-47689777D01*
X109412871Y-47737396D01*
X109508110Y-47785015D01*
X109746205Y-47785015D01*
X109841443Y-47737396D01*
X109889062Y-47689777D01*
X109936681Y-47594539D01*
X109936681Y-47356443D01*
X109889062Y-47261205D01*
X109841443Y-47213586D01*
X108936681Y-48404062D02*
X108936681Y-48499301D01*
X108984300Y-48594539D01*
X109031919Y-48642158D01*
X109127157Y-48689777D01*
X109317633Y-48737396D01*
X109555729Y-48737396D01*
X109746205Y-48689777D01*
X109841443Y-48642158D01*
X109889062Y-48594539D01*
X109936681Y-48499301D01*
X109936681Y-48404062D01*
X109889062Y-48308824D01*
X109841443Y-48261205D01*
X109746205Y-48213586D01*
X109555729Y-48165967D01*
X109317633Y-48165967D01*
X109127157Y-48213586D01*
X109031919Y-48261205D01*
X108984300Y-48308824D01*
X108936681Y-48404062D01*
X100416681Y-55214634D02*
X100416681Y-54643205D01*
X100416681Y-54928919D02*
X99416681Y-54928919D01*
X99559538Y-54833681D01*
X99654776Y-54738443D01*
X99702395Y-54643205D01*
X99416681Y-56119396D02*
X99416681Y-55643205D01*
X99892871Y-55595586D01*
X99845252Y-55643205D01*
X99797633Y-55738443D01*
X99797633Y-55976539D01*
X99845252Y-56071777D01*
X99892871Y-56119396D01*
X99988110Y-56167015D01*
X100226205Y-56167015D01*
X100321443Y-56119396D01*
X100369062Y-56071777D01*
X100416681Y-55976539D01*
X100416681Y-55738443D01*
X100369062Y-55643205D01*
X100321443Y-55595586D01*
X99416681Y-56786062D02*
X99416681Y-56881301D01*
X99464300Y-56976539D01*
X99511919Y-57024158D01*
X99607157Y-57071777D01*
X99797633Y-57119396D01*
X100035729Y-57119396D01*
X100226205Y-57071777D01*
X100321443Y-57024158D01*
X100369062Y-56976539D01*
X100416681Y-56881301D01*
X100416681Y-56786062D01*
X100369062Y-56690824D01*
X100321443Y-56643205D01*
X100226205Y-56595586D01*
X100035729Y-56547967D01*
X99797633Y-56547967D01*
X99607157Y-56595586D01*
X99511919Y-56643205D01*
X99464300Y-56690824D01*
X99416681Y-56786062D01*
X109936681Y-63850634D02*
X109936681Y-63279205D01*
X109936681Y-63564919D02*
X108936681Y-63564919D01*
X109079538Y-63469681D01*
X109174776Y-63374443D01*
X109222395Y-63279205D01*
X108936681Y-64755396D02*
X108936681Y-64279205D01*
X109412871Y-64231586D01*
X109365252Y-64279205D01*
X109317633Y-64374443D01*
X109317633Y-64612539D01*
X109365252Y-64707777D01*
X109412871Y-64755396D01*
X109508110Y-64803015D01*
X109746205Y-64803015D01*
X109841443Y-64755396D01*
X109889062Y-64707777D01*
X109936681Y-64612539D01*
X109936681Y-64374443D01*
X109889062Y-64279205D01*
X109841443Y-64231586D01*
X108936681Y-65422062D02*
X108936681Y-65517301D01*
X108984300Y-65612539D01*
X109031919Y-65660158D01*
X109127157Y-65707777D01*
X109317633Y-65755396D01*
X109555729Y-65755396D01*
X109746205Y-65707777D01*
X109841443Y-65660158D01*
X109889062Y-65612539D01*
X109936681Y-65517301D01*
X109936681Y-65422062D01*
X109889062Y-65326824D01*
X109841443Y-65279205D01*
X109746205Y-65231586D01*
X109555729Y-65183967D01*
X109317633Y-65183967D01*
X109127157Y-65231586D01*
X109031919Y-65279205D01*
X108984300Y-65326824D01*
X108936681Y-65422062D01*
X107396681Y-63850634D02*
X107396681Y-63279205D01*
X107396681Y-63564919D02*
X106396681Y-63564919D01*
X106539538Y-63469681D01*
X106634776Y-63374443D01*
X106682395Y-63279205D01*
X106396681Y-64755396D02*
X106396681Y-64279205D01*
X106872871Y-64231586D01*
X106825252Y-64279205D01*
X106777633Y-64374443D01*
X106777633Y-64612539D01*
X106825252Y-64707777D01*
X106872871Y-64755396D01*
X106968110Y-64803015D01*
X107206205Y-64803015D01*
X107301443Y-64755396D01*
X107349062Y-64707777D01*
X107396681Y-64612539D01*
X107396681Y-64374443D01*
X107349062Y-64279205D01*
X107301443Y-64231586D01*
X106396681Y-65422062D02*
X106396681Y-65517301D01*
X106444300Y-65612539D01*
X106491919Y-65660158D01*
X106587157Y-65707777D01*
X106777633Y-65755396D01*
X107015729Y-65755396D01*
X107206205Y-65707777D01*
X107301443Y-65660158D01*
X107349062Y-65612539D01*
X107396681Y-65517301D01*
X107396681Y-65422062D01*
X107349062Y-65326824D01*
X107301443Y-65279205D01*
X107206205Y-65231586D01*
X107015729Y-65183967D01*
X106777633Y-65183967D01*
X106587157Y-65231586D01*
X106491919Y-65279205D01*
X106444300Y-65326824D01*
X106396681Y-65422062D01*
X117770966Y-60021681D02*
X118342395Y-60021681D01*
X118056681Y-60021681D02*
X118056681Y-59021681D01*
X118151919Y-59164538D01*
X118247157Y-59259776D01*
X118342395Y-59307395D01*
X116866204Y-59021681D02*
X117342395Y-59021681D01*
X117390014Y-59497871D01*
X117342395Y-59450252D01*
X117247157Y-59402633D01*
X117009061Y-59402633D01*
X116913823Y-59450252D01*
X116866204Y-59497871D01*
X116818585Y-59593110D01*
X116818585Y-59831205D01*
X116866204Y-59926443D01*
X116913823Y-59974062D01*
X117009061Y-60021681D01*
X117247157Y-60021681D01*
X117342395Y-59974062D01*
X117390014Y-59926443D01*
X116199538Y-59021681D02*
X116104299Y-59021681D01*
X116009061Y-59069300D01*
X115961442Y-59116919D01*
X115913823Y-59212157D01*
X115866204Y-59402633D01*
X115866204Y-59640729D01*
X115913823Y-59831205D01*
X115961442Y-59926443D01*
X116009061Y-59974062D01*
X116104299Y-60021681D01*
X116199538Y-60021681D01*
X116294776Y-59974062D01*
X116342395Y-59926443D01*
X116390014Y-59831205D01*
X116437633Y-59640729D01*
X116437633Y-59402633D01*
X116390014Y-59212157D01*
X116342395Y-59116919D01*
X116294776Y-59069300D01*
X116199538Y-59021681D01*
X101300681Y-67152634D02*
X101300681Y-66581205D01*
X101300681Y-66866919D02*
X100300681Y-66866919D01*
X100443538Y-66771681D01*
X100538776Y-66676443D01*
X100586395Y-66581205D01*
X100300681Y-68057396D02*
X100300681Y-67581205D01*
X100776871Y-67533586D01*
X100729252Y-67581205D01*
X100681633Y-67676443D01*
X100681633Y-67914539D01*
X100729252Y-68009777D01*
X100776871Y-68057396D01*
X100872110Y-68105015D01*
X101110205Y-68105015D01*
X101205443Y-68057396D01*
X101253062Y-68009777D01*
X101300681Y-67914539D01*
X101300681Y-67676443D01*
X101253062Y-67581205D01*
X101205443Y-67533586D01*
X100300681Y-68724062D02*
X100300681Y-68819301D01*
X100348300Y-68914539D01*
X100395919Y-68962158D01*
X100491157Y-69009777D01*
X100681633Y-69057396D01*
X100919729Y-69057396D01*
X101110205Y-69009777D01*
X101205443Y-68962158D01*
X101253062Y-68914539D01*
X101300681Y-68819301D01*
X101300681Y-68724062D01*
X101253062Y-68628824D01*
X101205443Y-68581205D01*
X101110205Y-68533586D01*
X100919729Y-68485967D01*
X100681633Y-68485967D01*
X100491157Y-68533586D01*
X100395919Y-68581205D01*
X100348300Y-68628824D01*
X100300681Y-68724062D01*
X117770966Y-66747681D02*
X118342395Y-66747681D01*
X118056681Y-66747681D02*
X118056681Y-65747681D01*
X118151919Y-65890538D01*
X118247157Y-65985776D01*
X118342395Y-66033395D01*
X116866204Y-65747681D02*
X117342395Y-65747681D01*
X117390014Y-66223871D01*
X117342395Y-66176252D01*
X117247157Y-66128633D01*
X117009061Y-66128633D01*
X116913823Y-66176252D01*
X116866204Y-66223871D01*
X116818585Y-66319110D01*
X116818585Y-66557205D01*
X116866204Y-66652443D01*
X116913823Y-66700062D01*
X117009061Y-66747681D01*
X117247157Y-66747681D01*
X117342395Y-66700062D01*
X117390014Y-66652443D01*
X116199538Y-65747681D02*
X116104299Y-65747681D01*
X116009061Y-65795300D01*
X115961442Y-65842919D01*
X115913823Y-65938157D01*
X115866204Y-66128633D01*
X115866204Y-66366729D01*
X115913823Y-66557205D01*
X115961442Y-66652443D01*
X116009061Y-66700062D01*
X116104299Y-66747681D01*
X116199538Y-66747681D01*
X116294776Y-66700062D01*
X116342395Y-66652443D01*
X116390014Y-66557205D01*
X116437633Y-66366729D01*
X116437633Y-66128633D01*
X116390014Y-65938157D01*
X116342395Y-65842919D01*
X116294776Y-65795300D01*
X116199538Y-65747681D01*
X117770966Y-55571681D02*
X118342395Y-55571681D01*
X118056681Y-55571681D02*
X118056681Y-54571681D01*
X118151919Y-54714538D01*
X118247157Y-54809776D01*
X118342395Y-54857395D01*
X116866204Y-54571681D02*
X117342395Y-54571681D01*
X117390014Y-55047871D01*
X117342395Y-55000252D01*
X117247157Y-54952633D01*
X117009061Y-54952633D01*
X116913823Y-55000252D01*
X116866204Y-55047871D01*
X116818585Y-55143110D01*
X116818585Y-55381205D01*
X116866204Y-55476443D01*
X116913823Y-55524062D01*
X117009061Y-55571681D01*
X117247157Y-55571681D01*
X117342395Y-55524062D01*
X117390014Y-55476443D01*
X116199538Y-54571681D02*
X116104299Y-54571681D01*
X116009061Y-54619300D01*
X115961442Y-54666919D01*
X115913823Y-54762157D01*
X115866204Y-54952633D01*
X115866204Y-55190729D01*
X115913823Y-55381205D01*
X115961442Y-55476443D01*
X116009061Y-55524062D01*
X116104299Y-55571681D01*
X116199538Y-55571681D01*
X116294776Y-55524062D01*
X116342395Y-55476443D01*
X116390014Y-55381205D01*
X116437633Y-55190729D01*
X116437633Y-54952633D01*
X116390014Y-54762157D01*
X116342395Y-54666919D01*
X116294776Y-54619300D01*
X116199538Y-54571681D01*
X104777347Y-29663681D02*
X105348776Y-29663681D01*
X105063062Y-29663681D02*
X105063062Y-28663681D01*
X105158300Y-28806538D01*
X105253538Y-28901776D01*
X105348776Y-28949395D01*
X104348776Y-29663681D02*
X104348776Y-28663681D01*
X104253538Y-29282729D02*
X103967823Y-29663681D01*
X103967823Y-28997014D02*
X104348776Y-29377967D01*
X72207381Y-40608334D02*
X72207381Y-40036905D01*
X72207381Y-40322619D02*
X71207381Y-40322619D01*
X71350238Y-40227381D01*
X71445476Y-40132143D01*
X71493095Y-40036905D01*
X71207381Y-41513096D02*
X71207381Y-41036905D01*
X71683571Y-40989286D01*
X71635952Y-41036905D01*
X71588333Y-41132143D01*
X71588333Y-41370239D01*
X71635952Y-41465477D01*
X71683571Y-41513096D01*
X71778810Y-41560715D01*
X72016905Y-41560715D01*
X72112143Y-41513096D01*
X72159762Y-41465477D01*
X72207381Y-41370239D01*
X72207381Y-41132143D01*
X72159762Y-41036905D01*
X72112143Y-40989286D01*
X71207381Y-42179762D02*
X71207381Y-42275001D01*
X71255000Y-42370239D01*
X71302619Y-42417858D01*
X71397857Y-42465477D01*
X71588333Y-42513096D01*
X71826429Y-42513096D01*
X72016905Y-42465477D01*
X72112143Y-42417858D01*
X72159762Y-42370239D01*
X72207381Y-42275001D01*
X72207381Y-42179762D01*
X72159762Y-42084524D01*
X72112143Y-42036905D01*
X72016905Y-41989286D01*
X71826429Y-41941667D01*
X71588333Y-41941667D01*
X71397857Y-41989286D01*
X71302619Y-42036905D01*
X71255000Y-42084524D01*
X71207381Y-42179762D01*
X72207381Y-43783334D02*
X72207381Y-43211905D01*
X72207381Y-43497619D02*
X71207381Y-43497619D01*
X71350238Y-43402381D01*
X71445476Y-43307143D01*
X71493095Y-43211905D01*
X71207381Y-44688096D02*
X71207381Y-44211905D01*
X71683571Y-44164286D01*
X71635952Y-44211905D01*
X71588333Y-44307143D01*
X71588333Y-44545239D01*
X71635952Y-44640477D01*
X71683571Y-44688096D01*
X71778810Y-44735715D01*
X72016905Y-44735715D01*
X72112143Y-44688096D01*
X72159762Y-44640477D01*
X72207381Y-44545239D01*
X72207381Y-44307143D01*
X72159762Y-44211905D01*
X72112143Y-44164286D01*
X71207381Y-45354762D02*
X71207381Y-45450001D01*
X71255000Y-45545239D01*
X71302619Y-45592858D01*
X71397857Y-45640477D01*
X71588333Y-45688096D01*
X71826429Y-45688096D01*
X72016905Y-45640477D01*
X72112143Y-45592858D01*
X72159762Y-45545239D01*
X72207381Y-45450001D01*
X72207381Y-45354762D01*
X72159762Y-45259524D01*
X72112143Y-45211905D01*
X72016905Y-45164286D01*
X71826429Y-45116667D01*
X71588333Y-45116667D01*
X71397857Y-45164286D01*
X71302619Y-45211905D01*
X71255000Y-45259524D01*
X71207381Y-45354762D01*
X80041666Y-42997381D02*
X80613095Y-42997381D01*
X80327381Y-42997381D02*
X80327381Y-41997381D01*
X80422619Y-42140238D01*
X80517857Y-42235476D01*
X80613095Y-42283095D01*
X79136904Y-41997381D02*
X79613095Y-41997381D01*
X79660714Y-42473571D01*
X79613095Y-42425952D01*
X79517857Y-42378333D01*
X79279761Y-42378333D01*
X79184523Y-42425952D01*
X79136904Y-42473571D01*
X79089285Y-42568810D01*
X79089285Y-42806905D01*
X79136904Y-42902143D01*
X79184523Y-42949762D01*
X79279761Y-42997381D01*
X79517857Y-42997381D01*
X79613095Y-42949762D01*
X79660714Y-42902143D01*
X78470238Y-41997381D02*
X78374999Y-41997381D01*
X78279761Y-42045000D01*
X78232142Y-42092619D01*
X78184523Y-42187857D01*
X78136904Y-42378333D01*
X78136904Y-42616429D01*
X78184523Y-42806905D01*
X78232142Y-42902143D01*
X78279761Y-42949762D01*
X78374999Y-42997381D01*
X78470238Y-42997381D01*
X78565476Y-42949762D01*
X78613095Y-42902143D01*
X78660714Y-42806905D01*
X78708333Y-42616429D01*
X78708333Y-42378333D01*
X78660714Y-42187857D01*
X78613095Y-42092619D01*
X78565476Y-42045000D01*
X78470238Y-41997381D01*
X72207381Y-46958334D02*
X72207381Y-46386905D01*
X72207381Y-46672619D02*
X71207381Y-46672619D01*
X71350238Y-46577381D01*
X71445476Y-46482143D01*
X71493095Y-46386905D01*
X71207381Y-47863096D02*
X71207381Y-47386905D01*
X71683571Y-47339286D01*
X71635952Y-47386905D01*
X71588333Y-47482143D01*
X71588333Y-47720239D01*
X71635952Y-47815477D01*
X71683571Y-47863096D01*
X71778810Y-47910715D01*
X72016905Y-47910715D01*
X72112143Y-47863096D01*
X72159762Y-47815477D01*
X72207381Y-47720239D01*
X72207381Y-47482143D01*
X72159762Y-47386905D01*
X72112143Y-47339286D01*
X71207381Y-48529762D02*
X71207381Y-48625001D01*
X71255000Y-48720239D01*
X71302619Y-48767858D01*
X71397857Y-48815477D01*
X71588333Y-48863096D01*
X71826429Y-48863096D01*
X72016905Y-48815477D01*
X72112143Y-48767858D01*
X72159762Y-48720239D01*
X72207381Y-48625001D01*
X72207381Y-48529762D01*
X72159762Y-48434524D01*
X72112143Y-48386905D01*
X72016905Y-48339286D01*
X71826429Y-48291667D01*
X71588333Y-48291667D01*
X71397857Y-48339286D01*
X71302619Y-48386905D01*
X71255000Y-48434524D01*
X71207381Y-48529762D01*
X80041666Y-49347381D02*
X80613095Y-49347381D01*
X80327381Y-49347381D02*
X80327381Y-48347381D01*
X80422619Y-48490238D01*
X80517857Y-48585476D01*
X80613095Y-48633095D01*
X79136904Y-48347381D02*
X79613095Y-48347381D01*
X79660714Y-48823571D01*
X79613095Y-48775952D01*
X79517857Y-48728333D01*
X79279761Y-48728333D01*
X79184523Y-48775952D01*
X79136904Y-48823571D01*
X79089285Y-48918810D01*
X79089285Y-49156905D01*
X79136904Y-49252143D01*
X79184523Y-49299762D01*
X79279761Y-49347381D01*
X79517857Y-49347381D01*
X79613095Y-49299762D01*
X79660714Y-49252143D01*
X78470238Y-48347381D02*
X78374999Y-48347381D01*
X78279761Y-48395000D01*
X78232142Y-48442619D01*
X78184523Y-48537857D01*
X78136904Y-48728333D01*
X78136904Y-48966429D01*
X78184523Y-49156905D01*
X78232142Y-49252143D01*
X78279761Y-49299762D01*
X78374999Y-49347381D01*
X78470238Y-49347381D01*
X78565476Y-49299762D01*
X78613095Y-49252143D01*
X78660714Y-49156905D01*
X78708333Y-48966429D01*
X78708333Y-48728333D01*
X78660714Y-48537857D01*
X78613095Y-48442619D01*
X78565476Y-48395000D01*
X78470238Y-48347381D01*
X67976666Y-55302381D02*
X68548095Y-55302381D01*
X68262381Y-55302381D02*
X68262381Y-54302381D01*
X68357619Y-54445238D01*
X68452857Y-54540476D01*
X68548095Y-54588095D01*
X67071904Y-54302381D02*
X67548095Y-54302381D01*
X67595714Y-54778571D01*
X67548095Y-54730952D01*
X67452857Y-54683333D01*
X67214761Y-54683333D01*
X67119523Y-54730952D01*
X67071904Y-54778571D01*
X67024285Y-54873810D01*
X67024285Y-55111905D01*
X67071904Y-55207143D01*
X67119523Y-55254762D01*
X67214761Y-55302381D01*
X67452857Y-55302381D01*
X67548095Y-55254762D01*
X67595714Y-55207143D01*
X66405238Y-54302381D02*
X66309999Y-54302381D01*
X66214761Y-54350000D01*
X66167142Y-54397619D01*
X66119523Y-54492857D01*
X66071904Y-54683333D01*
X66071904Y-54921429D01*
X66119523Y-55111905D01*
X66167142Y-55207143D01*
X66214761Y-55254762D01*
X66309999Y-55302381D01*
X66405238Y-55302381D01*
X66500476Y-55254762D01*
X66548095Y-55207143D01*
X66595714Y-55111905D01*
X66643333Y-54921429D01*
X66643333Y-54683333D01*
X66595714Y-54492857D01*
X66548095Y-54397619D01*
X66500476Y-54350000D01*
X66405238Y-54302381D01*
X72207381Y-59023334D02*
X72207381Y-58451905D01*
X72207381Y-58737619D02*
X71207381Y-58737619D01*
X71350238Y-58642381D01*
X71445476Y-58547143D01*
X71493095Y-58451905D01*
X71207381Y-59928096D02*
X71207381Y-59451905D01*
X71683571Y-59404286D01*
X71635952Y-59451905D01*
X71588333Y-59547143D01*
X71588333Y-59785239D01*
X71635952Y-59880477D01*
X71683571Y-59928096D01*
X71778810Y-59975715D01*
X72016905Y-59975715D01*
X72112143Y-59928096D01*
X72159762Y-59880477D01*
X72207381Y-59785239D01*
X72207381Y-59547143D01*
X72159762Y-59451905D01*
X72112143Y-59404286D01*
X71207381Y-60594762D02*
X71207381Y-60690001D01*
X71255000Y-60785239D01*
X71302619Y-60832858D01*
X71397857Y-60880477D01*
X71588333Y-60928096D01*
X71826429Y-60928096D01*
X72016905Y-60880477D01*
X72112143Y-60832858D01*
X72159762Y-60785239D01*
X72207381Y-60690001D01*
X72207381Y-60594762D01*
X72159762Y-60499524D01*
X72112143Y-60451905D01*
X72016905Y-60404286D01*
X71826429Y-60356667D01*
X71588333Y-60356667D01*
X71397857Y-60404286D01*
X71302619Y-60451905D01*
X71255000Y-60499524D01*
X71207381Y-60594762D01*
X82635381Y-61055334D02*
X82635381Y-60483905D01*
X82635381Y-60769619D02*
X81635381Y-60769619D01*
X81778238Y-60674381D01*
X81873476Y-60579143D01*
X81921095Y-60483905D01*
X81635381Y-61960096D02*
X81635381Y-61483905D01*
X82111571Y-61436286D01*
X82063952Y-61483905D01*
X82016333Y-61579143D01*
X82016333Y-61817239D01*
X82063952Y-61912477D01*
X82111571Y-61960096D01*
X82206810Y-62007715D01*
X82444905Y-62007715D01*
X82540143Y-61960096D01*
X82587762Y-61912477D01*
X82635381Y-61817239D01*
X82635381Y-61579143D01*
X82587762Y-61483905D01*
X82540143Y-61436286D01*
X81635381Y-62626762D02*
X81635381Y-62722001D01*
X81683000Y-62817239D01*
X81730619Y-62864858D01*
X81825857Y-62912477D01*
X82016333Y-62960096D01*
X82254429Y-62960096D01*
X82444905Y-62912477D01*
X82540143Y-62864858D01*
X82587762Y-62817239D01*
X82635381Y-62722001D01*
X82635381Y-62626762D01*
X82587762Y-62531524D01*
X82540143Y-62483905D01*
X82444905Y-62436286D01*
X82254429Y-62388667D01*
X82016333Y-62388667D01*
X81825857Y-62436286D01*
X81730619Y-62483905D01*
X81683000Y-62531524D01*
X81635381Y-62626762D01*
X67976666Y-64587381D02*
X68548095Y-64587381D01*
X68262381Y-64587381D02*
X68262381Y-63587381D01*
X68357619Y-63730238D01*
X68452857Y-63825476D01*
X68548095Y-63873095D01*
X67071904Y-63587381D02*
X67548095Y-63587381D01*
X67595714Y-64063571D01*
X67548095Y-64015952D01*
X67452857Y-63968333D01*
X67214761Y-63968333D01*
X67119523Y-64015952D01*
X67071904Y-64063571D01*
X67024285Y-64158810D01*
X67024285Y-64396905D01*
X67071904Y-64492143D01*
X67119523Y-64539762D01*
X67214761Y-64587381D01*
X67452857Y-64587381D01*
X67548095Y-64539762D01*
X67595714Y-64492143D01*
X66405238Y-63587381D02*
X66309999Y-63587381D01*
X66214761Y-63635000D01*
X66167142Y-63682619D01*
X66119523Y-63777857D01*
X66071904Y-63968333D01*
X66071904Y-64206429D01*
X66119523Y-64396905D01*
X66167142Y-64492143D01*
X66214761Y-64539762D01*
X66309999Y-64587381D01*
X66405238Y-64587381D01*
X66500476Y-64539762D01*
X66548095Y-64492143D01*
X66595714Y-64396905D01*
X66643333Y-64206429D01*
X66643333Y-63968333D01*
X66595714Y-63777857D01*
X66548095Y-63682619D01*
X66500476Y-63635000D01*
X66405238Y-63587381D01*
X76017381Y-66643334D02*
X76017381Y-66071905D01*
X76017381Y-66357619D02*
X75017381Y-66357619D01*
X75160238Y-66262381D01*
X75255476Y-66167143D01*
X75303095Y-66071905D01*
X75017381Y-67548096D02*
X75017381Y-67071905D01*
X75493571Y-67024286D01*
X75445952Y-67071905D01*
X75398333Y-67167143D01*
X75398333Y-67405239D01*
X75445952Y-67500477D01*
X75493571Y-67548096D01*
X75588810Y-67595715D01*
X75826905Y-67595715D01*
X75922143Y-67548096D01*
X75969762Y-67500477D01*
X76017381Y-67405239D01*
X76017381Y-67167143D01*
X75969762Y-67071905D01*
X75922143Y-67024286D01*
X75017381Y-68214762D02*
X75017381Y-68310001D01*
X75065000Y-68405239D01*
X75112619Y-68452858D01*
X75207857Y-68500477D01*
X75398333Y-68548096D01*
X75636429Y-68548096D01*
X75826905Y-68500477D01*
X75922143Y-68452858D01*
X75969762Y-68405239D01*
X76017381Y-68310001D01*
X76017381Y-68214762D01*
X75969762Y-68119524D01*
X75922143Y-68071905D01*
X75826905Y-68024286D01*
X75636429Y-67976667D01*
X75398333Y-67976667D01*
X75207857Y-68024286D01*
X75112619Y-68071905D01*
X75065000Y-68119524D01*
X75017381Y-68214762D01*
X80041666Y-37917381D02*
X80613095Y-37917381D01*
X80327381Y-37917381D02*
X80327381Y-36917381D01*
X80422619Y-37060238D01*
X80517857Y-37155476D01*
X80613095Y-37203095D01*
X79136904Y-36917381D02*
X79613095Y-36917381D01*
X79660714Y-37393571D01*
X79613095Y-37345952D01*
X79517857Y-37298333D01*
X79279761Y-37298333D01*
X79184523Y-37345952D01*
X79136904Y-37393571D01*
X79089285Y-37488810D01*
X79089285Y-37726905D01*
X79136904Y-37822143D01*
X79184523Y-37869762D01*
X79279761Y-37917381D01*
X79517857Y-37917381D01*
X79613095Y-37869762D01*
X79660714Y-37822143D01*
X78470238Y-36917381D02*
X78374999Y-36917381D01*
X78279761Y-36965000D01*
X78232142Y-37012619D01*
X78184523Y-37107857D01*
X78136904Y-37298333D01*
X78136904Y-37536429D01*
X78184523Y-37726905D01*
X78232142Y-37822143D01*
X78279761Y-37869762D01*
X78374999Y-37917381D01*
X78470238Y-37917381D01*
X78565476Y-37869762D01*
X78613095Y-37822143D01*
X78660714Y-37726905D01*
X78708333Y-37536429D01*
X78708333Y-37298333D01*
X78660714Y-37107857D01*
X78613095Y-37012619D01*
X78565476Y-36965000D01*
X78470238Y-36917381D01*
M02*
