G04 #@! TF.FileFunction,Soldermask,Top*
%FSLAX46Y46*%
G04 Gerber Fmt 4.6, Leading zero omitted, Abs format (unit mm)*
G04 Created by KiCad (PCBNEW 4.0.5+dfsg1-4) date Fri Sep 22 17:31:14 2017*
%MOMM*%
%LPD*%
G01*
G04 APERTURE LIST*
%ADD10C,0.100000*%
%ADD11C,3.600000*%
%ADD12R,2.100000X2.100000*%
%ADD13O,2.100000X2.100000*%
%ADD14R,2.300000X2.400000*%
%ADD15C,2.300000*%
%ADD16R,2.432000X2.432000*%
%ADD17O,2.432000X2.432000*%
%ADD18R,2.432000X2.127200*%
%ADD19O,2.432000X2.127200*%
G04 APERTURE END LIST*
D10*
D11*
X112395000Y-83820000D03*
X68580000Y-83820000D03*
X112395000Y-33655000D03*
X59055000Y-31750000D03*
X74930000Y-31750000D03*
D12*
X81994300Y-80481300D03*
D13*
X81994300Y-83021300D03*
X81994300Y-85561300D03*
D12*
X41354300Y-80481300D03*
D13*
X41354300Y-83021300D03*
X41354300Y-85561300D03*
D12*
X46434300Y-77941300D03*
D13*
X48974300Y-77941300D03*
D12*
X81994300Y-124931300D03*
D13*
X81994300Y-122391300D03*
X81994300Y-119851300D03*
D12*
X41354300Y-124931300D03*
D13*
X41354300Y-122391300D03*
X41354300Y-119851300D03*
D12*
X44529300Y-89371300D03*
D13*
X44529300Y-91911300D03*
X44529300Y-94451300D03*
X44529300Y-96991300D03*
X44529300Y-99531300D03*
X44529300Y-104611300D03*
X44529300Y-107151300D03*
X44529300Y-109691300D03*
X44529300Y-112231300D03*
X44529300Y-114771300D03*
X44529300Y-119851300D03*
X44529300Y-122391300D03*
X44529300Y-124931300D03*
D12*
X54054300Y-89371300D03*
D13*
X54054300Y-91911300D03*
X54054300Y-94451300D03*
X54054300Y-96991300D03*
X54054300Y-99531300D03*
X54054300Y-104611300D03*
X54054300Y-107151300D03*
X54054300Y-109691300D03*
X54054300Y-112231300D03*
X54054300Y-114771300D03*
X54054300Y-119851300D03*
X54054300Y-122391300D03*
X54054300Y-124931300D03*
D12*
X60404300Y-89371300D03*
D13*
X60404300Y-91911300D03*
X60404300Y-94451300D03*
X60404300Y-96991300D03*
X60404300Y-99531300D03*
X60404300Y-104611300D03*
X60404300Y-107151300D03*
X60404300Y-109691300D03*
X60404300Y-112231300D03*
X60404300Y-114771300D03*
X60404300Y-119851300D03*
X60404300Y-122391300D03*
X60404300Y-124931300D03*
D12*
X68024300Y-89371300D03*
D13*
X68024300Y-91911300D03*
X68024300Y-94451300D03*
X68024300Y-96991300D03*
X68024300Y-99531300D03*
X68024300Y-104611300D03*
X68024300Y-107151300D03*
X68024300Y-109691300D03*
X68024300Y-112231300D03*
X68024300Y-114771300D03*
X68024300Y-119851300D03*
X68024300Y-122391300D03*
X68024300Y-124931300D03*
D12*
X78184300Y-89371300D03*
D13*
X78184300Y-91911300D03*
X78184300Y-94451300D03*
X78184300Y-96991300D03*
X78184300Y-99531300D03*
X78184300Y-104611300D03*
X78184300Y-107151300D03*
X78184300Y-109691300D03*
X78184300Y-112231300D03*
X78184300Y-114771300D03*
X78184300Y-119851300D03*
X78184300Y-122391300D03*
X78184300Y-124931300D03*
D14*
X72723300Y-82386300D03*
D15*
X75263300Y-82386300D03*
D14*
X116723300Y-82386300D03*
D15*
X119263300Y-82386300D03*
D12*
X122184300Y-89371300D03*
D13*
X122184300Y-91911300D03*
X122184300Y-94451300D03*
X122184300Y-96991300D03*
X122184300Y-99531300D03*
X122184300Y-104611300D03*
X122184300Y-107151300D03*
X122184300Y-109691300D03*
X122184300Y-112231300D03*
X122184300Y-114771300D03*
X122184300Y-119851300D03*
X122184300Y-122391300D03*
X122184300Y-124931300D03*
D12*
X112024300Y-89371300D03*
D13*
X112024300Y-91911300D03*
X112024300Y-94451300D03*
X112024300Y-96991300D03*
X112024300Y-99531300D03*
X112024300Y-104611300D03*
X112024300Y-107151300D03*
X112024300Y-109691300D03*
X112024300Y-112231300D03*
X112024300Y-114771300D03*
X112024300Y-119851300D03*
X112024300Y-122391300D03*
X112024300Y-124931300D03*
D12*
X104404300Y-89371300D03*
D13*
X104404300Y-91911300D03*
X104404300Y-94451300D03*
X104404300Y-96991300D03*
X104404300Y-99531300D03*
X104404300Y-104611300D03*
X104404300Y-107151300D03*
X104404300Y-109691300D03*
X104404300Y-112231300D03*
X104404300Y-114771300D03*
X104404300Y-119851300D03*
X104404300Y-122391300D03*
X104404300Y-124931300D03*
D12*
X98054300Y-89371300D03*
D13*
X98054300Y-91911300D03*
X98054300Y-94451300D03*
X98054300Y-96991300D03*
X98054300Y-99531300D03*
X98054300Y-104611300D03*
X98054300Y-107151300D03*
X98054300Y-109691300D03*
X98054300Y-112231300D03*
X98054300Y-114771300D03*
X98054300Y-119851300D03*
X98054300Y-122391300D03*
X98054300Y-124931300D03*
D12*
X88529300Y-89371300D03*
D13*
X88529300Y-91911300D03*
X88529300Y-94451300D03*
X88529300Y-96991300D03*
X88529300Y-99531300D03*
X88529300Y-104611300D03*
X88529300Y-107151300D03*
X88529300Y-109691300D03*
X88529300Y-112231300D03*
X88529300Y-114771300D03*
X88529300Y-119851300D03*
X88529300Y-122391300D03*
X88529300Y-124931300D03*
D12*
X85354300Y-124931300D03*
D13*
X85354300Y-122391300D03*
X85354300Y-119851300D03*
D12*
X125994300Y-124931300D03*
D13*
X125994300Y-122391300D03*
X125994300Y-119851300D03*
D12*
X90434300Y-77941300D03*
D13*
X92974300Y-77941300D03*
D12*
X85354300Y-80481300D03*
D13*
X85354300Y-83021300D03*
X85354300Y-85561300D03*
D12*
X125994300Y-80481300D03*
D13*
X125994300Y-83021300D03*
X125994300Y-85561300D03*
D12*
X125994300Y-30481300D03*
D13*
X125994300Y-33021300D03*
X125994300Y-35561300D03*
D12*
X85354300Y-30481300D03*
D13*
X85354300Y-33021300D03*
X85354300Y-35561300D03*
D12*
X90434300Y-27941300D03*
D13*
X92974300Y-27941300D03*
D12*
X125994300Y-74931300D03*
D13*
X125994300Y-72391300D03*
X125994300Y-69851300D03*
D12*
X85354300Y-74931300D03*
D13*
X85354300Y-72391300D03*
X85354300Y-69851300D03*
D12*
X88529300Y-39371300D03*
D13*
X88529300Y-41911300D03*
X88529300Y-44451300D03*
X88529300Y-46991300D03*
X88529300Y-49531300D03*
X88529300Y-54611300D03*
X88529300Y-57151300D03*
X88529300Y-59691300D03*
X88529300Y-62231300D03*
X88529300Y-64771300D03*
X88529300Y-69851300D03*
X88529300Y-72391300D03*
X88529300Y-74931300D03*
D12*
X98054300Y-39371300D03*
D13*
X98054300Y-41911300D03*
X98054300Y-44451300D03*
X98054300Y-46991300D03*
X98054300Y-49531300D03*
X98054300Y-54611300D03*
X98054300Y-57151300D03*
X98054300Y-59691300D03*
X98054300Y-62231300D03*
X98054300Y-64771300D03*
X98054300Y-69851300D03*
X98054300Y-72391300D03*
X98054300Y-74931300D03*
D12*
X104404300Y-39371300D03*
D13*
X104404300Y-41911300D03*
X104404300Y-44451300D03*
X104404300Y-46991300D03*
X104404300Y-49531300D03*
X104404300Y-54611300D03*
X104404300Y-57151300D03*
X104404300Y-59691300D03*
X104404300Y-62231300D03*
X104404300Y-64771300D03*
X104404300Y-69851300D03*
X104404300Y-72391300D03*
X104404300Y-74931300D03*
D12*
X112024300Y-39371300D03*
D13*
X112024300Y-41911300D03*
X112024300Y-44451300D03*
X112024300Y-46991300D03*
X112024300Y-49531300D03*
X112024300Y-54611300D03*
X112024300Y-57151300D03*
X112024300Y-59691300D03*
X112024300Y-62231300D03*
X112024300Y-64771300D03*
X112024300Y-69851300D03*
X112024300Y-72391300D03*
X112024300Y-74931300D03*
D12*
X122184300Y-39371300D03*
D13*
X122184300Y-41911300D03*
X122184300Y-44451300D03*
X122184300Y-46991300D03*
X122184300Y-49531300D03*
X122184300Y-54611300D03*
X122184300Y-57151300D03*
X122184300Y-59691300D03*
X122184300Y-62231300D03*
X122184300Y-64771300D03*
X122184300Y-69851300D03*
X122184300Y-72391300D03*
X122184300Y-74931300D03*
D14*
X116723300Y-32386300D03*
D15*
X119263300Y-32386300D03*
D16*
X64750000Y-28250000D03*
D17*
X62210000Y-28250000D03*
D18*
X81915000Y-35560000D03*
D19*
X81915000Y-33020000D03*
X81915000Y-30480000D03*
D12*
X62230000Y-39370000D03*
D13*
X62230000Y-41910000D03*
X62230000Y-44450000D03*
X62230000Y-46990000D03*
X62230000Y-49530000D03*
X62230000Y-54610000D03*
X62230000Y-57150000D03*
X62230000Y-59690000D03*
X62230000Y-62230000D03*
X62230000Y-64770000D03*
X62230000Y-69850000D03*
X62230000Y-72390000D03*
X62230000Y-74930000D03*
D12*
X74295000Y-39370000D03*
D13*
X74295000Y-41910000D03*
X74295000Y-44450000D03*
X74295000Y-46990000D03*
X74295000Y-49530000D03*
X74295000Y-54610000D03*
X74295000Y-57150000D03*
X74295000Y-59690000D03*
X74295000Y-62230000D03*
X74295000Y-64770000D03*
X74295000Y-69850000D03*
X74295000Y-72390000D03*
X74295000Y-74930000D03*
D18*
X81915000Y-74930000D03*
D19*
X81915000Y-72390000D03*
X81915000Y-69850000D03*
D18*
X57785000Y-74930000D03*
D19*
X57785000Y-72390000D03*
X57785000Y-69850000D03*
M02*
