M48
;DRILL file {KiCad 4.0.5+dfsg1-4} date Fri Sep 22 17:30:21 2017
;FORMAT={-:-/ absolute / inch / decimal}
FMAT,2
INCH,TZ
T1C0.016
T2C0.031
T3C0.039
T4C0.039
T5C0.040
T6C0.118
%
G90
G05
M72
T1
X2.0017Y-3.1863
X2.5281Y-4.5186
X2.825Y-2.05
X2.8781Y-3.9586
X2.9281Y-4.2886
X3.734Y-1.2178
X3.734Y-3.1863
X4.2604Y-2.5501
X4.2604Y-4.5186
X4.6104Y-1.9901
X4.6104Y-3.9586
X4.6604Y-2.3201
X4.6604Y-4.2886
T2
X1.9381Y-3.2436
X1.9381Y-3.4136
X1.9381Y-3.5786
X1.9381Y-3.8486
X1.9381Y-4.3986
X2.2781Y-4.0286
X2.4781Y-4.1786
X2.65Y-2.75
X3.125Y-2.675
X3.6704Y-1.2751
X3.6704Y-1.4451
X3.6704Y-1.6101
X3.6704Y-1.8801
X3.6704Y-2.4301
X3.6704Y-3.2436
X3.6704Y-3.4136
X3.6704Y-3.5786
X3.6704Y-3.8486
X3.6704Y-4.3986
X4.0104Y-2.0601
X4.0104Y-4.0286
X4.2104Y-2.2101
X4.2104Y-4.1786
T3
X1.6281Y-3.1686
X1.6281Y-3.2686
X1.6281Y-3.3686
X1.6281Y-4.7186
X1.6281Y-4.8186
X1.6281Y-4.9186
X1.7531Y-3.5186
X1.7531Y-3.6186
X1.7531Y-3.7186
X1.7531Y-3.8186
X1.7531Y-3.9186
X1.7531Y-4.1186
X1.7531Y-4.2186
X1.7531Y-4.3186
X1.7531Y-4.4186
X1.7531Y-4.5186
X1.7531Y-4.7186
X1.7531Y-4.8186
X1.7531Y-4.9186
X1.8281Y-3.0686
X1.9281Y-3.0686
X2.1281Y-3.5186
X2.1281Y-3.6186
X2.1281Y-3.7186
X2.1281Y-3.8186
X2.1281Y-3.9186
X2.1281Y-4.1186
X2.1281Y-4.2186
X2.1281Y-4.3186
X2.1281Y-4.4186
X2.1281Y-4.5186
X2.1281Y-4.7186
X2.1281Y-4.8186
X2.1281Y-4.9186
X2.3781Y-3.5186
X2.3781Y-3.6186
X2.3781Y-3.7186
X2.3781Y-3.8186
X2.3781Y-3.9186
X2.3781Y-4.1186
X2.3781Y-4.2186
X2.3781Y-4.3186
X2.3781Y-4.4186
X2.3781Y-4.5186
X2.3781Y-4.7186
X2.3781Y-4.8186
X2.3781Y-4.9186
X2.45Y-1.55
X2.45Y-1.65
X2.45Y-1.75
X2.45Y-1.85
X2.45Y-1.95
X2.45Y-2.15
X2.45Y-2.25
X2.45Y-2.35
X2.45Y-2.45
X2.45Y-2.55
X2.45Y-2.75
X2.45Y-2.85
X2.45Y-2.95
X2.6781Y-3.5186
X2.6781Y-3.6186
X2.6781Y-3.7186
X2.6781Y-3.8186
X2.6781Y-3.9186
X2.6781Y-4.1186
X2.6781Y-4.2186
X2.6781Y-4.3186
X2.6781Y-4.4186
X2.6781Y-4.5186
X2.6781Y-4.7186
X2.6781Y-4.8186
X2.6781Y-4.9186
X2.925Y-1.55
X2.925Y-1.65
X2.925Y-1.75
X2.925Y-1.85
X2.925Y-1.95
X2.925Y-2.15
X2.925Y-2.25
X2.925Y-2.35
X2.925Y-2.45
X2.925Y-2.55
X2.925Y-2.75
X2.925Y-2.85
X2.925Y-2.95
X3.0781Y-3.5186
X3.0781Y-3.6186
X3.0781Y-3.7186
X3.0781Y-3.8186
X3.0781Y-3.9186
X3.0781Y-4.1186
X3.0781Y-4.2186
X3.0781Y-4.3186
X3.0781Y-4.4186
X3.0781Y-4.5186
X3.0781Y-4.7186
X3.0781Y-4.8186
X3.0781Y-4.9186
X3.2281Y-3.1686
X3.2281Y-3.2686
X3.2281Y-3.3686
X3.2281Y-4.7186
X3.2281Y-4.8186
X3.2281Y-4.9186
X3.3604Y-1.2001
X3.3604Y-1.3001
X3.3604Y-1.4001
X3.3604Y-2.7501
X3.3604Y-2.8501
X3.3604Y-2.9501
X3.3604Y-3.1686
X3.3604Y-3.2686
X3.3604Y-3.3686
X3.3604Y-4.7186
X3.3604Y-4.8186
X3.3604Y-4.9186
X3.4854Y-1.5501
X3.4854Y-1.6501
X3.4854Y-1.7501
X3.4854Y-1.8501
X3.4854Y-1.9501
X3.4854Y-2.1501
X3.4854Y-2.2501
X3.4854Y-2.3501
X3.4854Y-2.4501
X3.4854Y-2.5501
X3.4854Y-2.7501
X3.4854Y-2.8501
X3.4854Y-2.9501
X3.4854Y-3.5186
X3.4854Y-3.6186
X3.4854Y-3.7186
X3.4854Y-3.8186
X3.4854Y-3.9186
X3.4854Y-4.1186
X3.4854Y-4.2186
X3.4854Y-4.3186
X3.4854Y-4.4186
X3.4854Y-4.5186
X3.4854Y-4.7186
X3.4854Y-4.8186
X3.4854Y-4.9186
X3.5604Y-1.1001
X3.5604Y-3.0686
X3.6604Y-1.1001
X3.6604Y-3.0686
X3.8604Y-1.5501
X3.8604Y-1.6501
X3.8604Y-1.7501
X3.8604Y-1.8501
X3.8604Y-1.9501
X3.8604Y-2.1501
X3.8604Y-2.2501
X3.8604Y-2.3501
X3.8604Y-2.4501
X3.8604Y-2.5501
X3.8604Y-2.7501
X3.8604Y-2.8501
X3.8604Y-2.9501
X3.8604Y-3.5186
X3.8604Y-3.6186
X3.8604Y-3.7186
X3.8604Y-3.8186
X3.8604Y-3.9186
X3.8604Y-4.1186
X3.8604Y-4.2186
X3.8604Y-4.3186
X3.8604Y-4.4186
X3.8604Y-4.5186
X3.8604Y-4.7186
X3.8604Y-4.8186
X3.8604Y-4.9186
X4.1104Y-1.5501
X4.1104Y-1.6501
X4.1104Y-1.7501
X4.1104Y-1.8501
X4.1104Y-1.9501
X4.1104Y-2.1501
X4.1104Y-2.2501
X4.1104Y-2.3501
X4.1104Y-2.4501
X4.1104Y-2.5501
X4.1104Y-2.7501
X4.1104Y-2.8501
X4.1104Y-2.9501
X4.1104Y-3.5186
X4.1104Y-3.6186
X4.1104Y-3.7186
X4.1104Y-3.8186
X4.1104Y-3.9186
X4.1104Y-4.1186
X4.1104Y-4.2186
X4.1104Y-4.3186
X4.1104Y-4.4186
X4.1104Y-4.5186
X4.1104Y-4.7186
X4.1104Y-4.8186
X4.1104Y-4.9186
X4.4104Y-1.5501
X4.4104Y-1.6501
X4.4104Y-1.7501
X4.4104Y-1.8501
X4.4104Y-1.9501
X4.4104Y-2.1501
X4.4104Y-2.2501
X4.4104Y-2.3501
X4.4104Y-2.4501
X4.4104Y-2.5501
X4.4104Y-2.7501
X4.4104Y-2.8501
X4.4104Y-2.9501
X4.4104Y-3.5186
X4.4104Y-3.6186
X4.4104Y-3.7186
X4.4104Y-3.8186
X4.4104Y-3.9186
X4.4104Y-4.1186
X4.4104Y-4.2186
X4.4104Y-4.3186
X4.4104Y-4.4186
X4.4104Y-4.5186
X4.4104Y-4.7186
X4.4104Y-4.8186
X4.4104Y-4.9186
X4.8104Y-1.5501
X4.8104Y-1.6501
X4.8104Y-1.7501
X4.8104Y-1.8501
X4.8104Y-1.9501
X4.8104Y-2.1501
X4.8104Y-2.2501
X4.8104Y-2.3501
X4.8104Y-2.4501
X4.8104Y-2.5501
X4.8104Y-2.7501
X4.8104Y-2.8501
X4.8104Y-2.9501
X4.8104Y-3.5186
X4.8104Y-3.6186
X4.8104Y-3.7186
X4.8104Y-3.8186
X4.8104Y-3.9186
X4.8104Y-4.1186
X4.8104Y-4.2186
X4.8104Y-4.3186
X4.8104Y-4.4186
X4.8104Y-4.5186
X4.8104Y-4.7186
X4.8104Y-4.8186
X4.8104Y-4.9186
X4.9604Y-1.2001
X4.9604Y-1.3001
X4.9604Y-1.4001
X4.9604Y-2.7501
X4.9604Y-2.8501
X4.9604Y-2.9501
X4.9604Y-3.1686
X4.9604Y-3.2686
X4.9604Y-3.3686
X4.9604Y-4.7186
X4.9604Y-4.8186
X4.9604Y-4.9186
T4
X2.8631Y-3.2436
X2.9631Y-3.2436
X4.5954Y-1.2751
X4.5954Y-3.2436
X4.6954Y-1.2751
X4.6954Y-3.2436
T5
X2.275Y-2.75
X2.275Y-2.85
X2.275Y-2.95
X2.4492Y-1.1122
X2.5492Y-1.1122
X3.225Y-1.2
X3.225Y-1.3
X3.225Y-1.4
X3.225Y-2.75
X3.225Y-2.85
X3.225Y-2.95
T6
X2.325Y-1.25
X2.7Y-3.3
X2.95Y-1.25
X4.425Y-1.325
X4.425Y-3.3
T0
M30
