G04 #@! TF.FileFunction,Legend,Top*
%FSLAX46Y46*%
G04 Gerber Fmt 4.6, Leading zero omitted, Abs format (unit mm)*
G04 Created by KiCad (PCBNEW 4.0.5+dfsg1-4) date Fri Sep 22 17:31:14 2017*
%MOMM*%
%LPD*%
G01*
G04 APERTURE LIST*
%ADD10C,0.100000*%
%ADD11C,0.250000*%
%ADD12C,0.300000*%
%ADD13C,0.200000*%
%ADD14C,0.120000*%
%ADD15C,0.150000*%
G04 APERTURE END LIST*
D10*
D11*
X117507857Y-37712143D02*
X117507857Y-38397858D01*
X117507857Y-38055000D02*
X116307857Y-38055000D01*
X116479286Y-38169286D01*
X116593571Y-38283572D01*
X116650714Y-38397858D01*
X117393571Y-35597857D02*
X117450714Y-35655000D01*
X117507857Y-35826429D01*
X117507857Y-35940715D01*
X117450714Y-36112143D01*
X117336429Y-36226429D01*
X117222143Y-36283572D01*
X116993571Y-36340715D01*
X116822143Y-36340715D01*
X116593571Y-36283572D01*
X116479286Y-36226429D01*
X116365000Y-36112143D01*
X116307857Y-35940715D01*
X116307857Y-35826429D01*
X116365000Y-35655000D01*
X116422143Y-35597857D01*
X117450714Y-35140715D02*
X117507857Y-35026429D01*
X117507857Y-34797857D01*
X117450714Y-34683572D01*
X117336429Y-34626429D01*
X117279286Y-34626429D01*
X117165000Y-34683572D01*
X117107857Y-34797857D01*
X117107857Y-34969286D01*
X117050714Y-35083572D01*
X116936429Y-35140715D01*
X116879286Y-35140715D01*
X116765000Y-35083572D01*
X116707857Y-34969286D01*
X116707857Y-34797857D01*
X116765000Y-34683572D01*
X117393571Y-32512142D02*
X117450714Y-32569285D01*
X117507857Y-32740714D01*
X117507857Y-32855000D01*
X117450714Y-33026428D01*
X117336429Y-33140714D01*
X117222143Y-33197857D01*
X116993571Y-33255000D01*
X116822143Y-33255000D01*
X116593571Y-33197857D01*
X116479286Y-33140714D01*
X116365000Y-33026428D01*
X116307857Y-32855000D01*
X116307857Y-32740714D01*
X116365000Y-32569285D01*
X116422143Y-32512142D01*
X117507857Y-31997857D02*
X116707857Y-31997857D01*
X116822143Y-31997857D02*
X116765000Y-31940714D01*
X116707857Y-31826428D01*
X116707857Y-31655000D01*
X116765000Y-31540714D01*
X116879286Y-31483571D01*
X117507857Y-31483571D01*
X116879286Y-31483571D02*
X116765000Y-31426428D01*
X116707857Y-31312142D01*
X116707857Y-31140714D01*
X116765000Y-31026428D01*
X116879286Y-30969285D01*
X117507857Y-30969285D01*
D12*
X78142857Y-67642858D02*
X78142857Y-68785715D01*
X79071429Y-70214287D02*
X79071429Y-69500001D01*
X78357143Y-69428572D01*
X78428571Y-69500001D01*
X78500000Y-69642858D01*
X78500000Y-70000001D01*
X78428571Y-70142858D01*
X78357143Y-70214287D01*
X78214286Y-70285715D01*
X77857143Y-70285715D01*
X77714286Y-70214287D01*
X77642857Y-70142858D01*
X77571429Y-70000001D01*
X77571429Y-69642858D01*
X77642857Y-69500001D01*
X77714286Y-69428572D01*
X79071429Y-72357143D02*
X79071429Y-72500000D01*
X79000000Y-72642857D01*
X78928571Y-72714286D01*
X78785714Y-72785715D01*
X78500000Y-72857143D01*
X78142857Y-72857143D01*
X77857143Y-72785715D01*
X77714286Y-72714286D01*
X77642857Y-72642857D01*
X77571429Y-72500000D01*
X77571429Y-72357143D01*
X77642857Y-72214286D01*
X77714286Y-72142857D01*
X77857143Y-72071429D01*
X78142857Y-72000000D01*
X78500000Y-72000000D01*
X78785714Y-72071429D01*
X78928571Y-72142857D01*
X79000000Y-72214286D01*
X79071429Y-72357143D01*
X79071429Y-75357143D02*
X79071429Y-74642857D01*
X78357143Y-74571428D01*
X78428571Y-74642857D01*
X78500000Y-74785714D01*
X78500000Y-75142857D01*
X78428571Y-75285714D01*
X78357143Y-75357143D01*
X78214286Y-75428571D01*
X77857143Y-75428571D01*
X77714286Y-75357143D01*
X77642857Y-75285714D01*
X77571429Y-75142857D01*
X77571429Y-74785714D01*
X77642857Y-74642857D01*
X77714286Y-74571428D01*
X64642857Y-67892858D02*
X64642857Y-69035715D01*
X65571429Y-70464287D02*
X65571429Y-69750001D01*
X64857143Y-69678572D01*
X64928571Y-69750001D01*
X65000000Y-69892858D01*
X65000000Y-70250001D01*
X64928571Y-70392858D01*
X64857143Y-70464287D01*
X64714286Y-70535715D01*
X64357143Y-70535715D01*
X64214286Y-70464287D01*
X64142857Y-70392858D01*
X64071429Y-70250001D01*
X64071429Y-69892858D01*
X64142857Y-69750001D01*
X64214286Y-69678572D01*
X65571429Y-72607143D02*
X65571429Y-72750000D01*
X65500000Y-72892857D01*
X65428571Y-72964286D01*
X65285714Y-73035715D01*
X65000000Y-73107143D01*
X64642857Y-73107143D01*
X64357143Y-73035715D01*
X64214286Y-72964286D01*
X64142857Y-72892857D01*
X64071429Y-72750000D01*
X64071429Y-72607143D01*
X64142857Y-72464286D01*
X64214286Y-72392857D01*
X64357143Y-72321429D01*
X64642857Y-72250000D01*
X65000000Y-72250000D01*
X65285714Y-72321429D01*
X65428571Y-72392857D01*
X65500000Y-72464286D01*
X65571429Y-72607143D01*
X65571429Y-75607143D02*
X65571429Y-74892857D01*
X64857143Y-74821428D01*
X64928571Y-74892857D01*
X65000000Y-75035714D01*
X65000000Y-75392857D01*
X64928571Y-75535714D01*
X64857143Y-75607143D01*
X64714286Y-75678571D01*
X64357143Y-75678571D01*
X64214286Y-75607143D01*
X64142857Y-75535714D01*
X64071429Y-75392857D01*
X64071429Y-75035714D01*
X64142857Y-74892857D01*
X64214286Y-74821428D01*
X82928571Y-68000000D02*
X81428571Y-68000000D01*
X81428571Y-67428572D01*
X81500000Y-67285714D01*
X81571429Y-67214286D01*
X81714286Y-67142857D01*
X81928571Y-67142857D01*
X82071429Y-67214286D01*
X82142857Y-67285714D01*
X82214286Y-67428572D01*
X82214286Y-68000000D01*
X81428571Y-66642857D02*
X82928571Y-66285714D01*
X81857143Y-66000000D01*
X82928571Y-65714286D01*
X81428571Y-65357143D01*
X82928571Y-63928571D02*
X82214286Y-64428571D01*
X82928571Y-64785714D02*
X81428571Y-64785714D01*
X81428571Y-64214286D01*
X81500000Y-64071428D01*
X81571429Y-64000000D01*
X81714286Y-63928571D01*
X81928571Y-63928571D01*
X82071429Y-64000000D01*
X82142857Y-64071428D01*
X82214286Y-64214286D01*
X82214286Y-64785714D01*
D13*
X83750000Y-26750000D02*
X83750000Y-126250000D01*
X56500000Y-76500000D02*
X127000000Y-76500000D01*
D12*
X67069286Y-26867857D02*
X67297857Y-26867857D01*
X67412143Y-26925000D01*
X67526429Y-27039286D01*
X67583571Y-27267857D01*
X67583571Y-27667857D01*
X67526429Y-27896429D01*
X67412143Y-28010714D01*
X67297857Y-28067857D01*
X67069286Y-28067857D01*
X66955000Y-28010714D01*
X66840714Y-27896429D01*
X66783571Y-27667857D01*
X66783571Y-27267857D01*
X66840714Y-27039286D01*
X66955000Y-26925000D01*
X67069286Y-26867857D01*
X68955000Y-26810714D02*
X67926429Y-28353571D01*
X69355000Y-28067857D02*
X69355000Y-26867857D01*
X69812143Y-26867857D01*
X69926429Y-26925000D01*
X69983572Y-26982143D01*
X70040715Y-27096429D01*
X70040715Y-27267857D01*
X69983572Y-27382143D01*
X69926429Y-27439286D01*
X69812143Y-27496429D01*
X69355000Y-27496429D01*
X71983572Y-28067857D02*
X71983572Y-27439286D01*
X71926429Y-27325000D01*
X71812143Y-27267857D01*
X71583572Y-27267857D01*
X71469286Y-27325000D01*
X71983572Y-28010714D02*
X71869286Y-28067857D01*
X71583572Y-28067857D01*
X71469286Y-28010714D01*
X71412143Y-27896429D01*
X71412143Y-27782143D01*
X71469286Y-27667857D01*
X71583572Y-27610714D01*
X71869286Y-27610714D01*
X71983572Y-27553571D01*
X72497857Y-28010714D02*
X72612143Y-28067857D01*
X72840715Y-28067857D01*
X72955000Y-28010714D01*
X73012143Y-27896429D01*
X73012143Y-27839286D01*
X72955000Y-27725000D01*
X72840715Y-27667857D01*
X72669286Y-27667857D01*
X72555000Y-27610714D01*
X72497857Y-27496429D01*
X72497857Y-27439286D01*
X72555000Y-27325000D01*
X72669286Y-27267857D01*
X72840715Y-27267857D01*
X72955000Y-27325000D01*
X73469286Y-28010714D02*
X73583572Y-28067857D01*
X73812144Y-28067857D01*
X73926429Y-28010714D01*
X73983572Y-27896429D01*
X73983572Y-27839286D01*
X73926429Y-27725000D01*
X73812144Y-27667857D01*
X73640715Y-27667857D01*
X73526429Y-27610714D01*
X73469286Y-27496429D01*
X73469286Y-27439286D01*
X73526429Y-27325000D01*
X73640715Y-27267857D01*
X73812144Y-27267857D01*
X73926429Y-27325000D01*
X74497858Y-28067857D02*
X74497858Y-27267857D01*
X74497858Y-26867857D02*
X74440715Y-26925000D01*
X74497858Y-26982143D01*
X74555001Y-26925000D01*
X74497858Y-26867857D01*
X74497858Y-26982143D01*
X75583573Y-27267857D02*
X75583573Y-28239286D01*
X75526430Y-28353571D01*
X75469287Y-28410714D01*
X75355002Y-28467857D01*
X75183573Y-28467857D01*
X75069287Y-28410714D01*
X75583573Y-28010714D02*
X75469287Y-28067857D01*
X75240716Y-28067857D01*
X75126430Y-28010714D01*
X75069287Y-27953571D01*
X75012144Y-27839286D01*
X75012144Y-27496429D01*
X75069287Y-27382143D01*
X75126430Y-27325000D01*
X75240716Y-27267857D01*
X75469287Y-27267857D01*
X75583573Y-27325000D01*
X76155001Y-27267857D02*
X76155001Y-28067857D01*
X76155001Y-27382143D02*
X76212144Y-27325000D01*
X76326430Y-27267857D01*
X76497858Y-27267857D01*
X76612144Y-27325000D01*
X76669287Y-27439286D01*
X76669287Y-28067857D01*
X69269286Y-30110714D02*
X69383572Y-30167857D01*
X69612144Y-30167857D01*
X69726429Y-30110714D01*
X69783572Y-29996429D01*
X69783572Y-29939286D01*
X69726429Y-29825000D01*
X69612144Y-29767857D01*
X69440715Y-29767857D01*
X69326429Y-29710714D01*
X69269286Y-29596429D01*
X69269286Y-29539286D01*
X69326429Y-29425000D01*
X69440715Y-29367857D01*
X69612144Y-29367857D01*
X69726429Y-29425000D01*
X70297858Y-30167857D02*
X70297858Y-29367857D01*
X70297858Y-28967857D02*
X70240715Y-29025000D01*
X70297858Y-29082143D01*
X70355001Y-29025000D01*
X70297858Y-28967857D01*
X70297858Y-29082143D01*
X71383573Y-29367857D02*
X71383573Y-30339286D01*
X71326430Y-30453571D01*
X71269287Y-30510714D01*
X71155002Y-30567857D01*
X70983573Y-30567857D01*
X70869287Y-30510714D01*
X71383573Y-30110714D02*
X71269287Y-30167857D01*
X71040716Y-30167857D01*
X70926430Y-30110714D01*
X70869287Y-30053571D01*
X70812144Y-29939286D01*
X70812144Y-29596429D01*
X70869287Y-29482143D01*
X70926430Y-29425000D01*
X71040716Y-29367857D01*
X71269287Y-29367857D01*
X71383573Y-29425000D01*
X71955001Y-29367857D02*
X71955001Y-30167857D01*
X71955001Y-29482143D02*
X72012144Y-29425000D01*
X72126430Y-29367857D01*
X72297858Y-29367857D01*
X72412144Y-29425000D01*
X72469287Y-29539286D01*
X72469287Y-30167857D01*
X73555001Y-30167857D02*
X73555001Y-29539286D01*
X73497858Y-29425000D01*
X73383572Y-29367857D01*
X73155001Y-29367857D01*
X73040715Y-29425000D01*
X73555001Y-30110714D02*
X73440715Y-30167857D01*
X73155001Y-30167857D01*
X73040715Y-30110714D01*
X72983572Y-29996429D01*
X72983572Y-29882143D01*
X73040715Y-29767857D01*
X73155001Y-29710714D01*
X73440715Y-29710714D01*
X73555001Y-29653571D01*
X74297858Y-30167857D02*
X74183572Y-30110714D01*
X74126429Y-29996429D01*
X74126429Y-28967857D01*
X58035715Y-28928571D02*
X57978572Y-28985714D01*
X57807143Y-29042857D01*
X57692857Y-29042857D01*
X57521429Y-28985714D01*
X57407143Y-28871429D01*
X57350000Y-28757143D01*
X57292857Y-28528571D01*
X57292857Y-28357143D01*
X57350000Y-28128571D01*
X57407143Y-28014286D01*
X57521429Y-27900000D01*
X57692857Y-27842857D01*
X57807143Y-27842857D01*
X57978572Y-27900000D01*
X58035715Y-27957143D01*
X59121429Y-29042857D02*
X58550000Y-29042857D01*
X58550000Y-27842857D01*
X59521429Y-29042857D02*
X59521429Y-27842857D01*
X60207144Y-29042857D02*
X59692858Y-28357143D01*
X60207144Y-27842857D02*
X59521429Y-28528571D01*
D11*
X80042857Y-35807143D02*
X80042857Y-36492858D01*
X80042857Y-36150000D02*
X78842857Y-36150000D01*
X79014286Y-36264286D01*
X79128571Y-36378572D01*
X79185714Y-36492858D01*
X79928571Y-33692857D02*
X79985714Y-33750000D01*
X80042857Y-33921429D01*
X80042857Y-34035715D01*
X79985714Y-34207143D01*
X79871429Y-34321429D01*
X79757143Y-34378572D01*
X79528571Y-34435715D01*
X79357143Y-34435715D01*
X79128571Y-34378572D01*
X79014286Y-34321429D01*
X78900000Y-34207143D01*
X78842857Y-34035715D01*
X78842857Y-33921429D01*
X78900000Y-33750000D01*
X78957143Y-33692857D01*
X79985714Y-33235715D02*
X80042857Y-33121429D01*
X80042857Y-32892857D01*
X79985714Y-32778572D01*
X79871429Y-32721429D01*
X79814286Y-32721429D01*
X79700000Y-32778572D01*
X79642857Y-32892857D01*
X79642857Y-33064286D01*
X79585714Y-33178572D01*
X79471429Y-33235715D01*
X79414286Y-33235715D01*
X79300000Y-33178572D01*
X79242857Y-33064286D01*
X79242857Y-32892857D01*
X79300000Y-32778572D01*
X79928571Y-30607142D02*
X79985714Y-30664285D01*
X80042857Y-30835714D01*
X80042857Y-30950000D01*
X79985714Y-31121428D01*
X79871429Y-31235714D01*
X79757143Y-31292857D01*
X79528571Y-31350000D01*
X79357143Y-31350000D01*
X79128571Y-31292857D01*
X79014286Y-31235714D01*
X78900000Y-31121428D01*
X78842857Y-30950000D01*
X78842857Y-30835714D01*
X78900000Y-30664285D01*
X78957143Y-30607142D01*
X80042857Y-30092857D02*
X79242857Y-30092857D01*
X79357143Y-30092857D02*
X79300000Y-30035714D01*
X79242857Y-29921428D01*
X79242857Y-29750000D01*
X79300000Y-29635714D01*
X79414286Y-29578571D01*
X80042857Y-29578571D01*
X79414286Y-29578571D02*
X79300000Y-29521428D01*
X79242857Y-29407142D01*
X79242857Y-29235714D01*
X79300000Y-29121428D01*
X79414286Y-29064285D01*
X80042857Y-29064285D01*
D12*
X78153571Y-63785715D02*
X77367857Y-63785715D01*
X77225000Y-63857144D01*
X77153571Y-64000001D01*
X77153571Y-64285715D01*
X77225000Y-64428572D01*
X78082143Y-63785715D02*
X78153571Y-63928572D01*
X78153571Y-64285715D01*
X78082143Y-64428572D01*
X77939286Y-64500001D01*
X77796429Y-64500001D01*
X77653571Y-64428572D01*
X77582143Y-64285715D01*
X77582143Y-63928572D01*
X77510714Y-63785715D01*
X78082143Y-63142858D02*
X78153571Y-63000001D01*
X78153571Y-62714286D01*
X78082143Y-62571429D01*
X77939286Y-62500001D01*
X77867857Y-62500001D01*
X77725000Y-62571429D01*
X77653571Y-62714286D01*
X77653571Y-62928572D01*
X77582143Y-63071429D01*
X77439286Y-63142858D01*
X77367857Y-63142858D01*
X77225000Y-63071429D01*
X77153571Y-62928572D01*
X77153571Y-62714286D01*
X77225000Y-62571429D01*
X78082143Y-61928572D02*
X78153571Y-61785715D01*
X78153571Y-61500000D01*
X78082143Y-61357143D01*
X77939286Y-61285715D01*
X77867857Y-61285715D01*
X77725000Y-61357143D01*
X77653571Y-61500000D01*
X77653571Y-61714286D01*
X77582143Y-61857143D01*
X77439286Y-61928572D01*
X77367857Y-61928572D01*
X77225000Y-61857143D01*
X77153571Y-61714286D01*
X77153571Y-61500000D01*
X77225000Y-61357143D01*
X78153571Y-60642857D02*
X77153571Y-60642857D01*
X76653571Y-60642857D02*
X76725000Y-60714286D01*
X76796429Y-60642857D01*
X76725000Y-60571429D01*
X76653571Y-60642857D01*
X76796429Y-60642857D01*
X77153571Y-59285714D02*
X78367857Y-59285714D01*
X78510714Y-59357143D01*
X78582143Y-59428571D01*
X78653571Y-59571428D01*
X78653571Y-59785714D01*
X78582143Y-59928571D01*
X78082143Y-59285714D02*
X78153571Y-59428571D01*
X78153571Y-59714285D01*
X78082143Y-59857143D01*
X78010714Y-59928571D01*
X77867857Y-60000000D01*
X77439286Y-60000000D01*
X77296429Y-59928571D01*
X77225000Y-59857143D01*
X77153571Y-59714285D01*
X77153571Y-59428571D01*
X77225000Y-59285714D01*
X77153571Y-58571428D02*
X78153571Y-58571428D01*
X77296429Y-58571428D02*
X77225000Y-58500000D01*
X77153571Y-58357142D01*
X77153571Y-58142857D01*
X77225000Y-58000000D01*
X77367857Y-57928571D01*
X78153571Y-57928571D01*
X77153571Y-56285714D02*
X77153571Y-55714285D01*
X76653571Y-56071428D02*
X77939286Y-56071428D01*
X78082143Y-56000000D01*
X78153571Y-55857142D01*
X78153571Y-55714285D01*
X78153571Y-54999999D02*
X78082143Y-55142857D01*
X78010714Y-55214285D01*
X77867857Y-55285714D01*
X77439286Y-55285714D01*
X77296429Y-55214285D01*
X77225000Y-55142857D01*
X77153571Y-54999999D01*
X77153571Y-54785714D01*
X77225000Y-54642857D01*
X77296429Y-54571428D01*
X77439286Y-54499999D01*
X77867857Y-54499999D01*
X78010714Y-54571428D01*
X78082143Y-54642857D01*
X78153571Y-54785714D01*
X78153571Y-54999999D01*
X80632143Y-62107143D02*
X80703571Y-61964286D01*
X80703571Y-61678571D01*
X80632143Y-61535714D01*
X80489286Y-61464286D01*
X80417857Y-61464286D01*
X80275000Y-61535714D01*
X80203571Y-61678571D01*
X80203571Y-61892857D01*
X80132143Y-62035714D01*
X79989286Y-62107143D01*
X79917857Y-62107143D01*
X79775000Y-62035714D01*
X79703571Y-61892857D01*
X79703571Y-61678571D01*
X79775000Y-61535714D01*
X80703571Y-60607142D02*
X80632143Y-60750000D01*
X80489286Y-60821428D01*
X79203571Y-60821428D01*
X80703571Y-59392857D02*
X79917857Y-59392857D01*
X79775000Y-59464286D01*
X79703571Y-59607143D01*
X79703571Y-59892857D01*
X79775000Y-60035714D01*
X80632143Y-59392857D02*
X80703571Y-59535714D01*
X80703571Y-59892857D01*
X80632143Y-60035714D01*
X80489286Y-60107143D01*
X80346429Y-60107143D01*
X80203571Y-60035714D01*
X80132143Y-59892857D01*
X80132143Y-59535714D01*
X80060714Y-59392857D01*
X79703571Y-58821428D02*
X80703571Y-58464285D01*
X79703571Y-58107143D01*
X80632143Y-56964286D02*
X80703571Y-57107143D01*
X80703571Y-57392857D01*
X80632143Y-57535714D01*
X80489286Y-57607143D01*
X79917857Y-57607143D01*
X79775000Y-57535714D01*
X79703571Y-57392857D01*
X79703571Y-57107143D01*
X79775000Y-56964286D01*
X79917857Y-56892857D01*
X80060714Y-56892857D01*
X80203571Y-57607143D01*
X78403571Y-48785715D02*
X77617857Y-48785715D01*
X77475000Y-48857144D01*
X77403571Y-49000001D01*
X77403571Y-49285715D01*
X77475000Y-49428572D01*
X78332143Y-48785715D02*
X78403571Y-48928572D01*
X78403571Y-49285715D01*
X78332143Y-49428572D01*
X78189286Y-49500001D01*
X78046429Y-49500001D01*
X77903571Y-49428572D01*
X77832143Y-49285715D01*
X77832143Y-48928572D01*
X77760714Y-48785715D01*
X78332143Y-48142858D02*
X78403571Y-48000001D01*
X78403571Y-47714286D01*
X78332143Y-47571429D01*
X78189286Y-47500001D01*
X78117857Y-47500001D01*
X77975000Y-47571429D01*
X77903571Y-47714286D01*
X77903571Y-47928572D01*
X77832143Y-48071429D01*
X77689286Y-48142858D01*
X77617857Y-48142858D01*
X77475000Y-48071429D01*
X77403571Y-47928572D01*
X77403571Y-47714286D01*
X77475000Y-47571429D01*
X78332143Y-46928572D02*
X78403571Y-46785715D01*
X78403571Y-46500000D01*
X78332143Y-46357143D01*
X78189286Y-46285715D01*
X78117857Y-46285715D01*
X77975000Y-46357143D01*
X77903571Y-46500000D01*
X77903571Y-46714286D01*
X77832143Y-46857143D01*
X77689286Y-46928572D01*
X77617857Y-46928572D01*
X77475000Y-46857143D01*
X77403571Y-46714286D01*
X77403571Y-46500000D01*
X77475000Y-46357143D01*
X78403571Y-45642857D02*
X77403571Y-45642857D01*
X76903571Y-45642857D02*
X76975000Y-45714286D01*
X77046429Y-45642857D01*
X76975000Y-45571429D01*
X76903571Y-45642857D01*
X77046429Y-45642857D01*
X77403571Y-44285714D02*
X78617857Y-44285714D01*
X78760714Y-44357143D01*
X78832143Y-44428571D01*
X78903571Y-44571428D01*
X78903571Y-44785714D01*
X78832143Y-44928571D01*
X78332143Y-44285714D02*
X78403571Y-44428571D01*
X78403571Y-44714285D01*
X78332143Y-44857143D01*
X78260714Y-44928571D01*
X78117857Y-45000000D01*
X77689286Y-45000000D01*
X77546429Y-44928571D01*
X77475000Y-44857143D01*
X77403571Y-44714285D01*
X77403571Y-44428571D01*
X77475000Y-44285714D01*
X77403571Y-43571428D02*
X78403571Y-43571428D01*
X77546429Y-43571428D02*
X77475000Y-43500000D01*
X77403571Y-43357142D01*
X77403571Y-43142857D01*
X77475000Y-43000000D01*
X77617857Y-42928571D01*
X78403571Y-42928571D01*
X77403571Y-41285714D02*
X77403571Y-40714285D01*
X76903571Y-41071428D02*
X78189286Y-41071428D01*
X78332143Y-41000000D01*
X78403571Y-40857142D01*
X78403571Y-40714285D01*
X78403571Y-39999999D02*
X78332143Y-40142857D01*
X78260714Y-40214285D01*
X78117857Y-40285714D01*
X77689286Y-40285714D01*
X77546429Y-40214285D01*
X77475000Y-40142857D01*
X77403571Y-39999999D01*
X77403571Y-39785714D01*
X77475000Y-39642857D01*
X77546429Y-39571428D01*
X77689286Y-39499999D01*
X78117857Y-39499999D01*
X78260714Y-39571428D01*
X78332143Y-39642857D01*
X78403571Y-39785714D01*
X78403571Y-39999999D01*
X80953571Y-47964285D02*
X79953571Y-47964285D01*
X80096429Y-47964285D02*
X80025000Y-47892857D01*
X79953571Y-47749999D01*
X79953571Y-47535714D01*
X80025000Y-47392857D01*
X80167857Y-47321428D01*
X80953571Y-47321428D01*
X80167857Y-47321428D02*
X80025000Y-47249999D01*
X79953571Y-47107142D01*
X79953571Y-46892857D01*
X80025000Y-46749999D01*
X80167857Y-46678571D01*
X80953571Y-46678571D01*
X80953571Y-45321428D02*
X80167857Y-45321428D01*
X80025000Y-45392857D01*
X79953571Y-45535714D01*
X79953571Y-45821428D01*
X80025000Y-45964285D01*
X80882143Y-45321428D02*
X80953571Y-45464285D01*
X80953571Y-45821428D01*
X80882143Y-45964285D01*
X80739286Y-46035714D01*
X80596429Y-46035714D01*
X80453571Y-45964285D01*
X80382143Y-45821428D01*
X80382143Y-45464285D01*
X80310714Y-45321428D01*
X80882143Y-44678571D02*
X80953571Y-44535714D01*
X80953571Y-44249999D01*
X80882143Y-44107142D01*
X80739286Y-44035714D01*
X80667857Y-44035714D01*
X80525000Y-44107142D01*
X80453571Y-44249999D01*
X80453571Y-44464285D01*
X80382143Y-44607142D01*
X80239286Y-44678571D01*
X80167857Y-44678571D01*
X80025000Y-44607142D01*
X79953571Y-44464285D01*
X79953571Y-44249999D01*
X80025000Y-44107142D01*
X79953571Y-43607142D02*
X79953571Y-43035713D01*
X79453571Y-43392856D02*
X80739286Y-43392856D01*
X80882143Y-43321428D01*
X80953571Y-43178570D01*
X80953571Y-43035713D01*
X80882143Y-41964285D02*
X80953571Y-42107142D01*
X80953571Y-42392856D01*
X80882143Y-42535713D01*
X80739286Y-42607142D01*
X80167857Y-42607142D01*
X80025000Y-42535713D01*
X79953571Y-42392856D01*
X79953571Y-42107142D01*
X80025000Y-41964285D01*
X80167857Y-41892856D01*
X80310714Y-41892856D01*
X80453571Y-42607142D01*
X80953571Y-41249999D02*
X79953571Y-41249999D01*
X80239286Y-41249999D02*
X80096429Y-41178571D01*
X80025000Y-41107142D01*
X79953571Y-40964285D01*
X79953571Y-40821428D01*
X59178571Y-65607143D02*
X58178571Y-65607143D01*
X58321429Y-65607143D02*
X58250000Y-65535715D01*
X58178571Y-65392857D01*
X58178571Y-65178572D01*
X58250000Y-65035715D01*
X58392857Y-64964286D01*
X59178571Y-64964286D01*
X58392857Y-64964286D02*
X58250000Y-64892857D01*
X58178571Y-64750000D01*
X58178571Y-64535715D01*
X58250000Y-64392857D01*
X58392857Y-64321429D01*
X59178571Y-64321429D01*
X59178571Y-62964286D02*
X58392857Y-62964286D01*
X58250000Y-63035715D01*
X58178571Y-63178572D01*
X58178571Y-63464286D01*
X58250000Y-63607143D01*
X59107143Y-62964286D02*
X59178571Y-63107143D01*
X59178571Y-63464286D01*
X59107143Y-63607143D01*
X58964286Y-63678572D01*
X58821429Y-63678572D01*
X58678571Y-63607143D01*
X58607143Y-63464286D01*
X58607143Y-63107143D01*
X58535714Y-62964286D01*
X59178571Y-62392857D02*
X58178571Y-61607143D01*
X58178571Y-62392857D02*
X59178571Y-61607143D01*
X59750000Y-60607143D02*
X59678571Y-60678571D01*
X59464286Y-60821428D01*
X59321429Y-60892857D01*
X59107143Y-60964286D01*
X58750000Y-61035714D01*
X58464286Y-61035714D01*
X58107143Y-60964286D01*
X57892857Y-60892857D01*
X57750000Y-60821428D01*
X57535714Y-60678571D01*
X57464286Y-60607143D01*
X59035714Y-59178571D02*
X59107143Y-59250000D01*
X59178571Y-59464286D01*
X59178571Y-59607143D01*
X59107143Y-59821428D01*
X58964286Y-59964286D01*
X58821429Y-60035714D01*
X58535714Y-60107143D01*
X58321429Y-60107143D01*
X58035714Y-60035714D01*
X57892857Y-59964286D01*
X57750000Y-59821428D01*
X57678571Y-59607143D01*
X57678571Y-59464286D01*
X57750000Y-59250000D01*
X57821429Y-59178571D01*
X59178571Y-57821428D02*
X59178571Y-58535714D01*
X57678571Y-58535714D01*
X59178571Y-57321428D02*
X57678571Y-57321428D01*
X59178571Y-56464285D02*
X58321429Y-57107142D01*
X57678571Y-56464285D02*
X58535714Y-57321428D01*
X59107143Y-55750000D02*
X59178571Y-55750000D01*
X59321429Y-55821428D01*
X59392857Y-55892857D01*
X57678571Y-54821428D02*
X57678571Y-54678571D01*
X57750000Y-54535714D01*
X57821429Y-54464285D01*
X57964286Y-54392856D01*
X58250000Y-54321428D01*
X58607143Y-54321428D01*
X58892857Y-54392856D01*
X59035714Y-54464285D01*
X59107143Y-54535714D01*
X59178571Y-54678571D01*
X59178571Y-54821428D01*
X59107143Y-54964285D01*
X59035714Y-55035714D01*
X58892857Y-55107142D01*
X58607143Y-55178571D01*
X58250000Y-55178571D01*
X57964286Y-55107142D01*
X57821429Y-55035714D01*
X57750000Y-54964285D01*
X57678571Y-54821428D01*
X59750000Y-53821428D02*
X59678571Y-53750000D01*
X59464286Y-53607143D01*
X59321429Y-53535714D01*
X59107143Y-53464285D01*
X58750000Y-53392857D01*
X58464286Y-53392857D01*
X58107143Y-53464285D01*
X57892857Y-53535714D01*
X57750000Y-53607143D01*
X57535714Y-53750000D01*
X57464286Y-53821428D01*
X59178571Y-49857143D02*
X58178571Y-49857143D01*
X58321429Y-49857143D02*
X58250000Y-49785715D01*
X58178571Y-49642857D01*
X58178571Y-49428572D01*
X58250000Y-49285715D01*
X58392857Y-49214286D01*
X59178571Y-49214286D01*
X58392857Y-49214286D02*
X58250000Y-49142857D01*
X58178571Y-49000000D01*
X58178571Y-48785715D01*
X58250000Y-48642857D01*
X58392857Y-48571429D01*
X59178571Y-48571429D01*
X59178571Y-47857143D02*
X58178571Y-47857143D01*
X57678571Y-47857143D02*
X57750000Y-47928572D01*
X57821429Y-47857143D01*
X57750000Y-47785715D01*
X57678571Y-47857143D01*
X57821429Y-47857143D01*
X58178571Y-47142857D02*
X59178571Y-47142857D01*
X58321429Y-47142857D02*
X58250000Y-47071429D01*
X58178571Y-46928571D01*
X58178571Y-46714286D01*
X58250000Y-46571429D01*
X58392857Y-46500000D01*
X59178571Y-46500000D01*
X59750000Y-45357143D02*
X59678571Y-45428571D01*
X59464286Y-45571428D01*
X59321429Y-45642857D01*
X59107143Y-45714286D01*
X58750000Y-45785714D01*
X58464286Y-45785714D01*
X58107143Y-45714286D01*
X57892857Y-45642857D01*
X57750000Y-45571428D01*
X57535714Y-45428571D01*
X57464286Y-45357143D01*
X59035714Y-43928571D02*
X59107143Y-44000000D01*
X59178571Y-44214286D01*
X59178571Y-44357143D01*
X59107143Y-44571428D01*
X58964286Y-44714286D01*
X58821429Y-44785714D01*
X58535714Y-44857143D01*
X58321429Y-44857143D01*
X58035714Y-44785714D01*
X57892857Y-44714286D01*
X57750000Y-44571428D01*
X57678571Y-44357143D01*
X57678571Y-44214286D01*
X57750000Y-44000000D01*
X57821429Y-43928571D01*
X59178571Y-42571428D02*
X59178571Y-43285714D01*
X57678571Y-43285714D01*
X59178571Y-42071428D02*
X57678571Y-42071428D01*
X59178571Y-41214285D02*
X58321429Y-41857142D01*
X57678571Y-41214285D02*
X58535714Y-42071428D01*
X59107143Y-40500000D02*
X59178571Y-40500000D01*
X59321429Y-40571428D01*
X59392857Y-40642857D01*
X57678571Y-39571428D02*
X57678571Y-39428571D01*
X57750000Y-39285714D01*
X57821429Y-39214285D01*
X57964286Y-39142856D01*
X58250000Y-39071428D01*
X58607143Y-39071428D01*
X58892857Y-39142856D01*
X59035714Y-39214285D01*
X59107143Y-39285714D01*
X59178571Y-39428571D01*
X59178571Y-39571428D01*
X59107143Y-39714285D01*
X59035714Y-39785714D01*
X58892857Y-39857142D01*
X58607143Y-39928571D01*
X58250000Y-39928571D01*
X57964286Y-39857142D01*
X57821429Y-39785714D01*
X57750000Y-39714285D01*
X57678571Y-39571428D01*
X59750000Y-38571428D02*
X59678571Y-38500000D01*
X59464286Y-38357143D01*
X59321429Y-38285714D01*
X59107143Y-38214285D01*
X58750000Y-38142857D01*
X58464286Y-38142857D01*
X58107143Y-38214285D01*
X57892857Y-38285714D01*
X57750000Y-38357143D01*
X57535714Y-38500000D01*
X57464286Y-38571428D01*
D13*
X83700000Y-76600000D02*
X83700000Y-126200000D01*
X54777251Y-85417681D02*
X54777251Y-84417681D01*
X55205823Y-85417681D02*
X55205823Y-84893871D01*
X55158204Y-84798633D01*
X55062966Y-84751014D01*
X54920108Y-84751014D01*
X54824870Y-84798633D01*
X54777251Y-84846252D01*
X56110585Y-85417681D02*
X56110585Y-84893871D01*
X56062966Y-84798633D01*
X55967728Y-84751014D01*
X55777251Y-84751014D01*
X55682013Y-84798633D01*
X56110585Y-85370062D02*
X56015347Y-85417681D01*
X55777251Y-85417681D01*
X55682013Y-85370062D01*
X55634394Y-85274824D01*
X55634394Y-85179586D01*
X55682013Y-85084348D01*
X55777251Y-85036729D01*
X56015347Y-85036729D01*
X56110585Y-84989110D01*
X56729632Y-85417681D02*
X56634394Y-85370062D01*
X56586775Y-85274824D01*
X56586775Y-84417681D01*
X56967728Y-84751014D02*
X57348680Y-84751014D01*
X57110585Y-85417681D02*
X57110585Y-84560538D01*
X57158204Y-84465300D01*
X57253442Y-84417681D01*
X57348680Y-84417681D01*
X58110586Y-85417681D02*
X58110586Y-84893871D01*
X58062967Y-84798633D01*
X57967729Y-84751014D01*
X57777252Y-84751014D01*
X57682014Y-84798633D01*
X58110586Y-85370062D02*
X58015348Y-85417681D01*
X57777252Y-85417681D01*
X57682014Y-85370062D01*
X57634395Y-85274824D01*
X57634395Y-85179586D01*
X57682014Y-85084348D01*
X57777252Y-85036729D01*
X58015348Y-85036729D01*
X58110586Y-84989110D01*
X59015348Y-85417681D02*
X59015348Y-84417681D01*
X59015348Y-85370062D02*
X58920110Y-85417681D01*
X58729633Y-85417681D01*
X58634395Y-85370062D01*
X58586776Y-85322443D01*
X58539157Y-85227205D01*
X58539157Y-84941490D01*
X58586776Y-84846252D01*
X58634395Y-84798633D01*
X58729633Y-84751014D01*
X58920110Y-84751014D01*
X59015348Y-84798633D01*
X59920110Y-85417681D02*
X59920110Y-84417681D01*
X59920110Y-85370062D02*
X59824872Y-85417681D01*
X59634395Y-85417681D01*
X59539157Y-85370062D01*
X59491538Y-85322443D01*
X59443919Y-85227205D01*
X59443919Y-84941490D01*
X59491538Y-84846252D01*
X59539157Y-84798633D01*
X59634395Y-84751014D01*
X59824872Y-84751014D01*
X59920110Y-84798633D01*
X60777253Y-85370062D02*
X60682015Y-85417681D01*
X60491538Y-85417681D01*
X60396300Y-85370062D01*
X60348681Y-85274824D01*
X60348681Y-84893871D01*
X60396300Y-84798633D01*
X60491538Y-84751014D01*
X60682015Y-84751014D01*
X60777253Y-84798633D01*
X60824872Y-84893871D01*
X60824872Y-84989110D01*
X60348681Y-85084348D01*
X61253443Y-85417681D02*
X61253443Y-84751014D01*
X61253443Y-84941490D02*
X61301062Y-84846252D01*
X61348681Y-84798633D01*
X61443919Y-84751014D01*
X61539158Y-84751014D01*
X62586777Y-85131967D02*
X63062968Y-85131967D01*
X62491539Y-85417681D02*
X62824872Y-84417681D01*
X63158206Y-85417681D01*
X64253444Y-84893871D02*
X65015349Y-84893871D01*
X65015349Y-85179586D02*
X64253444Y-85179586D01*
X57967728Y-87212919D02*
X57872490Y-87165300D01*
X57777252Y-87070062D01*
X57634395Y-86927205D01*
X57539156Y-86879586D01*
X57443918Y-86879586D01*
X57491537Y-87117681D02*
X57396299Y-87070062D01*
X57301061Y-86974824D01*
X57253442Y-86784348D01*
X57253442Y-86451014D01*
X57301061Y-86260538D01*
X57396299Y-86165300D01*
X57491537Y-86117681D01*
X57682014Y-86117681D01*
X57777252Y-86165300D01*
X57872490Y-86260538D01*
X57920109Y-86451014D01*
X57920109Y-86784348D01*
X57872490Y-86974824D01*
X57777252Y-87070062D01*
X57682014Y-87117681D01*
X57491537Y-87117681D01*
X59062966Y-87070062D02*
X59158204Y-87117681D01*
X59348680Y-87117681D01*
X59443919Y-87070062D01*
X59491538Y-86974824D01*
X59491538Y-86927205D01*
X59443919Y-86831967D01*
X59348680Y-86784348D01*
X59205823Y-86784348D01*
X59110585Y-86736729D01*
X59062966Y-86641490D01*
X59062966Y-86593871D01*
X59110585Y-86498633D01*
X59205823Y-86451014D01*
X59348680Y-86451014D01*
X59443919Y-86498633D01*
X60062966Y-87117681D02*
X59967728Y-87070062D01*
X59920109Y-86974824D01*
X59920109Y-86117681D01*
X60872491Y-87117681D02*
X60872491Y-86593871D01*
X60824872Y-86498633D01*
X60729634Y-86451014D01*
X60539157Y-86451014D01*
X60443919Y-86498633D01*
X60872491Y-87070062D02*
X60777253Y-87117681D01*
X60539157Y-87117681D01*
X60443919Y-87070062D01*
X60396300Y-86974824D01*
X60396300Y-86879586D01*
X60443919Y-86784348D01*
X60539157Y-86736729D01*
X60777253Y-86736729D01*
X60872491Y-86689110D01*
X61253443Y-86451014D02*
X61491538Y-87117681D01*
X61729634Y-86451014D01*
X62491539Y-87070062D02*
X62396301Y-87117681D01*
X62205824Y-87117681D01*
X62110586Y-87070062D01*
X62062967Y-86974824D01*
X62062967Y-86593871D01*
X62110586Y-86498633D01*
X62205824Y-86451014D01*
X62396301Y-86451014D01*
X62491539Y-86498633D01*
X62539158Y-86593871D01*
X62539158Y-86689110D01*
X62062967Y-86784348D01*
X42624300Y-126201300D02*
X42624300Y-87339300D01*
X56594300Y-87339300D02*
X56594300Y-126201300D01*
X52173062Y-91871396D02*
X52220681Y-91776158D01*
X52220681Y-91585682D01*
X52173062Y-91490443D01*
X52077824Y-91442824D01*
X52030205Y-91442824D01*
X51934967Y-91490443D01*
X51887348Y-91585682D01*
X51887348Y-91728539D01*
X51839729Y-91823777D01*
X51744490Y-91871396D01*
X51696871Y-91871396D01*
X51601633Y-91823777D01*
X51554014Y-91728539D01*
X51554014Y-91585682D01*
X51601633Y-91490443D01*
X52220681Y-90871396D02*
X52173062Y-90966634D01*
X52077824Y-91014253D01*
X51220681Y-91014253D01*
X52220681Y-90061871D02*
X51696871Y-90061871D01*
X51601633Y-90109490D01*
X51554014Y-90204728D01*
X51554014Y-90395205D01*
X51601633Y-90490443D01*
X52173062Y-90061871D02*
X52220681Y-90157109D01*
X52220681Y-90395205D01*
X52173062Y-90490443D01*
X52077824Y-90538062D01*
X51982586Y-90538062D01*
X51887348Y-90490443D01*
X51839729Y-90395205D01*
X51839729Y-90157109D01*
X51792110Y-90061871D01*
X51554014Y-89680919D02*
X52220681Y-89442824D01*
X51554014Y-89204728D01*
X52173062Y-88442823D02*
X52220681Y-88538061D01*
X52220681Y-88728538D01*
X52173062Y-88823776D01*
X52077824Y-88871395D01*
X51696871Y-88871395D01*
X51601633Y-88823776D01*
X51554014Y-88728538D01*
X51554014Y-88538061D01*
X51601633Y-88442823D01*
X51696871Y-88395204D01*
X51792110Y-88395204D01*
X51887348Y-88871395D01*
X80470300Y-126201300D02*
X80470300Y-87339300D01*
X57864300Y-87339300D02*
X57864300Y-126201300D01*
D12*
X55754015Y-77368871D02*
X56611158Y-77368871D01*
X56182587Y-78868871D02*
X56182587Y-77368871D01*
X57682586Y-78797443D02*
X57539729Y-78868871D01*
X57254015Y-78868871D01*
X57111158Y-78797443D01*
X57039729Y-78654586D01*
X57039729Y-78083157D01*
X57111158Y-77940300D01*
X57254015Y-77868871D01*
X57539729Y-77868871D01*
X57682586Y-77940300D01*
X57754015Y-78083157D01*
X57754015Y-78226014D01*
X57039729Y-78368871D01*
X58396872Y-78868871D02*
X58396872Y-77868871D01*
X58396872Y-78154586D02*
X58468300Y-78011729D01*
X58539729Y-77940300D01*
X58682586Y-77868871D01*
X58825443Y-77868871D01*
X59325443Y-77868871D02*
X59325443Y-78868871D01*
X59325443Y-78011729D02*
X59396871Y-77940300D01*
X59539729Y-77868871D01*
X59754014Y-77868871D01*
X59896871Y-77940300D01*
X59968300Y-78083157D01*
X59968300Y-78868871D01*
X61325443Y-78868871D02*
X61325443Y-78083157D01*
X61254014Y-77940300D01*
X61111157Y-77868871D01*
X60825443Y-77868871D01*
X60682586Y-77940300D01*
X61325443Y-78797443D02*
X61182586Y-78868871D01*
X60825443Y-78868871D01*
X60682586Y-78797443D01*
X60611157Y-78654586D01*
X60611157Y-78511729D01*
X60682586Y-78368871D01*
X60825443Y-78297443D01*
X61182586Y-78297443D01*
X61325443Y-78226014D01*
X62039729Y-78868871D02*
X62039729Y-77868871D01*
X62039729Y-78154586D02*
X62111157Y-78011729D01*
X62182586Y-77940300D01*
X62325443Y-77868871D01*
X62468300Y-77868871D01*
X62825443Y-77868871D02*
X63182586Y-78868871D01*
X63539728Y-77868871D02*
X63182586Y-78868871D01*
X63039728Y-79226014D01*
X62968300Y-79297443D01*
X62825443Y-79368871D01*
X65896871Y-78797443D02*
X65754014Y-78868871D01*
X65468300Y-78868871D01*
X65325442Y-78797443D01*
X65254014Y-78726014D01*
X65182585Y-78583157D01*
X65182585Y-78154586D01*
X65254014Y-78011729D01*
X65325442Y-77940300D01*
X65468300Y-77868871D01*
X65754014Y-77868871D01*
X65896871Y-77940300D01*
X66754014Y-78868871D02*
X66611156Y-78797443D01*
X66539728Y-78726014D01*
X66468299Y-78583157D01*
X66468299Y-78154586D01*
X66539728Y-78011729D01*
X66611156Y-77940300D01*
X66754014Y-77868871D01*
X66968299Y-77868871D01*
X67111156Y-77940300D01*
X67182585Y-78011729D01*
X67254014Y-78154586D01*
X67254014Y-78583157D01*
X67182585Y-78726014D01*
X67111156Y-78797443D01*
X66968299Y-78868871D01*
X66754014Y-78868871D01*
X68539728Y-77868871D02*
X68539728Y-78868871D01*
X67896871Y-77868871D02*
X67896871Y-78654586D01*
X67968299Y-78797443D01*
X68111157Y-78868871D01*
X68325442Y-78868871D01*
X68468299Y-78797443D01*
X68539728Y-78726014D01*
X69254014Y-77868871D02*
X69254014Y-78868871D01*
X69254014Y-78011729D02*
X69325442Y-77940300D01*
X69468300Y-77868871D01*
X69682585Y-77868871D01*
X69825442Y-77940300D01*
X69896871Y-78083157D01*
X69896871Y-78868871D01*
X70396871Y-77868871D02*
X70968300Y-77868871D01*
X70611157Y-77368871D02*
X70611157Y-78654586D01*
X70682585Y-78797443D01*
X70825443Y-78868871D01*
X70968300Y-78868871D01*
X72039728Y-78797443D02*
X71896871Y-78868871D01*
X71611157Y-78868871D01*
X71468300Y-78797443D01*
X71396871Y-78654586D01*
X71396871Y-78083157D01*
X71468300Y-77940300D01*
X71611157Y-77868871D01*
X71896871Y-77868871D01*
X72039728Y-77940300D01*
X72111157Y-78083157D01*
X72111157Y-78226014D01*
X71396871Y-78368871D01*
X72754014Y-78868871D02*
X72754014Y-77868871D01*
X72754014Y-78154586D02*
X72825442Y-78011729D01*
X72896871Y-77940300D01*
X73039728Y-77868871D01*
X73182585Y-77868871D01*
X59039729Y-81990300D02*
X58968301Y-81918871D01*
X58825444Y-81704586D01*
X58754015Y-81561729D01*
X58682586Y-81347443D01*
X58611158Y-80990300D01*
X58611158Y-80704586D01*
X58682586Y-80347443D01*
X58754015Y-80133157D01*
X58825444Y-79990300D01*
X58968301Y-79776014D01*
X59039729Y-79704586D01*
X59825444Y-81418871D02*
X59682586Y-81347443D01*
X59611158Y-81276014D01*
X59539729Y-81133157D01*
X59539729Y-80704586D01*
X59611158Y-80561729D01*
X59682586Y-80490300D01*
X59825444Y-80418871D01*
X60039729Y-80418871D01*
X60182586Y-80490300D01*
X60254015Y-80561729D01*
X60325444Y-80704586D01*
X60325444Y-81133157D01*
X60254015Y-81276014D01*
X60182586Y-81347443D01*
X60039729Y-81418871D01*
X59825444Y-81418871D01*
X60968301Y-80418871D02*
X60968301Y-81418871D01*
X60968301Y-80561729D02*
X61039729Y-80490300D01*
X61182587Y-80418871D01*
X61396872Y-80418871D01*
X61539729Y-80490300D01*
X61611158Y-80633157D01*
X61611158Y-81418871D01*
X62896872Y-81347443D02*
X62754015Y-81418871D01*
X62468301Y-81418871D01*
X62325444Y-81347443D01*
X62254015Y-81204586D01*
X62254015Y-80633157D01*
X62325444Y-80490300D01*
X62468301Y-80418871D01*
X62754015Y-80418871D01*
X62896872Y-80490300D01*
X62968301Y-80633157D01*
X62968301Y-80776014D01*
X62254015Y-80918871D01*
X64682586Y-81347443D02*
X64825443Y-81418871D01*
X65111158Y-81418871D01*
X65254015Y-81347443D01*
X65325443Y-81204586D01*
X65325443Y-81133157D01*
X65254015Y-80990300D01*
X65111158Y-80918871D01*
X64896872Y-80918871D01*
X64754015Y-80847443D01*
X64682586Y-80704586D01*
X64682586Y-80633157D01*
X64754015Y-80490300D01*
X64896872Y-80418871D01*
X65111158Y-80418871D01*
X65254015Y-80490300D01*
X66182587Y-81418871D02*
X66039729Y-81347443D01*
X65968301Y-81204586D01*
X65968301Y-79918871D01*
X66754015Y-81418871D02*
X66754015Y-80418871D01*
X66754015Y-79918871D02*
X66682586Y-79990300D01*
X66754015Y-80061729D01*
X66825443Y-79990300D01*
X66754015Y-79918871D01*
X66754015Y-80061729D01*
X68111158Y-81347443D02*
X67968301Y-81418871D01*
X67682587Y-81418871D01*
X67539729Y-81347443D01*
X67468301Y-81276014D01*
X67396872Y-81133157D01*
X67396872Y-80704586D01*
X67468301Y-80561729D01*
X67539729Y-80490300D01*
X67682587Y-80418871D01*
X67968301Y-80418871D01*
X68111158Y-80490300D01*
X69325443Y-81347443D02*
X69182586Y-81418871D01*
X68896872Y-81418871D01*
X68754015Y-81347443D01*
X68682586Y-81204586D01*
X68682586Y-80633157D01*
X68754015Y-80490300D01*
X68896872Y-80418871D01*
X69182586Y-80418871D01*
X69325443Y-80490300D01*
X69396872Y-80633157D01*
X69396872Y-80776014D01*
X68682586Y-80918871D01*
X69896872Y-81990300D02*
X69968300Y-81918871D01*
X70111157Y-81704586D01*
X70182586Y-81561729D01*
X70254015Y-81347443D01*
X70325443Y-80990300D01*
X70325443Y-80704586D01*
X70254015Y-80347443D01*
X70182586Y-80133157D01*
X70111157Y-79990300D01*
X69968300Y-79776014D01*
X69896872Y-79704586D01*
D11*
X79882871Y-86049871D02*
X79940014Y-86107014D01*
X79997157Y-86278443D01*
X79997157Y-86392729D01*
X79940014Y-86564157D01*
X79825729Y-86678443D01*
X79711443Y-86735586D01*
X79482871Y-86792729D01*
X79311443Y-86792729D01*
X79082871Y-86735586D01*
X78968586Y-86678443D01*
X78854300Y-86564157D01*
X78797157Y-86392729D01*
X78797157Y-86278443D01*
X78854300Y-86107014D01*
X78911443Y-86049871D01*
X79882871Y-83935585D02*
X79940014Y-83992728D01*
X79997157Y-84164157D01*
X79997157Y-84278443D01*
X79940014Y-84449871D01*
X79825729Y-84564157D01*
X79711443Y-84621300D01*
X79482871Y-84678443D01*
X79311443Y-84678443D01*
X79082871Y-84621300D01*
X78968586Y-84564157D01*
X78854300Y-84449871D01*
X78797157Y-84278443D01*
X78797157Y-84164157D01*
X78854300Y-83992728D01*
X78911443Y-83935585D01*
X79940014Y-83478443D02*
X79997157Y-83364157D01*
X79997157Y-83135585D01*
X79940014Y-83021300D01*
X79825729Y-82964157D01*
X79768586Y-82964157D01*
X79654300Y-83021300D01*
X79597157Y-83135585D01*
X79597157Y-83307014D01*
X79540014Y-83421300D01*
X79425729Y-83478443D01*
X79368586Y-83478443D01*
X79254300Y-83421300D01*
X79197157Y-83307014D01*
X79197157Y-83135585D01*
X79254300Y-83021300D01*
X79882871Y-80849870D02*
X79940014Y-80907013D01*
X79997157Y-81078442D01*
X79997157Y-81192728D01*
X79940014Y-81364156D01*
X79825729Y-81478442D01*
X79711443Y-81535585D01*
X79482871Y-81592728D01*
X79311443Y-81592728D01*
X79082871Y-81535585D01*
X78968586Y-81478442D01*
X78854300Y-81364156D01*
X78797157Y-81192728D01*
X78797157Y-81078442D01*
X78854300Y-80907013D01*
X78911443Y-80849870D01*
X79997157Y-80335585D02*
X79197157Y-80335585D01*
X79311443Y-80335585D02*
X79254300Y-80278442D01*
X79197157Y-80164156D01*
X79197157Y-79992728D01*
X79254300Y-79878442D01*
X79368586Y-79821299D01*
X79997157Y-79821299D01*
X79368586Y-79821299D02*
X79254300Y-79764156D01*
X79197157Y-79649870D01*
X79197157Y-79478442D01*
X79254300Y-79364156D01*
X79368586Y-79307013D01*
X79997157Y-79307013D01*
X46011681Y-83489395D02*
X45487871Y-83489395D01*
X45392633Y-83537014D01*
X45345014Y-83632252D01*
X45345014Y-83822729D01*
X45392633Y-83917967D01*
X45964062Y-83489395D02*
X46011681Y-83584633D01*
X46011681Y-83822729D01*
X45964062Y-83917967D01*
X45868824Y-83965586D01*
X45773586Y-83965586D01*
X45678348Y-83917967D01*
X45630729Y-83822729D01*
X45630729Y-83584633D01*
X45583110Y-83489395D01*
X45964062Y-83060824D02*
X46011681Y-82965586D01*
X46011681Y-82775110D01*
X45964062Y-82679871D01*
X45868824Y-82632252D01*
X45821205Y-82632252D01*
X45725967Y-82679871D01*
X45678348Y-82775110D01*
X45678348Y-82917967D01*
X45630729Y-83013205D01*
X45535490Y-83060824D01*
X45487871Y-83060824D01*
X45392633Y-83013205D01*
X45345014Y-82917967D01*
X45345014Y-82775110D01*
X45392633Y-82679871D01*
X45964062Y-82251300D02*
X46011681Y-82156062D01*
X46011681Y-81965586D01*
X45964062Y-81870347D01*
X45868824Y-81822728D01*
X45821205Y-81822728D01*
X45725967Y-81870347D01*
X45678348Y-81965586D01*
X45678348Y-82108443D01*
X45630729Y-82203681D01*
X45535490Y-82251300D01*
X45487871Y-82251300D01*
X45392633Y-82203681D01*
X45345014Y-82108443D01*
X45345014Y-81965586D01*
X45392633Y-81870347D01*
X46011681Y-81394157D02*
X45345014Y-81394157D01*
X45011681Y-81394157D02*
X45059300Y-81441776D01*
X45106919Y-81394157D01*
X45059300Y-81346538D01*
X45011681Y-81394157D01*
X45106919Y-81394157D01*
X45345014Y-80489395D02*
X46154538Y-80489395D01*
X46249776Y-80537014D01*
X46297395Y-80584633D01*
X46345014Y-80679872D01*
X46345014Y-80822729D01*
X46297395Y-80917967D01*
X45964062Y-80489395D02*
X46011681Y-80584633D01*
X46011681Y-80775110D01*
X45964062Y-80870348D01*
X45916443Y-80917967D01*
X45821205Y-80965586D01*
X45535490Y-80965586D01*
X45440252Y-80917967D01*
X45392633Y-80870348D01*
X45345014Y-80775110D01*
X45345014Y-80584633D01*
X45392633Y-80489395D01*
X45345014Y-80013205D02*
X46011681Y-80013205D01*
X45440252Y-80013205D02*
X45392633Y-79965586D01*
X45345014Y-79870348D01*
X45345014Y-79727490D01*
X45392633Y-79632252D01*
X45487871Y-79584633D01*
X46011681Y-79584633D01*
X47095014Y-82703681D02*
X47761681Y-82465586D01*
X47095014Y-82227490D01*
X47761681Y-81417966D02*
X47237871Y-81417966D01*
X47142633Y-81465585D01*
X47095014Y-81560823D01*
X47095014Y-81751300D01*
X47142633Y-81846538D01*
X47714062Y-81417966D02*
X47761681Y-81513204D01*
X47761681Y-81751300D01*
X47714062Y-81846538D01*
X47618824Y-81894157D01*
X47523586Y-81894157D01*
X47428348Y-81846538D01*
X47380729Y-81751300D01*
X47380729Y-81513204D01*
X47333110Y-81417966D01*
X47761681Y-80798919D02*
X47714062Y-80894157D01*
X47618824Y-80941776D01*
X46761681Y-80941776D01*
X51552062Y-81608158D02*
X51599681Y-81512920D01*
X51599681Y-81322444D01*
X51552062Y-81227205D01*
X51456824Y-81179586D01*
X51409205Y-81179586D01*
X51313967Y-81227205D01*
X51266348Y-81322444D01*
X51266348Y-81465301D01*
X51218729Y-81560539D01*
X51123490Y-81608158D01*
X51075871Y-81608158D01*
X50980633Y-81560539D01*
X50933014Y-81465301D01*
X50933014Y-81322444D01*
X50980633Y-81227205D01*
X50933014Y-80893872D02*
X50933014Y-80512920D01*
X50599681Y-80751015D02*
X51456824Y-80751015D01*
X51552062Y-80703396D01*
X51599681Y-80608158D01*
X51599681Y-80512920D01*
X51599681Y-80036729D02*
X51552062Y-80131967D01*
X51504443Y-80179586D01*
X51409205Y-80227205D01*
X51123490Y-80227205D01*
X51028252Y-80179586D01*
X50980633Y-80131967D01*
X50933014Y-80036729D01*
X50933014Y-79893871D01*
X50980633Y-79798633D01*
X51028252Y-79751014D01*
X51123490Y-79703395D01*
X51409205Y-79703395D01*
X51504443Y-79751014D01*
X51552062Y-79798633D01*
X51599681Y-79893871D01*
X51599681Y-80036729D01*
X51599681Y-79274824D02*
X50933014Y-79274824D01*
X51123490Y-79274824D02*
X51028252Y-79227205D01*
X50980633Y-79179586D01*
X50933014Y-79084348D01*
X50933014Y-78989109D01*
X51552062Y-78274823D02*
X51599681Y-78370061D01*
X51599681Y-78560538D01*
X51552062Y-78655776D01*
X51456824Y-78703395D01*
X51075871Y-78703395D01*
X50980633Y-78655776D01*
X50933014Y-78560538D01*
X50933014Y-78370061D01*
X50980633Y-78274823D01*
X51075871Y-78227204D01*
X51171110Y-78227204D01*
X51266348Y-78703395D01*
X51599681Y-77370061D02*
X50599681Y-77370061D01*
X51552062Y-77370061D02*
X51599681Y-77465299D01*
X51599681Y-77655776D01*
X51552062Y-77751014D01*
X51504443Y-77798633D01*
X51409205Y-77846252D01*
X51123490Y-77846252D01*
X51028252Y-77798633D01*
X50980633Y-77751014D01*
X50933014Y-77655776D01*
X50933014Y-77465299D01*
X50980633Y-77370061D01*
X52683014Y-80417681D02*
X53349681Y-80179586D01*
X52683014Y-79941490D01*
X53349681Y-79131966D02*
X52825871Y-79131966D01*
X52730633Y-79179585D01*
X52683014Y-79274823D01*
X52683014Y-79465300D01*
X52730633Y-79560538D01*
X53302062Y-79131966D02*
X53349681Y-79227204D01*
X53349681Y-79465300D01*
X53302062Y-79560538D01*
X53206824Y-79608157D01*
X53111586Y-79608157D01*
X53016348Y-79560538D01*
X52968729Y-79465300D01*
X52968729Y-79227204D01*
X52921110Y-79131966D01*
X53349681Y-78512919D02*
X53302062Y-78608157D01*
X53206824Y-78655776D01*
X52349681Y-78655776D01*
X43300586Y-85573586D02*
X43357729Y-85402157D01*
X43414871Y-85345014D01*
X43529157Y-85287871D01*
X43700586Y-85287871D01*
X43814871Y-85345014D01*
X43872014Y-85402157D01*
X43929157Y-85516443D01*
X43929157Y-85973586D01*
X42729157Y-85973586D01*
X42729157Y-85573586D01*
X42786300Y-85459300D01*
X42843443Y-85402157D01*
X42957729Y-85345014D01*
X43072014Y-85345014D01*
X43186300Y-85402157D01*
X43243443Y-85459300D01*
X43300586Y-85573586D01*
X43300586Y-85973586D01*
X43814871Y-83173585D02*
X43872014Y-83230728D01*
X43929157Y-83402157D01*
X43929157Y-83516443D01*
X43872014Y-83687871D01*
X43757729Y-83802157D01*
X43643443Y-83859300D01*
X43414871Y-83916443D01*
X43243443Y-83916443D01*
X43014871Y-83859300D01*
X42900586Y-83802157D01*
X42786300Y-83687871D01*
X42729157Y-83516443D01*
X42729157Y-83402157D01*
X42786300Y-83230728D01*
X42843443Y-83173585D01*
X43872014Y-82716443D02*
X43929157Y-82602157D01*
X43929157Y-82373585D01*
X43872014Y-82259300D01*
X43757729Y-82202157D01*
X43700586Y-82202157D01*
X43586300Y-82259300D01*
X43529157Y-82373585D01*
X43529157Y-82545014D01*
X43472014Y-82659300D01*
X43357729Y-82716443D01*
X43300586Y-82716443D01*
X43186300Y-82659300D01*
X43129157Y-82545014D01*
X43129157Y-82373585D01*
X43186300Y-82259300D01*
X43814871Y-80087870D02*
X43872014Y-80145013D01*
X43929157Y-80316442D01*
X43929157Y-80430728D01*
X43872014Y-80602156D01*
X43757729Y-80716442D01*
X43643443Y-80773585D01*
X43414871Y-80830728D01*
X43243443Y-80830728D01*
X43014871Y-80773585D01*
X42900586Y-80716442D01*
X42786300Y-80602156D01*
X42729157Y-80430728D01*
X42729157Y-80316442D01*
X42786300Y-80145013D01*
X42843443Y-80087870D01*
X43929157Y-79573585D02*
X43129157Y-79573585D01*
X43243443Y-79573585D02*
X43186300Y-79516442D01*
X43129157Y-79402156D01*
X43129157Y-79230728D01*
X43186300Y-79116442D01*
X43300586Y-79059299D01*
X43929157Y-79059299D01*
X43300586Y-79059299D02*
X43186300Y-79002156D01*
X43129157Y-78887870D01*
X43129157Y-78716442D01*
X43186300Y-78602156D01*
X43300586Y-78545013D01*
X43929157Y-78545013D01*
D12*
X42403571Y-118040000D02*
X40903571Y-118040000D01*
X40903571Y-117468572D01*
X40975000Y-117325714D01*
X41046429Y-117254286D01*
X41189286Y-117182857D01*
X41403571Y-117182857D01*
X41546429Y-117254286D01*
X41617857Y-117325714D01*
X41689286Y-117468572D01*
X41689286Y-118040000D01*
X40903571Y-116682857D02*
X42403571Y-116325714D01*
X41332143Y-116040000D01*
X42403571Y-115754286D01*
X40903571Y-115397143D01*
X42403571Y-113968571D02*
X41689286Y-114468571D01*
X42403571Y-114825714D02*
X40903571Y-114825714D01*
X40903571Y-114254286D01*
X40975000Y-114111428D01*
X41046429Y-114040000D01*
X41189286Y-113968571D01*
X41403571Y-113968571D01*
X41546429Y-114040000D01*
X41617857Y-114111428D01*
X41689286Y-114254286D01*
X41689286Y-114825714D01*
X82672871Y-117533300D02*
X81172871Y-117533300D01*
X81172871Y-116961872D01*
X81244300Y-116819014D01*
X81315729Y-116747586D01*
X81458586Y-116676157D01*
X81672871Y-116676157D01*
X81815729Y-116747586D01*
X81887157Y-116819014D01*
X81958586Y-116961872D01*
X81958586Y-117533300D01*
X81172871Y-116176157D02*
X82672871Y-115819014D01*
X81601443Y-115533300D01*
X82672871Y-115247586D01*
X81172871Y-114890443D01*
X82672871Y-113461871D02*
X81958586Y-113961871D01*
X82672871Y-114319014D02*
X81172871Y-114319014D01*
X81172871Y-113747586D01*
X81244300Y-113604728D01*
X81315729Y-113533300D01*
X81458586Y-113461871D01*
X81672871Y-113461871D01*
X81815729Y-113533300D01*
X81887157Y-113604728D01*
X81958586Y-113747586D01*
X81958586Y-114319014D01*
X46835157Y-117772158D02*
X46835157Y-118915015D01*
X47763729Y-120343587D02*
X47763729Y-119629301D01*
X47049443Y-119557872D01*
X47120871Y-119629301D01*
X47192300Y-119772158D01*
X47192300Y-120129301D01*
X47120871Y-120272158D01*
X47049443Y-120343587D01*
X46906586Y-120415015D01*
X46549443Y-120415015D01*
X46406586Y-120343587D01*
X46335157Y-120272158D01*
X46263729Y-120129301D01*
X46263729Y-119772158D01*
X46335157Y-119629301D01*
X46406586Y-119557872D01*
X47763729Y-122486443D02*
X47763729Y-122629300D01*
X47692300Y-122772157D01*
X47620871Y-122843586D01*
X47478014Y-122915015D01*
X47192300Y-122986443D01*
X46835157Y-122986443D01*
X46549443Y-122915015D01*
X46406586Y-122843586D01*
X46335157Y-122772157D01*
X46263729Y-122629300D01*
X46263729Y-122486443D01*
X46335157Y-122343586D01*
X46406586Y-122272157D01*
X46549443Y-122200729D01*
X46835157Y-122129300D01*
X47192300Y-122129300D01*
X47478014Y-122200729D01*
X47620871Y-122272157D01*
X47692300Y-122343586D01*
X47763729Y-122486443D01*
X47763729Y-125486443D02*
X47763729Y-124772157D01*
X47049443Y-124700728D01*
X47120871Y-124772157D01*
X47192300Y-124915014D01*
X47192300Y-125272157D01*
X47120871Y-125415014D01*
X47049443Y-125486443D01*
X46906586Y-125557871D01*
X46549443Y-125557871D01*
X46406586Y-125486443D01*
X46335157Y-125415014D01*
X46263729Y-125272157D01*
X46263729Y-124915014D01*
X46335157Y-124772157D01*
X46406586Y-124700728D01*
X75283157Y-117772158D02*
X75283157Y-118915015D01*
X76211729Y-120343587D02*
X76211729Y-119629301D01*
X75497443Y-119557872D01*
X75568871Y-119629301D01*
X75640300Y-119772158D01*
X75640300Y-120129301D01*
X75568871Y-120272158D01*
X75497443Y-120343587D01*
X75354586Y-120415015D01*
X74997443Y-120415015D01*
X74854586Y-120343587D01*
X74783157Y-120272158D01*
X74711729Y-120129301D01*
X74711729Y-119772158D01*
X74783157Y-119629301D01*
X74854586Y-119557872D01*
X76211729Y-122486443D02*
X76211729Y-122629300D01*
X76140300Y-122772157D01*
X76068871Y-122843586D01*
X75926014Y-122915015D01*
X75640300Y-122986443D01*
X75283157Y-122986443D01*
X74997443Y-122915015D01*
X74854586Y-122843586D01*
X74783157Y-122772157D01*
X74711729Y-122629300D01*
X74711729Y-122486443D01*
X74783157Y-122343586D01*
X74854586Y-122272157D01*
X74997443Y-122200729D01*
X75283157Y-122129300D01*
X75640300Y-122129300D01*
X75926014Y-122200729D01*
X76068871Y-122272157D01*
X76140300Y-122343586D01*
X76211729Y-122486443D01*
X76211729Y-125486443D02*
X76211729Y-124772157D01*
X75497443Y-124700728D01*
X75568871Y-124772157D01*
X75640300Y-124915014D01*
X75640300Y-125272157D01*
X75568871Y-125415014D01*
X75497443Y-125486443D01*
X75354586Y-125557871D01*
X74997443Y-125557871D01*
X74854586Y-125486443D01*
X74783157Y-125415014D01*
X74711729Y-125272157D01*
X74711729Y-124915014D01*
X74783157Y-124772157D01*
X74854586Y-124700728D01*
X73727252Y-115373300D02*
X71227252Y-115373300D01*
X72417729Y-115373300D02*
X72417729Y-113944728D01*
X73727252Y-113944728D02*
X71227252Y-113944728D01*
X73727252Y-111682823D02*
X72417729Y-111682823D01*
X72179633Y-111801871D01*
X72060586Y-112039966D01*
X72060586Y-112516157D01*
X72179633Y-112754252D01*
X73608205Y-111682823D02*
X73727252Y-111920919D01*
X73727252Y-112516157D01*
X73608205Y-112754252D01*
X73370110Y-112873300D01*
X73132014Y-112873300D01*
X72893919Y-112754252D01*
X72774871Y-112516157D01*
X72774871Y-111920919D01*
X72655824Y-111682823D01*
X73727252Y-110135204D02*
X73608205Y-110373299D01*
X73370110Y-110492347D01*
X71227252Y-110492347D01*
X72060586Y-109539966D02*
X72060586Y-108587585D01*
X73727252Y-109182823D02*
X71584395Y-109182823D01*
X71346300Y-109063775D01*
X71227252Y-108825680D01*
X71227252Y-108587585D01*
X72774871Y-107754252D02*
X72774871Y-105849490D01*
X73727252Y-103587585D02*
X72417729Y-103587585D01*
X72179633Y-103706633D01*
X72060586Y-103944728D01*
X72060586Y-104420919D01*
X72179633Y-104659014D01*
X73608205Y-103587585D02*
X73727252Y-103825681D01*
X73727252Y-104420919D01*
X73608205Y-104659014D01*
X73370110Y-104778062D01*
X73132014Y-104778062D01*
X72893919Y-104659014D01*
X72774871Y-104420919D01*
X72774871Y-103825681D01*
X72655824Y-103587585D01*
X73727252Y-101325680D02*
X71227252Y-101325680D01*
X73608205Y-101325680D02*
X73727252Y-101563776D01*
X73727252Y-102039966D01*
X73608205Y-102278061D01*
X73489157Y-102397109D01*
X73251062Y-102516157D01*
X72536776Y-102516157D01*
X72298681Y-102397109D01*
X72179633Y-102278061D01*
X72060586Y-102039966D01*
X72060586Y-101563776D01*
X72179633Y-101325680D01*
X73727252Y-99063775D02*
X71227252Y-99063775D01*
X73608205Y-99063775D02*
X73727252Y-99301871D01*
X73727252Y-99778061D01*
X73608205Y-100016156D01*
X73489157Y-100135204D01*
X73251062Y-100254252D01*
X72536776Y-100254252D01*
X72298681Y-100135204D01*
X72179633Y-100016156D01*
X72060586Y-99778061D01*
X72060586Y-99301871D01*
X72179633Y-99063775D01*
X73608205Y-96920918D02*
X73727252Y-97159013D01*
X73727252Y-97635204D01*
X73608205Y-97873299D01*
X73370110Y-97992347D01*
X72417729Y-97992347D01*
X72179633Y-97873299D01*
X72060586Y-97635204D01*
X72060586Y-97159013D01*
X72179633Y-96920918D01*
X72417729Y-96801870D01*
X72655824Y-96801870D01*
X72893919Y-97992347D01*
X73727252Y-95730442D02*
X72060586Y-95730442D01*
X72536776Y-95730442D02*
X72298681Y-95611394D01*
X72179633Y-95492347D01*
X72060586Y-95254251D01*
X72060586Y-95016156D01*
D13*
X80470300Y-87339300D02*
X57864300Y-87339300D01*
X57864300Y-126201300D02*
X80470300Y-126201300D01*
D12*
X50154762Y-124542855D02*
X48154762Y-124542855D01*
X49583333Y-123942855D01*
X48154762Y-123342855D01*
X50154762Y-123342855D01*
X50059524Y-121799997D02*
X50154762Y-121971426D01*
X50154762Y-122314283D01*
X50059524Y-122485712D01*
X49869048Y-122571426D01*
X49107143Y-122571426D01*
X48916667Y-122485712D01*
X48821429Y-122314283D01*
X48821429Y-121971426D01*
X48916667Y-121799997D01*
X49107143Y-121714283D01*
X49297619Y-121714283D01*
X49488095Y-122571426D01*
X50154762Y-120942855D02*
X48821429Y-120942855D01*
X49011905Y-120942855D02*
X48916667Y-120857140D01*
X48821429Y-120685712D01*
X48821429Y-120428569D01*
X48916667Y-120257140D01*
X49107143Y-120171426D01*
X50154762Y-120171426D01*
X49107143Y-120171426D02*
X48916667Y-120085712D01*
X48821429Y-119914283D01*
X48821429Y-119657140D01*
X48916667Y-119485712D01*
X49107143Y-119399997D01*
X50154762Y-119399997D01*
X50154762Y-118285712D02*
X50059524Y-118457140D01*
X49964286Y-118542855D01*
X49773810Y-118628569D01*
X49202381Y-118628569D01*
X49011905Y-118542855D01*
X48916667Y-118457140D01*
X48821429Y-118285712D01*
X48821429Y-118028569D01*
X48916667Y-117857140D01*
X49011905Y-117771426D01*
X49202381Y-117685712D01*
X49773810Y-117685712D01*
X49964286Y-117771426D01*
X50059524Y-117857140D01*
X50154762Y-118028569D01*
X50154762Y-118285712D01*
X50154762Y-116914284D02*
X48821429Y-116914284D01*
X49202381Y-116914284D02*
X49011905Y-116828569D01*
X48916667Y-116742855D01*
X48821429Y-116571426D01*
X48821429Y-116399998D01*
X48821429Y-115971426D02*
X50154762Y-115542855D01*
X48821429Y-115114283D02*
X50154762Y-115542855D01*
X50630952Y-115714283D01*
X50726190Y-115799998D01*
X50821429Y-115971426D01*
X50154762Y-112799997D02*
X50059524Y-112971425D01*
X49869048Y-113057140D01*
X48154762Y-113057140D01*
X50154762Y-111342854D02*
X49107143Y-111342854D01*
X48916667Y-111428568D01*
X48821429Y-111599997D01*
X48821429Y-111942854D01*
X48916667Y-112114283D01*
X50059524Y-111342854D02*
X50154762Y-111514283D01*
X50154762Y-111942854D01*
X50059524Y-112114283D01*
X49869048Y-112199997D01*
X49678571Y-112199997D01*
X49488095Y-112114283D01*
X49392857Y-111942854D01*
X49392857Y-111514283D01*
X49297619Y-111342854D01*
X48821429Y-110742854D02*
X48821429Y-110057140D01*
X48154762Y-110485712D02*
X49869048Y-110485712D01*
X50059524Y-110399997D01*
X50154762Y-110228569D01*
X50154762Y-110057140D01*
X50059524Y-108685712D02*
X50154762Y-108857141D01*
X50154762Y-109199998D01*
X50059524Y-109371426D01*
X49964286Y-109457141D01*
X49773810Y-109542855D01*
X49202381Y-109542855D01*
X49011905Y-109457141D01*
X48916667Y-109371426D01*
X48821429Y-109199998D01*
X48821429Y-108857141D01*
X48916667Y-108685712D01*
X50154762Y-107914284D02*
X48154762Y-107914284D01*
X50154762Y-107142855D02*
X49107143Y-107142855D01*
X48916667Y-107228569D01*
X48821429Y-107399998D01*
X48821429Y-107657141D01*
X48916667Y-107828569D01*
X49011905Y-107914284D01*
X50916667Y-104399998D02*
X50821429Y-104485712D01*
X50535714Y-104657141D01*
X50345238Y-104742855D01*
X50059524Y-104828569D01*
X49583333Y-104914284D01*
X49202381Y-104914284D01*
X48726190Y-104828569D01*
X48440476Y-104742855D01*
X48250000Y-104657141D01*
X47964286Y-104485712D01*
X47869048Y-104399998D01*
X48821429Y-103971426D02*
X48821429Y-103285712D01*
X50154762Y-103714284D02*
X48440476Y-103714284D01*
X48250000Y-103628569D01*
X48154762Y-103457141D01*
X48154762Y-103285712D01*
X50154762Y-102428570D02*
X50059524Y-102599998D01*
X49869048Y-102685713D01*
X48154762Y-102685713D01*
X50154762Y-101742856D02*
X48821429Y-101742856D01*
X48154762Y-101742856D02*
X48250000Y-101828570D01*
X48345238Y-101742856D01*
X48250000Y-101657141D01*
X48154762Y-101742856D01*
X48345238Y-101742856D01*
X48821429Y-100885713D02*
X50821429Y-100885713D01*
X48916667Y-100885713D02*
X48821429Y-100714284D01*
X48821429Y-100371427D01*
X48916667Y-100199998D01*
X49011905Y-100114284D01*
X49202381Y-100028570D01*
X49773810Y-100028570D01*
X49964286Y-100114284D01*
X50059524Y-100199998D01*
X50154762Y-100371427D01*
X50154762Y-100714284D01*
X50059524Y-100885713D01*
X48821429Y-99514284D02*
X48821429Y-98828570D01*
X50154762Y-99257142D02*
X48440476Y-99257142D01*
X48250000Y-99171427D01*
X48154762Y-98999999D01*
X48154762Y-98828570D01*
X50154762Y-97971428D02*
X50059524Y-98142856D01*
X49869048Y-98228571D01*
X48154762Y-98228571D01*
X50154762Y-96514285D02*
X49107143Y-96514285D01*
X48916667Y-96599999D01*
X48821429Y-96771428D01*
X48821429Y-97114285D01*
X48916667Y-97285714D01*
X50059524Y-96514285D02*
X50154762Y-96685714D01*
X50154762Y-97114285D01*
X50059524Y-97285714D01*
X49869048Y-97371428D01*
X49678571Y-97371428D01*
X49488095Y-97285714D01*
X49392857Y-97114285D01*
X49392857Y-96685714D01*
X49297619Y-96514285D01*
X48821429Y-95657143D02*
X50821429Y-95657143D01*
X48916667Y-95657143D02*
X48821429Y-95485714D01*
X48821429Y-95142857D01*
X48916667Y-94971428D01*
X49011905Y-94885714D01*
X49202381Y-94800000D01*
X49773810Y-94800000D01*
X49964286Y-94885714D01*
X50059524Y-94971428D01*
X50154762Y-95142857D01*
X50154762Y-95485714D01*
X50059524Y-95657143D01*
X48821429Y-94285714D02*
X48821429Y-93600000D01*
X50154762Y-94028572D02*
X48440476Y-94028572D01*
X48250000Y-93942857D01*
X48154762Y-93771429D01*
X48154762Y-93600000D01*
X50154762Y-92742858D02*
X50059524Y-92914286D01*
X49869048Y-93000001D01*
X48154762Y-93000001D01*
X50154762Y-91800001D02*
X50059524Y-91971429D01*
X49964286Y-92057144D01*
X49773810Y-92142858D01*
X49202381Y-92142858D01*
X49011905Y-92057144D01*
X48916667Y-91971429D01*
X48821429Y-91800001D01*
X48821429Y-91542858D01*
X48916667Y-91371429D01*
X49011905Y-91285715D01*
X49202381Y-91200001D01*
X49773810Y-91200001D01*
X49964286Y-91285715D01*
X50059524Y-91371429D01*
X50154762Y-91542858D01*
X50154762Y-91800001D01*
X48821429Y-90428573D02*
X50821429Y-90428573D01*
X48916667Y-90428573D02*
X48821429Y-90257144D01*
X48821429Y-89914287D01*
X48916667Y-89742858D01*
X49011905Y-89657144D01*
X49202381Y-89571430D01*
X49773810Y-89571430D01*
X49964286Y-89657144D01*
X50059524Y-89742858D01*
X50154762Y-89914287D01*
X50154762Y-90257144D01*
X50059524Y-90428573D01*
X50916667Y-88971430D02*
X50821429Y-88885716D01*
X50535714Y-88714287D01*
X50345238Y-88628573D01*
X50059524Y-88542859D01*
X49583333Y-88457144D01*
X49202381Y-88457144D01*
X48726190Y-88542859D01*
X48440476Y-88628573D01*
X48250000Y-88714287D01*
X47964286Y-88885716D01*
X47869048Y-88971430D01*
D13*
X56594300Y-126201300D02*
X42624300Y-126201300D01*
X42624300Y-87339300D02*
X56594300Y-87339300D01*
X47140681Y-92696824D02*
X46474014Y-92696824D01*
X46569252Y-92696824D02*
X46521633Y-92649205D01*
X46474014Y-92553967D01*
X46474014Y-92411109D01*
X46521633Y-92315871D01*
X46616871Y-92268252D01*
X47140681Y-92268252D01*
X46616871Y-92268252D02*
X46521633Y-92220633D01*
X46474014Y-92125395D01*
X46474014Y-91982538D01*
X46521633Y-91887300D01*
X46616871Y-91839681D01*
X47140681Y-91839681D01*
X47140681Y-90934919D02*
X46616871Y-90934919D01*
X46521633Y-90982538D01*
X46474014Y-91077776D01*
X46474014Y-91268253D01*
X46521633Y-91363491D01*
X47093062Y-90934919D02*
X47140681Y-91030157D01*
X47140681Y-91268253D01*
X47093062Y-91363491D01*
X46997824Y-91411110D01*
X46902586Y-91411110D01*
X46807348Y-91363491D01*
X46759729Y-91268253D01*
X46759729Y-91030157D01*
X46712110Y-90934919D01*
X47093062Y-90506348D02*
X47140681Y-90411110D01*
X47140681Y-90220634D01*
X47093062Y-90125395D01*
X46997824Y-90077776D01*
X46950205Y-90077776D01*
X46854967Y-90125395D01*
X46807348Y-90220634D01*
X46807348Y-90363491D01*
X46759729Y-90458729D01*
X46664490Y-90506348D01*
X46616871Y-90506348D01*
X46521633Y-90458729D01*
X46474014Y-90363491D01*
X46474014Y-90220634D01*
X46521633Y-90125395D01*
X46474014Y-89792062D02*
X46474014Y-89411110D01*
X46140681Y-89649205D02*
X46997824Y-89649205D01*
X47093062Y-89601586D01*
X47140681Y-89506348D01*
X47140681Y-89411110D01*
X47093062Y-88696823D02*
X47140681Y-88792061D01*
X47140681Y-88982538D01*
X47093062Y-89077776D01*
X46997824Y-89125395D01*
X46616871Y-89125395D01*
X46521633Y-89077776D01*
X46474014Y-88982538D01*
X46474014Y-88792061D01*
X46521633Y-88696823D01*
X46616871Y-88649204D01*
X46712110Y-88649204D01*
X46807348Y-89125395D01*
X47140681Y-88220633D02*
X46474014Y-88220633D01*
X46664490Y-88220633D02*
X46569252Y-88173014D01*
X46521633Y-88125395D01*
X46474014Y-88030157D01*
X46474014Y-87934918D01*
X91140681Y-92696824D02*
X90474014Y-92696824D01*
X90569252Y-92696824D02*
X90521633Y-92649205D01*
X90474014Y-92553967D01*
X90474014Y-92411109D01*
X90521633Y-92315871D01*
X90616871Y-92268252D01*
X91140681Y-92268252D01*
X90616871Y-92268252D02*
X90521633Y-92220633D01*
X90474014Y-92125395D01*
X90474014Y-91982538D01*
X90521633Y-91887300D01*
X90616871Y-91839681D01*
X91140681Y-91839681D01*
X91140681Y-90934919D02*
X90616871Y-90934919D01*
X90521633Y-90982538D01*
X90474014Y-91077776D01*
X90474014Y-91268253D01*
X90521633Y-91363491D01*
X91093062Y-90934919D02*
X91140681Y-91030157D01*
X91140681Y-91268253D01*
X91093062Y-91363491D01*
X90997824Y-91411110D01*
X90902586Y-91411110D01*
X90807348Y-91363491D01*
X90759729Y-91268253D01*
X90759729Y-91030157D01*
X90712110Y-90934919D01*
X91093062Y-90506348D02*
X91140681Y-90411110D01*
X91140681Y-90220634D01*
X91093062Y-90125395D01*
X90997824Y-90077776D01*
X90950205Y-90077776D01*
X90854967Y-90125395D01*
X90807348Y-90220634D01*
X90807348Y-90363491D01*
X90759729Y-90458729D01*
X90664490Y-90506348D01*
X90616871Y-90506348D01*
X90521633Y-90458729D01*
X90474014Y-90363491D01*
X90474014Y-90220634D01*
X90521633Y-90125395D01*
X90474014Y-89792062D02*
X90474014Y-89411110D01*
X90140681Y-89649205D02*
X90997824Y-89649205D01*
X91093062Y-89601586D01*
X91140681Y-89506348D01*
X91140681Y-89411110D01*
X91093062Y-88696823D02*
X91140681Y-88792061D01*
X91140681Y-88982538D01*
X91093062Y-89077776D01*
X90997824Y-89125395D01*
X90616871Y-89125395D01*
X90521633Y-89077776D01*
X90474014Y-88982538D01*
X90474014Y-88792061D01*
X90521633Y-88696823D01*
X90616871Y-88649204D01*
X90712110Y-88649204D01*
X90807348Y-89125395D01*
X91140681Y-88220633D02*
X90474014Y-88220633D01*
X90664490Y-88220633D02*
X90569252Y-88173014D01*
X90521633Y-88125395D01*
X90474014Y-88030157D01*
X90474014Y-87934918D01*
X86624300Y-87339300D02*
X100594300Y-87339300D01*
X100594300Y-126201300D02*
X86624300Y-126201300D01*
D12*
X94249762Y-124557855D02*
X92249762Y-124557855D01*
X93678333Y-123957855D01*
X92249762Y-123357855D01*
X94249762Y-123357855D01*
X94154524Y-121814997D02*
X94249762Y-121986426D01*
X94249762Y-122329283D01*
X94154524Y-122500712D01*
X93964048Y-122586426D01*
X93202143Y-122586426D01*
X93011667Y-122500712D01*
X92916429Y-122329283D01*
X92916429Y-121986426D01*
X93011667Y-121814997D01*
X93202143Y-121729283D01*
X93392619Y-121729283D01*
X93583095Y-122586426D01*
X94249762Y-120957855D02*
X92916429Y-120957855D01*
X93106905Y-120957855D02*
X93011667Y-120872140D01*
X92916429Y-120700712D01*
X92916429Y-120443569D01*
X93011667Y-120272140D01*
X93202143Y-120186426D01*
X94249762Y-120186426D01*
X93202143Y-120186426D02*
X93011667Y-120100712D01*
X92916429Y-119929283D01*
X92916429Y-119672140D01*
X93011667Y-119500712D01*
X93202143Y-119414997D01*
X94249762Y-119414997D01*
X94249762Y-118300712D02*
X94154524Y-118472140D01*
X94059286Y-118557855D01*
X93868810Y-118643569D01*
X93297381Y-118643569D01*
X93106905Y-118557855D01*
X93011667Y-118472140D01*
X92916429Y-118300712D01*
X92916429Y-118043569D01*
X93011667Y-117872140D01*
X93106905Y-117786426D01*
X93297381Y-117700712D01*
X93868810Y-117700712D01*
X94059286Y-117786426D01*
X94154524Y-117872140D01*
X94249762Y-118043569D01*
X94249762Y-118300712D01*
X94249762Y-116929284D02*
X92916429Y-116929284D01*
X93297381Y-116929284D02*
X93106905Y-116843569D01*
X93011667Y-116757855D01*
X92916429Y-116586426D01*
X92916429Y-116414998D01*
X92916429Y-115986426D02*
X94249762Y-115557855D01*
X92916429Y-115129283D02*
X94249762Y-115557855D01*
X94725952Y-115729283D01*
X94821190Y-115814998D01*
X94916429Y-115986426D01*
X94249762Y-112814997D02*
X94154524Y-112986425D01*
X93964048Y-113072140D01*
X92249762Y-113072140D01*
X94249762Y-111357854D02*
X93202143Y-111357854D01*
X93011667Y-111443568D01*
X92916429Y-111614997D01*
X92916429Y-111957854D01*
X93011667Y-112129283D01*
X94154524Y-111357854D02*
X94249762Y-111529283D01*
X94249762Y-111957854D01*
X94154524Y-112129283D01*
X93964048Y-112214997D01*
X93773571Y-112214997D01*
X93583095Y-112129283D01*
X93487857Y-111957854D01*
X93487857Y-111529283D01*
X93392619Y-111357854D01*
X92916429Y-110757854D02*
X92916429Y-110072140D01*
X92249762Y-110500712D02*
X93964048Y-110500712D01*
X94154524Y-110414997D01*
X94249762Y-110243569D01*
X94249762Y-110072140D01*
X94154524Y-108700712D02*
X94249762Y-108872141D01*
X94249762Y-109214998D01*
X94154524Y-109386426D01*
X94059286Y-109472141D01*
X93868810Y-109557855D01*
X93297381Y-109557855D01*
X93106905Y-109472141D01*
X93011667Y-109386426D01*
X92916429Y-109214998D01*
X92916429Y-108872141D01*
X93011667Y-108700712D01*
X94249762Y-107929284D02*
X92249762Y-107929284D01*
X94249762Y-107157855D02*
X93202143Y-107157855D01*
X93011667Y-107243569D01*
X92916429Y-107414998D01*
X92916429Y-107672141D01*
X93011667Y-107843569D01*
X93106905Y-107929284D01*
X95011667Y-104414998D02*
X94916429Y-104500712D01*
X94630714Y-104672141D01*
X94440238Y-104757855D01*
X94154524Y-104843569D01*
X93678333Y-104929284D01*
X93297381Y-104929284D01*
X92821190Y-104843569D01*
X92535476Y-104757855D01*
X92345000Y-104672141D01*
X92059286Y-104500712D01*
X91964048Y-104414998D01*
X92916429Y-103986426D02*
X92916429Y-103300712D01*
X94249762Y-103729284D02*
X92535476Y-103729284D01*
X92345000Y-103643569D01*
X92249762Y-103472141D01*
X92249762Y-103300712D01*
X94249762Y-102443570D02*
X94154524Y-102614998D01*
X93964048Y-102700713D01*
X92249762Y-102700713D01*
X94249762Y-101757856D02*
X92916429Y-101757856D01*
X92249762Y-101757856D02*
X92345000Y-101843570D01*
X92440238Y-101757856D01*
X92345000Y-101672141D01*
X92249762Y-101757856D01*
X92440238Y-101757856D01*
X92916429Y-100900713D02*
X94916429Y-100900713D01*
X93011667Y-100900713D02*
X92916429Y-100729284D01*
X92916429Y-100386427D01*
X93011667Y-100214998D01*
X93106905Y-100129284D01*
X93297381Y-100043570D01*
X93868810Y-100043570D01*
X94059286Y-100129284D01*
X94154524Y-100214998D01*
X94249762Y-100386427D01*
X94249762Y-100729284D01*
X94154524Y-100900713D01*
X92916429Y-99529284D02*
X92916429Y-98843570D01*
X94249762Y-99272142D02*
X92535476Y-99272142D01*
X92345000Y-99186427D01*
X92249762Y-99014999D01*
X92249762Y-98843570D01*
X94249762Y-97986428D02*
X94154524Y-98157856D01*
X93964048Y-98243571D01*
X92249762Y-98243571D01*
X94249762Y-96529285D02*
X93202143Y-96529285D01*
X93011667Y-96614999D01*
X92916429Y-96786428D01*
X92916429Y-97129285D01*
X93011667Y-97300714D01*
X94154524Y-96529285D02*
X94249762Y-96700714D01*
X94249762Y-97129285D01*
X94154524Y-97300714D01*
X93964048Y-97386428D01*
X93773571Y-97386428D01*
X93583095Y-97300714D01*
X93487857Y-97129285D01*
X93487857Y-96700714D01*
X93392619Y-96529285D01*
X92916429Y-95672143D02*
X94916429Y-95672143D01*
X93011667Y-95672143D02*
X92916429Y-95500714D01*
X92916429Y-95157857D01*
X93011667Y-94986428D01*
X93106905Y-94900714D01*
X93297381Y-94815000D01*
X93868810Y-94815000D01*
X94059286Y-94900714D01*
X94154524Y-94986428D01*
X94249762Y-95157857D01*
X94249762Y-95500714D01*
X94154524Y-95672143D01*
X92916429Y-94300714D02*
X92916429Y-93615000D01*
X94249762Y-94043572D02*
X92535476Y-94043572D01*
X92345000Y-93957857D01*
X92249762Y-93786429D01*
X92249762Y-93615000D01*
X94249762Y-92757858D02*
X94154524Y-92929286D01*
X93964048Y-93015001D01*
X92249762Y-93015001D01*
X94249762Y-91815001D02*
X94154524Y-91986429D01*
X94059286Y-92072144D01*
X93868810Y-92157858D01*
X93297381Y-92157858D01*
X93106905Y-92072144D01*
X93011667Y-91986429D01*
X92916429Y-91815001D01*
X92916429Y-91557858D01*
X93011667Y-91386429D01*
X93106905Y-91300715D01*
X93297381Y-91215001D01*
X93868810Y-91215001D01*
X94059286Y-91300715D01*
X94154524Y-91386429D01*
X94249762Y-91557858D01*
X94249762Y-91815001D01*
X92916429Y-90443573D02*
X94916429Y-90443573D01*
X93011667Y-90443573D02*
X92916429Y-90272144D01*
X92916429Y-89929287D01*
X93011667Y-89757858D01*
X93106905Y-89672144D01*
X93297381Y-89586430D01*
X93868810Y-89586430D01*
X94059286Y-89672144D01*
X94154524Y-89757858D01*
X94249762Y-89929287D01*
X94249762Y-90272144D01*
X94154524Y-90443573D01*
X95011667Y-88986430D02*
X94916429Y-88900716D01*
X94630714Y-88729287D01*
X94440238Y-88643573D01*
X94154524Y-88557859D01*
X93678333Y-88472144D01*
X93297381Y-88472144D01*
X92821190Y-88557859D01*
X92535476Y-88643573D01*
X92345000Y-88729287D01*
X92059286Y-88900716D01*
X91964048Y-88986430D01*
D13*
X101864300Y-126201300D02*
X124470300Y-126201300D01*
X124470300Y-87339300D02*
X101864300Y-87339300D01*
D12*
X117727252Y-115373300D02*
X115227252Y-115373300D01*
X116417729Y-115373300D02*
X116417729Y-113944728D01*
X117727252Y-113944728D02*
X115227252Y-113944728D01*
X117727252Y-111682823D02*
X116417729Y-111682823D01*
X116179633Y-111801871D01*
X116060586Y-112039966D01*
X116060586Y-112516157D01*
X116179633Y-112754252D01*
X117608205Y-111682823D02*
X117727252Y-111920919D01*
X117727252Y-112516157D01*
X117608205Y-112754252D01*
X117370110Y-112873300D01*
X117132014Y-112873300D01*
X116893919Y-112754252D01*
X116774871Y-112516157D01*
X116774871Y-111920919D01*
X116655824Y-111682823D01*
X117727252Y-110135204D02*
X117608205Y-110373299D01*
X117370110Y-110492347D01*
X115227252Y-110492347D01*
X116060586Y-109539966D02*
X116060586Y-108587585D01*
X117727252Y-109182823D02*
X115584395Y-109182823D01*
X115346300Y-109063775D01*
X115227252Y-108825680D01*
X115227252Y-108587585D01*
X116774871Y-107754252D02*
X116774871Y-105849490D01*
X117727252Y-103587585D02*
X116417729Y-103587585D01*
X116179633Y-103706633D01*
X116060586Y-103944728D01*
X116060586Y-104420919D01*
X116179633Y-104659014D01*
X117608205Y-103587585D02*
X117727252Y-103825681D01*
X117727252Y-104420919D01*
X117608205Y-104659014D01*
X117370110Y-104778062D01*
X117132014Y-104778062D01*
X116893919Y-104659014D01*
X116774871Y-104420919D01*
X116774871Y-103825681D01*
X116655824Y-103587585D01*
X117727252Y-101325680D02*
X115227252Y-101325680D01*
X117608205Y-101325680D02*
X117727252Y-101563776D01*
X117727252Y-102039966D01*
X117608205Y-102278061D01*
X117489157Y-102397109D01*
X117251062Y-102516157D01*
X116536776Y-102516157D01*
X116298681Y-102397109D01*
X116179633Y-102278061D01*
X116060586Y-102039966D01*
X116060586Y-101563776D01*
X116179633Y-101325680D01*
X117727252Y-99063775D02*
X115227252Y-99063775D01*
X117608205Y-99063775D02*
X117727252Y-99301871D01*
X117727252Y-99778061D01*
X117608205Y-100016156D01*
X117489157Y-100135204D01*
X117251062Y-100254252D01*
X116536776Y-100254252D01*
X116298681Y-100135204D01*
X116179633Y-100016156D01*
X116060586Y-99778061D01*
X116060586Y-99301871D01*
X116179633Y-99063775D01*
X117608205Y-96920918D02*
X117727252Y-97159013D01*
X117727252Y-97635204D01*
X117608205Y-97873299D01*
X117370110Y-97992347D01*
X116417729Y-97992347D01*
X116179633Y-97873299D01*
X116060586Y-97635204D01*
X116060586Y-97159013D01*
X116179633Y-96920918D01*
X116417729Y-96801870D01*
X116655824Y-96801870D01*
X116893919Y-97992347D01*
X117727252Y-95730442D02*
X116060586Y-95730442D01*
X116536776Y-95730442D02*
X116298681Y-95611394D01*
X116179633Y-95492347D01*
X116060586Y-95254251D01*
X116060586Y-95016156D01*
X119283157Y-117772158D02*
X119283157Y-118915015D01*
X120211729Y-120343587D02*
X120211729Y-119629301D01*
X119497443Y-119557872D01*
X119568871Y-119629301D01*
X119640300Y-119772158D01*
X119640300Y-120129301D01*
X119568871Y-120272158D01*
X119497443Y-120343587D01*
X119354586Y-120415015D01*
X118997443Y-120415015D01*
X118854586Y-120343587D01*
X118783157Y-120272158D01*
X118711729Y-120129301D01*
X118711729Y-119772158D01*
X118783157Y-119629301D01*
X118854586Y-119557872D01*
X120211729Y-122486443D02*
X120211729Y-122629300D01*
X120140300Y-122772157D01*
X120068871Y-122843586D01*
X119926014Y-122915015D01*
X119640300Y-122986443D01*
X119283157Y-122986443D01*
X118997443Y-122915015D01*
X118854586Y-122843586D01*
X118783157Y-122772157D01*
X118711729Y-122629300D01*
X118711729Y-122486443D01*
X118783157Y-122343586D01*
X118854586Y-122272157D01*
X118997443Y-122200729D01*
X119283157Y-122129300D01*
X119640300Y-122129300D01*
X119926014Y-122200729D01*
X120068871Y-122272157D01*
X120140300Y-122343586D01*
X120211729Y-122486443D01*
X120211729Y-125486443D02*
X120211729Y-124772157D01*
X119497443Y-124700728D01*
X119568871Y-124772157D01*
X119640300Y-124915014D01*
X119640300Y-125272157D01*
X119568871Y-125415014D01*
X119497443Y-125486443D01*
X119354586Y-125557871D01*
X118997443Y-125557871D01*
X118854586Y-125486443D01*
X118783157Y-125415014D01*
X118711729Y-125272157D01*
X118711729Y-124915014D01*
X118783157Y-124772157D01*
X118854586Y-124700728D01*
X90835157Y-117772158D02*
X90835157Y-118915015D01*
X91763729Y-120343587D02*
X91763729Y-119629301D01*
X91049443Y-119557872D01*
X91120871Y-119629301D01*
X91192300Y-119772158D01*
X91192300Y-120129301D01*
X91120871Y-120272158D01*
X91049443Y-120343587D01*
X90906586Y-120415015D01*
X90549443Y-120415015D01*
X90406586Y-120343587D01*
X90335157Y-120272158D01*
X90263729Y-120129301D01*
X90263729Y-119772158D01*
X90335157Y-119629301D01*
X90406586Y-119557872D01*
X91763729Y-122486443D02*
X91763729Y-122629300D01*
X91692300Y-122772157D01*
X91620871Y-122843586D01*
X91478014Y-122915015D01*
X91192300Y-122986443D01*
X90835157Y-122986443D01*
X90549443Y-122915015D01*
X90406586Y-122843586D01*
X90335157Y-122772157D01*
X90263729Y-122629300D01*
X90263729Y-122486443D01*
X90335157Y-122343586D01*
X90406586Y-122272157D01*
X90549443Y-122200729D01*
X90835157Y-122129300D01*
X91192300Y-122129300D01*
X91478014Y-122200729D01*
X91620871Y-122272157D01*
X91692300Y-122343586D01*
X91763729Y-122486443D01*
X91763729Y-125486443D02*
X91763729Y-124772157D01*
X91049443Y-124700728D01*
X91120871Y-124772157D01*
X91192300Y-124915014D01*
X91192300Y-125272157D01*
X91120871Y-125415014D01*
X91049443Y-125486443D01*
X90906586Y-125557871D01*
X90549443Y-125557871D01*
X90406586Y-125486443D01*
X90335157Y-125415014D01*
X90263729Y-125272157D01*
X90263729Y-124915014D01*
X90335157Y-124772157D01*
X90406586Y-124700728D01*
X126672871Y-117533300D02*
X125172871Y-117533300D01*
X125172871Y-116961872D01*
X125244300Y-116819014D01*
X125315729Y-116747586D01*
X125458586Y-116676157D01*
X125672871Y-116676157D01*
X125815729Y-116747586D01*
X125887157Y-116819014D01*
X125958586Y-116961872D01*
X125958586Y-117533300D01*
X125172871Y-116176157D02*
X126672871Y-115819014D01*
X125601443Y-115533300D01*
X126672871Y-115247586D01*
X125172871Y-114890443D01*
X126672871Y-113461871D02*
X125958586Y-113961871D01*
X126672871Y-114319014D02*
X125172871Y-114319014D01*
X125172871Y-113747586D01*
X125244300Y-113604728D01*
X125315729Y-113533300D01*
X125458586Y-113461871D01*
X125672871Y-113461871D01*
X125815729Y-113533300D01*
X125887157Y-113604728D01*
X125958586Y-113747586D01*
X125958586Y-114319014D01*
X86403571Y-118040000D02*
X84903571Y-118040000D01*
X84903571Y-117468572D01*
X84975000Y-117325714D01*
X85046429Y-117254286D01*
X85189286Y-117182857D01*
X85403571Y-117182857D01*
X85546429Y-117254286D01*
X85617857Y-117325714D01*
X85689286Y-117468572D01*
X85689286Y-118040000D01*
X84903571Y-116682857D02*
X86403571Y-116325714D01*
X85332143Y-116040000D01*
X86403571Y-115754286D01*
X84903571Y-115397143D01*
X86403571Y-113968571D02*
X85689286Y-114468571D01*
X86403571Y-114825714D02*
X84903571Y-114825714D01*
X84903571Y-114254286D01*
X84975000Y-114111428D01*
X85046429Y-114040000D01*
X85189286Y-113968571D01*
X85403571Y-113968571D01*
X85546429Y-114040000D01*
X85617857Y-114111428D01*
X85689286Y-114254286D01*
X85689286Y-114825714D01*
D11*
X87300586Y-85573586D02*
X87357729Y-85402157D01*
X87414871Y-85345014D01*
X87529157Y-85287871D01*
X87700586Y-85287871D01*
X87814871Y-85345014D01*
X87872014Y-85402157D01*
X87929157Y-85516443D01*
X87929157Y-85973586D01*
X86729157Y-85973586D01*
X86729157Y-85573586D01*
X86786300Y-85459300D01*
X86843443Y-85402157D01*
X86957729Y-85345014D01*
X87072014Y-85345014D01*
X87186300Y-85402157D01*
X87243443Y-85459300D01*
X87300586Y-85573586D01*
X87300586Y-85973586D01*
X87814871Y-83173585D02*
X87872014Y-83230728D01*
X87929157Y-83402157D01*
X87929157Y-83516443D01*
X87872014Y-83687871D01*
X87757729Y-83802157D01*
X87643443Y-83859300D01*
X87414871Y-83916443D01*
X87243443Y-83916443D01*
X87014871Y-83859300D01*
X86900586Y-83802157D01*
X86786300Y-83687871D01*
X86729157Y-83516443D01*
X86729157Y-83402157D01*
X86786300Y-83230728D01*
X86843443Y-83173585D01*
X87872014Y-82716443D02*
X87929157Y-82602157D01*
X87929157Y-82373585D01*
X87872014Y-82259300D01*
X87757729Y-82202157D01*
X87700586Y-82202157D01*
X87586300Y-82259300D01*
X87529157Y-82373585D01*
X87529157Y-82545014D01*
X87472014Y-82659300D01*
X87357729Y-82716443D01*
X87300586Y-82716443D01*
X87186300Y-82659300D01*
X87129157Y-82545014D01*
X87129157Y-82373585D01*
X87186300Y-82259300D01*
X87814871Y-80087870D02*
X87872014Y-80145013D01*
X87929157Y-80316442D01*
X87929157Y-80430728D01*
X87872014Y-80602156D01*
X87757729Y-80716442D01*
X87643443Y-80773585D01*
X87414871Y-80830728D01*
X87243443Y-80830728D01*
X87014871Y-80773585D01*
X86900586Y-80716442D01*
X86786300Y-80602156D01*
X86729157Y-80430728D01*
X86729157Y-80316442D01*
X86786300Y-80145013D01*
X86843443Y-80087870D01*
X87929157Y-79573585D02*
X87129157Y-79573585D01*
X87243443Y-79573585D02*
X87186300Y-79516442D01*
X87129157Y-79402156D01*
X87129157Y-79230728D01*
X87186300Y-79116442D01*
X87300586Y-79059299D01*
X87929157Y-79059299D01*
X87300586Y-79059299D02*
X87186300Y-79002156D01*
X87129157Y-78887870D01*
X87129157Y-78716442D01*
X87186300Y-78602156D01*
X87300586Y-78545013D01*
X87929157Y-78545013D01*
X95552062Y-81608158D02*
X95599681Y-81512920D01*
X95599681Y-81322444D01*
X95552062Y-81227205D01*
X95456824Y-81179586D01*
X95409205Y-81179586D01*
X95313967Y-81227205D01*
X95266348Y-81322444D01*
X95266348Y-81465301D01*
X95218729Y-81560539D01*
X95123490Y-81608158D01*
X95075871Y-81608158D01*
X94980633Y-81560539D01*
X94933014Y-81465301D01*
X94933014Y-81322444D01*
X94980633Y-81227205D01*
X94933014Y-80893872D02*
X94933014Y-80512920D01*
X94599681Y-80751015D02*
X95456824Y-80751015D01*
X95552062Y-80703396D01*
X95599681Y-80608158D01*
X95599681Y-80512920D01*
X95599681Y-80036729D02*
X95552062Y-80131967D01*
X95504443Y-80179586D01*
X95409205Y-80227205D01*
X95123490Y-80227205D01*
X95028252Y-80179586D01*
X94980633Y-80131967D01*
X94933014Y-80036729D01*
X94933014Y-79893871D01*
X94980633Y-79798633D01*
X95028252Y-79751014D01*
X95123490Y-79703395D01*
X95409205Y-79703395D01*
X95504443Y-79751014D01*
X95552062Y-79798633D01*
X95599681Y-79893871D01*
X95599681Y-80036729D01*
X95599681Y-79274824D02*
X94933014Y-79274824D01*
X95123490Y-79274824D02*
X95028252Y-79227205D01*
X94980633Y-79179586D01*
X94933014Y-79084348D01*
X94933014Y-78989109D01*
X95552062Y-78274823D02*
X95599681Y-78370061D01*
X95599681Y-78560538D01*
X95552062Y-78655776D01*
X95456824Y-78703395D01*
X95075871Y-78703395D01*
X94980633Y-78655776D01*
X94933014Y-78560538D01*
X94933014Y-78370061D01*
X94980633Y-78274823D01*
X95075871Y-78227204D01*
X95171110Y-78227204D01*
X95266348Y-78703395D01*
X95599681Y-77370061D02*
X94599681Y-77370061D01*
X95552062Y-77370061D02*
X95599681Y-77465299D01*
X95599681Y-77655776D01*
X95552062Y-77751014D01*
X95504443Y-77798633D01*
X95409205Y-77846252D01*
X95123490Y-77846252D01*
X95028252Y-77798633D01*
X94980633Y-77751014D01*
X94933014Y-77655776D01*
X94933014Y-77465299D01*
X94980633Y-77370061D01*
X96683014Y-80417681D02*
X97349681Y-80179586D01*
X96683014Y-79941490D01*
X97349681Y-79131966D02*
X96825871Y-79131966D01*
X96730633Y-79179585D01*
X96683014Y-79274823D01*
X96683014Y-79465300D01*
X96730633Y-79560538D01*
X97302062Y-79131966D02*
X97349681Y-79227204D01*
X97349681Y-79465300D01*
X97302062Y-79560538D01*
X97206824Y-79608157D01*
X97111586Y-79608157D01*
X97016348Y-79560538D01*
X96968729Y-79465300D01*
X96968729Y-79227204D01*
X96921110Y-79131966D01*
X97349681Y-78512919D02*
X97302062Y-78608157D01*
X97206824Y-78655776D01*
X96349681Y-78655776D01*
X90011681Y-83489395D02*
X89487871Y-83489395D01*
X89392633Y-83537014D01*
X89345014Y-83632252D01*
X89345014Y-83822729D01*
X89392633Y-83917967D01*
X89964062Y-83489395D02*
X90011681Y-83584633D01*
X90011681Y-83822729D01*
X89964062Y-83917967D01*
X89868824Y-83965586D01*
X89773586Y-83965586D01*
X89678348Y-83917967D01*
X89630729Y-83822729D01*
X89630729Y-83584633D01*
X89583110Y-83489395D01*
X89964062Y-83060824D02*
X90011681Y-82965586D01*
X90011681Y-82775110D01*
X89964062Y-82679871D01*
X89868824Y-82632252D01*
X89821205Y-82632252D01*
X89725967Y-82679871D01*
X89678348Y-82775110D01*
X89678348Y-82917967D01*
X89630729Y-83013205D01*
X89535490Y-83060824D01*
X89487871Y-83060824D01*
X89392633Y-83013205D01*
X89345014Y-82917967D01*
X89345014Y-82775110D01*
X89392633Y-82679871D01*
X89964062Y-82251300D02*
X90011681Y-82156062D01*
X90011681Y-81965586D01*
X89964062Y-81870347D01*
X89868824Y-81822728D01*
X89821205Y-81822728D01*
X89725967Y-81870347D01*
X89678348Y-81965586D01*
X89678348Y-82108443D01*
X89630729Y-82203681D01*
X89535490Y-82251300D01*
X89487871Y-82251300D01*
X89392633Y-82203681D01*
X89345014Y-82108443D01*
X89345014Y-81965586D01*
X89392633Y-81870347D01*
X90011681Y-81394157D02*
X89345014Y-81394157D01*
X89011681Y-81394157D02*
X89059300Y-81441776D01*
X89106919Y-81394157D01*
X89059300Y-81346538D01*
X89011681Y-81394157D01*
X89106919Y-81394157D01*
X89345014Y-80489395D02*
X90154538Y-80489395D01*
X90249776Y-80537014D01*
X90297395Y-80584633D01*
X90345014Y-80679872D01*
X90345014Y-80822729D01*
X90297395Y-80917967D01*
X89964062Y-80489395D02*
X90011681Y-80584633D01*
X90011681Y-80775110D01*
X89964062Y-80870348D01*
X89916443Y-80917967D01*
X89821205Y-80965586D01*
X89535490Y-80965586D01*
X89440252Y-80917967D01*
X89392633Y-80870348D01*
X89345014Y-80775110D01*
X89345014Y-80584633D01*
X89392633Y-80489395D01*
X89345014Y-80013205D02*
X90011681Y-80013205D01*
X89440252Y-80013205D02*
X89392633Y-79965586D01*
X89345014Y-79870348D01*
X89345014Y-79727490D01*
X89392633Y-79632252D01*
X89487871Y-79584633D01*
X90011681Y-79584633D01*
X91095014Y-82703681D02*
X91761681Y-82465586D01*
X91095014Y-82227490D01*
X91761681Y-81417966D02*
X91237871Y-81417966D01*
X91142633Y-81465585D01*
X91095014Y-81560823D01*
X91095014Y-81751300D01*
X91142633Y-81846538D01*
X91714062Y-81417966D02*
X91761681Y-81513204D01*
X91761681Y-81751300D01*
X91714062Y-81846538D01*
X91618824Y-81894157D01*
X91523586Y-81894157D01*
X91428348Y-81846538D01*
X91380729Y-81751300D01*
X91380729Y-81513204D01*
X91333110Y-81417966D01*
X91761681Y-80798919D02*
X91714062Y-80894157D01*
X91618824Y-80941776D01*
X90761681Y-80941776D01*
X123882871Y-86049871D02*
X123940014Y-86107014D01*
X123997157Y-86278443D01*
X123997157Y-86392729D01*
X123940014Y-86564157D01*
X123825729Y-86678443D01*
X123711443Y-86735586D01*
X123482871Y-86792729D01*
X123311443Y-86792729D01*
X123082871Y-86735586D01*
X122968586Y-86678443D01*
X122854300Y-86564157D01*
X122797157Y-86392729D01*
X122797157Y-86278443D01*
X122854300Y-86107014D01*
X122911443Y-86049871D01*
X123882871Y-83935585D02*
X123940014Y-83992728D01*
X123997157Y-84164157D01*
X123997157Y-84278443D01*
X123940014Y-84449871D01*
X123825729Y-84564157D01*
X123711443Y-84621300D01*
X123482871Y-84678443D01*
X123311443Y-84678443D01*
X123082871Y-84621300D01*
X122968586Y-84564157D01*
X122854300Y-84449871D01*
X122797157Y-84278443D01*
X122797157Y-84164157D01*
X122854300Y-83992728D01*
X122911443Y-83935585D01*
X123940014Y-83478443D02*
X123997157Y-83364157D01*
X123997157Y-83135585D01*
X123940014Y-83021300D01*
X123825729Y-82964157D01*
X123768586Y-82964157D01*
X123654300Y-83021300D01*
X123597157Y-83135585D01*
X123597157Y-83307014D01*
X123540014Y-83421300D01*
X123425729Y-83478443D01*
X123368586Y-83478443D01*
X123254300Y-83421300D01*
X123197157Y-83307014D01*
X123197157Y-83135585D01*
X123254300Y-83021300D01*
X123882871Y-80849870D02*
X123940014Y-80907013D01*
X123997157Y-81078442D01*
X123997157Y-81192728D01*
X123940014Y-81364156D01*
X123825729Y-81478442D01*
X123711443Y-81535585D01*
X123482871Y-81592728D01*
X123311443Y-81592728D01*
X123082871Y-81535585D01*
X122968586Y-81478442D01*
X122854300Y-81364156D01*
X122797157Y-81192728D01*
X122797157Y-81078442D01*
X122854300Y-80907013D01*
X122911443Y-80849870D01*
X123997157Y-80335585D02*
X123197157Y-80335585D01*
X123311443Y-80335585D02*
X123254300Y-80278442D01*
X123197157Y-80164156D01*
X123197157Y-79992728D01*
X123254300Y-79878442D01*
X123368586Y-79821299D01*
X123997157Y-79821299D01*
X123368586Y-79821299D02*
X123254300Y-79764156D01*
X123197157Y-79649870D01*
X123197157Y-79478442D01*
X123254300Y-79364156D01*
X123368586Y-79307013D01*
X123997157Y-79307013D01*
D12*
X99754015Y-77368871D02*
X100611158Y-77368871D01*
X100182587Y-78868871D02*
X100182587Y-77368871D01*
X101682586Y-78797443D02*
X101539729Y-78868871D01*
X101254015Y-78868871D01*
X101111158Y-78797443D01*
X101039729Y-78654586D01*
X101039729Y-78083157D01*
X101111158Y-77940300D01*
X101254015Y-77868871D01*
X101539729Y-77868871D01*
X101682586Y-77940300D01*
X101754015Y-78083157D01*
X101754015Y-78226014D01*
X101039729Y-78368871D01*
X102396872Y-78868871D02*
X102396872Y-77868871D01*
X102396872Y-78154586D02*
X102468300Y-78011729D01*
X102539729Y-77940300D01*
X102682586Y-77868871D01*
X102825443Y-77868871D01*
X103325443Y-77868871D02*
X103325443Y-78868871D01*
X103325443Y-78011729D02*
X103396871Y-77940300D01*
X103539729Y-77868871D01*
X103754014Y-77868871D01*
X103896871Y-77940300D01*
X103968300Y-78083157D01*
X103968300Y-78868871D01*
X105325443Y-78868871D02*
X105325443Y-78083157D01*
X105254014Y-77940300D01*
X105111157Y-77868871D01*
X104825443Y-77868871D01*
X104682586Y-77940300D01*
X105325443Y-78797443D02*
X105182586Y-78868871D01*
X104825443Y-78868871D01*
X104682586Y-78797443D01*
X104611157Y-78654586D01*
X104611157Y-78511729D01*
X104682586Y-78368871D01*
X104825443Y-78297443D01*
X105182586Y-78297443D01*
X105325443Y-78226014D01*
X106039729Y-78868871D02*
X106039729Y-77868871D01*
X106039729Y-78154586D02*
X106111157Y-78011729D01*
X106182586Y-77940300D01*
X106325443Y-77868871D01*
X106468300Y-77868871D01*
X106825443Y-77868871D02*
X107182586Y-78868871D01*
X107539728Y-77868871D02*
X107182586Y-78868871D01*
X107039728Y-79226014D01*
X106968300Y-79297443D01*
X106825443Y-79368871D01*
X109896871Y-78797443D02*
X109754014Y-78868871D01*
X109468300Y-78868871D01*
X109325442Y-78797443D01*
X109254014Y-78726014D01*
X109182585Y-78583157D01*
X109182585Y-78154586D01*
X109254014Y-78011729D01*
X109325442Y-77940300D01*
X109468300Y-77868871D01*
X109754014Y-77868871D01*
X109896871Y-77940300D01*
X110754014Y-78868871D02*
X110611156Y-78797443D01*
X110539728Y-78726014D01*
X110468299Y-78583157D01*
X110468299Y-78154586D01*
X110539728Y-78011729D01*
X110611156Y-77940300D01*
X110754014Y-77868871D01*
X110968299Y-77868871D01*
X111111156Y-77940300D01*
X111182585Y-78011729D01*
X111254014Y-78154586D01*
X111254014Y-78583157D01*
X111182585Y-78726014D01*
X111111156Y-78797443D01*
X110968299Y-78868871D01*
X110754014Y-78868871D01*
X112539728Y-77868871D02*
X112539728Y-78868871D01*
X111896871Y-77868871D02*
X111896871Y-78654586D01*
X111968299Y-78797443D01*
X112111157Y-78868871D01*
X112325442Y-78868871D01*
X112468299Y-78797443D01*
X112539728Y-78726014D01*
X113254014Y-77868871D02*
X113254014Y-78868871D01*
X113254014Y-78011729D02*
X113325442Y-77940300D01*
X113468300Y-77868871D01*
X113682585Y-77868871D01*
X113825442Y-77940300D01*
X113896871Y-78083157D01*
X113896871Y-78868871D01*
X114396871Y-77868871D02*
X114968300Y-77868871D01*
X114611157Y-77368871D02*
X114611157Y-78654586D01*
X114682585Y-78797443D01*
X114825443Y-78868871D01*
X114968300Y-78868871D01*
X116039728Y-78797443D02*
X115896871Y-78868871D01*
X115611157Y-78868871D01*
X115468300Y-78797443D01*
X115396871Y-78654586D01*
X115396871Y-78083157D01*
X115468300Y-77940300D01*
X115611157Y-77868871D01*
X115896871Y-77868871D01*
X116039728Y-77940300D01*
X116111157Y-78083157D01*
X116111157Y-78226014D01*
X115396871Y-78368871D01*
X116754014Y-78868871D02*
X116754014Y-77868871D01*
X116754014Y-78154586D02*
X116825442Y-78011729D01*
X116896871Y-77940300D01*
X117039728Y-77868871D01*
X117182585Y-77868871D01*
X103039729Y-81990300D02*
X102968301Y-81918871D01*
X102825444Y-81704586D01*
X102754015Y-81561729D01*
X102682586Y-81347443D01*
X102611158Y-80990300D01*
X102611158Y-80704586D01*
X102682586Y-80347443D01*
X102754015Y-80133157D01*
X102825444Y-79990300D01*
X102968301Y-79776014D01*
X103039729Y-79704586D01*
X103825444Y-81418871D02*
X103682586Y-81347443D01*
X103611158Y-81276014D01*
X103539729Y-81133157D01*
X103539729Y-80704586D01*
X103611158Y-80561729D01*
X103682586Y-80490300D01*
X103825444Y-80418871D01*
X104039729Y-80418871D01*
X104182586Y-80490300D01*
X104254015Y-80561729D01*
X104325444Y-80704586D01*
X104325444Y-81133157D01*
X104254015Y-81276014D01*
X104182586Y-81347443D01*
X104039729Y-81418871D01*
X103825444Y-81418871D01*
X104968301Y-80418871D02*
X104968301Y-81418871D01*
X104968301Y-80561729D02*
X105039729Y-80490300D01*
X105182587Y-80418871D01*
X105396872Y-80418871D01*
X105539729Y-80490300D01*
X105611158Y-80633157D01*
X105611158Y-81418871D01*
X106896872Y-81347443D02*
X106754015Y-81418871D01*
X106468301Y-81418871D01*
X106325444Y-81347443D01*
X106254015Y-81204586D01*
X106254015Y-80633157D01*
X106325444Y-80490300D01*
X106468301Y-80418871D01*
X106754015Y-80418871D01*
X106896872Y-80490300D01*
X106968301Y-80633157D01*
X106968301Y-80776014D01*
X106254015Y-80918871D01*
X108682586Y-81347443D02*
X108825443Y-81418871D01*
X109111158Y-81418871D01*
X109254015Y-81347443D01*
X109325443Y-81204586D01*
X109325443Y-81133157D01*
X109254015Y-80990300D01*
X109111158Y-80918871D01*
X108896872Y-80918871D01*
X108754015Y-80847443D01*
X108682586Y-80704586D01*
X108682586Y-80633157D01*
X108754015Y-80490300D01*
X108896872Y-80418871D01*
X109111158Y-80418871D01*
X109254015Y-80490300D01*
X110182587Y-81418871D02*
X110039729Y-81347443D01*
X109968301Y-81204586D01*
X109968301Y-79918871D01*
X110754015Y-81418871D02*
X110754015Y-80418871D01*
X110754015Y-79918871D02*
X110682586Y-79990300D01*
X110754015Y-80061729D01*
X110825443Y-79990300D01*
X110754015Y-79918871D01*
X110754015Y-80061729D01*
X112111158Y-81347443D02*
X111968301Y-81418871D01*
X111682587Y-81418871D01*
X111539729Y-81347443D01*
X111468301Y-81276014D01*
X111396872Y-81133157D01*
X111396872Y-80704586D01*
X111468301Y-80561729D01*
X111539729Y-80490300D01*
X111682587Y-80418871D01*
X111968301Y-80418871D01*
X112111158Y-80490300D01*
X113325443Y-81347443D02*
X113182586Y-81418871D01*
X112896872Y-81418871D01*
X112754015Y-81347443D01*
X112682586Y-81204586D01*
X112682586Y-80633157D01*
X112754015Y-80490300D01*
X112896872Y-80418871D01*
X113182586Y-80418871D01*
X113325443Y-80490300D01*
X113396872Y-80633157D01*
X113396872Y-80776014D01*
X112682586Y-80918871D01*
X113896872Y-81990300D02*
X113968300Y-81918871D01*
X114111157Y-81704586D01*
X114182586Y-81561729D01*
X114254015Y-81347443D01*
X114325443Y-80990300D01*
X114325443Y-80704586D01*
X114254015Y-80347443D01*
X114182586Y-80133157D01*
X114111157Y-79990300D01*
X113968300Y-79776014D01*
X113896872Y-79704586D01*
D13*
X101864300Y-87339300D02*
X101864300Y-126201300D01*
X124470300Y-126201300D02*
X124470300Y-87339300D01*
X96173062Y-91871396D02*
X96220681Y-91776158D01*
X96220681Y-91585682D01*
X96173062Y-91490443D01*
X96077824Y-91442824D01*
X96030205Y-91442824D01*
X95934967Y-91490443D01*
X95887348Y-91585682D01*
X95887348Y-91728539D01*
X95839729Y-91823777D01*
X95744490Y-91871396D01*
X95696871Y-91871396D01*
X95601633Y-91823777D01*
X95554014Y-91728539D01*
X95554014Y-91585682D01*
X95601633Y-91490443D01*
X96220681Y-90871396D02*
X96173062Y-90966634D01*
X96077824Y-91014253D01*
X95220681Y-91014253D01*
X96220681Y-90061871D02*
X95696871Y-90061871D01*
X95601633Y-90109490D01*
X95554014Y-90204728D01*
X95554014Y-90395205D01*
X95601633Y-90490443D01*
X96173062Y-90061871D02*
X96220681Y-90157109D01*
X96220681Y-90395205D01*
X96173062Y-90490443D01*
X96077824Y-90538062D01*
X95982586Y-90538062D01*
X95887348Y-90490443D01*
X95839729Y-90395205D01*
X95839729Y-90157109D01*
X95792110Y-90061871D01*
X95554014Y-89680919D02*
X96220681Y-89442824D01*
X95554014Y-89204728D01*
X96173062Y-88442823D02*
X96220681Y-88538061D01*
X96220681Y-88728538D01*
X96173062Y-88823776D01*
X96077824Y-88871395D01*
X95696871Y-88871395D01*
X95601633Y-88823776D01*
X95554014Y-88728538D01*
X95554014Y-88538061D01*
X95601633Y-88442823D01*
X95696871Y-88395204D01*
X95792110Y-88395204D01*
X95887348Y-88871395D01*
X100594300Y-87339300D02*
X100594300Y-126201300D01*
X86624300Y-126201300D02*
X86624300Y-87339300D01*
X98777251Y-85417681D02*
X98777251Y-84417681D01*
X99205823Y-85417681D02*
X99205823Y-84893871D01*
X99158204Y-84798633D01*
X99062966Y-84751014D01*
X98920108Y-84751014D01*
X98824870Y-84798633D01*
X98777251Y-84846252D01*
X100110585Y-85417681D02*
X100110585Y-84893871D01*
X100062966Y-84798633D01*
X99967728Y-84751014D01*
X99777251Y-84751014D01*
X99682013Y-84798633D01*
X100110585Y-85370062D02*
X100015347Y-85417681D01*
X99777251Y-85417681D01*
X99682013Y-85370062D01*
X99634394Y-85274824D01*
X99634394Y-85179586D01*
X99682013Y-85084348D01*
X99777251Y-85036729D01*
X100015347Y-85036729D01*
X100110585Y-84989110D01*
X100729632Y-85417681D02*
X100634394Y-85370062D01*
X100586775Y-85274824D01*
X100586775Y-84417681D01*
X100967728Y-84751014D02*
X101348680Y-84751014D01*
X101110585Y-85417681D02*
X101110585Y-84560538D01*
X101158204Y-84465300D01*
X101253442Y-84417681D01*
X101348680Y-84417681D01*
X102110586Y-85417681D02*
X102110586Y-84893871D01*
X102062967Y-84798633D01*
X101967729Y-84751014D01*
X101777252Y-84751014D01*
X101682014Y-84798633D01*
X102110586Y-85370062D02*
X102015348Y-85417681D01*
X101777252Y-85417681D01*
X101682014Y-85370062D01*
X101634395Y-85274824D01*
X101634395Y-85179586D01*
X101682014Y-85084348D01*
X101777252Y-85036729D01*
X102015348Y-85036729D01*
X102110586Y-84989110D01*
X103015348Y-85417681D02*
X103015348Y-84417681D01*
X103015348Y-85370062D02*
X102920110Y-85417681D01*
X102729633Y-85417681D01*
X102634395Y-85370062D01*
X102586776Y-85322443D01*
X102539157Y-85227205D01*
X102539157Y-84941490D01*
X102586776Y-84846252D01*
X102634395Y-84798633D01*
X102729633Y-84751014D01*
X102920110Y-84751014D01*
X103015348Y-84798633D01*
X103920110Y-85417681D02*
X103920110Y-84417681D01*
X103920110Y-85370062D02*
X103824872Y-85417681D01*
X103634395Y-85417681D01*
X103539157Y-85370062D01*
X103491538Y-85322443D01*
X103443919Y-85227205D01*
X103443919Y-84941490D01*
X103491538Y-84846252D01*
X103539157Y-84798633D01*
X103634395Y-84751014D01*
X103824872Y-84751014D01*
X103920110Y-84798633D01*
X104777253Y-85370062D02*
X104682015Y-85417681D01*
X104491538Y-85417681D01*
X104396300Y-85370062D01*
X104348681Y-85274824D01*
X104348681Y-84893871D01*
X104396300Y-84798633D01*
X104491538Y-84751014D01*
X104682015Y-84751014D01*
X104777253Y-84798633D01*
X104824872Y-84893871D01*
X104824872Y-84989110D01*
X104348681Y-85084348D01*
X105253443Y-85417681D02*
X105253443Y-84751014D01*
X105253443Y-84941490D02*
X105301062Y-84846252D01*
X105348681Y-84798633D01*
X105443919Y-84751014D01*
X105539158Y-84751014D01*
X106586777Y-85131967D02*
X107062968Y-85131967D01*
X106491539Y-85417681D02*
X106824872Y-84417681D01*
X107158206Y-85417681D01*
X108253444Y-84893871D02*
X109015349Y-84893871D01*
X109015349Y-85179586D02*
X108253444Y-85179586D01*
X101967728Y-87212919D02*
X101872490Y-87165300D01*
X101777252Y-87070062D01*
X101634395Y-86927205D01*
X101539156Y-86879586D01*
X101443918Y-86879586D01*
X101491537Y-87117681D02*
X101396299Y-87070062D01*
X101301061Y-86974824D01*
X101253442Y-86784348D01*
X101253442Y-86451014D01*
X101301061Y-86260538D01*
X101396299Y-86165300D01*
X101491537Y-86117681D01*
X101682014Y-86117681D01*
X101777252Y-86165300D01*
X101872490Y-86260538D01*
X101920109Y-86451014D01*
X101920109Y-86784348D01*
X101872490Y-86974824D01*
X101777252Y-87070062D01*
X101682014Y-87117681D01*
X101491537Y-87117681D01*
X103062966Y-87070062D02*
X103158204Y-87117681D01*
X103348680Y-87117681D01*
X103443919Y-87070062D01*
X103491538Y-86974824D01*
X103491538Y-86927205D01*
X103443919Y-86831967D01*
X103348680Y-86784348D01*
X103205823Y-86784348D01*
X103110585Y-86736729D01*
X103062966Y-86641490D01*
X103062966Y-86593871D01*
X103110585Y-86498633D01*
X103205823Y-86451014D01*
X103348680Y-86451014D01*
X103443919Y-86498633D01*
X104062966Y-87117681D02*
X103967728Y-87070062D01*
X103920109Y-86974824D01*
X103920109Y-86117681D01*
X104872491Y-87117681D02*
X104872491Y-86593871D01*
X104824872Y-86498633D01*
X104729634Y-86451014D01*
X104539157Y-86451014D01*
X104443919Y-86498633D01*
X104872491Y-87070062D02*
X104777253Y-87117681D01*
X104539157Y-87117681D01*
X104443919Y-87070062D01*
X104396300Y-86974824D01*
X104396300Y-86879586D01*
X104443919Y-86784348D01*
X104539157Y-86736729D01*
X104777253Y-86736729D01*
X104872491Y-86689110D01*
X105253443Y-86451014D02*
X105491538Y-87117681D01*
X105729634Y-86451014D01*
X106491539Y-87070062D02*
X106396301Y-87117681D01*
X106205824Y-87117681D01*
X106110586Y-87070062D01*
X106062967Y-86974824D01*
X106062967Y-86593871D01*
X106110586Y-86498633D01*
X106205824Y-86451014D01*
X106396301Y-86451014D01*
X106491539Y-86498633D01*
X106539158Y-86593871D01*
X106539158Y-86689110D01*
X106062967Y-86784348D01*
D12*
X64550952Y-63418810D02*
X64550952Y-61990238D01*
X67050952Y-62704524D02*
X64550952Y-62704524D01*
X66931905Y-60204524D02*
X67050952Y-60442619D01*
X67050952Y-60918810D01*
X66931905Y-61156905D01*
X66693810Y-61275953D01*
X65741429Y-61275953D01*
X65503333Y-61156905D01*
X65384286Y-60918810D01*
X65384286Y-60442619D01*
X65503333Y-60204524D01*
X65741429Y-60085476D01*
X65979524Y-60085476D01*
X66217619Y-61275953D01*
X67050952Y-59014048D02*
X65384286Y-59014048D01*
X65860476Y-59014048D02*
X65622381Y-58895000D01*
X65503333Y-58775953D01*
X65384286Y-58537857D01*
X65384286Y-58299762D01*
X65384286Y-57466429D02*
X67050952Y-57466429D01*
X65622381Y-57466429D02*
X65503333Y-57347381D01*
X65384286Y-57109286D01*
X65384286Y-56752143D01*
X65503333Y-56514048D01*
X65741429Y-56395000D01*
X67050952Y-56395000D01*
X67050952Y-54133095D02*
X65741429Y-54133095D01*
X65503333Y-54252143D01*
X65384286Y-54490238D01*
X65384286Y-54966429D01*
X65503333Y-55204524D01*
X66931905Y-54133095D02*
X67050952Y-54371191D01*
X67050952Y-54966429D01*
X66931905Y-55204524D01*
X66693810Y-55323572D01*
X66455714Y-55323572D01*
X66217619Y-55204524D01*
X66098571Y-54966429D01*
X66098571Y-54371191D01*
X65979524Y-54133095D01*
X67050952Y-52942619D02*
X65384286Y-52942619D01*
X65860476Y-52942619D02*
X65622381Y-52823571D01*
X65503333Y-52704524D01*
X65384286Y-52466428D01*
X65384286Y-52228333D01*
X65384286Y-51633095D02*
X67050952Y-51037857D01*
X65384286Y-50442619D02*
X67050952Y-51037857D01*
X67646190Y-51275952D01*
X67765238Y-51395000D01*
X67884286Y-51633095D01*
X66931905Y-46514047D02*
X67050952Y-46752143D01*
X67050952Y-47228333D01*
X66931905Y-47466428D01*
X66812857Y-47585476D01*
X66574762Y-47704524D01*
X65860476Y-47704524D01*
X65622381Y-47585476D01*
X65503333Y-47466428D01*
X65384286Y-47228333D01*
X65384286Y-46752143D01*
X65503333Y-46514047D01*
X67050952Y-45085476D02*
X66931905Y-45323571D01*
X66812857Y-45442619D01*
X66574762Y-45561667D01*
X65860476Y-45561667D01*
X65622381Y-45442619D01*
X65503333Y-45323571D01*
X65384286Y-45085476D01*
X65384286Y-44728333D01*
X65503333Y-44490238D01*
X65622381Y-44371190D01*
X65860476Y-44252143D01*
X66574762Y-44252143D01*
X66812857Y-44371190D01*
X66931905Y-44490238D01*
X67050952Y-44728333D01*
X67050952Y-45085476D01*
X65384286Y-42109285D02*
X67050952Y-42109285D01*
X65384286Y-43180714D02*
X66693810Y-43180714D01*
X66931905Y-43061666D01*
X67050952Y-42823571D01*
X67050952Y-42466428D01*
X66931905Y-42228333D01*
X66812857Y-42109285D01*
X65384286Y-40918809D02*
X67050952Y-40918809D01*
X65622381Y-40918809D02*
X65503333Y-40799761D01*
X65384286Y-40561666D01*
X65384286Y-40204523D01*
X65503333Y-39966428D01*
X65741429Y-39847380D01*
X67050952Y-39847380D01*
X65384286Y-39014047D02*
X65384286Y-38061666D01*
X64550952Y-38656904D02*
X66693810Y-38656904D01*
X66931905Y-38537856D01*
X67050952Y-38299761D01*
X67050952Y-38061666D01*
X66931905Y-36275952D02*
X67050952Y-36514047D01*
X67050952Y-36990238D01*
X66931905Y-37228333D01*
X66693810Y-37347381D01*
X65741429Y-37347381D01*
X65503333Y-37228333D01*
X65384286Y-36990238D01*
X65384286Y-36514047D01*
X65503333Y-36275952D01*
X65741429Y-36156904D01*
X65979524Y-36156904D01*
X66217619Y-37347381D01*
X67050952Y-35085476D02*
X65384286Y-35085476D01*
X65860476Y-35085476D02*
X65622381Y-34966428D01*
X65503333Y-34847381D01*
X65384286Y-34609285D01*
X65384286Y-34371190D01*
X70981905Y-59252142D02*
X71100952Y-59490238D01*
X71100952Y-59966428D01*
X70981905Y-60204523D01*
X70862857Y-60323571D01*
X70624762Y-60442619D01*
X69910476Y-60442619D01*
X69672381Y-60323571D01*
X69553333Y-60204523D01*
X69434286Y-59966428D01*
X69434286Y-59490238D01*
X69553333Y-59252142D01*
X71100952Y-57823571D02*
X70981905Y-58061666D01*
X70743810Y-58180714D01*
X68600952Y-58180714D01*
X71100952Y-56514047D02*
X70981905Y-56752142D01*
X70862857Y-56871190D01*
X70624762Y-56990238D01*
X69910476Y-56990238D01*
X69672381Y-56871190D01*
X69553333Y-56752142D01*
X69434286Y-56514047D01*
X69434286Y-56156904D01*
X69553333Y-55918809D01*
X69672381Y-55799761D01*
X69910476Y-55680714D01*
X70624762Y-55680714D01*
X70862857Y-55799761D01*
X70981905Y-55918809D01*
X71100952Y-56156904D01*
X71100952Y-56514047D01*
X70981905Y-53537856D02*
X71100952Y-53775952D01*
X71100952Y-54252142D01*
X70981905Y-54490237D01*
X70862857Y-54609285D01*
X70624762Y-54728333D01*
X69910476Y-54728333D01*
X69672381Y-54609285D01*
X69553333Y-54490237D01*
X69434286Y-54252142D01*
X69434286Y-53775952D01*
X69553333Y-53537856D01*
X71100952Y-52466428D02*
X68600952Y-52466428D01*
X70148571Y-52228333D02*
X71100952Y-51514047D01*
X69434286Y-51514047D02*
X70386667Y-52466428D01*
X69434286Y-48894999D02*
X69434286Y-47942618D01*
X71100952Y-48537856D02*
X68958095Y-48537856D01*
X68720000Y-48418808D01*
X68600952Y-48180713D01*
X68600952Y-47942618D01*
X71100952Y-46752142D02*
X70981905Y-46990237D01*
X70862857Y-47109285D01*
X70624762Y-47228333D01*
X69910476Y-47228333D01*
X69672381Y-47109285D01*
X69553333Y-46990237D01*
X69434286Y-46752142D01*
X69434286Y-46394999D01*
X69553333Y-46156904D01*
X69672381Y-46037856D01*
X69910476Y-45918809D01*
X70624762Y-45918809D01*
X70862857Y-46037856D01*
X70981905Y-46156904D01*
X71100952Y-46394999D01*
X71100952Y-46752142D01*
X71100952Y-44847380D02*
X69434286Y-44847380D01*
X69910476Y-44847380D02*
X69672381Y-44728332D01*
X69553333Y-44609285D01*
X69434286Y-44371189D01*
X69434286Y-44133094D01*
X71100952Y-43299761D02*
X69434286Y-43299761D01*
X69672381Y-43299761D02*
X69553333Y-43180713D01*
X69434286Y-42942618D01*
X69434286Y-42585475D01*
X69553333Y-42347380D01*
X69791429Y-42228332D01*
X71100952Y-42228332D01*
X69791429Y-42228332D02*
X69553333Y-42109285D01*
X69434286Y-41871189D01*
X69434286Y-41514047D01*
X69553333Y-41275951D01*
X69791429Y-41156904D01*
X71100952Y-41156904D01*
X70981905Y-39014047D02*
X71100952Y-39252142D01*
X71100952Y-39728333D01*
X70981905Y-39966428D01*
X70743810Y-40085476D01*
X69791429Y-40085476D01*
X69553333Y-39966428D01*
X69434286Y-39728333D01*
X69434286Y-39252142D01*
X69553333Y-39014047D01*
X69791429Y-38894999D01*
X70029524Y-38894999D01*
X70267619Y-40085476D01*
X71100952Y-37823571D02*
X69434286Y-37823571D01*
X69910476Y-37823571D02*
X69672381Y-37704523D01*
X69553333Y-37585476D01*
X69434286Y-37347380D01*
X69434286Y-37109285D01*
D13*
X98777251Y-35417681D02*
X98777251Y-34417681D01*
X99205823Y-35417681D02*
X99205823Y-34893871D01*
X99158204Y-34798633D01*
X99062966Y-34751014D01*
X98920108Y-34751014D01*
X98824870Y-34798633D01*
X98777251Y-34846252D01*
X100110585Y-35417681D02*
X100110585Y-34893871D01*
X100062966Y-34798633D01*
X99967728Y-34751014D01*
X99777251Y-34751014D01*
X99682013Y-34798633D01*
X100110585Y-35370062D02*
X100015347Y-35417681D01*
X99777251Y-35417681D01*
X99682013Y-35370062D01*
X99634394Y-35274824D01*
X99634394Y-35179586D01*
X99682013Y-35084348D01*
X99777251Y-35036729D01*
X100015347Y-35036729D01*
X100110585Y-34989110D01*
X100729632Y-35417681D02*
X100634394Y-35370062D01*
X100586775Y-35274824D01*
X100586775Y-34417681D01*
X100967728Y-34751014D02*
X101348680Y-34751014D01*
X101110585Y-35417681D02*
X101110585Y-34560538D01*
X101158204Y-34465300D01*
X101253442Y-34417681D01*
X101348680Y-34417681D01*
X102110586Y-35417681D02*
X102110586Y-34893871D01*
X102062967Y-34798633D01*
X101967729Y-34751014D01*
X101777252Y-34751014D01*
X101682014Y-34798633D01*
X102110586Y-35370062D02*
X102015348Y-35417681D01*
X101777252Y-35417681D01*
X101682014Y-35370062D01*
X101634395Y-35274824D01*
X101634395Y-35179586D01*
X101682014Y-35084348D01*
X101777252Y-35036729D01*
X102015348Y-35036729D01*
X102110586Y-34989110D01*
X103015348Y-35417681D02*
X103015348Y-34417681D01*
X103015348Y-35370062D02*
X102920110Y-35417681D01*
X102729633Y-35417681D01*
X102634395Y-35370062D01*
X102586776Y-35322443D01*
X102539157Y-35227205D01*
X102539157Y-34941490D01*
X102586776Y-34846252D01*
X102634395Y-34798633D01*
X102729633Y-34751014D01*
X102920110Y-34751014D01*
X103015348Y-34798633D01*
X103920110Y-35417681D02*
X103920110Y-34417681D01*
X103920110Y-35370062D02*
X103824872Y-35417681D01*
X103634395Y-35417681D01*
X103539157Y-35370062D01*
X103491538Y-35322443D01*
X103443919Y-35227205D01*
X103443919Y-34941490D01*
X103491538Y-34846252D01*
X103539157Y-34798633D01*
X103634395Y-34751014D01*
X103824872Y-34751014D01*
X103920110Y-34798633D01*
X104777253Y-35370062D02*
X104682015Y-35417681D01*
X104491538Y-35417681D01*
X104396300Y-35370062D01*
X104348681Y-35274824D01*
X104348681Y-34893871D01*
X104396300Y-34798633D01*
X104491538Y-34751014D01*
X104682015Y-34751014D01*
X104777253Y-34798633D01*
X104824872Y-34893871D01*
X104824872Y-34989110D01*
X104348681Y-35084348D01*
X105253443Y-35417681D02*
X105253443Y-34751014D01*
X105253443Y-34941490D02*
X105301062Y-34846252D01*
X105348681Y-34798633D01*
X105443919Y-34751014D01*
X105539158Y-34751014D01*
X106586777Y-35131967D02*
X107062968Y-35131967D01*
X106491539Y-35417681D02*
X106824872Y-34417681D01*
X107158206Y-35417681D01*
X108253444Y-34893871D02*
X109015349Y-34893871D01*
X109015349Y-35179586D02*
X108253444Y-35179586D01*
X101967728Y-37212919D02*
X101872490Y-37165300D01*
X101777252Y-37070062D01*
X101634395Y-36927205D01*
X101539156Y-36879586D01*
X101443918Y-36879586D01*
X101491537Y-37117681D02*
X101396299Y-37070062D01*
X101301061Y-36974824D01*
X101253442Y-36784348D01*
X101253442Y-36451014D01*
X101301061Y-36260538D01*
X101396299Y-36165300D01*
X101491537Y-36117681D01*
X101682014Y-36117681D01*
X101777252Y-36165300D01*
X101872490Y-36260538D01*
X101920109Y-36451014D01*
X101920109Y-36784348D01*
X101872490Y-36974824D01*
X101777252Y-37070062D01*
X101682014Y-37117681D01*
X101491537Y-37117681D01*
X103062966Y-37070062D02*
X103158204Y-37117681D01*
X103348680Y-37117681D01*
X103443919Y-37070062D01*
X103491538Y-36974824D01*
X103491538Y-36927205D01*
X103443919Y-36831967D01*
X103348680Y-36784348D01*
X103205823Y-36784348D01*
X103110585Y-36736729D01*
X103062966Y-36641490D01*
X103062966Y-36593871D01*
X103110585Y-36498633D01*
X103205823Y-36451014D01*
X103348680Y-36451014D01*
X103443919Y-36498633D01*
X104062966Y-37117681D02*
X103967728Y-37070062D01*
X103920109Y-36974824D01*
X103920109Y-36117681D01*
X104872491Y-37117681D02*
X104872491Y-36593871D01*
X104824872Y-36498633D01*
X104729634Y-36451014D01*
X104539157Y-36451014D01*
X104443919Y-36498633D01*
X104872491Y-37070062D02*
X104777253Y-37117681D01*
X104539157Y-37117681D01*
X104443919Y-37070062D01*
X104396300Y-36974824D01*
X104396300Y-36879586D01*
X104443919Y-36784348D01*
X104539157Y-36736729D01*
X104777253Y-36736729D01*
X104872491Y-36689110D01*
X105253443Y-36451014D02*
X105491538Y-37117681D01*
X105729634Y-36451014D01*
X106491539Y-37070062D02*
X106396301Y-37117681D01*
X106205824Y-37117681D01*
X106110586Y-37070062D01*
X106062967Y-36974824D01*
X106062967Y-36593871D01*
X106110586Y-36498633D01*
X106205824Y-36451014D01*
X106396301Y-36451014D01*
X106491539Y-36498633D01*
X106539158Y-36593871D01*
X106539158Y-36689110D01*
X106062967Y-36784348D01*
X86624300Y-76201300D02*
X86624300Y-37339300D01*
X100594300Y-37339300D02*
X100594300Y-76201300D01*
X96173062Y-41871396D02*
X96220681Y-41776158D01*
X96220681Y-41585682D01*
X96173062Y-41490443D01*
X96077824Y-41442824D01*
X96030205Y-41442824D01*
X95934967Y-41490443D01*
X95887348Y-41585682D01*
X95887348Y-41728539D01*
X95839729Y-41823777D01*
X95744490Y-41871396D01*
X95696871Y-41871396D01*
X95601633Y-41823777D01*
X95554014Y-41728539D01*
X95554014Y-41585682D01*
X95601633Y-41490443D01*
X96220681Y-40871396D02*
X96173062Y-40966634D01*
X96077824Y-41014253D01*
X95220681Y-41014253D01*
X96220681Y-40061871D02*
X95696871Y-40061871D01*
X95601633Y-40109490D01*
X95554014Y-40204728D01*
X95554014Y-40395205D01*
X95601633Y-40490443D01*
X96173062Y-40061871D02*
X96220681Y-40157109D01*
X96220681Y-40395205D01*
X96173062Y-40490443D01*
X96077824Y-40538062D01*
X95982586Y-40538062D01*
X95887348Y-40490443D01*
X95839729Y-40395205D01*
X95839729Y-40157109D01*
X95792110Y-40061871D01*
X95554014Y-39680919D02*
X96220681Y-39442824D01*
X95554014Y-39204728D01*
X96173062Y-38442823D02*
X96220681Y-38538061D01*
X96220681Y-38728538D01*
X96173062Y-38823776D01*
X96077824Y-38871395D01*
X95696871Y-38871395D01*
X95601633Y-38823776D01*
X95554014Y-38728538D01*
X95554014Y-38538061D01*
X95601633Y-38442823D01*
X95696871Y-38395204D01*
X95792110Y-38395204D01*
X95887348Y-38871395D01*
X124470300Y-76201300D02*
X124470300Y-37339300D01*
X101864300Y-37339300D02*
X101864300Y-76201300D01*
D12*
X99754015Y-27368871D02*
X100611158Y-27368871D01*
X100182587Y-28868871D02*
X100182587Y-27368871D01*
X101682586Y-28797443D02*
X101539729Y-28868871D01*
X101254015Y-28868871D01*
X101111158Y-28797443D01*
X101039729Y-28654586D01*
X101039729Y-28083157D01*
X101111158Y-27940300D01*
X101254015Y-27868871D01*
X101539729Y-27868871D01*
X101682586Y-27940300D01*
X101754015Y-28083157D01*
X101754015Y-28226014D01*
X101039729Y-28368871D01*
X102396872Y-28868871D02*
X102396872Y-27868871D01*
X102396872Y-28154586D02*
X102468300Y-28011729D01*
X102539729Y-27940300D01*
X102682586Y-27868871D01*
X102825443Y-27868871D01*
X103325443Y-27868871D02*
X103325443Y-28868871D01*
X103325443Y-28011729D02*
X103396871Y-27940300D01*
X103539729Y-27868871D01*
X103754014Y-27868871D01*
X103896871Y-27940300D01*
X103968300Y-28083157D01*
X103968300Y-28868871D01*
X105325443Y-28868871D02*
X105325443Y-28083157D01*
X105254014Y-27940300D01*
X105111157Y-27868871D01*
X104825443Y-27868871D01*
X104682586Y-27940300D01*
X105325443Y-28797443D02*
X105182586Y-28868871D01*
X104825443Y-28868871D01*
X104682586Y-28797443D01*
X104611157Y-28654586D01*
X104611157Y-28511729D01*
X104682586Y-28368871D01*
X104825443Y-28297443D01*
X105182586Y-28297443D01*
X105325443Y-28226014D01*
X106039729Y-28868871D02*
X106039729Y-27868871D01*
X106039729Y-28154586D02*
X106111157Y-28011729D01*
X106182586Y-27940300D01*
X106325443Y-27868871D01*
X106468300Y-27868871D01*
X106825443Y-27868871D02*
X107182586Y-28868871D01*
X107539728Y-27868871D02*
X107182586Y-28868871D01*
X107039728Y-29226014D01*
X106968300Y-29297443D01*
X106825443Y-29368871D01*
X109896871Y-28797443D02*
X109754014Y-28868871D01*
X109468300Y-28868871D01*
X109325442Y-28797443D01*
X109254014Y-28726014D01*
X109182585Y-28583157D01*
X109182585Y-28154586D01*
X109254014Y-28011729D01*
X109325442Y-27940300D01*
X109468300Y-27868871D01*
X109754014Y-27868871D01*
X109896871Y-27940300D01*
X110754014Y-28868871D02*
X110611156Y-28797443D01*
X110539728Y-28726014D01*
X110468299Y-28583157D01*
X110468299Y-28154586D01*
X110539728Y-28011729D01*
X110611156Y-27940300D01*
X110754014Y-27868871D01*
X110968299Y-27868871D01*
X111111156Y-27940300D01*
X111182585Y-28011729D01*
X111254014Y-28154586D01*
X111254014Y-28583157D01*
X111182585Y-28726014D01*
X111111156Y-28797443D01*
X110968299Y-28868871D01*
X110754014Y-28868871D01*
X112539728Y-27868871D02*
X112539728Y-28868871D01*
X111896871Y-27868871D02*
X111896871Y-28654586D01*
X111968299Y-28797443D01*
X112111157Y-28868871D01*
X112325442Y-28868871D01*
X112468299Y-28797443D01*
X112539728Y-28726014D01*
X113254014Y-27868871D02*
X113254014Y-28868871D01*
X113254014Y-28011729D02*
X113325442Y-27940300D01*
X113468300Y-27868871D01*
X113682585Y-27868871D01*
X113825442Y-27940300D01*
X113896871Y-28083157D01*
X113896871Y-28868871D01*
X114396871Y-27868871D02*
X114968300Y-27868871D01*
X114611157Y-27368871D02*
X114611157Y-28654586D01*
X114682585Y-28797443D01*
X114825443Y-28868871D01*
X114968300Y-28868871D01*
X116039728Y-28797443D02*
X115896871Y-28868871D01*
X115611157Y-28868871D01*
X115468300Y-28797443D01*
X115396871Y-28654586D01*
X115396871Y-28083157D01*
X115468300Y-27940300D01*
X115611157Y-27868871D01*
X115896871Y-27868871D01*
X116039728Y-27940300D01*
X116111157Y-28083157D01*
X116111157Y-28226014D01*
X115396871Y-28368871D01*
X116754014Y-28868871D02*
X116754014Y-27868871D01*
X116754014Y-28154586D02*
X116825442Y-28011729D01*
X116896871Y-27940300D01*
X117039728Y-27868871D01*
X117182585Y-27868871D01*
X103039729Y-31990300D02*
X102968301Y-31918871D01*
X102825444Y-31704586D01*
X102754015Y-31561729D01*
X102682586Y-31347443D01*
X102611158Y-30990300D01*
X102611158Y-30704586D01*
X102682586Y-30347443D01*
X102754015Y-30133157D01*
X102825444Y-29990300D01*
X102968301Y-29776014D01*
X103039729Y-29704586D01*
X103825444Y-31418871D02*
X103682586Y-31347443D01*
X103611158Y-31276014D01*
X103539729Y-31133157D01*
X103539729Y-30704586D01*
X103611158Y-30561729D01*
X103682586Y-30490300D01*
X103825444Y-30418871D01*
X104039729Y-30418871D01*
X104182586Y-30490300D01*
X104254015Y-30561729D01*
X104325444Y-30704586D01*
X104325444Y-31133157D01*
X104254015Y-31276014D01*
X104182586Y-31347443D01*
X104039729Y-31418871D01*
X103825444Y-31418871D01*
X104968301Y-30418871D02*
X104968301Y-31418871D01*
X104968301Y-30561729D02*
X105039729Y-30490300D01*
X105182587Y-30418871D01*
X105396872Y-30418871D01*
X105539729Y-30490300D01*
X105611158Y-30633157D01*
X105611158Y-31418871D01*
X106896872Y-31347443D02*
X106754015Y-31418871D01*
X106468301Y-31418871D01*
X106325444Y-31347443D01*
X106254015Y-31204586D01*
X106254015Y-30633157D01*
X106325444Y-30490300D01*
X106468301Y-30418871D01*
X106754015Y-30418871D01*
X106896872Y-30490300D01*
X106968301Y-30633157D01*
X106968301Y-30776014D01*
X106254015Y-30918871D01*
X108682586Y-31347443D02*
X108825443Y-31418871D01*
X109111158Y-31418871D01*
X109254015Y-31347443D01*
X109325443Y-31204586D01*
X109325443Y-31133157D01*
X109254015Y-30990300D01*
X109111158Y-30918871D01*
X108896872Y-30918871D01*
X108754015Y-30847443D01*
X108682586Y-30704586D01*
X108682586Y-30633157D01*
X108754015Y-30490300D01*
X108896872Y-30418871D01*
X109111158Y-30418871D01*
X109254015Y-30490300D01*
X110182587Y-31418871D02*
X110039729Y-31347443D01*
X109968301Y-31204586D01*
X109968301Y-29918871D01*
X110754015Y-31418871D02*
X110754015Y-30418871D01*
X110754015Y-29918871D02*
X110682586Y-29990300D01*
X110754015Y-30061729D01*
X110825443Y-29990300D01*
X110754015Y-29918871D01*
X110754015Y-30061729D01*
X112111158Y-31347443D02*
X111968301Y-31418871D01*
X111682587Y-31418871D01*
X111539729Y-31347443D01*
X111468301Y-31276014D01*
X111396872Y-31133157D01*
X111396872Y-30704586D01*
X111468301Y-30561729D01*
X111539729Y-30490300D01*
X111682587Y-30418871D01*
X111968301Y-30418871D01*
X112111158Y-30490300D01*
X113325443Y-31347443D02*
X113182586Y-31418871D01*
X112896872Y-31418871D01*
X112754015Y-31347443D01*
X112682586Y-31204586D01*
X112682586Y-30633157D01*
X112754015Y-30490300D01*
X112896872Y-30418871D01*
X113182586Y-30418871D01*
X113325443Y-30490300D01*
X113396872Y-30633157D01*
X113396872Y-30776014D01*
X112682586Y-30918871D01*
X113896872Y-31990300D02*
X113968300Y-31918871D01*
X114111157Y-31704586D01*
X114182586Y-31561729D01*
X114254015Y-31347443D01*
X114325443Y-30990300D01*
X114325443Y-30704586D01*
X114254015Y-30347443D01*
X114182586Y-30133157D01*
X114111157Y-29990300D01*
X113968300Y-29776014D01*
X113896872Y-29704586D01*
D11*
X123882871Y-36049871D02*
X123940014Y-36107014D01*
X123997157Y-36278443D01*
X123997157Y-36392729D01*
X123940014Y-36564157D01*
X123825729Y-36678443D01*
X123711443Y-36735586D01*
X123482871Y-36792729D01*
X123311443Y-36792729D01*
X123082871Y-36735586D01*
X122968586Y-36678443D01*
X122854300Y-36564157D01*
X122797157Y-36392729D01*
X122797157Y-36278443D01*
X122854300Y-36107014D01*
X122911443Y-36049871D01*
X123882871Y-33935585D02*
X123940014Y-33992728D01*
X123997157Y-34164157D01*
X123997157Y-34278443D01*
X123940014Y-34449871D01*
X123825729Y-34564157D01*
X123711443Y-34621300D01*
X123482871Y-34678443D01*
X123311443Y-34678443D01*
X123082871Y-34621300D01*
X122968586Y-34564157D01*
X122854300Y-34449871D01*
X122797157Y-34278443D01*
X122797157Y-34164157D01*
X122854300Y-33992728D01*
X122911443Y-33935585D01*
X123940014Y-33478443D02*
X123997157Y-33364157D01*
X123997157Y-33135585D01*
X123940014Y-33021300D01*
X123825729Y-32964157D01*
X123768586Y-32964157D01*
X123654300Y-33021300D01*
X123597157Y-33135585D01*
X123597157Y-33307014D01*
X123540014Y-33421300D01*
X123425729Y-33478443D01*
X123368586Y-33478443D01*
X123254300Y-33421300D01*
X123197157Y-33307014D01*
X123197157Y-33135585D01*
X123254300Y-33021300D01*
X123882871Y-30849870D02*
X123940014Y-30907013D01*
X123997157Y-31078442D01*
X123997157Y-31192728D01*
X123940014Y-31364156D01*
X123825729Y-31478442D01*
X123711443Y-31535585D01*
X123482871Y-31592728D01*
X123311443Y-31592728D01*
X123082871Y-31535585D01*
X122968586Y-31478442D01*
X122854300Y-31364156D01*
X122797157Y-31192728D01*
X122797157Y-31078442D01*
X122854300Y-30907013D01*
X122911443Y-30849870D01*
X123997157Y-30335585D02*
X123197157Y-30335585D01*
X123311443Y-30335585D02*
X123254300Y-30278442D01*
X123197157Y-30164156D01*
X123197157Y-29992728D01*
X123254300Y-29878442D01*
X123368586Y-29821299D01*
X123997157Y-29821299D01*
X123368586Y-29821299D02*
X123254300Y-29764156D01*
X123197157Y-29649870D01*
X123197157Y-29478442D01*
X123254300Y-29364156D01*
X123368586Y-29307013D01*
X123997157Y-29307013D01*
X90011681Y-33489395D02*
X89487871Y-33489395D01*
X89392633Y-33537014D01*
X89345014Y-33632252D01*
X89345014Y-33822729D01*
X89392633Y-33917967D01*
X89964062Y-33489395D02*
X90011681Y-33584633D01*
X90011681Y-33822729D01*
X89964062Y-33917967D01*
X89868824Y-33965586D01*
X89773586Y-33965586D01*
X89678348Y-33917967D01*
X89630729Y-33822729D01*
X89630729Y-33584633D01*
X89583110Y-33489395D01*
X89964062Y-33060824D02*
X90011681Y-32965586D01*
X90011681Y-32775110D01*
X89964062Y-32679871D01*
X89868824Y-32632252D01*
X89821205Y-32632252D01*
X89725967Y-32679871D01*
X89678348Y-32775110D01*
X89678348Y-32917967D01*
X89630729Y-33013205D01*
X89535490Y-33060824D01*
X89487871Y-33060824D01*
X89392633Y-33013205D01*
X89345014Y-32917967D01*
X89345014Y-32775110D01*
X89392633Y-32679871D01*
X89964062Y-32251300D02*
X90011681Y-32156062D01*
X90011681Y-31965586D01*
X89964062Y-31870347D01*
X89868824Y-31822728D01*
X89821205Y-31822728D01*
X89725967Y-31870347D01*
X89678348Y-31965586D01*
X89678348Y-32108443D01*
X89630729Y-32203681D01*
X89535490Y-32251300D01*
X89487871Y-32251300D01*
X89392633Y-32203681D01*
X89345014Y-32108443D01*
X89345014Y-31965586D01*
X89392633Y-31870347D01*
X90011681Y-31394157D02*
X89345014Y-31394157D01*
X89011681Y-31394157D02*
X89059300Y-31441776D01*
X89106919Y-31394157D01*
X89059300Y-31346538D01*
X89011681Y-31394157D01*
X89106919Y-31394157D01*
X89345014Y-30489395D02*
X90154538Y-30489395D01*
X90249776Y-30537014D01*
X90297395Y-30584633D01*
X90345014Y-30679872D01*
X90345014Y-30822729D01*
X90297395Y-30917967D01*
X89964062Y-30489395D02*
X90011681Y-30584633D01*
X90011681Y-30775110D01*
X89964062Y-30870348D01*
X89916443Y-30917967D01*
X89821205Y-30965586D01*
X89535490Y-30965586D01*
X89440252Y-30917967D01*
X89392633Y-30870348D01*
X89345014Y-30775110D01*
X89345014Y-30584633D01*
X89392633Y-30489395D01*
X89345014Y-30013205D02*
X90011681Y-30013205D01*
X89440252Y-30013205D02*
X89392633Y-29965586D01*
X89345014Y-29870348D01*
X89345014Y-29727490D01*
X89392633Y-29632252D01*
X89487871Y-29584633D01*
X90011681Y-29584633D01*
X91095014Y-32703681D02*
X91761681Y-32465586D01*
X91095014Y-32227490D01*
X91761681Y-31417966D02*
X91237871Y-31417966D01*
X91142633Y-31465585D01*
X91095014Y-31560823D01*
X91095014Y-31751300D01*
X91142633Y-31846538D01*
X91714062Y-31417966D02*
X91761681Y-31513204D01*
X91761681Y-31751300D01*
X91714062Y-31846538D01*
X91618824Y-31894157D01*
X91523586Y-31894157D01*
X91428348Y-31846538D01*
X91380729Y-31751300D01*
X91380729Y-31513204D01*
X91333110Y-31417966D01*
X91761681Y-30798919D02*
X91714062Y-30894157D01*
X91618824Y-30941776D01*
X90761681Y-30941776D01*
X95552062Y-31608158D02*
X95599681Y-31512920D01*
X95599681Y-31322444D01*
X95552062Y-31227205D01*
X95456824Y-31179586D01*
X95409205Y-31179586D01*
X95313967Y-31227205D01*
X95266348Y-31322444D01*
X95266348Y-31465301D01*
X95218729Y-31560539D01*
X95123490Y-31608158D01*
X95075871Y-31608158D01*
X94980633Y-31560539D01*
X94933014Y-31465301D01*
X94933014Y-31322444D01*
X94980633Y-31227205D01*
X94933014Y-30893872D02*
X94933014Y-30512920D01*
X94599681Y-30751015D02*
X95456824Y-30751015D01*
X95552062Y-30703396D01*
X95599681Y-30608158D01*
X95599681Y-30512920D01*
X95599681Y-30036729D02*
X95552062Y-30131967D01*
X95504443Y-30179586D01*
X95409205Y-30227205D01*
X95123490Y-30227205D01*
X95028252Y-30179586D01*
X94980633Y-30131967D01*
X94933014Y-30036729D01*
X94933014Y-29893871D01*
X94980633Y-29798633D01*
X95028252Y-29751014D01*
X95123490Y-29703395D01*
X95409205Y-29703395D01*
X95504443Y-29751014D01*
X95552062Y-29798633D01*
X95599681Y-29893871D01*
X95599681Y-30036729D01*
X95599681Y-29274824D02*
X94933014Y-29274824D01*
X95123490Y-29274824D02*
X95028252Y-29227205D01*
X94980633Y-29179586D01*
X94933014Y-29084348D01*
X94933014Y-28989109D01*
X95552062Y-28274823D02*
X95599681Y-28370061D01*
X95599681Y-28560538D01*
X95552062Y-28655776D01*
X95456824Y-28703395D01*
X95075871Y-28703395D01*
X94980633Y-28655776D01*
X94933014Y-28560538D01*
X94933014Y-28370061D01*
X94980633Y-28274823D01*
X95075871Y-28227204D01*
X95171110Y-28227204D01*
X95266348Y-28703395D01*
X95599681Y-27370061D02*
X94599681Y-27370061D01*
X95552062Y-27370061D02*
X95599681Y-27465299D01*
X95599681Y-27655776D01*
X95552062Y-27751014D01*
X95504443Y-27798633D01*
X95409205Y-27846252D01*
X95123490Y-27846252D01*
X95028252Y-27798633D01*
X94980633Y-27751014D01*
X94933014Y-27655776D01*
X94933014Y-27465299D01*
X94980633Y-27370061D01*
X96683014Y-30417681D02*
X97349681Y-30179586D01*
X96683014Y-29941490D01*
X97349681Y-29131966D02*
X96825871Y-29131966D01*
X96730633Y-29179585D01*
X96683014Y-29274823D01*
X96683014Y-29465300D01*
X96730633Y-29560538D01*
X97302062Y-29131966D02*
X97349681Y-29227204D01*
X97349681Y-29465300D01*
X97302062Y-29560538D01*
X97206824Y-29608157D01*
X97111586Y-29608157D01*
X97016348Y-29560538D01*
X96968729Y-29465300D01*
X96968729Y-29227204D01*
X96921110Y-29131966D01*
X97349681Y-28512919D02*
X97302062Y-28608157D01*
X97206824Y-28655776D01*
X96349681Y-28655776D01*
X87300586Y-35573586D02*
X87357729Y-35402157D01*
X87414871Y-35345014D01*
X87529157Y-35287871D01*
X87700586Y-35287871D01*
X87814871Y-35345014D01*
X87872014Y-35402157D01*
X87929157Y-35516443D01*
X87929157Y-35973586D01*
X86729157Y-35973586D01*
X86729157Y-35573586D01*
X86786300Y-35459300D01*
X86843443Y-35402157D01*
X86957729Y-35345014D01*
X87072014Y-35345014D01*
X87186300Y-35402157D01*
X87243443Y-35459300D01*
X87300586Y-35573586D01*
X87300586Y-35973586D01*
X87814871Y-33173585D02*
X87872014Y-33230728D01*
X87929157Y-33402157D01*
X87929157Y-33516443D01*
X87872014Y-33687871D01*
X87757729Y-33802157D01*
X87643443Y-33859300D01*
X87414871Y-33916443D01*
X87243443Y-33916443D01*
X87014871Y-33859300D01*
X86900586Y-33802157D01*
X86786300Y-33687871D01*
X86729157Y-33516443D01*
X86729157Y-33402157D01*
X86786300Y-33230728D01*
X86843443Y-33173585D01*
X87872014Y-32716443D02*
X87929157Y-32602157D01*
X87929157Y-32373585D01*
X87872014Y-32259300D01*
X87757729Y-32202157D01*
X87700586Y-32202157D01*
X87586300Y-32259300D01*
X87529157Y-32373585D01*
X87529157Y-32545014D01*
X87472014Y-32659300D01*
X87357729Y-32716443D01*
X87300586Y-32716443D01*
X87186300Y-32659300D01*
X87129157Y-32545014D01*
X87129157Y-32373585D01*
X87186300Y-32259300D01*
X87814871Y-30087870D02*
X87872014Y-30145013D01*
X87929157Y-30316442D01*
X87929157Y-30430728D01*
X87872014Y-30602156D01*
X87757729Y-30716442D01*
X87643443Y-30773585D01*
X87414871Y-30830728D01*
X87243443Y-30830728D01*
X87014871Y-30773585D01*
X86900586Y-30716442D01*
X86786300Y-30602156D01*
X86729157Y-30430728D01*
X86729157Y-30316442D01*
X86786300Y-30145013D01*
X86843443Y-30087870D01*
X87929157Y-29573585D02*
X87129157Y-29573585D01*
X87243443Y-29573585D02*
X87186300Y-29516442D01*
X87129157Y-29402156D01*
X87129157Y-29230728D01*
X87186300Y-29116442D01*
X87300586Y-29059299D01*
X87929157Y-29059299D01*
X87300586Y-29059299D02*
X87186300Y-29002156D01*
X87129157Y-28887870D01*
X87129157Y-28716442D01*
X87186300Y-28602156D01*
X87300586Y-28545013D01*
X87929157Y-28545013D01*
D12*
X86403571Y-68040000D02*
X84903571Y-68040000D01*
X84903571Y-67468572D01*
X84975000Y-67325714D01*
X85046429Y-67254286D01*
X85189286Y-67182857D01*
X85403571Y-67182857D01*
X85546429Y-67254286D01*
X85617857Y-67325714D01*
X85689286Y-67468572D01*
X85689286Y-68040000D01*
X84903571Y-66682857D02*
X86403571Y-66325714D01*
X85332143Y-66040000D01*
X86403571Y-65754286D01*
X84903571Y-65397143D01*
X86403571Y-63968571D02*
X85689286Y-64468571D01*
X86403571Y-64825714D02*
X84903571Y-64825714D01*
X84903571Y-64254286D01*
X84975000Y-64111428D01*
X85046429Y-64040000D01*
X85189286Y-63968571D01*
X85403571Y-63968571D01*
X85546429Y-64040000D01*
X85617857Y-64111428D01*
X85689286Y-64254286D01*
X85689286Y-64825714D01*
X126672871Y-67533300D02*
X125172871Y-67533300D01*
X125172871Y-66961872D01*
X125244300Y-66819014D01*
X125315729Y-66747586D01*
X125458586Y-66676157D01*
X125672871Y-66676157D01*
X125815729Y-66747586D01*
X125887157Y-66819014D01*
X125958586Y-66961872D01*
X125958586Y-67533300D01*
X125172871Y-66176157D02*
X126672871Y-65819014D01*
X125601443Y-65533300D01*
X126672871Y-65247586D01*
X125172871Y-64890443D01*
X126672871Y-63461871D02*
X125958586Y-63961871D01*
X126672871Y-64319014D02*
X125172871Y-64319014D01*
X125172871Y-63747586D01*
X125244300Y-63604728D01*
X125315729Y-63533300D01*
X125458586Y-63461871D01*
X125672871Y-63461871D01*
X125815729Y-63533300D01*
X125887157Y-63604728D01*
X125958586Y-63747586D01*
X125958586Y-64319014D01*
X90835157Y-67772158D02*
X90835157Y-68915015D01*
X91763729Y-70343587D02*
X91763729Y-69629301D01*
X91049443Y-69557872D01*
X91120871Y-69629301D01*
X91192300Y-69772158D01*
X91192300Y-70129301D01*
X91120871Y-70272158D01*
X91049443Y-70343587D01*
X90906586Y-70415015D01*
X90549443Y-70415015D01*
X90406586Y-70343587D01*
X90335157Y-70272158D01*
X90263729Y-70129301D01*
X90263729Y-69772158D01*
X90335157Y-69629301D01*
X90406586Y-69557872D01*
X91763729Y-72486443D02*
X91763729Y-72629300D01*
X91692300Y-72772157D01*
X91620871Y-72843586D01*
X91478014Y-72915015D01*
X91192300Y-72986443D01*
X90835157Y-72986443D01*
X90549443Y-72915015D01*
X90406586Y-72843586D01*
X90335157Y-72772157D01*
X90263729Y-72629300D01*
X90263729Y-72486443D01*
X90335157Y-72343586D01*
X90406586Y-72272157D01*
X90549443Y-72200729D01*
X90835157Y-72129300D01*
X91192300Y-72129300D01*
X91478014Y-72200729D01*
X91620871Y-72272157D01*
X91692300Y-72343586D01*
X91763729Y-72486443D01*
X91763729Y-75486443D02*
X91763729Y-74772157D01*
X91049443Y-74700728D01*
X91120871Y-74772157D01*
X91192300Y-74915014D01*
X91192300Y-75272157D01*
X91120871Y-75415014D01*
X91049443Y-75486443D01*
X90906586Y-75557871D01*
X90549443Y-75557871D01*
X90406586Y-75486443D01*
X90335157Y-75415014D01*
X90263729Y-75272157D01*
X90263729Y-74915014D01*
X90335157Y-74772157D01*
X90406586Y-74700728D01*
X119283157Y-67772158D02*
X119283157Y-68915015D01*
X120211729Y-70343587D02*
X120211729Y-69629301D01*
X119497443Y-69557872D01*
X119568871Y-69629301D01*
X119640300Y-69772158D01*
X119640300Y-70129301D01*
X119568871Y-70272158D01*
X119497443Y-70343587D01*
X119354586Y-70415015D01*
X118997443Y-70415015D01*
X118854586Y-70343587D01*
X118783157Y-70272158D01*
X118711729Y-70129301D01*
X118711729Y-69772158D01*
X118783157Y-69629301D01*
X118854586Y-69557872D01*
X120211729Y-72486443D02*
X120211729Y-72629300D01*
X120140300Y-72772157D01*
X120068871Y-72843586D01*
X119926014Y-72915015D01*
X119640300Y-72986443D01*
X119283157Y-72986443D01*
X118997443Y-72915015D01*
X118854586Y-72843586D01*
X118783157Y-72772157D01*
X118711729Y-72629300D01*
X118711729Y-72486443D01*
X118783157Y-72343586D01*
X118854586Y-72272157D01*
X118997443Y-72200729D01*
X119283157Y-72129300D01*
X119640300Y-72129300D01*
X119926014Y-72200729D01*
X120068871Y-72272157D01*
X120140300Y-72343586D01*
X120211729Y-72486443D01*
X120211729Y-75486443D02*
X120211729Y-74772157D01*
X119497443Y-74700728D01*
X119568871Y-74772157D01*
X119640300Y-74915014D01*
X119640300Y-75272157D01*
X119568871Y-75415014D01*
X119497443Y-75486443D01*
X119354586Y-75557871D01*
X118997443Y-75557871D01*
X118854586Y-75486443D01*
X118783157Y-75415014D01*
X118711729Y-75272157D01*
X118711729Y-74915014D01*
X118783157Y-74772157D01*
X118854586Y-74700728D01*
X117727252Y-65373300D02*
X115227252Y-65373300D01*
X116417729Y-65373300D02*
X116417729Y-63944728D01*
X117727252Y-63944728D02*
X115227252Y-63944728D01*
X117727252Y-61682823D02*
X116417729Y-61682823D01*
X116179633Y-61801871D01*
X116060586Y-62039966D01*
X116060586Y-62516157D01*
X116179633Y-62754252D01*
X117608205Y-61682823D02*
X117727252Y-61920919D01*
X117727252Y-62516157D01*
X117608205Y-62754252D01*
X117370110Y-62873300D01*
X117132014Y-62873300D01*
X116893919Y-62754252D01*
X116774871Y-62516157D01*
X116774871Y-61920919D01*
X116655824Y-61682823D01*
X117727252Y-60135204D02*
X117608205Y-60373299D01*
X117370110Y-60492347D01*
X115227252Y-60492347D01*
X116060586Y-59539966D02*
X116060586Y-58587585D01*
X117727252Y-59182823D02*
X115584395Y-59182823D01*
X115346300Y-59063775D01*
X115227252Y-58825680D01*
X115227252Y-58587585D01*
X116774871Y-57754252D02*
X116774871Y-55849490D01*
X117727252Y-53587585D02*
X116417729Y-53587585D01*
X116179633Y-53706633D01*
X116060586Y-53944728D01*
X116060586Y-54420919D01*
X116179633Y-54659014D01*
X117608205Y-53587585D02*
X117727252Y-53825681D01*
X117727252Y-54420919D01*
X117608205Y-54659014D01*
X117370110Y-54778062D01*
X117132014Y-54778062D01*
X116893919Y-54659014D01*
X116774871Y-54420919D01*
X116774871Y-53825681D01*
X116655824Y-53587585D01*
X117727252Y-51325680D02*
X115227252Y-51325680D01*
X117608205Y-51325680D02*
X117727252Y-51563776D01*
X117727252Y-52039966D01*
X117608205Y-52278061D01*
X117489157Y-52397109D01*
X117251062Y-52516157D01*
X116536776Y-52516157D01*
X116298681Y-52397109D01*
X116179633Y-52278061D01*
X116060586Y-52039966D01*
X116060586Y-51563776D01*
X116179633Y-51325680D01*
X117727252Y-49063775D02*
X115227252Y-49063775D01*
X117608205Y-49063775D02*
X117727252Y-49301871D01*
X117727252Y-49778061D01*
X117608205Y-50016156D01*
X117489157Y-50135204D01*
X117251062Y-50254252D01*
X116536776Y-50254252D01*
X116298681Y-50135204D01*
X116179633Y-50016156D01*
X116060586Y-49778061D01*
X116060586Y-49301871D01*
X116179633Y-49063775D01*
X117608205Y-46920918D02*
X117727252Y-47159013D01*
X117727252Y-47635204D01*
X117608205Y-47873299D01*
X117370110Y-47992347D01*
X116417729Y-47992347D01*
X116179633Y-47873299D01*
X116060586Y-47635204D01*
X116060586Y-47159013D01*
X116179633Y-46920918D01*
X116417729Y-46801870D01*
X116655824Y-46801870D01*
X116893919Y-47992347D01*
X117727252Y-45730442D02*
X116060586Y-45730442D01*
X116536776Y-45730442D02*
X116298681Y-45611394D01*
X116179633Y-45492347D01*
X116060586Y-45254251D01*
X116060586Y-45016156D01*
D13*
X124470300Y-37339300D02*
X101864300Y-37339300D01*
X101864300Y-76201300D02*
X124470300Y-76201300D01*
D12*
X94249762Y-74557855D02*
X92249762Y-74557855D01*
X93678333Y-73957855D01*
X92249762Y-73357855D01*
X94249762Y-73357855D01*
X94154524Y-71814997D02*
X94249762Y-71986426D01*
X94249762Y-72329283D01*
X94154524Y-72500712D01*
X93964048Y-72586426D01*
X93202143Y-72586426D01*
X93011667Y-72500712D01*
X92916429Y-72329283D01*
X92916429Y-71986426D01*
X93011667Y-71814997D01*
X93202143Y-71729283D01*
X93392619Y-71729283D01*
X93583095Y-72586426D01*
X94249762Y-70957855D02*
X92916429Y-70957855D01*
X93106905Y-70957855D02*
X93011667Y-70872140D01*
X92916429Y-70700712D01*
X92916429Y-70443569D01*
X93011667Y-70272140D01*
X93202143Y-70186426D01*
X94249762Y-70186426D01*
X93202143Y-70186426D02*
X93011667Y-70100712D01*
X92916429Y-69929283D01*
X92916429Y-69672140D01*
X93011667Y-69500712D01*
X93202143Y-69414997D01*
X94249762Y-69414997D01*
X94249762Y-68300712D02*
X94154524Y-68472140D01*
X94059286Y-68557855D01*
X93868810Y-68643569D01*
X93297381Y-68643569D01*
X93106905Y-68557855D01*
X93011667Y-68472140D01*
X92916429Y-68300712D01*
X92916429Y-68043569D01*
X93011667Y-67872140D01*
X93106905Y-67786426D01*
X93297381Y-67700712D01*
X93868810Y-67700712D01*
X94059286Y-67786426D01*
X94154524Y-67872140D01*
X94249762Y-68043569D01*
X94249762Y-68300712D01*
X94249762Y-66929284D02*
X92916429Y-66929284D01*
X93297381Y-66929284D02*
X93106905Y-66843569D01*
X93011667Y-66757855D01*
X92916429Y-66586426D01*
X92916429Y-66414998D01*
X92916429Y-65986426D02*
X94249762Y-65557855D01*
X92916429Y-65129283D02*
X94249762Y-65557855D01*
X94725952Y-65729283D01*
X94821190Y-65814998D01*
X94916429Y-65986426D01*
X94249762Y-62814997D02*
X94154524Y-62986425D01*
X93964048Y-63072140D01*
X92249762Y-63072140D01*
X94249762Y-61357854D02*
X93202143Y-61357854D01*
X93011667Y-61443568D01*
X92916429Y-61614997D01*
X92916429Y-61957854D01*
X93011667Y-62129283D01*
X94154524Y-61357854D02*
X94249762Y-61529283D01*
X94249762Y-61957854D01*
X94154524Y-62129283D01*
X93964048Y-62214997D01*
X93773571Y-62214997D01*
X93583095Y-62129283D01*
X93487857Y-61957854D01*
X93487857Y-61529283D01*
X93392619Y-61357854D01*
X92916429Y-60757854D02*
X92916429Y-60072140D01*
X92249762Y-60500712D02*
X93964048Y-60500712D01*
X94154524Y-60414997D01*
X94249762Y-60243569D01*
X94249762Y-60072140D01*
X94154524Y-58700712D02*
X94249762Y-58872141D01*
X94249762Y-59214998D01*
X94154524Y-59386426D01*
X94059286Y-59472141D01*
X93868810Y-59557855D01*
X93297381Y-59557855D01*
X93106905Y-59472141D01*
X93011667Y-59386426D01*
X92916429Y-59214998D01*
X92916429Y-58872141D01*
X93011667Y-58700712D01*
X94249762Y-57929284D02*
X92249762Y-57929284D01*
X94249762Y-57157855D02*
X93202143Y-57157855D01*
X93011667Y-57243569D01*
X92916429Y-57414998D01*
X92916429Y-57672141D01*
X93011667Y-57843569D01*
X93106905Y-57929284D01*
X95011667Y-54414998D02*
X94916429Y-54500712D01*
X94630714Y-54672141D01*
X94440238Y-54757855D01*
X94154524Y-54843569D01*
X93678333Y-54929284D01*
X93297381Y-54929284D01*
X92821190Y-54843569D01*
X92535476Y-54757855D01*
X92345000Y-54672141D01*
X92059286Y-54500712D01*
X91964048Y-54414998D01*
X92916429Y-53986426D02*
X92916429Y-53300712D01*
X94249762Y-53729284D02*
X92535476Y-53729284D01*
X92345000Y-53643569D01*
X92249762Y-53472141D01*
X92249762Y-53300712D01*
X94249762Y-52443570D02*
X94154524Y-52614998D01*
X93964048Y-52700713D01*
X92249762Y-52700713D01*
X94249762Y-51757856D02*
X92916429Y-51757856D01*
X92249762Y-51757856D02*
X92345000Y-51843570D01*
X92440238Y-51757856D01*
X92345000Y-51672141D01*
X92249762Y-51757856D01*
X92440238Y-51757856D01*
X92916429Y-50900713D02*
X94916429Y-50900713D01*
X93011667Y-50900713D02*
X92916429Y-50729284D01*
X92916429Y-50386427D01*
X93011667Y-50214998D01*
X93106905Y-50129284D01*
X93297381Y-50043570D01*
X93868810Y-50043570D01*
X94059286Y-50129284D01*
X94154524Y-50214998D01*
X94249762Y-50386427D01*
X94249762Y-50729284D01*
X94154524Y-50900713D01*
X92916429Y-49529284D02*
X92916429Y-48843570D01*
X94249762Y-49272142D02*
X92535476Y-49272142D01*
X92345000Y-49186427D01*
X92249762Y-49014999D01*
X92249762Y-48843570D01*
X94249762Y-47986428D02*
X94154524Y-48157856D01*
X93964048Y-48243571D01*
X92249762Y-48243571D01*
X94249762Y-46529285D02*
X93202143Y-46529285D01*
X93011667Y-46614999D01*
X92916429Y-46786428D01*
X92916429Y-47129285D01*
X93011667Y-47300714D01*
X94154524Y-46529285D02*
X94249762Y-46700714D01*
X94249762Y-47129285D01*
X94154524Y-47300714D01*
X93964048Y-47386428D01*
X93773571Y-47386428D01*
X93583095Y-47300714D01*
X93487857Y-47129285D01*
X93487857Y-46700714D01*
X93392619Y-46529285D01*
X92916429Y-45672143D02*
X94916429Y-45672143D01*
X93011667Y-45672143D02*
X92916429Y-45500714D01*
X92916429Y-45157857D01*
X93011667Y-44986428D01*
X93106905Y-44900714D01*
X93297381Y-44815000D01*
X93868810Y-44815000D01*
X94059286Y-44900714D01*
X94154524Y-44986428D01*
X94249762Y-45157857D01*
X94249762Y-45500714D01*
X94154524Y-45672143D01*
X92916429Y-44300714D02*
X92916429Y-43615000D01*
X94249762Y-44043572D02*
X92535476Y-44043572D01*
X92345000Y-43957857D01*
X92249762Y-43786429D01*
X92249762Y-43615000D01*
X94249762Y-42757858D02*
X94154524Y-42929286D01*
X93964048Y-43015001D01*
X92249762Y-43015001D01*
X94249762Y-41815001D02*
X94154524Y-41986429D01*
X94059286Y-42072144D01*
X93868810Y-42157858D01*
X93297381Y-42157858D01*
X93106905Y-42072144D01*
X93011667Y-41986429D01*
X92916429Y-41815001D01*
X92916429Y-41557858D01*
X93011667Y-41386429D01*
X93106905Y-41300715D01*
X93297381Y-41215001D01*
X93868810Y-41215001D01*
X94059286Y-41300715D01*
X94154524Y-41386429D01*
X94249762Y-41557858D01*
X94249762Y-41815001D01*
X92916429Y-40443573D02*
X94916429Y-40443573D01*
X93011667Y-40443573D02*
X92916429Y-40272144D01*
X92916429Y-39929287D01*
X93011667Y-39757858D01*
X93106905Y-39672144D01*
X93297381Y-39586430D01*
X93868810Y-39586430D01*
X94059286Y-39672144D01*
X94154524Y-39757858D01*
X94249762Y-39929287D01*
X94249762Y-40272144D01*
X94154524Y-40443573D01*
X95011667Y-38986430D02*
X94916429Y-38900716D01*
X94630714Y-38729287D01*
X94440238Y-38643573D01*
X94154524Y-38557859D01*
X93678333Y-38472144D01*
X93297381Y-38472144D01*
X92821190Y-38557859D01*
X92535476Y-38643573D01*
X92345000Y-38729287D01*
X92059286Y-38900716D01*
X91964048Y-38986430D01*
D13*
X100594300Y-76201300D02*
X86624300Y-76201300D01*
X86624300Y-37339300D02*
X100594300Y-37339300D01*
X91140681Y-42696824D02*
X90474014Y-42696824D01*
X90569252Y-42696824D02*
X90521633Y-42649205D01*
X90474014Y-42553967D01*
X90474014Y-42411109D01*
X90521633Y-42315871D01*
X90616871Y-42268252D01*
X91140681Y-42268252D01*
X90616871Y-42268252D02*
X90521633Y-42220633D01*
X90474014Y-42125395D01*
X90474014Y-41982538D01*
X90521633Y-41887300D01*
X90616871Y-41839681D01*
X91140681Y-41839681D01*
X91140681Y-40934919D02*
X90616871Y-40934919D01*
X90521633Y-40982538D01*
X90474014Y-41077776D01*
X90474014Y-41268253D01*
X90521633Y-41363491D01*
X91093062Y-40934919D02*
X91140681Y-41030157D01*
X91140681Y-41268253D01*
X91093062Y-41363491D01*
X90997824Y-41411110D01*
X90902586Y-41411110D01*
X90807348Y-41363491D01*
X90759729Y-41268253D01*
X90759729Y-41030157D01*
X90712110Y-40934919D01*
X91093062Y-40506348D02*
X91140681Y-40411110D01*
X91140681Y-40220634D01*
X91093062Y-40125395D01*
X90997824Y-40077776D01*
X90950205Y-40077776D01*
X90854967Y-40125395D01*
X90807348Y-40220634D01*
X90807348Y-40363491D01*
X90759729Y-40458729D01*
X90664490Y-40506348D01*
X90616871Y-40506348D01*
X90521633Y-40458729D01*
X90474014Y-40363491D01*
X90474014Y-40220634D01*
X90521633Y-40125395D01*
X90474014Y-39792062D02*
X90474014Y-39411110D01*
X90140681Y-39649205D02*
X90997824Y-39649205D01*
X91093062Y-39601586D01*
X91140681Y-39506348D01*
X91140681Y-39411110D01*
X91093062Y-38696823D02*
X91140681Y-38792061D01*
X91140681Y-38982538D01*
X91093062Y-39077776D01*
X90997824Y-39125395D01*
X90616871Y-39125395D01*
X90521633Y-39077776D01*
X90474014Y-38982538D01*
X90474014Y-38792061D01*
X90521633Y-38696823D01*
X90616871Y-38649204D01*
X90712110Y-38649204D01*
X90807348Y-39125395D01*
X91140681Y-38220633D02*
X90474014Y-38220633D01*
X90664490Y-38220633D02*
X90569252Y-38173014D01*
X90521633Y-38125395D01*
X90474014Y-38030157D01*
X90474014Y-37934918D01*
D14*
X80664300Y-86891300D02*
X83324300Y-86891300D01*
X80664300Y-81751300D02*
X80664300Y-86891300D01*
X83324300Y-81751300D02*
X83324300Y-86891300D01*
X80664300Y-81751300D02*
X83324300Y-81751300D01*
X80664300Y-80481300D02*
X80664300Y-79151300D01*
X80664300Y-79151300D02*
X81994300Y-79151300D01*
X40024300Y-86891300D02*
X42684300Y-86891300D01*
X40024300Y-81751300D02*
X40024300Y-86891300D01*
X42684300Y-81751300D02*
X42684300Y-86891300D01*
X40024300Y-81751300D02*
X42684300Y-81751300D01*
X40024300Y-80481300D02*
X40024300Y-79151300D01*
X40024300Y-79151300D02*
X41354300Y-79151300D01*
X50304300Y-79271300D02*
X50304300Y-76611300D01*
X47704300Y-79271300D02*
X50304300Y-79271300D01*
X47704300Y-76611300D02*
X50304300Y-76611300D01*
X47704300Y-79271300D02*
X47704300Y-76611300D01*
X46434300Y-79271300D02*
X45104300Y-79271300D01*
X45104300Y-79271300D02*
X45104300Y-77941300D01*
X83324300Y-118521300D02*
X80664300Y-118521300D01*
X83324300Y-123661300D02*
X83324300Y-118521300D01*
X80664300Y-123661300D02*
X80664300Y-118521300D01*
X83324300Y-123661300D02*
X80664300Y-123661300D01*
X83324300Y-124931300D02*
X83324300Y-126261300D01*
X83324300Y-126261300D02*
X81994300Y-126261300D01*
X42684300Y-118521300D02*
X40024300Y-118521300D01*
X42684300Y-123661300D02*
X42684300Y-118521300D01*
X40024300Y-123661300D02*
X40024300Y-118521300D01*
X42684300Y-123661300D02*
X40024300Y-123661300D01*
X42684300Y-124931300D02*
X42684300Y-126261300D01*
X42684300Y-126261300D02*
X41354300Y-126261300D01*
X43139300Y-90641300D02*
X43139300Y-126321300D01*
X43139300Y-126321300D02*
X45919300Y-126321300D01*
X45919300Y-126321300D02*
X45919300Y-90641300D01*
X45919300Y-90641300D02*
X43139300Y-90641300D01*
X43139300Y-89371300D02*
X43139300Y-87981300D01*
X43139300Y-87981300D02*
X44529300Y-87981300D01*
X52664300Y-90641300D02*
X52664300Y-126321300D01*
X52664300Y-126321300D02*
X55444300Y-126321300D01*
X55444300Y-126321300D02*
X55444300Y-90641300D01*
X55444300Y-90641300D02*
X52664300Y-90641300D01*
X52664300Y-89371300D02*
X52664300Y-87981300D01*
X52664300Y-87981300D02*
X54054300Y-87981300D01*
X59014300Y-90641300D02*
X59014300Y-126321300D01*
X59014300Y-126321300D02*
X61794300Y-126321300D01*
X61794300Y-126321300D02*
X61794300Y-90641300D01*
X61794300Y-90641300D02*
X59014300Y-90641300D01*
X59014300Y-89371300D02*
X59014300Y-87981300D01*
X59014300Y-87981300D02*
X60404300Y-87981300D01*
X66634300Y-90641300D02*
X66634300Y-126321300D01*
X66634300Y-126321300D02*
X69414300Y-126321300D01*
X69414300Y-126321300D02*
X69414300Y-90641300D01*
X69414300Y-90641300D02*
X66634300Y-90641300D01*
X66634300Y-89371300D02*
X66634300Y-87981300D01*
X66634300Y-87981300D02*
X68024300Y-87981300D01*
X76794300Y-90641300D02*
X76794300Y-126321300D01*
X76794300Y-126321300D02*
X79574300Y-126321300D01*
X79574300Y-126321300D02*
X79574300Y-90641300D01*
X79574300Y-90641300D02*
X76794300Y-90641300D01*
X76794300Y-89371300D02*
X76794300Y-87981300D01*
X76794300Y-87981300D02*
X78184300Y-87981300D01*
D15*
X71508412Y-83911204D02*
G75*
G03X71493300Y-80886300I2484888J1524904D01*
G01*
X71493300Y-83886300D02*
X71493300Y-80886300D01*
X76511236Y-82386300D02*
G75*
G03X76511236Y-82386300I-2517936J0D01*
G01*
X115508412Y-83911204D02*
G75*
G03X115493300Y-80886300I2484888J1524904D01*
G01*
X115493300Y-83886300D02*
X115493300Y-80886300D01*
X120511236Y-82386300D02*
G75*
G03X120511236Y-82386300I-2517936J0D01*
G01*
D14*
X120794300Y-90641300D02*
X120794300Y-126321300D01*
X120794300Y-126321300D02*
X123574300Y-126321300D01*
X123574300Y-126321300D02*
X123574300Y-90641300D01*
X123574300Y-90641300D02*
X120794300Y-90641300D01*
X120794300Y-89371300D02*
X120794300Y-87981300D01*
X120794300Y-87981300D02*
X122184300Y-87981300D01*
X110634300Y-90641300D02*
X110634300Y-126321300D01*
X110634300Y-126321300D02*
X113414300Y-126321300D01*
X113414300Y-126321300D02*
X113414300Y-90641300D01*
X113414300Y-90641300D02*
X110634300Y-90641300D01*
X110634300Y-89371300D02*
X110634300Y-87981300D01*
X110634300Y-87981300D02*
X112024300Y-87981300D01*
X103014300Y-90641300D02*
X103014300Y-126321300D01*
X103014300Y-126321300D02*
X105794300Y-126321300D01*
X105794300Y-126321300D02*
X105794300Y-90641300D01*
X105794300Y-90641300D02*
X103014300Y-90641300D01*
X103014300Y-89371300D02*
X103014300Y-87981300D01*
X103014300Y-87981300D02*
X104404300Y-87981300D01*
X96664300Y-90641300D02*
X96664300Y-126321300D01*
X96664300Y-126321300D02*
X99444300Y-126321300D01*
X99444300Y-126321300D02*
X99444300Y-90641300D01*
X99444300Y-90641300D02*
X96664300Y-90641300D01*
X96664300Y-89371300D02*
X96664300Y-87981300D01*
X96664300Y-87981300D02*
X98054300Y-87981300D01*
X87139300Y-90641300D02*
X87139300Y-126321300D01*
X87139300Y-126321300D02*
X89919300Y-126321300D01*
X89919300Y-126321300D02*
X89919300Y-90641300D01*
X89919300Y-90641300D02*
X87139300Y-90641300D01*
X87139300Y-89371300D02*
X87139300Y-87981300D01*
X87139300Y-87981300D02*
X88529300Y-87981300D01*
X86684300Y-118521300D02*
X84024300Y-118521300D01*
X86684300Y-123661300D02*
X86684300Y-118521300D01*
X84024300Y-123661300D02*
X84024300Y-118521300D01*
X86684300Y-123661300D02*
X84024300Y-123661300D01*
X86684300Y-124931300D02*
X86684300Y-126261300D01*
X86684300Y-126261300D02*
X85354300Y-126261300D01*
X127324300Y-118521300D02*
X124664300Y-118521300D01*
X127324300Y-123661300D02*
X127324300Y-118521300D01*
X124664300Y-123661300D02*
X124664300Y-118521300D01*
X127324300Y-123661300D02*
X124664300Y-123661300D01*
X127324300Y-124931300D02*
X127324300Y-126261300D01*
X127324300Y-126261300D02*
X125994300Y-126261300D01*
X94304300Y-79271300D02*
X94304300Y-76611300D01*
X91704300Y-79271300D02*
X94304300Y-79271300D01*
X91704300Y-76611300D02*
X94304300Y-76611300D01*
X91704300Y-79271300D02*
X91704300Y-76611300D01*
X90434300Y-79271300D02*
X89104300Y-79271300D01*
X89104300Y-79271300D02*
X89104300Y-77941300D01*
X84024300Y-86891300D02*
X86684300Y-86891300D01*
X84024300Y-81751300D02*
X84024300Y-86891300D01*
X86684300Y-81751300D02*
X86684300Y-86891300D01*
X84024300Y-81751300D02*
X86684300Y-81751300D01*
X84024300Y-80481300D02*
X84024300Y-79151300D01*
X84024300Y-79151300D02*
X85354300Y-79151300D01*
X124664300Y-86891300D02*
X127324300Y-86891300D01*
X124664300Y-81751300D02*
X124664300Y-86891300D01*
X127324300Y-81751300D02*
X127324300Y-86891300D01*
X124664300Y-81751300D02*
X127324300Y-81751300D01*
X124664300Y-80481300D02*
X124664300Y-79151300D01*
X124664300Y-79151300D02*
X125994300Y-79151300D01*
X124664300Y-36891300D02*
X127324300Y-36891300D01*
X124664300Y-31751300D02*
X124664300Y-36891300D01*
X127324300Y-31751300D02*
X127324300Y-36891300D01*
X124664300Y-31751300D02*
X127324300Y-31751300D01*
X124664300Y-30481300D02*
X124664300Y-29151300D01*
X124664300Y-29151300D02*
X125994300Y-29151300D01*
X84024300Y-36891300D02*
X86684300Y-36891300D01*
X84024300Y-31751300D02*
X84024300Y-36891300D01*
X86684300Y-31751300D02*
X86684300Y-36891300D01*
X84024300Y-31751300D02*
X86684300Y-31751300D01*
X84024300Y-30481300D02*
X84024300Y-29151300D01*
X84024300Y-29151300D02*
X85354300Y-29151300D01*
X94304300Y-29271300D02*
X94304300Y-26611300D01*
X91704300Y-29271300D02*
X94304300Y-29271300D01*
X91704300Y-26611300D02*
X94304300Y-26611300D01*
X91704300Y-29271300D02*
X91704300Y-26611300D01*
X90434300Y-29271300D02*
X89104300Y-29271300D01*
X89104300Y-29271300D02*
X89104300Y-27941300D01*
X127324300Y-68521300D02*
X124664300Y-68521300D01*
X127324300Y-73661300D02*
X127324300Y-68521300D01*
X124664300Y-73661300D02*
X124664300Y-68521300D01*
X127324300Y-73661300D02*
X124664300Y-73661300D01*
X127324300Y-74931300D02*
X127324300Y-76261300D01*
X127324300Y-76261300D02*
X125994300Y-76261300D01*
X86684300Y-68521300D02*
X84024300Y-68521300D01*
X86684300Y-73661300D02*
X86684300Y-68521300D01*
X84024300Y-73661300D02*
X84024300Y-68521300D01*
X86684300Y-73661300D02*
X84024300Y-73661300D01*
X86684300Y-74931300D02*
X86684300Y-76261300D01*
X86684300Y-76261300D02*
X85354300Y-76261300D01*
X87139300Y-40641300D02*
X87139300Y-76321300D01*
X87139300Y-76321300D02*
X89919300Y-76321300D01*
X89919300Y-76321300D02*
X89919300Y-40641300D01*
X89919300Y-40641300D02*
X87139300Y-40641300D01*
X87139300Y-39371300D02*
X87139300Y-37981300D01*
X87139300Y-37981300D02*
X88529300Y-37981300D01*
X96664300Y-40641300D02*
X96664300Y-76321300D01*
X96664300Y-76321300D02*
X99444300Y-76321300D01*
X99444300Y-76321300D02*
X99444300Y-40641300D01*
X99444300Y-40641300D02*
X96664300Y-40641300D01*
X96664300Y-39371300D02*
X96664300Y-37981300D01*
X96664300Y-37981300D02*
X98054300Y-37981300D01*
X103014300Y-40641300D02*
X103014300Y-76321300D01*
X103014300Y-76321300D02*
X105794300Y-76321300D01*
X105794300Y-76321300D02*
X105794300Y-40641300D01*
X105794300Y-40641300D02*
X103014300Y-40641300D01*
X103014300Y-39371300D02*
X103014300Y-37981300D01*
X103014300Y-37981300D02*
X104404300Y-37981300D01*
X110634300Y-40641300D02*
X110634300Y-76321300D01*
X110634300Y-76321300D02*
X113414300Y-76321300D01*
X113414300Y-76321300D02*
X113414300Y-40641300D01*
X113414300Y-40641300D02*
X110634300Y-40641300D01*
X110634300Y-39371300D02*
X110634300Y-37981300D01*
X110634300Y-37981300D02*
X112024300Y-37981300D01*
X120794300Y-40641300D02*
X120794300Y-76321300D01*
X120794300Y-76321300D02*
X123574300Y-76321300D01*
X123574300Y-76321300D02*
X123574300Y-40641300D01*
X123574300Y-40641300D02*
X120794300Y-40641300D01*
X120794300Y-39371300D02*
X120794300Y-37981300D01*
X120794300Y-37981300D02*
X122184300Y-37981300D01*
D15*
X115508412Y-33911204D02*
G75*
G03X115493300Y-30886300I2484888J1524904D01*
G01*
X115493300Y-33886300D02*
X115493300Y-30886300D01*
X120511236Y-32386300D02*
G75*
G03X120511236Y-32386300I-2517936J0D01*
G01*
X63480000Y-29520000D02*
X60940000Y-29520000D01*
X66300000Y-29800000D02*
X64750000Y-29800000D01*
X63480000Y-29520000D02*
X63480000Y-26980000D01*
X64750000Y-26700000D02*
X66300000Y-26700000D01*
X66300000Y-26700000D02*
X66300000Y-29800000D01*
X63480000Y-26980000D02*
X60940000Y-26980000D01*
X60940000Y-26980000D02*
X60940000Y-29520000D01*
X83185000Y-34290000D02*
X83185000Y-29210000D01*
X83185000Y-29210000D02*
X80645000Y-29210000D01*
X80645000Y-29210000D02*
X80645000Y-34290000D01*
X80365000Y-37110000D02*
X80365000Y-35560000D01*
X80645000Y-34290000D02*
X83185000Y-34290000D01*
X83465000Y-35560000D02*
X83465000Y-37110000D01*
X83465000Y-37110000D02*
X80365000Y-37110000D01*
D14*
X60840000Y-40640000D02*
X60840000Y-76320000D01*
X60840000Y-76320000D02*
X63620000Y-76320000D01*
X63620000Y-76320000D02*
X63620000Y-40640000D01*
X63620000Y-40640000D02*
X60840000Y-40640000D01*
X60840000Y-39370000D02*
X60840000Y-37980000D01*
X60840000Y-37980000D02*
X62230000Y-37980000D01*
X72905000Y-40640000D02*
X72905000Y-76320000D01*
X72905000Y-76320000D02*
X75685000Y-76320000D01*
X75685000Y-76320000D02*
X75685000Y-40640000D01*
X75685000Y-40640000D02*
X72905000Y-40640000D01*
X72905000Y-39370000D02*
X72905000Y-37980000D01*
X72905000Y-37980000D02*
X74295000Y-37980000D01*
D15*
X83185000Y-73660000D02*
X83185000Y-68580000D01*
X83185000Y-68580000D02*
X80645000Y-68580000D01*
X80645000Y-68580000D02*
X80645000Y-73660000D01*
X80365000Y-76480000D02*
X80365000Y-74930000D01*
X80645000Y-73660000D02*
X83185000Y-73660000D01*
X83465000Y-74930000D02*
X83465000Y-76480000D01*
X83465000Y-76480000D02*
X80365000Y-76480000D01*
X59055000Y-73660000D02*
X59055000Y-68580000D01*
X59055000Y-68580000D02*
X56515000Y-68580000D01*
X56515000Y-68580000D02*
X56515000Y-73660000D01*
X56235000Y-76480000D02*
X56235000Y-74930000D01*
X56515000Y-73660000D02*
X59055000Y-73660000D01*
X59335000Y-74930000D02*
X59335000Y-76480000D01*
X59335000Y-76480000D02*
X56235000Y-76480000D01*
M02*
