G04 #@! TF.FileFunction,Soldermask,Top*
%FSLAX46Y46*%
G04 Gerber Fmt 4.6, Leading zero omitted, Abs format (unit mm)*
G04 Created by KiCad (PCBNEW 4.0.5) date 03/25/17 21:50:00*
%MOMM*%
%LPD*%
G01*
G04 APERTURE LIST*
%ADD10C,0.100000*%
%ADD11R,2.127200X2.432000*%
%ADD12O,2.127200X2.432000*%
%ADD13R,0.908000X1.543000*%
%ADD14R,1.543000X0.908000*%
%ADD15R,2.432000X1.924000*%
%ADD16R,1.924000X2.432000*%
%ADD17C,3.575000*%
%ADD18C,1.200000*%
%ADD19C,2.400000*%
%ADD20C,1.900000*%
G04 APERTURE END LIST*
D10*
D11*
X71247000Y-50609500D03*
D12*
X68707000Y-50609500D03*
X66167000Y-50609500D03*
D11*
X86487000Y-50609500D03*
D12*
X83947000Y-50609500D03*
X81407000Y-50609500D03*
X78867000Y-50609500D03*
X76327000Y-50609500D03*
D11*
X101727000Y-50609500D03*
D12*
X99187000Y-50609500D03*
X96647000Y-50609500D03*
X94107000Y-50609500D03*
X91567000Y-50609500D03*
D13*
X88392000Y-65214500D03*
X85852000Y-65214500D03*
X84582000Y-65214500D03*
X83312000Y-65214500D03*
X82042000Y-65214500D03*
X80772000Y-65214500D03*
X79502000Y-65214500D03*
X79502000Y-58864500D03*
X80772000Y-58864500D03*
X82042000Y-58864500D03*
X83312000Y-58864500D03*
X84582000Y-58864500D03*
X85852000Y-58864500D03*
X87122000Y-58864500D03*
X88392000Y-58864500D03*
X87122000Y-65214500D03*
D14*
X93472000Y-81724500D03*
X93472000Y-79184500D03*
X93472000Y-77914500D03*
X93472000Y-76644500D03*
X93472000Y-75374500D03*
X93472000Y-74104500D03*
X93472000Y-72834500D03*
X99822000Y-72834500D03*
X99822000Y-74104500D03*
X99822000Y-75374500D03*
X99822000Y-76644500D03*
X99822000Y-77914500D03*
X99822000Y-79184500D03*
X99822000Y-80454500D03*
X99822000Y-81724500D03*
X93472000Y-80454500D03*
D15*
X87122000Y-71310500D03*
X87122000Y-68008500D03*
X82677000Y-68008500D03*
X82677000Y-71310500D03*
D16*
X87376000Y-78549500D03*
X90678000Y-78549500D03*
X90043000Y-74104500D03*
X86741000Y-74104500D03*
D17*
X96647000Y-85217000D03*
D18*
X87757000Y-82486500D03*
X90297000Y-85026500D03*
X89027000Y-83756500D03*
X91567000Y-86296500D03*
X92837000Y-87566500D03*
X86487000Y-81216500D03*
X85217000Y-79946500D03*
X83947000Y-78676500D03*
X82677000Y-77406500D03*
X81407000Y-76136500D03*
X80137000Y-74866500D03*
X78867000Y-73596500D03*
X77597000Y-72326500D03*
X76327000Y-71056500D03*
X75057000Y-69786500D03*
X73787000Y-68516500D03*
X72517000Y-67246500D03*
X71247000Y-65976500D03*
X69977000Y-64706500D03*
X68707000Y-63436500D03*
X67437000Y-62166500D03*
X66167000Y-60896500D03*
X64897000Y-59626500D03*
D17*
X61087000Y-61849000D03*
D16*
X67691000Y-72961500D03*
X70993000Y-72961500D03*
X70358000Y-68516500D03*
X67056000Y-68516500D03*
D15*
X75057000Y-79057500D03*
X75057000Y-75755500D03*
X70612000Y-75755500D03*
X70612000Y-79057500D03*
D14*
X64262000Y-65341500D03*
X64262000Y-67881500D03*
X64262000Y-69151500D03*
X64262000Y-70421500D03*
X64262000Y-71691500D03*
X64262000Y-72961500D03*
X64262000Y-74231500D03*
X57912000Y-74231500D03*
X57912000Y-72961500D03*
X57912000Y-71691500D03*
X57912000Y-70421500D03*
X57912000Y-69151500D03*
X57912000Y-67881500D03*
X57912000Y-66611500D03*
X57912000Y-65341500D03*
X64262000Y-66611500D03*
D13*
X69342000Y-81851500D03*
X71882000Y-81851500D03*
X73152000Y-81851500D03*
X74422000Y-81851500D03*
X75692000Y-81851500D03*
X76962000Y-81851500D03*
X78232000Y-81851500D03*
X78232000Y-88201500D03*
X76962000Y-88201500D03*
X75692000Y-88201500D03*
X74422000Y-88201500D03*
X73152000Y-88201500D03*
X71882000Y-88201500D03*
X70612000Y-88201500D03*
X69342000Y-88201500D03*
X70612000Y-81851500D03*
D11*
X56007000Y-96456500D03*
D12*
X58547000Y-96456500D03*
X61087000Y-96456500D03*
X63627000Y-96456500D03*
X66167000Y-96456500D03*
D11*
X71247000Y-96456500D03*
D12*
X73787000Y-96456500D03*
X76327000Y-96456500D03*
X78867000Y-96456500D03*
X81407000Y-96456500D03*
D11*
X86487000Y-96456500D03*
D12*
X89027000Y-96456500D03*
X91567000Y-96456500D03*
D19*
X89916000Y-71564500D03*
X83947000Y-74104500D03*
X66167000Y-53784500D03*
X79502000Y-67754500D03*
X78232000Y-79311500D03*
X91567000Y-93281500D03*
X73787000Y-72961500D03*
X67818000Y-75501500D03*
X68707000Y-53784500D03*
X89027000Y-93281500D03*
X71247000Y-53784500D03*
X90297000Y-81724500D03*
X89916000Y-69024500D03*
X67818000Y-78041500D03*
X67437000Y-65341500D03*
X86487000Y-93281500D03*
D20*
X86487000Y-53784500D03*
X71247000Y-93281500D03*
X76327000Y-53784500D03*
X98425000Y-58483500D03*
X59309000Y-88582500D03*
X81407000Y-93281500D03*
X83947000Y-53784500D03*
X95504000Y-58229500D03*
X62230000Y-88836500D03*
X73787000Y-93281500D03*
X99187000Y-53784500D03*
X58547000Y-93281500D03*
X91567000Y-53784500D03*
X66167000Y-93281500D03*
X101727000Y-53784500D03*
X91948000Y-68008500D03*
X102235000Y-81915000D03*
X55499000Y-65151000D03*
X65786000Y-79057500D03*
X56007000Y-93281500D03*
X94107000Y-53784500D03*
X90297000Y-66484500D03*
X67437000Y-80581500D03*
X63627000Y-93281500D03*
X78867000Y-53784500D03*
X78867000Y-93281500D03*
X81407000Y-53784500D03*
X82169000Y-56832500D03*
X75565000Y-90233500D03*
X76327000Y-93281500D03*
X96647000Y-53784500D03*
X97536000Y-67500500D03*
X60198000Y-79565500D03*
X61087000Y-93281500D03*
M02*
