M48
METRIC,TZ
T1C0.500
T2C0.800
T3C1.016
T4C0.800
T5C3.175
%
G90
G05
T1
X55499Y-65151
X56007Y-93282
X58547Y-93282
X59309Y-88583
X60198Y-79566
X61087Y-93282
X62230Y-88837
X63627Y-93282
X65786Y-79057
X66167Y-93282
X67437Y-80582
X71247Y-93282
X73787Y-93282
X75565Y-90233
X76327Y-53784
X76327Y-93282
X78867Y-53784
X78867Y-93282
X81407Y-53784
X81407Y-93282
X82169Y-56832
X83947Y-53784
X86487Y-53784
X90297Y-66485
X91567Y-53784
X91948Y-68009
X94107Y-53784
X95504Y-58230
X96647Y-53784
X97536Y-67501
X98425Y-58484
X99187Y-53784
X101727Y-53784
X102235Y-81915
T2
X66167Y-53784
X67437Y-65342
X67818Y-75501
X67818Y-78042
X68707Y-53784
X71247Y-53784
X73787Y-72962
X78232Y-79312
X79502Y-67755
X83947Y-74105
X86487Y-93282
X89027Y-93282
X89916Y-69025
X89916Y-71565
X90297Y-81724
X91567Y-93282
T3
X56007Y-96457
X58547Y-96457
X61087Y-96457
X63627Y-96457
X66167Y-50610
X66167Y-96457
X68707Y-50610
X71247Y-50610
X71247Y-96457
X73787Y-96457
X76327Y-50610
X76327Y-96457
X78867Y-50610
X78867Y-96457
X81407Y-50610
X81407Y-96457
X83947Y-50610
X86487Y-50610
X86487Y-96457
X89027Y-96457
X91567Y-50610
X91567Y-96457
X94107Y-50610
X96647Y-50610
X99187Y-50610
X101727Y-50610
T4
X64897Y-59627
X66167Y-60897
X67437Y-62167
X68707Y-63437
X69977Y-64707
X71247Y-65977
X72517Y-67247
X73787Y-68517
X75057Y-69787
X76327Y-71057
X77597Y-72327
X78867Y-73597
X80137Y-74867
X81407Y-76137
X82677Y-77407
X83947Y-78676
X85217Y-79947
X86487Y-81217
X87757Y-82487
X89027Y-83757
X90297Y-85027
X91567Y-86297
X92837Y-87567
T5
X61087Y-61849
X96647Y-85217
T0
M30
