G04 #@! TF.FileFunction,Copper,L1,Top,Signal*
%FSLAX46Y46*%
G04 Gerber Fmt 4.6, Leading zero omitted, Abs format (unit mm)*
G04 Created by KiCad (PCBNEW 4.0.5) date 03/25/17 21:50:00*
%MOMM*%
%LPD*%
G01*
G04 APERTURE LIST*
%ADD10C,0.100000*%
%ADD11R,1.727200X2.032000*%
%ADD12O,1.727200X2.032000*%
%ADD13R,0.508000X1.143000*%
%ADD14R,1.143000X0.508000*%
%ADD15R,2.032000X1.524000*%
%ADD16R,1.524000X2.032000*%
%ADD17C,2.000000*%
%ADD18C,1.500000*%
%ADD19C,0.500000*%
%ADD20C,0.600000*%
G04 APERTURE END LIST*
D10*
D11*
X71247000Y-50609500D03*
D12*
X68707000Y-50609500D03*
X66167000Y-50609500D03*
D11*
X86487000Y-50609500D03*
D12*
X83947000Y-50609500D03*
X81407000Y-50609500D03*
X78867000Y-50609500D03*
X76327000Y-50609500D03*
D11*
X101727000Y-50609500D03*
D12*
X99187000Y-50609500D03*
X96647000Y-50609500D03*
X94107000Y-50609500D03*
X91567000Y-50609500D03*
D13*
X88392000Y-65214500D03*
X85852000Y-65214500D03*
X84582000Y-65214500D03*
X83312000Y-65214500D03*
X82042000Y-65214500D03*
X80772000Y-65214500D03*
X79502000Y-65214500D03*
X79502000Y-58864500D03*
X80772000Y-58864500D03*
X82042000Y-58864500D03*
X83312000Y-58864500D03*
X84582000Y-58864500D03*
X85852000Y-58864500D03*
X87122000Y-58864500D03*
X88392000Y-58864500D03*
X87122000Y-65214500D03*
D14*
X93472000Y-81724500D03*
X93472000Y-79184500D03*
X93472000Y-77914500D03*
X93472000Y-76644500D03*
X93472000Y-75374500D03*
X93472000Y-74104500D03*
X93472000Y-72834500D03*
X99822000Y-72834500D03*
X99822000Y-74104500D03*
X99822000Y-75374500D03*
X99822000Y-76644500D03*
X99822000Y-77914500D03*
X99822000Y-79184500D03*
X99822000Y-80454500D03*
X99822000Y-81724500D03*
X93472000Y-80454500D03*
D15*
X87122000Y-71310500D03*
X87122000Y-68008500D03*
X82677000Y-68008500D03*
X82677000Y-71310500D03*
D16*
X87376000Y-78549500D03*
X90678000Y-78549500D03*
X90043000Y-74104500D03*
X86741000Y-74104500D03*
X67691000Y-72961500D03*
X70993000Y-72961500D03*
X70358000Y-68516500D03*
X67056000Y-68516500D03*
D15*
X75057000Y-79057500D03*
X75057000Y-75755500D03*
X70612000Y-75755500D03*
X70612000Y-79057500D03*
D14*
X64262000Y-65341500D03*
X64262000Y-67881500D03*
X64262000Y-69151500D03*
X64262000Y-70421500D03*
X64262000Y-71691500D03*
X64262000Y-72961500D03*
X64262000Y-74231500D03*
X57912000Y-74231500D03*
X57912000Y-72961500D03*
X57912000Y-71691500D03*
X57912000Y-70421500D03*
X57912000Y-69151500D03*
X57912000Y-67881500D03*
X57912000Y-66611500D03*
X57912000Y-65341500D03*
X64262000Y-66611500D03*
D13*
X69342000Y-81851500D03*
X71882000Y-81851500D03*
X73152000Y-81851500D03*
X74422000Y-81851500D03*
X75692000Y-81851500D03*
X76962000Y-81851500D03*
X78232000Y-81851500D03*
X78232000Y-88201500D03*
X76962000Y-88201500D03*
X75692000Y-88201500D03*
X74422000Y-88201500D03*
X73152000Y-88201500D03*
X71882000Y-88201500D03*
X70612000Y-88201500D03*
X69342000Y-88201500D03*
X70612000Y-81851500D03*
D11*
X56007000Y-96456500D03*
D12*
X58547000Y-96456500D03*
X61087000Y-96456500D03*
X63627000Y-96456500D03*
X66167000Y-96456500D03*
D11*
X71247000Y-96456500D03*
D12*
X73787000Y-96456500D03*
X76327000Y-96456500D03*
X78867000Y-96456500D03*
X81407000Y-96456500D03*
D11*
X86487000Y-96456500D03*
D12*
X89027000Y-96456500D03*
X91567000Y-96456500D03*
D17*
X89916000Y-71564500D03*
X83947000Y-74104500D03*
X66167000Y-53784500D03*
X79502000Y-67754500D03*
X78232000Y-79311500D03*
X91567000Y-93281500D03*
X73787000Y-72961500D03*
X67818000Y-75501500D03*
X68707000Y-53784500D03*
X89027000Y-93281500D03*
X71247000Y-53784500D03*
X90297000Y-81724500D03*
X89916000Y-69024500D03*
X67818000Y-78041500D03*
X67437000Y-65341500D03*
X86487000Y-93281500D03*
D18*
X86487000Y-53784500D03*
X71247000Y-93281500D03*
X76327000Y-53784500D03*
X98425000Y-58483500D03*
X59309000Y-88582500D03*
X81407000Y-93281500D03*
X83947000Y-53784500D03*
X95504000Y-58229500D03*
X62230000Y-88836500D03*
X73787000Y-93281500D03*
X99187000Y-53784500D03*
X58547000Y-93281500D03*
X91567000Y-53784500D03*
X66167000Y-93281500D03*
X101727000Y-53784500D03*
X91948000Y-68008500D03*
X102235000Y-81915000D03*
X55499000Y-65151000D03*
X65786000Y-79057500D03*
X56007000Y-93281500D03*
X94107000Y-53784500D03*
X90297000Y-66484500D03*
X67437000Y-80581500D03*
X63627000Y-93281500D03*
X78867000Y-53784500D03*
X78867000Y-93281500D03*
X81407000Y-53784500D03*
X82169000Y-56832500D03*
X75565000Y-90233500D03*
X76327000Y-93281500D03*
X96647000Y-53784500D03*
X97536000Y-67500500D03*
X60198000Y-79565500D03*
X61087000Y-93281500D03*
D19*
X88392000Y-57594500D02*
X87757000Y-56959500D01*
X87757000Y-56959500D02*
X86487000Y-56959500D01*
X86487000Y-56959500D02*
X85852000Y-57594500D01*
X85852000Y-57594500D02*
X85852000Y-58864500D01*
X88392000Y-58864500D02*
X88392000Y-57594500D01*
X88900000Y-57594500D02*
X96012000Y-64706500D01*
X96012000Y-64706500D02*
X96012000Y-70929500D01*
X96012000Y-70929500D02*
X95377000Y-71564500D01*
X95377000Y-71564500D02*
X95377000Y-81089500D01*
X95377000Y-81089500D02*
X94742000Y-81724500D01*
X94742000Y-81724500D02*
X93472000Y-81724500D01*
X88392000Y-57594500D02*
X88900000Y-57594500D01*
X69342000Y-89471500D02*
X68834000Y-89471500D01*
X62992000Y-65341500D02*
X64262000Y-65341500D01*
X62357000Y-65976500D02*
X62992000Y-65341500D01*
X62357000Y-75501500D02*
X62357000Y-65976500D01*
X61722000Y-76136500D02*
X62357000Y-75501500D01*
X61722000Y-82359500D02*
X61722000Y-76136500D01*
X68834000Y-89471500D02*
X61722000Y-82359500D01*
X69342000Y-88201500D02*
X69342000Y-89471500D01*
X71882000Y-89471500D02*
X71882000Y-88201500D01*
X71247000Y-90106500D02*
X71882000Y-89471500D01*
X69977000Y-90106500D02*
X71247000Y-90106500D01*
X69342000Y-89471500D02*
X69977000Y-90106500D01*
X82042000Y-60134500D02*
X81407000Y-60769500D01*
X81280000Y-60769500D02*
X80137000Y-60769500D01*
X81407000Y-60769500D02*
X81280000Y-60769500D01*
X80137000Y-60769500D02*
X79502000Y-60134500D01*
X79502000Y-60134500D02*
X79502000Y-58864500D01*
X82042000Y-58864500D02*
X82042000Y-60134500D01*
X90297000Y-60769500D02*
X81280000Y-60769500D01*
X94742000Y-70421500D02*
X93472000Y-71691500D01*
X94742000Y-65214500D02*
X94742000Y-70421500D01*
X90297000Y-60769500D02*
X94742000Y-65214500D01*
X93472000Y-72834500D02*
X93472000Y-71691500D01*
X64262000Y-74231500D02*
X64262000Y-75374500D01*
X67437000Y-86296500D02*
X62992000Y-81851500D01*
X62992000Y-81851500D02*
X62992000Y-76644500D01*
X62992000Y-76644500D02*
X64262000Y-75374500D01*
X67437000Y-86296500D02*
X76454000Y-86296500D01*
X75692000Y-88201500D02*
X75692000Y-86931500D01*
X78232000Y-86931500D02*
X78232000Y-88201500D01*
X77597000Y-86296500D02*
X78232000Y-86931500D01*
X76327000Y-86296500D02*
X76454000Y-86296500D01*
X76454000Y-86296500D02*
X77597000Y-86296500D01*
X75692000Y-86931500D02*
X76327000Y-86296500D01*
D20*
X81407000Y-74104500D02*
X83947000Y-74104500D01*
X66167000Y-53784500D02*
X66167000Y-50609500D01*
X91313000Y-75374500D02*
X90043000Y-74104500D01*
X93472000Y-75374500D02*
X91313000Y-75374500D01*
X89662000Y-71818500D02*
X89916000Y-71564500D01*
X66167000Y-58864500D02*
X66167000Y-53784500D01*
X66167000Y-58864500D02*
X81407000Y-74104500D01*
X90043000Y-74104500D02*
X89662000Y-71818500D01*
X79756000Y-68008500D02*
X82677000Y-68008500D01*
X79502000Y-67754500D02*
X79756000Y-68008500D01*
X82677000Y-65214500D02*
X82042000Y-65214500D01*
X83312000Y-65214500D02*
X82677000Y-65214500D01*
X82677000Y-65214500D02*
X82677000Y-68008500D01*
X75057000Y-81851500D02*
X75057000Y-79057500D01*
X74422000Y-81851500D02*
X75057000Y-81851500D01*
X75057000Y-81851500D02*
X75692000Y-81851500D01*
X78232000Y-79311500D02*
X77978000Y-79057500D01*
X77978000Y-79057500D02*
X75057000Y-79057500D01*
X67691000Y-72961500D02*
X68072000Y-75247500D01*
X91567000Y-88201500D02*
X76327000Y-72961500D01*
X91567000Y-88201500D02*
X91567000Y-93281500D01*
X68072000Y-75247500D02*
X67818000Y-75501500D01*
X64262000Y-71691500D02*
X66421000Y-71691500D01*
X66421000Y-71691500D02*
X67691000Y-72961500D01*
X91567000Y-93281500D02*
X91567000Y-96456500D01*
X76327000Y-72961500D02*
X73787000Y-72961500D01*
X68707000Y-50609500D02*
X68707000Y-53784500D01*
X87122000Y-71310500D02*
X86741000Y-71691500D01*
X84836000Y-71310500D02*
X87122000Y-71310500D01*
X82677000Y-71310500D02*
X84836000Y-71310500D01*
X68707000Y-59499500D02*
X80518000Y-71310500D01*
X80518000Y-71310500D02*
X82677000Y-71310500D01*
X68707000Y-53784500D02*
X68707000Y-59499500D01*
X84582000Y-66230500D02*
X84836000Y-66484500D01*
X84836000Y-66484500D02*
X84836000Y-71310500D01*
X84582000Y-65214500D02*
X84582000Y-66230500D01*
X87376000Y-76517500D02*
X86741000Y-75882500D01*
X86741000Y-75882500D02*
X86741000Y-74104500D01*
X87376000Y-78549500D02*
X87376000Y-76517500D01*
X87503000Y-76644500D02*
X87376000Y-76517500D01*
X93472000Y-76644500D02*
X87503000Y-76644500D01*
X86741000Y-71691500D02*
X87122000Y-71310500D01*
X86741000Y-74104500D02*
X86741000Y-71691500D01*
X70993000Y-72961500D02*
X70993000Y-75374500D01*
X70993000Y-75374500D02*
X70612000Y-75755500D01*
X64262000Y-70421500D02*
X70231000Y-70421500D01*
X70231000Y-70421500D02*
X70358000Y-70548500D01*
X70358000Y-68516500D02*
X70358000Y-70548500D01*
X70993000Y-71183500D02*
X70993000Y-72961500D01*
X70358000Y-70548500D02*
X70993000Y-71183500D01*
X73152000Y-81851500D02*
X73152000Y-80835500D01*
X72898000Y-80581500D02*
X72898000Y-75755500D01*
X73152000Y-80835500D02*
X72898000Y-80581500D01*
X89027000Y-93281500D02*
X89027000Y-87566500D01*
X77216000Y-75755500D02*
X75057000Y-75755500D01*
X89027000Y-87566500D02*
X77216000Y-75755500D01*
X75057000Y-75755500D02*
X72898000Y-75755500D01*
X72898000Y-75755500D02*
X70612000Y-75755500D01*
X70612000Y-75755500D02*
X70993000Y-75374500D01*
X89027000Y-96456500D02*
X89027000Y-93281500D01*
X71247000Y-53784500D02*
X71247000Y-50609500D01*
X93472000Y-78549500D02*
X93472000Y-79184500D01*
X93472000Y-77914500D02*
X93472000Y-78549500D01*
X93472000Y-78549500D02*
X90678000Y-78549500D01*
X87122000Y-67373500D02*
X87122000Y-68008500D01*
X85852000Y-66103500D02*
X87122000Y-67373500D01*
X85852000Y-65214500D02*
X85852000Y-66103500D01*
X90678000Y-81343500D02*
X90297000Y-81724500D01*
X90678000Y-78549500D02*
X90678000Y-81343500D01*
X89281000Y-68008500D02*
X89916000Y-69024500D01*
X87122000Y-68008500D02*
X89281000Y-68008500D01*
X70612000Y-79057500D02*
X68453000Y-79057500D01*
X68453000Y-79057500D02*
X67818000Y-78041500D01*
X67056000Y-68516500D02*
X67056000Y-65722500D01*
X67056000Y-65722500D02*
X67437000Y-65341500D01*
X71882000Y-81851500D02*
X71882000Y-80962500D01*
X71882000Y-80962500D02*
X70612000Y-79692500D01*
X70612000Y-79692500D02*
X70612000Y-79057500D01*
X64262000Y-68516500D02*
X67056000Y-68516500D01*
X64262000Y-69151500D02*
X64262000Y-68516500D01*
X64262000Y-68516500D02*
X64262000Y-67881500D01*
X86487000Y-93281500D02*
X86487000Y-96456500D01*
D19*
X86487000Y-50609500D02*
X86487000Y-53784500D01*
X80772000Y-63944500D02*
X80772000Y-65214500D01*
X84836000Y-55435500D02*
X79629000Y-55435500D01*
X79629000Y-55435500D02*
X77089000Y-57975500D01*
X77089000Y-57975500D02*
X77089000Y-61277500D01*
X77089000Y-61277500D02*
X79756000Y-63944500D01*
X79756000Y-63944500D02*
X80772000Y-63944500D01*
X86487000Y-53784500D02*
X84836000Y-55435500D01*
X80772000Y-63944500D02*
X80772000Y-65214500D01*
X92837000Y-74104500D02*
X92075000Y-73342500D01*
X92075000Y-73342500D02*
X92075000Y-71183500D01*
X92075000Y-71183500D02*
X93472000Y-69786500D01*
X93472000Y-69786500D02*
X93472000Y-65722500D01*
X93472000Y-65722500D02*
X90297000Y-62547500D01*
X90297000Y-62547500D02*
X82169000Y-62547500D01*
X82169000Y-62547500D02*
X80772000Y-63944500D01*
X93472000Y-74104500D02*
X92837000Y-74104500D01*
X64262000Y-72961500D02*
X64897000Y-72961500D01*
X75565000Y-84518500D02*
X76962000Y-83121500D01*
X67437000Y-84518500D02*
X75565000Y-84518500D01*
X64262000Y-81343500D02*
X67437000Y-84518500D01*
X64262000Y-77279500D02*
X64262000Y-81343500D01*
X65659000Y-75882500D02*
X64262000Y-77279500D01*
X65659000Y-73723500D02*
X65659000Y-75882500D01*
X64897000Y-72961500D02*
X65659000Y-73723500D01*
X76962000Y-83121500D02*
X76962000Y-81851500D01*
X71247000Y-93281500D02*
X72898000Y-91630500D01*
X77978000Y-83121500D02*
X76962000Y-83121500D01*
X80645000Y-85788500D02*
X77978000Y-83121500D01*
X80645000Y-89090500D02*
X80645000Y-85788500D01*
X78105000Y-91630500D02*
X80645000Y-89090500D01*
X72898000Y-91630500D02*
X78105000Y-91630500D01*
X76962000Y-83121500D02*
X76962000Y-81851500D01*
X71247000Y-96456500D02*
X71247000Y-93281500D01*
X101727000Y-74104500D02*
X101727000Y-73469500D01*
X101092000Y-72834500D02*
X99822000Y-72834500D01*
X101409500Y-73152000D02*
X101092000Y-72834500D01*
X101727000Y-73469500D02*
X101409500Y-73152000D01*
X101727000Y-74739500D02*
X101727000Y-74104500D01*
X101092000Y-75374500D02*
X101727000Y-74739500D01*
X99822000Y-75374500D02*
X101092000Y-75374500D01*
X76327000Y-50609500D02*
X76327000Y-53784500D01*
X98425000Y-58483500D02*
X101727000Y-61912500D01*
X101727000Y-61912500D02*
X101727000Y-74104500D01*
X56007000Y-85153500D02*
X56007000Y-72961500D01*
X59309000Y-88582500D02*
X56007000Y-85153500D01*
X81407000Y-96456500D02*
X81407000Y-93281500D01*
X57912000Y-71691500D02*
X56642000Y-71691500D01*
X56642000Y-71691500D02*
X56007000Y-72326500D01*
X56007000Y-72326500D02*
X56007000Y-72961500D01*
X56007000Y-73596500D02*
X56324500Y-73914000D01*
X56324500Y-73914000D02*
X56642000Y-74231500D01*
X56642000Y-74231500D02*
X57912000Y-74231500D01*
X56007000Y-72961500D02*
X56007000Y-73596500D01*
X83947000Y-53784500D02*
X83947000Y-50609500D01*
X98806000Y-76644500D02*
X98298000Y-76136500D01*
X98298000Y-76136500D02*
X98298000Y-72199500D01*
X98298000Y-72199500D02*
X100457000Y-70040500D01*
X100457000Y-70040500D02*
X100457000Y-63182500D01*
X100457000Y-63182500D02*
X95504000Y-58229500D01*
X99822000Y-76644500D02*
X98806000Y-76644500D01*
X57912000Y-70421500D02*
X58928000Y-70421500D01*
X57277000Y-83883500D02*
X62230000Y-88836500D01*
X57277000Y-77025500D02*
X57277000Y-83883500D01*
X59436000Y-74866500D02*
X57277000Y-77025500D01*
X59436000Y-70929500D02*
X59436000Y-74866500D01*
X58928000Y-70421500D02*
X59436000Y-70929500D01*
X73787000Y-93281500D02*
X73787000Y-96456500D01*
X99187000Y-53784500D02*
X99187000Y-50609500D01*
X99187000Y-54419500D02*
X100457000Y-55689500D01*
X100457000Y-55689500D02*
X101727000Y-55689500D01*
X101727000Y-55689500D02*
X102997000Y-56959500D01*
X102997000Y-56959500D02*
X102997000Y-76644500D01*
X102997000Y-76644500D02*
X101727000Y-77914500D01*
X101727000Y-77914500D02*
X99822000Y-77914500D01*
X99187000Y-53784500D02*
X99187000Y-54419500D01*
X58547000Y-93281500D02*
X58547000Y-92646500D01*
X56007000Y-69151500D02*
X57912000Y-69151500D01*
X54737000Y-70421500D02*
X56007000Y-69151500D01*
X54737000Y-90106500D02*
X54737000Y-70421500D01*
X56007000Y-91376500D02*
X54737000Y-90106500D01*
X57277000Y-91376500D02*
X56007000Y-91376500D01*
X58547000Y-92646500D02*
X57277000Y-91376500D01*
X58547000Y-93281500D02*
X58547000Y-96456500D01*
X97917000Y-79819500D02*
X98552000Y-79184500D01*
X98552000Y-79184500D02*
X99822000Y-79184500D01*
X97917000Y-80327500D02*
X97917000Y-79819500D01*
X99822000Y-81724500D02*
X98552000Y-81724500D01*
X98552000Y-81724500D02*
X97917000Y-81089500D01*
X97917000Y-81089500D02*
X97917000Y-80454500D01*
X97917000Y-80454500D02*
X97917000Y-80327500D01*
X91567000Y-53784500D02*
X91567000Y-50609500D01*
X91567000Y-56705500D02*
X99187000Y-64325500D01*
X99187000Y-64325500D02*
X99187000Y-69532500D01*
X99187000Y-69532500D02*
X96774000Y-71945500D01*
X96774000Y-71945500D02*
X96774000Y-79565500D01*
X96774000Y-79565500D02*
X97536000Y-80327500D01*
X97536000Y-80327500D02*
X97917000Y-80327500D01*
X91567000Y-53784500D02*
X91567000Y-56705500D01*
X66167000Y-93281500D02*
X66167000Y-90360500D01*
X60198000Y-66738500D02*
X59817000Y-66738500D01*
X60960000Y-67500500D02*
X60198000Y-66738500D01*
X60960000Y-75120500D02*
X60960000Y-67500500D01*
X58547000Y-77533500D02*
X60960000Y-75120500D01*
X58547000Y-82740500D02*
X58547000Y-77533500D01*
X66167000Y-90360500D02*
X58547000Y-82740500D01*
X66167000Y-93281500D02*
X66167000Y-96456500D01*
X59817000Y-66611500D02*
X59817000Y-66738500D01*
X59817000Y-65976500D02*
X59817000Y-66611500D01*
X59182000Y-65341500D02*
X59817000Y-65976500D01*
X57912000Y-65341500D02*
X59182000Y-65341500D01*
X59817000Y-66738500D02*
X59817000Y-67246500D01*
X59182000Y-67881500D02*
X57912000Y-67881500D01*
X59817000Y-67246500D02*
X59182000Y-67881500D01*
X101727000Y-50609500D02*
X101727000Y-53784500D01*
X87122000Y-64325500D02*
X87630000Y-63817500D01*
X87630000Y-63817500D02*
X89789000Y-63817500D01*
X89789000Y-63817500D02*
X91948000Y-65976500D01*
X91948000Y-65976500D02*
X91948000Y-68008500D01*
X87122000Y-65214500D02*
X87122000Y-64325500D01*
X92519500Y-80454500D02*
X93472000Y-80454500D01*
X98044000Y-82804000D02*
X101346000Y-82804000D01*
X97028000Y-81788000D02*
X98044000Y-82804000D01*
X96266000Y-81788000D02*
X97028000Y-81788000D01*
X95250000Y-82804000D02*
X96266000Y-81788000D01*
X92583000Y-82804000D02*
X95250000Y-82804000D01*
X92202000Y-82423000D02*
X92583000Y-82804000D01*
X92202000Y-80772000D02*
X92202000Y-82423000D01*
X92519500Y-80454500D02*
X92202000Y-80772000D01*
X101346000Y-82804000D02*
X102235000Y-81915000D01*
X56388000Y-64262000D02*
X55499000Y-65151000D01*
X65214500Y-66611500D02*
X65532000Y-66294000D01*
X65532000Y-66294000D02*
X65532000Y-64643000D01*
X65532000Y-64643000D02*
X65151000Y-64262000D01*
X65151000Y-64262000D02*
X62484000Y-64262000D01*
X62484000Y-64262000D02*
X61468000Y-65278000D01*
X61468000Y-65278000D02*
X60706000Y-65278000D01*
X60706000Y-65278000D02*
X59690000Y-64262000D01*
X59690000Y-64262000D02*
X56388000Y-64262000D01*
X65214500Y-66611500D02*
X64262000Y-66611500D01*
X70612000Y-81851500D02*
X70612000Y-82740500D01*
X65786000Y-81089500D02*
X65786000Y-79057500D01*
X67945000Y-83248500D02*
X65786000Y-81089500D01*
X70104000Y-83248500D02*
X67945000Y-83248500D01*
X70612000Y-82740500D02*
X70104000Y-83248500D01*
X56007000Y-96456500D02*
X56007000Y-93281500D01*
X94107000Y-53784500D02*
X94107000Y-50609500D01*
X90297000Y-66484500D02*
X89027000Y-65214500D01*
X89027000Y-65214500D02*
X88392000Y-65214500D01*
X68707000Y-81851500D02*
X69342000Y-81851500D01*
X67437000Y-80581500D02*
X68707000Y-81851500D01*
X63627000Y-93281500D02*
X63627000Y-96456500D01*
X78867000Y-51244500D02*
X78867000Y-50609500D01*
X78867000Y-53784500D02*
X78867000Y-50609500D01*
X78867000Y-53911500D02*
X74168000Y-58610500D01*
X74168000Y-58610500D02*
X74168000Y-61531500D01*
X74168000Y-61531500D02*
X77851000Y-65214500D01*
X77851000Y-65214500D02*
X79502000Y-65214500D01*
X78867000Y-53784500D02*
X78867000Y-53911500D01*
X78867000Y-93281500D02*
X78867000Y-93154500D01*
X79883000Y-81851500D02*
X78232000Y-81851500D01*
X83566000Y-85534500D02*
X79883000Y-81851500D01*
X83566000Y-88455500D02*
X83566000Y-85534500D01*
X78867000Y-93154500D02*
X83566000Y-88455500D01*
X78867000Y-93281500D02*
X78867000Y-96456500D01*
X78867000Y-95821500D02*
X78867000Y-96456500D01*
X81407000Y-50609500D02*
X81407000Y-53784500D01*
X82169000Y-56832500D02*
X83312000Y-57975500D01*
X83312000Y-57975500D02*
X83312000Y-58864500D01*
X74422000Y-89090500D02*
X74422000Y-88201500D01*
X75565000Y-90233500D02*
X74422000Y-89090500D01*
X76327000Y-96456500D02*
X76327000Y-93281500D01*
X96647000Y-50609500D02*
X96647000Y-53784500D01*
X88011000Y-56070500D02*
X88011000Y-56070500D01*
X85852000Y-56070500D02*
X84582000Y-57340500D01*
X88011000Y-56070500D02*
X85852000Y-56070500D01*
X84582000Y-57340500D02*
X84582000Y-58864500D01*
X97536000Y-67119500D02*
X97536000Y-67119500D01*
X97536000Y-67500500D02*
X97536000Y-67119500D01*
X97536000Y-64452500D02*
X89154000Y-56070500D01*
X89154000Y-56070500D02*
X88011000Y-56070500D01*
X97536000Y-67500500D02*
X97536000Y-64452500D01*
X60198000Y-79565500D02*
X60198000Y-82613500D01*
X68580000Y-90995500D02*
X69723000Y-90995500D01*
X60198000Y-82613500D02*
X68580000Y-90995500D01*
X60198000Y-79565500D02*
X60198000Y-79946500D01*
X60198000Y-79946500D02*
X60198000Y-79946500D01*
X73152000Y-89725500D02*
X73152000Y-88201500D01*
X69723000Y-90995500D02*
X71882000Y-90995500D01*
X71882000Y-90995500D02*
X73152000Y-89725500D01*
X69723000Y-90995500D02*
X69723000Y-90995500D01*
X61087000Y-96456500D02*
X61087000Y-93281500D01*
M02*
