G04 #@! TF.FileFunction,Legend,Top*
%FSLAX46Y46*%
G04 Gerber Fmt 4.6, Leading zero omitted, Abs format (unit mm)*
G04 Created by KiCad (PCBNEW 4.0.5) date 03/25/17 21:50:00*
%MOMM*%
%LPD*%
G01*
G04 APERTURE LIST*
%ADD10C,0.100000*%
%ADD11C,0.300000*%
%ADD12C,0.200000*%
%ADD13C,0.150000*%
G04 APERTURE END LIST*
D10*
D11*
X102432714Y-55082357D02*
X102218428Y-55010929D01*
X101861285Y-55010929D01*
X101718428Y-55082357D01*
X101646999Y-55153786D01*
X101575571Y-55296643D01*
X101575571Y-55439500D01*
X101646999Y-55582357D01*
X101718428Y-55653786D01*
X101861285Y-55725214D01*
X102146999Y-55796643D01*
X102289857Y-55868071D01*
X102361285Y-55939500D01*
X102432714Y-56082357D01*
X102432714Y-56225214D01*
X102361285Y-56368071D01*
X102289857Y-56439500D01*
X102146999Y-56510929D01*
X101789857Y-56510929D01*
X101575571Y-56439500D01*
X99789857Y-55010929D02*
X99789857Y-56510929D01*
X98932714Y-55010929D01*
X98932714Y-56510929D01*
X96789857Y-56510929D02*
X96504143Y-56510929D01*
X96361285Y-56439500D01*
X96218428Y-56296643D01*
X96147000Y-56010929D01*
X96147000Y-55510929D01*
X96218428Y-55225214D01*
X96361285Y-55082357D01*
X96504143Y-55010929D01*
X96789857Y-55010929D01*
X96932714Y-55082357D01*
X97075571Y-55225214D01*
X97147000Y-55510929D01*
X97147000Y-56010929D01*
X97075571Y-56296643D01*
X96932714Y-56439500D01*
X96789857Y-56510929D01*
X94361285Y-55010929D02*
X94361285Y-56510929D01*
X93789857Y-56510929D01*
X93646999Y-56439500D01*
X93575571Y-56368071D01*
X93504142Y-56225214D01*
X93504142Y-56010929D01*
X93575571Y-55868071D01*
X93646999Y-55796643D01*
X93789857Y-55725214D01*
X94361285Y-55725214D01*
X90861285Y-55153786D02*
X90932714Y-55082357D01*
X91147000Y-55010929D01*
X91289857Y-55010929D01*
X91504142Y-55082357D01*
X91647000Y-55225214D01*
X91718428Y-55368071D01*
X91789857Y-55653786D01*
X91789857Y-55868071D01*
X91718428Y-56153786D01*
X91647000Y-56296643D01*
X91504142Y-56439500D01*
X91289857Y-56510929D01*
X91147000Y-56510929D01*
X90932714Y-56439500D01*
X90861285Y-56368071D01*
X87192714Y-55082357D02*
X86978428Y-55010929D01*
X86621285Y-55010929D01*
X86478428Y-55082357D01*
X86406999Y-55153786D01*
X86335571Y-55296643D01*
X86335571Y-55439500D01*
X86406999Y-55582357D01*
X86478428Y-55653786D01*
X86621285Y-55725214D01*
X86906999Y-55796643D01*
X87049857Y-55868071D01*
X87121285Y-55939500D01*
X87192714Y-56082357D01*
X87192714Y-56225214D01*
X87121285Y-56368071D01*
X87049857Y-56439500D01*
X86906999Y-56510929D01*
X86549857Y-56510929D01*
X86335571Y-56439500D01*
X84549857Y-55010929D02*
X84549857Y-56510929D01*
X83692714Y-55010929D01*
X83692714Y-56510929D01*
X81549857Y-56510929D02*
X81264143Y-56510929D01*
X81121285Y-56439500D01*
X80978428Y-56296643D01*
X80907000Y-56010929D01*
X80907000Y-55510929D01*
X80978428Y-55225214D01*
X81121285Y-55082357D01*
X81264143Y-55010929D01*
X81549857Y-55010929D01*
X81692714Y-55082357D01*
X81835571Y-55225214D01*
X81907000Y-55510929D01*
X81907000Y-56010929D01*
X81835571Y-56296643D01*
X81692714Y-56439500D01*
X81549857Y-56510929D01*
X79121285Y-55010929D02*
X79121285Y-56510929D01*
X78549857Y-56510929D01*
X78406999Y-56439500D01*
X78335571Y-56368071D01*
X78264142Y-56225214D01*
X78264142Y-56010929D01*
X78335571Y-55868071D01*
X78406999Y-55796643D01*
X78549857Y-55725214D01*
X79121285Y-55725214D01*
X75621285Y-55153786D02*
X75692714Y-55082357D01*
X75907000Y-55010929D01*
X76049857Y-55010929D01*
X76264142Y-55082357D01*
X76407000Y-55225214D01*
X76478428Y-55368071D01*
X76549857Y-55653786D01*
X76549857Y-55868071D01*
X76478428Y-56153786D01*
X76407000Y-56296643D01*
X76264142Y-56439500D01*
X76049857Y-56510929D01*
X75907000Y-56510929D01*
X75692714Y-56439500D01*
X75621285Y-56368071D01*
X73199142Y-56217357D02*
X72056285Y-56217357D01*
X70627713Y-57145929D02*
X71341999Y-57145929D01*
X71413428Y-56431643D01*
X71341999Y-56503071D01*
X71199142Y-56574500D01*
X70841999Y-56574500D01*
X70699142Y-56503071D01*
X70627713Y-56431643D01*
X70556285Y-56288786D01*
X70556285Y-55931643D01*
X70627713Y-55788786D01*
X70699142Y-55717357D01*
X70841999Y-55645929D01*
X71199142Y-55645929D01*
X71341999Y-55717357D01*
X71413428Y-55788786D01*
X68484857Y-57145929D02*
X68342000Y-57145929D01*
X68199143Y-57074500D01*
X68127714Y-57003071D01*
X68056285Y-56860214D01*
X67984857Y-56574500D01*
X67984857Y-56217357D01*
X68056285Y-55931643D01*
X68127714Y-55788786D01*
X68199143Y-55717357D01*
X68342000Y-55645929D01*
X68484857Y-55645929D01*
X68627714Y-55717357D01*
X68699143Y-55788786D01*
X68770571Y-55931643D01*
X68842000Y-56217357D01*
X68842000Y-56574500D01*
X68770571Y-56860214D01*
X68699143Y-57003071D01*
X68627714Y-57074500D01*
X68484857Y-57145929D01*
X65484857Y-57145929D02*
X66199143Y-57145929D01*
X66270572Y-56431643D01*
X66199143Y-56503071D01*
X66056286Y-56574500D01*
X65699143Y-56574500D01*
X65556286Y-56503071D01*
X65484857Y-56431643D01*
X65413429Y-56288786D01*
X65413429Y-55931643D01*
X65484857Y-55788786D01*
X65556286Y-55717357D01*
X65699143Y-55645929D01*
X66056286Y-55645929D01*
X66199143Y-55717357D01*
X66270572Y-55788786D01*
X102825572Y-63495929D02*
X101968429Y-63495929D01*
X102397000Y-61995929D02*
X102397000Y-63495929D01*
X100611286Y-61995929D02*
X101111286Y-62710214D01*
X101468429Y-61995929D02*
X101468429Y-63495929D01*
X100897001Y-63495929D01*
X100754143Y-63424500D01*
X100682715Y-63353071D01*
X100611286Y-63210214D01*
X100611286Y-62995929D01*
X100682715Y-62853071D01*
X100754143Y-62781643D01*
X100897001Y-62710214D01*
X101468429Y-62710214D01*
X99968429Y-61995929D02*
X99968429Y-63495929D01*
X99254143Y-61995929D02*
X99254143Y-63495929D01*
X98754143Y-62424500D01*
X98254143Y-63495929D01*
X98254143Y-61995929D01*
X97539857Y-63495929D02*
X97539857Y-62281643D01*
X97468429Y-62138786D01*
X97397000Y-62067357D01*
X97254143Y-61995929D01*
X96968429Y-61995929D01*
X96825571Y-62067357D01*
X96754143Y-62138786D01*
X96682714Y-62281643D01*
X96682714Y-63495929D01*
X96111285Y-63495929D02*
X95111285Y-61995929D01*
X95111285Y-63495929D02*
X96111285Y-61995929D01*
X94611286Y-62067357D02*
X94468429Y-61995929D01*
X94182714Y-61995929D01*
X94039857Y-62067357D01*
X93968429Y-62210214D01*
X93968429Y-62281643D01*
X94039857Y-62424500D01*
X94182714Y-62495929D01*
X94397000Y-62495929D01*
X94539857Y-62567357D01*
X94611286Y-62710214D01*
X94611286Y-62781643D01*
X94539857Y-62924500D01*
X94397000Y-62995929D01*
X94182714Y-62995929D01*
X94039857Y-62924500D01*
X93325571Y-61995929D02*
X93325571Y-62995929D01*
X93325571Y-62853071D02*
X93254143Y-62924500D01*
X93111285Y-62995929D01*
X92897000Y-62995929D01*
X92754143Y-62924500D01*
X92682714Y-62781643D01*
X92682714Y-61995929D01*
X92682714Y-62781643D02*
X92611285Y-62924500D01*
X92468428Y-62995929D01*
X92254143Y-62995929D01*
X92111285Y-62924500D01*
X92039857Y-62781643D01*
X92039857Y-61995929D01*
X90682714Y-61995929D02*
X90682714Y-63495929D01*
X90682714Y-62067357D02*
X90825571Y-61995929D01*
X91111285Y-61995929D01*
X91254143Y-62067357D01*
X91325571Y-62138786D01*
X91397000Y-62281643D01*
X91397000Y-62710214D01*
X91325571Y-62853071D01*
X91254143Y-62924500D01*
X91111285Y-62995929D01*
X90825571Y-62995929D01*
X90682714Y-62924500D01*
D12*
X64897000Y-59626500D02*
X92837000Y-87566500D01*
D11*
X54908428Y-83570071D02*
X55765571Y-83570071D01*
X55337000Y-85070071D02*
X55337000Y-83570071D01*
X57122714Y-85070071D02*
X56622714Y-84355786D01*
X56265571Y-85070071D02*
X56265571Y-83570071D01*
X56836999Y-83570071D01*
X56979857Y-83641500D01*
X57051285Y-83712929D01*
X57122714Y-83855786D01*
X57122714Y-84070071D01*
X57051285Y-84212929D01*
X56979857Y-84284357D01*
X56836999Y-84355786D01*
X56265571Y-84355786D01*
X57765571Y-85070071D02*
X57765571Y-83570071D01*
X58479857Y-85070071D02*
X58479857Y-83570071D01*
X58979857Y-84641500D01*
X59479857Y-83570071D01*
X59479857Y-85070071D01*
X60194143Y-83570071D02*
X60194143Y-84784357D01*
X60265571Y-84927214D01*
X60337000Y-84998643D01*
X60479857Y-85070071D01*
X60765571Y-85070071D01*
X60908429Y-84998643D01*
X60979857Y-84927214D01*
X61051286Y-84784357D01*
X61051286Y-83570071D01*
X61622715Y-83570071D02*
X62622715Y-85070071D01*
X62622715Y-83570071D02*
X61622715Y-85070071D01*
X63122714Y-84998643D02*
X63265571Y-85070071D01*
X63551286Y-85070071D01*
X63694143Y-84998643D01*
X63765571Y-84855786D01*
X63765571Y-84784357D01*
X63694143Y-84641500D01*
X63551286Y-84570071D01*
X63337000Y-84570071D01*
X63194143Y-84498643D01*
X63122714Y-84355786D01*
X63122714Y-84284357D01*
X63194143Y-84141500D01*
X63337000Y-84070071D01*
X63551286Y-84070071D01*
X63694143Y-84141500D01*
X64408429Y-85070071D02*
X64408429Y-84070071D01*
X64408429Y-84212929D02*
X64479857Y-84141500D01*
X64622715Y-84070071D01*
X64837000Y-84070071D01*
X64979857Y-84141500D01*
X65051286Y-84284357D01*
X65051286Y-85070071D01*
X65051286Y-84284357D02*
X65122715Y-84141500D01*
X65265572Y-84070071D01*
X65479857Y-84070071D01*
X65622715Y-84141500D01*
X65694143Y-84284357D01*
X65694143Y-85070071D01*
X67051286Y-85070071D02*
X67051286Y-83570071D01*
X67051286Y-84998643D02*
X66908429Y-85070071D01*
X66622715Y-85070071D01*
X66479857Y-84998643D01*
X66408429Y-84927214D01*
X66337000Y-84784357D01*
X66337000Y-84355786D01*
X66408429Y-84212929D01*
X66479857Y-84141500D01*
X66622715Y-84070071D01*
X66908429Y-84070071D01*
X67051286Y-84141500D01*
X84534858Y-90848643D02*
X85677715Y-90848643D01*
X87106287Y-89920071D02*
X86392001Y-89920071D01*
X86320572Y-90634357D01*
X86392001Y-90562929D01*
X86534858Y-90491500D01*
X86892001Y-90491500D01*
X87034858Y-90562929D01*
X87106287Y-90634357D01*
X87177715Y-90777214D01*
X87177715Y-91134357D01*
X87106287Y-91277214D01*
X87034858Y-91348643D01*
X86892001Y-91420071D01*
X86534858Y-91420071D01*
X86392001Y-91348643D01*
X86320572Y-91277214D01*
X89249143Y-89920071D02*
X89392000Y-89920071D01*
X89534857Y-89991500D01*
X89606286Y-90062929D01*
X89677715Y-90205786D01*
X89749143Y-90491500D01*
X89749143Y-90848643D01*
X89677715Y-91134357D01*
X89606286Y-91277214D01*
X89534857Y-91348643D01*
X89392000Y-91420071D01*
X89249143Y-91420071D01*
X89106286Y-91348643D01*
X89034857Y-91277214D01*
X88963429Y-91134357D01*
X88892000Y-90848643D01*
X88892000Y-90491500D01*
X88963429Y-90205786D01*
X89034857Y-90062929D01*
X89106286Y-89991500D01*
X89249143Y-89920071D01*
X92249143Y-89920071D02*
X91534857Y-89920071D01*
X91463428Y-90634357D01*
X91534857Y-90562929D01*
X91677714Y-90491500D01*
X92034857Y-90491500D01*
X92177714Y-90562929D01*
X92249143Y-90634357D01*
X92320571Y-90777214D01*
X92320571Y-91134357D01*
X92249143Y-91277214D01*
X92177714Y-91348643D01*
X92034857Y-91420071D01*
X91677714Y-91420071D01*
X91534857Y-91348643D01*
X91463428Y-91277214D01*
X70541286Y-91983643D02*
X70755572Y-92055071D01*
X71112715Y-92055071D01*
X71255572Y-91983643D01*
X71327001Y-91912214D01*
X71398429Y-91769357D01*
X71398429Y-91626500D01*
X71327001Y-91483643D01*
X71255572Y-91412214D01*
X71112715Y-91340786D01*
X70827001Y-91269357D01*
X70684143Y-91197929D01*
X70612715Y-91126500D01*
X70541286Y-90983643D01*
X70541286Y-90840786D01*
X70612715Y-90697929D01*
X70684143Y-90626500D01*
X70827001Y-90555071D01*
X71184143Y-90555071D01*
X71398429Y-90626500D01*
X73184143Y-92055071D02*
X73184143Y-90555071D01*
X74041286Y-92055071D01*
X74041286Y-90555071D01*
X76184143Y-90555071D02*
X76469857Y-90555071D01*
X76612715Y-90626500D01*
X76755572Y-90769357D01*
X76827000Y-91055071D01*
X76827000Y-91555071D01*
X76755572Y-91840786D01*
X76612715Y-91983643D01*
X76469857Y-92055071D01*
X76184143Y-92055071D01*
X76041286Y-91983643D01*
X75898429Y-91840786D01*
X75827000Y-91555071D01*
X75827000Y-91055071D01*
X75898429Y-90769357D01*
X76041286Y-90626500D01*
X76184143Y-90555071D01*
X78612715Y-92055071D02*
X78612715Y-90555071D01*
X79184143Y-90555071D01*
X79327001Y-90626500D01*
X79398429Y-90697929D01*
X79469858Y-90840786D01*
X79469858Y-91055071D01*
X79398429Y-91197929D01*
X79327001Y-91269357D01*
X79184143Y-91340786D01*
X78612715Y-91340786D01*
X82112715Y-91912214D02*
X82041286Y-91983643D01*
X81827000Y-92055071D01*
X81684143Y-92055071D01*
X81469858Y-91983643D01*
X81327000Y-91840786D01*
X81255572Y-91697929D01*
X81184143Y-91412214D01*
X81184143Y-91197929D01*
X81255572Y-90912214D01*
X81327000Y-90769357D01*
X81469858Y-90626500D01*
X81684143Y-90555071D01*
X81827000Y-90555071D01*
X82041286Y-90626500D01*
X82112715Y-90697929D01*
X55301286Y-91983643D02*
X55515572Y-92055071D01*
X55872715Y-92055071D01*
X56015572Y-91983643D01*
X56087001Y-91912214D01*
X56158429Y-91769357D01*
X56158429Y-91626500D01*
X56087001Y-91483643D01*
X56015572Y-91412214D01*
X55872715Y-91340786D01*
X55587001Y-91269357D01*
X55444143Y-91197929D01*
X55372715Y-91126500D01*
X55301286Y-90983643D01*
X55301286Y-90840786D01*
X55372715Y-90697929D01*
X55444143Y-90626500D01*
X55587001Y-90555071D01*
X55944143Y-90555071D01*
X56158429Y-90626500D01*
X57944143Y-92055071D02*
X57944143Y-90555071D01*
X58801286Y-92055071D01*
X58801286Y-90555071D01*
X60944143Y-90555071D02*
X61229857Y-90555071D01*
X61372715Y-90626500D01*
X61515572Y-90769357D01*
X61587000Y-91055071D01*
X61587000Y-91555071D01*
X61515572Y-91840786D01*
X61372715Y-91983643D01*
X61229857Y-92055071D01*
X60944143Y-92055071D01*
X60801286Y-91983643D01*
X60658429Y-91840786D01*
X60587000Y-91555071D01*
X60587000Y-91055071D01*
X60658429Y-90769357D01*
X60801286Y-90626500D01*
X60944143Y-90555071D01*
X63372715Y-92055071D02*
X63372715Y-90555071D01*
X63944143Y-90555071D01*
X64087001Y-90626500D01*
X64158429Y-90697929D01*
X64229858Y-90840786D01*
X64229858Y-91055071D01*
X64158429Y-91197929D01*
X64087001Y-91269357D01*
X63944143Y-91340786D01*
X63372715Y-91340786D01*
X66872715Y-91912214D02*
X66801286Y-91983643D01*
X66587000Y-92055071D01*
X66444143Y-92055071D01*
X66229858Y-91983643D01*
X66087000Y-91840786D01*
X66015572Y-91697929D01*
X65944143Y-91412214D01*
X65944143Y-91197929D01*
X66015572Y-90912214D01*
X66087000Y-90769357D01*
X66229858Y-90626500D01*
X66444143Y-90555071D01*
X66587000Y-90555071D01*
X66801286Y-90626500D01*
X66872715Y-90697929D01*
D13*
X69977000Y-49339500D02*
X64897000Y-49339500D01*
X64897000Y-49339500D02*
X64897000Y-51879500D01*
X64897000Y-51879500D02*
X69977000Y-51879500D01*
X72797000Y-52159500D02*
X71247000Y-52159500D01*
X69977000Y-51879500D02*
X69977000Y-49339500D01*
X71247000Y-49059500D02*
X72797000Y-49059500D01*
X72797000Y-49059500D02*
X72797000Y-52159500D01*
X86487000Y-49059500D02*
X88037000Y-49059500D01*
X88037000Y-49059500D02*
X88037000Y-52159500D01*
X88037000Y-52159500D02*
X86487000Y-52159500D01*
X85217000Y-51879500D02*
X75057000Y-51879500D01*
X75057000Y-51879500D02*
X75057000Y-49339500D01*
X75057000Y-49339500D02*
X85217000Y-49339500D01*
X85217000Y-51879500D02*
X85217000Y-49339500D01*
X101727000Y-49059500D02*
X103277000Y-49059500D01*
X103277000Y-49059500D02*
X103277000Y-52159500D01*
X103277000Y-52159500D02*
X101727000Y-52159500D01*
X100457000Y-51879500D02*
X90297000Y-51879500D01*
X90297000Y-51879500D02*
X90297000Y-49339500D01*
X90297000Y-49339500D02*
X100457000Y-49339500D01*
X100457000Y-51879500D02*
X100457000Y-49339500D01*
X89535000Y-62801500D02*
X88773000Y-62801500D01*
X88773000Y-62801500D02*
X88773000Y-61277500D01*
X88773000Y-61277500D02*
X89535000Y-61277500D01*
X78359000Y-64325500D02*
X78359000Y-59753500D01*
X78359000Y-59753500D02*
X89535000Y-59753500D01*
X89535000Y-59753500D02*
X89535000Y-64325500D01*
X89535000Y-64325500D02*
X78359000Y-64325500D01*
X95885000Y-82867500D02*
X95885000Y-82105500D01*
X95885000Y-82105500D02*
X97409000Y-82105500D01*
X97409000Y-82105500D02*
X97409000Y-82867500D01*
X94361000Y-71691500D02*
X98933000Y-71691500D01*
X98933000Y-71691500D02*
X98933000Y-82867500D01*
X98933000Y-82867500D02*
X94361000Y-82867500D01*
X94361000Y-82867500D02*
X94361000Y-71691500D01*
X85979000Y-72199500D02*
X85979000Y-72453500D01*
X85979000Y-72453500D02*
X88265000Y-72453500D01*
X88265000Y-72453500D02*
X88265000Y-72199500D01*
X85979000Y-72199500D02*
X88265000Y-72199500D01*
X88265000Y-72199500D02*
X88265000Y-70548500D01*
X85979000Y-68770500D02*
X85979000Y-67119500D01*
X85979000Y-67119500D02*
X88265000Y-67119500D01*
X88265000Y-67119500D02*
X88265000Y-68770500D01*
X85979000Y-70548500D02*
X85979000Y-72199500D01*
X83820000Y-67119500D02*
X83820000Y-66865500D01*
X83820000Y-66865500D02*
X81534000Y-66865500D01*
X81534000Y-66865500D02*
X81534000Y-67119500D01*
X83820000Y-67119500D02*
X81534000Y-67119500D01*
X81534000Y-67119500D02*
X81534000Y-68770500D01*
X83820000Y-70548500D02*
X83820000Y-72199500D01*
X83820000Y-72199500D02*
X81534000Y-72199500D01*
X81534000Y-72199500D02*
X81534000Y-70548500D01*
X83820000Y-68770500D02*
X83820000Y-67119500D01*
X86487000Y-77406500D02*
X86233000Y-77406500D01*
X86233000Y-77406500D02*
X86233000Y-79692500D01*
X86233000Y-79692500D02*
X86487000Y-79692500D01*
X86487000Y-77406500D02*
X86487000Y-79692500D01*
X86487000Y-79692500D02*
X88138000Y-79692500D01*
X89916000Y-77406500D02*
X91567000Y-77406500D01*
X91567000Y-77406500D02*
X91567000Y-79692500D01*
X91567000Y-79692500D02*
X89916000Y-79692500D01*
X88138000Y-77406500D02*
X86487000Y-77406500D01*
X90932000Y-75247500D02*
X91186000Y-75247500D01*
X91186000Y-75247500D02*
X91186000Y-72961500D01*
X91186000Y-72961500D02*
X90932000Y-72961500D01*
X90932000Y-75247500D02*
X90932000Y-72961500D01*
X90932000Y-72961500D02*
X89281000Y-72961500D01*
X87503000Y-75247500D02*
X85852000Y-75247500D01*
X85852000Y-75247500D02*
X85852000Y-72961500D01*
X85852000Y-72961500D02*
X87503000Y-72961500D01*
X89281000Y-75247500D02*
X90932000Y-75247500D01*
X66802000Y-71818500D02*
X66548000Y-71818500D01*
X66548000Y-71818500D02*
X66548000Y-74104500D01*
X66548000Y-74104500D02*
X66802000Y-74104500D01*
X66802000Y-71818500D02*
X66802000Y-74104500D01*
X66802000Y-74104500D02*
X68453000Y-74104500D01*
X70231000Y-71818500D02*
X71882000Y-71818500D01*
X71882000Y-71818500D02*
X71882000Y-74104500D01*
X71882000Y-74104500D02*
X70231000Y-74104500D01*
X68453000Y-71818500D02*
X66802000Y-71818500D01*
X71247000Y-69659500D02*
X71501000Y-69659500D01*
X71501000Y-69659500D02*
X71501000Y-67373500D01*
X71501000Y-67373500D02*
X71247000Y-67373500D01*
X71247000Y-69659500D02*
X71247000Y-67373500D01*
X71247000Y-67373500D02*
X69596000Y-67373500D01*
X67818000Y-69659500D02*
X66167000Y-69659500D01*
X66167000Y-69659500D02*
X66167000Y-67373500D01*
X66167000Y-67373500D02*
X67818000Y-67373500D01*
X69596000Y-69659500D02*
X71247000Y-69659500D01*
X73914000Y-79946500D02*
X73914000Y-80200500D01*
X73914000Y-80200500D02*
X76200000Y-80200500D01*
X76200000Y-80200500D02*
X76200000Y-79946500D01*
X73914000Y-79946500D02*
X76200000Y-79946500D01*
X76200000Y-79946500D02*
X76200000Y-78295500D01*
X73914000Y-76517500D02*
X73914000Y-74866500D01*
X73914000Y-74866500D02*
X76200000Y-74866500D01*
X76200000Y-74866500D02*
X76200000Y-76517500D01*
X73914000Y-78295500D02*
X73914000Y-79946500D01*
X71755000Y-74866500D02*
X71755000Y-74612500D01*
X71755000Y-74612500D02*
X69469000Y-74612500D01*
X69469000Y-74612500D02*
X69469000Y-74866500D01*
X71755000Y-74866500D02*
X69469000Y-74866500D01*
X69469000Y-74866500D02*
X69469000Y-76517500D01*
X71755000Y-78295500D02*
X71755000Y-79946500D01*
X71755000Y-79946500D02*
X69469000Y-79946500D01*
X69469000Y-79946500D02*
X69469000Y-78295500D01*
X71755000Y-76517500D02*
X71755000Y-74866500D01*
X61849000Y-64198500D02*
X61849000Y-64960500D01*
X61849000Y-64960500D02*
X60325000Y-64960500D01*
X60325000Y-64960500D02*
X60325000Y-64198500D01*
X63373000Y-75374500D02*
X58801000Y-75374500D01*
X58801000Y-75374500D02*
X58801000Y-64198500D01*
X58801000Y-64198500D02*
X63373000Y-64198500D01*
X63373000Y-64198500D02*
X63373000Y-75374500D01*
X68199000Y-84264500D02*
X68961000Y-84264500D01*
X68961000Y-84264500D02*
X68961000Y-85788500D01*
X68961000Y-85788500D02*
X68199000Y-85788500D01*
X79375000Y-82740500D02*
X79375000Y-87312500D01*
X79375000Y-87312500D02*
X68199000Y-87312500D01*
X68199000Y-87312500D02*
X68199000Y-82740500D01*
X68199000Y-82740500D02*
X79375000Y-82740500D01*
X56007000Y-98006500D02*
X54457000Y-98006500D01*
X54457000Y-98006500D02*
X54457000Y-94906500D01*
X54457000Y-94906500D02*
X56007000Y-94906500D01*
X57277000Y-95186500D02*
X67437000Y-95186500D01*
X67437000Y-95186500D02*
X67437000Y-97726500D01*
X67437000Y-97726500D02*
X57277000Y-97726500D01*
X57277000Y-95186500D02*
X57277000Y-97726500D01*
X71247000Y-98006500D02*
X69697000Y-98006500D01*
X69697000Y-98006500D02*
X69697000Y-94906500D01*
X69697000Y-94906500D02*
X71247000Y-94906500D01*
X72517000Y-95186500D02*
X82677000Y-95186500D01*
X82677000Y-95186500D02*
X82677000Y-97726500D01*
X82677000Y-97726500D02*
X72517000Y-97726500D01*
X72517000Y-95186500D02*
X72517000Y-97726500D01*
X87757000Y-97726500D02*
X92837000Y-97726500D01*
X92837000Y-97726500D02*
X92837000Y-95186500D01*
X92837000Y-95186500D02*
X87757000Y-95186500D01*
X84937000Y-94906500D02*
X86487000Y-94906500D01*
X87757000Y-95186500D02*
X87757000Y-97726500D01*
X86487000Y-98006500D02*
X84937000Y-98006500D01*
X84937000Y-98006500D02*
X84937000Y-94906500D01*
X65468667Y-58808881D02*
X65468667Y-57808881D01*
X65849620Y-57808881D01*
X65944858Y-57856500D01*
X65992477Y-57904119D01*
X66040096Y-57999357D01*
X66040096Y-58142214D01*
X65992477Y-58237452D01*
X65944858Y-58285071D01*
X65849620Y-58332690D01*
X65468667Y-58332690D01*
X66373429Y-57808881D02*
X66611524Y-58808881D01*
X66802001Y-58094595D01*
X66992477Y-58808881D01*
X67230572Y-57808881D01*
X68182953Y-58808881D02*
X67849619Y-58332690D01*
X67611524Y-58808881D02*
X67611524Y-57808881D01*
X67992477Y-57808881D01*
X68087715Y-57856500D01*
X68135334Y-57904119D01*
X68182953Y-57999357D01*
X68182953Y-58142214D01*
X68135334Y-58237452D01*
X68087715Y-58285071D01*
X67992477Y-58332690D01*
X67611524Y-58332690D01*
X75073095Y-58173881D02*
X75073095Y-57507214D01*
X75073095Y-57602452D02*
X75120714Y-57554833D01*
X75215952Y-57507214D01*
X75358810Y-57507214D01*
X75454048Y-57554833D01*
X75501667Y-57650071D01*
X75501667Y-58173881D01*
X75501667Y-57650071D02*
X75549286Y-57554833D01*
X75644524Y-57507214D01*
X75787381Y-57507214D01*
X75882619Y-57554833D01*
X75930238Y-57650071D01*
X75930238Y-58173881D01*
X76835000Y-57507214D02*
X76835000Y-58173881D01*
X76406428Y-57507214D02*
X76406428Y-58031024D01*
X76454047Y-58126262D01*
X76549285Y-58173881D01*
X76692143Y-58173881D01*
X76787381Y-58126262D01*
X76835000Y-58078643D01*
X77215952Y-58173881D02*
X77739762Y-57507214D01*
X77215952Y-57507214D02*
X77739762Y-58173881D01*
X78073095Y-57269119D02*
X78120714Y-57221500D01*
X78215952Y-57173881D01*
X78454048Y-57173881D01*
X78549286Y-57221500D01*
X78596905Y-57269119D01*
X78644524Y-57364357D01*
X78644524Y-57459595D01*
X78596905Y-57602452D01*
X78025476Y-58173881D01*
X78644524Y-58173881D01*
X89805095Y-58427881D02*
X89805095Y-57761214D01*
X89805095Y-57856452D02*
X89852714Y-57808833D01*
X89947952Y-57761214D01*
X90090810Y-57761214D01*
X90186048Y-57808833D01*
X90233667Y-57904071D01*
X90233667Y-58427881D01*
X90233667Y-57904071D02*
X90281286Y-57808833D01*
X90376524Y-57761214D01*
X90519381Y-57761214D01*
X90614619Y-57808833D01*
X90662238Y-57904071D01*
X90662238Y-58427881D01*
X91567000Y-57761214D02*
X91567000Y-58427881D01*
X91138428Y-57761214D02*
X91138428Y-58285024D01*
X91186047Y-58380262D01*
X91281285Y-58427881D01*
X91424143Y-58427881D01*
X91519381Y-58380262D01*
X91567000Y-58332643D01*
X91947952Y-58427881D02*
X92471762Y-57761214D01*
X91947952Y-57761214D02*
X92471762Y-58427881D01*
X93376524Y-58427881D02*
X92805095Y-58427881D01*
X93090809Y-58427881D02*
X93090809Y-57427881D01*
X92995571Y-57570738D01*
X92900333Y-57665976D01*
X92805095Y-57713595D01*
X83097810Y-63253881D02*
X83097810Y-62253881D01*
X84145429Y-63158643D02*
X84097810Y-63206262D01*
X83954953Y-63253881D01*
X83859715Y-63253881D01*
X83716857Y-63206262D01*
X83621619Y-63111024D01*
X83574000Y-63015786D01*
X83526381Y-62825310D01*
X83526381Y-62682452D01*
X83574000Y-62491976D01*
X83621619Y-62396738D01*
X83716857Y-62301500D01*
X83859715Y-62253881D01*
X83954953Y-62253881D01*
X84097810Y-62301500D01*
X84145429Y-62349119D01*
X84526381Y-62349119D02*
X84574000Y-62301500D01*
X84669238Y-62253881D01*
X84907334Y-62253881D01*
X85002572Y-62301500D01*
X85050191Y-62349119D01*
X85097810Y-62444357D01*
X85097810Y-62539595D01*
X85050191Y-62682452D01*
X84478762Y-63253881D01*
X85097810Y-63253881D01*
X96337381Y-78255690D02*
X95337381Y-78255690D01*
X96242143Y-77208071D02*
X96289762Y-77255690D01*
X96337381Y-77398547D01*
X96337381Y-77493785D01*
X96289762Y-77636643D01*
X96194524Y-77731881D01*
X96099286Y-77779500D01*
X95908810Y-77827119D01*
X95765952Y-77827119D01*
X95575476Y-77779500D01*
X95480238Y-77731881D01*
X95385000Y-77636643D01*
X95337381Y-77493785D01*
X95337381Y-77398547D01*
X95385000Y-77255690D01*
X95432619Y-77208071D01*
X96337381Y-76255690D02*
X96337381Y-76827119D01*
X96337381Y-76541405D02*
X95337381Y-76541405D01*
X95480238Y-76636643D01*
X95575476Y-76731881D01*
X95623095Y-76827119D01*
X85574143Y-69826166D02*
X85621762Y-69873785D01*
X85669381Y-70016642D01*
X85669381Y-70111880D01*
X85621762Y-70254738D01*
X85526524Y-70349976D01*
X85431286Y-70397595D01*
X85240810Y-70445214D01*
X85097952Y-70445214D01*
X84907476Y-70397595D01*
X84812238Y-70349976D01*
X84717000Y-70254738D01*
X84669381Y-70111880D01*
X84669381Y-70016642D01*
X84717000Y-69873785D01*
X84764619Y-69826166D01*
X85002714Y-68969023D02*
X85669381Y-68969023D01*
X84621762Y-69207119D02*
X85336048Y-69445214D01*
X85336048Y-68826166D01*
X81129143Y-69826166D02*
X81176762Y-69873785D01*
X81224381Y-70016642D01*
X81224381Y-70111880D01*
X81176762Y-70254738D01*
X81081524Y-70349976D01*
X80986286Y-70397595D01*
X80795810Y-70445214D01*
X80652952Y-70445214D01*
X80462476Y-70397595D01*
X80367238Y-70349976D01*
X80272000Y-70254738D01*
X80224381Y-70111880D01*
X80224381Y-70016642D01*
X80272000Y-69873785D01*
X80319619Y-69826166D01*
X80224381Y-69492833D02*
X80224381Y-68873785D01*
X80605333Y-69207119D01*
X80605333Y-69064261D01*
X80652952Y-68969023D01*
X80700571Y-68921404D01*
X80795810Y-68873785D01*
X81033905Y-68873785D01*
X81129143Y-68921404D01*
X81176762Y-68969023D01*
X81224381Y-69064261D01*
X81224381Y-69349976D01*
X81176762Y-69445214D01*
X81129143Y-69492833D01*
X88860334Y-80684643D02*
X88812715Y-80732262D01*
X88669858Y-80779881D01*
X88574620Y-80779881D01*
X88431762Y-80732262D01*
X88336524Y-80637024D01*
X88288905Y-80541786D01*
X88241286Y-80351310D01*
X88241286Y-80208452D01*
X88288905Y-80017976D01*
X88336524Y-79922738D01*
X88431762Y-79827500D01*
X88574620Y-79779881D01*
X88669858Y-79779881D01*
X88812715Y-79827500D01*
X88860334Y-79875119D01*
X89241286Y-79875119D02*
X89288905Y-79827500D01*
X89384143Y-79779881D01*
X89622239Y-79779881D01*
X89717477Y-79827500D01*
X89765096Y-79875119D01*
X89812715Y-79970357D01*
X89812715Y-80065595D01*
X89765096Y-80208452D01*
X89193667Y-80779881D01*
X89812715Y-80779881D01*
X88225334Y-76366643D02*
X88177715Y-76414262D01*
X88034858Y-76461881D01*
X87939620Y-76461881D01*
X87796762Y-76414262D01*
X87701524Y-76319024D01*
X87653905Y-76223786D01*
X87606286Y-76033310D01*
X87606286Y-75890452D01*
X87653905Y-75699976D01*
X87701524Y-75604738D01*
X87796762Y-75509500D01*
X87939620Y-75461881D01*
X88034858Y-75461881D01*
X88177715Y-75509500D01*
X88225334Y-75557119D01*
X89177715Y-76461881D02*
X88606286Y-76461881D01*
X88892000Y-76461881D02*
X88892000Y-75461881D01*
X88796762Y-75604738D01*
X88701524Y-75699976D01*
X88606286Y-75747595D01*
X69175334Y-71413643D02*
X69127715Y-71461262D01*
X68984858Y-71508881D01*
X68889620Y-71508881D01*
X68746762Y-71461262D01*
X68651524Y-71366024D01*
X68603905Y-71270786D01*
X68556286Y-71080310D01*
X68556286Y-70937452D01*
X68603905Y-70746976D01*
X68651524Y-70651738D01*
X68746762Y-70556500D01*
X68889620Y-70508881D01*
X68984858Y-70508881D01*
X69127715Y-70556500D01*
X69175334Y-70604119D01*
X70127715Y-71508881D02*
X69556286Y-71508881D01*
X69842000Y-71508881D02*
X69842000Y-70508881D01*
X69746762Y-70651738D01*
X69651524Y-70746976D01*
X69556286Y-70794595D01*
X68540334Y-67095643D02*
X68492715Y-67143262D01*
X68349858Y-67190881D01*
X68254620Y-67190881D01*
X68111762Y-67143262D01*
X68016524Y-67048024D01*
X67968905Y-66952786D01*
X67921286Y-66762310D01*
X67921286Y-66619452D01*
X67968905Y-66428976D01*
X68016524Y-66333738D01*
X68111762Y-66238500D01*
X68254620Y-66190881D01*
X68349858Y-66190881D01*
X68492715Y-66238500D01*
X68540334Y-66286119D01*
X68921286Y-66286119D02*
X68968905Y-66238500D01*
X69064143Y-66190881D01*
X69302239Y-66190881D01*
X69397477Y-66238500D01*
X69445096Y-66286119D01*
X69492715Y-66381357D01*
X69492715Y-66476595D01*
X69445096Y-66619452D01*
X68873667Y-67190881D01*
X69492715Y-67190881D01*
X77319143Y-77573166D02*
X77366762Y-77620785D01*
X77414381Y-77763642D01*
X77414381Y-77858880D01*
X77366762Y-78001738D01*
X77271524Y-78096976D01*
X77176286Y-78144595D01*
X76985810Y-78192214D01*
X76842952Y-78192214D01*
X76652476Y-78144595D01*
X76557238Y-78096976D01*
X76462000Y-78001738D01*
X76414381Y-77858880D01*
X76414381Y-77763642D01*
X76462000Y-77620785D01*
X76509619Y-77573166D01*
X76414381Y-77239833D02*
X76414381Y-76620785D01*
X76795333Y-76954119D01*
X76795333Y-76811261D01*
X76842952Y-76716023D01*
X76890571Y-76668404D01*
X76985810Y-76620785D01*
X77223905Y-76620785D01*
X77319143Y-76668404D01*
X77366762Y-76716023D01*
X77414381Y-76811261D01*
X77414381Y-77096976D01*
X77366762Y-77192214D01*
X77319143Y-77239833D01*
X72874143Y-77573166D02*
X72921762Y-77620785D01*
X72969381Y-77763642D01*
X72969381Y-77858880D01*
X72921762Y-78001738D01*
X72826524Y-78096976D01*
X72731286Y-78144595D01*
X72540810Y-78192214D01*
X72397952Y-78192214D01*
X72207476Y-78144595D01*
X72112238Y-78096976D01*
X72017000Y-78001738D01*
X71969381Y-77858880D01*
X71969381Y-77763642D01*
X72017000Y-77620785D01*
X72064619Y-77573166D01*
X72302714Y-76716023D02*
X72969381Y-76716023D01*
X71921762Y-76954119D02*
X72636048Y-77192214D01*
X72636048Y-76573166D01*
X62301381Y-70762690D02*
X61301381Y-70762690D01*
X62206143Y-69715071D02*
X62253762Y-69762690D01*
X62301381Y-69905547D01*
X62301381Y-70000785D01*
X62253762Y-70143643D01*
X62158524Y-70238881D01*
X62063286Y-70286500D01*
X61872810Y-70334119D01*
X61729952Y-70334119D01*
X61539476Y-70286500D01*
X61444238Y-70238881D01*
X61349000Y-70143643D01*
X61301381Y-70000785D01*
X61301381Y-69905547D01*
X61349000Y-69762690D01*
X61396619Y-69715071D01*
X62301381Y-68762690D02*
X62301381Y-69334119D01*
X62301381Y-69048405D02*
X61301381Y-69048405D01*
X61444238Y-69143643D01*
X61539476Y-69238881D01*
X61587095Y-69334119D01*
X72683810Y-84716881D02*
X72683810Y-83716881D01*
X73731429Y-84621643D02*
X73683810Y-84669262D01*
X73540953Y-84716881D01*
X73445715Y-84716881D01*
X73302857Y-84669262D01*
X73207619Y-84574024D01*
X73160000Y-84478786D01*
X73112381Y-84288310D01*
X73112381Y-84145452D01*
X73160000Y-83954976D01*
X73207619Y-83859738D01*
X73302857Y-83764500D01*
X73445715Y-83716881D01*
X73540953Y-83716881D01*
X73683810Y-83764500D01*
X73731429Y-83812119D01*
X74112381Y-83812119D02*
X74160000Y-83764500D01*
X74255238Y-83716881D01*
X74493334Y-83716881D01*
X74588572Y-83764500D01*
X74636191Y-83812119D01*
X74683810Y-83907357D01*
X74683810Y-84002595D01*
X74636191Y-84145452D01*
X74064762Y-84716881D01*
X74683810Y-84716881D01*
X64405095Y-89542881D02*
X64405095Y-88876214D01*
X64405095Y-88971452D02*
X64452714Y-88923833D01*
X64547952Y-88876214D01*
X64690810Y-88876214D01*
X64786048Y-88923833D01*
X64833667Y-89019071D01*
X64833667Y-89542881D01*
X64833667Y-89019071D02*
X64881286Y-88923833D01*
X64976524Y-88876214D01*
X65119381Y-88876214D01*
X65214619Y-88923833D01*
X65262238Y-89019071D01*
X65262238Y-89542881D01*
X66167000Y-88876214D02*
X66167000Y-89542881D01*
X65738428Y-88876214D02*
X65738428Y-89400024D01*
X65786047Y-89495262D01*
X65881285Y-89542881D01*
X66024143Y-89542881D01*
X66119381Y-89495262D01*
X66167000Y-89447643D01*
X66547952Y-89542881D02*
X67071762Y-88876214D01*
X66547952Y-88876214D02*
X67071762Y-89542881D01*
X67976524Y-89542881D02*
X67405095Y-89542881D01*
X67690809Y-89542881D02*
X67690809Y-88542881D01*
X67595571Y-88685738D01*
X67500333Y-88780976D01*
X67405095Y-88828595D01*
X79137095Y-89796881D02*
X79137095Y-89130214D01*
X79137095Y-89225452D02*
X79184714Y-89177833D01*
X79279952Y-89130214D01*
X79422810Y-89130214D01*
X79518048Y-89177833D01*
X79565667Y-89273071D01*
X79565667Y-89796881D01*
X79565667Y-89273071D02*
X79613286Y-89177833D01*
X79708524Y-89130214D01*
X79851381Y-89130214D01*
X79946619Y-89177833D01*
X79994238Y-89273071D01*
X79994238Y-89796881D01*
X80899000Y-89130214D02*
X80899000Y-89796881D01*
X80470428Y-89130214D02*
X80470428Y-89654024D01*
X80518047Y-89749262D01*
X80613285Y-89796881D01*
X80756143Y-89796881D01*
X80851381Y-89749262D01*
X80899000Y-89701643D01*
X81279952Y-89796881D02*
X81803762Y-89130214D01*
X81279952Y-89130214D02*
X81803762Y-89796881D01*
X82137095Y-88892119D02*
X82184714Y-88844500D01*
X82279952Y-88796881D01*
X82518048Y-88796881D01*
X82613286Y-88844500D01*
X82660905Y-88892119D01*
X82708524Y-88987357D01*
X82708524Y-89082595D01*
X82660905Y-89225452D01*
X82089476Y-89796881D01*
X82708524Y-89796881D01*
X89598667Y-89161881D02*
X89598667Y-88161881D01*
X89979620Y-88161881D01*
X90074858Y-88209500D01*
X90122477Y-88257119D01*
X90170096Y-88352357D01*
X90170096Y-88495214D01*
X90122477Y-88590452D01*
X90074858Y-88638071D01*
X89979620Y-88685690D01*
X89598667Y-88685690D01*
X90503429Y-88161881D02*
X90741524Y-89161881D01*
X90932001Y-88447595D01*
X91122477Y-89161881D01*
X91360572Y-88161881D01*
X92312953Y-89161881D02*
X91979619Y-88685690D01*
X91741524Y-89161881D02*
X91741524Y-88161881D01*
X92122477Y-88161881D01*
X92217715Y-88209500D01*
X92265334Y-88257119D01*
X92312953Y-88352357D01*
X92312953Y-88495214D01*
X92265334Y-88590452D01*
X92217715Y-88638071D01*
X92122477Y-88685690D01*
X91741524Y-88685690D01*
M02*
