G04 #@! TF.FileFunction,Copper,L2,Bot,Signal*
%FSLAX46Y46*%
G04 Gerber Fmt 4.6, Leading zero omitted, Abs format (unit mm)*
G04 Created by KiCad (PCBNEW 4.0.5) date 03/25/17 21:50:00*
%MOMM*%
%LPD*%
G01*
G04 APERTURE LIST*
%ADD10C,0.100000*%
%ADD11R,1.727200X2.032000*%
%ADD12O,1.727200X2.032000*%
%ADD13C,2.000000*%
%ADD14C,1.500000*%
%ADD15C,0.600000*%
%ADD16C,0.500000*%
G04 APERTURE END LIST*
D10*
D11*
X71247000Y-50609500D03*
D12*
X68707000Y-50609500D03*
X66167000Y-50609500D03*
D11*
X86487000Y-50609500D03*
D12*
X83947000Y-50609500D03*
X81407000Y-50609500D03*
X78867000Y-50609500D03*
X76327000Y-50609500D03*
D11*
X101727000Y-50609500D03*
D12*
X99187000Y-50609500D03*
X96647000Y-50609500D03*
X94107000Y-50609500D03*
X91567000Y-50609500D03*
D11*
X56007000Y-96456500D03*
D12*
X58547000Y-96456500D03*
X61087000Y-96456500D03*
X63627000Y-96456500D03*
X66167000Y-96456500D03*
D11*
X71247000Y-96456500D03*
D12*
X73787000Y-96456500D03*
X76327000Y-96456500D03*
X78867000Y-96456500D03*
X81407000Y-96456500D03*
D11*
X86487000Y-96456500D03*
D12*
X89027000Y-96456500D03*
X91567000Y-96456500D03*
D13*
X89916000Y-71564500D03*
X83947000Y-74104500D03*
X66167000Y-53784500D03*
X79502000Y-67754500D03*
X78232000Y-79311500D03*
X91567000Y-93281500D03*
X73787000Y-72961500D03*
X67818000Y-75501500D03*
X68707000Y-53784500D03*
X89027000Y-93281500D03*
X71247000Y-53784500D03*
X90297000Y-81724500D03*
X89916000Y-69024500D03*
X67818000Y-78041500D03*
X67437000Y-65341500D03*
X86487000Y-93281500D03*
D14*
X86487000Y-53784500D03*
X71247000Y-93281500D03*
X76327000Y-53784500D03*
X98425000Y-58483500D03*
X59309000Y-88582500D03*
X81407000Y-93281500D03*
X83947000Y-53784500D03*
X95504000Y-58229500D03*
X62230000Y-88836500D03*
X73787000Y-93281500D03*
X99187000Y-53784500D03*
X58547000Y-93281500D03*
X91567000Y-53784500D03*
X66167000Y-93281500D03*
X101727000Y-53784500D03*
X91948000Y-68008500D03*
X102235000Y-81915000D03*
X55499000Y-65151000D03*
X65786000Y-79057500D03*
X56007000Y-93281500D03*
X94107000Y-53784500D03*
X90297000Y-66484500D03*
X67437000Y-80581500D03*
X63627000Y-93281500D03*
X78867000Y-53784500D03*
X78867000Y-93281500D03*
X81407000Y-53784500D03*
X82169000Y-56832500D03*
X75565000Y-90233500D03*
X76327000Y-93281500D03*
X96647000Y-53784500D03*
X97536000Y-67500500D03*
X60198000Y-79565500D03*
X61087000Y-93281500D03*
D15*
X89916000Y-71564500D02*
X87757000Y-74104500D01*
X87757000Y-74104500D02*
X83947000Y-74104500D01*
X83947000Y-74104500D02*
X83947000Y-72199500D01*
X66167000Y-50609500D02*
X66167000Y-53784500D01*
X83947000Y-72199500D02*
X79502000Y-67754500D01*
X73787000Y-74866500D02*
X78232000Y-79311500D01*
X91567000Y-96456500D02*
X91567000Y-93281500D01*
X73787000Y-72961500D02*
X73787000Y-74866500D01*
X69977000Y-72961500D02*
X73787000Y-72961500D01*
X67818000Y-75501500D02*
X69977000Y-72961500D01*
X68707000Y-53784500D02*
X68707000Y-50609500D01*
X89027000Y-93281500D02*
X89027000Y-96456500D01*
X71247000Y-50609500D02*
X71247000Y-53784500D01*
X71247000Y-63944500D02*
X71247000Y-63944500D01*
X71247000Y-63944500D02*
X71247000Y-53784500D01*
X90297000Y-81724500D02*
X89027000Y-81724500D01*
X89027000Y-81724500D02*
X71247000Y-63944500D01*
X89827100Y-68897500D02*
X85090000Y-68897500D01*
X89916000Y-69024500D02*
X89827100Y-68897500D01*
X80137000Y-63944500D02*
X71247000Y-63944500D01*
X85090000Y-68897500D02*
X80137000Y-63944500D01*
X72644000Y-78168500D02*
X77597000Y-83121500D01*
X77597000Y-83121500D02*
X86487000Y-83121500D01*
X67818000Y-78041500D02*
X67906900Y-78168500D01*
X67906900Y-78168500D02*
X72644000Y-78168500D01*
X68707000Y-65341500D02*
X86487000Y-83121500D01*
X67437000Y-65341500D02*
X68707000Y-65341500D01*
X86487000Y-83121500D02*
X86487000Y-93281500D01*
X86487000Y-83121500D02*
X86487000Y-83121500D01*
X86487000Y-96456500D02*
X86487000Y-93281500D01*
D16*
X86487000Y-53784500D02*
X86487000Y-50609500D01*
X71247000Y-93281500D02*
X71247000Y-96456500D01*
X76327000Y-53784500D02*
X76327000Y-50609500D01*
X76327000Y-57467500D02*
X80518000Y-61658500D01*
X80518000Y-61658500D02*
X96012000Y-61658500D01*
X96012000Y-61658500D02*
X98425000Y-58610500D01*
X98425000Y-58610500D02*
X98425000Y-58483500D01*
X76327000Y-53784500D02*
X76327000Y-57467500D01*
X81407000Y-93281500D02*
X81407000Y-89598500D01*
X59309000Y-88455500D02*
X59309000Y-88582500D01*
X61722000Y-85407500D02*
X59309000Y-88455500D01*
X77216000Y-85407500D02*
X61722000Y-85407500D01*
X81407000Y-89598500D02*
X77216000Y-85407500D01*
X81407000Y-93281500D02*
X81407000Y-96456500D01*
X83947000Y-50609500D02*
X83947000Y-53784500D01*
X95504000Y-58229500D02*
X85598000Y-58229500D01*
X85598000Y-58229500D02*
X83947000Y-56578500D01*
X83947000Y-56578500D02*
X83947000Y-53784500D01*
X73787000Y-90487500D02*
X73787000Y-93281500D01*
X72136000Y-88836500D02*
X73787000Y-90487500D01*
X62230000Y-88836500D02*
X72136000Y-88836500D01*
X73787000Y-96456500D02*
X73787000Y-93281500D01*
X99187000Y-50609500D02*
X99187000Y-53784500D01*
X58547000Y-96456500D02*
X58547000Y-93281500D01*
X91567000Y-50609500D02*
X91567000Y-53784500D01*
X66167000Y-96456500D02*
X66167000Y-93281500D01*
X101727000Y-53784500D02*
X101727000Y-50609500D01*
X102997000Y-67754500D02*
X102997000Y-55054500D01*
X102997000Y-69024500D02*
X102997000Y-67754500D01*
X102997000Y-69659500D02*
X102997000Y-69024500D01*
X102997000Y-55054500D02*
X101727000Y-53784500D01*
X91948000Y-68008500D02*
X93599000Y-69659500D01*
X93599000Y-69659500D02*
X102997000Y-69659500D01*
X102235000Y-81915000D02*
X102235000Y-81851500D01*
X102235000Y-81851500D02*
X102266750Y-81819750D01*
X102997000Y-81089500D02*
X102997000Y-70294500D01*
X102997000Y-69659500D02*
X102997000Y-70294500D01*
X102266750Y-81819750D02*
X102997000Y-81089500D01*
X55467250Y-65246250D02*
X54737000Y-65976500D01*
X54737000Y-77406500D02*
X54737000Y-76771500D01*
X54737000Y-65976500D02*
X54737000Y-76771500D01*
X55499000Y-65214500D02*
X55467250Y-65246250D01*
X55499000Y-65151000D02*
X55499000Y-65214500D01*
X64135000Y-77406500D02*
X54737000Y-77406500D01*
X65786000Y-79057500D02*
X64135000Y-77406500D01*
X54737000Y-92011500D02*
X56007000Y-93281500D01*
X54737000Y-77406500D02*
X54737000Y-78041500D01*
X54737000Y-78041500D02*
X54737000Y-79311500D01*
X54737000Y-79311500D02*
X54737000Y-92011500D01*
X56007000Y-93281500D02*
X56007000Y-96456500D01*
X94107000Y-50609500D02*
X94107000Y-53784500D01*
X94107000Y-54927500D02*
X95758000Y-56578500D01*
X95758000Y-56578500D02*
X99314000Y-56578500D01*
X99314000Y-56578500D02*
X100457000Y-57721500D01*
X100457000Y-57721500D02*
X100457000Y-61912500D01*
X100457000Y-61912500D02*
X95885000Y-66484500D01*
X95885000Y-66484500D02*
X90297000Y-66484500D01*
X90297000Y-66484500D02*
X90297000Y-66484500D01*
X94107000Y-53784500D02*
X94107000Y-54927500D01*
X63627000Y-93281500D02*
X63627000Y-92138500D01*
X67437000Y-80581500D02*
X67437000Y-80581500D01*
X61849000Y-80581500D02*
X67437000Y-80581500D01*
X57277000Y-85153500D02*
X61849000Y-80581500D01*
X57277000Y-89344500D02*
X57277000Y-85153500D01*
X58420000Y-90487500D02*
X57277000Y-89344500D01*
X61976000Y-90487500D02*
X58420000Y-90487500D01*
X63627000Y-92138500D02*
X61976000Y-90487500D01*
X63627000Y-96456500D02*
X63627000Y-93281500D01*
X78867000Y-50609500D02*
X78867000Y-53784500D01*
X78867000Y-96456500D02*
X78867000Y-93281500D01*
X81407000Y-53784500D02*
X81407000Y-50609500D01*
X81407000Y-56070500D02*
X82169000Y-56832500D01*
X81407000Y-53784500D02*
X81407000Y-56070500D01*
X76327000Y-93281500D02*
X76327000Y-90995500D01*
X76327000Y-90995500D02*
X75565000Y-90233500D01*
X76327000Y-93281500D02*
X76327000Y-96456500D01*
X96647000Y-53784500D02*
X96647000Y-50609500D01*
X98171000Y-55308500D02*
X100457000Y-55308500D01*
X100457000Y-55308500D02*
X101727000Y-56578500D01*
X101727000Y-56578500D02*
X101727000Y-65468500D01*
X101727000Y-65468500D02*
X99060000Y-67500500D01*
X99060000Y-67500500D02*
X97536000Y-67500500D01*
X96647000Y-53784500D02*
X98171000Y-55308500D01*
X61087000Y-93281500D02*
X59563000Y-91757500D01*
X58674000Y-79565500D02*
X60198000Y-79565500D01*
X56007000Y-81597500D02*
X58674000Y-79565500D01*
X56007000Y-90487500D02*
X56007000Y-81597500D01*
X57277000Y-91757500D02*
X56007000Y-90487500D01*
X59563000Y-91757500D02*
X57277000Y-91757500D01*
X61087000Y-93281500D02*
X61087000Y-96456500D01*
M02*
